solid 4705 switch draft
facet normal -9.05917569337911e-18 0.9958932064677035 0.0905357460425224
  outer loop
    vertex 1545.6964811665046 470.8877112108171 14.999999999999998
    vertex 1549.6964811665046 471.88771121081714 3.9999999999999982
    vertex 1544.6964811665046 471.88771121081714 3.9999999999999982
  endloop
endfacet
facet normal -9.05917569337911e-18 0.9958932064677035 0.0905357460425224
  outer loop
    vertex 1549.6964811665046 471.88771121081714 3.9999999999999982
    vertex 1545.6964811665046 470.8877112108171 14.999999999999998
    vertex 1549.6964811665046 470.8877112108171 14.999999999999998
  endloop
endfacet
facet normal -9.079544978943971e-18 -0.8944271909999162 0.44721359549995743
  outer loop
    vertex 1578.1964811665043 495.8877112108171 3.9999999999999982
    vertex 1567.6964811665043 493.8877112108171 0.0
    vertex 1578.1964811665043 493.8877112108171 0.0
  endloop
endfacet
facet normal -9.079544978943971e-18 -0.8944271909999162 0.44721359549995743
  outer loop
    vertex 1567.6964811665043 493.8877112108171 0.0
    vertex 1578.1964811665043 495.8877112108171 3.9999999999999982
    vertex 1567.6964811665043 495.8877112108171 3.9999999999999982
  endloop
endfacet
facet normal -0.0 -0.0 1.0
  outer loop
    vertex 1549.6964811665046 465.88771121081703 14.999999999999998
    vertex 1545.6964811665046 470.8877112108171 14.999999999999998
    vertex 1545.6964811665046 465.88771121081703 14.999999999999998
  endloop
endfacet
facet normal -0.0 -0.0 1.0
  outer loop
    vertex 1545.6964811665046 470.8877112108171 14.999999999999998
    vertex 1549.6964811665046 465.88771121081703 14.999999999999998
    vertex 1549.6964811665046 470.8877112108171 14.999999999999998
  endloop
endfacet
facet normal 4.529587846689555e-18 -0.9958932064677035 0.0905357460425224
  outer loop
    vertex 1549.6964811665046 465.88771121081703 14.999999999999998
    vertex 1544.6964811665046 464.887711210817 3.9999999999999982
    vertex 1549.6964811665046 464.887711210817 3.9999999999999982
  endloop
endfacet
facet normal 4.529587846689555e-18 -0.9958932064677035 0.0905357460425224
  outer loop
    vertex 1544.6964811665046 464.887711210817 3.9999999999999982
    vertex 1549.6964811665046 465.88771121081703 14.999999999999998
    vertex 1545.6964811665046 465.88771121081703 14.999999999999998
  endloop
endfacet
facet normal -0.0 -0.6087614290086629 -0.7933533402912795
  outer loop
    vertex 1551.6964811665046 467.51271121081714 10.98445554337723
    vertex 1549.6964811665046 467.1502743437406 11.262563132923539
    vertex 1549.6964811665046 467.51271121081714 10.98445554337723
  endloop
endfacet
facet normal -0.0 -0.6087614290086629 -0.7933533402912795
  outer loop
    vertex 1549.6964811665046 467.1502743437406 11.262563132923539
    vertex 1551.6964811665046 467.51271121081714 10.98445554337723
    vertex 1551.6964811665046 467.1502743437406 11.262563132923539
  endloop
endfacet
facet normal -0.0 -0.38268343236508734 -0.923879532511288
  outer loop
    vertex 1551.6964811665046 467.9347778818877 10.809629803994127
    vertex 1549.6964811665046 467.51271121081714 10.98445554337723
    vertex 1549.6964811665046 467.9347778818877 10.809629803994127
  endloop
endfacet
facet normal -0.0 -0.38268343236508734 -0.923879532511288
  outer loop
    vertex 1549.6964811665046 467.51271121081714 10.98445554337723
    vertex 1551.6964811665046 467.9347778818877 10.809629803994127
    vertex 1551.6964811665046 467.51271121081714 10.98445554337723
  endloop
endfacet
facet normal -9.079544978943972e-18 -0.8944271909999162 0.44721359549995726
  outer loop
    vertex 1560.1964811665046 495.8877112108171 3.9999999999999982
    vertex 1549.6964811665046 493.8877112108171 -1.4099832412739487e-15
    vertex 1560.1964811665046 493.8877112108171 -1.4099832412739487e-15
  endloop
endfacet
facet normal -9.079544978943972e-18 -0.8944271909999162 0.44721359549995726
  outer loop
    vertex 1549.6964811665046 493.8877112108171 -1.4099832412739487e-15
    vertex 1560.1964811665046 495.8877112108171 3.9999999999999982
    vertex 1549.6964811665046 495.8877112108171 3.9999999999999982
  endloop
endfacet
facet normal -0.9958932064677044 1.7115755222952422e-18 0.09053574604251433
  outer loop
    vertex 1563.6964811665043 465.88771121081703 14.999999999999998
    vertex 1562.6964811665046 471.88771121081714 3.9999999999999982
    vertex 1562.6964811665046 464.887711210817 3.9999999999999982
  endloop
endfacet
facet normal -0.9958932064677044 1.7115755222952422e-18 0.09053574604251433
  outer loop
    vertex 1562.6964811665046 471.88771121081714 3.9999999999999982
    vertex 1563.6964811665043 465.88771121081703 14.999999999999998
    vertex 1563.6964811665043 470.8877112108171 14.999999999999998
  endloop
endfacet
facet normal -0.0 -0.0 1.0
  outer loop
    vertex 1539.8175224053612 458.50404757513974 3.9999999999999996
    vertex 1544.6964811665046 464.887711210817 3.9999999999999982
    vertex 1539.8175224053612 501.50404757513974 3.9999999999999996
  endloop
endfacet
facet normal -0.0 -0.0 1.0
  outer loop
    vertex 1544.6964811665046 464.887711210817 3.9999999999999982
    vertex 1539.8175224053612 458.50404757513974 3.9999999999999996
    vertex 1585.817522405361 458.50404757513974 3.9999999999999996
  endloop
endfacet
facet normal -0.0 -0.0 1.0
  outer loop
    vertex 1544.6964811665046 464.887711210817 3.9999999999999982
    vertex 1585.817522405361 458.50404757513974 3.9999999999999996
    vertex 1549.6964811665046 464.887711210817 3.9999999999999982
  endloop
endfacet
facet normal -0.0 -0.0 1.0
  outer loop
    vertex 1549.6964811665046 464.887711210817 3.9999999999999982
    vertex 1585.817522405361 458.50404757513974 3.9999999999999996
    vertex 1549.6964811665046 465.88771121081703 3.9999999999999982
  endloop
endfacet
facet normal -0.0 -0.0 1.0
  outer loop
    vertex 1549.6964811665046 465.88771121081703 3.9999999999999982
    vertex 1585.817522405361 458.50404757513974 3.9999999999999996
    vertex 1562.6964811665046 464.887711210817 3.9999999999999982
  endloop
endfacet
facet normal -0.0 -0.0 1.0
  outer loop
    vertex 1549.6964811665046 465.88771121081703 3.9999999999999982
    vertex 1562.6964811665046 464.887711210817 3.9999999999999982
    vertex 1560.1964811665046 465.88771121081703 3.9999999999999982
  endloop
endfacet
facet normal -0.0 -0.0 1.0
  outer loop
    vertex 1560.1964811665046 465.88771121081703 3.9999999999999982
    vertex 1562.6964811665046 464.887711210817 3.9999999999999982
    vertex 1560.1964811665046 495.8877112108171 3.9999999999999982
  endloop
endfacet
facet normal -0.0 -0.0 1.0
  outer loop
    vertex 1562.6964811665046 464.887711210817 3.9999999999999982
    vertex 1585.817522405361 458.50404757513974 3.9999999999999996
    vertex 1567.6964811665043 464.887711210817 3.9999999999999982
  endloop
endfacet
facet normal -0.0 -0.0 1.0
  outer loop
    vertex 1567.6964811665043 464.887711210817 3.9999999999999982
    vertex 1585.817522405361 458.50404757513974 3.9999999999999996
    vertex 1567.6964811665043 465.88771121081703 3.9999999999999982
  endloop
endfacet
facet normal -0.0 -0.0 1.0
  outer loop
    vertex 1567.6964811665043 465.88771121081703 3.9999999999999982
    vertex 1585.817522405361 458.50404757513974 3.9999999999999996
    vertex 1578.1964811665043 465.88771121081703 3.9999999999999982
  endloop
endfacet
facet normal -0.0 -0.0 1.0
  outer loop
    vertex 1578.1964811665043 465.88771121081703 3.9999999999999982
    vertex 1585.817522405361 458.50404757513974 3.9999999999999996
    vertex 1578.1964811665043 495.8877112108171 3.9999999999999982
  endloop
endfacet
facet normal -0.0 -0.0 1.0
  outer loop
    vertex 1539.8175224053612 501.50404757513974 3.9999999999999996
    vertex 1549.6964811665046 495.8877112108171 3.9999999999999982
    vertex 1585.817522405361 501.50404757513974 3.9999999999999996
  endloop
endfacet
facet normal -0.0 -0.0 1.0
  outer loop
    vertex 1549.6964811665046 495.8877112108171 3.9999999999999982
    vertex 1539.8175224053612 501.50404757513974 3.9999999999999996
    vertex 1544.6964811665046 471.88771121081714 3.9999999999999982
  endloop
endfacet
facet normal -0.0 -0.0 1.0
  outer loop
    vertex 1544.6964811665046 471.88771121081714 3.9999999999999982
    vertex 1539.8175224053612 501.50404757513974 3.9999999999999996
    vertex 1544.6964811665046 464.887711210817 3.9999999999999982
  endloop
endfacet
facet normal -0.0 -0.0 1.0
  outer loop
    vertex 1549.6964811665046 495.8877112108171 3.9999999999999982
    vertex 1544.6964811665046 471.88771121081714 3.9999999999999982
    vertex 1549.6964811665046 471.88771121081714 3.9999999999999982
  endloop
endfacet
facet normal -0.0 -0.0 1.0
  outer loop
    vertex 1585.817522405361 501.50404757513974 3.9999999999999996
    vertex 1549.6964811665046 495.8877112108171 3.9999999999999982
    vertex 1560.1964811665046 495.8877112108171 3.9999999999999982
  endloop
endfacet
facet normal -0.0 -0.0 1.0
  outer loop
    vertex 1585.817522405361 501.50404757513974 3.9999999999999996
    vertex 1560.1964811665046 495.8877112108171 3.9999999999999982
    vertex 1567.6964811665043 495.8877112108171 3.9999999999999982
  endloop
endfacet
facet normal -0.0 -0.0 1.0
  outer loop
    vertex 1567.6964811665043 495.8877112108171 3.9999999999999982
    vertex 1560.1964811665046 495.8877112108171 3.9999999999999982
    vertex 1562.6964811665046 471.88771121081714 3.9999999999999982
  endloop
endfacet
facet normal -0.0 -0.0 1.0
  outer loop
    vertex 1562.6964811665046 471.88771121081714 3.9999999999999982
    vertex 1560.1964811665046 495.8877112108171 3.9999999999999982
    vertex 1562.6964811665046 464.887711210817 3.9999999999999982
  endloop
endfacet
facet normal -0.0 -0.0 1.0
  outer loop
    vertex 1567.6964811665043 495.8877112108171 3.9999999999999982
    vertex 1562.6964811665046 471.88771121081714 3.9999999999999982
    vertex 1567.6964811665043 471.88771121081714 3.9999999999999982
  endloop
endfacet
facet normal -0.0 -0.0 1.0
  outer loop
    vertex 1585.817522405361 501.50404757513974 3.9999999999999996
    vertex 1567.6964811665043 495.8877112108171 3.9999999999999982
    vertex 1578.1964811665043 495.8877112108171 3.9999999999999982
  endloop
endfacet
facet normal -0.0 -0.0 1.0
  outer loop
    vertex 1585.817522405361 501.50404757513974 3.9999999999999996
    vertex 1578.1964811665043 495.8877112108171 3.9999999999999982
    vertex 1585.817522405361 458.50404757513974 3.9999999999999996
  endloop
endfacet
facet normal -9.05917569337911e-18 0.9958932064677035 0.0905357460425224
  outer loop
    vertex 1563.6964811665043 470.8877112108171 14.999999999999998
    vertex 1567.6964811665043 471.88771121081714 3.9999999999999982
    vertex 1562.6964811665046 471.88771121081714 3.9999999999999982
  endloop
endfacet
facet normal -9.05917569337911e-18 0.9958932064677035 0.0905357460425224
  outer loop
    vertex 1567.6964811665043 471.88771121081714 3.9999999999999982
    vertex 1563.6964811665043 470.8877112108171 14.999999999999998
    vertex 1567.6964811665043 470.8877112108171 14.999999999999998
  endloop
endfacet
facet normal 4.529587846689555e-18 -0.9958932064677035 0.0905357460425224
  outer loop
    vertex 1567.6964811665043 465.88771121081703 14.999999999999998
    vertex 1562.6964811665046 464.887711210817 3.9999999999999982
    vertex 1567.6964811665043 464.887711210817 3.9999999999999982
  endloop
endfacet
facet normal 4.529587846689555e-18 -0.9958932064677035 0.0905357460425224
  outer loop
    vertex 1562.6964811665046 464.887711210817 3.9999999999999982
    vertex 1567.6964811665043 465.88771121081703 14.999999999999998
    vertex 1563.6964811665043 465.88771121081703 14.999999999999998
  endloop
endfacet
facet normal 0.0 0.1305261922200458 -0.9914448613738112
  outer loop
    vertex 1569.6964811665046 468.8406445397465 10.809629803994135
    vertex 1567.6964811665043 468.3877112108171 10.75000000000001
    vertex 1567.6964811665043 468.8406445397465 10.809629803994135
  endloop
endfacet
facet normal 0.0 0.1305261922200458 -0.9914448613738112
  outer loop
    vertex 1567.6964811665043 468.3877112108171 10.75000000000001
    vertex 1569.6964811665046 468.8406445397465 10.809629803994135
    vertex 1569.6964811665046 468.3877112108171 10.75000000000001
  endloop
endfacet
facet normal 0.0 -0.13052619222004883 0.9914448613738108
  outer loop
    vertex 1569.6964811665046 467.9347778818877 14.190370196005862
    vertex 1567.6964811665043 468.3877112108171 14.249999999999988
    vertex 1567.6964811665043 467.9347778818877 14.190370196005862
  endloop
endfacet
facet normal 0.0 -0.13052619222004883 0.9914448613738108
  outer loop
    vertex 1567.6964811665043 468.3877112108171 14.249999999999988
    vertex 1569.6964811665046 467.9347778818877 14.190370196005862
    vertex 1569.6964811665046 468.3877112108171 14.249999999999988
  endloop
endfacet
facet normal 0.0 0.0 -1.0
  outer loop
    vertex 1539.8175224053612 501.50404757513974 0.0
    vertex 1549.6964811665046 493.8877112108171 -1.4099832412739487e-15
    vertex 1539.8175224053612 458.50404757513974 0.0
  endloop
endfacet
facet normal 0.0 0.0 -1.0
  outer loop
    vertex 1549.6964811665046 493.8877112108171 -1.4099832412739487e-15
    vertex 1539.8175224053612 501.50404757513974 0.0
    vertex 1585.817522405361 501.50404757513974 0.0
  endloop
endfacet
facet normal 0.0 0.0 -1.0
  outer loop
    vertex 1549.6964811665046 493.8877112108171 -1.4099832412739487e-15
    vertex 1585.817522405361 501.50404757513974 0.0
    vertex 1560.1964811665046 493.8877112108171 -1.4099832412739487e-15
  endloop
endfacet
facet normal 0.0 0.0 -1.0
  outer loop
    vertex 1560.1964811665046 493.8877112108171 -1.4099832412739487e-15
    vertex 1585.817522405361 501.50404757513974 0.0
    vertex 1567.6964811665043 493.8877112108171 0.0
  endloop
endfacet
facet normal 0.0 0.0 -1.0
  outer loop
    vertex 1560.1964811665046 493.8877112108171 -1.4099832412739487e-15
    vertex 1567.6964811665043 493.8877112108171 0.0
    vertex 1560.1964811665046 465.88771121081703 -1.4099832412739487e-15
  endloop
endfacet
facet normal 0.0 0.0 -1.0
  outer loop
    vertex 1567.6964811665043 493.8877112108171 0.0
    vertex 1585.817522405361 501.50404757513974 0.0
    vertex 1578.1964811665043 493.8877112108171 0.0
  endloop
endfacet
facet normal 0.0 0.0 -1.0
  outer loop
    vertex 1578.1964811665043 493.8877112108171 0.0
    vertex 1585.817522405361 501.50404757513974 0.0
    vertex 1578.1964811665043 465.88771121081703 0.0
  endloop
endfacet
facet normal 0.0 0.0 -1.0
  outer loop
    vertex 1539.8175224053612 458.50404757513974 0.0
    vertex 1549.6964811665046 465.88771121081703 -1.4099832412739487e-15
    vertex 1585.817522405361 458.50404757513974 0.0
  endloop
endfacet
facet normal 0.0 0.0 -1.0
  outer loop
    vertex 1549.6964811665046 465.88771121081703 -1.4099832412739487e-15
    vertex 1539.8175224053612 458.50404757513974 0.0
    vertex 1549.6964811665046 493.8877112108171 -1.4099832412739487e-15
  endloop
endfacet
facet normal 0.0 0.0 -1.0
  outer loop
    vertex 1585.817522405361 458.50404757513974 0.0
    vertex 1549.6964811665046 465.88771121081703 -1.4099832412739487e-15
    vertex 1560.1964811665046 465.88771121081703 -1.4099832412739487e-15
  endloop
endfacet
facet normal 0.0 0.0 -1.0
  outer loop
    vertex 1585.817522405361 458.50404757513974 0.0
    vertex 1560.1964811665046 465.88771121081703 -1.4099832412739487e-15
    vertex 1567.6964811665043 465.88771121081703 0.0
  endloop
endfacet
facet normal 0.0 0.0 -1.0
  outer loop
    vertex 1567.6964811665043 465.88771121081703 0.0
    vertex 1560.1964811665046 465.88771121081703 -1.4099832412739487e-15
    vertex 1567.6964811665043 493.8877112108171 0.0
  endloop
endfacet
facet normal 0.0 0.0 -1.0
  outer loop
    vertex 1585.817522405361 458.50404757513974 0.0
    vertex 1567.6964811665043 465.88771121081703 0.0
    vertex 1578.1964811665043 465.88771121081703 0.0
  endloop
endfacet
facet normal 0.0 0.0 -1.0
  outer loop
    vertex 1585.817522405361 458.50404757513974 0.0
    vertex 1578.1964811665043 465.88771121081703 0.0
    vertex 1585.817522405361 501.50404757513974 0.0
  endloop
endfacet
facet normal -0.0 1.0 -0.0
  outer loop
    vertex 1567.6964811665043 465.88771121081703 3.9999999999999982
    vertex 1578.1964811665043 465.88771121081703 0.0
    vertex 1567.6964811665043 465.88771121081703 0.0
  endloop
endfacet
facet normal -0.0 1.0 -0.0
  outer loop
    vertex 1578.1964811665043 465.88771121081703 0.0
    vertex 1567.6964811665043 465.88771121081703 3.9999999999999982
    vertex 1578.1964811665043 465.88771121081703 3.9999999999999982
  endloop
endfacet
facet normal -0.0 1.0 -0.0
  outer loop
    vertex 1549.6964811665046 465.88771121081703 3.9999999999999982
    vertex 1560.1964811665046 465.88771121081703 -1.4099832412739487e-15
    vertex 1549.6964811665046 465.88771121081703 -1.4099832412739487e-15
  endloop
endfacet
facet normal -0.0 1.0 -0.0
  outer loop
    vertex 1560.1964811665046 465.88771121081703 -1.4099832412739487e-15
    vertex 1549.6964811665046 465.88771121081703 3.9999999999999982
    vertex 1560.1964811665046 465.88771121081703 3.9999999999999982
  endloop
endfacet
facet normal -1.0 0.0 0.0
  outer loop
    vertex 1539.8175224053612 501.50404757513974 3.9999999999999996
    vertex 1539.8175224053612 458.50404757513974 0.0
    vertex 1539.8175224053612 458.50404757513974 3.9999999999999996
  endloop
endfacet
facet normal -1.0 0.0 0.0
  outer loop
    vertex 1539.8175224053612 458.50404757513974 0.0
    vertex 1539.8175224053612 501.50404757513974 3.9999999999999996
    vertex 1539.8175224053612 501.50404757513974 0.0
  endloop
endfacet
facet normal 0.0 0.1305261922200731 0.9914448613738076
  outer loop
    vertex 1569.6964811665046 468.3877112108171 14.249999999999988
    vertex 1567.6964811665043 468.8406445397465 14.190370196005851
    vertex 1567.6964811665043 468.3877112108171 14.249999999999988
  endloop
endfacet
facet normal 0.0 0.1305261922200731 0.9914448613738076
  outer loop
    vertex 1567.6964811665043 468.8406445397465 14.190370196005851
    vertex 1569.6964811665046 468.3877112108171 14.249999999999988
    vertex 1569.6964811665046 468.8406445397465 14.190370196005851
  endloop
endfacet
facet normal 0.0 0.9238795325113456 -0.38268343236494784
  outer loop
    vertex 1567.6964811665043 470.0780814068229 12.047066671070572
    vertex 1569.6964811665046 469.90325566743985 11.624999999999988
    vertex 1567.6964811665043 469.90325566743985 11.624999999999988
  endloop
endfacet
facet normal 0.0 0.9238795325113456 -0.38268343236494784
  outer loop
    vertex 1569.6964811665046 469.90325566743985 11.624999999999988
    vertex 1567.6964811665043 470.0780814068229 12.047066671070572
    vertex 1569.6964811665046 470.0780814068229 12.047066671070572
  endloop
endfacet
facet normal 0.0 0.9238795325112762 0.3826834323651153
  outer loop
    vertex 1567.6964811665043 469.90325566743985 13.374999999999975
    vertex 1569.6964811665046 470.078081406823 12.952933328929388
    vertex 1567.6964811665043 470.078081406823 12.952933328929388
  endloop
endfacet
facet normal 0.0 0.9238795325112762 0.3826834323651153
  outer loop
    vertex 1569.6964811665046 470.078081406823 12.952933328929388
    vertex 1567.6964811665043 469.90325566743985 13.374999999999975
    vertex 1569.6964811665046 469.90325566743985 13.374999999999975
  endloop
endfacet
facet normal 0.0 0.38268343236507674 -0.9238795325112922
  outer loop
    vertex 1569.6964811665046 469.2627112108171 10.984455543377232
    vertex 1567.6964811665043 468.8406445397465 10.809629803994135
    vertex 1567.6964811665043 469.2627112108171 10.984455543377232
  endloop
endfacet
facet normal 0.0 0.38268343236507674 -0.9238795325112922
  outer loop
    vertex 1567.6964811665043 468.8406445397465 10.809629803994135
    vertex 1569.6964811665046 469.2627112108171 10.984455543377232
    vertex 1569.6964811665046 468.8406445397465 10.809629803994135
  endloop
endfacet
facet normal 0.0 0.7933533402911722 -0.6087614290088028
  outer loop
    vertex 1567.6964811665043 469.90325566743985 11.624999999999988
    vertex 1569.6964811665046 469.6251480778935 11.262563132923534
    vertex 1567.6964811665043 469.6251480778935 11.262563132923534
  endloop
endfacet
facet normal 0.0 0.7933533402911722 -0.6087614290088028
  outer loop
    vertex 1569.6964811665046 469.6251480778935 11.262563132923534
    vertex 1567.6964811665043 469.90325566743985 11.624999999999988
    vertex 1569.6964811665046 469.90325566743985 11.624999999999988
  endloop
endfacet
facet normal 0.0 0.6087614290087603 0.793353340291205
  outer loop
    vertex 1569.6964811665046 469.2627112108171 14.015544456622747
    vertex 1567.6964811665043 469.6251480778935 13.737436867076436
    vertex 1567.6964811665043 469.2627112108171 14.015544456622747
  endloop
endfacet
facet normal 0.0 0.6087614290087603 0.793353340291205
  outer loop
    vertex 1567.6964811665043 469.6251480778935 13.737436867076436
    vertex 1569.6964811665046 469.2627112108171 14.015544456622747
    vertex 1569.6964811665046 469.6251480778935 13.737436867076436
  endloop
endfacet
facet normal 0.0 0.6087614290087486 -0.7933533402912137
  outer loop
    vertex 1569.6964811665046 469.6251480778935 11.262563132923534
    vertex 1567.6964811665043 469.2627112108171 10.984455543377232
    vertex 1567.6964811665043 469.6251480778935 11.262563132923534
  endloop
endfacet
facet normal 0.0 0.6087614290087486 -0.7933533402912137
  outer loop
    vertex 1567.6964811665043 469.2627112108171 10.984455543377232
    vertex 1569.6964811665046 469.6251480778935 11.262563132923534
    vertex 1569.6964811665046 469.2627112108171 10.984455543377232
  endloop
endfacet
facet normal -0.0 -0.9914448613738251 -0.1305261922199405
  outer loop
    vertex 1569.6964811665046 466.63771121081714 12.500000000000016
    vertex 1567.6964811665043 466.69734101481123 12.047066671070608
    vertex 1569.6964811665046 466.69734101481123 12.047066671070608
  endloop
endfacet
facet normal -0.0 -0.9914448613738251 -0.1305261922199405
  outer loop
    vertex 1567.6964811665043 466.69734101481123 12.047066671070608
    vertex 1569.6964811665046 466.63771121081714 12.500000000000016
    vertex 1567.6964811665043 466.63771121081714 12.500000000000016
  endloop
endfacet
facet normal -0.0 -0.1305261922200701 -0.991444861373808
  outer loop
    vertex 1569.6964811665046 468.3877112108171 10.75000000000001
    vertex 1567.6964811665043 467.9347778818877 10.809629803994147
    vertex 1567.6964811665043 468.3877112108171 10.75000000000001
  endloop
endfacet
facet normal -0.0 -0.1305261922200701 -0.991444861373808
  outer loop
    vertex 1567.6964811665043 467.9347778818877 10.809629803994147
    vertex 1569.6964811665046 468.3877112108171 10.75000000000001
    vertex 1569.6964811665046 467.9347778818877 10.809629803994147
  endloop
endfacet
facet normal -0.0 -0.9238795325112767 -0.3826834323651143
  outer loop
    vertex 1569.6964811665046 466.69734101481123 12.047066671070608
    vertex 1567.6964811665043 466.8721667541943 11.625000000000021
    vertex 1569.6964811665046 466.8721667541943 11.625000000000021
  endloop
endfacet
facet normal -0.0 -0.9238795325112767 -0.3826834323651143
  outer loop
    vertex 1567.6964811665043 466.8721667541943 11.625000000000021
    vertex 1569.6964811665046 466.69734101481123 12.047066671070608
    vertex 1567.6964811665043 466.69734101481123 12.047066671070608
  endloop
endfacet
facet normal -0.0 -0.7933533402912722 -0.6087614290086726
  outer loop
    vertex 1569.6964811665046 466.8721667541943 11.625000000000021
    vertex 1567.6964811665043 467.1502743437406 11.262563132923562
    vertex 1569.6964811665046 467.1502743437406 11.262563132923562
  endloop
endfacet
facet normal -0.0 -0.7933533402912722 -0.6087614290086726
  outer loop
    vertex 1567.6964811665043 467.1502743437406 11.262563132923562
    vertex 1569.6964811665046 466.8721667541943 11.625000000000021
    vertex 1567.6964811665043 466.8721667541943 11.625000000000021
  endloop
endfacet
facet normal 0.0 -0.923879532511345 0.38268343236494884
  outer loop
    vertex 1569.6964811665046 466.8721667541943 13.375000000000007
    vertex 1567.6964811665043 466.6973410148113 12.952933328929422
    vertex 1569.6964811665046 466.6973410148113 12.952933328929422
  endloop
endfacet
facet normal 0.0 -0.923879532511345 0.38268343236494884
  outer loop
    vertex 1567.6964811665043 466.6973410148113 12.952933328929422
    vertex 1569.6964811665046 466.8721667541943 13.375000000000007
    vertex 1567.6964811665043 466.8721667541943 13.375000000000007
  endloop
endfacet
facet normal 0.0 0.9914448613737995 -0.13052619222013465
  outer loop
    vertex 1567.6964811665043 470.1377112108171 12.49999999999998
    vertex 1569.6964811665046 470.0780814068229 12.047066671070572
    vertex 1567.6964811665043 470.0780814068229 12.047066671070572
  endloop
endfacet
facet normal 0.0 0.9914448613737995 -0.13052619222013465
  outer loop
    vertex 1569.6964811665046 470.0780814068229 12.047066671070572
    vertex 1567.6964811665043 470.1377112108171 12.49999999999998
    vertex 1569.6964811665046 470.1377112108171 12.49999999999998
  endloop
endfacet
facet normal 0.0 0.9914448613738253 0.1305261922199401
  outer loop
    vertex 1567.6964811665043 470.078081406823 12.952933328929388
    vertex 1569.6964811665046 470.1377112108171 12.49999999999998
    vertex 1567.6964811665043 470.1377112108171 12.49999999999998
  endloop
endfacet
facet normal 0.0 0.9914448613738253 0.1305261922199401
  outer loop
    vertex 1569.6964811665046 470.1377112108171 12.49999999999998
    vertex 1567.6964811665043 470.078081406823 12.952933328929388
    vertex 1569.6964811665046 470.078081406823 12.952933328929388
  endloop
endfacet
facet normal 0.0 -0.6087614290087486 0.7933533402912137
  outer loop
    vertex 1569.6964811665046 467.1502743437407 13.737436867076461
    vertex 1567.6964811665043 467.51271121081714 14.015544456622765
    vertex 1567.6964811665043 467.1502743437407 13.737436867076461
  endloop
endfacet
facet normal 0.0 -0.6087614290087486 0.7933533402912137
  outer loop
    vertex 1567.6964811665043 467.51271121081714 14.015544456622765
    vertex 1569.6964811665046 467.1502743437407 13.737436867076461
    vertex 1569.6964811665046 467.51271121081714 14.015544456622765
  endloop
endfacet
facet normal 0.0 0.7933533402911778 0.6087614290087954
  outer loop
    vertex 1567.6964811665043 469.6251480778935 13.737436867076436
    vertex 1569.6964811665046 469.90325566743985 13.374999999999975
    vertex 1567.6964811665043 469.90325566743985 13.374999999999975
  endloop
endfacet
facet normal 0.0 0.7933533402911778 0.6087614290087954
  outer loop
    vertex 1569.6964811665046 469.90325566743985 13.374999999999975
    vertex 1567.6964811665043 469.6251480778935 13.737436867076436
    vertex 1569.6964811665046 469.6251480778935 13.737436867076436
  endloop
endfacet
facet normal 0.0 -0.9914448613737994 0.13052619222013506
  outer loop
    vertex 1569.6964811665046 466.6973410148113 12.952933328929422
    vertex 1567.6964811665043 466.63771121081714 12.500000000000016
    vertex 1569.6964811665046 466.63771121081714 12.500000000000016
  endloop
endfacet
facet normal 0.0 -0.9914448613737994 0.13052619222013506
  outer loop
    vertex 1567.6964811665043 466.63771121081714 12.500000000000016
    vertex 1569.6964811665046 466.6973410148113 12.952933328929422
    vertex 1567.6964811665043 466.6973410148113 12.952933328929422
  endloop
endfacet
facet normal 0.0 -0.7933533402911734 0.6087614290088014
  outer loop
    vertex 1569.6964811665046 467.1502743437407 13.737436867076461
    vertex 1567.6964811665043 466.8721667541943 13.375000000000007
    vertex 1569.6964811665046 466.8721667541943 13.375000000000007
  endloop
endfacet
facet normal 0.0 -0.7933533402911734 0.6087614290088014
  outer loop
    vertex 1567.6964811665043 466.8721667541943 13.375000000000007
    vertex 1569.6964811665046 467.1502743437407 13.737436867076461
    vertex 1567.6964811665043 467.1502743437407 13.737436867076461
  endloop
endfacet
facet normal 0.0 0.38268343236508995 0.9238795325112868
  outer loop
    vertex 1569.6964811665046 468.8406445397465 14.190370196005851
    vertex 1567.6964811665043 469.2627112108171 14.015544456622747
    vertex 1567.6964811665043 468.8406445397465 14.190370196005851
  endloop
endfacet
facet normal 0.0 0.38268343236508995 0.9238795325112868
  outer loop
    vertex 1567.6964811665043 469.2627112108171 14.015544456622747
    vertex 1569.6964811665046 468.8406445397465 14.190370196005851
    vertex 1569.6964811665046 469.2627112108171 14.015544456622747
  endloop
endfacet
facet normal -0.0 -0.6087614290086649 -0.7933533402912781
  outer loop
    vertex 1569.6964811665046 467.51271121081714 10.984455543377251
    vertex 1567.6964811665043 467.1502743437406 11.262563132923562
    vertex 1567.6964811665043 467.51271121081714 10.984455543377251
  endloop
endfacet
facet normal -0.0 -0.6087614290086649 -0.7933533402912781
  outer loop
    vertex 1567.6964811665043 467.1502743437406 11.262563132923562
    vertex 1569.6964811665046 467.51271121081714 10.984455543377251
    vertex 1569.6964811665046 467.1502743437406 11.262563132923562
  endloop
endfacet
facet normal -0.0 -0.3826834323650926 -0.9238795325112857
  outer loop
    vertex 1569.6964811665046 467.9347778818877 10.809629803994147
    vertex 1567.6964811665043 467.51271121081714 10.984455543377251
    vertex 1567.6964811665043 467.9347778818877 10.809629803994147
  endloop
endfacet
facet normal -0.0 -0.3826834323650926 -0.9238795325112857
  outer loop
    vertex 1567.6964811665043 467.51271121081714 10.984455543377251
    vertex 1569.6964811665046 467.9347778818877 10.809629803994147
    vertex 1569.6964811665046 467.51271121081714 10.984455543377251
  endloop
endfacet
facet normal -1.0 0.0 0.0
  outer loop
    vertex 1560.1964811665046 495.8877112108171 3.9999999999999982
    vertex 1560.1964811665046 465.88771121081703 -1.4099832412739487e-15
    vertex 1560.1964811665046 465.88771121081703 3.9999999999999982
  endloop
endfacet
facet normal -1.0 0.0 0.0
  outer loop
    vertex 1560.1964811665046 465.88771121081703 -1.4099832412739487e-15
    vertex 1560.1964811665046 495.8877112108171 3.9999999999999982
    vertex 1560.1964811665046 493.8877112108171 -1.4099832412739487e-15
  endloop
endfacet
facet normal 1.0 -0.0 -0.0
  outer loop
    vertex 1567.6964811665043 493.8877112108171 0.0
    vertex 1567.6964811665043 465.88771121081703 3.9999999999999982
    vertex 1567.6964811665043 465.88771121081703 0.0
  endloop
endfacet
facet normal 1.0 -0.0 -0.0
  outer loop
    vertex 1567.6964811665043 465.88771121081703 3.9999999999999982
    vertex 1567.6964811665043 493.8877112108171 0.0
    vertex 1567.6964811665043 471.88771121081714 3.9999999999999982
  endloop
endfacet
facet normal 1.0 -0.0 -0.0
  outer loop
    vertex 1567.6964811665043 465.88771121081703 3.9999999999999982
    vertex 1567.6964811665043 471.88771121081714 3.9999999999999982
    vertex 1567.6964811665043 466.8721667541943 11.625000000000021
  endloop
endfacet
facet normal 1.0 -0.0 -0.0
  outer loop
    vertex 1567.6964811665043 465.88771121081703 3.9999999999999982
    vertex 1567.6964811665043 466.8721667541943 11.625000000000021
    vertex 1567.6964811665043 466.69734101481123 12.047066671070608
  endloop
endfacet
facet normal 1.0 -0.0 -0.0
  outer loop
    vertex 1567.6964811665043 465.88771121081703 3.9999999999999982
    vertex 1567.6964811665043 466.69734101481123 12.047066671070608
    vertex 1567.6964811665043 465.88771121081703 14.999999999999998
  endloop
endfacet
facet normal 1.0 -0.0 -0.0
  outer loop
    vertex 1567.6964811665043 465.88771121081703 14.999999999999998
    vertex 1567.6964811665043 466.69734101481123 12.047066671070608
    vertex 1567.6964811665043 466.63771121081714 12.500000000000016
  endloop
endfacet
facet normal 1.0 -0.0 -0.0
  outer loop
    vertex 1567.6964811665043 466.8721667541943 11.625000000000021
    vertex 1567.6964811665043 471.88771121081714 3.9999999999999982
    vertex 1567.6964811665043 467.1502743437406 11.262563132923562
  endloop
endfacet
facet normal 1.0 -0.0 -0.0
  outer loop
    vertex 1567.6964811665043 467.1502743437406 11.262563132923562
    vertex 1567.6964811665043 471.88771121081714 3.9999999999999982
    vertex 1567.6964811665043 467.51271121081714 10.984455543377251
  endloop
endfacet
facet normal 1.0 -0.0 -0.0
  outer loop
    vertex 1567.6964811665043 467.51271121081714 10.984455543377251
    vertex 1567.6964811665043 471.88771121081714 3.9999999999999982
    vertex 1567.6964811665043 467.9347778818877 10.809629803994147
  endloop
endfacet
facet normal 1.0 -0.0 -0.0
  outer loop
    vertex 1567.6964811665043 467.9347778818877 10.809629803994147
    vertex 1567.6964811665043 471.88771121081714 3.9999999999999982
    vertex 1567.6964811665043 468.3877112108171 10.75000000000001
  endloop
endfacet
facet normal 1.0 -0.0 -0.0
  outer loop
    vertex 1567.6964811665043 468.3877112108171 10.75000000000001
    vertex 1567.6964811665043 471.88771121081714 3.9999999999999982
    vertex 1567.6964811665043 468.8406445397465 10.809629803994135
  endloop
endfacet
facet normal 1.0 -0.0 -0.0
  outer loop
    vertex 1567.6964811665043 468.8406445397465 10.809629803994135
    vertex 1567.6964811665043 471.88771121081714 3.9999999999999982
    vertex 1567.6964811665043 469.2627112108171 10.984455543377232
  endloop
endfacet
facet normal 1.0 -0.0 -0.0
  outer loop
    vertex 1567.6964811665043 469.2627112108171 10.984455543377232
    vertex 1567.6964811665043 471.88771121081714 3.9999999999999982
    vertex 1567.6964811665043 469.6251480778935 11.262563132923534
  endloop
endfacet
facet normal 1.0 -0.0 -0.0
  outer loop
    vertex 1567.6964811665043 469.6251480778935 11.262563132923534
    vertex 1567.6964811665043 471.88771121081714 3.9999999999999982
    vertex 1567.6964811665043 469.90325566743985 11.624999999999988
  endloop
endfacet
facet normal 1.0 -0.0 -0.0
  outer loop
    vertex 1567.6964811665043 469.90325566743985 11.624999999999988
    vertex 1567.6964811665043 471.88771121081714 3.9999999999999982
    vertex 1567.6964811665043 470.0780814068229 12.047066671070572
  endloop
endfacet
facet normal 1.0 -0.0 -0.0
  outer loop
    vertex 1567.6964811665043 470.0780814068229 12.047066671070572
    vertex 1567.6964811665043 471.88771121081714 3.9999999999999982
    vertex 1567.6964811665043 470.1377112108171 12.49999999999998
  endloop
endfacet
facet normal 1.0 -0.0 -0.0
  outer loop
    vertex 1567.6964811665043 470.1377112108171 12.49999999999998
    vertex 1567.6964811665043 471.88771121081714 3.9999999999999982
    vertex 1567.6964811665043 470.8877112108171 14.999999999999998
  endloop
endfacet
facet normal 1.0 -0.0 -0.0
  outer loop
    vertex 1567.6964811665043 471.88771121081714 3.9999999999999982
    vertex 1567.6964811665043 493.8877112108171 0.0
    vertex 1567.6964811665043 495.8877112108171 3.9999999999999982
  endloop
endfacet
facet normal 1.0 -0.0 -0.0
  outer loop
    vertex 1567.6964811665043 465.88771121081703 14.999999999999998
    vertex 1567.6964811665043 467.9347778818877 14.190370196005862
    vertex 1567.6964811665043 470.8877112108171 14.999999999999998
  endloop
endfacet
facet normal 1.0 -0.0 -0.0
  outer loop
    vertex 1567.6964811665043 467.9347778818877 14.190370196005862
    vertex 1567.6964811665043 465.88771121081703 14.999999999999998
    vertex 1567.6964811665043 467.51271121081714 14.015544456622765
  endloop
endfacet
facet normal 1.0 -0.0 -0.0
  outer loop
    vertex 1567.6964811665043 467.51271121081714 14.015544456622765
    vertex 1567.6964811665043 465.88771121081703 14.999999999999998
    vertex 1567.6964811665043 467.1502743437407 13.737436867076461
  endloop
endfacet
facet normal 1.0 -0.0 -0.0
  outer loop
    vertex 1567.6964811665043 467.1502743437407 13.737436867076461
    vertex 1567.6964811665043 465.88771121081703 14.999999999999998
    vertex 1567.6964811665043 466.8721667541943 13.375000000000007
  endloop
endfacet
facet normal 1.0 -0.0 -0.0
  outer loop
    vertex 1567.6964811665043 466.8721667541943 13.375000000000007
    vertex 1567.6964811665043 465.88771121081703 14.999999999999998
    vertex 1567.6964811665043 466.6973410148113 12.952933328929422
  endloop
endfacet
facet normal 1.0 -0.0 -0.0
  outer loop
    vertex 1567.6964811665043 466.6973410148113 12.952933328929422
    vertex 1567.6964811665043 465.88771121081703 14.999999999999998
    vertex 1567.6964811665043 466.63771121081714 12.500000000000016
  endloop
endfacet
facet normal 1.0 -0.0 -0.0
  outer loop
    vertex 1567.6964811665043 470.8877112108171 14.999999999999998
    vertex 1567.6964811665043 467.9347778818877 14.190370196005862
    vertex 1567.6964811665043 468.3877112108171 14.249999999999988
  endloop
endfacet
facet normal 1.0 -0.0 -0.0
  outer loop
    vertex 1567.6964811665043 470.8877112108171 14.999999999999998
    vertex 1567.6964811665043 468.3877112108171 14.249999999999988
    vertex 1567.6964811665043 468.8406445397465 14.190370196005851
  endloop
endfacet
facet normal 1.0 -0.0 -0.0
  outer loop
    vertex 1567.6964811665043 470.8877112108171 14.999999999999998
    vertex 1567.6964811665043 468.8406445397465 14.190370196005851
    vertex 1567.6964811665043 469.2627112108171 14.015544456622747
  endloop
endfacet
facet normal 1.0 -0.0 -0.0
  outer loop
    vertex 1567.6964811665043 470.8877112108171 14.999999999999998
    vertex 1567.6964811665043 469.2627112108171 14.015544456622747
    vertex 1567.6964811665043 469.6251480778935 13.737436867076436
  endloop
endfacet
facet normal 1.0 -0.0 -0.0
  outer loop
    vertex 1567.6964811665043 470.8877112108171 14.999999999999998
    vertex 1567.6964811665043 469.6251480778935 13.737436867076436
    vertex 1567.6964811665043 469.90325566743985 13.374999999999975
  endloop
endfacet
facet normal 1.0 -0.0 -0.0
  outer loop
    vertex 1567.6964811665043 470.8877112108171 14.999999999999998
    vertex 1567.6964811665043 469.90325566743985 13.374999999999975
    vertex 1567.6964811665043 470.078081406823 12.952933328929388
  endloop
endfacet
facet normal 1.0 -0.0 -0.0
  outer loop
    vertex 1567.6964811665043 470.8877112108171 14.999999999999998
    vertex 1567.6964811665043 470.078081406823 12.952933328929388
    vertex 1567.6964811665043 470.1377112108171 12.49999999999998
  endloop
endfacet
facet normal 1.0 -0.0 -0.0
  outer loop
    vertex 1567.6964811665043 465.88771121081703 14.999999999999998
    vertex 1567.6964811665043 464.887711210817 3.9999999999999982
    vertex 1567.6964811665043 465.88771121081703 3.9999999999999982
  endloop
endfacet
facet normal 1.0 -0.0 -0.0
  outer loop
    vertex 1549.6964811665046 493.8877112108171 -1.4099832412739487e-15
    vertex 1549.6964811665046 465.88771121081703 3.9999999999999982
    vertex 1549.6964811665046 465.88771121081703 -1.4099832412739487e-15
  endloop
endfacet
facet normal 1.0 -0.0 -0.0
  outer loop
    vertex 1549.6964811665046 465.88771121081703 3.9999999999999982
    vertex 1549.6964811665046 493.8877112108171 -1.4099832412739487e-15
    vertex 1549.6964811665046 471.88771121081714 3.9999999999999982
  endloop
endfacet
facet normal 1.0 -0.0 -0.0
  outer loop
    vertex 1549.6964811665046 465.88771121081703 3.9999999999999982
    vertex 1549.6964811665046 471.88771121081714 3.9999999999999982
    vertex 1549.6964811665046 466.8721667541943 11.624999999999998
  endloop
endfacet
facet normal 1.0 -0.0 -0.0
  outer loop
    vertex 1549.6964811665046 465.88771121081703 3.9999999999999982
    vertex 1549.6964811665046 466.8721667541943 11.624999999999998
    vertex 1549.6964811665046 466.69734101481123 12.047066671070587
  endloop
endfacet
facet normal 1.0 -0.0 -0.0
  outer loop
    vertex 1549.6964811665046 465.88771121081703 3.9999999999999982
    vertex 1549.6964811665046 466.69734101481123 12.047066671070587
    vertex 1549.6964811665046 465.88771121081703 14.999999999999998
  endloop
endfacet
facet normal 1.0 -0.0 -0.0
  outer loop
    vertex 1549.6964811665046 465.88771121081703 14.999999999999998
    vertex 1549.6964811665046 466.69734101481123 12.047066671070587
    vertex 1549.6964811665046 466.63771121081714 12.499999999999998
  endloop
endfacet
facet normal 1.0 -0.0 -0.0
  outer loop
    vertex 1549.6964811665046 466.8721667541943 11.624999999999998
    vertex 1549.6964811665046 471.88771121081714 3.9999999999999982
    vertex 1549.6964811665046 467.1502743437406 11.262563132923539
  endloop
endfacet
facet normal 1.0 -0.0 -0.0
  outer loop
    vertex 1549.6964811665046 467.1502743437406 11.262563132923539
    vertex 1549.6964811665046 471.88771121081714 3.9999999999999982
    vertex 1549.6964811665046 467.51271121081714 10.98445554337723
  endloop
endfacet
facet normal 1.0 -0.0 -0.0
  outer loop
    vertex 1549.6964811665046 467.51271121081714 10.98445554337723
    vertex 1549.6964811665046 471.88771121081714 3.9999999999999982
    vertex 1549.6964811665046 467.9347778818877 10.809629803994127
  endloop
endfacet
facet normal 1.0 -0.0 -0.0
  outer loop
    vertex 1549.6964811665046 467.9347778818877 10.809629803994127
    vertex 1549.6964811665046 471.88771121081714 3.9999999999999982
    vertex 1549.6964811665046 468.3877112108171 10.749999999999996
  endloop
endfacet
facet normal 1.0 -0.0 -0.0
  outer loop
    vertex 1549.6964811665046 468.3877112108171 10.749999999999996
    vertex 1549.6964811665046 471.88771121081714 3.9999999999999982
    vertex 1549.6964811665046 468.8406445397465 10.809629803994127
  endloop
endfacet
facet normal 1.0 -0.0 -0.0
  outer loop
    vertex 1549.6964811665046 468.8406445397465 10.809629803994127
    vertex 1549.6964811665046 471.88771121081714 3.9999999999999982
    vertex 1549.6964811665046 469.2627112108171 10.98445554337723
  endloop
endfacet
facet normal 1.0 -0.0 -0.0
  outer loop
    vertex 1549.6964811665046 469.2627112108171 10.98445554337723
    vertex 1549.6964811665046 471.88771121081714 3.9999999999999982
    vertex 1549.6964811665046 469.6251480778936 11.262563132923539
  endloop
endfacet
facet normal 1.0 -0.0 -0.0
  outer loop
    vertex 1549.6964811665046 469.6251480778936 11.262563132923539
    vertex 1549.6964811665046 471.88771121081714 3.9999999999999982
    vertex 1549.6964811665046 469.90325566743985 11.624999999999998
  endloop
endfacet
facet normal 1.0 -0.0 -0.0
  outer loop
    vertex 1549.6964811665046 469.90325566743985 11.624999999999998
    vertex 1549.6964811665046 471.88771121081714 3.9999999999999982
    vertex 1549.6964811665046 470.078081406823 12.047066671070588
  endloop
endfacet
facet normal 1.0 -0.0 -0.0
  outer loop
    vertex 1549.6964811665046 470.078081406823 12.047066671070588
    vertex 1549.6964811665046 471.88771121081714 3.9999999999999982
    vertex 1549.6964811665046 470.1377112108171 12.499999999999998
  endloop
endfacet
facet normal 1.0 -0.0 -0.0
  outer loop
    vertex 1549.6964811665046 470.1377112108171 12.499999999999998
    vertex 1549.6964811665046 471.88771121081714 3.9999999999999982
    vertex 1549.6964811665046 470.8877112108171 14.999999999999998
  endloop
endfacet
facet normal 1.0 -0.0 -0.0
  outer loop
    vertex 1549.6964811665046 471.88771121081714 3.9999999999999982
    vertex 1549.6964811665046 493.8877112108171 -1.4099832412739487e-15
    vertex 1549.6964811665046 495.8877112108171 3.9999999999999982
  endloop
endfacet
facet normal 1.0 -0.0 -0.0
  outer loop
    vertex 1549.6964811665046 465.88771121081703 14.999999999999998
    vertex 1549.6964811665046 467.9347778818877 14.190370196005867
    vertex 1549.6964811665046 470.8877112108171 14.999999999999998
  endloop
endfacet
facet normal 1.0 -0.0 -0.0
  outer loop
    vertex 1549.6964811665046 467.9347778818877 14.190370196005867
    vertex 1549.6964811665046 465.88771121081703 14.999999999999998
    vertex 1549.6964811665046 467.51271121081714 14.015544456622766
  endloop
endfacet
facet normal 1.0 -0.0 -0.0
  outer loop
    vertex 1549.6964811665046 467.51271121081714 14.015544456622766
    vertex 1549.6964811665046 465.88771121081703 14.999999999999998
    vertex 1549.6964811665046 467.1502743437406 13.737436867076456
  endloop
endfacet
facet normal 1.0 -0.0 -0.0
  outer loop
    vertex 1549.6964811665046 467.1502743437406 13.737436867076456
    vertex 1549.6964811665046 465.88771121081703 14.999999999999998
    vertex 1549.6964811665046 466.8721667541943 13.374999999999998
  endloop
endfacet
facet normal 1.0 -0.0 -0.0
  outer loop
    vertex 1549.6964811665046 466.8721667541943 13.374999999999998
    vertex 1549.6964811665046 465.88771121081703 14.999999999999998
    vertex 1549.6964811665046 466.69734101481123 12.95293332892941
  endloop
endfacet
facet normal 1.0 -0.0 -0.0
  outer loop
    vertex 1549.6964811665046 466.69734101481123 12.95293332892941
    vertex 1549.6964811665046 465.88771121081703 14.999999999999998
    vertex 1549.6964811665046 466.63771121081714 12.499999999999998
  endloop
endfacet
facet normal 1.0 -0.0 -0.0
  outer loop
    vertex 1549.6964811665046 470.8877112108171 14.999999999999998
    vertex 1549.6964811665046 467.9347778818877 14.190370196005867
    vertex 1549.6964811665046 468.3877112108171 14.25
  endloop
endfacet
facet normal 1.0 -0.0 -0.0
  outer loop
    vertex 1549.6964811665046 470.8877112108171 14.999999999999998
    vertex 1549.6964811665046 468.3877112108171 14.25
    vertex 1549.6964811665046 468.8406445397465 14.190370196005867
  endloop
endfacet
facet normal 1.0 -0.0 -0.0
  outer loop
    vertex 1549.6964811665046 470.8877112108171 14.999999999999998
    vertex 1549.6964811665046 468.8406445397465 14.190370196005867
    vertex 1549.6964811665046 469.2627112108171 14.015544456622766
  endloop
endfacet
facet normal 1.0 -0.0 -0.0
  outer loop
    vertex 1549.6964811665046 470.8877112108171 14.999999999999998
    vertex 1549.6964811665046 469.2627112108171 14.015544456622766
    vertex 1549.6964811665046 469.6251480778936 13.737436867076458
  endloop
endfacet
facet normal 1.0 -0.0 -0.0
  outer loop
    vertex 1549.6964811665046 470.8877112108171 14.999999999999998
    vertex 1549.6964811665046 469.6251480778936 13.737436867076458
    vertex 1549.6964811665046 469.90325566743985 13.374999999999998
  endloop
endfacet
facet normal 1.0 -0.0 -0.0
  outer loop
    vertex 1549.6964811665046 470.8877112108171 14.999999999999998
    vertex 1549.6964811665046 469.90325566743985 13.374999999999998
    vertex 1549.6964811665046 470.078081406823 12.95293332892941
  endloop
endfacet
facet normal 1.0 -0.0 -0.0
  outer loop
    vertex 1549.6964811665046 470.8877112108171 14.999999999999998
    vertex 1549.6964811665046 470.078081406823 12.95293332892941
    vertex 1549.6964811665046 470.1377112108171 12.499999999999998
  endloop
endfacet
facet normal 1.0 -0.0 -0.0
  outer loop
    vertex 1549.6964811665046 465.88771121081703 14.999999999999998
    vertex 1549.6964811665046 464.887711210817 3.9999999999999982
    vertex 1549.6964811665046 465.88771121081703 3.9999999999999982
  endloop
endfacet
facet normal -0.0 -0.0 1.0
  outer loop
    vertex 1567.6964811665043 465.88771121081703 14.999999999999998
    vertex 1563.6964811665043 470.8877112108171 14.999999999999998
    vertex 1563.6964811665043 465.88771121081703 14.999999999999998
  endloop
endfacet
facet normal -0.0 -0.0 1.0
  outer loop
    vertex 1563.6964811665043 470.8877112108171 14.999999999999998
    vertex 1567.6964811665043 465.88771121081703 14.999999999999998
    vertex 1567.6964811665043 470.8877112108171 14.999999999999998
  endloop
endfacet
facet normal -0.9958932064677044 1.7115755222952422e-18 0.09053574604251433
  outer loop
    vertex 1545.6964811665046 465.88771121081703 14.999999999999998
    vertex 1544.6964811665046 471.88771121081714 3.9999999999999982
    vertex 1544.6964811665046 464.887711210817 3.9999999999999982
  endloop
endfacet
facet normal -0.9958932064677044 1.7115755222952422e-18 0.09053574604251433
  outer loop
    vertex 1544.6964811665046 471.88771121081714 3.9999999999999982
    vertex 1545.6964811665046 465.88771121081703 14.999999999999998
    vertex 1545.6964811665046 470.8877112108171 14.999999999999998
  endloop
endfacet
facet normal -1.0 0.0 0.0
  outer loop
    vertex 1578.1964811665043 495.8877112108171 3.9999999999999982
    vertex 1578.1964811665043 465.88771121081703 0.0
    vertex 1578.1964811665043 465.88771121081703 3.9999999999999982
  endloop
endfacet
facet normal -1.0 0.0 0.0
  outer loop
    vertex 1578.1964811665043 465.88771121081703 0.0
    vertex 1578.1964811665043 495.8877112108171 3.9999999999999982
    vertex 1578.1964811665043 493.8877112108171 0.0
  endloop
endfacet
facet normal -0.0 -1.0 -0.0
  outer loop
    vertex 1585.817522405361 458.50404757513974 3.9999999999999996
    vertex 1539.8175224053612 458.50404757513974 0.0
    vertex 1585.817522405361 458.50404757513974 0.0
  endloop
endfacet
facet normal -0.0 -1.0 -0.0
  outer loop
    vertex 1539.8175224053612 458.50404757513974 0.0
    vertex 1585.817522405361 458.50404757513974 3.9999999999999996
    vertex 1539.8175224053612 458.50404757513974 3.9999999999999996
  endloop
endfacet
facet normal 0.0 1.0 0.0
  outer loop
    vertex 1539.8175224053612 501.50404757513974 3.9999999999999996
    vertex 1585.817522405361 501.50404757513974 0.0
    vertex 1539.8175224053612 501.50404757513974 0.0
  endloop
endfacet
facet normal 0.0 1.0 0.0
  outer loop
    vertex 1585.817522405361 501.50404757513974 0.0
    vertex 1539.8175224053612 501.50404757513974 3.9999999999999996
    vertex 1585.817522405361 501.50404757513974 3.9999999999999996
  endloop
endfacet
facet normal 0.0 -0.38268343236507935 0.9238795325112911
  outer loop
    vertex 1569.6964811665046 467.51271121081714 14.015544456622765
    vertex 1567.6964811665043 467.9347778818877 14.190370196005862
    vertex 1567.6964811665043 467.51271121081714 14.015544456622765
  endloop
endfacet
facet normal 0.0 -0.38268343236507935 0.9238795325112911
  outer loop
    vertex 1567.6964811665043 467.9347778818877 14.190370196005862
    vertex 1569.6964811665046 467.51271121081714 14.015544456622765
    vertex 1569.6964811665046 467.9347778818877 14.190370196005862
  endloop
endfacet
facet normal 1.0 0.0 0.0
  outer loop
    vertex 1569.6964811665046 466.69734101481123 12.047066671070608
    vertex 1569.6964811665046 466.6973410148113 12.952933328929422
    vertex 1569.6964811665046 466.63771121081714 12.500000000000016
  endloop
endfacet
facet normal 1.0 0.0 0.0
  outer loop
    vertex 1569.6964811665046 466.6973410148113 12.952933328929422
    vertex 1569.6964811665046 466.69734101481123 12.047066671070608
    vertex 1569.6964811665046 466.8721667541943 11.625000000000021
  endloop
endfacet
facet normal 1.0 0.0 0.0
  outer loop
    vertex 1569.6964811665046 466.6973410148113 12.952933328929422
    vertex 1569.6964811665046 466.8721667541943 11.625000000000021
    vertex 1569.6964811665046 466.8721667541943 13.375000000000007
  endloop
endfacet
facet normal 1.0 0.0 0.0
  outer loop
    vertex 1569.6964811665046 466.8721667541943 13.375000000000007
    vertex 1569.6964811665046 466.8721667541943 11.625000000000021
    vertex 1569.6964811665046 467.1502743437406 11.262563132923562
  endloop
endfacet
facet normal 1.0 0.0 0.0
  outer loop
    vertex 1569.6964811665046 466.8721667541943 13.375000000000007
    vertex 1569.6964811665046 467.1502743437406 11.262563132923562
    vertex 1569.6964811665046 467.1502743437407 13.737436867076461
  endloop
endfacet
facet normal 1.0 0.0 0.0
  outer loop
    vertex 1569.6964811665046 467.1502743437407 13.737436867076461
    vertex 1569.6964811665046 467.1502743437406 11.262563132923562
    vertex 1569.6964811665046 467.51271121081714 10.984455543377251
  endloop
endfacet
facet normal 1.0 0.0 0.0
  outer loop
    vertex 1569.6964811665046 467.1502743437407 13.737436867076461
    vertex 1569.6964811665046 467.51271121081714 10.984455543377251
    vertex 1569.6964811665046 467.51271121081714 14.015544456622765
  endloop
endfacet
facet normal 1.0 0.0 0.0
  outer loop
    vertex 1569.6964811665046 467.51271121081714 14.015544456622765
    vertex 1569.6964811665046 467.51271121081714 10.984455543377251
    vertex 1569.6964811665046 467.9347778818877 10.809629803994147
  endloop
endfacet
facet normal 1.0 0.0 0.0
  outer loop
    vertex 1569.6964811665046 467.51271121081714 14.015544456622765
    vertex 1569.6964811665046 467.9347778818877 10.809629803994147
    vertex 1569.6964811665046 467.9347778818877 14.190370196005862
  endloop
endfacet
facet normal 1.0 0.0 0.0
  outer loop
    vertex 1569.6964811665046 467.9347778818877 14.190370196005862
    vertex 1569.6964811665046 467.9347778818877 10.809629803994147
    vertex 1569.6964811665046 468.3877112108171 10.75000000000001
  endloop
endfacet
facet normal 1.0 0.0 0.0
  outer loop
    vertex 1569.6964811665046 467.9347778818877 14.190370196005862
    vertex 1569.6964811665046 468.3877112108171 10.75000000000001
    vertex 1569.6964811665046 468.3877112108171 14.249999999999988
  endloop
endfacet
facet normal 1.0 0.0 0.0
  outer loop
    vertex 1569.6964811665046 468.3877112108171 14.249999999999988
    vertex 1569.6964811665046 468.3877112108171 10.75000000000001
    vertex 1569.6964811665046 468.8406445397465 10.809629803994135
  endloop
endfacet
facet normal 1.0 0.0 0.0
  outer loop
    vertex 1569.6964811665046 468.3877112108171 14.249999999999988
    vertex 1569.6964811665046 468.8406445397465 10.809629803994135
    vertex 1569.6964811665046 468.8406445397465 14.190370196005851
  endloop
endfacet
facet normal 1.0 0.0 0.0
  outer loop
    vertex 1569.6964811665046 468.8406445397465 14.190370196005851
    vertex 1569.6964811665046 468.8406445397465 10.809629803994135
    vertex 1569.6964811665046 469.2627112108171 10.984455543377232
  endloop
endfacet
facet normal 1.0 0.0 0.0
  outer loop
    vertex 1569.6964811665046 468.8406445397465 14.190370196005851
    vertex 1569.6964811665046 469.2627112108171 10.984455543377232
    vertex 1569.6964811665046 469.2627112108171 14.015544456622747
  endloop
endfacet
facet normal 1.0 0.0 0.0
  outer loop
    vertex 1569.6964811665046 469.2627112108171 14.015544456622747
    vertex 1569.6964811665046 469.2627112108171 10.984455543377232
    vertex 1569.6964811665046 469.6251480778935 11.262563132923534
  endloop
endfacet
facet normal 1.0 0.0 0.0
  outer loop
    vertex 1569.6964811665046 469.2627112108171 14.015544456622747
    vertex 1569.6964811665046 469.6251480778935 11.262563132923534
    vertex 1569.6964811665046 469.6251480778935 13.737436867076436
  endloop
endfacet
facet normal 1.0 0.0 0.0
  outer loop
    vertex 1569.6964811665046 469.6251480778935 13.737436867076436
    vertex 1569.6964811665046 469.6251480778935 11.262563132923534
    vertex 1569.6964811665046 469.90325566743985 11.624999999999988
  endloop
endfacet
facet normal 1.0 0.0 0.0
  outer loop
    vertex 1569.6964811665046 469.6251480778935 13.737436867076436
    vertex 1569.6964811665046 469.90325566743985 11.624999999999988
    vertex 1569.6964811665046 469.90325566743985 13.374999999999975
  endloop
endfacet
facet normal 1.0 0.0 0.0
  outer loop
    vertex 1569.6964811665046 469.90325566743985 13.374999999999975
    vertex 1569.6964811665046 469.90325566743985 11.624999999999988
    vertex 1569.6964811665046 470.0780814068229 12.047066671070572
  endloop
endfacet
facet normal 1.0 0.0 0.0
  outer loop
    vertex 1569.6964811665046 469.90325566743985 13.374999999999975
    vertex 1569.6964811665046 470.0780814068229 12.047066671070572
    vertex 1569.6964811665046 470.078081406823 12.952933328929388
  endloop
endfacet
facet normal 1.0 0.0 0.0
  outer loop
    vertex 1569.6964811665046 470.078081406823 12.952933328929388
    vertex 1569.6964811665046 470.0780814068229 12.047066671070572
    vertex 1569.6964811665046 470.1377112108171 12.49999999999998
  endloop
endfacet
facet normal 1.0 0.0 0.0
  outer loop
    vertex 1585.817522405361 501.50404757513974 0.0
    vertex 1585.817522405361 458.50404757513974 3.9999999999999996
    vertex 1585.817522405361 458.50404757513974 0.0
  endloop
endfacet
facet normal 1.0 0.0 0.0
  outer loop
    vertex 1585.817522405361 458.50404757513974 3.9999999999999996
    vertex 1585.817522405361 501.50404757513974 0.0
    vertex 1585.817522405361 501.50404757513974 3.9999999999999996
  endloop
endfacet
facet normal 1.0 0.0 0.0
  outer loop
    vertex 1551.6964811665046 466.69734101481123 12.047066671070587
    vertex 1551.6964811665046 466.69734101481123 12.95293332892941
    vertex 1551.6964811665046 466.63771121081714 12.499999999999998
  endloop
endfacet
facet normal 1.0 0.0 0.0
  outer loop
    vertex 1551.6964811665046 466.69734101481123 12.95293332892941
    vertex 1551.6964811665046 466.69734101481123 12.047066671070587
    vertex 1551.6964811665046 466.8721667541943 11.624999999999998
  endloop
endfacet
facet normal 1.0 0.0 0.0
  outer loop
    vertex 1551.6964811665046 466.69734101481123 12.95293332892941
    vertex 1551.6964811665046 466.8721667541943 11.624999999999998
    vertex 1551.6964811665046 466.8721667541943 13.374999999999998
  endloop
endfacet
facet normal 1.0 0.0 0.0
  outer loop
    vertex 1551.6964811665046 466.8721667541943 13.374999999999998
    vertex 1551.6964811665046 466.8721667541943 11.624999999999998
    vertex 1551.6964811665046 467.1502743437406 11.262563132923539
  endloop
endfacet
facet normal 1.0 0.0 0.0
  outer loop
    vertex 1551.6964811665046 466.8721667541943 13.374999999999998
    vertex 1551.6964811665046 467.1502743437406 11.262563132923539
    vertex 1551.6964811665046 467.1502743437406 13.737436867076456
  endloop
endfacet
facet normal 1.0 0.0 0.0
  outer loop
    vertex 1551.6964811665046 467.1502743437406 13.737436867076456
    vertex 1551.6964811665046 467.1502743437406 11.262563132923539
    vertex 1551.6964811665046 467.51271121081714 10.98445554337723
  endloop
endfacet
facet normal 1.0 0.0 0.0
  outer loop
    vertex 1551.6964811665046 467.1502743437406 13.737436867076456
    vertex 1551.6964811665046 467.51271121081714 10.98445554337723
    vertex 1551.6964811665046 467.51271121081714 14.015544456622766
  endloop
endfacet
facet normal 1.0 0.0 0.0
  outer loop
    vertex 1551.6964811665046 467.51271121081714 14.015544456622766
    vertex 1551.6964811665046 467.51271121081714 10.98445554337723
    vertex 1551.6964811665046 467.9347778818877 10.809629803994127
  endloop
endfacet
facet normal 1.0 0.0 0.0
  outer loop
    vertex 1551.6964811665046 467.51271121081714 14.015544456622766
    vertex 1551.6964811665046 467.9347778818877 10.809629803994127
    vertex 1551.6964811665046 467.9347778818877 14.190370196005867
  endloop
endfacet
facet normal 1.0 0.0 0.0
  outer loop
    vertex 1551.6964811665046 467.9347778818877 14.190370196005867
    vertex 1551.6964811665046 467.9347778818877 10.809629803994127
    vertex 1551.6964811665046 468.3877112108171 10.749999999999996
  endloop
endfacet
facet normal 1.0 0.0 0.0
  outer loop
    vertex 1551.6964811665046 467.9347778818877 14.190370196005867
    vertex 1551.6964811665046 468.3877112108171 10.749999999999996
    vertex 1551.6964811665046 468.3877112108171 14.25
  endloop
endfacet
facet normal 1.0 0.0 0.0
  outer loop
    vertex 1551.6964811665046 468.3877112108171 14.25
    vertex 1551.6964811665046 468.3877112108171 10.749999999999996
    vertex 1551.6964811665046 468.8406445397465 10.809629803994127
  endloop
endfacet
facet normal 1.0 0.0 0.0
  outer loop
    vertex 1551.6964811665046 468.3877112108171 14.25
    vertex 1551.6964811665046 468.8406445397465 10.809629803994127
    vertex 1551.6964811665046 468.8406445397465 14.190370196005867
  endloop
endfacet
facet normal 1.0 0.0 0.0
  outer loop
    vertex 1551.6964811665046 468.8406445397465 14.190370196005867
    vertex 1551.6964811665046 468.8406445397465 10.809629803994127
    vertex 1551.6964811665046 469.2627112108171 10.98445554337723
  endloop
endfacet
facet normal 1.0 0.0 0.0
  outer loop
    vertex 1551.6964811665046 468.8406445397465 14.190370196005867
    vertex 1551.6964811665046 469.2627112108171 10.98445554337723
    vertex 1551.6964811665046 469.2627112108171 14.015544456622766
  endloop
endfacet
facet normal 1.0 0.0 0.0
  outer loop
    vertex 1551.6964811665046 469.2627112108171 14.015544456622766
    vertex 1551.6964811665046 469.2627112108171 10.98445554337723
    vertex 1551.6964811665046 469.6251480778936 11.262563132923539
  endloop
endfacet
facet normal 1.0 0.0 0.0
  outer loop
    vertex 1551.6964811665046 469.2627112108171 14.015544456622766
    vertex 1551.6964811665046 469.6251480778936 11.262563132923539
    vertex 1551.6964811665046 469.6251480778936 13.737436867076458
  endloop
endfacet
facet normal 1.0 0.0 0.0
  outer loop
    vertex 1551.6964811665046 469.6251480778936 13.737436867076458
    vertex 1551.6964811665046 469.6251480778936 11.262563132923539
    vertex 1551.6964811665046 469.90325566743985 11.624999999999998
  endloop
endfacet
facet normal 1.0 0.0 0.0
  outer loop
    vertex 1551.6964811665046 469.6251480778936 13.737436867076458
    vertex 1551.6964811665046 469.90325566743985 11.624999999999998
    vertex 1551.6964811665046 469.90325566743985 13.374999999999998
  endloop
endfacet
facet normal 1.0 0.0 0.0
  outer loop
    vertex 1551.6964811665046 469.90325566743985 13.374999999999998
    vertex 1551.6964811665046 469.90325566743985 11.624999999999998
    vertex 1551.6964811665046 470.078081406823 12.047066671070588
  endloop
endfacet
facet normal 1.0 0.0 0.0
  outer loop
    vertex 1551.6964811665046 469.90325566743985 13.374999999999998
    vertex 1551.6964811665046 470.078081406823 12.047066671070588
    vertex 1551.6964811665046 470.078081406823 12.95293332892941
  endloop
endfacet
facet normal 1.0 0.0 0.0
  outer loop
    vertex 1551.6964811665046 470.078081406823 12.95293332892941
    vertex 1551.6964811665046 470.078081406823 12.047066671070588
    vertex 1551.6964811665046 470.1377112108171 12.499999999999998
  endloop
endfacet
facet normal -0.0 -0.13052619222005796 -0.9914448613738096
  outer loop
    vertex 1551.6964811665046 468.3877112108171 10.749999999999996
    vertex 1549.6964811665046 467.9347778818877 10.809629803994127
    vertex 1549.6964811665046 468.3877112108171 10.749999999999996
  endloop
endfacet
facet normal -0.0 -0.13052619222005796 -0.9914448613738096
  outer loop
    vertex 1549.6964811665046 467.9347778818877 10.809629803994127
    vertex 1551.6964811665046 468.3877112108171 10.749999999999996
    vertex 1551.6964811665046 467.9347778818877 10.809629803994127
  endloop
endfacet
facet normal 0.0 0.13052619222005796 -0.9914448613738096
  outer loop
    vertex 1551.6964811665046 468.8406445397465 10.809629803994127
    vertex 1549.6964811665046 468.3877112108171 10.749999999999996
    vertex 1549.6964811665046 468.8406445397465 10.809629803994127
  endloop
endfacet
facet normal 0.0 0.13052619222005796 -0.9914448613738096
  outer loop
    vertex 1549.6964811665046 468.3877112108171 10.749999999999996
    vertex 1551.6964811665046 468.8406445397465 10.809629803994127
    vertex 1551.6964811665046 468.3877112108171 10.749999999999996
  endloop
endfacet
facet normal 0.0 0.38268343236508734 -0.923879532511288
  outer loop
    vertex 1551.6964811665046 469.2627112108171 10.98445554337723
    vertex 1549.6964811665046 468.8406445397465 10.809629803994127
    vertex 1549.6964811665046 469.2627112108171 10.98445554337723
  endloop
endfacet
facet normal 0.0 0.38268343236508734 -0.923879532511288
  outer loop
    vertex 1549.6964811665046 468.8406445397465 10.809629803994127
    vertex 1551.6964811665046 469.2627112108171 10.98445554337723
    vertex 1551.6964811665046 468.8406445397465 10.809629803994127
  endloop
endfacet
facet normal 0.0 0.6087614290086629 -0.7933533402912795
  outer loop
    vertex 1551.6964811665046 469.6251480778936 11.262563132923539
    vertex 1549.6964811665046 469.2627112108171 10.98445554337723
    vertex 1549.6964811665046 469.6251480778936 11.262563132923539
  endloop
endfacet
facet normal 0.0 0.6087614290086629 -0.7933533402912795
  outer loop
    vertex 1549.6964811665046 469.2627112108171 10.98445554337723
    vertex 1551.6964811665046 469.6251480778936 11.262563132923539
    vertex 1551.6964811665046 469.2627112108171 10.98445554337723
  endloop
endfacet
facet normal 0.0 0.7933533402912722 -0.6087614290086726
  outer loop
    vertex 1549.6964811665046 469.90325566743985 11.624999999999998
    vertex 1551.6964811665046 469.6251480778936 11.262563132923539
    vertex 1549.6964811665046 469.6251480778936 11.262563132923539
  endloop
endfacet
facet normal 0.0 0.7933533402912722 -0.6087614290086726
  outer loop
    vertex 1551.6964811665046 469.6251480778936 11.262563132923539
    vertex 1549.6964811665046 469.90325566743985 11.624999999999998
    vertex 1551.6964811665046 469.90325566743985 11.624999999999998
  endloop
endfacet
facet normal 0.0 0.9238795325112772 -0.38268343236511315
  outer loop
    vertex 1549.6964811665046 470.078081406823 12.047066671070588
    vertex 1551.6964811665046 469.90325566743985 11.624999999999998
    vertex 1549.6964811665046 469.90325566743985 11.624999999999998
  endloop
endfacet
facet normal 0.0 0.9238795325112772 -0.38268343236511315
  outer loop
    vertex 1551.6964811665046 469.90325566743985 11.624999999999998
    vertex 1549.6964811665046 470.078081406823 12.047066671070588
    vertex 1551.6964811665046 470.078081406823 12.047066671070588
  endloop
endfacet
facet normal 0.0 0.9914448613738251 -0.1305261922199397
  outer loop
    vertex 1549.6964811665046 470.1377112108171 12.499999999999998
    vertex 1551.6964811665046 470.078081406823 12.047066671070588
    vertex 1549.6964811665046 470.078081406823 12.047066671070588
  endloop
endfacet
facet normal 0.0 0.9914448613738251 -0.1305261922199397
  outer loop
    vertex 1551.6964811665046 470.078081406823 12.047066671070588
    vertex 1549.6964811665046 470.1377112108171 12.499999999999998
    vertex 1551.6964811665046 470.1377112108171 12.499999999999998
  endloop
endfacet
facet normal 0.0 0.9914448613738251 0.1305261922199397
  outer loop
    vertex 1549.6964811665046 470.078081406823 12.95293332892941
    vertex 1551.6964811665046 470.1377112108171 12.499999999999998
    vertex 1549.6964811665046 470.1377112108171 12.499999999999998
  endloop
endfacet
facet normal 0.0 0.9914448613738251 0.1305261922199397
  outer loop
    vertex 1551.6964811665046 470.1377112108171 12.499999999999998
    vertex 1549.6964811665046 470.078081406823 12.95293332892941
    vertex 1551.6964811665046 470.078081406823 12.95293332892941
  endloop
endfacet
facet normal 0.0 0.9238795325112772 0.38268343236511315
  outer loop
    vertex 1549.6964811665046 469.90325566743985 13.374999999999998
    vertex 1551.6964811665046 470.078081406823 12.95293332892941
    vertex 1549.6964811665046 470.078081406823 12.95293332892941
  endloop
endfacet
facet normal 0.0 0.9238795325112772 0.38268343236511315
  outer loop
    vertex 1551.6964811665046 470.078081406823 12.95293332892941
    vertex 1549.6964811665046 469.90325566743985 13.374999999999998
    vertex 1551.6964811665046 469.90325566743985 13.374999999999998
  endloop
endfacet
facet normal 0.0 0.7933533402912734 0.608761429008671
  outer loop
    vertex 1549.6964811665046 469.6251480778936 13.737436867076458
    vertex 1551.6964811665046 469.90325566743985 13.374999999999998
    vertex 1549.6964811665046 469.90325566743985 13.374999999999998
  endloop
endfacet
facet normal 0.0 0.7933533402912734 0.608761429008671
  outer loop
    vertex 1551.6964811665046 469.90325566743985 13.374999999999998
    vertex 1549.6964811665046 469.6251480778936 13.737436867076458
    vertex 1551.6964811665046 469.6251480778936 13.737436867076458
  endloop
endfacet
facet normal 0.0 0.608761429008661 0.793353340291281
  outer loop
    vertex 1551.6964811665046 469.2627112108171 14.015544456622766
    vertex 1549.6964811665046 469.6251480778936 13.737436867076458
    vertex 1549.6964811665046 469.2627112108171 14.015544456622766
  endloop
endfacet
facet normal 0.0 0.608761429008661 0.793353340291281
  outer loop
    vertex 1549.6964811665046 469.6251480778936 13.737436867076458
    vertex 1551.6964811665046 469.2627112108171 14.015544456622766
    vertex 1551.6964811665046 469.6251480778936 13.737436867076458
  endloop
endfacet
facet normal 0.0 0.38268343236508473 0.9238795325112891
  outer loop
    vertex 1551.6964811665046 468.8406445397465 14.190370196005867
    vertex 1549.6964811665046 469.2627112108171 14.015544456622766
    vertex 1549.6964811665046 468.8406445397465 14.190370196005867
  endloop
endfacet
facet normal 0.0 0.38268343236508473 0.9238795325112891
  outer loop
    vertex 1549.6964811665046 469.2627112108171 14.015544456622766
    vertex 1551.6964811665046 468.8406445397465 14.190370196005867
    vertex 1551.6964811665046 469.2627112108171 14.015544456622766
  endloop
endfacet
facet normal 0.0 0.13052619222006098 0.9914448613738093
  outer loop
    vertex 1551.6964811665046 468.3877112108171 14.25
    vertex 1549.6964811665046 468.8406445397465 14.190370196005867
    vertex 1549.6964811665046 468.3877112108171 14.25
  endloop
endfacet
facet normal 0.0 0.13052619222006098 0.9914448613738093
  outer loop
    vertex 1549.6964811665046 468.8406445397465 14.190370196005867
    vertex 1551.6964811665046 468.3877112108171 14.25
    vertex 1551.6964811665046 468.8406445397465 14.190370196005867
  endloop
endfacet
facet normal 0.0 -0.13052619222006098 0.9914448613738093
  outer loop
    vertex 1551.6964811665046 467.9347778818877 14.190370196005867
    vertex 1549.6964811665046 468.3877112108171 14.25
    vertex 1549.6964811665046 467.9347778818877 14.190370196005867
  endloop
endfacet
facet normal 0.0 -0.13052619222006098 0.9914448613738093
  outer loop
    vertex 1549.6964811665046 468.3877112108171 14.25
    vertex 1551.6964811665046 467.9347778818877 14.190370196005867
    vertex 1551.6964811665046 468.3877112108171 14.25
  endloop
endfacet
facet normal 0.0 -0.38268343236508473 0.9238795325112891
  outer loop
    vertex 1551.6964811665046 467.51271121081714 14.015544456622766
    vertex 1549.6964811665046 467.9347778818877 14.190370196005867
    vertex 1549.6964811665046 467.51271121081714 14.015544456622766
  endloop
endfacet
facet normal 0.0 -0.38268343236508473 0.9238795325112891
  outer loop
    vertex 1549.6964811665046 467.9347778818877 14.190370196005867
    vertex 1551.6964811665046 467.51271121081714 14.015544456622766
    vertex 1551.6964811665046 467.9347778818877 14.190370196005867
  endloop
endfacet
facet normal 0.0 -0.6087614290086649 0.7933533402912781
  outer loop
    vertex 1551.6964811665046 467.1502743437406 13.737436867076456
    vertex 1549.6964811665046 467.51271121081714 14.015544456622766
    vertex 1549.6964811665046 467.1502743437406 13.737436867076456
  endloop
endfacet
facet normal 0.0 -0.6087614290086649 0.7933533402912781
  outer loop
    vertex 1549.6964811665046 467.51271121081714 14.015544456622766
    vertex 1551.6964811665046 467.1502743437406 13.737436867076456
    vertex 1551.6964811665046 467.51271121081714 14.015544456622766
  endloop
endfacet
facet normal 0.0 -0.793353340291271 0.608761429008674
  outer loop
    vertex 1551.6964811665046 467.1502743437406 13.737436867076456
    vertex 1549.6964811665046 466.8721667541943 13.374999999999998
    vertex 1551.6964811665046 466.8721667541943 13.374999999999998
  endloop
endfacet
facet normal 0.0 -0.793353340291271 0.608761429008674
  outer loop
    vertex 1549.6964811665046 466.8721667541943 13.374999999999998
    vertex 1551.6964811665046 467.1502743437406 13.737436867076456
    vertex 1549.6964811665046 467.1502743437406 13.737436867076456
  endloop
endfacet
facet normal 0.0 -0.9238795325112772 0.38268343236511315
  outer loop
    vertex 1551.6964811665046 466.8721667541943 13.374999999999998
    vertex 1549.6964811665046 466.69734101481123 12.95293332892941
    vertex 1551.6964811665046 466.69734101481123 12.95293332892941
  endloop
endfacet
facet normal 0.0 -0.9238795325112772 0.38268343236511315
  outer loop
    vertex 1549.6964811665046 466.69734101481123 12.95293332892941
    vertex 1551.6964811665046 466.8721667541943 13.374999999999998
    vertex 1549.6964811665046 466.8721667541943 13.374999999999998
  endloop
endfacet
facet normal 0.0 -0.9914448613738251 0.1305261922199397
  outer loop
    vertex 1551.6964811665046 466.69734101481123 12.95293332892941
    vertex 1549.6964811665046 466.63771121081714 12.499999999999998
    vertex 1551.6964811665046 466.63771121081714 12.499999999999998
  endloop
endfacet
facet normal 0.0 -0.9914448613738251 0.1305261922199397
  outer loop
    vertex 1549.6964811665046 466.63771121081714 12.499999999999998
    vertex 1551.6964811665046 466.69734101481123 12.95293332892941
    vertex 1549.6964811665046 466.69734101481123 12.95293332892941
  endloop
endfacet
facet normal -0.0 -0.9914448613738253 -0.1305261922199393
  outer loop
    vertex 1551.6964811665046 466.63771121081714 12.499999999999998
    vertex 1549.6964811665046 466.69734101481123 12.047066671070587
    vertex 1551.6964811665046 466.69734101481123 12.047066671070587
  endloop
endfacet
facet normal -0.0 -0.9914448613738253 -0.1305261922199393
  outer loop
    vertex 1549.6964811665046 466.69734101481123 12.047066671070587
    vertex 1551.6964811665046 466.63771121081714 12.499999999999998
    vertex 1549.6964811665046 466.63771121081714 12.499999999999998
  endloop
endfacet
facet normal -0.0 -0.9238795325112767 -0.3826834323651143
  outer loop
    vertex 1551.6964811665046 466.69734101481123 12.047066671070587
    vertex 1549.6964811665046 466.8721667541943 11.624999999999998
    vertex 1551.6964811665046 466.8721667541943 11.624999999999998
  endloop
endfacet
facet normal -0.0 -0.9238795325112767 -0.3826834323651143
  outer loop
    vertex 1549.6964811665046 466.8721667541943 11.624999999999998
    vertex 1551.6964811665046 466.69734101481123 12.047066671070587
    vertex 1549.6964811665046 466.69734101481123 12.047066671070587
  endloop
endfacet
facet normal -0.0 -0.7933533402912722 -0.6087614290086726
  outer loop
    vertex 1551.6964811665046 466.8721667541943 11.624999999999998
    vertex 1549.6964811665046 467.1502743437406 11.262563132923539
    vertex 1551.6964811665046 467.1502743437406 11.262563132923539
  endloop
endfacet
facet normal -0.0 -0.7933533402912722 -0.6087614290086726
  outer loop
    vertex 1549.6964811665046 467.1502743437406 11.262563132923539
    vertex 1551.6964811665046 466.8721667541943 11.624999999999998
    vertex 1549.6964811665046 466.8721667541943 11.624999999999998
  endloop
endfacet
endsolid 4705 switch draft
