solid box draft 1
facet normal -3.1910562488671304e-14 0.9958932064677035 -0.09053574604252242
  outer loop
    vertex 2396.8483866630354 192.20553772662262 0.0
    vertex 2392.848386663039 193.20553772662265 11.00000000000141
    vertex 2398.848386663039 193.20553772662265 10.999999999999297
  endloop
endfacet
facet normal -3.1910562488671304e-14 0.9958932064677035 -0.09053574604252242
  outer loop
    vertex 2392.848386663039 193.20553772662265 11.00000000000141
    vertex 2396.8483866630354 192.20553772662262 0.0
    vertex 2392.8483866630354 192.20553772662262 1.4099832412739488e-12
  endloop
endfacet
facet normal 2.7956564864031647e-13 0.6087614290087782 0.7933533402911911
  outer loop
    vertex 2390.8483866630368 190.66013188122446 3.4545941546039822
    vertex 2392.8483866630363 190.38053772662266 3.6691342951104295
    vertex 2392.8483866630363 190.66013188122446 3.454594154603279
  endloop
endfacet
facet normal 2.7956564864031647e-13 0.6087614290087782 0.7933533402911911
  outer loop
    vertex 2392.8483866630363 190.38053772662266 3.6691342951104295
    vertex 2390.8483866630368 190.66013188122446 3.4545941546039822
    vertex 2390.8483866630368 190.38053772662266 3.669134295111133
  endloop
endfacet
facet normal -2.1451826711360828e-13 -0.7933533402911526 -0.6087614290088285
  outer loop
    vertex 2390.848386663036 188.75094357202082 1.5454058454002497
    vertex 2392.8483866630354 188.5364034315136 1.8250000000013813
    vertex 2390.848386663036 188.5364034315136 1.8250000000020863
  endloop
endfacet
facet normal -2.1451826711360828e-13 -0.7933533402911526 -0.6087614290088285
  outer loop
    vertex 2392.8483866630354 188.5364034315136 1.8250000000013813
    vertex 2390.848386663036 188.75094357202082 1.5454058454002497
    vertex 2392.8483866630354 188.75094357202082 1.5454058453995447
  endloop
endfacet
facet normal 1.3485182019121963e-13 0.9238795325112835 0.3826834323650976
  outer loop
    vertex 2392.848386663036 191.00953759211293 2.849405710889835
    vertex 2390.8483866630363 190.87467202173167 3.1750000000021403
    vertex 2392.848386663036 190.87467202173167 3.175000000001435
  endloop
endfacet
facet normal 1.3485182019121963e-13 0.9238795325112835 0.3826834323650976
  outer loop
    vertex 2390.8483866630363 190.87467202173167 3.1750000000021403
    vertex 2392.848386663036 191.00953759211293 2.849405710889835
    vertex 2390.8483866630363 191.00953759211293 2.8494057108905397
  endloop
endfacet
facet normal 3.2556311271270447e-13 0.38268343236501595 0.9238795325113173
  outer loop
    vertex 2372.8483866630363 190.38053772662266 3.6691342951174515
    vertex 2374.8483866630363 190.054943437511 3.803999865497988
    vertex 2374.8483866630363 190.38053772662266 3.6691342951167463
  endloop
endfacet
facet normal 3.2556311271270447e-13 0.38268343236501595 0.9238795325113173
  outer loop
    vertex 2374.8483866630363 190.054943437511 3.803999865497988
    vertex 2372.8483866630363 190.38053772662266 3.6691342951174515
    vertex 2372.8483866630363 190.054943437511 3.8039998654986933
  endloop
endfacet
facet normal 1.3485182019114166e-13 -0.9238795325113752 0.3826834323648763
  outer loop
    vertex 2390.8483866630363 188.40153786113245 2.8494057108905033
    vertex 2392.848386663036 188.5364034315136 3.1750000000014014
    vertex 2390.8483866630363 188.5364034315136 3.175000000002106
  endloop
endfacet
facet normal 1.3485182019114166e-13 -0.9238795325113752 0.3826834323648763
  outer loop
    vertex 2392.848386663036 188.5364034315136 3.1750000000014014
    vertex 2390.8483866630363 188.40153786113245 2.8494057108905033
    vertex 2392.848386663036 188.40153786113245 2.849405710889798
  endloop
endfacet
facet normal 3.2556109321634254e-13 0.3826834323650298 0.9238795325113117
  outer loop
    vertex 2390.8483866630368 190.38053772662266 3.669134295111133
    vertex 2392.8483866630363 190.054943437511 3.803999865491677
    vertex 2392.8483866630363 190.38053772662266 3.6691342951104295
  endloop
endfacet
facet normal 3.2556109321634254e-13 0.3826834323650298 0.9238795325113117
  outer loop
    vertex 2392.8483866630363 190.054943437511 3.803999865491677
    vertex 2390.8483866630368 190.38053772662266 3.669134295111133
    vertex 2390.8483866630368 190.054943437511 3.803999865492381
  endloop
endfacet
facet normal 3.4937008730478573e-13 -0.1305261922200822 0.9914448613738064
  outer loop
    vertex 2390.8483866630368 189.70553772662257 3.850000000002136
    vertex 2392.8483866630363 189.35613201573418 3.8039998654916674
    vertex 2392.8483866630363 189.70553772662257 3.8500000000014327
  endloop
endfacet
facet normal 3.4937008730478573e-13 -0.1305261922200822 0.9914448613738064
  outer loop
    vertex 2392.8483866630363 189.35613201573418 3.8039998654916674
    vertex 2390.8483866630368 189.70553772662257 3.850000000002136
    vertex 2390.8483866630368 189.35613201573418 3.803999865492371
  endloop
endfacet
facet normal 1.0 0.0 -3.523847880160247e-13
  outer loop
    vertex 2403.998386663039 226.72187409094528 10.99999999999748
    vertex 2403.998386663041 175.9218740909453 15.999999999997478
    vertex 2403.998386663039 175.9218740909453 10.99999999999748
  endloop
endfacet
facet normal 1.0 0.0 -3.523847880160247e-13
  outer loop
    vertex 2403.998386663041 175.9218740909453 15.999999999997478
    vertex 2403.998386663039 226.72187409094528 10.99999999999748
    vertex 2403.998386663041 226.72187409094528 15.999999999997478
  endloop
endfacet
facet normal -3.1931990923484484e-14 -0.9958932064677035 -0.09053574604252242
  outer loop
    vertex 2392.8483866630354 187.2055377266226 1.4099832412739488e-12
    vertex 2398.848386663039 186.20553772662254 10.999999999999297
    vertex 2392.848386663039 186.20553772662254 11.00000000000141
  endloop
endfacet
facet normal -3.1931990923484484e-14 -0.9958932064677035 -0.09053574604252242
  outer loop
    vertex 2398.848386663039 186.20553772662254 10.999999999999297
    vertex 2392.8483866630354 187.2055377266226 1.4099832412739488e-12
    vertex 2396.8483866630354 187.2055377266226 0.0
  endloop
endfacet
facet normal -4.5995444576010676e-14 0.9914448613738073 -0.13052619222007678
  outer loop
    vertex 2374.848386663036 191.00953759211285 2.1505942891193772
    vertex 2372.8483866630363 191.05553772662262 2.5000000000084834
    vertex 2374.848386663036 191.05553772662262 2.5000000000077787
  endloop
endfacet
facet normal -4.5995444576010676e-14 0.9914448613738073 -0.13052619222007678
  outer loop
    vertex 2372.8483866630363 191.05553772662262 2.5000000000084834
    vertex 2374.848386663036 191.00953759211285 2.1505942891193772
    vertex 2372.848386663036 191.00953759211285 2.1505942891200824
  endloop
endfacet
facet normal 0.9838699100998404 1.8261848323668632e-17 -0.17888543820035302
  outer loop
    vertex 2378.848386663035 187.2055377266226 6.34492458573277e-12
    vertex 2380.8483866630395 193.20553772662265 11.00000000000564
    vertex 2380.8483866630395 186.20553772662254 11.00000000000564
  endloop
endfacet
facet normal 0.9838699100998404 1.8261848323668632e-17 -0.17888543820035302
  outer loop
    vertex 2380.8483866630395 193.20553772662265 11.00000000000564
    vertex 2378.848386663035 187.2055377266226 6.34492458573277e-12
    vertex 2378.848386663035 192.20553772662262 6.34492458573277e-12
  endloop
endfacet
facet normal -2.1451826711360043e-13 0.7933533402911553 -0.6087614290088246
  outer loop
    vertex 2374.848386663036 190.66013188122446 1.5454058454059432
    vertex 2372.848386663036 190.87467202173167 1.8250000000084876
    vertex 2374.848386663036 190.87467202173167 1.8250000000077826
  endloop
endfacet
facet normal -2.1451826711360043e-13 0.7933533402911553 -0.6087614290088246
  outer loop
    vertex 2372.848386663036 190.87467202173167 1.8250000000084876
    vertex 2374.848386663036 190.66013188122446 1.5454058454059432
    vertex 2372.848386663036 190.66013188122446 1.5454058454066482
  endloop
endfacet
facet normal -1.0 0.0 3.523847880160247e-13
  outer loop
    vertex 2374.848386663041 215.20553772662262 16.000000000007752
    vertex 2374.8483866630395 187.2055377266226 11.000000000007754
    vertex 2374.848386663041 187.2055377266226 16.000000000007752
  endloop
endfacet
facet normal -1.0 0.0 3.523847880160247e-13
  outer loop
    vertex 2374.8483866630395 187.2055377266226 11.000000000007754
    vertex 2374.848386663041 215.20553772662262 16.000000000007752
    vertex 2374.8483866630395 193.20553772662265 11.000000000007754
  endloop
endfacet
facet normal -1.0 0.0 3.523847880160247e-13
  outer loop
    vertex 2374.8483866630395 187.2055377266226 11.000000000007754
    vertex 2374.8483866630395 193.20553772662265 11.000000000007754
    vertex 2374.848386663036 188.5364034315136 3.1750000000077265
  endloop
endfacet
facet normal -1.0 0.0 3.523847880160247e-13
  outer loop
    vertex 2374.8483866630395 187.2055377266226 11.000000000007754
    vertex 2374.848386663036 188.5364034315136 3.1750000000077265
    vertex 2374.8483866630354 187.2055377266226 7.754907827006718e-12
  endloop
endfacet
facet normal -1.0 0.0 3.523847880160247e-13
  outer loop
    vertex 2374.8483866630354 187.2055377266226 7.754907827006718e-12
    vertex 2374.848386663036 188.5364034315136 3.1750000000077265
    vertex 2374.848386663036 188.40153786113245 2.849405710896129
  endloop
endfacet
facet normal -1.0 0.0 3.523847880160247e-13
  outer loop
    vertex 2374.8483866630354 187.2055377266226 7.754907827006718e-12
    vertex 2374.848386663036 188.40153786113245 2.849405710896129
    vertex 2374.848386663036 188.35553772662269 2.5000000000077307
  endloop
endfacet
facet normal -1.0 0.0 3.523847880160247e-13
  outer loop
    vertex 2374.848386663036 188.5364034315136 3.1750000000077265
    vertex 2374.8483866630395 193.20553772662265 11.000000000007754
    vertex 2374.8483866630363 188.75094357202073 3.4545941546095644
  endloop
endfacet
facet normal -1.0 0.0 3.523847880160247e-13
  outer loop
    vertex 2374.8483866630363 188.75094357202073 3.4545941546095644
    vertex 2374.8483866630395 193.20553772662265 11.000000000007754
    vertex 2374.8483866630363 189.0305377266226 3.669134295116721
  endloop
endfacet
facet normal -1.0 0.0 3.523847880160247e-13
  outer loop
    vertex 2374.8483866630363 189.0305377266226 3.669134295116721
    vertex 2374.8483866630395 193.20553772662265 11.000000000007754
    vertex 2374.8483866630363 189.35613201573418 3.8039998654979756
  endloop
endfacet
facet normal -1.0 0.0 3.523847880160247e-13
  outer loop
    vertex 2374.8483866630363 189.35613201573418 3.8039998654979756
    vertex 2374.8483866630395 193.20553772662265 11.000000000007754
    vertex 2374.8483866630363 189.70553772662265 3.8500000000077392
  endloop
endfacet
facet normal -1.0 0.0 3.523847880160247e-13
  outer loop
    vertex 2374.8483866630363 189.70553772662265 3.8500000000077392
    vertex 2374.8483866630395 193.20553772662265 11.000000000007754
    vertex 2374.8483866630363 190.054943437511 3.803999865497988
  endloop
endfacet
facet normal -1.0 0.0 3.523847880160247e-13
  outer loop
    vertex 2374.8483866630363 190.054943437511 3.803999865497988
    vertex 2374.8483866630395 193.20553772662265 11.000000000007754
    vertex 2374.8483866630363 190.38053772662266 3.6691342951167463
  endloop
endfacet
facet normal -1.0 0.0 3.523847880160247e-13
  outer loop
    vertex 2374.8483866630363 190.38053772662266 3.6691342951167463
    vertex 2374.8483866630395 193.20553772662265 11.000000000007754
    vertex 2374.8483866630363 190.66013188122446 3.4545941546096
  endloop
endfacet
facet normal -1.0 0.0 3.523847880160247e-13
  outer loop
    vertex 2374.8483866630363 190.66013188122446 3.4545941546096
    vertex 2374.8483866630395 193.20553772662265 11.000000000007754
    vertex 2374.848386663036 190.87467202173158 3.1750000000077687
  endloop
endfacet
facet normal -1.0 0.0 3.523847880160247e-13
  outer loop
    vertex 2374.848386663036 190.87467202173158 3.1750000000077687
    vertex 2374.8483866630395 193.20553772662265 11.000000000007754
    vertex 2374.848386663036 191.00953759211285 2.849405710896177
  endloop
endfacet
facet normal -1.0 0.0 3.523847880160247e-13
  outer loop
    vertex 2374.848386663036 191.00953759211285 2.849405710896177
    vertex 2374.8483866630395 193.20553772662265 11.000000000007754
    vertex 2374.848386663036 191.05553772662262 2.5000000000077787
  endloop
endfacet
facet normal -1.0 0.0 3.523847880160247e-13
  outer loop
    vertex 2374.848386663036 191.05553772662262 2.5000000000077787
    vertex 2374.8483866630395 193.20553772662265 11.000000000007754
    vertex 2374.8483866630354 192.20553772662262 7.754907827006718e-12
  endloop
endfacet
facet normal -1.0 0.0 3.523847880160247e-13
  outer loop
    vertex 2374.8483866630395 193.20553772662265 11.000000000007754
    vertex 2374.848386663041 215.20553772662262 16.000000000007752
    vertex 2374.848386663041 215.20553772662262 15.00000000000775
  endloop
endfacet
facet normal -1.0 0.0 3.523847880160247e-13
  outer loop
    vertex 2374.8483866630395 193.20553772662265 11.000000000007754
    vertex 2374.848386663041 215.20553772662262 15.00000000000775
    vertex 2374.8483866630395 217.20553772662262 11.000000000007754
  endloop
endfacet
facet normal -1.0 0.0 3.523847880160247e-13
  outer loop
    vertex 2374.8483866630354 187.2055377266226 7.754907827006718e-12
    vertex 2374.848386663036 189.0305377266226 1.3308657048987629
    vertex 2374.8483866630354 192.20553772662262 7.754907827006718e-12
  endloop
endfacet
facet normal -1.0 0.0 3.523847880160247e-13
  outer loop
    vertex 2374.848386663036 189.0305377266226 1.3308657048987629
    vertex 2374.8483866630354 187.2055377266226 7.754907827006718e-12
    vertex 2374.848386663036 188.75094357202082 1.5454058454059094
  endloop
endfacet
facet normal -1.0 0.0 3.523847880160247e-13
  outer loop
    vertex 2374.848386663036 188.75094357202082 1.5454058454059094
    vertex 2374.8483866630354 187.2055377266226 7.754907827006718e-12
    vertex 2374.848386663036 188.53640343151372 1.825000000007743
  endloop
endfacet
facet normal -1.0 0.0 3.523847880160247e-13
  outer loop
    vertex 2374.848386663036 188.53640343151372 1.825000000007743
    vertex 2374.8483866630354 187.2055377266226 7.754907827006718e-12
    vertex 2374.848386663036 188.40153786113245 2.1505942891193324
  endloop
endfacet
facet normal -1.0 0.0 3.523847880160247e-13
  outer loop
    vertex 2374.848386663036 188.40153786113245 2.1505942891193324
    vertex 2374.8483866630354 187.2055377266226 7.754907827006718e-12
    vertex 2374.848386663036 188.35553772662269 2.5000000000077307
  endloop
endfacet
facet normal -1.0 0.0 3.523847880160247e-13
  outer loop
    vertex 2374.8483866630354 192.20553772662262 7.754907827006718e-12
    vertex 2374.848386663036 189.0305377266226 1.3308657048987629
    vertex 2374.848386663036 189.35613201573426 1.1960001345175193
  endloop
endfacet
facet normal -1.0 0.0 3.523847880160247e-13
  outer loop
    vertex 2374.8483866630354 192.20553772662262 7.754907827006718e-12
    vertex 2374.848386663036 189.35613201573426 1.1960001345175193
    vertex 2374.8483866630354 189.70553772662265 1.1500000000077697
  endloop
endfacet
facet normal -1.0 0.0 3.523847880160247e-13
  outer loop
    vertex 2374.8483866630354 192.20553772662262 7.754907827006718e-12
    vertex 2374.8483866630354 189.70553772662265 1.1500000000077697
    vertex 2374.848386663036 190.05494343751113 1.1960001345175306
  endloop
endfacet
facet normal -1.0 0.0 3.523847880160247e-13
  outer loop
    vertex 2374.8483866630354 192.20553772662262 7.754907827006718e-12
    vertex 2374.848386663036 190.05494343751113 1.1960001345175306
    vertex 2374.848386663036 190.38053772662266 1.3308657048987853
  endloop
endfacet
facet normal -1.0 0.0 3.523847880160247e-13
  outer loop
    vertex 2374.8483866630354 192.20553772662262 7.754907827006718e-12
    vertex 2374.848386663036 190.38053772662266 1.3308657048987853
    vertex 2374.848386663036 190.66013188122446 1.5454058454059432
  endloop
endfacet
facet normal -1.0 0.0 3.523847880160247e-13
  outer loop
    vertex 2374.8483866630354 192.20553772662262 7.754907827006718e-12
    vertex 2374.848386663036 190.66013188122446 1.5454058454059432
    vertex 2374.848386663036 190.87467202173167 1.8250000000077826
  endloop
endfacet
facet normal -1.0 0.0 3.523847880160247e-13
  outer loop
    vertex 2374.8483866630354 192.20553772662262 7.754907827006718e-12
    vertex 2374.848386663036 190.87467202173167 1.8250000000077826
    vertex 2374.848386663036 191.00953759211285 2.1505942891193772
  endloop
endfacet
facet normal -1.0 0.0 3.523847880160247e-13
  outer loop
    vertex 2374.8483866630354 192.20553772662262 7.754907827006718e-12
    vertex 2374.848386663036 191.00953759211285 2.1505942891193772
    vertex 2374.848386663036 191.05553772662262 2.5000000000077787
  endloop
endfacet
facet normal -1.0 0.0 3.523847880160247e-13
  outer loop
    vertex 2374.8483866630354 187.2055377266226 7.754907827006718e-12
    vertex 2374.8483866630395 186.20553772662254 11.000000000007754
    vertex 2374.8483866630395 187.2055377266226 11.000000000007754
  endloop
endfacet
facet normal -3.2556109321634305e-13 -0.38268343236502633 -0.923879532511313
  outer loop
    vertex 2390.848386663036 189.0305377266226 1.3308657048930947
    vertex 2392.8483866630354 189.35613201573426 1.1960001345111435
    vertex 2392.8483866630354 189.0305377266226 1.3308657048923898
  endloop
endfacet
facet normal -3.2556109321634305e-13 -0.38268343236502633 -0.923879532511313
  outer loop
    vertex 2392.8483866630354 189.35613201573426 1.1960001345111435
    vertex 2390.848386663036 189.0305377266226 1.3308657048930947
    vertex 2390.848386663036 189.35613201573426 1.1960001345118485
  endloop
endfacet
facet normal 2.1451826711360553e-13 0.7933533402911583 0.6087614290088207
  outer loop
    vertex 2392.848386663036 190.87467202173167 3.175000000001435
    vertex 2390.8483866630368 190.66013188122446 3.4545941546039822
    vertex 2392.8483866630363 190.66013188122446 3.454594154603279
  endloop
endfacet
facet normal 2.1451826711360553e-13 0.7933533402911583 0.6087614290088207
  outer loop
    vertex 2390.8483866630368 190.66013188122446 3.4545941546039822
    vertex 2392.848386663036 190.87467202173167 3.175000000001435
    vertex 2390.8483866630363 190.87467202173167 3.1750000000021403
  endloop
endfacet
facet normal 2.7956564864031167e-13 -0.6087614290087957 0.7933533402911775
  outer loop
    vertex 2390.8483866630368 189.0305377266226 3.6691342951111148
    vertex 2392.8483866630363 188.75094357202082 3.454594154603251
    vertex 2392.8483866630363 189.0305377266226 3.6691342951104113
  endloop
endfacet
facet normal 2.7956564864031167e-13 -0.6087614290087957 0.7933533402911775
  outer loop
    vertex 2392.8483866630363 188.75094357202082 3.454594154603251
    vertex 2390.8483866630368 189.0305377266226 3.6691342951111148
    vertex 2390.8483866630368 188.75094357202082 3.4545941546039542
  endloop
endfacet
facet normal -1.5759126804813618e-13 -0.8944271909999162 -0.44721359549995743
  outer loop
    vertex 2364.3483866630395 217.20553772662262 11.000000000011454
    vertex 2374.848386663041 215.20553772662262 15.00000000000775
    vertex 2364.348386663041 215.20553772662262 15.000000000011452
  endloop
endfacet
facet normal -1.5759126804813618e-13 -0.8944271909999162 -0.44721359549995743
  outer loop
    vertex 2374.848386663041 215.20553772662262 15.00000000000775
    vertex 2364.3483866630395 217.20553772662262 11.000000000011454
    vertex 2374.8483866630395 217.20553772662262 11.000000000007754
  endloop
endfacet
facet normal 4.599544457601102e-14 0.991444861373807 0.13052619222007783
  outer loop
    vertex 2374.848386663036 191.05553772662262 2.5000000000077787
    vertex 2372.8483866630363 191.00953759211285 2.8494057108968818
    vertex 2374.848386663036 191.00953759211285 2.849405710896177
  endloop
endfacet
facet normal 4.599544457601102e-14 0.991444861373807 0.13052619222007783
  outer loop
    vertex 2372.8483866630363 191.00953759211285 2.8494057108968818
    vertex 2374.848386663036 191.05553772662262 2.5000000000077787
    vertex 2372.8483866630363 191.05553772662262 2.5000000000084834
  endloop
endfacet
facet normal 3.493700873047864e-13 0.13052619222004283 0.9914448613738116
  outer loop
    vertex 2372.8483866630363 190.054943437511 3.8039998654986933
    vertex 2374.8483866630363 189.70553772662265 3.8500000000077392
    vertex 2374.8483866630363 190.054943437511 3.803999865497988
  endloop
endfacet
facet normal 3.493700873047864e-13 0.13052619222004283 0.9914448613738116
  outer loop
    vertex 2374.8483866630363 189.70553772662265 3.8500000000077392
    vertex 2372.8483866630363 190.054943437511 3.8039998654986933
    vertex 2372.8483866630363 189.70553772662265 3.8500000000084444
  endloop
endfacet
facet normal 3.255610932163269e-13 -0.38268343236513735 0.9238795325112672
  outer loop
    vertex 2372.8483866630363 189.35613201573418 3.8039998654986804
    vertex 2374.8483866630363 189.0305377266226 3.669134295116721
    vertex 2374.8483866630363 189.35613201573418 3.8039998654979756
  endloop
endfacet
facet normal 3.255610932163269e-13 -0.38268343236513735 0.9238795325112672
  outer loop
    vertex 2374.8483866630363 189.0305377266226 3.669134295116721
    vertex 2372.8483866630363 189.35613201573418 3.8039998654986804
    vertex 2372.8483866630363 189.0305377266226 3.6691342951174257
  endloop
endfacet
facet normal -2.1451826711355285e-13 -0.7933533402912731 -0.6087614290086711
  outer loop
    vertex 2372.848386663036 188.75094357202082 1.5454058454066144
    vertex 2374.848386663036 188.53640343151372 1.825000000007743
    vertex 2372.848386663036 188.53640343151372 1.825000000008448
  endloop
endfacet
facet normal -2.1451826711355285e-13 -0.7933533402912731 -0.6087614290086711
  outer loop
    vertex 2374.848386663036 188.53640343151372 1.825000000007743
    vertex 2372.848386663036 188.75094357202082 1.5454058454066144
    vertex 2374.848386663036 188.75094357202082 1.5454058454059094
  endloop
endfacet
facet normal 2.1451826711355363e-13 0.7933533402912716 0.6087614290086731
  outer loop
    vertex 2374.848386663036 190.87467202173158 3.1750000000077687
    vertex 2372.8483866630363 190.66013188122446 3.4545941546103047
    vertex 2374.8483866630363 190.66013188122446 3.4545941546096
  endloop
endfacet
facet normal 2.1451826711355363e-13 0.7933533402912716 0.6087614290086731
  outer loop
    vertex 2372.8483866630363 190.66013188122446 3.4545941546103047
    vertex 2374.848386663036 190.87467202173158 3.1750000000077687
    vertex 2372.8483866630363 190.87467202173158 3.175000000008474
  endloop
endfacet
facet normal 0.0 1.0 0.0
  outer loop
    vertex 2403.998386663039 226.72187409094528 10.99999999999748
    vertex 2353.1983866630408 226.72187409094528 16.00000000001538
    vertex 2403.998386663041 226.72187409094528 15.999999999997478
  endloop
endfacet
facet normal 0.0 1.0 0.0
  outer loop
    vertex 2353.1983866630408 226.72187409094528 16.00000000001538
    vertex 2403.998386663039 226.72187409094528 10.99999999999748
    vertex 2353.198386663039 226.72187409094528 11.000000000015381
  endloop
endfacet
facet normal 1.0 0.0 -3.523847880160247e-13
  outer loop
    vertex 2382.348386663039 217.20553772662262 11.00000000000511
    vertex 2382.348386663041 187.2055377266226 16.00000000000511
    vertex 2382.348386663039 187.2055377266226 11.00000000000511
  endloop
endfacet
facet normal 1.0 0.0 -3.523847880160247e-13
  outer loop
    vertex 2382.348386663041 187.2055377266226 16.00000000000511
    vertex 2382.348386663039 217.20553772662262 11.00000000000511
    vertex 2382.3483866630404 215.20553772662262 15.00000000000511
  endloop
endfacet
facet normal 1.0 0.0 -3.523847880160247e-13
  outer loop
    vertex 2382.348386663041 215.20553772662262 16.00000000000511
    vertex 2382.348386663041 187.2055377266226 16.00000000000511
    vertex 2382.3483866630404 215.20553772662262 15.00000000000511
  endloop
endfacet
facet normal -1.0 0.0 3.523847880160247e-13
  outer loop
    vertex 2353.1983866630408 226.72187409094528 16.00000000001538
    vertex 2353.198386663039 175.9218740909453 11.000000000015381
    vertex 2353.1983866630408 175.9218740909453 16.00000000001538
  endloop
endfacet
facet normal -1.0 0.0 3.523847880160247e-13
  outer loop
    vertex 2353.198386663039 175.9218740909453 11.000000000015381
    vertex 2353.1983866630408 226.72187409094528 16.00000000001538
    vertex 2353.198386663039 226.72187409094528 11.000000000015381
  endloop
endfacet
facet normal -1.0 0.0 3.523847880160247e-13
  outer loop
    vertex 2372.8483866630363 188.40153786113245 2.849405710896834
    vertex 2372.848386663036 188.40153786113245 2.150594289120037
    vertex 2372.8483866630363 188.35553772662269 2.5000000000084355
  endloop
endfacet
facet normal -1.0 0.0 3.523847880160247e-13
  outer loop
    vertex 2372.848386663036 188.40153786113245 2.150594289120037
    vertex 2372.8483866630363 188.40153786113245 2.849405710896834
    vertex 2372.8483866630363 188.5364034315136 3.1750000000084313
  endloop
endfacet
facet normal -1.0 0.0 3.523847880160247e-13
  outer loop
    vertex 2372.848386663036 188.40153786113245 2.150594289120037
    vertex 2372.8483866630363 188.5364034315136 3.1750000000084313
    vertex 2372.848386663036 188.53640343151372 1.825000000008448
  endloop
endfacet
facet normal -1.0 0.0 3.523847880160247e-13
  outer loop
    vertex 2372.848386663036 188.53640343151372 1.825000000008448
    vertex 2372.8483866630363 188.5364034315136 3.1750000000084313
    vertex 2372.8483866630363 188.75094357202073 3.4545941546102696
  endloop
endfacet
facet normal -1.0 0.0 3.523847880160247e-13
  outer loop
    vertex 2372.848386663036 188.53640343151372 1.825000000008448
    vertex 2372.8483866630363 188.75094357202073 3.4545941546102696
    vertex 2372.848386663036 188.75094357202082 1.5454058454066144
  endloop
endfacet
facet normal -1.0 0.0 3.523847880160247e-13
  outer loop
    vertex 2372.848386663036 188.75094357202082 1.5454058454066144
    vertex 2372.8483866630363 188.75094357202073 3.4545941546102696
    vertex 2372.8483866630363 189.0305377266226 3.6691342951174257
  endloop
endfacet
facet normal -1.0 0.0 3.523847880160247e-13
  outer loop
    vertex 2372.848386663036 188.75094357202082 1.5454058454066144
    vertex 2372.8483866630363 189.0305377266226 3.6691342951174257
    vertex 2372.848386663036 189.0305377266226 1.3308657048994679
  endloop
endfacet
facet normal -1.0 0.0 3.523847880160247e-13
  outer loop
    vertex 2372.848386663036 189.0305377266226 1.3308657048994679
    vertex 2372.8483866630363 189.0305377266226 3.6691342951174257
    vertex 2372.8483866630363 189.35613201573418 3.8039998654986804
  endloop
endfacet
facet normal -1.0 0.0 3.523847880160247e-13
  outer loop
    vertex 2372.848386663036 189.0305377266226 1.3308657048994679
    vertex 2372.8483866630363 189.35613201573418 3.8039998654986804
    vertex 2372.848386663036 189.35613201573426 1.1960001345182243
  endloop
endfacet
facet normal -1.0 0.0 3.523847880160247e-13
  outer loop
    vertex 2372.848386663036 189.35613201573426 1.1960001345182243
    vertex 2372.8483866630363 189.35613201573418 3.8039998654986804
    vertex 2372.8483866630363 189.70553772662265 3.8500000000084444
  endloop
endfacet
facet normal -1.0 0.0 3.523847880160247e-13
  outer loop
    vertex 2372.848386663036 189.35613201573426 1.1960001345182243
    vertex 2372.8483866630363 189.70553772662265 3.8500000000084444
    vertex 2372.848386663036 189.70553772662265 1.1500000000084747
  endloop
endfacet
facet normal -1.0 0.0 3.523847880160247e-13
  outer loop
    vertex 2372.848386663036 189.70553772662265 1.1500000000084747
    vertex 2372.8483866630363 189.70553772662265 3.8500000000084444
    vertex 2372.8483866630363 190.054943437511 3.8039998654986933
  endloop
endfacet
facet normal -1.0 0.0 3.523847880160247e-13
  outer loop
    vertex 2372.848386663036 189.70553772662265 1.1500000000084747
    vertex 2372.8483866630363 190.054943437511 3.8039998654986933
    vertex 2372.848386663036 190.05494343751113 1.1960001345182356
  endloop
endfacet
facet normal -1.0 0.0 3.523847880160247e-13
  outer loop
    vertex 2372.848386663036 190.05494343751113 1.1960001345182356
    vertex 2372.8483866630363 190.054943437511 3.8039998654986933
    vertex 2372.8483866630363 190.38053772662266 3.6691342951174515
  endloop
endfacet
facet normal -1.0 0.0 3.523847880160247e-13
  outer loop
    vertex 2372.848386663036 190.05494343751113 1.1960001345182356
    vertex 2372.8483866630363 190.38053772662266 3.6691342951174515
    vertex 2372.848386663036 190.38053772662266 1.3308657048994903
  endloop
endfacet
facet normal -1.0 0.0 3.523847880160247e-13
  outer loop
    vertex 2372.848386663036 190.38053772662266 1.3308657048994903
    vertex 2372.8483866630363 190.38053772662266 3.6691342951174515
    vertex 2372.8483866630363 190.66013188122446 3.4545941546103047
  endloop
endfacet
facet normal -1.0 0.0 3.523847880160247e-13
  outer loop
    vertex 2372.848386663036 190.38053772662266 1.3308657048994903
    vertex 2372.8483866630363 190.66013188122446 3.4545941546103047
    vertex 2372.848386663036 190.66013188122446 1.5454058454066482
  endloop
endfacet
facet normal -1.0 0.0 3.523847880160247e-13
  outer loop
    vertex 2372.848386663036 190.66013188122446 1.5454058454066482
    vertex 2372.8483866630363 190.66013188122446 3.4545941546103047
    vertex 2372.8483866630363 190.87467202173158 3.175000000008474
  endloop
endfacet
facet normal -1.0 0.0 3.523847880160247e-13
  outer loop
    vertex 2372.848386663036 190.66013188122446 1.5454058454066482
    vertex 2372.8483866630363 190.87467202173158 3.175000000008474
    vertex 2372.848386663036 190.87467202173167 1.8250000000084876
  endloop
endfacet
facet normal -1.0 0.0 3.523847880160247e-13
  outer loop
    vertex 2372.848386663036 190.87467202173167 1.8250000000084876
    vertex 2372.8483866630363 190.87467202173158 3.175000000008474
    vertex 2372.8483866630363 191.00953759211285 2.8494057108968818
  endloop
endfacet
facet normal -1.0 0.0 3.523847880160247e-13
  outer loop
    vertex 2372.848386663036 190.87467202173167 1.8250000000084876
    vertex 2372.8483866630363 191.00953759211285 2.8494057108968818
    vertex 2372.848386663036 191.00953759211285 2.1505942891200824
  endloop
endfacet
facet normal -1.0 0.0 3.523847880160247e-13
  outer loop
    vertex 2372.848386663036 191.00953759211285 2.1505942891200824
    vertex 2372.8483866630363 191.00953759211285 2.8494057108968818
    vertex 2372.8483866630363 191.05553772662262 2.5000000000084834
  endloop
endfacet
facet normal -3.493700873047888e-13 -0.13052619222003892 -0.991444861373812
  outer loop
    vertex 2372.848386663036 189.35613201573426 1.1960001345182243
    vertex 2374.8483866630354 189.70553772662265 1.1500000000077697
    vertex 2374.848386663036 189.35613201573426 1.1960001345175193
  endloop
endfacet
facet normal -3.493700873047888e-13 -0.13052619222003892 -0.991444861373812
  outer loop
    vertex 2374.8483866630354 189.70553772662265 1.1500000000077697
    vertex 2372.848386663036 189.35613201573426 1.1960001345182243
    vertex 2372.848386663036 189.70553772662265 1.1500000000084747
  endloop
endfacet
facet normal -3.190341967706691e-14 0.9958932064677035 -0.09053574604252243
  outer loop
    vertex 2378.848386663035 192.20553772662262 6.34492458573277e-12
    vertex 2374.8483866630395 193.20553772662265 11.000000000007754
    vertex 2380.8483866630395 193.20553772662265 11.00000000000564
  endloop
endfacet
facet normal -3.190341967706691e-14 0.9958932064677035 -0.09053574604252243
  outer loop
    vertex 2374.8483866630395 193.20553772662265 11.000000000007754
    vertex 2378.848386663035 192.20553772662262 6.34492458573277e-12
    vertex 2374.8483866630354 192.20553772662262 7.754907827006718e-12
  endloop
endfacet
facet normal 4.5995444576098625e-14 -0.9914448613737743 0.13052619222032644
  outer loop
    vertex 2390.8483866630363 188.3555377266226 2.500000000002096
    vertex 2392.848386663036 188.40153786113245 2.849405710889798
    vertex 2390.8483866630363 188.40153786113245 2.8494057108905033
  endloop
endfacet
facet normal 4.5995444576098625e-14 -0.9914448613737743 0.13052619222032644
  outer loop
    vertex 2392.848386663036 188.40153786113245 2.849405710889798
    vertex 2390.8483866630363 188.3555377266226 2.500000000002096
    vertex 2392.848386663036 188.3555377266226 2.5000000000013913
  endloop
endfacet
facet normal -1.3485182019114067e-13 0.9238795325113763 -0.3826834323648735
  outer loop
    vertex 2392.8483866630354 190.87467202173167 1.825000000001415
    vertex 2390.848386663036 191.00953759211285 2.150594289113726
    vertex 2392.8483866630354 191.00953759211285 2.150594289113021
  endloop
endfacet
facet normal -1.3485182019114067e-13 0.9238795325113763 -0.3826834323648735
  outer loop
    vertex 2390.848386663036 191.00953759211285 2.150594289113726
    vertex 2392.8483866630354 190.87467202173167 1.825000000001415
    vertex 2390.848386663036 190.87467202173167 1.82500000000212
  endloop
endfacet
facet normal -3.493700873047878e-13 0.13052619222003722 -0.9914448613738123
  outer loop
    vertex 2372.848386663036 189.70553772662265 1.1500000000084747
    vertex 2374.848386663036 190.05494343751113 1.1960001345175306
    vertex 2374.8483866630354 189.70553772662265 1.1500000000077697
  endloop
endfacet
facet normal -3.493700873047878e-13 0.13052619222003722 -0.9914448613738123
  outer loop
    vertex 2374.848386663036 190.05494343751113 1.1960001345175306
    vertex 2372.848386663036 189.70553772662265 1.1500000000084747
    vertex 2372.848386663036 190.05494343751113 1.1960001345182356
  endloop
endfacet
facet normal -0.0 -1.0 0.0
  outer loop
    vertex 2382.3483866630404 215.20553772662262 15.00000000000511
    vertex 2392.848386663041 215.20553772662262 16.00000000000141
    vertex 2382.348386663041 215.20553772662262 16.00000000000511
  endloop
endfacet
facet normal -0.0 -1.0 0.0
  outer loop
    vertex 2392.848386663041 215.20553772662262 16.00000000000141
    vertex 2382.3483866630404 215.20553772662262 15.00000000000511
    vertex 2392.8483866630404 215.20553772662262 15.00000000000141
  endloop
endfacet
facet normal 3.493700873047875e-13 -0.13052619222004513 0.9914448613738114
  outer loop
    vertex 2372.8483866630363 189.70553772662265 3.8500000000084444
    vertex 2374.8483866630363 189.35613201573418 3.8039998654979756
    vertex 2374.8483866630363 189.70553772662265 3.8500000000077392
  endloop
endfacet
facet normal 3.493700873047875e-13 -0.13052619222004513 0.9914448613738114
  outer loop
    vertex 2374.8483866630363 189.35613201573418 3.8039998654979756
    vertex 2372.8483866630363 189.70553772662265 3.8500000000084444
    vertex 2372.8483866630363 189.35613201573418 3.8039998654986804
  endloop
endfacet
facet normal -1.3485182019114463e-13 0.9238795325113717 -0.3826834323648848
  outer loop
    vertex 2374.848386663036 190.87467202173167 1.8250000000077826
    vertex 2372.848386663036 191.00953759211285 2.1505942891200824
    vertex 2374.848386663036 191.00953759211285 2.1505942891193772
  endloop
endfacet
facet normal -1.3485182019114463e-13 0.9238795325113717 -0.3826834323648848
  outer loop
    vertex 2372.848386663036 191.00953759211285 2.1505942891200824
    vertex 2374.848386663036 190.87467202173167 1.8250000000077826
    vertex 2372.848386663036 190.87467202173167 1.8250000000084876
  endloop
endfacet
facet normal 0.0 1.0 0.0
  outer loop
    vertex 2392.848386663039 187.2055377266226 11.00000000000141
    vertex 2382.348386663041 187.2055377266226 16.00000000000511
    vertex 2392.848386663041 187.2055377266226 16.00000000000141
  endloop
endfacet
facet normal 0.0 1.0 0.0
  outer loop
    vertex 2382.348386663041 187.2055377266226 16.00000000000511
    vertex 2392.848386663039 187.2055377266226 11.00000000000141
    vertex 2382.348386663039 187.2055377266226 11.00000000000511
  endloop
endfacet
facet normal 2.795656486403185e-13 0.6087614290087706 0.7933533402911969
  outer loop
    vertex 2372.8483866630363 190.66013188122446 3.4545941546103047
    vertex 2374.8483866630363 190.38053772662266 3.6691342951167463
    vertex 2374.8483866630363 190.66013188122446 3.4545941546096
  endloop
endfacet
facet normal 2.795656486403185e-13 0.6087614290087706 0.7933533402911969
  outer loop
    vertex 2374.8483866630363 190.38053772662266 3.6691342951167463
    vertex 2372.8483866630363 190.66013188122446 3.4545941546103047
    vertex 2372.8483866630363 190.38053772662266 3.6691342951174515
  endloop
endfacet
facet normal -3.255610932163269e-13 0.38268343236513735 -0.9238795325112672
  outer loop
    vertex 2390.848386663036 190.05494343751113 1.1960001345118598
    vertex 2392.8483866630354 190.38053772662266 1.3308657048924095
    vertex 2392.8483866630354 190.05494343751113 1.1960001345111548
  endloop
endfacet
facet normal -3.255610932163269e-13 0.38268343236513735 -0.9238795325112672
  outer loop
    vertex 2392.8483866630354 190.38053772662266 1.3308657048924095
    vertex 2390.848386663036 190.05494343751113 1.1960001345118598
    vertex 2390.848386663036 190.38053772662266 1.3308657048931145
  endloop
endfacet
facet normal 4.599544457600993e-14 0.9914448613738075 0.13052619222007475
  outer loop
    vertex 2392.848386663036 191.0555377266227 2.5000000000014277
    vertex 2390.8483866630363 191.00953759211293 2.8494057108905397
    vertex 2392.848386663036 191.00953759211293 2.849405710889835
  endloop
endfacet
facet normal 4.599544457600993e-14 0.9914448613738075 0.13052619222007475
  outer loop
    vertex 2390.8483866630363 191.00953759211293 2.8494057108905397
    vertex 2392.848386663036 191.0555377266227 2.5000000000014277
    vertex 2390.8483866630363 191.0555377266227 2.500000000002133
  endloop
endfacet
facet normal 2.1451826711360283e-13 -0.7933533402911642 0.608761429008813
  outer loop
    vertex 2390.8483866630363 188.5364034315136 3.175000000002106
    vertex 2392.8483866630363 188.75094357202082 3.454594154603251
    vertex 2390.8483866630368 188.75094357202082 3.4545941546039542
  endloop
endfacet
facet normal 2.1451826711360283e-13 -0.7933533402911642 0.608761429008813
  outer loop
    vertex 2392.8483866630363 188.75094357202082 3.454594154603251
    vertex 2390.8483866630363 188.5364034315136 3.175000000002106
    vertex 2392.848386663036 188.5364034315136 3.1750000000014014
  endloop
endfacet
facet normal -1.0 0.0 3.523847880160247e-13
  outer loop
    vertex 2392.848386663041 215.20553772662262 16.00000000000141
    vertex 2392.848386663039 187.2055377266226 11.00000000000141
    vertex 2392.848386663041 187.2055377266226 16.00000000000141
  endloop
endfacet
facet normal -1.0 0.0 3.523847880160247e-13
  outer loop
    vertex 2392.848386663039 187.2055377266226 11.00000000000141
    vertex 2392.848386663041 215.20553772662262 16.00000000000141
    vertex 2392.848386663039 193.20553772662265 11.00000000000141
  endloop
endfacet
facet normal -1.0 0.0 3.523847880160247e-13
  outer loop
    vertex 2392.848386663039 187.2055377266226 11.00000000000141
    vertex 2392.848386663039 193.20553772662265 11.00000000000141
    vertex 2392.848386663036 188.5364034315136 3.1750000000014014
  endloop
endfacet
facet normal -1.0 0.0 3.523847880160247e-13
  outer loop
    vertex 2392.848386663039 187.2055377266226 11.00000000000141
    vertex 2392.848386663036 188.5364034315136 3.1750000000014014
    vertex 2392.8483866630354 187.2055377266226 1.4099832412739488e-12
  endloop
endfacet
facet normal -1.0 0.0 3.523847880160247e-13
  outer loop
    vertex 2392.8483866630354 187.2055377266226 1.4099832412739488e-12
    vertex 2392.848386663036 188.5364034315136 3.1750000000014014
    vertex 2392.848386663036 188.40153786113245 2.849405710889798
  endloop
endfacet
facet normal -1.0 0.0 3.523847880160247e-13
  outer loop
    vertex 2392.8483866630354 187.2055377266226 1.4099832412739488e-12
    vertex 2392.848386663036 188.40153786113245 2.849405710889798
    vertex 2392.848386663036 188.3555377266226 2.5000000000013913
  endloop
endfacet
facet normal -1.0 0.0 3.523847880160247e-13
  outer loop
    vertex 2392.848386663036 188.5364034315136 3.1750000000014014
    vertex 2392.848386663039 193.20553772662265 11.00000000000141
    vertex 2392.8483866630363 188.75094357202082 3.454594154603251
  endloop
endfacet
facet normal -1.0 0.0 3.523847880160247e-13
  outer loop
    vertex 2392.8483866630363 188.75094357202082 3.454594154603251
    vertex 2392.848386663039 193.20553772662265 11.00000000000141
    vertex 2392.8483866630363 189.0305377266226 3.6691342951104113
  endloop
endfacet
facet normal -1.0 0.0 3.523847880160247e-13
  outer loop
    vertex 2392.8483866630363 189.0305377266226 3.6691342951104113
    vertex 2392.848386663039 193.20553772662265 11.00000000000141
    vertex 2392.8483866630363 189.35613201573418 3.8039998654916674
  endloop
endfacet
facet normal -1.0 0.0 3.523847880160247e-13
  outer loop
    vertex 2392.8483866630363 189.35613201573418 3.8039998654916674
    vertex 2392.848386663039 193.20553772662265 11.00000000000141
    vertex 2392.8483866630363 189.70553772662257 3.8500000000014327
  endloop
endfacet
facet normal -1.0 0.0 3.523847880160247e-13
  outer loop
    vertex 2392.8483866630363 189.70553772662257 3.8500000000014327
    vertex 2392.848386663039 193.20553772662265 11.00000000000141
    vertex 2392.8483866630363 190.054943437511 3.803999865491677
  endloop
endfacet
facet normal -1.0 0.0 3.523847880160247e-13
  outer loop
    vertex 2392.8483866630363 190.054943437511 3.803999865491677
    vertex 2392.848386663039 193.20553772662265 11.00000000000141
    vertex 2392.8483866630363 190.38053772662266 3.6691342951104295
  endloop
endfacet
facet normal -1.0 0.0 3.523847880160247e-13
  outer loop
    vertex 2392.8483866630363 190.38053772662266 3.6691342951104295
    vertex 2392.848386663039 193.20553772662265 11.00000000000141
    vertex 2392.8483866630363 190.66013188122446 3.454594154603279
  endloop
endfacet
facet normal -1.0 0.0 3.523847880160247e-13
  outer loop
    vertex 2392.8483866630363 190.66013188122446 3.454594154603279
    vertex 2392.848386663039 193.20553772662265 11.00000000000141
    vertex 2392.848386663036 190.87467202173167 3.175000000001435
  endloop
endfacet
facet normal -1.0 0.0 3.523847880160247e-13
  outer loop
    vertex 2392.848386663036 190.87467202173167 3.175000000001435
    vertex 2392.848386663039 193.20553772662265 11.00000000000141
    vertex 2392.848386663036 191.00953759211293 2.849405710889835
  endloop
endfacet
facet normal -1.0 0.0 3.523847880160247e-13
  outer loop
    vertex 2392.848386663036 191.00953759211293 2.849405710889835
    vertex 2392.848386663039 193.20553772662265 11.00000000000141
    vertex 2392.848386663036 191.0555377266227 2.5000000000014277
  endloop
endfacet
facet normal -1.0 0.0 3.523847880160247e-13
  outer loop
    vertex 2392.848386663036 191.0555377266227 2.5000000000014277
    vertex 2392.848386663039 193.20553772662265 11.00000000000141
    vertex 2392.8483866630354 192.20553772662262 1.4099832412739488e-12
  endloop
endfacet
facet normal -1.0 0.0 3.523847880160247e-13
  outer loop
    vertex 2392.848386663039 193.20553772662265 11.00000000000141
    vertex 2392.848386663041 215.20553772662262 16.00000000000141
    vertex 2392.8483866630404 215.20553772662262 15.00000000000141
  endloop
endfacet
facet normal -1.0 0.0 3.523847880160247e-13
  outer loop
    vertex 2392.848386663039 193.20553772662265 11.00000000000141
    vertex 2392.8483866630404 215.20553772662262 15.00000000000141
    vertex 2392.848386663039 217.20553772662262 11.00000000000141
  endloop
endfacet
facet normal -1.0 0.0 3.523847880160247e-13
  outer loop
    vertex 2392.8483866630354 187.2055377266226 1.4099832412739488e-12
    vertex 2392.8483866630354 189.0305377266226 1.3308657048923898
    vertex 2392.8483866630354 192.20553772662262 1.4099832412739488e-12
  endloop
endfacet
facet normal -1.0 0.0 3.523847880160247e-13
  outer loop
    vertex 2392.8483866630354 189.0305377266226 1.3308657048923898
    vertex 2392.8483866630354 187.2055377266226 1.4099832412739488e-12
    vertex 2392.8483866630354 188.75094357202082 1.5454058453995447
  endloop
endfacet
facet normal -1.0 0.0 3.523847880160247e-13
  outer loop
    vertex 2392.8483866630354 188.75094357202082 1.5454058453995447
    vertex 2392.8483866630354 187.2055377266226 1.4099832412739488e-12
    vertex 2392.8483866630354 188.5364034315136 1.8250000000013813
  endloop
endfacet
facet normal -1.0 0.0 3.523847880160247e-13
  outer loop
    vertex 2392.8483866630354 188.5364034315136 1.8250000000013813
    vertex 2392.8483866630354 187.2055377266226 1.4099832412739488e-12
    vertex 2392.8483866630354 188.40153786113237 2.1505942891129814
  endloop
endfacet
facet normal -1.0 0.0 3.523847880160247e-13
  outer loop
    vertex 2392.8483866630354 188.40153786113237 2.1505942891129814
    vertex 2392.8483866630354 187.2055377266226 1.4099832412739488e-12
    vertex 2392.848386663036 188.3555377266226 2.5000000000013913
  endloop
endfacet
facet normal -1.0 0.0 3.523847880160247e-13
  outer loop
    vertex 2392.8483866630354 192.20553772662262 1.4099832412739488e-12
    vertex 2392.8483866630354 189.0305377266226 1.3308657048923898
    vertex 2392.8483866630354 189.35613201573426 1.1960001345111435
  endloop
endfacet
facet normal -1.0 0.0 3.523847880160247e-13
  outer loop
    vertex 2392.8483866630354 192.20553772662262 1.4099832412739488e-12
    vertex 2392.8483866630354 189.35613201573426 1.1960001345111435
    vertex 2392.8483866630354 189.70553772662274 1.1500000000013881
  endloop
endfacet
facet normal -1.0 0.0 3.523847880160247e-13
  outer loop
    vertex 2392.8483866630354 192.20553772662262 1.4099832412739488e-12
    vertex 2392.8483866630354 189.70553772662274 1.1500000000013881
    vertex 2392.8483866630354 190.05494343751113 1.1960001345111548
  endloop
endfacet
facet normal -1.0 0.0 3.523847880160247e-13
  outer loop
    vertex 2392.8483866630354 192.20553772662262 1.4099832412739488e-12
    vertex 2392.8483866630354 190.05494343751113 1.1960001345111548
    vertex 2392.8483866630354 190.38053772662266 1.3308657048924095
  endloop
endfacet
facet normal -1.0 0.0 3.523847880160247e-13
  outer loop
    vertex 2392.8483866630354 192.20553772662262 1.4099832412739488e-12
    vertex 2392.8483866630354 190.38053772662266 1.3308657048924095
    vertex 2392.8483866630354 190.66013188122446 1.54540584539957
  endloop
endfacet
facet normal -1.0 0.0 3.523847880160247e-13
  outer loop
    vertex 2392.8483866630354 192.20553772662262 1.4099832412739488e-12
    vertex 2392.8483866630354 190.66013188122446 1.54540584539957
    vertex 2392.8483866630354 190.87467202173167 1.825000000001415
  endloop
endfacet
facet normal -1.0 0.0 3.523847880160247e-13
  outer loop
    vertex 2392.8483866630354 192.20553772662262 1.4099832412739488e-12
    vertex 2392.8483866630354 190.87467202173167 1.825000000001415
    vertex 2392.8483866630354 191.00953759211285 2.150594289113021
  endloop
endfacet
facet normal -1.0 0.0 3.523847880160247e-13
  outer loop
    vertex 2392.8483866630354 192.20553772662262 1.4099832412739488e-12
    vertex 2392.8483866630354 191.00953759211285 2.150594289113021
    vertex 2392.848386663036 191.0555377266227 2.5000000000014277
  endloop
endfacet
facet normal -1.0 0.0 3.523847880160247e-13
  outer loop
    vertex 2392.8483866630354 187.2055377266226 1.4099832412739488e-12
    vertex 2392.848386663039 186.20553772662254 11.00000000000141
    vertex 2392.848386663039 187.2055377266226 11.00000000000141
  endloop
endfacet
facet normal -3.2556109321634093e-13 -0.38268343236501945 -0.9238795325113159
  outer loop
    vertex 2372.848386663036 189.0305377266226 1.3308657048994679
    vertex 2374.848386663036 189.35613201573426 1.1960001345175193
    vertex 2374.848386663036 189.0305377266226 1.3308657048987629
  endloop
endfacet
facet normal -3.2556109321634093e-13 -0.38268343236501945 -0.9238795325113159
  outer loop
    vertex 2374.848386663036 189.35613201573426 1.1960001345175193
    vertex 2372.848386663036 189.0305377266226 1.3308657048994679
    vertex 2372.848386663036 189.35613201573426 1.1960001345182243
  endloop
endfacet
facet normal 0.0 -1.0 0.0
  outer loop
    vertex 2353.198386663039 175.9218740909453 11.000000000015381
    vertex 2403.998386663041 175.9218740909453 15.999999999997478
    vertex 2353.1983866630408 175.9218740909453 16.00000000001538
  endloop
endfacet
facet normal 0.0 -1.0 0.0
  outer loop
    vertex 2403.998386663041 175.9218740909453 15.999999999997478
    vertex 2353.198386663039 175.9218740909453 11.000000000015381
    vertex 2403.998386663039 175.9218740909453 10.99999999999748
  endloop
endfacet
facet normal -3.493700873047886e-13 -0.13052619222002151 -0.9914448613738145
  outer loop
    vertex 2390.848386663036 189.35613201573426 1.1960001345118485
    vertex 2392.8483866630354 189.70553772662274 1.1500000000013881
    vertex 2392.8483866630354 189.35613201573426 1.1960001345111435
  endloop
endfacet
facet normal -3.493700873047886e-13 -0.13052619222002151 -0.9914448613738145
  outer loop
    vertex 2392.8483866630354 189.70553772662274 1.1500000000013881
    vertex 2390.848386663036 189.35613201573426 1.1960001345118485
    vertex 2390.848386663036 189.70553772662274 1.1500000000020931
  endloop
endfacet
facet normal 3.2556109321632634e-13 -0.38268343236514074 0.9238795325112656
  outer loop
    vertex 2390.8483866630368 189.35613201573418 3.803999865492371
    vertex 2392.8483866630363 189.0305377266226 3.6691342951104113
    vertex 2392.8483866630363 189.35613201573418 3.8039998654916674
  endloop
endfacet
facet normal 3.2556109321632634e-13 -0.38268343236514074 0.9238795325112656
  outer loop
    vertex 2392.8483866630363 189.0305377266226 3.6691342951104113
    vertex 2390.8483866630368 189.35613201573418 3.803999865492371
    vertex 2390.8483866630368 189.0305377266226 3.6691342951111148
  endloop
endfacet
facet normal -3.523847880160247e-13 0.0 -1.0
  outer loop
    vertex 2403.998386663039 175.9218740909453 10.99999999999748
    vertex 2398.848386663039 186.20553772662254 10.999999999999297
    vertex 2403.998386663039 226.72187409094528 10.99999999999748
  endloop
endfacet
facet normal -3.523847880160247e-13 0.0 -1.0
  outer loop
    vertex 2398.848386663039 186.20553772662254 10.999999999999297
    vertex 2403.998386663039 175.9218740909453 10.99999999999748
    vertex 2353.198386663039 175.9218740909453 11.000000000015381
  endloop
endfacet
facet normal -3.523847880160247e-13 0.0 -1.0
  outer loop
    vertex 2398.848386663039 186.20553772662254 10.999999999999297
    vertex 2353.198386663039 175.9218740909453 11.000000000015381
    vertex 2392.848386663039 186.20553772662254 11.00000000000141
  endloop
endfacet
facet normal -3.523847880160247e-13 0.0 -1.0
  outer loop
    vertex 2392.848386663039 186.20553772662254 11.00000000000141
    vertex 2353.198386663039 175.9218740909453 11.000000000015381
    vertex 2392.848386663039 187.2055377266226 11.00000000000141
  endloop
endfacet
facet normal -3.523847880160247e-13 0.0 -1.0
  outer loop
    vertex 2392.848386663039 187.2055377266226 11.00000000000141
    vertex 2353.198386663039 175.9218740909453 11.000000000015381
    vertex 2380.8483866630395 186.20553772662254 11.00000000000564
  endloop
endfacet
facet normal -3.523847880160247e-13 0.0 -1.0
  outer loop
    vertex 2392.848386663039 187.2055377266226 11.00000000000141
    vertex 2380.8483866630395 186.20553772662254 11.00000000000564
    vertex 2382.348386663039 187.2055377266226 11.00000000000511
  endloop
endfacet
facet normal -3.523847880160247e-13 0.0 -1.0
  outer loop
    vertex 2382.348386663039 187.2055377266226 11.00000000000511
    vertex 2380.8483866630395 186.20553772662254 11.00000000000564
    vertex 2382.348386663039 217.20553772662262 11.00000000000511
  endloop
endfacet
facet normal -3.523847880160247e-13 0.0 -1.0
  outer loop
    vertex 2380.8483866630395 186.20553772662254 11.00000000000564
    vertex 2353.198386663039 175.9218740909453 11.000000000015381
    vertex 2374.8483866630395 186.20553772662254 11.000000000007754
  endloop
endfacet
facet normal -3.523847880160247e-13 0.0 -1.0
  outer loop
    vertex 2374.8483866630395 186.20553772662254 11.000000000007754
    vertex 2353.198386663039 175.9218740909453 11.000000000015381
    vertex 2374.8483866630395 187.2055377266226 11.000000000007754
  endloop
endfacet
facet normal -3.523847880160247e-13 0.0 -1.0
  outer loop
    vertex 2374.8483866630395 187.2055377266226 11.000000000007754
    vertex 2353.198386663039 175.9218740909453 11.000000000015381
    vertex 2364.3483866630395 187.2055377266226 11.000000000011454
  endloop
endfacet
facet normal -3.523847880160247e-13 0.0 -1.0
  outer loop
    vertex 2364.3483866630395 187.2055377266226 11.000000000011454
    vertex 2353.198386663039 175.9218740909453 11.000000000015381
    vertex 2364.3483866630395 217.20553772662262 11.000000000011454
  endloop
endfacet
facet normal -3.523847880160247e-13 0.0 -1.0
  outer loop
    vertex 2403.998386663039 226.72187409094528 10.99999999999748
    vertex 2392.848386663039 217.20553772662262 11.00000000000141
    vertex 2353.198386663039 226.72187409094528 11.000000000015381
  endloop
endfacet
facet normal -3.523847880160247e-13 0.0 -1.0
  outer loop
    vertex 2392.848386663039 217.20553772662262 11.00000000000141
    vertex 2403.998386663039 226.72187409094528 10.99999999999748
    vertex 2398.848386663039 193.20553772662265 10.999999999999297
  endloop
endfacet
facet normal -3.523847880160247e-13 0.0 -1.0
  outer loop
    vertex 2398.848386663039 193.20553772662265 10.999999999999297
    vertex 2403.998386663039 226.72187409094528 10.99999999999748
    vertex 2398.848386663039 186.20553772662254 10.999999999999297
  endloop
endfacet
facet normal -3.523847880160247e-13 0.0 -1.0
  outer loop
    vertex 2392.848386663039 217.20553772662262 11.00000000000141
    vertex 2398.848386663039 193.20553772662265 10.999999999999297
    vertex 2392.848386663039 193.20553772662265 11.00000000000141
  endloop
endfacet
facet normal -3.523847880160247e-13 0.0 -1.0
  outer loop
    vertex 2353.198386663039 226.72187409094528 11.000000000015381
    vertex 2392.848386663039 217.20553772662262 11.00000000000141
    vertex 2382.348386663039 217.20553772662262 11.00000000000511
  endloop
endfacet
facet normal -3.523847880160247e-13 0.0 -1.0
  outer loop
    vertex 2353.198386663039 226.72187409094528 11.000000000015381
    vertex 2382.348386663039 217.20553772662262 11.00000000000511
    vertex 2374.8483866630395 217.20553772662262 11.000000000007754
  endloop
endfacet
facet normal -3.523847880160247e-13 0.0 -1.0
  outer loop
    vertex 2374.8483866630395 217.20553772662262 11.000000000007754
    vertex 2382.348386663039 217.20553772662262 11.00000000000511
    vertex 2380.8483866630395 193.20553772662265 11.00000000000564
  endloop
endfacet
facet normal -3.523847880160247e-13 0.0 -1.0
  outer loop
    vertex 2380.8483866630395 193.20553772662265 11.00000000000564
    vertex 2382.348386663039 217.20553772662262 11.00000000000511
    vertex 2380.8483866630395 186.20553772662254 11.00000000000564
  endloop
endfacet
facet normal -3.523847880160247e-13 0.0 -1.0
  outer loop
    vertex 2374.8483866630395 217.20553772662262 11.000000000007754
    vertex 2380.8483866630395 193.20553772662265 11.00000000000564
    vertex 2374.8483866630395 193.20553772662265 11.000000000007754
  endloop
endfacet
facet normal -3.523847880160247e-13 0.0 -1.0
  outer loop
    vertex 2353.198386663039 226.72187409094528 11.000000000015381
    vertex 2374.8483866630395 217.20553772662262 11.000000000007754
    vertex 2364.3483866630395 217.20553772662262 11.000000000011454
  endloop
endfacet
facet normal -3.523847880160247e-13 0.0 -1.0
  outer loop
    vertex 2353.198386663039 226.72187409094528 11.000000000015381
    vertex 2364.3483866630395 217.20553772662262 11.000000000011454
    vertex 2353.198386663039 175.9218740909453 11.000000000015381
  endloop
endfacet
facet normal -2.795656486403129e-13 0.6087614290087908 -0.7933533402911814
  outer loop
    vertex 2372.848386663036 190.38053772662266 1.3308657048994903
    vertex 2374.848386663036 190.66013188122446 1.5454058454059432
    vertex 2374.848386663036 190.38053772662266 1.3308657048987853
  endloop
endfacet
facet normal -2.795656486403129e-13 0.6087614290087908 -0.7933533402911814
  outer loop
    vertex 2374.848386663036 190.66013188122446 1.5454058454059432
    vertex 2372.848386663036 190.38053772662266 1.3308657048994903
    vertex 2372.848386663036 190.66013188122446 1.5454058454066482
  endloop
endfacet
facet normal -1.575912680481364e-13 -0.8944271909999162 -0.44721359549995726
  outer loop
    vertex 2382.348386663039 217.20553772662262 11.00000000000511
    vertex 2392.8483866630404 215.20553772662262 15.00000000000141
    vertex 2382.3483866630404 215.20553772662262 15.00000000000511
  endloop
endfacet
facet normal -1.575912680481364e-13 -0.8944271909999162 -0.44721359549995726
  outer loop
    vertex 2392.8483866630404 215.20553772662262 15.00000000000141
    vertex 2382.348386663039 217.20553772662262 11.00000000000511
    vertex 2392.848386663039 217.20553772662262 11.00000000000141
  endloop
endfacet
facet normal 0.0 1.0 0.0
  outer loop
    vertex 2374.8483866630395 187.2055377266226 11.000000000007754
    vertex 2364.3483866630413 187.2055377266226 16.00000000001145
    vertex 2374.848386663041 187.2055377266226 16.000000000007752
  endloop
endfacet
facet normal 0.0 1.0 0.0
  outer loop
    vertex 2364.3483866630413 187.2055377266226 16.00000000001145
    vertex 2374.8483866630395 187.2055377266226 11.000000000007754
    vertex 2364.3483866630395 187.2055377266226 11.000000000011454
  endloop
endfacet
facet normal 0.9838699100998516 1.826184832193267e-17 -0.1788854382002905
  outer loop
    vertex 2396.8483866630354 187.2055377266226 0.0
    vertex 2398.848386663039 193.20553772662265 10.999999999999297
    vertex 2398.848386663039 186.20553772662254 10.999999999999297
  endloop
endfacet
facet normal 0.9838699100998516 1.826184832193267e-17 -0.1788854382002905
  outer loop
    vertex 2398.848386663039 193.20553772662265 10.999999999999297
    vertex 2396.8483866630354 187.2055377266226 0.0
    vertex 2396.8483866630354 192.20553772662262 0.0
  endloop
endfacet
facet normal 3.523847880160247e-13 0.0 1.0
  outer loop
    vertex 2403.998386663041 226.72187409094528 15.999999999997478
    vertex 2392.848386663041 215.20553772662262 16.00000000000141
    vertex 2403.998386663041 175.9218740909453 15.999999999997478
  endloop
endfacet
facet normal 3.523847880160247e-13 0.0 1.0
  outer loop
    vertex 2392.848386663041 215.20553772662262 16.00000000000141
    vertex 2403.998386663041 226.72187409094528 15.999999999997478
    vertex 2353.1983866630408 226.72187409094528 16.00000000001538
  endloop
endfacet
facet normal 3.523847880160247e-13 0.0 1.0
  outer loop
    vertex 2392.848386663041 215.20553772662262 16.00000000000141
    vertex 2353.1983866630408 226.72187409094528 16.00000000001538
    vertex 2382.348386663041 215.20553772662262 16.00000000000511
  endloop
endfacet
facet normal 3.523847880160247e-13 0.0 1.0
  outer loop
    vertex 2382.348386663041 215.20553772662262 16.00000000000511
    vertex 2353.1983866630408 226.72187409094528 16.00000000001538
    vertex 2374.848386663041 215.20553772662262 16.000000000007752
  endloop
endfacet
facet normal 3.523847880160247e-13 0.0 1.0
  outer loop
    vertex 2382.348386663041 215.20553772662262 16.00000000000511
    vertex 2374.848386663041 215.20553772662262 16.000000000007752
    vertex 2382.348386663041 187.2055377266226 16.00000000000511
  endloop
endfacet
facet normal 3.523847880160247e-13 0.0 1.0
  outer loop
    vertex 2374.848386663041 215.20553772662262 16.000000000007752
    vertex 2353.1983866630408 226.72187409094528 16.00000000001538
    vertex 2364.3483866630413 215.20553772662262 16.00000000001145
  endloop
endfacet
facet normal 3.523847880160247e-13 0.0 1.0
  outer loop
    vertex 2364.3483866630413 215.20553772662262 16.00000000001145
    vertex 2353.1983866630408 226.72187409094528 16.00000000001538
    vertex 2364.3483866630413 187.2055377266226 16.00000000001145
  endloop
endfacet
facet normal 3.523847880160247e-13 0.0 1.0
  outer loop
    vertex 2403.998386663041 175.9218740909453 15.999999999997478
    vertex 2392.848386663041 187.2055377266226 16.00000000000141
    vertex 2353.1983866630408 175.9218740909453 16.00000000001538
  endloop
endfacet
facet normal 3.523847880160247e-13 0.0 1.0
  outer loop
    vertex 2392.848386663041 187.2055377266226 16.00000000000141
    vertex 2403.998386663041 175.9218740909453 15.999999999997478
    vertex 2392.848386663041 215.20553772662262 16.00000000000141
  endloop
endfacet
facet normal 3.523847880160247e-13 0.0 1.0
  outer loop
    vertex 2353.1983866630408 175.9218740909453 16.00000000001538
    vertex 2392.848386663041 187.2055377266226 16.00000000000141
    vertex 2382.348386663041 187.2055377266226 16.00000000000511
  endloop
endfacet
facet normal 3.523847880160247e-13 0.0 1.0
  outer loop
    vertex 2353.1983866630408 175.9218740909453 16.00000000001538
    vertex 2382.348386663041 187.2055377266226 16.00000000000511
    vertex 2374.848386663041 187.2055377266226 16.000000000007752
  endloop
endfacet
facet normal 3.523847880160247e-13 0.0 1.0
  outer loop
    vertex 2374.848386663041 187.2055377266226 16.000000000007752
    vertex 2382.348386663041 187.2055377266226 16.00000000000511
    vertex 2374.848386663041 215.20553772662262 16.000000000007752
  endloop
endfacet
facet normal 3.523847880160247e-13 0.0 1.0
  outer loop
    vertex 2353.1983866630408 175.9218740909453 16.00000000001538
    vertex 2374.848386663041 187.2055377266226 16.000000000007752
    vertex 2364.3483866630413 187.2055377266226 16.00000000001145
  endloop
endfacet
facet normal 3.523847880160247e-13 0.0 1.0
  outer loop
    vertex 2353.1983866630408 175.9218740909453 16.00000000001538
    vertex 2364.3483866630413 187.2055377266226 16.00000000001145
    vertex 2353.1983866630408 226.72187409094528 16.00000000001538
  endloop
endfacet
facet normal -2.7956564864031445e-13 -0.6087614290087857 -0.7933533402911854
  outer loop
    vertex 2390.848386663036 188.75094357202082 1.5454058454002497
    vertex 2392.8483866630354 189.0305377266226 1.3308657048923898
    vertex 2392.8483866630354 188.75094357202082 1.5454058453995447
  endloop
endfacet
facet normal -2.7956564864031445e-13 -0.6087614290087857 -0.7933533402911854
  outer loop
    vertex 2392.8483866630354 189.0305377266226 1.3308657048923898
    vertex 2390.848386663036 188.75094357202082 1.5454058454002497
    vertex 2390.848386663036 189.0305377266226 1.3308657048930947
  endloop
endfacet
facet normal -4.599544457601102e-14 -0.991444861373807 -0.13052619222007783
  outer loop
    vertex 2372.848386663036 188.40153786113245 2.150594289120037
    vertex 2374.848386663036 188.35553772662269 2.5000000000077307
    vertex 2372.8483866630363 188.35553772662269 2.5000000000084355
  endloop
endfacet
facet normal -4.599544457601102e-14 -0.991444861373807 -0.13052619222007783
  outer loop
    vertex 2374.848386663036 188.35553772662269 2.5000000000077307
    vertex 2372.848386663036 188.40153786113245 2.150594289120037
    vertex 2374.848386663036 188.40153786113245 2.1505942891193324
  endloop
endfacet
facet normal -3.523847880160247e-13 0.0 -1.0
  outer loop
    vertex 2374.8483866630354 187.2055377266226 7.754907827006718e-12
    vertex 2378.848386663035 192.20553772662262 6.34492458573277e-12
    vertex 2378.848386663035 187.2055377266226 6.34492458573277e-12
  endloop
endfacet
facet normal -3.523847880160247e-13 0.0 -1.0
  outer loop
    vertex 2378.848386663035 192.20553772662262 6.34492458573277e-12
    vertex 2374.8483866630354 187.2055377266226 7.754907827006718e-12
    vertex 2374.8483866630354 192.20553772662262 7.754907827006718e-12
  endloop
endfacet
facet normal -1.3485182019121963e-13 -0.9238795325112835 -0.3826834323650976
  outer loop
    vertex 2390.848386663036 188.5364034315136 1.8250000000020863
    vertex 2392.8483866630354 188.40153786113237 2.1505942891129814
    vertex 2390.848386663036 188.40153786113237 2.1505942891136867
  endloop
endfacet
facet normal -1.3485182019121963e-13 -0.9238795325112835 -0.3826834323650976
  outer loop
    vertex 2392.8483866630354 188.40153786113237 2.1505942891129814
    vertex 2390.848386663036 188.5364034315136 1.8250000000020863
    vertex 2392.8483866630354 188.5364034315136 1.8250000000013813
  endloop
endfacet
facet normal 1.3485182019123029e-13 0.9238795325112801 0.3826834323651062
  outer loop
    vertex 2374.848386663036 191.00953759211285 2.849405710896177
    vertex 2372.8483866630363 190.87467202173158 3.175000000008474
    vertex 2374.848386663036 190.87467202173158 3.1750000000077687
  endloop
endfacet
facet normal 1.3485182019123029e-13 0.9238795325112801 0.3826834323651062
  outer loop
    vertex 2372.8483866630363 190.87467202173158 3.175000000008474
    vertex 2374.848386663036 191.00953759211285 2.849405710896177
    vertex 2372.8483866630363 191.00953759211285 2.8494057108968818
  endloop
endfacet
facet normal -2.7956564864031167e-13 0.6087614290087957 -0.7933533402911775
  outer loop
    vertex 2390.848386663036 190.38053772662266 1.3308657048931145
    vertex 2392.8483866630354 190.66013188122446 1.54540584539957
    vertex 2392.8483866630354 190.38053772662266 1.3308657048924095
  endloop
endfacet
facet normal -2.7956564864031167e-13 0.6087614290087957 -0.7933533402911775
  outer loop
    vertex 2392.8483866630354 190.66013188122446 1.54540584539957
    vertex 2390.848386663036 190.38053772662266 1.3308657048931145
    vertex 2390.848386663036 190.66013188122446 1.545405845400275
  endloop
endfacet
facet normal -3.523847880160247e-13 0.0 -1.0
  outer loop
    vertex 2392.8483866630354 187.2055377266226 1.4099832412739488e-12
    vertex 2396.8483866630354 192.20553772662262 0.0
    vertex 2396.8483866630354 187.2055377266226 0.0
  endloop
endfacet
facet normal -3.523847880160247e-13 0.0 -1.0
  outer loop
    vertex 2396.8483866630354 192.20553772662262 0.0
    vertex 2392.8483866630354 187.2055377266226 1.4099832412739488e-12
    vertex 2392.8483866630354 192.20553772662262 1.4099832412739488e-12
  endloop
endfacet
facet normal 1.0 0.0 -3.523847880160247e-13
  outer loop
    vertex 2364.3483866630395 217.20553772662262 11.000000000011454
    vertex 2364.3483866630413 187.2055377266226 16.00000000001145
    vertex 2364.3483866630395 187.2055377266226 11.000000000011454
  endloop
endfacet
facet normal 1.0 0.0 -3.523847880160247e-13
  outer loop
    vertex 2364.3483866630413 187.2055377266226 16.00000000001145
    vertex 2364.3483866630395 217.20553772662262 11.000000000011454
    vertex 2364.348386663041 215.20553772662262 15.000000000011452
  endloop
endfacet
facet normal 1.0 0.0 -3.523847880160247e-13
  outer loop
    vertex 2364.3483866630413 215.20553772662262 16.00000000001145
    vertex 2364.3483866630413 187.2055377266226 16.00000000001145
    vertex 2364.348386663041 215.20553772662262 15.000000000011452
  endloop
endfacet
facet normal 2.1451826711355015e-13 -0.7933533402912791 0.6087614290086635
  outer loop
    vertex 2372.8483866630363 188.5364034315136 3.1750000000084313
    vertex 2374.8483866630363 188.75094357202073 3.4545941546095644
    vertex 2372.8483866630363 188.75094357202073 3.4545941546102696
  endloop
endfacet
facet normal 2.1451826711355015e-13 -0.7933533402912791 0.6087614290086635
  outer loop
    vertex 2374.8483866630363 188.75094357202073 3.4545941546095644
    vertex 2372.8483866630363 188.5364034315136 3.1750000000084313
    vertex 2374.848386663036 188.5364034315136 3.1750000000077265
  endloop
endfacet
facet normal -3.493700873047856e-13 0.13052619222008613 -0.9914448613738059
  outer loop
    vertex 2390.848386663036 189.70553772662274 1.1500000000020931
    vertex 2392.8483866630354 190.05494343751113 1.1960001345111548
    vertex 2392.8483866630354 189.70553772662274 1.1500000000013881
  endloop
endfacet
facet normal -3.493700873047856e-13 0.13052619222008613 -0.9914448613738059
  outer loop
    vertex 2392.8483866630354 190.05494343751113 1.1960001345111548
    vertex 2390.848386663036 189.70553772662274 1.1500000000020931
    vertex 2390.848386663036 190.05494343751113 1.1960001345118598
  endloop
endfacet
facet normal 4.599544457601102e-14 -0.991444861373807 0.13052619222007783
  outer loop
    vertex 2372.8483866630363 188.35553772662269 2.5000000000084355
    vertex 2374.848386663036 188.40153786113245 2.849405710896129
    vertex 2372.8483866630363 188.40153786113245 2.849405710896834
  endloop
endfacet
facet normal 4.599544457601102e-14 -0.991444861373807 0.13052619222007783
  outer loop
    vertex 2374.848386663036 188.40153786113245 2.849405710896129
    vertex 2372.8483866630363 188.35553772662269 2.5000000000084355
    vertex 2374.848386663036 188.35553772662269 2.5000000000077307
  endloop
endfacet
facet normal 3.493700873047886e-13 0.13052619222002151 0.9914448613738145
  outer loop
    vertex 2390.8483866630368 190.054943437511 3.803999865492381
    vertex 2392.8483866630363 189.70553772662257 3.8500000000014327
    vertex 2392.8483866630363 190.054943437511 3.803999865491677
  endloop
endfacet
facet normal 3.493700873047886e-13 0.13052619222002151 0.9914448613738145
  outer loop
    vertex 2392.8483866630363 189.70553772662257 3.8500000000014327
    vertex 2390.8483866630368 190.054943437511 3.803999865492381
    vertex 2390.8483866630368 189.70553772662257 3.850000000002136
  endloop
endfacet
facet normal -4.599544457609861e-14 0.9914448613737743 -0.1305261922203264
  outer loop
    vertex 2392.8483866630354 191.00953759211285 2.150594289113021
    vertex 2390.8483866630363 191.0555377266227 2.500000000002133
    vertex 2392.848386663036 191.0555377266227 2.5000000000014277
  endloop
endfacet
facet normal -4.599544457609861e-14 0.9914448613737743 -0.1305261922203264
  outer loop
    vertex 2390.8483866630363 191.0555377266227 2.500000000002133
    vertex 2392.8483866630354 191.00953759211285 2.150594289113021
    vertex 2390.848386663036 191.00953759211285 2.150594289113726
  endloop
endfacet
facet normal -2.1451826711360417e-13 0.7933533402911613 -0.6087614290088168
  outer loop
    vertex 2392.8483866630354 190.66013188122446 1.54540584539957
    vertex 2390.848386663036 190.87467202173167 1.82500000000212
    vertex 2392.8483866630354 190.87467202173167 1.825000000001415
  endloop
endfacet
facet normal -2.1451826711360417e-13 0.7933533402911613 -0.6087614290088168
  outer loop
    vertex 2390.848386663036 190.87467202173167 1.82500000000212
    vertex 2392.8483866630354 190.66013188122446 1.54540584539957
    vertex 2390.848386663036 190.66013188122446 1.545405845400275
  endloop
endfacet
facet normal -0.0 -1.0 0.0
  outer loop
    vertex 2364.348386663041 215.20553772662262 15.000000000011452
    vertex 2374.848386663041 215.20553772662262 16.000000000007752
    vertex 2364.3483866630413 215.20553772662262 16.00000000001145
  endloop
endfacet
facet normal -0.0 -1.0 0.0
  outer loop
    vertex 2374.848386663041 215.20553772662262 16.000000000007752
    vertex 2364.348386663041 215.20553772662262 15.000000000011452
    vertex 2374.848386663041 215.20553772662262 15.00000000000775
  endloop
endfacet
facet normal -2.7956564864031834e-13 -0.6087614290087705 -0.793353340291197
  outer loop
    vertex 2372.848386663036 188.75094357202082 1.5454058454066144
    vertex 2374.848386663036 189.0305377266226 1.3308657048987629
    vertex 2374.848386663036 188.75094357202082 1.5454058454059094
  endloop
endfacet
facet normal -2.7956564864031834e-13 -0.6087614290087705 -0.793353340291197
  outer loop
    vertex 2374.848386663036 189.0305377266226 1.3308657048987629
    vertex 2372.848386663036 188.75094357202082 1.5454058454066144
    vertex 2372.848386663036 189.0305377266226 1.3308657048994679
  endloop
endfacet
facet normal -4.599544457600956e-14 -0.9914448613738075 -0.1305261922200737
  outer loop
    vertex 2390.848386663036 188.40153786113237 2.1505942891136867
    vertex 2392.848386663036 188.3555377266226 2.5000000000013913
    vertex 2390.8483866630363 188.3555377266226 2.500000000002096
  endloop
endfacet
facet normal -4.599544457600956e-14 -0.9914448613738075 -0.1305261922200737
  outer loop
    vertex 2392.848386663036 188.3555377266226 2.5000000000013913
    vertex 2390.848386663036 188.40153786113237 2.1505942891136867
    vertex 2392.8483866630354 188.40153786113237 2.1505942891129814
  endloop
endfacet
facet normal 2.795629872728366e-13 -0.6087614290086645 0.7933533402912782
  outer loop
    vertex 2372.8483866630363 189.0305377266226 3.6691342951174257
    vertex 2374.8483866630363 188.75094357202073 3.4545941546095644
    vertex 2374.8483866630363 189.0305377266226 3.669134295116721
  endloop
endfacet
facet normal 2.795629872728366e-13 -0.6087614290086645 0.7933533402912782
  outer loop
    vertex 2374.8483866630363 188.75094357202073 3.4545941546095644
    vertex 2372.8483866630363 189.0305377266226 3.6691342951174257
    vertex 2372.8483866630363 188.75094357202073 3.4545941546102696
  endloop
endfacet
facet normal -3.255610932163269e-13 0.38268343236513735 -0.9238795325112672
  outer loop
    vertex 2372.848386663036 190.05494343751113 1.1960001345182356
    vertex 2374.848386663036 190.38053772662266 1.3308657048987853
    vertex 2374.848386663036 190.05494343751113 1.1960001345175306
  endloop
endfacet
facet normal -3.255610932163269e-13 0.38268343236513735 -0.9238795325112672
  outer loop
    vertex 2374.848386663036 190.38053772662266 1.3308657048987853
    vertex 2372.848386663036 190.05494343751113 1.1960001345182356
    vertex 2372.848386663036 190.38053772662266 1.3308657048994903
  endloop
endfacet
facet normal -1.3485182019121612e-13 -0.9238795325112787 -0.38268343236510893
  outer loop
    vertex 2372.848386663036 188.53640343151372 1.825000000008448
    vertex 2374.848386663036 188.40153786113245 2.1505942891193324
    vertex 2372.848386663036 188.40153786113245 2.150594289120037
  endloop
endfacet
facet normal -1.3485182019121612e-13 -0.9238795325112787 -0.38268343236510893
  outer loop
    vertex 2374.848386663036 188.40153786113245 2.1505942891193324
    vertex 2372.848386663036 188.53640343151372 1.825000000008448
    vertex 2374.848386663036 188.53640343151372 1.825000000007743
  endloop
endfacet
facet normal 1.3485182019114375e-13 -0.9238795325113728 0.3826834323648819
  outer loop
    vertex 2372.8483866630363 188.40153786113245 2.849405710896834
    vertex 2374.848386663036 188.5364034315136 3.1750000000077265
    vertex 2372.8483866630363 188.5364034315136 3.1750000000084313
  endloop
endfacet
facet normal 1.3485182019114375e-13 -0.9238795325113728 0.3826834323648819
  outer loop
    vertex 2374.848386663036 188.5364034315136 3.1750000000077265
    vertex 2372.8483866630363 188.40153786113245 2.849405710896834
    vertex 2374.848386663036 188.40153786113245 2.849405710896129
  endloop
endfacet
facet normal -1.0 0.0 3.523847880160247e-13
  outer loop
    vertex 2390.8483866630363 188.40153786113245 2.8494057108905033
    vertex 2390.848386663036 188.40153786113237 2.1505942891136867
    vertex 2390.8483866630363 188.3555377266226 2.500000000002096
  endloop
endfacet
facet normal -1.0 0.0 3.523847880160247e-13
  outer loop
    vertex 2390.848386663036 188.40153786113237 2.1505942891136867
    vertex 2390.8483866630363 188.40153786113245 2.8494057108905033
    vertex 2390.848386663036 188.5364034315136 1.8250000000020863
  endloop
endfacet
facet normal -1.0 0.0 3.523847880160247e-13
  outer loop
    vertex 2390.848386663036 188.5364034315136 1.8250000000020863
    vertex 2390.8483866630363 188.40153786113245 2.8494057108905033
    vertex 2390.8483866630363 188.5364034315136 3.175000000002106
  endloop
endfacet
facet normal -1.0 0.0 3.523847880160247e-13
  outer loop
    vertex 2390.848386663036 188.5364034315136 1.8250000000020863
    vertex 2390.8483866630363 188.5364034315136 3.175000000002106
    vertex 2390.8483866630368 188.75094357202082 3.4545941546039542
  endloop
endfacet
facet normal -1.0 0.0 3.523847880160247e-13
  outer loop
    vertex 2390.848386663036 188.5364034315136 1.8250000000020863
    vertex 2390.8483866630368 188.75094357202082 3.4545941546039542
    vertex 2390.848386663036 188.75094357202082 1.5454058454002497
  endloop
endfacet
facet normal -1.0 0.0 3.523847880160247e-13
  outer loop
    vertex 2390.848386663036 188.75094357202082 1.5454058454002497
    vertex 2390.8483866630368 188.75094357202082 3.4545941546039542
    vertex 2390.8483866630368 189.0305377266226 3.6691342951111148
  endloop
endfacet
facet normal -1.0 0.0 3.523847880160247e-13
  outer loop
    vertex 2390.848386663036 188.75094357202082 1.5454058454002497
    vertex 2390.8483866630368 189.0305377266226 3.6691342951111148
    vertex 2390.848386663036 189.0305377266226 1.3308657048930947
  endloop
endfacet
facet normal -1.0 0.0 3.523847880160247e-13
  outer loop
    vertex 2390.848386663036 189.0305377266226 1.3308657048930947
    vertex 2390.8483866630368 189.0305377266226 3.6691342951111148
    vertex 2390.8483866630368 189.35613201573418 3.803999865492371
  endloop
endfacet
facet normal -1.0 0.0 3.523847880160247e-13
  outer loop
    vertex 2390.848386663036 189.0305377266226 1.3308657048930947
    vertex 2390.8483866630368 189.35613201573418 3.803999865492371
    vertex 2390.848386663036 189.35613201573426 1.1960001345118485
  endloop
endfacet
facet normal -1.0 0.0 3.523847880160247e-13
  outer loop
    vertex 2390.848386663036 189.35613201573426 1.1960001345118485
    vertex 2390.8483866630368 189.35613201573418 3.803999865492371
    vertex 2390.8483866630368 189.70553772662257 3.850000000002136
  endloop
endfacet
facet normal -1.0 0.0 3.523847880160247e-13
  outer loop
    vertex 2390.848386663036 189.35613201573426 1.1960001345118485
    vertex 2390.8483866630368 189.70553772662257 3.850000000002136
    vertex 2390.848386663036 189.70553772662274 1.1500000000020931
  endloop
endfacet
facet normal -1.0 0.0 3.523847880160247e-13
  outer loop
    vertex 2390.848386663036 189.70553772662274 1.1500000000020931
    vertex 2390.8483866630368 189.70553772662257 3.850000000002136
    vertex 2390.8483866630368 190.054943437511 3.803999865492381
  endloop
endfacet
facet normal -1.0 0.0 3.523847880160247e-13
  outer loop
    vertex 2390.848386663036 189.70553772662274 1.1500000000020931
    vertex 2390.8483866630368 190.054943437511 3.803999865492381
    vertex 2390.848386663036 190.05494343751113 1.1960001345118598
  endloop
endfacet
facet normal -1.0 0.0 3.523847880160247e-13
  outer loop
    vertex 2390.848386663036 190.05494343751113 1.1960001345118598
    vertex 2390.8483866630368 190.054943437511 3.803999865492381
    vertex 2390.8483866630368 190.38053772662266 3.669134295111133
  endloop
endfacet
facet normal -1.0 0.0 3.523847880160247e-13
  outer loop
    vertex 2390.848386663036 190.05494343751113 1.1960001345118598
    vertex 2390.8483866630368 190.38053772662266 3.669134295111133
    vertex 2390.848386663036 190.38053772662266 1.3308657048931145
  endloop
endfacet
facet normal -1.0 0.0 3.523847880160247e-13
  outer loop
    vertex 2390.848386663036 190.38053772662266 1.3308657048931145
    vertex 2390.8483866630368 190.38053772662266 3.669134295111133
    vertex 2390.8483866630368 190.66013188122446 3.4545941546039822
  endloop
endfacet
facet normal -1.0 0.0 3.523847880160247e-13
  outer loop
    vertex 2390.848386663036 190.38053772662266 1.3308657048931145
    vertex 2390.8483866630368 190.66013188122446 3.4545941546039822
    vertex 2390.848386663036 190.66013188122446 1.545405845400275
  endloop
endfacet
facet normal -1.0 0.0 3.523847880160247e-13
  outer loop
    vertex 2390.848386663036 190.66013188122446 1.545405845400275
    vertex 2390.8483866630368 190.66013188122446 3.4545941546039822
    vertex 2390.8483866630363 190.87467202173167 3.1750000000021403
  endloop
endfacet
facet normal -1.0 0.0 3.523847880160247e-13
  outer loop
    vertex 2390.848386663036 190.66013188122446 1.545405845400275
    vertex 2390.8483866630363 190.87467202173167 3.1750000000021403
    vertex 2390.848386663036 190.87467202173167 1.82500000000212
  endloop
endfacet
facet normal -1.0 0.0 3.523847880160247e-13
  outer loop
    vertex 2390.848386663036 190.87467202173167 1.82500000000212
    vertex 2390.8483866630363 190.87467202173167 3.1750000000021403
    vertex 2390.8483866630363 191.00953759211293 2.8494057108905397
  endloop
endfacet
facet normal -1.0 0.0 3.523847880160247e-13
  outer loop
    vertex 2390.848386663036 190.87467202173167 1.82500000000212
    vertex 2390.8483866630363 191.00953759211293 2.8494057108905397
    vertex 2390.848386663036 191.00953759211285 2.150594289113726
  endloop
endfacet
facet normal -1.0 0.0 3.523847880160247e-13
  outer loop
    vertex 2390.848386663036 191.00953759211285 2.150594289113726
    vertex 2390.8483866630363 191.00953759211293 2.8494057108905397
    vertex 2390.8483866630363 191.0555377266227 2.500000000002133
  endloop
endfacet
facet normal -3.1924848111880087e-14 -0.9958932064677035 -0.0905357460425224
  outer loop
    vertex 2374.8483866630354 187.2055377266226 7.754907827006718e-12
    vertex 2380.8483866630395 186.20553772662254 11.00000000000564
    vertex 2374.8483866630395 186.20553772662254 11.000000000007754
  endloop
endfacet
facet normal -3.1924848111880087e-14 -0.9958932064677035 -0.0905357460425224
  outer loop
    vertex 2380.8483866630395 186.20553772662254 11.00000000000564
    vertex 2374.8483866630354 187.2055377266226 7.754907827006718e-12
    vertex 2378.848386663035 187.2055377266226 6.34492458573277e-12
  endloop
endfacet
endsolid box draft 1
