solid 4705 switch draft
facet normal 1.0 -0.0 -0.0
  outer loop
    vertex 1549.6964811665046 493.8877112108171 -1.4099832412739487e-15
    vertex 1549.6964811665046 465.88771121081703 3.9999999999999982
    vertex 1549.6964811665046 465.88771121081703 -1.4099832412739487e-15
  endloop
endfacet
facet normal 1.0 -0.0 -0.0
  outer loop
    vertex 1549.6964811665046 465.88771121081703 3.9999999999999982
    vertex 1549.6964811665046 493.8877112108171 -1.4099832412739487e-15
    vertex 1549.6964811665046 470.8877112108171 3.9999999999999982
  endloop
endfacet
facet normal 1.0 -0.0 -0.0
  outer loop
    vertex 1549.6964811665046 465.88771121081703 3.9999999999999982
    vertex 1549.6964811665046 470.8877112108171 3.9999999999999982
    vertex 1549.6964811665046 467.30517945608653 11.874999999999998
  endloop
endfacet
facet normal 1.0 -0.0 -0.0
  outer loop
    vertex 1549.6964811665046 465.88771121081703 3.9999999999999982
    vertex 1549.6964811665046 467.30517945608653 11.874999999999998
    vertex 1549.6964811665046 465.88771121081703 14.999999999999998
  endloop
endfacet
facet normal 1.0 -0.0 -0.0
  outer loop
    vertex 1549.6964811665046 465.88771121081703 14.999999999999998
    vertex 1549.6964811665046 467.30517945608653 11.874999999999998
    vertex 1549.6964811665046 467.1803039279558 12.176476193621847
  endloop
endfacet
facet normal 1.0 -0.0 -0.0
  outer loop
    vertex 1549.6964811665046 465.88771121081703 14.999999999999998
    vertex 1549.6964811665046 467.1803039279558 12.176476193621847
    vertex 1549.6964811665046 467.13771121081714 12.499999999999998
  endloop
endfacet
facet normal 1.0 -0.0 -0.0
  outer loop
    vertex 1549.6964811665046 467.30517945608653 11.874999999999998
    vertex 1549.6964811665046 470.8877112108171 3.9999999999999982
    vertex 1549.6964811665046 467.5038277343339 11.616116523516814
  endloop
endfacet
facet normal 1.0 -0.0 -0.0
  outer loop
    vertex 1549.6964811665046 467.5038277343339 11.616116523516814
    vertex 1549.6964811665046 470.8877112108171 3.9999999999999982
    vertex 1549.6964811665046 467.7627112108171 11.417468245269449
  endloop
endfacet
facet normal 1.0 -0.0 -0.0
  outer loop
    vertex 1549.6964811665046 467.7627112108171 11.417468245269449
    vertex 1549.6964811665046 470.8877112108171 3.9999999999999982
    vertex 1549.6964811665046 468.064187404439 11.292592717138662
  endloop
endfacet
facet normal 1.0 -0.0 -0.0
  outer loop
    vertex 1549.6964811665046 468.064187404439 11.292592717138662
    vertex 1549.6964811665046 470.8877112108171 3.9999999999999982
    vertex 1549.6964811665046 468.3877112108171 11.249999999999998
  endloop
endfacet
facet normal 1.0 -0.0 -0.0
  outer loop
    vertex 1549.6964811665046 468.3877112108171 11.249999999999998
    vertex 1549.6964811665046 470.8877112108171 3.9999999999999982
    vertex 1549.6964811665046 468.71123501719524 11.292592717138662
  endloop
endfacet
facet normal 1.0 -0.0 -0.0
  outer loop
    vertex 1549.6964811665046 468.71123501719524 11.292592717138662
    vertex 1549.6964811665046 470.8877112108171 3.9999999999999982
    vertex 1549.6964811665046 469.01271121081714 11.417468245269449
  endloop
endfacet
facet normal 1.0 -0.0 -0.0
  outer loop
    vertex 1549.6964811665046 469.01271121081714 11.417468245269449
    vertex 1549.6964811665046 470.8877112108171 3.9999999999999982
    vertex 1549.6964811665046 469.2715946873003 11.616116523516814
  endloop
endfacet
facet normal 1.0 -0.0 -0.0
  outer loop
    vertex 1549.6964811665046 469.2715946873003 11.616116523516814
    vertex 1549.6964811665046 470.8877112108171 3.9999999999999982
    vertex 1549.6964811665046 469.4702429655477 11.875
  endloop
endfacet
facet normal 1.0 -0.0 -0.0
  outer loop
    vertex 1549.6964811665046 469.4702429655477 11.875
    vertex 1549.6964811665046 470.8877112108171 3.9999999999999982
    vertex 1549.6964811665046 469.59511849367846 12.176476193621848
  endloop
endfacet
facet normal 1.0 -0.0 -0.0
  outer loop
    vertex 1549.6964811665046 469.59511849367846 12.176476193621848
    vertex 1549.6964811665046 470.8877112108171 3.9999999999999982
    vertex 1549.6964811665046 469.6377112108171 12.499999999999998
  endloop
endfacet
facet normal 1.0 -0.0 -0.0
  outer loop
    vertex 1549.6964811665046 470.8877112108171 3.9999999999999982
    vertex 1549.6964811665046 493.8877112108171 -1.4099832412739487e-15
    vertex 1549.6964811665046 493.8877112108171 3.9999999999999982
  endloop
endfacet
facet normal 1.0 -0.0 -0.0
  outer loop
    vertex 1549.6964811665046 465.88771121081703 14.999999999999998
    vertex 1549.6964811665046 467.7627112108171 13.582531754730548
    vertex 1549.6964811665046 470.8877112108171 14.999999999999998
  endloop
endfacet
facet normal 1.0 -0.0 -0.0
  outer loop
    vertex 1549.6964811665046 467.7627112108171 13.582531754730548
    vertex 1549.6964811665046 465.88771121081703 14.999999999999998
    vertex 1549.6964811665046 467.5038277343339 13.383883476483183
  endloop
endfacet
facet normal 1.0 -0.0 -0.0
  outer loop
    vertex 1549.6964811665046 467.5038277343339 13.383883476483183
    vertex 1549.6964811665046 465.88771121081703 14.999999999999998
    vertex 1549.6964811665046 467.30517945608653 13.124999999999998
  endloop
endfacet
facet normal 1.0 -0.0 -0.0
  outer loop
    vertex 1549.6964811665046 467.30517945608653 13.124999999999998
    vertex 1549.6964811665046 465.88771121081703 14.999999999999998
    vertex 1549.6964811665046 467.1803039279558 12.82352380637815
  endloop
endfacet
facet normal 1.0 -0.0 -0.0
  outer loop
    vertex 1549.6964811665046 467.1803039279558 12.82352380637815
    vertex 1549.6964811665046 465.88771121081703 14.999999999999998
    vertex 1549.6964811665046 467.13771121081714 12.499999999999998
  endloop
endfacet
facet normal 1.0 -0.0 -0.0
  outer loop
    vertex 1549.6964811665046 470.8877112108171 14.999999999999998
    vertex 1549.6964811665046 467.7627112108171 13.582531754730548
    vertex 1549.6964811665046 468.064187404439 13.707407282861334
  endloop
endfacet
facet normal 1.0 -0.0 -0.0
  outer loop
    vertex 1549.6964811665046 470.8877112108171 14.999999999999998
    vertex 1549.6964811665046 468.064187404439 13.707407282861334
    vertex 1549.6964811665046 468.3877112108171 13.749999999999998
  endloop
endfacet
facet normal 1.0 -0.0 -0.0
  outer loop
    vertex 1549.6964811665046 470.8877112108171 14.999999999999998
    vertex 1549.6964811665046 468.3877112108171 13.749999999999998
    vertex 1549.6964811665046 468.71123501719524 13.707407282861334
  endloop
endfacet
facet normal 1.0 -0.0 -0.0
  outer loop
    vertex 1549.6964811665046 470.8877112108171 14.999999999999998
    vertex 1549.6964811665046 468.71123501719524 13.707407282861334
    vertex 1549.6964811665046 469.01271121081714 13.582531754730548
  endloop
endfacet
facet normal 1.0 -0.0 -0.0
  outer loop
    vertex 1549.6964811665046 470.8877112108171 14.999999999999998
    vertex 1549.6964811665046 469.01271121081714 13.582531754730548
    vertex 1549.6964811665046 469.2715946873003 13.383883476483183
  endloop
endfacet
facet normal 1.0 -0.0 -0.0
  outer loop
    vertex 1549.6964811665046 470.8877112108171 14.999999999999998
    vertex 1549.6964811665046 469.2715946873003 13.383883476483183
    vertex 1549.6964811665046 469.4702429655477 13.124999999999998
  endloop
endfacet
facet normal 1.0 -0.0 -0.0
  outer loop
    vertex 1549.6964811665046 470.8877112108171 14.999999999999998
    vertex 1549.6964811665046 469.4702429655477 13.124999999999998
    vertex 1549.6964811665046 469.59511849367846 12.82352380637815
  endloop
endfacet
facet normal 1.0 -0.0 -0.0
  outer loop
    vertex 1549.6964811665046 470.8877112108171 14.999999999999998
    vertex 1549.6964811665046 469.59511849367846 12.82352380637815
    vertex 1549.6964811665046 469.6377112108171 12.499999999999998
  endloop
endfacet
facet normal 1.0 -0.0 -0.0
  outer loop
    vertex 1549.6964811665046 470.8877112108171 14.999999999999998
    vertex 1549.6964811665046 469.6377112108171 12.499999999999998
    vertex 1549.6964811665046 470.8877112108171 3.9999999999999982
  endloop
endfacet
facet normal -1.0 -0.0 -0.0
  outer loop
    vertex 1545.6964811665046 470.8877112108171 14.999999999999998
    vertex 1545.6964811665046 465.88771121081703 3.9999999999999982
    vertex 1545.6964811665046 465.88771121081703 14.999999999999998
  endloop
endfacet
facet normal -1.0 -0.0 -0.0
  outer loop
    vertex 1545.6964811665046 465.88771121081703 3.9999999999999982
    vertex 1545.6964811665046 470.8877112108171 14.999999999999998
    vertex 1545.6964811665046 470.8877112108171 3.9999999999999982
  endloop
endfacet
facet normal 0.0 1.0 -0.0
  outer loop
    vertex 1545.6964811665046 470.8877112108171 14.999999999999998
    vertex 1549.6964811665046 470.8877112108171 3.9999999999999982
    vertex 1545.6964811665046 470.8877112108171 3.9999999999999982
  endloop
endfacet
facet normal 0.0 1.0 -0.0
  outer loop
    vertex 1549.6964811665046 470.8877112108171 3.9999999999999982
    vertex 1545.6964811665046 470.8877112108171 14.999999999999998
    vertex 1549.6964811665046 470.8877112108171 14.999999999999998
  endloop
endfacet
facet normal 0.0 0.0 1.0
  outer loop
    vertex 1549.6964811665046 465.88771121081703 14.999999999999998
    vertex 1545.6964811665046 470.8877112108171 14.999999999999998
    vertex 1545.6964811665046 465.88771121081703 14.999999999999998
  endloop
endfacet
facet normal 0.0 0.0 1.0
  outer loop
    vertex 1545.6964811665046 470.8877112108171 14.999999999999998
    vertex 1549.6964811665046 465.88771121081703 14.999999999999998
    vertex 1549.6964811665046 470.8877112108171 14.999999999999998
  endloop
endfacet
facet normal -0.0 -1.0 -0.0
  outer loop
    vertex 1549.6964811665046 465.88771121081703 14.999999999999998
    vertex 1545.6964811665046 465.88771121081703 3.9999999999999982
    vertex 1549.6964811665046 465.88771121081703 3.9999999999999982
  endloop
endfacet
facet normal -0.0 -1.0 -0.0
  outer loop
    vertex 1545.6964811665046 465.88771121081703 3.9999999999999982
    vertex 1549.6964811665046 465.88771121081703 14.999999999999998
    vertex 1545.6964811665046 465.88771121081703 14.999999999999998
  endloop
endfacet
facet normal 1.0 0.0 0.0
  outer loop
    vertex 1552.6964811665046 467.1803039279558 12.176476193621847
    vertex 1552.6964811665046 467.1803039279558 12.82352380637815
    vertex 1552.6964811665046 467.13771121081714 12.499999999999998
  endloop
endfacet
facet normal 1.0 0.0 0.0
  outer loop
    vertex 1552.6964811665046 467.1803039279558 12.82352380637815
    vertex 1552.6964811665046 467.1803039279558 12.176476193621847
    vertex 1552.6964811665046 467.30517945608653 11.874999999999998
  endloop
endfacet
facet normal 1.0 0.0 0.0
  outer loop
    vertex 1552.6964811665046 467.1803039279558 12.82352380637815
    vertex 1552.6964811665046 467.30517945608653 11.874999999999998
    vertex 1552.6964811665046 467.30517945608653 13.124999999999998
  endloop
endfacet
facet normal 1.0 0.0 0.0
  outer loop
    vertex 1552.6964811665046 467.30517945608653 13.124999999999998
    vertex 1552.6964811665046 467.30517945608653 11.874999999999998
    vertex 1552.6964811665046 467.5038277343339 11.616116523516814
  endloop
endfacet
facet normal 1.0 0.0 0.0
  outer loop
    vertex 1552.6964811665046 467.30517945608653 13.124999999999998
    vertex 1552.6964811665046 467.5038277343339 11.616116523516814
    vertex 1552.6964811665046 467.5038277343339 13.383883476483183
  endloop
endfacet
facet normal 1.0 0.0 0.0
  outer loop
    vertex 1552.6964811665046 467.5038277343339 13.383883476483183
    vertex 1552.6964811665046 467.5038277343339 11.616116523516814
    vertex 1552.6964811665046 467.7627112108171 11.417468245269449
  endloop
endfacet
facet normal 1.0 0.0 0.0
  outer loop
    vertex 1552.6964811665046 467.5038277343339 13.383883476483183
    vertex 1552.6964811665046 467.7627112108171 11.417468245269449
    vertex 1552.6964811665046 467.7627112108171 13.582531754730548
  endloop
endfacet
facet normal 1.0 0.0 0.0
  outer loop
    vertex 1552.6964811665046 467.7627112108171 13.582531754730548
    vertex 1552.6964811665046 467.7627112108171 11.417468245269449
    vertex 1552.6964811665046 468.064187404439 11.292592717138662
  endloop
endfacet
facet normal 1.0 0.0 0.0
  outer loop
    vertex 1552.6964811665046 467.7627112108171 13.582531754730548
    vertex 1552.6964811665046 468.064187404439 11.292592717138662
    vertex 1552.6964811665046 468.064187404439 13.707407282861334
  endloop
endfacet
facet normal 1.0 0.0 0.0
  outer loop
    vertex 1552.6964811665046 468.064187404439 13.707407282861334
    vertex 1552.6964811665046 468.064187404439 11.292592717138662
    vertex 1552.6964811665046 468.3877112108171 11.249999999999998
  endloop
endfacet
facet normal 1.0 0.0 0.0
  outer loop
    vertex 1552.6964811665046 468.064187404439 13.707407282861334
    vertex 1552.6964811665046 468.3877112108171 11.249999999999998
    vertex 1552.6964811665046 468.3877112108171 13.749999999999998
  endloop
endfacet
facet normal 1.0 0.0 0.0
  outer loop
    vertex 1552.6964811665046 468.3877112108171 13.749999999999998
    vertex 1552.6964811665046 468.3877112108171 11.249999999999998
    vertex 1552.6964811665046 468.71123501719524 11.292592717138662
  endloop
endfacet
facet normal 1.0 0.0 0.0
  outer loop
    vertex 1552.6964811665046 468.3877112108171 13.749999999999998
    vertex 1552.6964811665046 468.71123501719524 11.292592717138662
    vertex 1552.6964811665046 468.71123501719524 13.707407282861334
  endloop
endfacet
facet normal 1.0 0.0 0.0
  outer loop
    vertex 1552.6964811665046 468.71123501719524 13.707407282861334
    vertex 1552.6964811665046 468.71123501719524 11.292592717138662
    vertex 1552.6964811665046 469.01271121081714 11.417468245269449
  endloop
endfacet
facet normal 1.0 0.0 0.0
  outer loop
    vertex 1552.6964811665046 468.71123501719524 13.707407282861334
    vertex 1552.6964811665046 469.01271121081714 11.417468245269449
    vertex 1552.6964811665046 469.01271121081714 13.582531754730548
  endloop
endfacet
facet normal 1.0 0.0 0.0
  outer loop
    vertex 1552.6964811665046 469.01271121081714 13.582531754730548
    vertex 1552.6964811665046 469.01271121081714 11.417468245269449
    vertex 1552.6964811665046 469.2715946873003 11.616116523516814
  endloop
endfacet
facet normal 1.0 0.0 0.0
  outer loop
    vertex 1552.6964811665046 469.01271121081714 13.582531754730548
    vertex 1552.6964811665046 469.2715946873003 11.616116523516814
    vertex 1552.6964811665046 469.2715946873003 13.383883476483183
  endloop
endfacet
facet normal 1.0 0.0 0.0
  outer loop
    vertex 1552.6964811665046 469.2715946873003 13.383883476483183
    vertex 1552.6964811665046 469.2715946873003 11.616116523516814
    vertex 1552.6964811665046 469.4702429655477 11.875
  endloop
endfacet
facet normal 1.0 0.0 0.0
  outer loop
    vertex 1552.6964811665046 469.2715946873003 13.383883476483183
    vertex 1552.6964811665046 469.4702429655477 11.875
    vertex 1552.6964811665046 469.4702429655477 13.124999999999998
  endloop
endfacet
facet normal 1.0 0.0 0.0
  outer loop
    vertex 1552.6964811665046 469.4702429655477 13.124999999999998
    vertex 1552.6964811665046 469.4702429655477 11.875
    vertex 1552.6964811665046 469.59511849367846 12.176476193621848
  endloop
endfacet
facet normal 1.0 0.0 0.0
  outer loop
    vertex 1552.6964811665046 469.4702429655477 13.124999999999998
    vertex 1552.6964811665046 469.59511849367846 12.176476193621848
    vertex 1552.6964811665046 469.59511849367846 12.82352380637815
  endloop
endfacet
facet normal 1.0 0.0 0.0
  outer loop
    vertex 1552.6964811665046 469.59511849367846 12.82352380637815
    vertex 1552.6964811665046 469.59511849367846 12.176476193621848
    vertex 1552.6964811665046 469.6377112108171 12.499999999999998
  endloop
endfacet
facet normal 0.0 0.1305261922200588 0.9914448613738095
  outer loop
    vertex 1552.6964811665046 468.3877112108171 13.749999999999998
    vertex 1549.6964811665046 468.71123501719524 13.707407282861334
    vertex 1549.6964811665046 468.3877112108171 13.749999999999998
  endloop
endfacet
facet normal 0.0 0.1305261922200588 0.9914448613738095
  outer loop
    vertex 1549.6964811665046 468.71123501719524 13.707407282861334
    vertex 1552.6964811665046 468.3877112108171 13.749999999999998
    vertex 1552.6964811665046 468.71123501719524 13.707407282861334
  endloop
endfacet
facet normal 0.0 -0.1305261922200588 0.9914448613738095
  outer loop
    vertex 1552.6964811665046 468.064187404439 13.707407282861334
    vertex 1549.6964811665046 468.3877112108171 13.749999999999998
    vertex 1549.6964811665046 468.064187404439 13.707407282861334
  endloop
endfacet
facet normal 0.0 -0.1305261922200588 0.9914448613738095
  outer loop
    vertex 1549.6964811665046 468.3877112108171 13.749999999999998
    vertex 1552.6964811665046 468.064187404439 13.707407282861334
    vertex 1552.6964811665046 468.3877112108171 13.749999999999998
  endloop
endfacet
facet normal 0.0 -0.3826834323650169 0.9238795325113169
  outer loop
    vertex 1552.6964811665046 467.7627112108171 13.582531754730548
    vertex 1549.6964811665046 468.064187404439 13.707407282861334
    vertex 1549.6964811665046 467.7627112108171 13.582531754730548
  endloop
endfacet
facet normal 0.0 -0.3826834323650169 0.9238795325113169
  outer loop
    vertex 1549.6964811665046 468.064187404439 13.707407282861334
    vertex 1552.6964811665046 467.7627112108171 13.582531754730548
    vertex 1552.6964811665046 468.064187404439 13.707407282861334
  endloop
endfacet
facet normal 0.0 -0.6087614290087572 0.7933533402912072
  outer loop
    vertex 1552.6964811665046 467.5038277343339 13.383883476483183
    vertex 1549.6964811665046 467.7627112108171 13.582531754730548
    vertex 1549.6964811665046 467.5038277343339 13.383883476483183
  endloop
endfacet
facet normal 0.0 -0.6087614290087572 0.7933533402912072
  outer loop
    vertex 1549.6964811665046 467.7627112108171 13.582531754730548
    vertex 1552.6964811665046 467.5038277343339 13.383883476483183
    vertex 1552.6964811665046 467.7627112108171 13.582531754730548
  endloop
endfacet
facet normal 0.0 -0.7933533402912153 0.6087614290087469
  outer loop
    vertex 1552.6964811665046 467.5038277343339 13.383883476483183
    vertex 1549.6964811665046 467.30517945608653 13.124999999999998
    vertex 1552.6964811665046 467.30517945608653 13.124999999999998
  endloop
endfacet
facet normal 0.0 -0.7933533402912153 0.6087614290087469
  outer loop
    vertex 1549.6964811665046 467.30517945608653 13.124999999999998
    vertex 1552.6964811665046 467.5038277343339 13.383883476483183
    vertex 1549.6964811665046 467.5038277343339 13.383883476483183
  endloop
endfacet
facet normal 0.0 -0.9238795325113325 0.38268343236497965
  outer loop
    vertex 1552.6964811665046 467.30517945608653 13.124999999999998
    vertex 1549.6964811665046 467.1803039279558 12.82352380637815
    vertex 1552.6964811665046 467.1803039279558 12.82352380637815
  endloop
endfacet
facet normal 0.0 -0.9238795325113325 0.38268343236497965
  outer loop
    vertex 1549.6964811665046 467.1803039279558 12.82352380637815
    vertex 1552.6964811665046 467.30517945608653 13.124999999999998
    vertex 1549.6964811665046 467.30517945608653 13.124999999999998
  endloop
endfacet
facet normal 0.0 -0.99144486137381 0.13052619222005557
  outer loop
    vertex 1552.6964811665046 467.1803039279558 12.82352380637815
    vertex 1549.6964811665046 467.13771121081714 12.499999999999998
    vertex 1552.6964811665046 467.13771121081714 12.499999999999998
  endloop
endfacet
facet normal 0.0 -0.99144486137381 0.13052619222005557
  outer loop
    vertex 1549.6964811665046 467.13771121081714 12.499999999999998
    vertex 1552.6964811665046 467.1803039279558 12.82352380637815
    vertex 1549.6964811665046 467.1803039279558 12.82352380637815
  endloop
endfacet
facet normal -0.0 -0.99144486137381 -0.13052619222005557
  outer loop
    vertex 1552.6964811665046 467.13771121081714 12.499999999999998
    vertex 1549.6964811665046 467.1803039279558 12.176476193621847
    vertex 1552.6964811665046 467.1803039279558 12.176476193621847
  endloop
endfacet
facet normal -0.0 -0.99144486137381 -0.13052619222005557
  outer loop
    vertex 1549.6964811665046 467.1803039279558 12.176476193621847
    vertex 1552.6964811665046 467.13771121081714 12.499999999999998
    vertex 1549.6964811665046 467.13771121081714 12.499999999999998
  endloop
endfacet
facet normal -0.0 -0.9238795325113325 -0.38268343236497965
  outer loop
    vertex 1552.6964811665046 467.1803039279558 12.176476193621847
    vertex 1549.6964811665046 467.30517945608653 11.874999999999998
    vertex 1552.6964811665046 467.30517945608653 11.874999999999998
  endloop
endfacet
facet normal -0.0 -0.9238795325113325 -0.38268343236497965
  outer loop
    vertex 1549.6964811665046 467.30517945608653 11.874999999999998
    vertex 1552.6964811665046 467.1803039279558 12.176476193621847
    vertex 1549.6964811665046 467.1803039279558 12.176476193621847
  endloop
endfacet
facet normal -0.0 -0.7933533402912153 -0.6087614290087469
  outer loop
    vertex 1552.6964811665046 467.30517945608653 11.874999999999998
    vertex 1549.6964811665046 467.5038277343339 11.616116523516814
    vertex 1552.6964811665046 467.5038277343339 11.616116523516814
  endloop
endfacet
facet normal -0.0 -0.7933533402912153 -0.6087614290087469
  outer loop
    vertex 1549.6964811665046 467.5038277343339 11.616116523516814
    vertex 1552.6964811665046 467.30517945608653 11.874999999999998
    vertex 1549.6964811665046 467.30517945608653 11.874999999999998
  endloop
endfacet
facet normal -0.0 -0.6087614290087572 -0.7933533402912072
  outer loop
    vertex 1552.6964811665046 467.7627112108171 11.417468245269449
    vertex 1549.6964811665046 467.5038277343339 11.616116523516814
    vertex 1549.6964811665046 467.7627112108171 11.417468245269449
  endloop
endfacet
facet normal -0.0 -0.6087614290087572 -0.7933533402912072
  outer loop
    vertex 1549.6964811665046 467.5038277343339 11.616116523516814
    vertex 1552.6964811665046 467.7627112108171 11.417468245269449
    vertex 1552.6964811665046 467.5038277343339 11.616116523516814
  endloop
endfacet
facet normal -0.0 -0.3826834323650169 -0.9238795325113169
  outer loop
    vertex 1552.6964811665046 468.064187404439 11.292592717138662
    vertex 1549.6964811665046 467.7627112108171 11.417468245269449
    vertex 1549.6964811665046 468.064187404439 11.292592717138662
  endloop
endfacet
facet normal -0.0 -0.3826834323650169 -0.9238795325113169
  outer loop
    vertex 1549.6964811665046 467.7627112108171 11.417468245269449
    vertex 1552.6964811665046 468.064187404439 11.292592717138662
    vertex 1552.6964811665046 467.7627112108171 11.417468245269449
  endloop
endfacet
facet normal -0.0 -0.13052619222006304 -0.9914448613738089
  outer loop
    vertex 1552.6964811665046 468.3877112108171 11.249999999999998
    vertex 1549.6964811665046 468.064187404439 11.292592717138662
    vertex 1549.6964811665046 468.3877112108171 11.249999999999998
  endloop
endfacet
facet normal -0.0 -0.13052619222006304 -0.9914448613738089
  outer loop
    vertex 1549.6964811665046 468.064187404439 11.292592717138662
    vertex 1552.6964811665046 468.3877112108171 11.249999999999998
    vertex 1552.6964811665046 468.064187404439 11.292592717138662
  endloop
endfacet
facet normal 0.0 0.13052619222006304 -0.9914448613738089
  outer loop
    vertex 1552.6964811665046 468.71123501719524 11.292592717138662
    vertex 1549.6964811665046 468.3877112108171 11.249999999999998
    vertex 1549.6964811665046 468.71123501719524 11.292592717138662
  endloop
endfacet
facet normal 0.0 0.13052619222006304 -0.9914448613738089
  outer loop
    vertex 1549.6964811665046 468.3877112108171 11.249999999999998
    vertex 1552.6964811665046 468.71123501719524 11.292592717138662
    vertex 1552.6964811665046 468.3877112108171 11.249999999999998
  endloop
endfacet
facet normal 0.0 0.3826834323650169 -0.9238795325113169
  outer loop
    vertex 1552.6964811665046 469.01271121081714 11.417468245269449
    vertex 1549.6964811665046 468.71123501719524 11.292592717138662
    vertex 1549.6964811665046 469.01271121081714 11.417468245269449
  endloop
endfacet
facet normal 0.0 0.3826834323650169 -0.9238795325113169
  outer loop
    vertex 1549.6964811665046 468.71123501719524 11.292592717138662
    vertex 1552.6964811665046 469.01271121081714 11.417468245269449
    vertex 1552.6964811665046 468.71123501719524 11.292592717138662
  endloop
endfacet
facet normal 0.0 0.6087614290087572 -0.7933533402912072
  outer loop
    vertex 1552.6964811665046 469.2715946873003 11.616116523516814
    vertex 1549.6964811665046 469.01271121081714 11.417468245269449
    vertex 1549.6964811665046 469.2715946873003 11.616116523516814
  endloop
endfacet
facet normal 0.0 0.6087614290087572 -0.7933533402912072
  outer loop
    vertex 1549.6964811665046 469.01271121081714 11.417468245269449
    vertex 1552.6964811665046 469.2715946873003 11.616116523516814
    vertex 1552.6964811665046 469.01271121081714 11.417468245269449
  endloop
endfacet
facet normal 0.0 0.7933533402912168 -0.6087614290087447
  outer loop
    vertex 1549.6964811665046 469.4702429655477 11.875
    vertex 1552.6964811665046 469.2715946873003 11.616116523516814
    vertex 1549.6964811665046 469.2715946873003 11.616116523516814
  endloop
endfacet
facet normal 0.0 0.7933533402912168 -0.6087614290087447
  outer loop
    vertex 1552.6964811665046 469.2715946873003 11.616116523516814
    vertex 1549.6964811665046 469.4702429655477 11.875
    vertex 1552.6964811665046 469.4702429655477 11.875
  endloop
endfacet
facet normal 0.0 0.9238795325113325 -0.38268343236497965
  outer loop
    vertex 1549.6964811665046 469.59511849367846 12.176476193621848
    vertex 1552.6964811665046 469.4702429655477 11.875
    vertex 1549.6964811665046 469.4702429655477 11.875
  endloop
endfacet
facet normal 0.0 0.9238795325113325 -0.38268343236497965
  outer loop
    vertex 1552.6964811665046 469.4702429655477 11.875
    vertex 1549.6964811665046 469.59511849367846 12.176476193621848
    vertex 1552.6964811665046 469.59511849367846 12.176476193621848
  endloop
endfacet
facet normal 0.0 0.9914448613738099 -0.13052619222005613
  outer loop
    vertex 1549.6964811665046 469.6377112108171 12.499999999999998
    vertex 1552.6964811665046 469.59511849367846 12.176476193621848
    vertex 1549.6964811665046 469.59511849367846 12.176476193621848
  endloop
endfacet
facet normal 0.0 0.9914448613738099 -0.13052619222005613
  outer loop
    vertex 1552.6964811665046 469.59511849367846 12.176476193621848
    vertex 1549.6964811665046 469.6377112108171 12.499999999999998
    vertex 1552.6964811665046 469.6377112108171 12.499999999999998
  endloop
endfacet
facet normal 0.0 0.99144486137381 0.13052619222005557
  outer loop
    vertex 1549.6964811665046 469.59511849367846 12.82352380637815
    vertex 1552.6964811665046 469.6377112108171 12.499999999999998
    vertex 1549.6964811665046 469.6377112108171 12.499999999999998
  endloop
endfacet
facet normal 0.0 0.99144486137381 0.13052619222005557
  outer loop
    vertex 1552.6964811665046 469.6377112108171 12.499999999999998
    vertex 1549.6964811665046 469.59511849367846 12.82352380637815
    vertex 1552.6964811665046 469.59511849367846 12.82352380637815
  endloop
endfacet
facet normal 0.0 0.9238795325113325 0.38268343236497965
  outer loop
    vertex 1549.6964811665046 469.4702429655477 13.124999999999998
    vertex 1552.6964811665046 469.59511849367846 12.82352380637815
    vertex 1549.6964811665046 469.59511849367846 12.82352380637815
  endloop
endfacet
facet normal 0.0 0.9238795325113325 0.38268343236497965
  outer loop
    vertex 1552.6964811665046 469.59511849367846 12.82352380637815
    vertex 1549.6964811665046 469.4702429655477 13.124999999999998
    vertex 1552.6964811665046 469.4702429655477 13.124999999999998
  endloop
endfacet
facet normal 0.0 0.7933533402912153 0.6087614290087469
  outer loop
    vertex 1549.6964811665046 469.2715946873003 13.383883476483183
    vertex 1552.6964811665046 469.4702429655477 13.124999999999998
    vertex 1549.6964811665046 469.4702429655477 13.124999999999998
  endloop
endfacet
facet normal 0.0 0.7933533402912153 0.6087614290087469
  outer loop
    vertex 1552.6964811665046 469.4702429655477 13.124999999999998
    vertex 1549.6964811665046 469.2715946873003 13.383883476483183
    vertex 1552.6964811665046 469.2715946873003 13.383883476483183
  endloop
endfacet
facet normal 0.0 0.6087614290087572 0.7933533402912072
  outer loop
    vertex 1552.6964811665046 469.01271121081714 13.582531754730548
    vertex 1549.6964811665046 469.2715946873003 13.383883476483183
    vertex 1549.6964811665046 469.01271121081714 13.582531754730548
  endloop
endfacet
facet normal 0.0 0.6087614290087572 0.7933533402912072
  outer loop
    vertex 1549.6964811665046 469.2715946873003 13.383883476483183
    vertex 1552.6964811665046 469.01271121081714 13.582531754730548
    vertex 1552.6964811665046 469.2715946873003 13.383883476483183
  endloop
endfacet
facet normal 0.0 0.3826834323650169 0.9238795325113169
  outer loop
    vertex 1552.6964811665046 468.71123501719524 13.707407282861334
    vertex 1549.6964811665046 469.01271121081714 13.582531754730548
    vertex 1549.6964811665046 468.71123501719524 13.707407282861334
  endloop
endfacet
facet normal 0.0 0.3826834323650169 0.9238795325113169
  outer loop
    vertex 1549.6964811665046 469.01271121081714 13.582531754730548
    vertex 1552.6964811665046 468.71123501719524 13.707407282861334
    vertex 1552.6964811665046 469.01271121081714 13.582531754730548
  endloop
endfacet
facet normal -0.0 1.0 -0.0
  outer loop
    vertex 1549.6964811665046 465.88771121081703 3.9999999999999982
    vertex 1559.6964811665043 465.88771121081703 -1.4099832412739487e-15
    vertex 1549.6964811665046 465.88771121081703 -1.4099832412739487e-15
  endloop
endfacet
facet normal -0.0 1.0 -0.0
  outer loop
    vertex 1559.6964811665043 465.88771121081703 -1.4099832412739487e-15
    vertex 1549.6964811665046 465.88771121081703 3.9999999999999982
    vertex 1559.6964811665043 465.88771121081703 3.9999999999999982
  endloop
endfacet
facet normal -0.0 1.0 -0.0
  outer loop
    vertex 1567.6964811665043 465.88771121081703 3.9999999999999982
    vertex 1577.6964811665043 465.88771121081703 0.0
    vertex 1567.6964811665043 465.88771121081703 0.0
  endloop
endfacet
facet normal -0.0 1.0 -0.0
  outer loop
    vertex 1577.6964811665043 465.88771121081703 0.0
    vertex 1567.6964811665043 465.88771121081703 3.9999999999999982
    vertex 1577.6964811665043 465.88771121081703 3.9999999999999982
  endloop
endfacet
facet normal -1.0 0.0 0.0
  outer loop
    vertex 1559.6964811665043 493.8877112108171 3.9999999999999982
    vertex 1559.6964811665043 465.88771121081703 -1.4099832412739487e-15
    vertex 1559.6964811665043 465.88771121081703 3.9999999999999982
  endloop
endfacet
facet normal -1.0 0.0 0.0
  outer loop
    vertex 1559.6964811665043 465.88771121081703 -1.4099832412739487e-15
    vertex 1559.6964811665043 493.8877112108171 3.9999999999999982
    vertex 1559.6964811665043 493.8877112108171 -1.4099832412739487e-15
  endloop
endfacet
facet normal -0.0 -1.0 -0.0
  outer loop
    vertex 1559.6964811665043 493.8877112108171 3.9999999999999982
    vertex 1549.6964811665046 493.8877112108171 -1.4099832412739487e-15
    vertex 1559.6964811665043 493.8877112108171 -1.4099832412739487e-15
  endloop
endfacet
facet normal -0.0 -1.0 -0.0
  outer loop
    vertex 1549.6964811665046 493.8877112108171 -1.4099832412739487e-15
    vertex 1559.6964811665043 493.8877112108171 3.9999999999999982
    vertex 1549.6964811665046 493.8877112108171 3.9999999999999982
  endloop
endfacet
facet normal 1.0 0.0 0.0
  outer loop
    vertex 1585.817522405361 501.50404757513974 0.0
    vertex 1585.817522405361 458.50404757513974 3.9999999999999996
    vertex 1585.817522405361 458.50404757513974 0.0
  endloop
endfacet
facet normal 1.0 0.0 0.0
  outer loop
    vertex 1585.817522405361 458.50404757513974 3.9999999999999996
    vertex 1585.817522405361 501.50404757513974 0.0
    vertex 1585.817522405361 501.50404757513974 3.9999999999999996
  endloop
endfacet
facet normal -0.0 -1.0 -0.0
  outer loop
    vertex 1585.817522405361 458.50404757513974 3.9999999999999996
    vertex 1539.8175224053612 458.50404757513974 0.0
    vertex 1585.817522405361 458.50404757513974 0.0
  endloop
endfacet
facet normal -0.0 -1.0 -0.0
  outer loop
    vertex 1539.8175224053612 458.50404757513974 0.0
    vertex 1585.817522405361 458.50404757513974 3.9999999999999996
    vertex 1539.8175224053612 458.50404757513974 3.9999999999999996
  endloop
endfacet
facet normal -1.0 0.0 0.0
  outer loop
    vertex 1539.8175224053612 501.50404757513974 3.9999999999999996
    vertex 1539.8175224053612 458.50404757513974 0.0
    vertex 1539.8175224053612 458.50404757513974 3.9999999999999996
  endloop
endfacet
facet normal -1.0 0.0 0.0
  outer loop
    vertex 1539.8175224053612 458.50404757513974 0.0
    vertex 1539.8175224053612 501.50404757513974 3.9999999999999996
    vertex 1539.8175224053612 501.50404757513974 0.0
  endloop
endfacet
facet normal 0.0 1.0 0.0
  outer loop
    vertex 1539.8175224053612 501.50404757513974 3.9999999999999996
    vertex 1585.817522405361 501.50404757513974 0.0
    vertex 1539.8175224053612 501.50404757513974 0.0
  endloop
endfacet
facet normal 0.0 1.0 0.0
  outer loop
    vertex 1585.817522405361 501.50404757513974 0.0
    vertex 1539.8175224053612 501.50404757513974 3.9999999999999996
    vertex 1585.817522405361 501.50404757513974 3.9999999999999996
  endloop
endfacet
facet normal -1.0 0.0 0.0
  outer loop
    vertex 1577.6964811665043 493.8877112108171 3.9999999999999982
    vertex 1577.6964811665043 465.88771121081703 0.0
    vertex 1577.6964811665043 465.88771121081703 3.9999999999999982
  endloop
endfacet
facet normal -1.0 0.0 0.0
  outer loop
    vertex 1577.6964811665043 465.88771121081703 0.0
    vertex 1577.6964811665043 493.8877112108171 3.9999999999999982
    vertex 1577.6964811665043 493.8877112108171 0.0
  endloop
endfacet
facet normal 0.0 -1.0 0.0
  outer loop
    vertex 1577.6964811665043 493.8877112108171 3.9999999999999982
    vertex 1567.6964811665043 493.8877112108171 0.0
    vertex 1577.6964811665043 493.8877112108171 0.0
  endloop
endfacet
facet normal 0.0 -1.0 0.0
  outer loop
    vertex 1567.6964811665043 493.8877112108171 0.0
    vertex 1577.6964811665043 493.8877112108171 3.9999999999999982
    vertex 1567.6964811665043 493.8877112108171 3.9999999999999982
  endloop
endfacet
facet normal 0.0 0.0 -1.0
  outer loop
    vertex 1539.8175224053612 501.50404757513974 0.0
    vertex 1549.6964811665046 493.8877112108171 -1.4099832412739487e-15
    vertex 1539.8175224053612 458.50404757513974 0.0
  endloop
endfacet
facet normal 0.0 0.0 -1.0
  outer loop
    vertex 1549.6964811665046 493.8877112108171 -1.4099832412739487e-15
    vertex 1539.8175224053612 501.50404757513974 0.0
    vertex 1585.817522405361 501.50404757513974 0.0
  endloop
endfacet
facet normal 0.0 0.0 -1.0
  outer loop
    vertex 1549.6964811665046 493.8877112108171 -1.4099832412739487e-15
    vertex 1585.817522405361 501.50404757513974 0.0
    vertex 1559.6964811665043 493.8877112108171 -1.4099832412739487e-15
  endloop
endfacet
facet normal 0.0 0.0 -1.0
  outer loop
    vertex 1559.6964811665043 493.8877112108171 -1.4099832412739487e-15
    vertex 1585.817522405361 501.50404757513974 0.0
    vertex 1567.6964811665043 493.8877112108171 0.0
  endloop
endfacet
facet normal 0.0 0.0 -1.0
  outer loop
    vertex 1559.6964811665043 493.8877112108171 -1.4099832412739487e-15
    vertex 1567.6964811665043 493.8877112108171 0.0
    vertex 1559.6964811665043 465.88771121081703 -1.4099832412739487e-15
  endloop
endfacet
facet normal 0.0 0.0 -1.0
  outer loop
    vertex 1567.6964811665043 493.8877112108171 0.0
    vertex 1585.817522405361 501.50404757513974 0.0
    vertex 1577.6964811665043 493.8877112108171 0.0
  endloop
endfacet
facet normal 0.0 0.0 -1.0
  outer loop
    vertex 1577.6964811665043 493.8877112108171 0.0
    vertex 1585.817522405361 501.50404757513974 0.0
    vertex 1577.6964811665043 465.88771121081703 0.0
  endloop
endfacet
facet normal 0.0 0.0 -1.0
  outer loop
    vertex 1539.8175224053612 458.50404757513974 0.0
    vertex 1549.6964811665046 465.88771121081703 -1.4099832412739487e-15
    vertex 1585.817522405361 458.50404757513974 0.0
  endloop
endfacet
facet normal 0.0 0.0 -1.0
  outer loop
    vertex 1549.6964811665046 465.88771121081703 -1.4099832412739487e-15
    vertex 1539.8175224053612 458.50404757513974 0.0
    vertex 1549.6964811665046 493.8877112108171 -1.4099832412739487e-15
  endloop
endfacet
facet normal 0.0 0.0 -1.0
  outer loop
    vertex 1585.817522405361 458.50404757513974 0.0
    vertex 1549.6964811665046 465.88771121081703 -1.4099832412739487e-15
    vertex 1559.6964811665043 465.88771121081703 -1.4099832412739487e-15
  endloop
endfacet
facet normal 0.0 0.0 -1.0
  outer loop
    vertex 1585.817522405361 458.50404757513974 0.0
    vertex 1559.6964811665043 465.88771121081703 -1.4099832412739487e-15
    vertex 1567.6964811665043 465.88771121081703 0.0
  endloop
endfacet
facet normal 0.0 0.0 -1.0
  outer loop
    vertex 1567.6964811665043 465.88771121081703 0.0
    vertex 1559.6964811665043 465.88771121081703 -1.4099832412739487e-15
    vertex 1567.6964811665043 493.8877112108171 0.0
  endloop
endfacet
facet normal 0.0 0.0 -1.0
  outer loop
    vertex 1585.817522405361 458.50404757513974 0.0
    vertex 1567.6964811665043 465.88771121081703 0.0
    vertex 1577.6964811665043 465.88771121081703 0.0
  endloop
endfacet
facet normal 0.0 0.0 -1.0
  outer loop
    vertex 1585.817522405361 458.50404757513974 0.0
    vertex 1577.6964811665043 465.88771121081703 0.0
    vertex 1585.817522405361 501.50404757513974 0.0
  endloop
endfacet
facet normal -0.0 -0.0 1.0
  outer loop
    vertex 1539.8175224053612 458.50404757513974 3.9999999999999996
    vertex 1545.6964811665046 465.88771121081703 3.9999999999999982
    vertex 1539.8175224053612 501.50404757513974 3.9999999999999996
  endloop
endfacet
facet normal -0.0 -0.0 1.0
  outer loop
    vertex 1545.6964811665046 465.88771121081703 3.9999999999999982
    vertex 1539.8175224053612 458.50404757513974 3.9999999999999996
    vertex 1585.817522405361 458.50404757513974 3.9999999999999996
  endloop
endfacet
facet normal -0.0 -0.0 1.0
  outer loop
    vertex 1545.6964811665046 465.88771121081703 3.9999999999999982
    vertex 1585.817522405361 458.50404757513974 3.9999999999999996
    vertex 1549.6964811665046 465.88771121081703 3.9999999999999982
  endloop
endfacet
facet normal -0.0 -0.0 1.0
  outer loop
    vertex 1549.6964811665046 465.88771121081703 3.9999999999999982
    vertex 1585.817522405361 458.50404757513974 3.9999999999999996
    vertex 1559.6964811665043 465.88771121081703 3.9999999999999982
  endloop
endfacet
facet normal -0.0 -0.0 1.0
  outer loop
    vertex 1559.6964811665043 465.88771121081703 3.9999999999999982
    vertex 1585.817522405361 458.50404757513974 3.9999999999999996
    vertex 1563.6964811665043 465.88771121081703 3.9999999999999982
  endloop
endfacet
facet normal -0.0 -0.0 1.0
  outer loop
    vertex 1559.6964811665043 465.88771121081703 3.9999999999999982
    vertex 1563.6964811665043 465.88771121081703 3.9999999999999982
    vertex 1559.6964811665043 493.8877112108171 3.9999999999999982
  endloop
endfacet
facet normal -0.0 -0.0 1.0
  outer loop
    vertex 1563.6964811665043 465.88771121081703 3.9999999999999982
    vertex 1585.817522405361 458.50404757513974 3.9999999999999996
    vertex 1567.6964811665043 465.88771121081703 3.9999999999999982
  endloop
endfacet
facet normal -0.0 -0.0 1.0
  outer loop
    vertex 1567.6964811665043 465.88771121081703 3.9999999999999982
    vertex 1585.817522405361 458.50404757513974 3.9999999999999996
    vertex 1577.6964811665043 465.88771121081703 3.9999999999999982
  endloop
endfacet
facet normal -0.0 -0.0 1.0
  outer loop
    vertex 1577.6964811665043 465.88771121081703 3.9999999999999982
    vertex 1585.817522405361 458.50404757513974 3.9999999999999996
    vertex 1577.6964811665043 493.8877112108171 3.9999999999999982
  endloop
endfacet
facet normal -0.0 -0.0 1.0
  outer loop
    vertex 1539.8175224053612 501.50404757513974 3.9999999999999996
    vertex 1549.6964811665046 493.8877112108171 3.9999999999999982
    vertex 1585.817522405361 501.50404757513974 3.9999999999999996
  endloop
endfacet
facet normal -0.0 -0.0 1.0
  outer loop
    vertex 1549.6964811665046 493.8877112108171 3.9999999999999982
    vertex 1539.8175224053612 501.50404757513974 3.9999999999999996
    vertex 1545.6964811665046 470.8877112108171 3.9999999999999982
  endloop
endfacet
facet normal -0.0 -0.0 1.0
  outer loop
    vertex 1545.6964811665046 470.8877112108171 3.9999999999999982
    vertex 1539.8175224053612 501.50404757513974 3.9999999999999996
    vertex 1545.6964811665046 465.88771121081703 3.9999999999999982
  endloop
endfacet
facet normal -0.0 -0.0 1.0
  outer loop
    vertex 1549.6964811665046 493.8877112108171 3.9999999999999982
    vertex 1545.6964811665046 470.8877112108171 3.9999999999999982
    vertex 1549.6964811665046 470.8877112108171 3.9999999999999982
  endloop
endfacet
facet normal -0.0 -0.0 1.0
  outer loop
    vertex 1585.817522405361 501.50404757513974 3.9999999999999996
    vertex 1549.6964811665046 493.8877112108171 3.9999999999999982
    vertex 1559.6964811665043 493.8877112108171 3.9999999999999982
  endloop
endfacet
facet normal -0.0 -0.0 1.0
  outer loop
    vertex 1585.817522405361 501.50404757513974 3.9999999999999996
    vertex 1559.6964811665043 493.8877112108171 3.9999999999999982
    vertex 1567.6964811665043 493.8877112108171 3.9999999999999982
  endloop
endfacet
facet normal -0.0 -0.0 1.0
  outer loop
    vertex 1567.6964811665043 493.8877112108171 3.9999999999999982
    vertex 1559.6964811665043 493.8877112108171 3.9999999999999982
    vertex 1563.6964811665043 470.8877112108171 3.9999999999999982
  endloop
endfacet
facet normal -0.0 -0.0 1.0
  outer loop
    vertex 1563.6964811665043 470.8877112108171 3.9999999999999982
    vertex 1559.6964811665043 493.8877112108171 3.9999999999999982
    vertex 1563.6964811665043 465.88771121081703 3.9999999999999982
  endloop
endfacet
facet normal -0.0 -0.0 1.0
  outer loop
    vertex 1567.6964811665043 493.8877112108171 3.9999999999999982
    vertex 1563.6964811665043 470.8877112108171 3.9999999999999982
    vertex 1567.6964811665043 470.8877112108171 3.9999999999999982
  endloop
endfacet
facet normal -0.0 -0.0 1.0
  outer loop
    vertex 1585.817522405361 501.50404757513974 3.9999999999999996
    vertex 1567.6964811665043 493.8877112108171 3.9999999999999982
    vertex 1577.6964811665043 493.8877112108171 3.9999999999999982
  endloop
endfacet
facet normal -0.0 -0.0 1.0
  outer loop
    vertex 1585.817522405361 501.50404757513974 3.9999999999999996
    vertex 1577.6964811665043 493.8877112108171 3.9999999999999982
    vertex 1585.817522405361 458.50404757513974 3.9999999999999996
  endloop
endfacet
facet normal -1.0 0.0 0.0
  outer loop
    vertex 1563.6964811665043 470.8877112108171 14.999999999999998
    vertex 1563.6964811665043 465.88771121081703 3.9999999999999982
    vertex 1563.6964811665043 465.88771121081703 14.999999999999998
  endloop
endfacet
facet normal -1.0 0.0 0.0
  outer loop
    vertex 1563.6964811665043 465.88771121081703 3.9999999999999982
    vertex 1563.6964811665043 470.8877112108171 14.999999999999998
    vertex 1563.6964811665043 470.8877112108171 3.9999999999999982
  endloop
endfacet
facet normal -0.0 1.0 -0.0
  outer loop
    vertex 1563.6964811665043 470.8877112108171 14.999999999999998
    vertex 1567.6964811665043 470.8877112108171 3.9999999999999982
    vertex 1563.6964811665043 470.8877112108171 3.9999999999999982
  endloop
endfacet
facet normal -0.0 1.0 -0.0
  outer loop
    vertex 1567.6964811665043 470.8877112108171 3.9999999999999982
    vertex 1563.6964811665043 470.8877112108171 14.999999999999998
    vertex 1567.6964811665043 470.8877112108171 14.999999999999998
  endloop
endfacet
facet normal -0.0 -0.0 1.0
  outer loop
    vertex 1567.6964811665043 465.88771121081703 14.999999999999998
    vertex 1563.6964811665043 470.8877112108171 14.999999999999998
    vertex 1563.6964811665043 465.88771121081703 14.999999999999998
  endloop
endfacet
facet normal -0.0 -0.0 1.0
  outer loop
    vertex 1563.6964811665043 470.8877112108171 14.999999999999998
    vertex 1567.6964811665043 465.88771121081703 14.999999999999998
    vertex 1567.6964811665043 470.8877112108171 14.999999999999998
  endloop
endfacet
facet normal 0.0 -1.0 0.0
  outer loop
    vertex 1567.6964811665043 465.88771121081703 14.999999999999998
    vertex 1563.6964811665043 465.88771121081703 3.9999999999999982
    vertex 1567.6964811665043 465.88771121081703 3.9999999999999982
  endloop
endfacet
facet normal 0.0 -1.0 0.0
  outer loop
    vertex 1563.6964811665043 465.88771121081703 3.9999999999999982
    vertex 1567.6964811665043 465.88771121081703 14.999999999999998
    vertex 1563.6964811665043 465.88771121081703 14.999999999999998
  endloop
endfacet
facet normal 1.0 -0.0 -0.0
  outer loop
    vertex 1567.6964811665043 493.8877112108171 0.0
    vertex 1567.6964811665043 465.88771121081703 3.9999999999999982
    vertex 1567.6964811665043 465.88771121081703 0.0
  endloop
endfacet
facet normal 1.0 -0.0 -0.0
  outer loop
    vertex 1567.6964811665043 465.88771121081703 3.9999999999999982
    vertex 1567.6964811665043 493.8877112108171 0.0
    vertex 1567.6964811665043 470.8877112108171 3.9999999999999982
  endloop
endfacet
facet normal 1.0 -0.0 -0.0
  outer loop
    vertex 1567.6964811665043 465.88771121081703 3.9999999999999982
    vertex 1567.6964811665043 470.8877112108171 3.9999999999999982
    vertex 1567.6964811665043 467.30517945608653 11.875000000000005
  endloop
endfacet
facet normal 1.0 -0.0 -0.0
  outer loop
    vertex 1567.6964811665043 465.88771121081703 3.9999999999999982
    vertex 1567.6964811665043 467.30517945608653 11.875000000000005
    vertex 1567.6964811665043 465.88771121081703 14.999999999999998
  endloop
endfacet
facet normal 1.0 -0.0 -0.0
  outer loop
    vertex 1567.6964811665043 465.88771121081703 14.999999999999998
    vertex 1567.6964811665043 467.30517945608653 11.875000000000005
    vertex 1567.6964811665043 467.1803039279558 12.17647619362185
  endloop
endfacet
facet normal 1.0 -0.0 -0.0
  outer loop
    vertex 1567.6964811665043 465.88771121081703 14.999999999999998
    vertex 1567.6964811665043 467.1803039279558 12.17647619362185
    vertex 1567.6964811665043 467.13771121081714 12.499999999999998
  endloop
endfacet
facet normal 1.0 -0.0 -0.0
  outer loop
    vertex 1567.6964811665043 467.30517945608653 11.875000000000005
    vertex 1567.6964811665043 470.8877112108171 3.9999999999999982
    vertex 1567.6964811665043 467.5038277343339 11.616116523516823
  endloop
endfacet
facet normal 1.0 -0.0 -0.0
  outer loop
    vertex 1567.6964811665043 467.5038277343339 11.616116523516823
    vertex 1567.6964811665043 470.8877112108171 3.9999999999999982
    vertex 1567.6964811665043 467.76271121081714 11.417468245269461
  endloop
endfacet
facet normal 1.0 -0.0 -0.0
  outer loop
    vertex 1567.6964811665043 467.76271121081714 11.417468245269461
    vertex 1567.6964811665043 470.8877112108171 3.9999999999999982
    vertex 1567.6964811665043 468.064187404439 11.292592717138676
  endloop
endfacet
facet normal 1.0 -0.0 -0.0
  outer loop
    vertex 1567.6964811665043 468.064187404439 11.292592717138676
    vertex 1567.6964811665043 470.8877112108171 3.9999999999999982
    vertex 1567.6964811665043 468.3877112108171 11.250000000000012
  endloop
endfacet
facet normal 1.0 -0.0 -0.0
  outer loop
    vertex 1567.6964811665043 468.3877112108171 11.250000000000012
    vertex 1567.6964811665043 470.8877112108171 3.9999999999999982
    vertex 1567.6964811665043 468.71123501719524 11.292592717138676
  endloop
endfacet
facet normal 1.0 -0.0 -0.0
  outer loop
    vertex 1567.6964811665043 468.71123501719524 11.292592717138676
    vertex 1567.6964811665043 470.8877112108171 3.9999999999999982
    vertex 1567.6964811665043 469.01271121081714 11.417468245269461
  endloop
endfacet
facet normal 1.0 -0.0 -0.0
  outer loop
    vertex 1567.6964811665043 469.01271121081714 11.417468245269461
    vertex 1567.6964811665043 470.8877112108171 3.9999999999999982
    vertex 1567.6964811665043 469.2715946873003 11.616116523516823
  endloop
endfacet
facet normal 1.0 -0.0 -0.0
  outer loop
    vertex 1567.6964811665043 469.2715946873003 11.616116523516823
    vertex 1567.6964811665043 470.8877112108171 3.9999999999999982
    vertex 1567.6964811665043 469.4702429655477 11.875000000000005
  endloop
endfacet
facet normal 1.0 -0.0 -0.0
  outer loop
    vertex 1567.6964811665043 469.4702429655477 11.875000000000005
    vertex 1567.6964811665043 470.8877112108171 3.9999999999999982
    vertex 1567.6964811665043 469.59511849367846 12.17647619362185
  endloop
endfacet
facet normal 1.0 -0.0 -0.0
  outer loop
    vertex 1567.6964811665043 469.59511849367846 12.17647619362185
    vertex 1567.6964811665043 470.8877112108171 3.9999999999999982
    vertex 1567.6964811665043 469.6377112108171 12.499999999999998
  endloop
endfacet
facet normal 1.0 -0.0 -0.0
  outer loop
    vertex 1567.6964811665043 470.8877112108171 3.9999999999999982
    vertex 1567.6964811665043 493.8877112108171 0.0
    vertex 1567.6964811665043 493.8877112108171 3.9999999999999982
  endloop
endfacet
facet normal 1.0 -0.0 -0.0
  outer loop
    vertex 1567.6964811665043 465.88771121081703 14.999999999999998
    vertex 1567.6964811665043 467.7627112108171 13.582531754730535
    vertex 1567.6964811665043 470.8877112108171 14.999999999999998
  endloop
endfacet
facet normal 1.0 -0.0 -0.0
  outer loop
    vertex 1567.6964811665043 467.7627112108171 13.582531754730535
    vertex 1567.6964811665043 465.88771121081703 14.999999999999998
    vertex 1567.6964811665043 467.5038277343339 13.383883476483172
  endloop
endfacet
facet normal 1.0 -0.0 -0.0
  outer loop
    vertex 1567.6964811665043 467.5038277343339 13.383883476483172
    vertex 1567.6964811665043 465.88771121081703 14.999999999999998
    vertex 1567.6964811665043 467.30517945608653 13.12499999999999
  endloop
endfacet
facet normal 1.0 -0.0 -0.0
  outer loop
    vertex 1567.6964811665043 467.30517945608653 13.12499999999999
    vertex 1567.6964811665043 465.88771121081703 14.999999999999998
    vertex 1567.6964811665043 467.1803039279558 12.823523806378144
  endloop
endfacet
facet normal 1.0 -0.0 -0.0
  outer loop
    vertex 1567.6964811665043 467.1803039279558 12.823523806378144
    vertex 1567.6964811665043 465.88771121081703 14.999999999999998
    vertex 1567.6964811665043 467.13771121081714 12.499999999999998
  endloop
endfacet
facet normal 1.0 -0.0 -0.0
  outer loop
    vertex 1567.6964811665043 470.8877112108171 14.999999999999998
    vertex 1567.6964811665043 467.7627112108171 13.582531754730535
    vertex 1567.6964811665043 468.064187404439 13.70740728286132
  endloop
endfacet
facet normal 1.0 -0.0 -0.0
  outer loop
    vertex 1567.6964811665043 470.8877112108171 14.999999999999998
    vertex 1567.6964811665043 468.064187404439 13.70740728286132
    vertex 1567.6964811665043 468.3877112108171 13.749999999999986
  endloop
endfacet
facet normal 1.0 -0.0 -0.0
  outer loop
    vertex 1567.6964811665043 470.8877112108171 14.999999999999998
    vertex 1567.6964811665043 468.3877112108171 13.749999999999986
    vertex 1567.6964811665043 468.71123501719524 13.70740728286132
  endloop
endfacet
facet normal 1.0 -0.0 -0.0
  outer loop
    vertex 1567.6964811665043 470.8877112108171 14.999999999999998
    vertex 1567.6964811665043 468.71123501719524 13.70740728286132
    vertex 1567.6964811665043 469.01271121081703 13.582531754730535
  endloop
endfacet
facet normal 1.0 -0.0 -0.0
  outer loop
    vertex 1567.6964811665043 470.8877112108171 14.999999999999998
    vertex 1567.6964811665043 469.01271121081703 13.582531754730535
    vertex 1567.6964811665043 469.2715946873003 13.383883476483172
  endloop
endfacet
facet normal 1.0 -0.0 -0.0
  outer loop
    vertex 1567.6964811665043 470.8877112108171 14.999999999999998
    vertex 1567.6964811665043 469.2715946873003 13.383883476483172
    vertex 1567.6964811665043 469.4702429655477 13.124999999999993
  endloop
endfacet
facet normal 1.0 -0.0 -0.0
  outer loop
    vertex 1567.6964811665043 470.8877112108171 14.999999999999998
    vertex 1567.6964811665043 469.4702429655477 13.124999999999993
    vertex 1567.6964811665043 469.59511849367846 12.823523806378148
  endloop
endfacet
facet normal 1.0 -0.0 -0.0
  outer loop
    vertex 1567.6964811665043 470.8877112108171 14.999999999999998
    vertex 1567.6964811665043 469.59511849367846 12.823523806378148
    vertex 1567.6964811665043 469.6377112108171 12.499999999999998
  endloop
endfacet
facet normal 1.0 -0.0 -0.0
  outer loop
    vertex 1567.6964811665043 470.8877112108171 14.999999999999998
    vertex 1567.6964811665043 469.6377112108171 12.499999999999998
    vertex 1567.6964811665043 470.8877112108171 3.9999999999999982
  endloop
endfacet
facet normal 1.0 -0.0 -0.0
  outer loop
    vertex 1569.6964811665046 467.1803039279558 12.17647619362185
    vertex 1569.6964811665046 467.1803039279558 12.823523806378144
    vertex 1569.6964811665046 467.13771121081714 12.499999999999998
  endloop
endfacet
facet normal 1.0 -0.0 -0.0
  outer loop
    vertex 1569.6964811665046 467.1803039279558 12.823523806378144
    vertex 1569.6964811665046 467.1803039279558 12.17647619362185
    vertex 1569.6964811665046 467.30517945608653 11.875000000000005
  endloop
endfacet
facet normal 1.0 -0.0 -0.0
  outer loop
    vertex 1569.6964811665046 467.1803039279558 12.823523806378144
    vertex 1569.6964811665046 467.30517945608653 11.875000000000005
    vertex 1569.6964811665046 467.30517945608653 13.12499999999999
  endloop
endfacet
facet normal 1.0 -0.0 -0.0
  outer loop
    vertex 1569.6964811665046 467.30517945608653 13.12499999999999
    vertex 1569.6964811665046 467.30517945608653 11.875000000000005
    vertex 1569.6964811665046 467.5038277343339 11.616116523516823
  endloop
endfacet
facet normal 1.0 -0.0 -0.0
  outer loop
    vertex 1569.6964811665046 467.30517945608653 13.12499999999999
    vertex 1569.6964811665046 467.5038277343339 11.616116523516823
    vertex 1569.6964811665046 467.5038277343339 13.383883476483172
  endloop
endfacet
facet normal 1.0 -0.0 -0.0
  outer loop
    vertex 1569.6964811665046 467.5038277343339 13.383883476483172
    vertex 1569.6964811665046 467.5038277343339 11.616116523516823
    vertex 1569.6964811665046 467.76271121081714 11.417468245269461
  endloop
endfacet
facet normal 1.0 -0.0 -0.0
  outer loop
    vertex 1569.6964811665046 467.5038277343339 13.383883476483172
    vertex 1569.6964811665046 467.76271121081714 11.417468245269461
    vertex 1569.6964811665046 467.7627112108171 13.582531754730535
  endloop
endfacet
facet normal 1.0 -0.0 -0.0
  outer loop
    vertex 1569.6964811665046 467.7627112108171 13.582531754730535
    vertex 1569.6964811665046 467.76271121081714 11.417468245269461
    vertex 1569.6964811665046 468.064187404439 13.70740728286132
  endloop
endfacet
facet normal 1.0 -0.0 -0.0
  outer loop
    vertex 1569.6964811665046 468.064187404439 13.70740728286132
    vertex 1569.6964811665046 467.76271121081714 11.417468245269461
    vertex 1569.6964811665046 468.064187404439 11.292592717138676
  endloop
endfacet
facet normal 1.0 -0.0 -0.0
  outer loop
    vertex 1569.6964811665046 468.064187404439 13.70740728286132
    vertex 1569.6964811665046 468.064187404439 11.292592717138676
    vertex 1569.6964811665046 468.3877112108171 11.250000000000012
  endloop
endfacet
facet normal 1.0 -0.0 -0.0
  outer loop
    vertex 1569.6964811665046 468.064187404439 13.70740728286132
    vertex 1569.6964811665046 468.3877112108171 11.250000000000012
    vertex 1569.6964811665046 468.3877112108171 13.749999999999986
  endloop
endfacet
facet normal 1.0 -0.0 -0.0
  outer loop
    vertex 1569.6964811665046 468.3877112108171 13.749999999999986
    vertex 1569.6964811665046 468.3877112108171 11.250000000000012
    vertex 1569.6964811665046 468.71123501719524 11.292592717138676
  endloop
endfacet
facet normal 1.0 -0.0 -0.0
  outer loop
    vertex 1569.6964811665046 468.3877112108171 13.749999999999986
    vertex 1569.6964811665046 468.71123501719524 11.292592717138676
    vertex 1569.6964811665046 468.71123501719524 13.70740728286132
  endloop
endfacet
facet normal 1.0 -0.0 -0.0
  outer loop
    vertex 1569.6964811665046 468.71123501719524 13.70740728286132
    vertex 1569.6964811665046 468.71123501719524 11.292592717138676
    vertex 1569.6964811665046 469.01271121081714 11.417468245269461
  endloop
endfacet
facet normal 1.0 -0.0 -0.0
  outer loop
    vertex 1569.6964811665046 468.71123501719524 13.70740728286132
    vertex 1569.6964811665046 469.01271121081714 11.417468245269461
    vertex 1569.6964811665046 469.01271121081703 13.582531754730535
  endloop
endfacet
facet normal 1.0 -0.0 -0.0
  outer loop
    vertex 1569.6964811665046 469.01271121081703 13.582531754730535
    vertex 1569.6964811665046 469.01271121081714 11.417468245269461
    vertex 1569.6964811665046 469.2715946873003 13.383883476483172
  endloop
endfacet
facet normal 1.0 -0.0 -0.0
  outer loop
    vertex 1569.6964811665046 469.2715946873003 13.383883476483172
    vertex 1569.6964811665046 469.01271121081714 11.417468245269461
    vertex 1569.6964811665046 469.2715946873003 11.616116523516823
  endloop
endfacet
facet normal 1.0 -0.0 -0.0
  outer loop
    vertex 1569.6964811665046 469.2715946873003 13.383883476483172
    vertex 1569.6964811665046 469.2715946873003 11.616116523516823
    vertex 1569.6964811665046 469.4702429655477 11.875000000000005
  endloop
endfacet
facet normal 1.0 -0.0 -0.0
  outer loop
    vertex 1569.6964811665046 469.2715946873003 13.383883476483172
    vertex 1569.6964811665046 469.4702429655477 11.875000000000005
    vertex 1569.6964811665046 469.4702429655477 13.124999999999993
  endloop
endfacet
facet normal 1.0 -0.0 -0.0
  outer loop
    vertex 1569.6964811665046 469.4702429655477 13.124999999999993
    vertex 1569.6964811665046 469.4702429655477 11.875000000000005
    vertex 1569.6964811665046 469.59511849367846 12.17647619362185
  endloop
endfacet
facet normal 1.0 -0.0 -0.0
  outer loop
    vertex 1569.6964811665046 469.4702429655477 13.124999999999993
    vertex 1569.6964811665046 469.59511849367846 12.17647619362185
    vertex 1569.6964811665046 469.59511849367846 12.823523806378148
  endloop
endfacet
facet normal 1.0 -0.0 -0.0
  outer loop
    vertex 1569.6964811665046 469.59511849367846 12.823523806378148
    vertex 1569.6964811665046 469.59511849367846 12.17647619362185
    vertex 1569.6964811665046 469.6377112108171 12.499999999999998
  endloop
endfacet
facet normal -0.0 0.1305261922200673 0.9914448613738084
  outer loop
    vertex 1569.6964811665046 468.3877112108171 13.749999999999986
    vertex 1567.6964811665043 468.71123501719524 13.70740728286132
    vertex 1567.6964811665043 468.3877112108171 13.749999999999986
  endloop
endfacet
facet normal -0.0 0.1305261922200673 0.9914448613738084
  outer loop
    vertex 1567.6964811665043 468.71123501719524 13.70740728286132
    vertex 1569.6964811665046 468.3877112108171 13.749999999999986
    vertex 1569.6964811665046 468.71123501719524 13.70740728286132
  endloop
endfacet
facet normal -0.0 -0.1305261922200673 0.9914448613738084
  outer loop
    vertex 1569.6964811665046 468.064187404439 13.70740728286132
    vertex 1567.6964811665043 468.3877112108171 13.749999999999986
    vertex 1567.6964811665043 468.064187404439 13.70740728286132
  endloop
endfacet
facet normal -0.0 -0.1305261922200673 0.9914448613738084
  outer loop
    vertex 1567.6964811665043 468.3877112108171 13.749999999999986
    vertex 1569.6964811665046 468.064187404439 13.70740728286132
    vertex 1569.6964811665046 468.3877112108171 13.749999999999986
  endloop
endfacet
facet normal -0.0 -0.3826834323650095 0.92387953251132
  outer loop
    vertex 1569.6964811665046 467.7627112108171 13.582531754730535
    vertex 1567.6964811665043 468.064187404439 13.70740728286132
    vertex 1567.6964811665043 467.7627112108171 13.582531754730535
  endloop
endfacet
facet normal -0.0 -0.3826834323650095 0.92387953251132
  outer loop
    vertex 1567.6964811665043 468.064187404439 13.70740728286132
    vertex 1569.6964811665046 467.7627112108171 13.582531754730535
    vertex 1569.6964811665046 468.064187404439 13.70740728286132
  endloop
endfacet
facet normal 2.5795342565063892e-27 -0.6087614290087572 0.7933533402912072
  outer loop
    vertex 1569.6964811665046 467.5038277343339 13.383883476483172
    vertex 1567.6964811665043 467.7627112108171 13.582531754730535
    vertex 1567.6964811665043 467.5038277343339 13.383883476483172
  endloop
endfacet
facet normal 2.5795342565063892e-27 -0.6087614290087572 0.7933533402912072
  outer loop
    vertex 1567.6964811665043 467.7627112108171 13.582531754730535
    vertex 1569.6964811665046 467.5038277343339 13.383883476483172
    vertex 1569.6964811665046 467.7627112108171 13.582531754730535
  endloop
endfacet
facet normal -3.2301635225358256e-27 -0.793353340291212 0.608761429008751
  outer loop
    vertex 1569.6964811665046 467.5038277343339 13.383883476483172
    vertex 1567.6964811665043 467.30517945608653 13.12499999999999
    vertex 1569.6964811665046 467.30517945608653 13.12499999999999
  endloop
endfacet
facet normal -3.2301635225358256e-27 -0.793353340291212 0.608761429008751
  outer loop
    vertex 1567.6964811665043 467.30517945608653 13.12499999999999
    vertex 1569.6964811665046 467.5038277343339 13.383883476483172
    vertex 1567.6964811665043 467.5038277343339 13.383883476483172
  endloop
endfacet
facet normal -3.4649080029307295e-19 -0.923879532511331 0.38268343236498265
  outer loop
    vertex 1569.6964811665046 467.30517945608653 13.12499999999999
    vertex 1567.6964811665043 467.1803039279558 12.823523806378144
    vertex 1569.6964811665046 467.1803039279558 12.823523806378144
  endloop
endfacet
facet normal -3.4649080029307295e-19 -0.923879532511331 0.38268343236498265
  outer loop
    vertex 1567.6964811665043 467.1803039279558 12.823523806378144
    vertex 1569.6964811665046 467.30517945608653 13.12499999999999
    vertex 1567.6964811665043 467.30517945608653 13.12499999999999
  endloop
endfacet
facet normal -8.303774533527207e-30 -0.9914448613738096 0.13052619222005782
  outer loop
    vertex 1569.6964811665046 467.1803039279558 12.823523806378144
    vertex 1567.6964811665043 467.13771121081714 12.499999999999998
    vertex 1569.6964811665046 467.13771121081714 12.499999999999998
  endloop
endfacet
facet normal -8.303774533527207e-30 -0.9914448613738096 0.13052619222005782
  outer loop
    vertex 1567.6964811665043 467.13771121081714 12.499999999999998
    vertex 1569.6964811665046 467.1803039279558 12.823523806378144
    vertex 1567.6964811665043 467.1803039279558 12.823523806378144
  endloop
endfacet
facet normal 0.0 -0.9914448613738096 -0.13052619222005726
  outer loop
    vertex 1569.6964811665046 467.13771121081714 12.499999999999998
    vertex 1567.6964811665043 467.1803039279558 12.17647619362185
    vertex 1569.6964811665046 467.1803039279558 12.17647619362185
  endloop
endfacet
facet normal 0.0 -0.9914448613738096 -0.13052619222005726
  outer loop
    vertex 1567.6964811665043 467.1803039279558 12.17647619362185
    vertex 1569.6964811665046 467.13771121081714 12.499999999999998
    vertex 1567.6964811665043 467.13771121081714 12.499999999999998
  endloop
endfacet
facet normal -2.019496360453537e-18 -0.9238795325113313 -0.3826834323649827
  outer loop
    vertex 1569.6964811665046 467.1803039279558 12.17647619362185
    vertex 1567.6964811665043 467.30517945608653 11.875000000000005
    vertex 1569.6964811665046 467.30517945608653 11.875000000000005
  endloop
endfacet
facet normal -2.019496360453537e-18 -0.9238795325113313 -0.3826834323649827
  outer loop
    vertex 1567.6964811665043 467.30517945608653 11.875000000000005
    vertex 1569.6964811665046 467.1803039279558 12.17647619362185
    vertex 1567.6964811665043 467.1803039279558 12.17647619362185
  endloop
endfacet
facet normal -3.2301635225358256e-27 -0.793353340291212 -0.608761429008751
  outer loop
    vertex 1569.6964811665046 467.30517945608653 11.875000000000005
    vertex 1567.6964811665043 467.5038277343339 11.616116523516823
    vertex 1569.6964811665046 467.5038277343339 11.616116523516823
  endloop
endfacet
facet normal -3.2301635225358256e-27 -0.793353340291212 -0.608761429008751
  outer loop
    vertex 1567.6964811665043 467.5038277343339 11.616116523516823
    vertex 1569.6964811665046 467.30517945608653 11.875000000000005
    vertex 1567.6964811665043 467.30517945608653 11.875000000000005
  endloop
endfacet
facet normal 0.0 -0.6087614290086182 -0.7933533402913138
  outer loop
    vertex 1569.6964811665046 467.76271121081714 11.417468245269461
    vertex 1567.6964811665043 467.5038277343339 11.616116523516823
    vertex 1567.6964811665043 467.76271121081714 11.417468245269461
  endloop
endfacet
facet normal 0.0 -0.6087614290086182 -0.7933533402913138
  outer loop
    vertex 1567.6964811665043 467.5038277343339 11.616116523516823
    vertex 1569.6964811665046 467.76271121081714 11.417468245269461
    vertex 1569.6964811665046 467.5038277343339 11.616116523516823
  endloop
endfacet
facet normal 1.616882925253673e-27 -0.38268343236511093 -0.923879532511278
  outer loop
    vertex 1569.6964811665046 468.064187404439 11.292592717138676
    vertex 1567.6964811665043 467.76271121081714 11.417468245269461
    vertex 1567.6964811665043 468.064187404439 11.292592717138676
  endloop
endfacet
facet normal 1.616882925253673e-27 -0.38268343236511093 -0.923879532511278
  outer loop
    vertex 1567.6964811665043 467.76271121081714 11.417468245269461
    vertex 1569.6964811665046 468.064187404439 11.292592717138676
    vertex 1569.6964811665046 467.76271121081714 11.417468245269461
  endloop
endfacet
facet normal -6.307342956417855e-29 -0.1305261922200631 -0.9914448613738089
  outer loop
    vertex 1569.6964811665046 468.3877112108171 11.250000000000012
    vertex 1567.6964811665043 468.064187404439 11.292592717138676
    vertex 1567.6964811665043 468.3877112108171 11.250000000000012
  endloop
endfacet
facet normal -6.307342956417855e-29 -0.1305261922200631 -0.9914448613738089
  outer loop
    vertex 1567.6964811665043 468.064187404439 11.292592717138676
    vertex 1569.6964811665046 468.3877112108171 11.250000000000012
    vertex 1569.6964811665046 468.064187404439 11.292592717138676
  endloop
endfacet
facet normal -6.307342956417855e-29 0.1305261922200631 -0.9914448613738089
  outer loop
    vertex 1569.6964811665046 468.71123501719524 11.292592717138676
    vertex 1567.6964811665043 468.3877112108171 11.250000000000012
    vertex 1567.6964811665043 468.71123501719524 11.292592717138676
  endloop
endfacet
facet normal -6.307342956417855e-29 0.1305261922200631 -0.9914448613738089
  outer loop
    vertex 1567.6964811665043 468.3877112108171 11.250000000000012
    vertex 1569.6964811665046 468.71123501719524 11.292592717138676
    vertex 1569.6964811665046 468.3877112108171 11.250000000000012
  endloop
endfacet
facet normal -5.877507957315258e-29 0.3826834323650133 -0.9238795325113186
  outer loop
    vertex 1569.6964811665046 469.01271121081714 11.417468245269461
    vertex 1567.6964811665043 468.71123501719524 11.292592717138676
    vertex 1567.6964811665043 469.01271121081714 11.417468245269461
  endloop
endfacet
facet normal -5.877507957315258e-29 0.3826834323650133 -0.9238795325113186
  outer loop
    vertex 1567.6964811665043 468.71123501719524 11.292592717138676
    vertex 1569.6964811665046 469.01271121081714 11.417468245269461
    vertex 1569.6964811665046 468.71123501719524 11.292592717138676
  endloop
endfacet
facet normal 2.4785916464271227e-27 0.6087614290087517 -0.7933533402912112
  outer loop
    vertex 1569.6964811665046 469.2715946873003 11.616116523516823
    vertex 1567.6964811665043 469.01271121081714 11.417468245269461
    vertex 1567.6964811665043 469.2715946873003 11.616116523516823
  endloop
endfacet
facet normal 2.4785916464271227e-27 0.6087614290087517 -0.7933533402912112
  outer loop
    vertex 1567.6964811665043 469.01271121081714 11.417468245269461
    vertex 1569.6964811665046 469.2715946873003 11.616116523516823
    vertex 1569.6964811665046 469.01271121081714 11.417468245269461
  endloop
endfacet
facet normal -3.2301635225358256e-27 0.793353340291212 -0.608761429008751
  outer loop
    vertex 1567.6964811665043 469.4702429655477 11.875000000000005
    vertex 1569.6964811665046 469.2715946873003 11.616116523516823
    vertex 1567.6964811665043 469.2715946873003 11.616116523516823
  endloop
endfacet
facet normal -3.2301635225358256e-27 0.793353340291212 -0.608761429008751
  outer loop
    vertex 1569.6964811665046 469.2715946873003 11.616116523516823
    vertex 1567.6964811665043 469.4702429655477 11.875000000000005
    vertex 1569.6964811665046 469.4702429655477 11.875000000000005
  endloop
endfacet
facet normal -2.019496360453537e-18 0.9238795325113313 -0.38268343236498265
  outer loop
    vertex 1567.6964811665043 469.59511849367846 12.17647619362185
    vertex 1569.6964811665046 469.4702429655477 11.875000000000005
    vertex 1567.6964811665043 469.4702429655477 11.875000000000005
  endloop
endfacet
facet normal -2.019496360453537e-18 0.9238795325113313 -0.38268343236498265
  outer loop
    vertex 1569.6964811665046 469.4702429655477 11.875000000000005
    vertex 1567.6964811665043 469.59511849367846 12.17647619362185
    vertex 1569.6964811665046 469.59511849367846 12.17647619362185
  endloop
endfacet
facet normal -0.0 0.9914448613738096 -0.13052619222005726
  outer loop
    vertex 1567.6964811665043 469.6377112108171 12.499999999999998
    vertex 1569.6964811665046 469.59511849367846 12.17647619362185
    vertex 1567.6964811665043 469.59511849367846 12.17647619362185
  endloop
endfacet
facet normal -0.0 0.9914448613738096 -0.13052619222005726
  outer loop
    vertex 1569.6964811665046 469.59511849367846 12.17647619362185
    vertex 1567.6964811665043 469.6377112108171 12.499999999999998
    vertex 1569.6964811665046 469.6377112108171 12.499999999999998
  endloop
endfacet
facet normal 1.141262081763718e-18 0.9914448613738098 0.1305261922200567
  outer loop
    vertex 1567.6964811665043 469.59511849367846 12.823523806378148
    vertex 1569.6964811665046 469.6377112108171 12.499999999999998
    vertex 1567.6964811665043 469.6377112108171 12.499999999999998
  endloop
endfacet
facet normal 1.141262081763718e-18 0.9914448613738098 0.1305261922200567
  outer loop
    vertex 1569.6964811665046 469.6377112108171 12.499999999999998
    vertex 1567.6964811665043 469.59511849367846 12.823523806378148
    vertex 1569.6964811665046 469.59511849367846 12.823523806378148
  endloop
endfacet
facet normal -3.6925019206140004e-18 0.923879532511331 0.38268343236498265
  outer loop
    vertex 1567.6964811665043 469.4702429655477 13.124999999999993
    vertex 1569.6964811665046 469.59511849367846 12.823523806378148
    vertex 1567.6964811665043 469.59511849367846 12.823523806378148
  endloop
endfacet
facet normal -3.6925019206140004e-18 0.923879532511331 0.38268343236498265
  outer loop
    vertex 1569.6964811665046 469.59511849367846 12.823523806378148
    vertex 1567.6964811665043 469.4702429655477 13.124999999999993
    vertex 1569.6964811665046 469.4702429655477 13.124999999999993
  endloop
endfacet
facet normal -3.3076195114866606e-27 0.7933533402912087 0.6087614290087552
  outer loop
    vertex 1567.6964811665043 469.2715946873003 13.383883476483172
    vertex 1569.6964811665046 469.4702429655477 13.124999999999993
    vertex 1567.6964811665043 469.4702429655477 13.124999999999993
  endloop
endfacet
facet normal -3.3076195114866606e-27 0.7933533402912087 0.6087614290087552
  outer loop
    vertex 1569.6964811665046 469.4702429655477 13.124999999999993
    vertex 1567.6964811665043 469.2715946873003 13.383883476483172
    vertex 1569.6964811665046 469.2715946873003 13.383883476483172
  endloop
endfacet
facet normal 1.0094261007925698e-28 0.6087614290086236 0.7933533402913096
  outer loop
    vertex 1569.6964811665046 469.01271121081703 13.582531754730535
    vertex 1567.6964811665043 469.2715946873003 13.383883476483172
    vertex 1567.6964811665043 469.01271121081703 13.582531754730535
  endloop
endfacet
facet normal 1.0094261007925698e-28 0.6087614290086236 0.7933533402913096
  outer loop
    vertex 1567.6964811665043 469.2715946873003 13.383883476483172
    vertex 1569.6964811665046 469.01271121081703 13.582531754730535
    vertex 1569.6964811665046 469.2715946873003 13.383883476483172
  endloop
endfacet
facet normal 1.558107845680508e-27 0.38268343236510727 0.9238795325112795
  outer loop
    vertex 1569.6964811665046 468.71123501719524 13.70740728286132
    vertex 1567.6964811665043 469.01271121081703 13.582531754730535
    vertex 1567.6964811665043 468.71123501719524 13.70740728286132
  endloop
endfacet
facet normal 1.558107845680508e-27 0.38268343236510727 0.9238795325112795
  outer loop
    vertex 1567.6964811665043 469.01271121081703 13.582531754730535
    vertex 1569.6964811665046 468.71123501719524 13.70740728286132
    vertex 1569.6964811665046 469.01271121081703 13.582531754730535
  endloop
endfacet
endsolid 4705 switch draft
