solid box draft 1
facet normal -0.0 0.0 -1.0
  outer loop
    vertex 2081.275757074053 435.10549834330646 -60.20000000000252
    vertex 2208.275757074053 231.9054983433065 -60.20000000000252
    vertex 2081.275757074053 231.9054983433063 -60.20000000000252
  endloop
endfacet
facet normal -0.0 0.0 -1.0
  outer loop
    vertex 2208.275757074053 231.9054983433065 -60.20000000000252
    vertex 2081.275757074053 435.10549834330646 -60.20000000000252
    vertex 2208.275757074053 358.9054983433065 -60.20000000000252
  endloop
endfacet
facet normal -0.0 0.0 -1.0
  outer loop
    vertex 2208.275757074053 358.9054983433065 -60.20000000000252
    vertex 2081.275757074053 435.10549834330646 -60.20000000000252
    vertex 2208.275757074053 435.10549834330646 -60.20000000000252
  endloop
endfacet
facet normal 0.0 0.0 1.0
  outer loop
    vertex 2208.275757074053 238.2554983433065 -53.85000000000252
    vertex 2086.0382570740535 428.7554983433065 -53.85000000000252
    vertex 2086.0382570740535 238.2554983433064 -53.85000000000252
  endloop
endfacet
facet normal 0.0 0.0 1.0
  outer loop
    vertex 2086.0382570740535 428.7554983433065 -53.85000000000252
    vertex 2208.275757074053 238.2554983433065 -53.85000000000252
    vertex 2208.275757074053 358.9054983433065 -53.85000000000252
  endloop
endfacet
facet normal 0.0 0.0 1.0
  outer loop
    vertex 2086.0382570740535 428.7554983433065 -53.85000000000252
    vertex 2208.275757074053 358.9054983433065 -53.85000000000252
    vertex 2208.275757074053 428.7554983433065 -53.85000000000252
  endloop
endfacet
facet normal 2.289834988289385e-16 -1.0 0.0
  outer loop
    vertex 2086.0382570740535 428.7554983433065 9.649999999997478
    vertex 2208.275757074053 428.7554983433065 -53.85000000000252
    vertex 2208.275757074053 428.7554983433065 9.649999999997478
  endloop
endfacet
facet normal 2.289834988289385e-16 -1.0 0.0
  outer loop
    vertex 2208.275757074053 428.7554983433065 -53.85000000000252
    vertex 2086.0382570740535 428.7554983433065 9.649999999997478
    vertex 2086.0382570740535 428.7554983433065 -53.85000000000252
  endloop
endfacet
facet normal -2.289834988289385e-16 1.0 0.0
  outer loop
    vertex 2086.0382570740535 238.2554983433064 -53.85000000000252
    vertex 2208.275757074053 238.2554983433065 9.649999999997478
    vertex 2208.275757074053 238.2554983433065 -53.85000000000252
  endloop
endfacet
facet normal -2.289834988289385e-16 1.0 0.0
  outer loop
    vertex 2208.275757074053 238.2554983433065 9.649999999997478
    vertex 2086.0382570740535 238.2554983433064 -53.85000000000252
    vertex 2086.0382570740535 238.2554983433064 9.649999999997478
  endloop
endfacet
facet normal -2.289834988289385e-16 1.0 0.0
  outer loop
    vertex 2081.275757074053 435.10549834330646 -60.20000000000252
    vertex 2208.275757074053 435.10549834330646 9.649999999997478
    vertex 2208.275757074053 435.10549834330646 -60.20000000000252
  endloop
endfacet
facet normal -2.289834988289385e-16 1.0 0.0
  outer loop
    vertex 2208.275757074053 435.10549834330646 9.649999999997478
    vertex 2081.275757074053 435.10549834330646 -60.20000000000252
    vertex 2081.275757074053 435.10549834330646 9.649999999997478
  endloop
endfacet
facet normal 2.289834988289385e-16 -1.0 0.0
  outer loop
    vertex 2081.275757074053 231.9054983433063 9.649999999997478
    vertex 2208.275757074053 231.9054983433065 -60.20000000000252
    vertex 2208.275757074053 231.9054983433065 9.649999999997478
  endloop
endfacet
facet normal 2.289834988289385e-16 -1.0 0.0
  outer loop
    vertex 2208.275757074053 231.9054983433065 -60.20000000000252
    vertex 2081.275757074053 231.9054983433063 9.649999999997478
    vertex 2081.275757074053 231.9054983433063 -60.20000000000252
  endloop
endfacet
facet normal -1.0 -2.289834988289385e-16 0.0
  outer loop
    vertex 2081.275757074053 231.9054983433063 9.649999999997478
    vertex 2081.275757074053 435.10549834330646 -60.20000000000252
    vertex 2081.275757074053 231.9054983433063 -60.20000000000252
  endloop
endfacet
facet normal -1.0 -2.289834988289385e-16 0.0
  outer loop
    vertex 2081.275757074053 435.10549834330646 -60.20000000000252
    vertex 2081.275757074053 231.9054983433063 9.649999999997478
    vertex 2081.275757074053 435.10549834330646 9.649999999997478
  endloop
endfacet
facet normal 1.0 2.289834988289385e-16 0.0
  outer loop
    vertex 2086.0382570740535 428.7554983433065 9.649999999997478
    vertex 2086.0382570740535 238.2554983433064 -53.85000000000252
    vertex 2086.0382570740535 428.7554983433065 -53.85000000000252
  endloop
endfacet
facet normal 1.0 2.289834988289385e-16 0.0
  outer loop
    vertex 2086.0382570740535 238.2554983433064 -53.85000000000252
    vertex 2086.0382570740535 428.7554983433065 9.649999999997478
    vertex 2086.0382570740535 238.2554983433064 9.649999999997478
  endloop
endfacet
facet normal 0.0 0.0 1.0
  outer loop
    vertex 2208.275757074053 238.2554983433065 9.649999999997478
    vertex 2086.0382570740535 238.2554983433064 9.649999999997478
    vertex 2208.275757074053 231.9054983433065 9.649999999997478
  endloop
endfacet
facet normal 0.0 0.0 1.0
  outer loop
    vertex 2208.275757074053 435.10549834330646 9.649999999997478
    vertex 2086.0382570740535 428.7554983433065 9.649999999997478
    vertex 2208.275757074053 428.7554983433065 9.649999999997478
  endloop
endfacet
facet normal 0.0 0.0 1.0
  outer loop
    vertex 2081.275757074053 231.9054983433063 9.649999999997478
    vertex 2086.0382570740535 238.2554983433064 9.649999999997478
    vertex 2081.275757074053 435.10549834330646 9.649999999997478
  endloop
endfacet
facet normal 0.0 0.0 1.0
  outer loop
    vertex 2086.0382570740535 238.2554983433064 9.649999999997478
    vertex 2081.275757074053 231.9054983433063 9.649999999997478
    vertex 2208.275757074053 231.9054983433065 9.649999999997478
  endloop
endfacet
facet normal 0.0 0.0 1.0
  outer loop
    vertex 2081.275757074053 435.10549834330646 9.649999999997478
    vertex 2086.0382570740535 238.2554983433064 9.649999999997478
    vertex 2086.0382570740535 428.7554983433065 9.649999999997478
  endloop
endfacet
facet normal 0.0 0.0 1.0
  outer loop
    vertex 2081.275757074053 435.10549834330646 9.649999999997478
    vertex 2086.0382570740535 428.7554983433065 9.649999999997478
    vertex 2208.275757074053 435.10549834330646 9.649999999997478
  endloop
endfacet
facet normal 1.0 2.289834988289385e-16 0.0
  outer loop
    vertex 2208.275757074053 358.9054983433065 -53.85000000000252
    vertex 2208.275757074053 231.9054983433065 -60.20000000000252
    vertex 2208.275757074053 358.9054983433065 -60.20000000000252
  endloop
endfacet
facet normal 1.0 2.289834988289385e-16 0.0
  outer loop
    vertex 2208.275757074053 231.9054983433065 -60.20000000000252
    vertex 2208.275757074053 358.9054983433065 -53.85000000000252
    vertex 2208.275757074053 238.2554983433065 -53.85000000000252
  endloop
endfacet
facet normal 1.0 2.289834988289385e-16 0.0
  outer loop
    vertex 2208.275757074053 231.9054983433065 -60.20000000000252
    vertex 2208.275757074053 238.2554983433065 -53.85000000000252
    vertex 2208.275757074053 231.9054983433065 9.649999999997478
  endloop
endfacet
facet normal 1.0 2.289834988289385e-16 0.0
  outer loop
    vertex 2208.275757074053 231.9054983433065 9.649999999997478
    vertex 2208.275757074053 238.2554983433065 -53.85000000000252
    vertex 2208.275757074053 238.2554983433065 9.649999999997478
  endloop
endfacet
facet normal 1.0 2.289834988289385e-16 0.0
  outer loop
    vertex 2208.275757074053 435.10549834330646 -60.20000000000252
    vertex 2208.275757074053 428.7554983433065 -53.85000000000252
    vertex 2208.275757074053 358.9054983433065 -60.20000000000252
  endloop
endfacet
facet normal 1.0 2.289834988289385e-16 0.0
  outer loop
    vertex 2208.275757074053 428.7554983433065 -53.85000000000252
    vertex 2208.275757074053 435.10549834330646 -60.20000000000252
    vertex 2208.275757074053 435.10549834330646 9.649999999997478
  endloop
endfacet
facet normal 1.0 2.289834988289385e-16 0.0
  outer loop
    vertex 2208.275757074053 428.7554983433065 -53.85000000000252
    vertex 2208.275757074053 435.10549834330646 9.649999999997478
    vertex 2208.275757074053 428.7554983433065 9.649999999997478
  endloop
endfacet
facet normal 1.0 2.289834988289385e-16 0.0
  outer loop
    vertex 2208.275757074053 358.9054983433065 -53.85000000000252
    vertex 2208.275757074053 358.9054983433065 -60.20000000000252
    vertex 2208.275757074053 428.7554983433065 -53.85000000000252
  endloop
endfacet
endsolid box draft 1
