solid box draft 1
facet normal 1.3899203214067355e-14 -1.0 -4.897867778180774e-27
  outer loop
    vertex 2868.834173694794 249.84695487671 2.8199664825478976e-13
    vertex 2863.2779236948177 249.84695487670996 64.85000000000218
    vertex 2863.277923694794 249.84695487670996 2.1882939904571683e-12
  endloop
endfacet
facet normal 1.3899203214067355e-14 -1.0 -4.897867778180774e-27
  outer loop
    vertex 2825.1779236947937 249.84695487670942 1.566773377703612e-11
    vertex 2819.6216736948195 249.84695487670928 69.8500000000176
    vertex 2819.6216736947936 249.84695487670928 1.7619150582959262e-11
  endloop
endfacet
facet normal 1.3899203214067355e-14 -1.0 -4.897867778180774e-27
  outer loop
    vertex 2819.6216736948195 249.84695487670928 69.8500000000176
    vertex 2825.1779236947937 249.84695487670942 1.566773377703612e-11
    vertex 2825.1779236948178 249.84695487670942 64.85000000001565
  endloop
endfacet
facet normal 1.3899203214067355e-14 -1.0 -4.897867778180774e-27
  outer loop
    vertex 2819.6216736948195 249.84695487670928 69.8500000000176
    vertex 2825.1779236948178 249.84695487670942 64.85000000001565
    vertex 2868.834173694819 249.84695487671 69.85000000000028
  endloop
endfacet
facet normal 1.3899203214067355e-14 -1.0 -4.897867778180774e-27
  outer loop
    vertex 2868.834173694819 249.84695487671 69.85000000000028
    vertex 2825.1779236948178 249.84695487670942 64.85000000001565
    vertex 2863.2779236948177 249.84695487670996 64.85000000000218
  endloop
endfacet
facet normal 1.3899203214067355e-14 -1.0 -4.897867778180774e-27
  outer loop
    vertex 2868.834173694819 249.84695487671 69.85000000000028
    vertex 2863.2779236948177 249.84695487670996 64.85000000000218
    vertex 2868.834173694794 249.84695487671 2.8199664825478976e-13
  endloop
endfacet
facet normal 1.0 1.3899203214067355e-14 -3.523847880160247e-13
  outer loop
    vertex 2868.834173694819 249.84695487671 69.85000000000028
    vertex 2868.8341736948178 256.51445487671 64.85000000000028
    vertex 2868.834173694818 326.68195487671 69.85000000000028
  endloop
endfacet
facet normal 1.0 1.3899203214067355e-14 -3.523847880160247e-13
  outer loop
    vertex 2868.8341736948178 256.51445487671 64.85000000000028
    vertex 2868.834173694819 249.84695487671 69.85000000000028
    vertex 2868.834173694794 249.84695487671 2.8199664825478976e-13
  endloop
endfacet
facet normal 1.0 1.3899203214067355e-14 -3.523847880160247e-13
  outer loop
    vertex 2868.8341736948178 256.51445487671 64.85000000000028
    vertex 2868.834173694794 249.84695487671 2.8199664825478976e-13
    vertex 2868.8341736947937 256.51445487671 2.8199664825478976e-13
  endloop
endfacet
facet normal 1.0 1.3899203214067355e-14 -3.523847880160247e-13
  outer loop
    vertex 2868.834173694818 326.68195487671 69.85000000000028
    vertex 2868.834173694815 320.01445487671003 64.85000000000028
    vertex 2868.8341736947937 326.68195487671 2.9327651418498134e-13
  endloop
endfacet
facet normal 1.0 1.3899203214067355e-14 -3.523847880160247e-13
  outer loop
    vertex 2868.834173694815 320.01445487671003 64.85000000000028
    vertex 2868.834173694818 326.68195487671 69.85000000000028
    vertex 2868.8341736948178 256.51445487671 64.85000000000028
  endloop
endfacet
facet normal 1.0 1.3899203214067355e-14 -3.523847880160247e-13
  outer loop
    vertex 2868.8341736947937 326.68195487671 2.9327651418498134e-13
    vertex 2868.834173694815 320.01445487671003 64.85000000000028
    vertex 2868.8341736947923 320.01445487671003 2.9327651418498134e-13
  endloop
endfacet
facet normal -1.3899203214067355e-14 1.0 4.897867778180774e-27
  outer loop
    vertex 2819.621673694818 326.68195487670926 69.8500000000176
    vertex 2825.177923694793 326.68195487670937 1.5645174045175734e-11
    vertex 2819.6216736947936 326.68195487670926 1.759659085109888e-11
  endloop
endfacet
facet normal -1.3899203214067355e-14 1.0 4.897867778180774e-27
  outer loop
    vertex 2825.177923694793 326.68195487670937 1.5645174045175734e-11
    vertex 2819.621673694818 326.68195487670926 69.8500000000176
    vertex 2825.1779236948164 326.68195487670937 64.85000000001565
  endloop
endfacet
facet normal -1.3899203214067355e-14 1.0 4.897867778180774e-27
  outer loop
    vertex 2825.1779236948164 326.68195487670937 64.85000000001565
    vertex 2819.621673694818 326.68195487670926 69.8500000000176
    vertex 2868.834173694818 326.68195487671 69.85000000000028
  endloop
endfacet
facet normal -1.3899203214067355e-14 1.0 4.897867778180774e-27
  outer loop
    vertex 2825.1779236948164 326.68195487670937 64.85000000001565
    vertex 2868.834173694818 326.68195487671 69.85000000000028
    vertex 2863.2779236948163 326.6819548767099 64.8500000000022
  endloop
endfacet
facet normal -1.3899203214067355e-14 1.0 4.897867778180774e-27
  outer loop
    vertex 2863.2779236948163 326.6819548767099 64.8500000000022
    vertex 2868.834173694818 326.68195487671 69.85000000000028
    vertex 2863.2779236947936 326.6819548767099 2.19957385638736e-12
  endloop
endfacet
facet normal -1.3899203214067355e-14 1.0 4.897867778180774e-27
  outer loop
    vertex 2863.2779236947936 326.6819548767099 2.19957385638736e-12
    vertex 2868.834173694818 326.68195487671 69.85000000000028
    vertex 2868.8341736947937 326.68195487671 2.9327651418498134e-13
  endloop
endfacet
facet normal -1.0 -1.3899203214067355e-14 3.523847880160247e-13
  outer loop
    vertex 2819.621673694818 326.68195487670926 69.8500000000176
    vertex 2819.621673694815 320.01445487670924 64.8500000000176
    vertex 2819.6216736948195 249.84695487670928 69.8500000000176
  endloop
endfacet
facet normal -1.0 -1.3899203214067355e-14 3.523847880160247e-13
  outer loop
    vertex 2819.621673694815 320.01445487670924 64.8500000000176
    vertex 2819.621673694818 326.68195487670926 69.8500000000176
    vertex 2819.6216736947936 326.68195487670926 1.759659085109888e-11
  endloop
endfacet
facet normal -1.0 -1.3899203214067355e-14 3.523847880160247e-13
  outer loop
    vertex 2819.621673694815 320.01445487670924 64.8500000000176
    vertex 2819.6216736947936 326.68195487670926 1.759659085109888e-11
    vertex 2819.6216736947918 320.01445487670924 1.759659085109888e-11
  endloop
endfacet
facet normal -1.0 -1.3899203214067355e-14 3.523847880160247e-13
  outer loop
    vertex 2819.6216736948195 249.84695487670928 69.8500000000176
    vertex 2819.6216736948177 256.51445487670924 64.8500000000176
    vertex 2819.6216736947936 249.84695487670928 1.7619150582959262e-11
  endloop
endfacet
facet normal -1.0 -1.3899203214067355e-14 3.523847880160247e-13
  outer loop
    vertex 2819.6216736948177 256.51445487670924 64.8500000000176
    vertex 2819.6216736948195 249.84695487670928 69.8500000000176
    vertex 2819.621673694815 320.01445487670924 64.8500000000176
  endloop
endfacet
facet normal -1.0 -1.3899203214067355e-14 3.523847880160247e-13
  outer loop
    vertex 2819.6216736947936 249.84695487670928 1.7619150582959262e-11
    vertex 2819.6216736948177 256.51445487670924 64.8500000000176
    vertex 2819.6216736947936 256.51445487670924 1.7619150582959262e-11
  endloop
endfacet
facet normal 3.523847880160246e-13 4.638016669834797e-27 1.0
  outer loop
    vertex 2853.7529236948185 269.2144548767101 69.8500000000056
    vertex 2834.70292369482 264.4519548767092 69.8500000000123
    vertex 2853.7529236948185 264.45195487670935 69.8500000000056
  endloop
endfacet
facet normal 3.523847880160246e-13 4.638016669834797e-27 1.0
  outer loop
    vertex 2834.70292369482 264.4519548767092 69.8500000000123
    vertex 2853.7529236948185 269.2144548767101 69.8500000000056
    vertex 2834.7029236948215 273.9769548767087 69.8500000000123
  endloop
endfacet
facet normal 3.523847880160246e-13 4.638016669834797e-27 1.0
  outer loop
    vertex 2834.7029236948215 273.9769548767087 69.8500000000123
    vertex 2853.7529236948185 269.2144548767101 69.8500000000056
    vertex 2853.7529236948203 273.97695487670904 69.8500000000056
  endloop
endfacet
facet normal 3.523847880160246e-13 4.638016669834797e-27 1.0
  outer loop
    vertex 2868.834173694819 249.84695487671 69.85000000000028
    vertex 2856.927923694819 264.45195487670964 69.85000000000447
    vertex 2853.7529236948185 264.45195487670935 69.8500000000056
  endloop
endfacet
facet normal 3.523847880160246e-13 4.638016669834797e-27 1.0
  outer loop
    vertex 2856.927923694819 264.45195487670964 69.85000000000447
    vertex 2868.834173694819 249.84695487671 69.85000000000028
    vertex 2868.834173694818 326.68195487671 69.85000000000028
  endloop
endfacet
facet normal 3.523847880160246e-13 4.638016669834797e-27 1.0
  outer loop
    vertex 2856.927923694819 264.45195487670964 69.85000000000447
    vertex 2868.834173694818 326.68195487671 69.85000000000028
    vertex 2856.927923694819 269.2144548767102 69.85000000000447
  endloop
endfacet
facet normal 3.523847880160246e-13 4.638016669834797e-27 1.0
  outer loop
    vertex 2856.927923694819 269.2144548767102 69.85000000000447
    vertex 2868.834173694818 326.68195487671 69.85000000000028
    vertex 2856.927923694819 273.97695487671 69.85000000000447
  endloop
endfacet
facet normal 3.523847880160246e-13 4.638016669834797e-27 1.0
  outer loop
    vertex 2856.927923694819 273.97695487671 69.85000000000447
    vertex 2868.834173694818 326.68195487671 69.85000000000028
    vertex 2856.9279236948187 302.55195487670863 69.85000000000447
  endloop
endfacet
facet normal 3.523847880160246e-13 4.638016669834797e-27 1.0
  outer loop
    vertex 2856.9279236948187 302.55195487670863 69.85000000000447
    vertex 2868.834173694818 326.68195487671 69.85000000000028
    vertex 2856.9279236948187 312.0769548767101 69.85000000000447
  endloop
endfacet
facet normal 3.523847880160246e-13 4.638016669834797e-27 1.0
  outer loop
    vertex 2856.9279236948187 312.0769548767101 69.85000000000447
    vertex 2868.834173694818 326.68195487671 69.85000000000028
    vertex 2853.7529236948208 312.07695487671003 69.8500000000056
  endloop
endfacet
facet normal 3.523847880160246e-13 4.638016669834797e-27 1.0
  outer loop
    vertex 2853.7529236948208 312.07695487671003 69.8500000000056
    vertex 2868.834173694818 326.68195487671 69.85000000000028
    vertex 2834.7029236948174 312.0769548767098 69.8500000000123
  endloop
endfacet
facet normal 3.523847880160246e-13 4.638016669834797e-27 1.0
  outer loop
    vertex 2834.7029236948174 312.0769548767098 69.8500000000123
    vertex 2868.834173694818 326.68195487671 69.85000000000028
    vertex 2819.621673694818 326.68195487670926 69.8500000000176
  endloop
endfacet
facet normal 3.523847880160246e-13 4.638016669834797e-27 1.0
  outer loop
    vertex 2819.6216736948195 249.84695487670928 69.8500000000176
    vertex 2831.527923694818 264.4519548767091 69.85000000001338
    vertex 2819.621673694818 326.68195487670926 69.8500000000176
  endloop
endfacet
facet normal 3.523847880160246e-13 4.638016669834797e-27 1.0
  outer loop
    vertex 2831.527923694818 264.4519548767091 69.85000000001338
    vertex 2819.6216736948195 249.84695487670928 69.8500000000176
    vertex 2868.834173694819 249.84695487671 69.85000000000028
  endloop
endfacet
facet normal 3.523847880160246e-13 4.638016669834797e-27 1.0
  outer loop
    vertex 2831.527923694818 264.4519548767091 69.85000000001338
    vertex 2868.834173694819 249.84695487671 69.85000000000028
    vertex 2853.7529236948185 264.45195487670935 69.8500000000056
  endloop
endfacet
facet normal 3.523847880160246e-13 4.638016669834797e-27 1.0
  outer loop
    vertex 2831.527923694818 264.4519548767091 69.85000000001338
    vertex 2853.7529236948185 264.45195487670935 69.8500000000056
    vertex 2834.70292369482 264.4519548767092 69.8500000000123
  endloop
endfacet
facet normal 3.523847880160246e-13 4.638016669834797e-27 1.0
  outer loop
    vertex 2819.621673694818 326.68195487670926 69.8500000000176
    vertex 2831.527923694818 264.4519548767091 69.85000000001338
    vertex 2831.527923694819 273.9769548767086 69.85000000001338
  endloop
endfacet
facet normal 3.523847880160246e-13 4.638016669834797e-27 1.0
  outer loop
    vertex 2819.621673694818 326.68195487670926 69.8500000000176
    vertex 2831.527923694819 273.9769548767086 69.85000000001338
    vertex 2834.7029236948215 273.9769548767087 69.8500000000123
  endloop
endfacet
facet normal 3.523847880160246e-13 4.638016669834797e-27 1.0
  outer loop
    vertex 2819.621673694818 326.68195487670926 69.8500000000176
    vertex 2834.7029236948215 273.9769548767087 69.8500000000123
    vertex 2831.5279236948195 302.55195487670966 69.85000000001338
  endloop
endfacet
facet normal 3.523847880160246e-13 4.638016669834797e-27 1.0
  outer loop
    vertex 2831.5279236948195 302.55195487670966 69.85000000001338
    vertex 2834.7029236948215 273.9769548767087 69.8500000000123
    vertex 2853.7529236948203 273.97695487670904 69.8500000000056
  endloop
endfacet
facet normal 3.523847880160246e-13 4.638016669834797e-27 1.0
  outer loop
    vertex 2831.5279236948195 302.55195487670966 69.85000000001338
    vertex 2853.7529236948203 273.97695487670904 69.8500000000056
    vertex 2856.927923694819 273.97695487671 69.85000000000447
  endloop
endfacet
facet normal 3.523847880160246e-13 4.638016669834797e-27 1.0
  outer loop
    vertex 2831.5279236948195 302.55195487670966 69.85000000001338
    vertex 2856.927923694819 273.97695487671 69.85000000000447
    vertex 2834.7029236948215 302.5519548767087 69.8500000000123
  endloop
endfacet
facet normal 3.523847880160246e-13 4.638016669834797e-27 1.0
  outer loop
    vertex 2834.7029236948215 302.5519548767087 69.8500000000123
    vertex 2856.927923694819 273.97695487671 69.85000000000447
    vertex 2856.9279236948187 302.55195487670863 69.85000000000447
  endloop
endfacet
facet normal 3.523847880160246e-13 4.638016669834797e-27 1.0
  outer loop
    vertex 2834.7029236948215 302.5519548767087 69.8500000000123
    vertex 2856.9279236948187 302.55195487670863 69.85000000000447
    vertex 2853.7529236948203 302.5519548767087 69.8500000000056
  endloop
endfacet
facet normal 3.523847880160246e-13 4.638016669834797e-27 1.0
  outer loop
    vertex 2819.621673694818 326.68195487670926 69.8500000000176
    vertex 2831.5279236948195 302.55195487670966 69.85000000001338
    vertex 2831.5279236948218 307.3144548767089 69.85000000001338
  endloop
endfacet
facet normal 3.523847880160246e-13 4.638016669834797e-27 1.0
  outer loop
    vertex 2819.621673694818 326.68195487670926 69.8500000000176
    vertex 2831.5279236948218 307.3144548767089 69.85000000001338
    vertex 2831.5279236948177 312.07695487670946 69.85000000001338
  endloop
endfacet
facet normal 3.523847880160246e-13 4.638016669834797e-27 1.0
  outer loop
    vertex 2819.621673694818 326.68195487670926 69.8500000000176
    vertex 2831.5279236948177 312.07695487670946 69.85000000001338
    vertex 2834.7029236948174 312.0769548767098 69.8500000000123
  endloop
endfacet
facet normal 3.523847880160246e-13 4.638016669834797e-27 1.0
  outer loop
    vertex 2853.7529236948208 312.07695487671003 69.8500000000056
    vertex 2834.7029236948215 302.5519548767087 69.8500000000123
    vertex 2853.7529236948203 302.5519548767087 69.8500000000056
  endloop
endfacet
facet normal 3.523847880160246e-13 4.638016669834797e-27 1.0
  outer loop
    vertex 2834.7029236948215 302.5519548767087 69.8500000000123
    vertex 2853.7529236948208 312.07695487671003 69.8500000000056
    vertex 2834.7029236948224 307.3144548767096 69.8500000000123
  endloop
endfacet
facet normal 3.523847880160246e-13 4.638016669834797e-27 1.0
  outer loop
    vertex 2834.7029236948224 307.3144548767096 69.8500000000123
    vertex 2853.7529236948208 312.07695487671003 69.8500000000056
    vertex 2834.7029236948174 312.0769548767098 69.8500000000123
  endloop
endfacet
facet normal 1.0 3.0316490059094875e-13 -4.331468517192912e-13
  outer loop
    vertex 2831.5279236948195 307.3144548767101 64.85000000001337
    vertex 2831.5279236948177 312.07695487670946 69.85000000001338
    vertex 2831.5279236948218 307.3144548767089 69.85000000001338
  endloop
endfacet
facet normal 1.0 3.0316490059094875e-13 -4.331468517192912e-13
  outer loop
    vertex 2831.5279236948177 312.07695487670946 69.85000000001338
    vertex 2831.5279236948195 307.3144548767101 64.85000000001337
    vertex 2831.527923694818 312.0769548767105 64.85000000001337
  endloop
endfacet
facet normal 1.0 -2.652692880171464e-13 -5.414335646492607e-13
  outer loop
    vertex 2831.5279236948168 302.5519548767109 64.85000000001337
    vertex 2831.5279236948218 307.3144548767089 69.85000000001338
    vertex 2831.5279236948195 302.55195487670966 69.85000000001338
  endloop
endfacet
facet normal 1.0 -2.652692880171464e-13 -5.414335646492607e-13
  outer loop
    vertex 2831.5279236948218 307.3144548767089 69.85000000001338
    vertex 2831.5279236948168 302.5519548767109 64.85000000001337
    vertex 2831.5279236948195 307.3144548767101 64.85000000001337
  endloop
endfacet
facet normal 2.84217094303974e-13 1.0 2.707167823244339e-13
  outer loop
    vertex 2831.5279236948195 302.55195487670966 69.85000000001338
    vertex 2834.7029236948188 302.55195487671017 64.8500000000123
    vertex 2831.5279236948168 302.5519548767109 64.85000000001337
  endloop
endfacet
facet normal 2.84217094303974e-13 1.0 2.707167823244339e-13
  outer loop
    vertex 2834.7029236948188 302.55195487671017 64.8500000000123
    vertex 2831.5279236948195 302.55195487670966 69.85000000001338
    vertex 2834.7029236948215 302.5519548767087 69.8500000000123
  endloop
endfacet
facet normal -1.0 3.789561257386481e-14 5.414335646492036e-13
  outer loop
    vertex 2834.70292369482 307.31445487671016 64.8500000000123
    vertex 2834.7029236948215 302.5519548767087 69.8500000000123
    vertex 2834.7029236948224 307.3144548767096 69.8500000000123
  endloop
endfacet
facet normal -1.0 3.789561257386481e-14 5.414335646492036e-13
  outer loop
    vertex 2834.7029236948215 302.5519548767087 69.8500000000123
    vertex 2834.70292369482 307.31445487671016 64.8500000000123
    vertex 2834.7029236948188 302.55195487671017 64.8500000000123
  endloop
endfacet
facet normal -1.0 -6.063298011818947e-13 5.053379936724845e-13
  outer loop
    vertex 2834.7029236948174 312.0769548767109 64.8500000000123
    vertex 2834.7029236948224 307.3144548767096 69.8500000000123
    vertex 2834.7029236948174 312.0769548767098 69.8500000000123
  endloop
endfacet
facet normal -1.0 -6.063298011818947e-13 5.053379936724845e-13
  outer loop
    vertex 2834.7029236948224 307.3144548767096 69.8500000000123
    vertex 2834.7029236948174 312.0769548767109 64.8500000000123
    vertex 2834.70292369482 307.31445487671016 64.8500000000123
  endloop
endfacet
facet normal 9.947598300636186e-14 -1.0 -2.0754953311556829e-13
  outer loop
    vertex 2831.527923694818 312.0769548767105 64.85000000001337
    vertex 2834.7029236948174 312.0769548767098 69.8500000000123
    vertex 2831.5279236948177 312.07695487670946 69.85000000001338
  endloop
endfacet
facet normal 9.947598300636186e-14 -1.0 -2.0754953311556829e-13
  outer loop
    vertex 2834.7029236948174 312.0769548767098 69.8500000000123
    vertex 2831.527923694818 312.0769548767105 64.85000000001337
    vertex 2834.7029236948174 312.0769548767109 64.8500000000123
  endloop
endfacet
facet normal 1.0 -7.579122514776054e-14 -3.6095570976612734e-13
  outer loop
    vertex 2853.7529236948167 269.2144548767099 64.8500000000056
    vertex 2853.7529236948203 273.97695487670904 69.8500000000056
    vertex 2853.7529236948185 269.2144548767101 69.8500000000056
  endloop
endfacet
facet normal 1.0 -7.579122514776054e-14 -3.6095570976612734e-13
  outer loop
    vertex 2853.7529236948203 273.97695487670904 69.8500000000056
    vertex 2853.7529236948167 269.2144548767099 64.8500000000056
    vertex 2853.7529236948185 273.9769548767088 64.8500000000056
  endloop
endfacet
facet normal 1.0 1.1368683772159879e-13 -2.5266899683629765e-13
  outer loop
    vertex 2853.752923694818 264.45195487670895 64.8500000000056
    vertex 2853.7529236948185 269.2144548767101 69.8500000000056
    vertex 2853.7529236948185 264.45195487670935 69.8500000000056
  endloop
endfacet
facet normal 1.0 1.1368683772159879e-13 -2.5266899683629765e-13
  outer loop
    vertex 2853.7529236948185 269.2144548767101 69.8500000000056
    vertex 2853.752923694818 264.45195487670895 64.8500000000056
    vertex 2853.7529236948167 269.2144548767099 64.8500000000056
  endloop
endfacet
facet normal -1.70530256582398e-13 1.0 -3.609557097658846e-14
  outer loop
    vertex 2856.927923694819 264.45195487670964 69.85000000000447
    vertex 2853.752923694818 264.45195487670895 64.8500000000056
    vertex 2853.7529236948185 264.45195487670935 69.8500000000056
  endloop
endfacet
facet normal -1.70530256582398e-13 1.0 -3.609557097658846e-14
  outer loop
    vertex 2853.752923694818 264.45195487670895 64.8500000000056
    vertex 2856.927923694819 264.45195487670964 69.85000000000447
    vertex 2856.9279236948187 264.45195487670964 64.85000000000447
  endloop
endfacet
facet normal -1.0 -1.5158245029547082e-13 2.8876456781290745e-13
  outer loop
    vertex 2856.9279236948173 269.21445487671 64.85000000000447
    vertex 2856.927923694819 264.45195487670964 69.85000000000447
    vertex 2856.927923694819 269.2144548767102 69.85000000000447
  endloop
endfacet
facet normal -1.0 -1.5158245029547082e-13 2.8876456781290745e-13
  outer loop
    vertex 2856.927923694819 264.45195487670964 69.85000000000447
    vertex 2856.9279236948173 269.21445487671 64.85000000000447
    vertex 2856.9279236948187 264.45195487670964 64.85000000000447
  endloop
endfacet
facet normal -1.0 -3.410605131648646e-13 3.9705128074275935e-13
  outer loop
    vertex 2856.9279236948173 273.9769548767097 64.85000000000447
    vertex 2856.927923694819 269.2144548767102 69.85000000000447
    vertex 2856.927923694819 273.97695487671 69.85000000000447
  endloop
endfacet
facet normal -1.0 -3.410605131648646e-13 3.9705128074275935e-13
  outer loop
    vertex 2856.927923694819 269.2144548767102 69.85000000000447
    vertex 2856.9279236948173 273.9769548767097 64.85000000000447
    vertex 2856.9279236948173 269.21445487671 64.85000000000447
  endloop
endfacet
facet normal 3.1263880373460534e-13 -1.0 5.4143356464806765e-14
  outer loop
    vertex 2856.9279236948173 273.9769548767097 64.85000000000447
    vertex 2853.7529236948203 273.97695487670904 69.8500000000056
    vertex 2853.7529236948185 273.9769548767088 64.8500000000056
  endloop
endfacet
facet normal 3.1263880373460534e-13 -1.0 5.4143356464806765e-14
  outer loop
    vertex 2853.7529236948203 273.97695487670904 69.8500000000056
    vertex 2856.9279236948173 273.9769548767097 64.85000000000447
    vertex 2856.927923694819 273.97695487671 69.85000000000447
  endloop
endfacet
facet normal 2.842170943038139e-14 -1.0 -1.0258988318746803e-26
  outer loop
    vertex 2834.7029236948197 273.9769548767087 64.85000000001232
    vertex 2831.527923694819 273.9769548767086 69.85000000001338
    vertex 2831.527923694817 273.9769548767086 64.85000000001338
  endloop
endfacet
facet normal 2.842170943038139e-14 -1.0 -1.0258988318746803e-26
  outer loop
    vertex 2831.527923694819 273.9769548767086 69.85000000001338
    vertex 2834.7029236948197 273.9769548767087 64.85000000001232
    vertex 2834.7029236948215 273.9769548767087 69.8500000000123
  endloop
endfacet
facet normal 1.0 5.684341886081125e-14 -3.248601387895184e-13
  outer loop
    vertex 2831.5279236948163 264.4519548767091 64.85000000001338
    vertex 2831.527923694819 273.9769548767086 69.85000000001338
    vertex 2831.527923694818 264.4519548767091 69.85000000001338
  endloop
endfacet
facet normal 1.0 5.684341886081125e-14 -3.248601387895184e-13
  outer loop
    vertex 2831.527923694819 273.9769548767086 69.85000000001338
    vertex 2831.5279236948163 264.4519548767091 64.85000000001338
    vertex 2831.527923694817 273.9769548767086 64.85000000001338
  endloop
endfacet
facet normal 0.0 1.0 0.0
  outer loop
    vertex 2834.70292369482 264.4519548767092 69.8500000000123
    vertex 2831.5279236948163 264.4519548767091 64.85000000001338
    vertex 2831.527923694818 264.4519548767091 69.85000000001338
  endloop
endfacet
facet normal 0.0 1.0 0.0
  outer loop
    vertex 2831.5279236948163 264.4519548767091 64.85000000001338
    vertex 2834.70292369482 264.4519548767092 69.8500000000123
    vertex 2834.7029236948188 264.4519548767092 64.85000000001232
  endloop
endfacet
facet normal -1.0 -1.8947806286936903e-14 3.248601387895186e-13
  outer loop
    vertex 2834.7029236948197 273.9769548767087 64.85000000001232
    vertex 2834.70292369482 264.4519548767092 69.8500000000123
    vertex 2834.7029236948215 273.9769548767087 69.8500000000123
  endloop
endfacet
facet normal -1.0 -1.8947806286936903e-14 3.248601387895186e-13
  outer loop
    vertex 2834.70292369482 264.4519548767092 69.8500000000123
    vertex 2834.7029236948197 273.9769548767087 64.85000000001232
    vertex 2834.7029236948188 264.4519548767092 64.85000000001232
  endloop
endfacet
facet normal 1.0 1.8947806286933312e-14 -2.5266899683629104e-13
  outer loop
    vertex 2853.752923694819 302.5519548767087 64.85000000000558
    vertex 2853.7529236948208 312.07695487671003 69.8500000000056
    vertex 2853.7529236948203 302.5519548767087 69.8500000000056
  endloop
endfacet
facet normal 1.0 1.8947806286933312e-14 -2.5266899683629104e-13
  outer loop
    vertex 2853.7529236948208 312.07695487671003 69.8500000000056
    vertex 2853.752923694819 302.5519548767087 64.85000000000558
    vertex 2853.75292369482 312.07695487671003 64.85000000000558
  endloop
endfacet
facet normal 0.0 1.0 0.0
  outer loop
    vertex 2856.9279236948187 302.55195487670863 69.85000000000447
    vertex 2853.752923694819 302.5519548767087 64.85000000000558
    vertex 2853.7529236948203 302.5519548767087 69.8500000000056
  endloop
endfacet
facet normal 0.0 1.0 0.0
  outer loop
    vertex 2853.752923694819 302.5519548767087 64.85000000000558
    vertex 2856.9279236948187 302.55195487670863 69.85000000000447
    vertex 2856.9279236948173 302.55195487670863 64.85000000000446
  endloop
endfacet
facet normal -1.0 -3.7895612573866265e-14 2.8876456781290396e-13
  outer loop
    vertex 2856.9279236948178 312.0769548767101 64.85000000000446
    vertex 2856.9279236948187 302.55195487670863 69.85000000000447
    vertex 2856.9279236948187 312.0769548767101 69.85000000000447
  endloop
endfacet
facet normal -1.0 -3.7895612573866265e-14 2.8876456781290396e-13
  outer loop
    vertex 2856.9279236948187 302.55195487670863 69.85000000000447
    vertex 2856.9279236948178 312.0769548767101 64.85000000000446
    vertex 2856.9279236948173 302.55195487670863 64.85000000000446
  endloop
endfacet
facet normal 2.842170943042178e-14 -1.0 -7.180528410875716e-27
  outer loop
    vertex 2853.75292369482 312.07695487671003 64.85000000000558
    vertex 2856.9279236948187 312.0769548767101 69.85000000000447
    vertex 2853.7529236948208 312.07695487671003 69.8500000000056
  endloop
endfacet
facet normal 2.842170943042178e-14 -1.0 -7.180528410875716e-27
  outer loop
    vertex 2856.9279236948187 312.0769548767101 69.85000000000447
    vertex 2853.75292369482 312.07695487671003 64.85000000000558
    vertex 2856.9279236948178 312.0769548767101 64.85000000000446
  endloop
endfacet
facet normal -3.523847880160247e-13 2.2204460492502818e-16 -1.0
  outer loop
    vertex 2819.6216736947936 256.51445487670924 1.7619150582959262e-11
    vertex 2825.1779236947937 249.84695487670942 1.566773377703612e-11
    vertex 2819.6216736947936 249.84695487670928 1.7619150582959262e-11
  endloop
endfacet
facet normal -3.523847880160247e-13 2.2204460492502818e-16 -1.0
  outer loop
    vertex 2825.1779236947937 249.84695487670942 1.566773377703612e-11
    vertex 2819.6216736947936 256.51445487670924 1.7619150582959262e-11
    vertex 2825.177923694793 256.5144548767094 1.566773377703612e-11
  endloop
endfacet
facet normal -1.4210854715201925e-14 1.0 2.2204460493003584e-16
  outer loop
    vertex 2819.6216736948177 256.51445487670924 64.8500000000176
    vertex 2825.177923694793 256.5144548767094 1.566773377703612e-11
    vertex 2819.6216736947936 256.51445487670924 1.7619150582959262e-11
  endloop
endfacet
facet normal -1.4210854715201925e-14 1.0 2.2204460493003584e-16
  outer loop
    vertex 2825.177923694793 256.5144548767094 1.566773377703612e-11
    vertex 2819.6216736948177 256.51445487670924 64.8500000000176
    vertex 2825.1779236948178 256.5144548767094 64.85000000001565
  endloop
endfacet
facet normal 1.0 1.5619445923376034e-28 -3.523847880160247e-13
  outer loop
    vertex 2825.1779236947937 249.84695487670942 1.566773377703612e-11
    vertex 2825.1779236948178 256.5144548767094 64.85000000001565
    vertex 2825.1779236948178 249.84695487670942 64.85000000001565
  endloop
endfacet
facet normal 1.0 1.5619445923376034e-28 -3.523847880160247e-13
  outer loop
    vertex 2825.1779236948178 256.5144548767094 64.85000000001565
    vertex 2825.1779236947937 249.84695487670942 1.566773377703612e-11
    vertex 2825.177923694793 256.5144548767094 1.566773377703612e-11
  endloop
endfacet
facet normal -3.5216274341109965e-13 6.31088724176774e-30 -1.0
  outer loop
    vertex 2819.6216736947936 326.68195487670926 1.759659085109888e-11
    vertex 2825.177923694792 320.0144548767094 1.5645174045175734e-11
    vertex 2819.6216736947918 320.01445487670924 1.759659085109888e-11
  endloop
endfacet
facet normal -3.5216274341109965e-13 6.31088724176774e-30 -1.0
  outer loop
    vertex 2825.177923694792 320.0144548767094 1.5645174045175734e-11
    vertex 2819.6216736947936 326.68195487670926 1.759659085109888e-11
    vertex 2825.177923694793 326.68195487670937 1.5645174045175734e-11
  endloop
endfacet
facet normal 1.0 0.0 -3.5216274341109965e-13
  outer loop
    vertex 2825.177923694792 320.0144548767094 1.5645174045175734e-11
    vertex 2825.1779236948164 326.68195487670937 64.85000000001565
    vertex 2825.177923694815 320.0144548767094 64.85000000001565
  endloop
endfacet
facet normal 1.0 0.0 -3.5216274341109965e-13
  outer loop
    vertex 2825.1779236948164 326.68195487670937 64.85000000001565
    vertex 2825.177923694792 320.0144548767094 1.5645174045175734e-11
    vertex 2825.177923694793 326.68195487670937 1.5645174045175734e-11
  endloop
endfacet
facet normal 1.4210854715202004e-14 -1.0 -5.010844469963867e-27
  outer loop
    vertex 2825.177923694792 320.0144548767094 1.5645174045175734e-11
    vertex 2819.621673694815 320.01445487670924 64.8500000000176
    vertex 2819.6216736947918 320.01445487670924 1.759659085109888e-11
  endloop
endfacet
facet normal 1.4210854715202004e-14 -1.0 -5.010844469963867e-27
  outer loop
    vertex 2819.621673694815 320.01445487670924 64.8500000000176
    vertex 2825.177923694792 320.0144548767094 1.5645174045175734e-11
    vertex 2825.177923694815 320.0144548767094 64.85000000001565
  endloop
endfacet
facet normal -3.524043801870475e-13 1.4046617338071786e-17 -1.0
  outer loop
    vertex 2853.752923694818 264.45195487670895 64.8500000000056
    vertex 2834.7029236948188 264.4519548767092 64.85000000001232
    vertex 2853.7529236948167 269.2144548767099 64.8500000000056
  endloop
endfacet
facet normal -3.524043801870475e-13 1.4046617338071786e-17 -1.0
  outer loop
    vertex 2834.7029236948188 264.4519548767092 64.85000000001232
    vertex 2853.752923694818 264.45195487670895 64.8500000000056
    vertex 2831.5279236948163 264.4519548767091 64.85000000001338
  endloop
endfacet
facet normal -3.524043801870475e-13 1.4046617338071786e-17 -1.0
  outer loop
    vertex 2853.7529236948167 269.2144548767099 64.8500000000056
    vertex 2834.7029236948188 264.4519548767092 64.85000000001232
    vertex 2834.7029236948197 273.9769548767087 64.85000000001232
  endloop
endfacet
facet normal -3.524043801870475e-13 1.4046617338071786e-17 -1.0
  outer loop
    vertex 2853.7529236948167 269.2144548767099 64.8500000000056
    vertex 2834.7029236948197 273.9769548767087 64.85000000001232
    vertex 2853.7529236948185 273.9769548767088 64.8500000000056
  endloop
endfacet
facet normal -3.524043801870475e-13 1.4046617338071786e-17 -1.0
  outer loop
    vertex 2853.7529236948185 273.9769548767088 64.8500000000056
    vertex 2834.7029236948197 273.9769548767087 64.85000000001232
    vertex 2856.9279236948173 273.9769548767097 64.85000000000447
  endloop
endfacet
facet normal -3.524043801870475e-13 1.4046617338071786e-17 -1.0
  outer loop
    vertex 2834.7029236948188 302.55195487671017 64.8500000000123
    vertex 2853.75292369482 312.07695487671003 64.85000000000558
    vertex 2853.752923694819 302.5519548767087 64.85000000000558
  endloop
endfacet
facet normal -3.524043801870475e-13 1.4046617338071786e-17 -1.0
  outer loop
    vertex 2853.75292369482 312.07695487671003 64.85000000000558
    vertex 2834.7029236948188 302.55195487671017 64.8500000000123
    vertex 2834.70292369482 307.31445487671016 64.8500000000123
  endloop
endfacet
facet normal -3.524043801870475e-13 1.4046617338071786e-17 -1.0
  outer loop
    vertex 2853.75292369482 312.07695487671003 64.85000000000558
    vertex 2834.70292369482 307.31445487671016 64.8500000000123
    vertex 2834.7029236948174 312.0769548767109 64.8500000000123
  endloop
endfacet
facet normal -3.524043801870475e-13 1.4046617338071786e-17 -1.0
  outer loop
    vertex 2853.75292369482 312.07695487671003 64.85000000000558
    vertex 2834.7029236948174 312.0769548767109 64.8500000000123
    vertex 2856.9279236948178 312.0769548767101 64.85000000000446
  endloop
endfacet
facet normal -3.524043801870475e-13 1.4046617338071786e-17 -1.0
  outer loop
    vertex 2819.621673694815 320.01445487670924 64.8500000000176
    vertex 2825.1779236948178 256.5144548767094 64.85000000001565
    vertex 2819.6216736948177 256.51445487670924 64.8500000000176
  endloop
endfacet
facet normal -3.524043801870475e-13 1.4046617338071786e-17 -1.0
  outer loop
    vertex 2825.1779236948178 256.5144548767094 64.85000000001565
    vertex 2819.621673694815 320.01445487670924 64.8500000000176
    vertex 2831.5279236948163 264.4519548767091 64.85000000001338
  endloop
endfacet
facet normal -3.524043801870475e-13 1.4046617338071786e-17 -1.0
  outer loop
    vertex 2825.1779236948178 256.5144548767094 64.85000000001565
    vertex 2831.5279236948163 264.4519548767091 64.85000000001338
    vertex 2868.8341736948178 256.51445487671 64.85000000000028
  endloop
endfacet
facet normal -3.524043801870475e-13 1.4046617338071786e-17 -1.0
  outer loop
    vertex 2868.8341736948178 256.51445487671 64.85000000000028
    vertex 2831.5279236948163 264.4519548767091 64.85000000001338
    vertex 2853.752923694818 264.45195487670895 64.8500000000056
  endloop
endfacet
facet normal -3.524043801870475e-13 1.4046617338071786e-17 -1.0
  outer loop
    vertex 2831.5279236948163 264.4519548767091 64.85000000001338
    vertex 2819.621673694815 320.01445487670924 64.8500000000176
    vertex 2831.527923694817 273.9769548767086 64.85000000001338
  endloop
endfacet
facet normal -3.524043801870475e-13 1.4046617338071786e-17 -1.0
  outer loop
    vertex 2831.527923694817 273.9769548767086 64.85000000001338
    vertex 2819.621673694815 320.01445487670924 64.8500000000176
    vertex 2834.7029236948197 273.9769548767087 64.85000000001232
  endloop
endfacet
facet normal -3.524043801870475e-13 1.4046617338071786e-17 -1.0
  outer loop
    vertex 2834.7029236948197 273.9769548767087 64.85000000001232
    vertex 2819.621673694815 320.01445487670924 64.8500000000176
    vertex 2831.5279236948168 302.5519548767109 64.85000000001337
  endloop
endfacet
facet normal -3.524043801870475e-13 1.4046617338071786e-17 -1.0
  outer loop
    vertex 2834.7029236948197 273.9769548767087 64.85000000001232
    vertex 2831.5279236948168 302.5519548767109 64.85000000001337
    vertex 2856.9279236948173 273.9769548767097 64.85000000000447
  endloop
endfacet
facet normal -3.524043801870475e-13 1.4046617338071786e-17 -1.0
  outer loop
    vertex 2856.9279236948173 273.9769548767097 64.85000000000447
    vertex 2831.5279236948168 302.5519548767109 64.85000000001337
    vertex 2834.7029236948188 302.55195487671017 64.8500000000123
  endloop
endfacet
facet normal -3.524043801870475e-13 1.4046617338071786e-17 -1.0
  outer loop
    vertex 2856.9279236948173 273.9769548767097 64.85000000000447
    vertex 2834.7029236948188 302.55195487671017 64.8500000000123
    vertex 2853.752923694819 302.5519548767087 64.85000000000558
  endloop
endfacet
facet normal -3.524043801870475e-13 1.4046617338071786e-17 -1.0
  outer loop
    vertex 2856.9279236948173 273.9769548767097 64.85000000000447
    vertex 2853.752923694819 302.5519548767087 64.85000000000558
    vertex 2856.9279236948173 302.55195487670863 64.85000000000446
  endloop
endfacet
facet normal -3.524043801870475e-13 1.4046617338071786e-17 -1.0
  outer loop
    vertex 2831.5279236948168 302.5519548767109 64.85000000001337
    vertex 2819.621673694815 320.01445487670924 64.8500000000176
    vertex 2831.5279236948195 307.3144548767101 64.85000000001337
  endloop
endfacet
facet normal -3.524043801870475e-13 1.4046617338071786e-17 -1.0
  outer loop
    vertex 2831.5279236948195 307.3144548767101 64.85000000001337
    vertex 2819.621673694815 320.01445487670924 64.8500000000176
    vertex 2831.527923694818 312.0769548767105 64.85000000001337
  endloop
endfacet
facet normal -3.524043801870475e-13 1.4046617338071786e-17 -1.0
  outer loop
    vertex 2831.527923694818 312.0769548767105 64.85000000001337
    vertex 2819.621673694815 320.01445487670924 64.8500000000176
    vertex 2834.7029236948174 312.0769548767109 64.8500000000123
  endloop
endfacet
facet normal -3.524043801870475e-13 1.4046617338071786e-17 -1.0
  outer loop
    vertex 2868.8341736948178 256.51445487671 64.85000000000028
    vertex 2856.9279236948187 264.45195487670964 64.85000000000447
    vertex 2868.834173694815 320.01445487671003 64.85000000000028
  endloop
endfacet
facet normal -3.524043801870475e-13 1.4046617338071786e-17 -1.0
  outer loop
    vertex 2856.9279236948187 264.45195487670964 64.85000000000447
    vertex 2868.8341736948178 256.51445487671 64.85000000000028
    vertex 2853.752923694818 264.45195487670895 64.8500000000056
  endloop
endfacet
facet normal -3.524043801870475e-13 1.4046617338071786e-17 -1.0
  outer loop
    vertex 2868.834173694815 320.01445487671003 64.85000000000028
    vertex 2856.9279236948187 264.45195487670964 64.85000000000447
    vertex 2856.9279236948173 269.21445487671 64.85000000000447
  endloop
endfacet
facet normal -3.524043801870475e-13 1.4046617338071786e-17 -1.0
  outer loop
    vertex 2868.834173694815 320.01445487671003 64.85000000000028
    vertex 2856.9279236948173 269.21445487671 64.85000000000447
    vertex 2856.9279236948173 273.9769548767097 64.85000000000447
  endloop
endfacet
facet normal -3.524043801870475e-13 1.4046617338071786e-17 -1.0
  outer loop
    vertex 2868.834173694815 320.01445487671003 64.85000000000028
    vertex 2856.9279236948173 273.9769548767097 64.85000000000447
    vertex 2856.9279236948173 302.55195487670863 64.85000000000446
  endloop
endfacet
facet normal -3.524043801870475e-13 1.4046617338071786e-17 -1.0
  outer loop
    vertex 2868.834173694815 320.01445487671003 64.85000000000028
    vertex 2856.9279236948173 302.55195487670863 64.85000000000446
    vertex 2856.9279236948178 312.0769548767101 64.85000000000446
  endloop
endfacet
facet normal -3.524043801870475e-13 1.4046617338071786e-17 -1.0
  outer loop
    vertex 2868.834173694815 320.01445487671003 64.85000000000028
    vertex 2856.9279236948178 312.0769548767101 64.85000000000446
    vertex 2834.7029236948174 312.0769548767109 64.8500000000123
  endloop
endfacet
facet normal -3.524043801870475e-13 1.4046617338071786e-17 -1.0
  outer loop
    vertex 2868.834173694815 320.01445487671003 64.85000000000028
    vertex 2834.7029236948174 312.0769548767109 64.8500000000123
    vertex 2819.621673694815 320.01445487670924 64.8500000000176
  endloop
endfacet
facet normal -3.524043801870475e-13 1.4046617338071786e-17 -1.0
  outer loop
    vertex 2868.834173694815 320.01445487671003 64.85000000000028
    vertex 2819.621673694815 320.01445487670924 64.8500000000176
    vertex 2825.177923694815 320.0144548767094 64.85000000001565
  endloop
endfacet
facet normal -3.524043801870475e-13 1.4046617338071786e-17 -1.0
  outer loop
    vertex 2868.834173694815 320.01445487671003 64.85000000000028
    vertex 2825.177923694815 320.0144548767094 64.85000000001565
    vertex 2863.277923694815 320.01445487671 64.85000000000218
  endloop
endfacet
facet normal -3.524043801870475e-13 1.4046617338071786e-17 -1.0
  outer loop
    vertex 2863.277923694815 320.01445487671 64.85000000000218
    vertex 2825.177923694815 320.0144548767094 64.85000000001565
    vertex 2825.1779236948164 326.68195487670937 64.85000000001565
  endloop
endfacet
facet normal -3.524043801870475e-13 1.4046617338071786e-17 -1.0
  outer loop
    vertex 2863.277923694815 320.01445487671 64.85000000000218
    vertex 2825.1779236948164 326.68195487670937 64.85000000001565
    vertex 2863.2779236948163 326.6819548767099 64.8500000000022
  endloop
endfacet
facet normal -3.524043801870475e-13 1.4046617338071786e-17 -1.0
  outer loop
    vertex 2825.1779236948178 256.5144548767094 64.85000000001565
    vertex 2863.2779236948177 249.84695487670996 64.85000000000218
    vertex 2825.1779236948178 249.84695487670942 64.85000000001565
  endloop
endfacet
facet normal -3.524043801870475e-13 1.4046617338071786e-17 -1.0
  outer loop
    vertex 2863.2779236948177 249.84695487670996 64.85000000000218
    vertex 2825.1779236948178 256.5144548767094 64.85000000001565
    vertex 2863.2779236948177 256.51445487670986 64.85000000000218
  endloop
endfacet
facet normal -3.524043801870475e-13 1.4046617338071786e-17 -1.0
  outer loop
    vertex 2863.2779236948177 256.51445487670986 64.85000000000218
    vertex 2825.1779236948178 256.5144548767094 64.85000000001565
    vertex 2868.8341736948178 256.51445487671 64.85000000000028
  endloop
endfacet
facet normal -3.523847880160247e-13 2.2204460492502502e-16 -1.0
  outer loop
    vertex 2863.277923694792 320.01445487671 2.19957385638736e-12
    vertex 2868.8341736947937 326.68195487671 2.9327651418498134e-13
    vertex 2868.8341736947923 320.01445487671003 2.9327651418498134e-13
  endloop
endfacet
facet normal -3.523847880160247e-13 2.2204460492502502e-16 -1.0
  outer loop
    vertex 2868.8341736947937 326.68195487671 2.9327651418498134e-13
    vertex 2863.277923694792 320.01445487671 2.19957385638736e-12
    vertex 2863.2779236947936 326.6819548767099 2.19957385638736e-12
  endloop
endfacet
facet normal 7.105427357600924e-15 -1.0 -2.2204460492752884e-16
  outer loop
    vertex 2868.8341736947923 320.01445487671003 2.9327651418498134e-13
    vertex 2863.277923694815 320.01445487671 64.85000000000218
    vertex 2863.277923694792 320.01445487671 2.19957385638736e-12
  endloop
endfacet
facet normal 7.105427357600924e-15 -1.0 -2.2204460492752884e-16
  outer loop
    vertex 2863.277923694815 320.01445487671 64.85000000000218
    vertex 2868.8341736947923 320.01445487671003 2.9327651418498134e-13
    vertex 2868.834173694815 320.01445487671003 64.85000000000028
  endloop
endfacet
facet normal -1.0 -1.5619445923376034e-28 3.523847880160247e-13
  outer loop
    vertex 2863.2779236947936 326.6819548767099 2.19957385638736e-12
    vertex 2863.277923694815 320.01445487671 64.85000000000218
    vertex 2863.2779236948163 326.6819548767099 64.8500000000022
  endloop
endfacet
facet normal -1.0 -1.5619445923376034e-28 3.523847880160247e-13
  outer loop
    vertex 2863.277923694815 320.01445487671 64.85000000000218
    vertex 2863.2779236947936 326.6819548767099 2.19957385638736e-12
    vertex 2863.277923694792 320.01445487671 2.19957385638736e-12
  endloop
endfacet
facet normal -3.5216274341109965e-13 9.466330862651787e-30 -1.0
  outer loop
    vertex 2863.2779236947936 256.51445487670986 2.1882939904571683e-12
    vertex 2868.834173694794 249.84695487671 2.8199664825478976e-13
    vertex 2863.277923694794 249.84695487670996 2.1882939904571683e-12
  endloop
endfacet
facet normal -3.5216274341109965e-13 9.466330862651787e-30 -1.0
  outer loop
    vertex 2868.834173694794 249.84695487671 2.8199664825478976e-13
    vertex 2863.2779236947936 256.51445487670986 2.1882939904571683e-12
    vertex 2868.8341736947937 256.51445487671 2.8199664825478976e-13
  endloop
endfacet
facet normal -1.0 0.0 3.5216274341109965e-13
  outer loop
    vertex 2863.2779236947936 256.51445487670986 2.1882939904571683e-12
    vertex 2863.2779236948177 249.84695487670996 64.85000000000218
    vertex 2863.2779236948177 256.51445487670986 64.85000000000218
  endloop
endfacet
facet normal -1.0 0.0 3.5216274341109965e-13
  outer loop
    vertex 2863.2779236948177 249.84695487670996 64.85000000000218
    vertex 2863.2779236947936 256.51445487670986 2.1882939904571683e-12
    vertex 2863.277923694794 249.84695487670996 2.1882939904571683e-12
  endloop
endfacet
facet normal -2.1316282072803006e-14 1.0 7.5162667049458e-27
  outer loop
    vertex 2863.2779236948177 256.51445487670986 64.85000000000218
    vertex 2868.8341736947937 256.51445487671 2.8199664825478976e-13
    vertex 2863.2779236947936 256.51445487670986 2.1882939904571683e-12
  endloop
endfacet
facet normal -2.1316282072803006e-14 1.0 7.5162667049458e-27
  outer loop
    vertex 2868.8341736947937 256.51445487671 2.8199664825478976e-13
    vertex 2863.2779236948177 256.51445487670986 64.85000000000218
    vertex 2868.8341736948178 256.51445487671 64.85000000000028
  endloop
endfacet
endsolid box draft 1
