solid box draft 1
facet normal -1.0 -0.0 -0.0
  outer loop
    vertex 2831.109390961738 761.3680956302613 66.80000000000578
    vertex 2831.109390961738 685.1680956302608 60.45000000000578
    vertex 2831.109390961738 685.1680956302608 66.80000000000578
  endloop
endfacet
facet normal -1.0 -0.0 -0.0
  outer loop
    vertex 2831.109390961738 685.1680956302608 60.45000000000578
    vertex 2831.109390961738 761.3680956302613 66.80000000000578
    vertex 2831.109390961738 761.3680956302613 60.45000000000578
  endloop
endfacet
facet normal 0.0 -1.0 0.0
  outer loop
    vertex 2878.7343909617402 685.1680956302608 66.80000000000578
    vertex 2831.109390961738 685.1680956302608 60.45000000000578
    vertex 2878.7343909617402 685.1680956302608 60.45000000000578
  endloop
endfacet
facet normal 0.0 -1.0 0.0
  outer loop
    vertex 2831.109390961738 685.1680956302608 60.45000000000578
    vertex 2878.7343909617402 685.1680956302608 66.80000000000578
    vertex 2831.109390961738 685.1680956302608 66.80000000000578
  endloop
endfacet
facet normal 0.0 1.0 0.0
  outer loop
    vertex 2831.109390961738 761.3680956302613 66.80000000000578
    vertex 2878.7343909617402 761.3680956302613 60.45000000000578
    vertex 2831.109390961738 761.3680956302613 60.45000000000578
  endloop
endfacet
facet normal 0.0 1.0 0.0
  outer loop
    vertex 2878.7343909617402 761.3680956302613 60.45000000000578
    vertex 2831.109390961738 761.3680956302613 66.80000000000578
    vertex 2878.7343909617402 761.3680956302613 66.80000000000578
  endloop
endfacet
facet normal 0.0 0.0 1.0
  outer loop
    vertex 2878.7343909617402 685.1680956302608 66.80000000000578
    vertex 2831.109390961738 761.3680956302613 66.80000000000578
    vertex 2831.109390961738 685.1680956302608 66.80000000000578
  endloop
endfacet
facet normal 0.0 0.0 1.0
  outer loop
    vertex 2831.109390961738 761.3680956302613 66.80000000000578
    vertex 2878.7343909617402 685.1680956302608 66.80000000000578
    vertex 2878.7343909617402 761.3680956302613 66.80000000000578
  endloop
endfacet
facet normal -0.0 -0.0 -1.0
  outer loop
    vertex 2853.281022463582 729.3246346397171 66.8000000000058
    vertex 2851.413367262428 727.3635966785055 66.8000000000058
    vertex 2851.413367262428 729.1778903024837 66.8000000000058
  endloop
endfacet
facet normal -0.0 -0.0 -1.0
  outer loop
    vertex 2851.413367262428 727.3635966785055 66.8000000000058
    vertex 2853.281022463582 729.3246346397171 66.8000000000058
    vertex 2856.322632362604 727.3635966785055 66.8000000000058
  endloop
endfacet
facet normal -0.0 -0.0 -1.0
  outer loop
    vertex 2856.322632362604 727.3635966785055 66.8000000000058
    vertex 2853.281022463582 729.3246346397171 66.8000000000058
    vertex 2854.9218909617384 729.8715908057694 66.8000000000058
  endloop
endfacet
facet normal -0.0 -0.0 -1.0
  outer loop
    vertex 2856.322632362604 727.3635966785055 66.8000000000058
    vertex 2854.9218909617384 729.8715908057694 66.8000000000058
    vertex 2856.162547631077 730.965503137874 66.8000000000058
  endloop
endfacet
facet normal -0.0 -0.0 -1.0
  outer loop
    vertex 2856.322632362604 727.3635966785055 66.8000000000058
    vertex 2856.162547631077 730.965503137874 66.8000000000058
    vertex 2856.589440648695 731.7525859343036 66.8000000000058
  endloop
endfacet
facet normal -0.0 -0.0 -1.0
  outer loop
    vertex 2856.322632362604 727.3635966785055 66.8000000000058
    vertex 2856.589440648695 731.7525859343036 66.8000000000058
    vertex 2856.322632362604 713.8097560758448 66.8000000000058
  endloop
endfacet
facet normal -0.0 -0.0 -1.0
  outer loop
    vertex 2856.322632362604 713.8097560758448 66.8000000000058
    vertex 2856.589440648695 731.7525859343036 66.8000000000058
    vertex 2858.590499392577 713.8097560758448 66.8000000000058
  endloop
endfacet
facet normal -0.0 -0.0 -1.0
  outer loop
    vertex 2858.590499392577 713.8097560758448 66.8000000000058
    vertex 2856.589440648695 731.7525859343036 66.8000000000058
    vertex 2856.8562481343624 732.7264351846763 66.8000000000058
  endloop
endfacet
facet normal -0.0 -0.0 -1.0
  outer loop
    vertex 2858.590499392577 713.8097560758448 66.8000000000058
    vertex 2856.8562481343624 732.7264351846763 66.8000000000058
    vertex 2858.590499392577 732.7264351846763 66.8000000000058
  endloop
endfacet
facet normal 0.0 0.0 1.0
  outer loop
    vertex 2858.590499392577 713.8097560758448 69.97500000000579
    vertex 2856.322632362604 727.3635966785055 69.97500000000579
    vertex 2856.322632362604 713.8097560758448 69.97500000000579
  endloop
endfacet
facet normal 0.0 0.0 1.0
  outer loop
    vertex 2856.322632362604 727.3635966785055 69.97500000000579
    vertex 2858.590499392577 713.8097560758448 69.97500000000579
    vertex 2856.589440648695 731.7525859343036 69.97500000000579
  endloop
endfacet
facet normal 0.0 0.0 1.0
  outer loop
    vertex 2856.589440648695 731.7525859343036 69.97500000000579
    vertex 2858.590499392577 713.8097560758448 69.97500000000579
    vertex 2856.8562481343624 732.7264351846763 69.97500000000579
  endloop
endfacet
facet normal 0.0 0.0 1.0
  outer loop
    vertex 2856.8562481343624 732.7264351846763 69.97500000000579
    vertex 2858.590499392577 713.8097560758448 69.97500000000579
    vertex 2858.590499392577 732.7264351846763 69.97500000000579
  endloop
endfacet
facet normal 0.0 0.0 1.0
  outer loop
    vertex 2856.322632362604 727.3635966785055 69.97500000000579
    vertex 2851.413367262428 729.1778903024837 69.97500000000579
    vertex 2851.413367262428 727.3635966785055 69.97500000000579
  endloop
endfacet
facet normal 0.0 0.0 1.0
  outer loop
    vertex 2851.413367262428 729.1778903024837 69.97500000000579
    vertex 2856.322632362604 727.3635966785055 69.97500000000579
    vertex 2853.281022463582 729.3246346397171 69.97500000000579
  endloop
endfacet
facet normal 0.0 0.0 1.0
  outer loop
    vertex 2853.281022463582 729.3246346397171 69.97500000000579
    vertex 2856.322632362604 727.3635966785055 69.97500000000579
    vertex 2854.9218909617384 729.8715908057694 69.97500000000579
  endloop
endfacet
facet normal 0.0 0.0 1.0
  outer loop
    vertex 2854.9218909617384 729.8715908057694 69.97500000000579
    vertex 2856.322632362604 727.3635966785055 69.97500000000579
    vertex 2856.162547631077 730.965503137874 69.97500000000579
  endloop
endfacet
facet normal 0.0 0.0 1.0
  outer loop
    vertex 2856.162547631077 730.965503137874 69.97500000000579
    vertex 2856.322632362604 727.3635966785055 69.97500000000579
    vertex 2856.589440648695 731.7525859343036 69.97500000000579
  endloop
endfacet
facet normal 1.0 0.0 0.0
  outer loop
    vertex 2858.590499392577 732.7264351846763 66.8000000000058
    vertex 2858.590499392577 713.8097560758448 69.97500000000579
    vertex 2858.590499392577 713.8097560758448 66.8000000000058
  endloop
endfacet
facet normal 1.0 0.0 0.0
  outer loop
    vertex 2858.590499392577 713.8097560758448 69.97500000000579
    vertex 2858.590499392577 732.7264351846763 66.8000000000058
    vertex 2858.590499392577 732.7264351846763 69.97500000000579
  endloop
endfacet
facet normal 0.0 -1.0 0.0
  outer loop
    vertex 2858.590499392577 713.8097560758448 69.97500000000579
    vertex 2856.322632362604 713.8097560758448 66.8000000000058
    vertex 2858.590499392577 713.8097560758448 66.8000000000058
  endloop
endfacet
facet normal 0.0 -1.0 0.0
  outer loop
    vertex 2856.322632362604 713.8097560758448 66.8000000000058
    vertex 2858.590499392577 713.8097560758448 69.97500000000579
    vertex 2856.322632362604 713.8097560758448 69.97500000000579
  endloop
endfacet
facet normal -1.0 0.0 0.0
  outer loop
    vertex 2856.322632362604 727.3635966785055 69.97500000000579
    vertex 2856.322632362604 713.8097560758448 66.8000000000058
    vertex 2856.322632362604 713.8097560758448 69.97500000000579
  endloop
endfacet
facet normal -1.0 0.0 0.0
  outer loop
    vertex 2856.322632362604 713.8097560758448 66.8000000000058
    vertex 2856.322632362604 727.3635966785055 69.97500000000579
    vertex 2856.322632362604 727.3635966785055 66.8000000000058
  endloop
endfacet
facet normal 0.0 -1.0 0.0
  outer loop
    vertex 2856.322632362604 727.3635966785055 69.97500000000579
    vertex 2851.413367262428 727.3635966785055 66.8000000000058
    vertex 2856.322632362604 727.3635966785055 66.8000000000058
  endloop
endfacet
facet normal 0.0 -1.0 0.0
  outer loop
    vertex 2851.413367262428 727.3635966785055 66.8000000000058
    vertex 2856.322632362604 727.3635966785055 69.97500000000579
    vertex 2851.413367262428 727.3635966785055 69.97500000000579
  endloop
endfacet
facet normal -1.0 0.0 0.0
  outer loop
    vertex 2851.413367262428 729.1778903024837 69.97500000000579
    vertex 2851.413367262428 727.3635966785055 66.8000000000058
    vertex 2851.413367262428 727.3635966785055 69.97500000000579
  endloop
endfacet
facet normal -1.0 0.0 0.0
  outer loop
    vertex 2851.413367262428 727.3635966785055 66.8000000000058
    vertex 2851.413367262428 729.1778903024837 69.97500000000579
    vertex 2851.413367262428 729.1778903024837 66.8000000000058
  endloop
endfacet
facet normal -0.07833001660567326 0.9969274840722142 0.0
  outer loop
    vertex 2851.413367262428 729.1778903024837 69.97500000000579
    vertex 2853.281022463582 729.3246346397171 66.8000000000058
    vertex 2851.413367262428 729.1778903024837 66.8000000000058
  endloop
endfacet
facet normal -0.07833001660567326 0.9969274840722142 0.0
  outer loop
    vertex 2853.281022463582 729.3246346397171 66.8000000000058
    vertex 2851.413367262428 729.1778903024837 69.97500000000579
    vertex 2853.281022463582 729.3246346397171 69.97500000000579
  endloop
endfacet
facet normal -0.31622776601683766 0.9486832980505139 0.0
  outer loop
    vertex 2853.281022463582 729.3246346397171 69.97500000000579
    vertex 2854.9218909617384 729.8715908057694 66.8000000000058
    vertex 2853.281022463582 729.3246346397171 66.8000000000058
  endloop
endfacet
facet normal -0.31622776601683766 0.9486832980505139 0.0
  outer loop
    vertex 2854.9218909617384 729.8715908057694 66.8000000000058
    vertex 2853.281022463582 729.3246346397171 69.97500000000579
    vertex 2854.9218909617384 729.8715908057694 69.97500000000579
  endloop
endfacet
facet normal -0.661354843955472 0.7500731766812047 0.0
  outer loop
    vertex 2854.9218909617384 729.8715908057694 69.97500000000579
    vertex 2856.162547631077 730.965503137874 66.8000000000058
    vertex 2854.9218909617384 729.8715908057694 66.8000000000058
  endloop
endfacet
facet normal -0.661354843955472 0.7500731766812047 0.0
  outer loop
    vertex 2856.162547631077 730.965503137874 66.8000000000058
    vertex 2854.9218909617384 729.8715908057694 69.97500000000579
    vertex 2856.162547631077 730.965503137874 69.97500000000579
  endloop
endfacet
facet normal -0.8790315498484833 0.47676360428515674 0.0
  outer loop
    vertex 2856.589440648695 731.7525859343036 69.97500000000579
    vertex 2856.162547631077 730.965503137874 66.8000000000058
    vertex 2856.162547631077 730.965503137874 69.97500000000579
  endloop
endfacet
facet normal -0.8790315498484833 0.47676360428515674 0.0
  outer loop
    vertex 2856.162547631077 730.965503137874 66.8000000000058
    vertex 2856.589440648695 731.7525859343036 69.97500000000579
    vertex 2856.589440648695 731.7525859343036 66.8000000000058
  endloop
endfacet
facet normal -0.9644584201304174 0.26423466055674727 0.0
  outer loop
    vertex 2856.8562481343624 732.7264351846763 69.97500000000579
    vertex 2856.589440648695 731.7525859343036 66.8000000000058
    vertex 2856.589440648695 731.7525859343036 69.97500000000579
  endloop
endfacet
facet normal -0.9644584201304174 0.26423466055674727 0.0
  outer loop
    vertex 2856.589440648695 731.7525859343036 66.8000000000058
    vertex 2856.8562481343624 732.7264351846763 69.97500000000579
    vertex 2856.8562481343624 732.7264351846763 66.8000000000058
  endloop
endfacet
facet normal 0.0 1.0 0.0
  outer loop
    vertex 2856.8562481343624 732.7264351846763 69.97500000000579
    vertex 2858.590499392577 732.7264351846763 66.8000000000058
    vertex 2856.8562481343624 732.7264351846763 66.8000000000058
  endloop
endfacet
facet normal 0.0 1.0 0.0
  outer loop
    vertex 2858.590499392577 732.7264351846763 66.8000000000058
    vertex 2856.8562481343624 732.7264351846763 69.97500000000579
    vertex 2858.590499392577 732.7264351846763 69.97500000000579
  endloop
endfacet
facet normal 0.0 0.0 -1.0
  outer loop
    vertex 2878.7343909617402 761.3680956302613 60.45000000000578
    vertex 2831.109390961738 685.1680956302608 60.45000000000578
    vertex 2831.109390961738 761.3680956302613 60.45000000000578
  endloop
endfacet
facet normal 0.0 0.0 -1.0
  outer loop
    vertex 2831.109390961738 685.1680956302608 60.45000000000578
    vertex 2878.7343909617402 761.3680956302613 60.45000000000578
    vertex 2878.7343909617402 685.1680956302608 60.45000000000578
  endloop
endfacet
facet normal 1.0 0.0 0.0
  outer loop
    vertex 2878.7343909617402 761.3680956302613 60.45000000000578
    vertex 2878.7343909617402 685.1680956302608 66.80000000000578
    vertex 2878.7343909617402 685.1680956302608 60.45000000000578
  endloop
endfacet
facet normal 1.0 0.0 0.0
  outer loop
    vertex 2878.7343909617402 685.1680956302608 66.80000000000578
    vertex 2878.7343909617402 761.3680956302613 60.45000000000578
    vertex 2878.7343909617402 761.3680956302613 66.80000000000578
  endloop
endfacet
endsolid box draft 1
