solid box draft 1
facet normal 1.3899203214067355e-14 -1.0 -4.897867778180774e-27
  outer loop
    vertex 2784.9983866630155 239.4218740909465 -47.500000000002515
    vertex 2778.648386663039 239.4218740909464 17.349999999999714
    vertex 2778.6483866630156 239.4218740909464 -47.500000000000284
  endloop
endfacet
facet normal 1.3899203214067355e-14 -1.0 -4.897867778180774e-27
  outer loop
    vertex 2740.548386663015 239.42187409094586 -47.49999999998685
    vertex 2734.1983866630408 239.42187409094578 22.350000000015378
    vertex 2734.1983866630153 239.42187409094578 -47.49999999998462
  endloop
endfacet
facet normal 1.3899203214067355e-14 -1.0 -4.897867778180774e-27
  outer loop
    vertex 2734.1983866630408 239.42187409094578 22.350000000015378
    vertex 2740.548386663015 239.42187409094586 -47.49999999998685
    vertex 2740.5483866630393 239.42187409094586 17.350000000013136
  endloop
endfacet
facet normal 1.3899203214067355e-14 -1.0 -4.897867778180774e-27
  outer loop
    vertex 2734.1983866630408 239.42187409094578 22.350000000015378
    vertex 2740.5483866630393 239.42187409094586 17.350000000013136
    vertex 2784.998386663041 239.4218740909465 22.34999999999748
  endloop
endfacet
facet normal 1.3899203214067355e-14 -1.0 -4.897867778180774e-27
  outer loop
    vertex 2784.998386663041 239.4218740909465 22.34999999999748
    vertex 2740.5483866630393 239.42187409094586 17.350000000013136
    vertex 2778.648386663039 239.4218740909464 17.349999999999714
  endloop
endfacet
facet normal 1.3899203214067355e-14 -1.0 -4.897867778180774e-27
  outer loop
    vertex 2784.998386663041 239.4218740909465 22.34999999999748
    vertex 2778.648386663039 239.4218740909464 17.349999999999714
    vertex 2784.9983866630155 239.4218740909465 -47.500000000002515
  endloop
endfacet
facet normal 1.0 1.3899203214067355e-14 -3.523847880160247e-13
  outer loop
    vertex 2784.998386663041 239.4218740909465 22.34999999999748
    vertex 2784.998386663039 245.7718740909465 17.349999999997475
    vertex 2784.99838666304 321.97187409094647 22.34999999999748
  endloop
endfacet
facet normal 1.0 1.3899203214067355e-14 -3.523847880160247e-13
  outer loop
    vertex 2784.998386663039 245.7718740909465 17.349999999997475
    vertex 2784.998386663041 239.4218740909465 22.34999999999748
    vertex 2784.9983866630155 239.4218740909465 -47.500000000002515
  endloop
endfacet
facet normal 1.0 1.3899203214067355e-14 -3.523847880160247e-13
  outer loop
    vertex 2784.998386663039 245.7718740909465 17.349999999997475
    vertex 2784.9983866630155 239.4218740909465 -47.500000000002515
    vertex 2784.9983866630155 245.7718740909465 -47.500000000002515
  endloop
endfacet
facet normal 1.0 1.3899203214067355e-14 -3.523847880160247e-13
  outer loop
    vertex 2784.99838666304 321.97187409094647 22.34999999999748
    vertex 2784.998386663038 315.6218740909465 17.349999999997475
    vertex 2784.9983866630155 321.97187409094647 -47.50000000000251
  endloop
endfacet
facet normal 1.0 1.3899203214067355e-14 -3.523847880160247e-13
  outer loop
    vertex 2784.998386663038 315.6218740909465 17.349999999997475
    vertex 2784.99838666304 321.97187409094647 22.34999999999748
    vertex 2784.998386663039 245.7718740909465 17.349999999997475
  endloop
endfacet
facet normal 1.0 1.3899203214067355e-14 -3.523847880160247e-13
  outer loop
    vertex 2784.9983866630155 321.97187409094647 -47.50000000000251
    vertex 2784.998386663038 315.6218740909465 17.349999999997475
    vertex 2784.9983866630155 315.6218740909465 -47.50000000000251
  endloop
endfacet
facet normal -1.3899203214067355e-14 1.0 4.897867778180774e-27
  outer loop
    vertex 2734.19838666304 321.9718740909458 22.350000000015378
    vertex 2740.5483866630148 321.97187409094585 -47.499999999986876
    vertex 2734.198386663015 321.9718740909458 -47.49999999998464
  endloop
endfacet
facet normal -1.3899203214067355e-14 1.0 4.897867778180774e-27
  outer loop
    vertex 2740.5483866630148 321.97187409094585 -47.499999999986876
    vertex 2734.19838666304 321.9718740909458 22.350000000015378
    vertex 2740.548386663038 321.97187409094585 17.350000000013143
  endloop
endfacet
facet normal -1.3899203214067355e-14 1.0 4.897867778180774e-27
  outer loop
    vertex 2740.548386663038 321.97187409094585 17.350000000013143
    vertex 2734.19838666304 321.9718740909458 22.350000000015378
    vertex 2784.99838666304 321.97187409094647 22.34999999999748
  endloop
endfacet
facet normal -1.3899203214067355e-14 1.0 4.897867778180774e-27
  outer loop
    vertex 2740.548386663038 321.97187409094585 17.350000000013143
    vertex 2784.99838666304 321.97187409094647 22.34999999999748
    vertex 2778.648386663038 321.9718740909464 17.349999999999714
  endloop
endfacet
facet normal -1.3899203214067355e-14 1.0 4.897867778180774e-27
  outer loop
    vertex 2778.648386663038 321.9718740909464 17.349999999999714
    vertex 2784.99838666304 321.97187409094647 22.34999999999748
    vertex 2778.648386663015 321.9718740909464 -47.50000000000028
  endloop
endfacet
facet normal -1.3899203214067355e-14 1.0 4.897867778180774e-27
  outer loop
    vertex 2778.648386663015 321.9718740909464 -47.50000000000028
    vertex 2784.99838666304 321.97187409094647 22.34999999999748
    vertex 2784.9983866630155 321.97187409094647 -47.50000000000251
  endloop
endfacet
facet normal -1.0 -1.3899203214067355e-14 3.523847880160247e-13
  outer loop
    vertex 2734.19838666304 321.9718740909458 22.350000000015378
    vertex 2734.198386663038 315.62187409094577 17.350000000015378
    vertex 2734.1983866630408 239.42187409094578 22.350000000015378
  endloop
endfacet
facet normal -1.0 -1.3899203214067355e-14 3.523847880160247e-13
  outer loop
    vertex 2734.198386663038 315.62187409094577 17.350000000015378
    vertex 2734.19838666304 321.9718740909458 22.350000000015378
    vertex 2734.198386663015 321.9718740909458 -47.49999999998464
  endloop
endfacet
facet normal -1.0 -1.3899203214067355e-14 3.523847880160247e-13
  outer loop
    vertex 2734.198386663038 315.62187409094577 17.350000000015378
    vertex 2734.198386663015 321.9718740909458 -47.49999999998464
    vertex 2734.198386663015 315.62187409094577 -47.49999999998464
  endloop
endfacet
facet normal -1.0 -1.3899203214067355e-14 3.523847880160247e-13
  outer loop
    vertex 2734.1983866630408 239.42187409094578 22.350000000015378
    vertex 2734.198386663039 245.77187409094577 17.350000000015378
    vertex 2734.1983866630153 239.42187409094578 -47.49999999998462
  endloop
endfacet
facet normal -1.0 -1.3899203214067355e-14 3.523847880160247e-13
  outer loop
    vertex 2734.198386663039 245.77187409094577 17.350000000015378
    vertex 2734.1983866630408 239.42187409094578 22.350000000015378
    vertex 2734.198386663038 315.62187409094577 17.350000000015378
  endloop
endfacet
facet normal -1.0 -1.3899203214067355e-14 3.523847880160247e-13
  outer loop
    vertex 2734.1983866630153 239.42187409094578 -47.49999999998462
    vertex 2734.198386663039 245.77187409094577 17.350000000015378
    vertex 2734.1983866630153 245.77187409094577 -47.49999999998462
  endloop
endfacet
facet normal 3.523847880160246e-13 4.638016669834797e-27 1.0
  outer loop
    vertex 2769.123386663042 261.64687409094654 22.35000000000307
    vertex 2750.073386663043 256.88437409094564 22.350000000009782
    vertex 2769.123386663042 256.8843740909458 22.35000000000307
  endloop
endfacet
facet normal 3.523847880160246e-13 4.638016669834797e-27 1.0
  outer loop
    vertex 2750.073386663043 256.88437409094564 22.350000000009782
    vertex 2769.123386663042 261.64687409094654 22.35000000000307
    vertex 2750.073386663043 266.40937409094516 22.350000000009782
  endloop
endfacet
facet normal 3.523847880160246e-13 4.638016669834797e-27 1.0
  outer loop
    vertex 2750.073386663043 266.40937409094516 22.350000000009782
    vertex 2769.123386663042 261.64687409094654 22.35000000000307
    vertex 2769.123386663042 266.40937409094556 22.35000000000307
  endloop
endfacet
facet normal 3.523847880160246e-13 4.638016669834797e-27 1.0
  outer loop
    vertex 2784.998386663041 239.4218740909465 22.34999999999748
    vertex 2772.2983866630425 256.88437409094615 22.350000000001952
    vertex 2734.1983866630408 239.42187409094578 22.350000000015378
  endloop
endfacet
facet normal 3.523847880160246e-13 4.638016669834797e-27 1.0
  outer loop
    vertex 2772.2983866630425 256.88437409094615 22.350000000001952
    vertex 2784.998386663041 239.4218740909465 22.34999999999748
    vertex 2784.99838666304 321.97187409094647 22.34999999999748
  endloop
endfacet
facet normal 3.523847880160246e-13 4.638016669834797e-27 1.0
  outer loop
    vertex 2734.1983866630408 239.42187409094578 22.350000000015378
    vertex 2772.2983866630425 256.88437409094615 22.350000000001952
    vertex 2769.123386663042 256.8843740909458 22.35000000000307
  endloop
endfacet
facet normal 3.523847880160246e-13 4.638016669834797e-27 1.0
  outer loop
    vertex 2772.2983866630425 256.88437409094615 22.350000000001952
    vertex 2784.99838666304 321.97187409094647 22.34999999999748
    vertex 2772.2983866630425 261.64687409094665 22.350000000001952
  endloop
endfacet
facet normal 3.523847880160246e-13 4.638016669834797e-27 1.0
  outer loop
    vertex 2772.2983866630425 261.64687409094665 22.350000000001952
    vertex 2784.99838666304 321.97187409094647 22.34999999999748
    vertex 2772.2983866630407 266.40937409094647 22.350000000001952
  endloop
endfacet
facet normal 3.523847880160246e-13 4.638016669834797e-27 1.0
  outer loop
    vertex 2772.2983866630407 266.40937409094647 22.350000000001952
    vertex 2784.99838666304 321.97187409094647 22.34999999999748
    vertex 2772.29838666304 294.98437409094515 22.350000000001952
  endloop
endfacet
facet normal 3.523847880160246e-13 4.638016669834797e-27 1.0
  outer loop
    vertex 2772.29838666304 294.98437409094515 22.350000000001952
    vertex 2784.99838666304 321.97187409094647 22.34999999999748
    vertex 2772.29838666304 304.5093740909466 22.350000000001952
  endloop
endfacet
facet normal 3.523847880160246e-13 4.638016669834797e-27 1.0
  outer loop
    vertex 2772.29838666304 304.5093740909466 22.350000000001952
    vertex 2784.99838666304 321.97187409094647 22.34999999999748
    vertex 2769.1233866630423 304.50937409094655 22.35000000000307
  endloop
endfacet
facet normal 3.523847880160246e-13 4.638016669834797e-27 1.0
  outer loop
    vertex 2769.1233866630423 304.50937409094655 22.35000000000307
    vertex 2784.99838666304 321.97187409094647 22.34999999999748
    vertex 2750.0733866630403 304.50937409094627 22.350000000009782
  endloop
endfacet
facet normal 3.523847880160246e-13 4.638016669834797e-27 1.0
  outer loop
    vertex 2734.1983866630408 239.42187409094578 22.350000000015378
    vertex 2746.898386663041 256.8843740909456 22.350000000010905
    vertex 2734.19838666304 321.9718740909458 22.350000000015378
  endloop
endfacet
facet normal 3.523847880160246e-13 4.638016669834797e-27 1.0
  outer loop
    vertex 2746.898386663041 256.8843740909456 22.350000000010905
    vertex 2734.1983866630408 239.42187409094578 22.350000000015378
    vertex 2769.123386663042 256.8843740909458 22.35000000000307
  endloop
endfacet
facet normal 3.523847880160246e-13 4.638016669834797e-27 1.0
  outer loop
    vertex 2746.898386663041 256.8843740909456 22.350000000010905
    vertex 2769.123386663042 256.8843740909458 22.35000000000307
    vertex 2750.073386663043 256.88437409094564 22.350000000009782
  endloop
endfacet
facet normal 3.523847880160246e-13 4.638016669834797e-27 1.0
  outer loop
    vertex 2734.19838666304 321.9718740909458 22.350000000015378
    vertex 2746.898386663041 256.8843740909456 22.350000000010905
    vertex 2746.8983866630406 266.40937409094505 22.350000000010905
  endloop
endfacet
facet normal 3.523847880160246e-13 4.638016669834797e-27 1.0
  outer loop
    vertex 2734.19838666304 321.9718740909458 22.350000000015378
    vertex 2746.8983866630406 266.40937409094505 22.350000000010905
    vertex 2750.073386663043 266.40937409094516 22.350000000009782
  endloop
endfacet
facet normal 3.523847880160246e-13 4.638016669834797e-27 1.0
  outer loop
    vertex 2734.19838666304 321.9718740909458 22.350000000015378
    vertex 2750.073386663043 266.40937409094516 22.350000000009782
    vertex 2746.8983866630415 294.9843740909461 22.350000000010905
  endloop
endfacet
facet normal 3.523847880160246e-13 4.638016669834797e-27 1.0
  outer loop
    vertex 2746.8983866630415 294.9843740909461 22.350000000010905
    vertex 2750.073386663043 266.40937409094516 22.350000000009782
    vertex 2769.123386663042 266.40937409094556 22.35000000000307
  endloop
endfacet
facet normal 3.523847880160246e-13 4.638016669834797e-27 1.0
  outer loop
    vertex 2746.8983866630415 294.9843740909461 22.350000000010905
    vertex 2769.123386663042 266.40937409094556 22.35000000000307
    vertex 2772.2983866630407 266.40937409094647 22.350000000001952
  endloop
endfacet
facet normal 3.523847880160246e-13 4.638016669834797e-27 1.0
  outer loop
    vertex 2746.8983866630415 294.9843740909461 22.350000000010905
    vertex 2772.2983866630407 266.40937409094647 22.350000000001952
    vertex 2750.073386663043 294.9843740909452 22.350000000009782
  endloop
endfacet
facet normal 3.523847880160246e-13 4.638016669834797e-27 1.0
  outer loop
    vertex 2750.073386663043 294.9843740909452 22.350000000009782
    vertex 2772.2983866630407 266.40937409094647 22.350000000001952
    vertex 2772.29838666304 294.98437409094515 22.350000000001952
  endloop
endfacet
facet normal 3.523847880160246e-13 4.638016669834797e-27 1.0
  outer loop
    vertex 2750.073386663043 294.9843740909452 22.350000000009782
    vertex 2772.29838666304 294.98437409094515 22.350000000001952
    vertex 2769.123386663042 294.9843740909452 22.35000000000307
  endloop
endfacet
facet normal 3.523847880160246e-13 4.638016669834797e-27 1.0
  outer loop
    vertex 2734.19838666304 321.9718740909458 22.350000000015378
    vertex 2746.8983866630415 294.9843740909461 22.350000000010905
    vertex 2746.8983866630433 299.7468740909454 22.350000000010905
  endloop
endfacet
facet normal 3.523847880160246e-13 4.638016669834797e-27 1.0
  outer loop
    vertex 2734.19838666304 321.9718740909458 22.350000000015378
    vertex 2746.8983866630433 299.7468740909454 22.350000000010905
    vertex 2746.8983866630406 304.5093740909459 22.350000000010905
  endloop
endfacet
facet normal 3.523847880160246e-13 4.638016669834797e-27 1.0
  outer loop
    vertex 2734.19838666304 321.9718740909458 22.350000000015378
    vertex 2746.8983866630406 304.5093740909459 22.350000000010905
    vertex 2750.0733866630403 304.50937409094627 22.350000000009782
  endloop
endfacet
facet normal 3.523847880160246e-13 4.638016669834797e-27 1.0
  outer loop
    vertex 2734.19838666304 321.9718740909458 22.350000000015378
    vertex 2750.0733866630403 304.50937409094627 22.350000000009782
    vertex 2784.99838666304 321.97187409094647 22.34999999999748
  endloop
endfacet
facet normal 3.523847880160246e-13 4.638016669834797e-27 1.0
  outer loop
    vertex 2769.1233866630423 304.50937409094655 22.35000000000307
    vertex 2750.073386663043 294.9843740909452 22.350000000009782
    vertex 2769.123386663042 294.9843740909452 22.35000000000307
  endloop
endfacet
facet normal 3.523847880160246e-13 4.638016669834797e-27 1.0
  outer loop
    vertex 2750.073386663043 294.9843740909452 22.350000000009782
    vertex 2769.1233866630423 304.50937409094655 22.35000000000307
    vertex 2750.073386663044 299.7468740909461 22.350000000009782
  endloop
endfacet
facet normal 3.523847880160246e-13 4.638016669834797e-27 1.0
  outer loop
    vertex 2750.073386663044 299.7468740909461 22.350000000009782
    vertex 2769.1233866630423 304.50937409094655 22.35000000000307
    vertex 2750.0733866630403 304.50937409094627 22.350000000009782
  endloop
endfacet
facet normal 1.0 3.0316490059094875e-13 -4.331468517192912e-13
  outer loop
    vertex 2746.898386663041 299.74687409094656 17.3500000000109
    vertex 2746.8983866630406 304.5093740909459 22.350000000010905
    vertex 2746.8983866630433 299.7468740909454 22.350000000010905
  endloop
endfacet
facet normal 1.0 3.0316490059094875e-13 -4.331468517192912e-13
  outer loop
    vertex 2746.8983866630406 304.5093740909459 22.350000000010905
    vertex 2746.898386663041 299.74687409094656 17.3500000000109
    vertex 2746.8983866630397 304.50937409094695 17.3500000000109
  endloop
endfacet
facet normal 1.0 -2.652692880171464e-13 -5.414335646492607e-13
  outer loop
    vertex 2746.8983866630383 294.98437409094737 17.3500000000109
    vertex 2746.8983866630433 299.7468740909454 22.350000000010905
    vertex 2746.8983866630415 294.9843740909461 22.350000000010905
  endloop
endfacet
facet normal 1.0 -2.652692880171464e-13 -5.414335646492607e-13
  outer loop
    vertex 2746.8983866630433 299.7468740909454 22.350000000010905
    vertex 2746.8983866630383 294.98437409094737 17.3500000000109
    vertex 2746.898386663041 299.74687409094656 17.3500000000109
  endloop
endfacet
facet normal 2.84217094303974e-13 1.0 2.707167823244339e-13
  outer loop
    vertex 2746.8983866630415 294.9843740909461 22.350000000010905
    vertex 2750.0733866630403 294.98437409094663 17.350000000009782
    vertex 2746.8983866630383 294.98437409094737 17.3500000000109
  endloop
endfacet
facet normal 2.84217094303974e-13 1.0 2.707167823244339e-13
  outer loop
    vertex 2750.0733866630403 294.98437409094663 17.350000000009782
    vertex 2746.8983866630415 294.9843740909461 22.350000000010905
    vertex 2750.073386663043 294.9843740909452 22.350000000009782
  endloop
endfacet
facet normal -1.0 3.789561257386481e-14 5.414335646492036e-13
  outer loop
    vertex 2750.0733866630417 299.7468740909466 17.350000000009782
    vertex 2750.073386663043 294.9843740909452 22.350000000009782
    vertex 2750.073386663044 299.7468740909461 22.350000000009782
  endloop
endfacet
facet normal -1.0 3.789561257386481e-14 5.414335646492036e-13
  outer loop
    vertex 2750.073386663043 294.9843740909452 22.350000000009782
    vertex 2750.0733866630417 299.7468740909466 17.350000000009782
    vertex 2750.0733866630403 294.98437409094663 17.350000000009782
  endloop
endfacet
facet normal -1.0 -6.063298011818947e-13 5.053379936724845e-13
  outer loop
    vertex 2750.073386663039 304.50937409094735 17.350000000009782
    vertex 2750.073386663044 299.7468740909461 22.350000000009782
    vertex 2750.0733866630403 304.50937409094627 22.350000000009782
  endloop
endfacet
facet normal -1.0 -6.063298011818947e-13 5.053379936724845e-13
  outer loop
    vertex 2750.073386663044 299.7468740909461 22.350000000009782
    vertex 2750.073386663039 304.50937409094735 17.350000000009782
    vertex 2750.0733866630417 299.7468740909466 17.350000000009782
  endloop
endfacet
facet normal 9.947598300636186e-14 -1.0 -2.0754953311556829e-13
  outer loop
    vertex 2746.8983866630397 304.50937409094695 17.3500000000109
    vertex 2750.0733866630403 304.50937409094627 22.350000000009782
    vertex 2746.8983866630406 304.5093740909459 22.350000000010905
  endloop
endfacet
facet normal 9.947598300636186e-14 -1.0 -2.0754953311556829e-13
  outer loop
    vertex 2750.0733866630403 304.50937409094627 22.350000000009782
    vertex 2746.8983866630397 304.50937409094695 17.3500000000109
    vertex 2750.073386663039 304.50937409094735 17.350000000009782
  endloop
endfacet
facet normal 1.0 -7.579122514776054e-14 -3.6095570976612734e-13
  outer loop
    vertex 2769.12338666304 261.64687409094637 17.35000000000307
    vertex 2769.123386663042 266.40937409094556 22.35000000000307
    vertex 2769.123386663042 261.64687409094654 22.35000000000307
  endloop
endfacet
facet normal 1.0 -7.579122514776054e-14 -3.6095570976612734e-13
  outer loop
    vertex 2769.123386663042 266.40937409094556 22.35000000000307
    vertex 2769.12338666304 261.64687409094637 17.35000000000307
    vertex 2769.12338666304 266.4093740909453 17.35000000000307
  endloop
endfacet
facet normal 1.0 1.1368683772159879e-13 -2.5266899683629765e-13
  outer loop
    vertex 2769.123386663041 256.88437409094547 17.35000000000307
    vertex 2769.123386663042 261.64687409094654 22.35000000000307
    vertex 2769.123386663042 256.8843740909458 22.35000000000307
  endloop
endfacet
facet normal 1.0 1.1368683772159879e-13 -2.5266899683629765e-13
  outer loop
    vertex 2769.123386663042 261.64687409094654 22.35000000000307
    vertex 2769.123386663041 256.88437409094547 17.35000000000307
    vertex 2769.12338666304 261.64687409094637 17.35000000000307
  endloop
endfacet
facet normal -1.70530256582398e-13 1.0 -3.609557097658846e-14
  outer loop
    vertex 2772.2983866630425 256.88437409094615 22.350000000001952
    vertex 2769.123386663041 256.88437409094547 17.35000000000307
    vertex 2769.123386663042 256.8843740909458 22.35000000000307
  endloop
endfacet
facet normal -1.70530256582398e-13 1.0 -3.609557097658846e-14
  outer loop
    vertex 2769.123386663041 256.88437409094547 17.35000000000307
    vertex 2772.2983866630425 256.88437409094615 22.350000000001952
    vertex 2772.2983866630416 256.88437409094615 17.350000000001952
  endloop
endfacet
facet normal -1.0 -1.5158245029547082e-13 2.8876456781290745e-13
  outer loop
    vertex 2772.29838666304 261.6468740909465 17.350000000001952
    vertex 2772.2983866630425 256.88437409094615 22.350000000001952
    vertex 2772.2983866630425 261.64687409094665 22.350000000001952
  endloop
endfacet
facet normal -1.0 -1.5158245029547082e-13 2.8876456781290745e-13
  outer loop
    vertex 2772.2983866630425 256.88437409094615 22.350000000001952
    vertex 2772.29838666304 261.6468740909465 17.350000000001952
    vertex 2772.2983866630416 256.88437409094615 17.350000000001952
  endloop
endfacet
facet normal -1.0 -3.410605131648646e-13 3.9705128074275935e-13
  outer loop
    vertex 2772.298386663039 266.40937409094624 17.350000000001952
    vertex 2772.2983866630425 261.64687409094665 22.350000000001952
    vertex 2772.2983866630407 266.40937409094647 22.350000000001952
  endloop
endfacet
facet normal -1.0 -3.410605131648646e-13 3.9705128074275935e-13
  outer loop
    vertex 2772.2983866630425 261.64687409094665 22.350000000001952
    vertex 2772.298386663039 266.40937409094624 17.350000000001952
    vertex 2772.29838666304 261.6468740909465 17.350000000001952
  endloop
endfacet
facet normal 3.1263880373460534e-13 -1.0 5.4143356464806765e-14
  outer loop
    vertex 2772.298386663039 266.40937409094624 17.350000000001952
    vertex 2769.123386663042 266.40937409094556 22.35000000000307
    vertex 2769.12338666304 266.4093740909453 17.35000000000307
  endloop
endfacet
facet normal 3.1263880373460534e-13 -1.0 5.4143356464806765e-14
  outer loop
    vertex 2769.123386663042 266.40937409094556 22.35000000000307
    vertex 2772.298386663039 266.40937409094624 17.350000000001952
    vertex 2772.2983866630407 266.40937409094647 22.350000000001952
  endloop
endfacet
facet normal 2.842170943038139e-14 -1.0 -1.0258988318746803e-26
  outer loop
    vertex 2750.073386663041 266.40937409094516 17.350000000009796
    vertex 2746.8983866630406 266.40937409094505 22.350000000010905
    vertex 2746.8983866630388 266.40937409094505 17.350000000010912
  endloop
endfacet
facet normal 2.842170943038139e-14 -1.0 -1.0258988318746803e-26
  outer loop
    vertex 2746.8983866630406 266.40937409094505 22.350000000010905
    vertex 2750.073386663041 266.40937409094516 17.350000000009796
    vertex 2750.073386663043 266.40937409094516 22.350000000009782
  endloop
endfacet
facet normal 1.0 5.684341886081125e-14 -3.248601387895184e-13
  outer loop
    vertex 2746.8983866630397 256.8843740909456 17.350000000010912
    vertex 2746.8983866630406 266.40937409094505 22.350000000010905
    vertex 2746.898386663041 256.8843740909456 22.350000000010905
  endloop
endfacet
facet normal 1.0 5.684341886081125e-14 -3.248601387895184e-13
  outer loop
    vertex 2746.8983866630406 266.40937409094505 22.350000000010905
    vertex 2746.8983866630397 256.8843740909456 17.350000000010912
    vertex 2746.8983866630388 266.40937409094505 17.350000000010912
  endloop
endfacet
facet normal 0.0 1.0 0.0
  outer loop
    vertex 2750.073386663043 256.88437409094564 22.350000000009782
    vertex 2746.8983866630397 256.8843740909456 17.350000000010912
    vertex 2746.898386663041 256.8843740909456 22.350000000010905
  endloop
endfacet
facet normal 0.0 1.0 0.0
  outer loop
    vertex 2746.8983866630397 256.8843740909456 17.350000000010912
    vertex 2750.073386663043 256.88437409094564 22.350000000009782
    vertex 2750.0733866630417 256.88437409094564 17.350000000009796
  endloop
endfacet
facet normal -1.0 -1.8947806286936903e-14 3.248601387895186e-13
  outer loop
    vertex 2750.073386663041 266.40937409094516 17.350000000009796
    vertex 2750.073386663043 256.88437409094564 22.350000000009782
    vertex 2750.073386663043 266.40937409094516 22.350000000009782
  endloop
endfacet
facet normal -1.0 -1.8947806286936903e-14 3.248601387895186e-13
  outer loop
    vertex 2750.073386663043 256.88437409094564 22.350000000009782
    vertex 2750.073386663041 266.40937409094516 17.350000000009796
    vertex 2750.0733866630417 256.88437409094564 17.350000000009796
  endloop
endfacet
facet normal 1.0 1.8947806286933312e-14 -2.5266899683629104e-13
  outer loop
    vertex 2769.1233866630405 294.9843740909452 17.35000000000306
    vertex 2769.1233866630423 304.50937409094655 22.35000000000307
    vertex 2769.123386663042 294.9843740909452 22.35000000000307
  endloop
endfacet
facet normal 1.0 1.8947806286933312e-14 -2.5266899683629104e-13
  outer loop
    vertex 2769.1233866630423 304.50937409094655 22.35000000000307
    vertex 2769.1233866630405 294.9843740909452 17.35000000000306
    vertex 2769.123386663042 304.50937409094655 17.35000000000306
  endloop
endfacet
facet normal 0.0 1.0 0.0
  outer loop
    vertex 2772.29838666304 294.98437409094515 22.350000000001952
    vertex 2769.1233866630405 294.9843740909452 17.35000000000306
    vertex 2769.123386663042 294.9843740909452 22.35000000000307
  endloop
endfacet
facet normal 0.0 1.0 0.0
  outer loop
    vertex 2769.1233866630405 294.9843740909452 17.35000000000306
    vertex 2772.29838666304 294.98437409094515 22.350000000001952
    vertex 2772.298386663039 294.98437409094515 17.350000000001938
  endloop
endfacet
facet normal -1.0 -3.7895612573866265e-14 2.8876456781290396e-13
  outer loop
    vertex 2772.2983866630393 304.5093740909466 17.350000000001938
    vertex 2772.29838666304 294.98437409094515 22.350000000001952
    vertex 2772.29838666304 304.5093740909466 22.350000000001952
  endloop
endfacet
facet normal -1.0 -3.7895612573866265e-14 2.8876456781290396e-13
  outer loop
    vertex 2772.29838666304 294.98437409094515 22.350000000001952
    vertex 2772.2983866630393 304.5093740909466 17.350000000001938
    vertex 2772.298386663039 294.98437409094515 17.350000000001938
  endloop
endfacet
facet normal 2.842170943042178e-14 -1.0 -7.18052841087571e-27
  outer loop
    vertex 2769.123386663042 304.50937409094655 17.35000000000306
    vertex 2772.29838666304 304.5093740909466 22.350000000001952
    vertex 2769.1233866630423 304.50937409094655 22.35000000000307
  endloop
endfacet
facet normal 2.842170943042178e-14 -1.0 -7.18052841087571e-27
  outer loop
    vertex 2772.29838666304 304.5093740909466 22.350000000001952
    vertex 2769.123386663042 304.50937409094655 17.35000000000306
    vertex 2772.2983866630393 304.5093740909466 17.350000000001938
  endloop
endfacet
facet normal -3.523847880160247e-13 2.2204460492502818e-16 -1.0
  outer loop
    vertex 2734.1983866630153 245.77187409094577 -47.49999999998462
    vertex 2740.548386663015 239.42187409094586 -47.49999999998685
    vertex 2734.1983866630153 239.42187409094578 -47.49999999998462
  endloop
endfacet
facet normal -3.523847880160247e-13 2.2204460492502818e-16 -1.0
  outer loop
    vertex 2740.548386663015 239.42187409094586 -47.49999999998685
    vertex 2734.1983866630153 245.77187409094577 -47.49999999998462
    vertex 2740.548386663015 245.77187409094586 -47.49999999998685
  endloop
endfacet
facet normal -1.4210854715201925e-14 1.0 2.2204460493003584e-16
  outer loop
    vertex 2734.198386663039 245.77187409094577 17.350000000015378
    vertex 2740.548386663015 245.77187409094586 -47.49999999998685
    vertex 2734.1983866630153 245.77187409094577 -47.49999999998462
  endloop
endfacet
facet normal -1.4210854715201925e-14 1.0 2.2204460493003584e-16
  outer loop
    vertex 2740.548386663015 245.77187409094586 -47.49999999998685
    vertex 2734.198386663039 245.77187409094577 17.350000000015378
    vertex 2740.5483866630393 245.77187409094586 17.350000000013143
  endloop
endfacet
facet normal 1.0 1.5619445923376034e-28 -3.523847880160247e-13
  outer loop
    vertex 2740.5483866630393 239.42187409094586 17.350000000013136
    vertex 2740.548386663015 245.77187409094586 -47.49999999998685
    vertex 2740.5483866630393 245.77187409094586 17.350000000013143
  endloop
endfacet
facet normal 1.0 1.5619445923376034e-28 -3.523847880160247e-13
  outer loop
    vertex 2740.548386663015 245.77187409094586 -47.49999999998685
    vertex 2740.5483866630393 239.42187409094586 17.350000000013136
    vertex 2740.548386663015 239.42187409094586 -47.49999999998685
  endloop
endfacet
facet normal -3.5216274341109965e-13 6.31088724176774e-30 -1.0
  outer loop
    vertex 2734.198386663015 321.9718740909458 -47.49999999998464
    vertex 2740.5483866630148 315.6218740909459 -47.499999999986876
    vertex 2734.198386663015 315.62187409094577 -47.49999999998464
  endloop
endfacet
facet normal -3.5216274341109965e-13 6.31088724176774e-30 -1.0
  outer loop
    vertex 2740.5483866630148 315.6218740909459 -47.499999999986876
    vertex 2734.198386663015 321.9718740909458 -47.49999999998464
    vertex 2740.5483866630148 321.97187409094585 -47.499999999986876
  endloop
endfacet
facet normal 1.0 0.0 -3.5216274341109965e-13
  outer loop
    vertex 2740.5483866630148 315.6218740909459 -47.499999999986876
    vertex 2740.548386663038 321.97187409094585 17.350000000013143
    vertex 2740.548386663038 315.6218740909459 17.350000000013143
  endloop
endfacet
facet normal 1.0 0.0 -3.5216274341109965e-13
  outer loop
    vertex 2740.548386663038 321.97187409094585 17.350000000013143
    vertex 2740.5483866630148 315.6218740909459 -47.499999999986876
    vertex 2740.5483866630148 321.97187409094585 -47.499999999986876
  endloop
endfacet
facet normal 1.4210854715202004e-14 -1.0 -5.010844469963867e-27
  outer loop
    vertex 2740.5483866630148 315.6218740909459 -47.499999999986876
    vertex 2734.198386663038 315.62187409094577 17.350000000015378
    vertex 2734.198386663015 315.62187409094577 -47.49999999998464
  endloop
endfacet
facet normal 1.4210854715202004e-14 -1.0 -5.010844469963867e-27
  outer loop
    vertex 2734.198386663038 315.62187409094577 17.350000000015378
    vertex 2740.5483866630148 315.6218740909459 -47.499999999986876
    vertex 2740.548386663038 315.6218740909459 17.350000000013143
  endloop
endfacet
facet normal -3.524043801870475e-13 1.4046617338071786e-17 -1.0
  outer loop
    vertex 2769.123386663041 256.88437409094547 17.35000000000307
    vertex 2750.0733866630417 256.88437409094564 17.350000000009796
    vertex 2769.12338666304 261.64687409094637 17.35000000000307
  endloop
endfacet
facet normal -3.524043801870475e-13 1.4046617338071786e-17 -1.0
  outer loop
    vertex 2750.0733866630417 256.88437409094564 17.350000000009796
    vertex 2769.123386663041 256.88437409094547 17.35000000000307
    vertex 2746.8983866630397 256.8843740909456 17.350000000010912
  endloop
endfacet
facet normal -3.524043801870475e-13 1.4046617338071786e-17 -1.0
  outer loop
    vertex 2769.12338666304 261.64687409094637 17.35000000000307
    vertex 2750.0733866630417 256.88437409094564 17.350000000009796
    vertex 2750.073386663041 266.40937409094516 17.350000000009796
  endloop
endfacet
facet normal -3.524043801870475e-13 1.4046617338071786e-17 -1.0
  outer loop
    vertex 2769.12338666304 261.64687409094637 17.35000000000307
    vertex 2750.073386663041 266.40937409094516 17.350000000009796
    vertex 2769.12338666304 266.4093740909453 17.35000000000307
  endloop
endfacet
facet normal -3.524043801870475e-13 1.4046617338071786e-17 -1.0
  outer loop
    vertex 2769.12338666304 266.4093740909453 17.35000000000307
    vertex 2750.073386663041 266.40937409094516 17.350000000009796
    vertex 2772.298386663039 266.40937409094624 17.350000000001952
  endloop
endfacet
facet normal -3.524043801870475e-13 1.4046617338071786e-17 -1.0
  outer loop
    vertex 2750.0733866630403 294.98437409094663 17.350000000009782
    vertex 2769.123386663042 304.50937409094655 17.35000000000306
    vertex 2769.1233866630405 294.9843740909452 17.35000000000306
  endloop
endfacet
facet normal -3.524043801870475e-13 1.4046617338071786e-17 -1.0
  outer loop
    vertex 2769.123386663042 304.50937409094655 17.35000000000306
    vertex 2750.0733866630403 294.98437409094663 17.350000000009782
    vertex 2750.0733866630417 299.7468740909466 17.350000000009782
  endloop
endfacet
facet normal -3.524043801870475e-13 1.4046617338071786e-17 -1.0
  outer loop
    vertex 2769.123386663042 304.50937409094655 17.35000000000306
    vertex 2750.0733866630417 299.7468740909466 17.350000000009782
    vertex 2750.073386663039 304.50937409094735 17.350000000009782
  endloop
endfacet
facet normal -3.524043801870475e-13 1.4046617338071786e-17 -1.0
  outer loop
    vertex 2769.123386663042 304.50937409094655 17.35000000000306
    vertex 2750.073386663039 304.50937409094735 17.350000000009782
    vertex 2772.2983866630393 304.5093740909466 17.350000000001938
  endloop
endfacet
facet normal -3.524043801870475e-13 1.4046617338071786e-17 -1.0
  outer loop
    vertex 2734.198386663038 315.62187409094577 17.350000000015378
    vertex 2740.5483866630393 245.77187409094586 17.350000000013143
    vertex 2734.198386663039 245.77187409094577 17.350000000015378
  endloop
endfacet
facet normal -3.524043801870475e-13 1.4046617338071786e-17 -1.0
  outer loop
    vertex 2740.5483866630393 245.77187409094586 17.350000000013143
    vertex 2734.198386663038 315.62187409094577 17.350000000015378
    vertex 2746.8983866630397 256.8843740909456 17.350000000010912
  endloop
endfacet
facet normal -3.524043801870475e-13 1.4046617338071786e-17 -1.0
  outer loop
    vertex 2740.5483866630393 245.77187409094586 17.350000000013143
    vertex 2746.8983866630397 256.8843740909456 17.350000000010912
    vertex 2784.998386663039 245.7718740909465 17.349999999997475
  endloop
endfacet
facet normal -3.524043801870475e-13 1.4046617338071786e-17 -1.0
  outer loop
    vertex 2784.998386663039 245.7718740909465 17.349999999997475
    vertex 2746.8983866630397 256.8843740909456 17.350000000010912
    vertex 2769.123386663041 256.88437409094547 17.35000000000307
  endloop
endfacet
facet normal -3.524043801870475e-13 1.4046617338071786e-17 -1.0
  outer loop
    vertex 2746.8983866630397 256.8843740909456 17.350000000010912
    vertex 2734.198386663038 315.62187409094577 17.350000000015378
    vertex 2746.8983866630388 266.40937409094505 17.350000000010912
  endloop
endfacet
facet normal -3.524043801870475e-13 1.4046617338071786e-17 -1.0
  outer loop
    vertex 2746.8983866630388 266.40937409094505 17.350000000010912
    vertex 2734.198386663038 315.62187409094577 17.350000000015378
    vertex 2750.073386663041 266.40937409094516 17.350000000009796
  endloop
endfacet
facet normal -3.524043801870475e-13 1.4046617338071786e-17 -1.0
  outer loop
    vertex 2750.073386663041 266.40937409094516 17.350000000009796
    vertex 2734.198386663038 315.62187409094577 17.350000000015378
    vertex 2746.8983866630383 294.98437409094737 17.3500000000109
  endloop
endfacet
facet normal -3.524043801870475e-13 1.4046617338071786e-17 -1.0
  outer loop
    vertex 2750.073386663041 266.40937409094516 17.350000000009796
    vertex 2746.8983866630383 294.98437409094737 17.3500000000109
    vertex 2772.298386663039 266.40937409094624 17.350000000001952
  endloop
endfacet
facet normal -3.524043801870475e-13 1.4046617338071786e-17 -1.0
  outer loop
    vertex 2772.298386663039 266.40937409094624 17.350000000001952
    vertex 2746.8983866630383 294.98437409094737 17.3500000000109
    vertex 2750.0733866630403 294.98437409094663 17.350000000009782
  endloop
endfacet
facet normal -3.524043801870475e-13 1.4046617338071786e-17 -1.0
  outer loop
    vertex 2772.298386663039 266.40937409094624 17.350000000001952
    vertex 2750.0733866630403 294.98437409094663 17.350000000009782
    vertex 2769.1233866630405 294.9843740909452 17.35000000000306
  endloop
endfacet
facet normal -3.524043801870475e-13 1.4046617338071786e-17 -1.0
  outer loop
    vertex 2772.298386663039 266.40937409094624 17.350000000001952
    vertex 2769.1233866630405 294.9843740909452 17.35000000000306
    vertex 2772.298386663039 294.98437409094515 17.350000000001938
  endloop
endfacet
facet normal -3.524043801870475e-13 1.4046617338071786e-17 -1.0
  outer loop
    vertex 2746.8983866630383 294.98437409094737 17.3500000000109
    vertex 2734.198386663038 315.62187409094577 17.350000000015378
    vertex 2746.898386663041 299.74687409094656 17.3500000000109
  endloop
endfacet
facet normal -3.524043801870475e-13 1.4046617338071786e-17 -1.0
  outer loop
    vertex 2746.898386663041 299.74687409094656 17.3500000000109
    vertex 2734.198386663038 315.62187409094577 17.350000000015378
    vertex 2746.8983866630397 304.50937409094695 17.3500000000109
  endloop
endfacet
facet normal -3.524043801870475e-13 1.4046617338071786e-17 -1.0
  outer loop
    vertex 2746.8983866630397 304.50937409094695 17.3500000000109
    vertex 2734.198386663038 315.62187409094577 17.350000000015378
    vertex 2750.073386663039 304.50937409094735 17.350000000009782
  endloop
endfacet
facet normal -3.524043801870475e-13 1.4046617338071786e-17 -1.0
  outer loop
    vertex 2784.998386663039 245.7718740909465 17.349999999997475
    vertex 2772.2983866630416 256.88437409094615 17.350000000001952
    vertex 2784.998386663038 315.6218740909465 17.349999999997475
  endloop
endfacet
facet normal -3.524043801870475e-13 1.4046617338071786e-17 -1.0
  outer loop
    vertex 2772.2983866630416 256.88437409094615 17.350000000001952
    vertex 2784.998386663039 245.7718740909465 17.349999999997475
    vertex 2769.123386663041 256.88437409094547 17.35000000000307
  endloop
endfacet
facet normal -3.524043801870475e-13 1.4046617338071786e-17 -1.0
  outer loop
    vertex 2784.998386663038 315.6218740909465 17.349999999997475
    vertex 2772.2983866630416 256.88437409094615 17.350000000001952
    vertex 2772.29838666304 261.6468740909465 17.350000000001952
  endloop
endfacet
facet normal -3.524043801870475e-13 1.4046617338071786e-17 -1.0
  outer loop
    vertex 2784.998386663038 315.6218740909465 17.349999999997475
    vertex 2772.29838666304 261.6468740909465 17.350000000001952
    vertex 2772.298386663039 266.40937409094624 17.350000000001952
  endloop
endfacet
facet normal -3.524043801870475e-13 1.4046617338071786e-17 -1.0
  outer loop
    vertex 2784.998386663038 315.6218740909465 17.349999999997475
    vertex 2772.298386663039 266.40937409094624 17.350000000001952
    vertex 2772.298386663039 294.98437409094515 17.350000000001938
  endloop
endfacet
facet normal -3.524043801870475e-13 1.4046617338071786e-17 -1.0
  outer loop
    vertex 2784.998386663038 315.6218740909465 17.349999999997475
    vertex 2772.298386663039 294.98437409094515 17.350000000001938
    vertex 2772.2983866630393 304.5093740909466 17.350000000001938
  endloop
endfacet
facet normal -3.524043801870475e-13 1.4046617338071786e-17 -1.0
  outer loop
    vertex 2784.998386663038 315.6218740909465 17.349999999997475
    vertex 2772.2983866630393 304.5093740909466 17.350000000001938
    vertex 2750.073386663039 304.50937409094735 17.350000000009782
  endloop
endfacet
facet normal -3.524043801870475e-13 1.4046617338071786e-17 -1.0
  outer loop
    vertex 2784.998386663038 315.6218740909465 17.349999999997475
    vertex 2750.073386663039 304.50937409094735 17.350000000009782
    vertex 2734.198386663038 315.62187409094577 17.350000000015378
  endloop
endfacet
facet normal -3.524043801870475e-13 1.4046617338071786e-17 -1.0
  outer loop
    vertex 2784.998386663038 315.6218740909465 17.349999999997475
    vertex 2734.198386663038 315.62187409094577 17.350000000015378
    vertex 2740.548386663038 315.6218740909459 17.350000000013143
  endloop
endfacet
facet normal -3.524043801870475e-13 1.4046617338071786e-17 -1.0
  outer loop
    vertex 2784.998386663038 315.6218740909465 17.349999999997475
    vertex 2740.548386663038 315.6218740909459 17.350000000013143
    vertex 2778.648386663038 315.62187409094645 17.349999999999714
  endloop
endfacet
facet normal -3.524043801870475e-13 1.4046617338071786e-17 -1.0
  outer loop
    vertex 2778.648386663038 315.62187409094645 17.349999999999714
    vertex 2740.548386663038 315.6218740909459 17.350000000013143
    vertex 2740.548386663038 321.97187409094585 17.350000000013143
  endloop
endfacet
facet normal -3.524043801870475e-13 1.4046617338071786e-17 -1.0
  outer loop
    vertex 2778.648386663038 315.62187409094645 17.349999999999714
    vertex 2740.548386663038 321.97187409094585 17.350000000013143
    vertex 2778.648386663038 321.9718740909464 17.349999999999714
  endloop
endfacet
facet normal -3.524043801870475e-13 1.4046617338071786e-17 -1.0
  outer loop
    vertex 2740.5483866630393 245.77187409094586 17.350000000013143
    vertex 2778.648386663039 239.4218740909464 17.349999999999714
    vertex 2740.5483866630393 239.42187409094586 17.350000000013136
  endloop
endfacet
facet normal -3.524043801870475e-13 1.4046617338071786e-17 -1.0
  outer loop
    vertex 2778.648386663039 239.4218740909464 17.349999999999714
    vertex 2740.5483866630393 245.77187409094586 17.350000000013143
    vertex 2778.648386663039 245.77187409094637 17.349999999999714
  endloop
endfacet
facet normal -3.524043801870475e-13 1.4046617338071786e-17 -1.0
  outer loop
    vertex 2778.648386663039 245.77187409094637 17.349999999999714
    vertex 2740.5483866630393 245.77187409094586 17.350000000013143
    vertex 2784.998386663039 245.7718740909465 17.349999999997475
  endloop
endfacet
facet normal -3.523847880160247e-13 2.2204460492502502e-16 -1.0
  outer loop
    vertex 2778.648386663015 315.62187409094645 -47.50000000000028
    vertex 2784.9983866630155 321.97187409094647 -47.50000000000251
    vertex 2784.9983866630155 315.6218740909465 -47.50000000000251
  endloop
endfacet
facet normal -3.523847880160247e-13 2.2204460492502502e-16 -1.0
  outer loop
    vertex 2784.9983866630155 321.97187409094647 -47.50000000000251
    vertex 2778.648386663015 315.62187409094645 -47.50000000000028
    vertex 2778.648386663015 321.9718740909464 -47.50000000000028
  endloop
endfacet
facet normal 7.105427357600924e-15 -1.0 -2.2204460492752884e-16
  outer loop
    vertex 2784.9983866630155 315.6218740909465 -47.50000000000251
    vertex 2778.648386663038 315.62187409094645 17.349999999999714
    vertex 2778.648386663015 315.62187409094645 -47.50000000000028
  endloop
endfacet
facet normal 7.105427357600924e-15 -1.0 -2.2204460492752884e-16
  outer loop
    vertex 2778.648386663038 315.62187409094645 17.349999999999714
    vertex 2784.9983866630155 315.6218740909465 -47.50000000000251
    vertex 2784.998386663038 315.6218740909465 17.349999999997475
  endloop
endfacet
facet normal -1.0 -1.5619445923376034e-28 3.523847880160247e-13
  outer loop
    vertex 2778.648386663015 321.9718740909464 -47.50000000000028
    vertex 2778.648386663038 315.62187409094645 17.349999999999714
    vertex 2778.648386663038 321.9718740909464 17.349999999999714
  endloop
endfacet
facet normal -1.0 -1.5619445923376034e-28 3.523847880160247e-13
  outer loop
    vertex 2778.648386663038 315.62187409094645 17.349999999999714
    vertex 2778.648386663015 321.9718740909464 -47.50000000000028
    vertex 2778.648386663015 315.62187409094645 -47.50000000000028
  endloop
endfacet
facet normal -3.5216274341109965e-13 9.466330862651787e-30 -1.0
  outer loop
    vertex 2778.6483866630156 245.77187409094637 -47.500000000000284
    vertex 2784.9983866630155 239.4218740909465 -47.500000000002515
    vertex 2778.6483866630156 239.4218740909464 -47.500000000000284
  endloop
endfacet
facet normal -3.5216274341109965e-13 9.466330862651787e-30 -1.0
  outer loop
    vertex 2784.9983866630155 239.4218740909465 -47.500000000002515
    vertex 2778.6483866630156 245.77187409094637 -47.500000000000284
    vertex 2784.9983866630155 245.7718740909465 -47.500000000002515
  endloop
endfacet
facet normal -1.0 0.0 3.5216274341109965e-13
  outer loop
    vertex 2778.6483866630156 245.77187409094637 -47.500000000000284
    vertex 2778.648386663039 239.4218740909464 17.349999999999714
    vertex 2778.648386663039 245.77187409094637 17.349999999999714
  endloop
endfacet
facet normal -1.0 0.0 3.5216274341109965e-13
  outer loop
    vertex 2778.648386663039 239.4218740909464 17.349999999999714
    vertex 2778.6483866630156 245.77187409094637 -47.500000000000284
    vertex 2778.6483866630156 239.4218740909464 -47.500000000000284
  endloop
endfacet
facet normal -2.1316282072803006e-14 1.0 7.5162667049458e-27
  outer loop
    vertex 2778.648386663039 245.77187409094637 17.349999999999714
    vertex 2784.9983866630155 245.7718740909465 -47.500000000002515
    vertex 2778.6483866630156 245.77187409094637 -47.500000000000284
  endloop
endfacet
facet normal -2.1316282072803006e-14 1.0 7.5162667049458e-27
  outer loop
    vertex 2784.9983866630155 245.7718740909465 -47.500000000002515
    vertex 2778.648386663039 245.77187409094637 17.349999999999714
    vertex 2784.998386663039 245.7718740909465 17.349999999997475
  endloop
endfacet
endsolid box draft 1
