solid box draft 1
facet normal 1.3899203214067355e-14 -1.0 -4.897867778180774e-27
  outer loop
    vertex 2775.546890961732 681.9930956302635 10.999999999987875
    vertex 2724.7468909617337 681.9930956302628 16.000000000005777
    vertex 2724.746890961732 681.9930956302628 11.000000000005775
  endloop
endfacet
facet normal 1.3899203214067355e-14 -1.0 -4.897867778180774e-27
  outer loop
    vertex 2724.7468909617337 681.9930956302628 16.000000000005777
    vertex 2775.546890961732 681.9930956302635 10.999999999987875
    vertex 2775.546890961734 681.9930956302635 15.999999999987876
  endloop
endfacet
facet normal 1.0 1.3899203214067355e-14 -3.523847880160247e-13
  outer loop
    vertex 2775.546890961732 681.9930956302635 10.999999999987875
    vertex 2775.5468909617325 764.5430956302635 15.999999999987876
    vertex 2775.546890961734 681.9930956302635 15.999999999987876
  endloop
endfacet
facet normal 1.0 1.3899203214067355e-14 -3.523847880160247e-13
  outer loop
    vertex 2775.5468909617325 764.5430956302635 15.999999999987876
    vertex 2775.546890961732 681.9930956302635 10.999999999987875
    vertex 2775.5468909617307 764.5430956302635 10.999999999987875
  endloop
endfacet
facet normal -1.3899203214067355e-14 1.0 4.897867778180774e-27
  outer loop
    vertex 2775.5468909617325 764.5430956302635 15.999999999987876
    vertex 2724.746890961731 764.5430956302628 11.000000000005775
    vertex 2724.746890961733 764.5430956302628 16.000000000005777
  endloop
endfacet
facet normal -1.3899203214067355e-14 1.0 4.897867778180774e-27
  outer loop
    vertex 2724.746890961731 764.5430956302628 11.000000000005775
    vertex 2775.5468909617325 764.5430956302635 15.999999999987876
    vertex 2775.5468909617307 764.5430956302635 10.999999999987875
  endloop
endfacet
facet normal -1.0 -1.3899203214067355e-14 3.523847880160247e-13
  outer loop
    vertex 2724.746890961731 764.5430956302628 11.000000000005775
    vertex 2724.7468909617337 681.9930956302628 16.000000000005777
    vertex 2724.746890961733 764.5430956302628 16.000000000005777
  endloop
endfacet
facet normal -1.0 -1.3899203214067355e-14 3.523847880160247e-13
  outer loop
    vertex 2724.7468909617337 681.9930956302628 16.000000000005777
    vertex 2724.746890961731 764.5430956302628 11.000000000005775
    vertex 2724.746890961732 681.9930956302628 11.000000000005775
  endloop
endfacet
facet normal -3.523847880160247e-13 -4.638016669834798e-27 -1.0
  outer loop
    vertex 2759.671890961734 699.4555956302625 10.999999999993468
    vertex 2740.6218909617346 699.4555956302626 11.000000000000194
    vertex 2759.6718909617325 704.2180956302633 10.999999999993468
  endloop
endfacet
facet normal -3.523847880160247e-13 -4.638016669834798e-27 -1.0
  outer loop
    vertex 2740.6218909617346 699.4555956302626 11.000000000000194
    vertex 2759.671890961734 699.4555956302625 10.999999999993468
    vertex 2737.446890961732 699.4555956302626 11.000000000001311
  endloop
endfacet
facet normal -3.523847880160247e-13 -4.638016669834798e-27 -1.0
  outer loop
    vertex 2759.6718909617325 704.2180956302633 10.999999999993468
    vertex 2740.6218909617346 699.4555956302626 11.000000000000194
    vertex 2740.621890961734 708.9805956302621 11.000000000000194
  endloop
endfacet
facet normal -3.523847880160247e-13 -4.638016669834798e-27 -1.0
  outer loop
    vertex 2759.6718909617325 704.2180956302633 10.999999999993468
    vertex 2740.621890961734 708.9805956302621 11.000000000000194
    vertex 2759.671890961733 708.9805956302622 10.999999999993468
  endloop
endfacet
facet normal -3.523847880160247e-13 -4.638016669834798e-27 -1.0
  outer loop
    vertex 2759.671890961733 708.9805956302622 10.999999999993468
    vertex 2740.621890961734 708.9805956302621 11.000000000000194
    vertex 2762.846890961732 708.9805956302632 10.999999999992351
  endloop
endfacet
facet normal -3.523847880160247e-13 -4.638016669834798e-27 -1.0
  outer loop
    vertex 2740.6218909617332 737.5555956302636 11.00000000000018
    vertex 2759.6718909617343 747.0805956302635 10.99999999999346
    vertex 2759.6718909617334 737.5555956302621 10.99999999999346
  endloop
endfacet
facet normal -3.523847880160247e-13 -4.638016669834798e-27 -1.0
  outer loop
    vertex 2759.6718909617343 747.0805956302635 10.99999999999346
    vertex 2740.6218909617332 737.5555956302636 11.00000000000018
    vertex 2740.621890961734 742.3180956302635 11.00000000000018
  endloop
endfacet
facet normal -3.523847880160247e-13 -4.638016669834798e-27 -1.0
  outer loop
    vertex 2759.6718909617343 747.0805956302635 10.99999999999346
    vertex 2740.621890961734 742.3180956302635 11.00000000000018
    vertex 2740.6218909617314 747.0805956302643 11.00000000000018
  endloop
endfacet
facet normal -3.523847880160247e-13 -4.638016669834798e-27 -1.0
  outer loop
    vertex 2759.6718909617343 747.0805956302635 10.99999999999346
    vertex 2740.6218909617314 747.0805956302643 11.00000000000018
    vertex 2762.846890961732 747.0805956302636 10.999999999992339
  endloop
endfacet
facet normal -3.523847880160247e-13 -4.638016669834798e-27 -1.0
  outer loop
    vertex 2724.746890961732 681.9930956302628 11.000000000005775
    vertex 2737.446890961732 699.4555956302626 11.000000000001311
    vertex 2775.546890961732 681.9930956302635 10.999999999987875
  endloop
endfacet
facet normal -3.523847880160247e-13 -4.638016669834798e-27 -1.0
  outer loop
    vertex 2737.446890961732 699.4555956302626 11.000000000001311
    vertex 2724.746890961732 681.9930956302628 11.000000000005775
    vertex 2724.746890961731 764.5430956302628 11.000000000005775
  endloop
endfacet
facet normal -3.523847880160247e-13 -4.638016669834798e-27 -1.0
  outer loop
    vertex 2775.546890961732 681.9930956302635 10.999999999987875
    vertex 2737.446890961732 699.4555956302626 11.000000000001311
    vertex 2759.671890961734 699.4555956302625 10.999999999993468
  endloop
endfacet
facet normal -3.523847880160247e-13 -4.638016669834798e-27 -1.0
  outer loop
    vertex 2737.446890961732 699.4555956302626 11.000000000001311
    vertex 2724.746890961731 764.5430956302628 11.000000000005775
    vertex 2737.4468909617317 708.9805956302621 11.000000000001311
  endloop
endfacet
facet normal -3.523847880160247e-13 -4.638016669834798e-27 -1.0
  outer loop
    vertex 2737.4468909617317 708.9805956302621 11.000000000001311
    vertex 2724.746890961731 764.5430956302628 11.000000000005775
    vertex 2740.621890961734 708.9805956302621 11.000000000000194
  endloop
endfacet
facet normal -3.523847880160247e-13 -4.638016669834798e-27 -1.0
  outer loop
    vertex 2740.621890961734 708.9805956302621 11.000000000000194
    vertex 2724.746890961731 764.5430956302628 11.000000000005775
    vertex 2737.4468909617312 737.5555956302644 11.0000000000013
  endloop
endfacet
facet normal -3.523847880160247e-13 -4.638016669834798e-27 -1.0
  outer loop
    vertex 2740.621890961734 708.9805956302621 11.000000000000194
    vertex 2737.4468909617312 737.5555956302644 11.0000000000013
    vertex 2762.846890961732 708.9805956302632 10.999999999992351
  endloop
endfacet
facet normal -3.523847880160247e-13 -4.638016669834798e-27 -1.0
  outer loop
    vertex 2762.846890961732 708.9805956302632 10.999999999992351
    vertex 2737.4468909617312 737.5555956302644 11.0000000000013
    vertex 2740.6218909617332 737.5555956302636 11.00000000000018
  endloop
endfacet
facet normal -3.523847880160247e-13 -4.638016669834798e-27 -1.0
  outer loop
    vertex 2762.846890961732 708.9805956302632 10.999999999992351
    vertex 2740.6218909617332 737.5555956302636 11.00000000000018
    vertex 2759.6718909617334 737.5555956302621 10.99999999999346
  endloop
endfacet
facet normal -3.523847880160247e-13 -4.638016669834798e-27 -1.0
  outer loop
    vertex 2762.846890961732 708.9805956302632 10.999999999992351
    vertex 2759.6718909617334 737.5555956302621 10.99999999999346
    vertex 2762.846890961732 737.5555956302621 10.999999999992339
  endloop
endfacet
facet normal -3.523847880160247e-13 -4.638016669834798e-27 -1.0
  outer loop
    vertex 2737.4468909617312 737.5555956302644 11.0000000000013
    vertex 2724.746890961731 764.5430956302628 11.000000000005775
    vertex 2737.4468909617335 742.3180956302635 11.0000000000013
  endloop
endfacet
facet normal -3.523847880160247e-13 -4.638016669834798e-27 -1.0
  outer loop
    vertex 2737.4468909617335 742.3180956302635 11.0000000000013
    vertex 2724.746890961731 764.5430956302628 11.000000000005775
    vertex 2737.446890961732 747.0805956302639 11.0000000000013
  endloop
endfacet
facet normal -3.523847880160247e-13 -4.638016669834798e-27 -1.0
  outer loop
    vertex 2737.446890961732 747.0805956302639 11.0000000000013
    vertex 2724.746890961731 764.5430956302628 11.000000000005775
    vertex 2740.6218909617314 747.0805956302643 11.00000000000018
  endloop
endfacet
facet normal -3.523847880160247e-13 -4.638016669834798e-27 -1.0
  outer loop
    vertex 2775.546890961732 681.9930956302635 10.999999999987875
    vertex 2762.8468909617345 699.4555956302631 10.999999999992351
    vertex 2775.5468909617307 764.5430956302635 10.999999999987875
  endloop
endfacet
facet normal -3.523847880160247e-13 -4.638016669834798e-27 -1.0
  outer loop
    vertex 2762.8468909617345 699.4555956302631 10.999999999992351
    vertex 2775.546890961732 681.9930956302635 10.999999999987875
    vertex 2759.671890961734 699.4555956302625 10.999999999993468
  endloop
endfacet
facet normal -3.523847880160247e-13 -4.638016669834798e-27 -1.0
  outer loop
    vertex 2775.5468909617307 764.5430956302635 10.999999999987875
    vertex 2762.8468909617345 699.4555956302631 10.999999999992351
    vertex 2762.846890961733 704.2180956302635 10.999999999992351
  endloop
endfacet
facet normal -3.523847880160247e-13 -4.638016669834798e-27 -1.0
  outer loop
    vertex 2775.5468909617307 764.5430956302635 10.999999999987875
    vertex 2762.846890961733 704.2180956302635 10.999999999992351
    vertex 2762.846890961732 708.9805956302632 10.999999999992351
  endloop
endfacet
facet normal -3.523847880160247e-13 -4.638016669834798e-27 -1.0
  outer loop
    vertex 2775.5468909617307 764.5430956302635 10.999999999987875
    vertex 2762.846890961732 708.9805956302632 10.999999999992351
    vertex 2762.846890961732 737.5555956302621 10.999999999992339
  endloop
endfacet
facet normal -3.523847880160247e-13 -4.638016669834798e-27 -1.0
  outer loop
    vertex 2775.5468909617307 764.5430956302635 10.999999999987875
    vertex 2762.846890961732 737.5555956302621 10.999999999992339
    vertex 2762.846890961732 747.0805956302636 10.999999999992339
  endloop
endfacet
facet normal -3.523847880160247e-13 -4.638016669834798e-27 -1.0
  outer loop
    vertex 2775.5468909617307 764.5430956302635 10.999999999987875
    vertex 2762.846890961732 747.0805956302636 10.999999999992339
    vertex 2740.6218909617314 747.0805956302643 11.00000000000018
  endloop
endfacet
facet normal -3.523847880160247e-13 -4.638016669834798e-27 -1.0
  outer loop
    vertex 2775.5468909617307 764.5430956302635 10.999999999987875
    vertex 2740.6218909617314 747.0805956302643 11.00000000000018
    vertex 2724.746890961731 764.5430956302628 11.000000000005775
  endloop
endfacet
facet normal 3.523847880160246e-13 4.638016669834797e-27 1.0
  outer loop
    vertex 2759.6718909617343 704.2180956302635 15.99999999999347
    vertex 2740.621890961736 699.4555956302626 16.00000000000018
    vertex 2759.6718909617343 699.4555956302628 15.99999999999347
  endloop
endfacet
facet normal 3.523847880160246e-13 4.638016669834797e-27 1.0
  outer loop
    vertex 2740.621890961736 699.4555956302626 16.00000000000018
    vertex 2759.6718909617343 704.2180956302635 15.99999999999347
    vertex 2740.621890961736 708.9805956302621 16.00000000000018
  endloop
endfacet
facet normal 3.523847880160246e-13 4.638016669834797e-27 1.0
  outer loop
    vertex 2740.621890961736 708.9805956302621 16.00000000000018
    vertex 2759.6718909617343 704.2180956302635 15.99999999999347
    vertex 2759.671890961735 708.9805956302625 15.99999999999347
  endloop
endfacet
facet normal 3.523847880160246e-13 4.638016669834797e-27 1.0
  outer loop
    vertex 2775.546890961734 681.9930956302635 15.999999999987876
    vertex 2762.8468909617354 699.4555956302631 15.999999999992351
    vertex 2724.7468909617337 681.9930956302628 16.000000000005777
  endloop
endfacet
facet normal 3.523847880160246e-13 4.638016669834797e-27 1.0
  outer loop
    vertex 2762.8468909617354 699.4555956302631 15.999999999992351
    vertex 2775.546890961734 681.9930956302635 15.999999999987876
    vertex 2775.5468909617325 764.5430956302635 15.999999999987876
  endloop
endfacet
facet normal 3.523847880160246e-13 4.638016669834797e-27 1.0
  outer loop
    vertex 2724.7468909617337 681.9930956302628 16.000000000005777
    vertex 2762.8468909617354 699.4555956302631 15.999999999992351
    vertex 2759.6718909617343 699.4555956302628 15.99999999999347
  endloop
endfacet
facet normal 3.523847880160246e-13 4.638016669834797e-27 1.0
  outer loop
    vertex 2762.8468909617354 699.4555956302631 15.999999999992351
    vertex 2775.5468909617325 764.5430956302635 15.999999999987876
    vertex 2762.8468909617354 704.2180956302636 15.999999999992351
  endloop
endfacet
facet normal 3.523847880160246e-13 4.638016669834797e-27 1.0
  outer loop
    vertex 2762.8468909617354 704.2180956302636 15.999999999992351
    vertex 2775.5468909617325 764.5430956302635 15.999999999987876
    vertex 2762.8468909617336 708.9805956302635 15.999999999992351
  endloop
endfacet
facet normal 3.523847880160246e-13 4.638016669834797e-27 1.0
  outer loop
    vertex 2762.8468909617336 708.9805956302635 15.999999999992351
    vertex 2775.5468909617325 764.5430956302635 15.999999999987876
    vertex 2762.846890961733 737.5555956302621 15.999999999992351
  endloop
endfacet
facet normal 3.523847880160246e-13 4.638016669834797e-27 1.0
  outer loop
    vertex 2762.846890961733 737.5555956302621 15.999999999992351
    vertex 2775.5468909617325 764.5430956302635 15.999999999987876
    vertex 2762.8468909617327 747.0805956302636 15.999999999992351
  endloop
endfacet
facet normal 3.523847880160246e-13 4.638016669834797e-27 1.0
  outer loop
    vertex 2762.8468909617327 747.0805956302636 15.999999999992351
    vertex 2775.5468909617325 764.5430956302635 15.999999999987876
    vertex 2759.671890961735 747.0805956302635 15.99999999999347
  endloop
endfacet
facet normal 3.523847880160246e-13 4.638016669834797e-27 1.0
  outer loop
    vertex 2759.671890961735 747.0805956302635 15.99999999999347
    vertex 2775.5468909617325 764.5430956302635 15.999999999987876
    vertex 2740.6218909617332 747.0805956302632 16.00000000000018
  endloop
endfacet
facet normal 3.523847880160246e-13 4.638016669834797e-27 1.0
  outer loop
    vertex 2724.7468909617337 681.9930956302628 16.000000000005777
    vertex 2737.446890961734 699.4555956302626 16.0000000000013
    vertex 2724.746890961733 764.5430956302628 16.000000000005777
  endloop
endfacet
facet normal 3.523847880160246e-13 4.638016669834797e-27 1.0
  outer loop
    vertex 2737.446890961734 699.4555956302626 16.0000000000013
    vertex 2724.7468909617337 681.9930956302628 16.000000000005777
    vertex 2759.6718909617343 699.4555956302628 15.99999999999347
  endloop
endfacet
facet normal 3.523847880160246e-13 4.638016669834797e-27 1.0
  outer loop
    vertex 2737.446890961734 699.4555956302626 16.0000000000013
    vertex 2759.6718909617343 699.4555956302628 15.99999999999347
    vertex 2740.621890961736 699.4555956302626 16.00000000000018
  endloop
endfacet
facet normal 3.523847880160246e-13 4.638016669834797e-27 1.0
  outer loop
    vertex 2724.746890961733 764.5430956302628 16.000000000005777
    vertex 2737.446890961734 699.4555956302626 16.0000000000013
    vertex 2737.4468909617335 708.9805956302621 16.0000000000013
  endloop
endfacet
facet normal 3.523847880160246e-13 4.638016669834797e-27 1.0
  outer loop
    vertex 2724.746890961733 764.5430956302628 16.000000000005777
    vertex 2737.4468909617335 708.9805956302621 16.0000000000013
    vertex 2740.621890961736 708.9805956302621 16.00000000000018
  endloop
endfacet
facet normal 3.523847880160246e-13 4.638016669834797e-27 1.0
  outer loop
    vertex 2724.746890961733 764.5430956302628 16.000000000005777
    vertex 2740.621890961736 708.9805956302621 16.00000000000018
    vertex 2737.446890961734 737.5555956302632 16.0000000000013
  endloop
endfacet
facet normal 3.523847880160246e-13 4.638016669834797e-27 1.0
  outer loop
    vertex 2737.446890961734 737.5555956302632 16.0000000000013
    vertex 2740.621890961736 708.9805956302621 16.00000000000018
    vertex 2759.671890961735 708.9805956302625 15.99999999999347
  endloop
endfacet
facet normal 3.523847880160246e-13 4.638016669834797e-27 1.0
  outer loop
    vertex 2737.446890961734 737.5555956302632 16.0000000000013
    vertex 2759.671890961735 708.9805956302625 15.99999999999347
    vertex 2762.8468909617336 708.9805956302635 15.999999999992351
  endloop
endfacet
facet normal 3.523847880160246e-13 4.638016669834797e-27 1.0
  outer loop
    vertex 2737.446890961734 737.5555956302632 16.0000000000013
    vertex 2762.8468909617336 708.9805956302635 15.999999999992351
    vertex 2740.621890961736 737.5555956302621 16.00000000000018
  endloop
endfacet
facet normal 3.523847880160246e-13 4.638016669834797e-27 1.0
  outer loop
    vertex 2740.621890961736 737.5555956302621 16.00000000000018
    vertex 2762.8468909617336 708.9805956302635 15.999999999992351
    vertex 2762.846890961733 737.5555956302621 15.999999999992351
  endloop
endfacet
facet normal 3.523847880160246e-13 4.638016669834797e-27 1.0
  outer loop
    vertex 2740.621890961736 737.5555956302621 16.00000000000018
    vertex 2762.846890961733 737.5555956302621 15.999999999992351
    vertex 2759.671890961735 737.5555956302621 15.99999999999347
  endloop
endfacet
facet normal 3.523847880160246e-13 4.638016669834797e-27 1.0
  outer loop
    vertex 2724.746890961733 764.5430956302628 16.000000000005777
    vertex 2737.446890961734 737.5555956302632 16.0000000000013
    vertex 2737.446890961736 742.3180956302624 16.0000000000013
  endloop
endfacet
facet normal 3.523847880160246e-13 4.638016669834797e-27 1.0
  outer loop
    vertex 2724.746890961733 764.5430956302628 16.000000000005777
    vertex 2737.446890961736 742.3180956302624 16.0000000000013
    vertex 2737.4468909617335 747.0805956302629 16.0000000000013
  endloop
endfacet
facet normal 3.523847880160246e-13 4.638016669834797e-27 1.0
  outer loop
    vertex 2724.746890961733 764.5430956302628 16.000000000005777
    vertex 2737.4468909617335 747.0805956302629 16.0000000000013
    vertex 2740.6218909617332 747.0805956302632 16.00000000000018
  endloop
endfacet
facet normal 3.523847880160246e-13 4.638016669834797e-27 1.0
  outer loop
    vertex 2724.746890961733 764.5430956302628 16.000000000005777
    vertex 2740.6218909617332 747.0805956302632 16.00000000000018
    vertex 2775.5468909617325 764.5430956302635 15.999999999987876
  endloop
endfacet
facet normal 3.523847880160246e-13 4.638016669834797e-27 1.0
  outer loop
    vertex 2759.671890961735 747.0805956302635 15.99999999999347
    vertex 2740.621890961736 737.5555956302621 16.00000000000018
    vertex 2759.671890961735 737.5555956302621 15.99999999999347
  endloop
endfacet
facet normal 3.523847880160246e-13 4.638016669834797e-27 1.0
  outer loop
    vertex 2740.621890961736 737.5555956302621 16.00000000000018
    vertex 2759.671890961735 747.0805956302635 15.99999999999347
    vertex 2740.621890961737 742.3180956302631 16.00000000000018
  endloop
endfacet
facet normal 3.523847880160246e-13 4.638016669834797e-27 1.0
  outer loop
    vertex 2740.621890961737 742.3180956302631 16.00000000000018
    vertex 2759.671890961735 747.0805956302635 15.99999999999347
    vertex 2740.6218909617332 747.0805956302632 16.00000000000018
  endloop
endfacet
facet normal 1.0 3.0316490059094875e-13 -4.331468517192912e-13
  outer loop
    vertex 2737.4468909617335 742.3180956302635 11.0000000000013
    vertex 2737.4468909617335 747.0805956302629 16.0000000000013
    vertex 2737.446890961736 742.3180956302624 16.0000000000013
  endloop
endfacet
facet normal 1.0 3.0316490059094875e-13 -4.331468517192912e-13
  outer loop
    vertex 2737.4468909617335 747.0805956302629 16.0000000000013
    vertex 2737.4468909617335 742.3180956302635 11.0000000000013
    vertex 2737.446890961732 747.0805956302639 11.0000000000013
  endloop
endfacet
facet normal 1.0 -2.652692880171464e-13 -5.414335646492607e-13
  outer loop
    vertex 2737.4468909617312 737.5555956302644 11.0000000000013
    vertex 2737.446890961736 742.3180956302624 16.0000000000013
    vertex 2737.446890961734 737.5555956302632 16.0000000000013
  endloop
endfacet
facet normal 1.0 -2.652692880171464e-13 -5.414335646492607e-13
  outer loop
    vertex 2737.446890961736 742.3180956302624 16.0000000000013
    vertex 2737.4468909617312 737.5555956302644 11.0000000000013
    vertex 2737.4468909617335 742.3180956302635 11.0000000000013
  endloop
endfacet
facet normal 2.84217094303974e-13 1.0 2.707167823244339e-13
  outer loop
    vertex 2737.446890961734 737.5555956302632 16.0000000000013
    vertex 2740.6218909617332 737.5555956302636 11.00000000000018
    vertex 2737.4468909617312 737.5555956302644 11.0000000000013
  endloop
endfacet
facet normal 2.84217094303974e-13 1.0 2.707167823244339e-13
  outer loop
    vertex 2740.6218909617332 737.5555956302636 11.00000000000018
    vertex 2737.446890961734 737.5555956302632 16.0000000000013
    vertex 2740.621890961736 737.5555956302621 16.00000000000018
  endloop
endfacet
facet normal -1.0 3.789561257386481e-14 5.414335646492036e-13
  outer loop
    vertex 2740.621890961734 742.3180956302635 11.00000000000018
    vertex 2740.621890961736 737.5555956302621 16.00000000000018
    vertex 2740.621890961737 742.3180956302631 16.00000000000018
  endloop
endfacet
facet normal -1.0 3.789561257386481e-14 5.414335646492036e-13
  outer loop
    vertex 2740.621890961736 737.5555956302621 16.00000000000018
    vertex 2740.621890961734 742.3180956302635 11.00000000000018
    vertex 2740.6218909617332 737.5555956302636 11.00000000000018
  endloop
endfacet
facet normal -1.0 -6.063298011818947e-13 5.053379936724845e-13
  outer loop
    vertex 2740.6218909617314 747.0805956302643 11.00000000000018
    vertex 2740.621890961737 742.3180956302631 16.00000000000018
    vertex 2740.6218909617332 747.0805956302632 16.00000000000018
  endloop
endfacet
facet normal -1.0 -6.063298011818947e-13 5.053379936724845e-13
  outer loop
    vertex 2740.621890961737 742.3180956302631 16.00000000000018
    vertex 2740.6218909617314 747.0805956302643 11.00000000000018
    vertex 2740.621890961734 742.3180956302635 11.00000000000018
  endloop
endfacet
facet normal 9.947598300636186e-14 -1.0 -2.0754953311556829e-13
  outer loop
    vertex 2737.446890961732 747.0805956302639 11.0000000000013
    vertex 2740.6218909617332 747.0805956302632 16.00000000000018
    vertex 2737.4468909617335 747.0805956302629 16.0000000000013
  endloop
endfacet
facet normal 9.947598300636186e-14 -1.0 -2.0754953311556829e-13
  outer loop
    vertex 2740.6218909617332 747.0805956302632 16.00000000000018
    vertex 2737.446890961732 747.0805956302639 11.0000000000013
    vertex 2740.6218909617314 747.0805956302643 11.00000000000018
  endloop
endfacet
facet normal 1.0 -7.579122514776054e-14 -3.6095570976612734e-13
  outer loop
    vertex 2759.6718909617325 704.2180956302633 10.999999999993468
    vertex 2759.671890961735 708.9805956302625 15.99999999999347
    vertex 2759.6718909617343 704.2180956302635 15.99999999999347
  endloop
endfacet
facet normal 1.0 -7.579122514776054e-14 -3.6095570976612734e-13
  outer loop
    vertex 2759.671890961735 708.9805956302625 15.99999999999347
    vertex 2759.6718909617325 704.2180956302633 10.999999999993468
    vertex 2759.671890961733 708.9805956302622 10.999999999993468
  endloop
endfacet
facet normal 1.0 1.1368683772159879e-13 -2.5266899683629765e-13
  outer loop
    vertex 2759.671890961734 699.4555956302625 10.999999999993468
    vertex 2759.6718909617343 704.2180956302635 15.99999999999347
    vertex 2759.6718909617343 699.4555956302628 15.99999999999347
  endloop
endfacet
facet normal 1.0 1.1368683772159879e-13 -2.5266899683629765e-13
  outer loop
    vertex 2759.6718909617343 704.2180956302635 15.99999999999347
    vertex 2759.671890961734 699.4555956302625 10.999999999993468
    vertex 2759.6718909617325 704.2180956302633 10.999999999993468
  endloop
endfacet
facet normal -1.70530256582398e-13 1.0 -3.609557097658846e-14
  outer loop
    vertex 2762.8468909617354 699.4555956302631 15.999999999992351
    vertex 2759.671890961734 699.4555956302625 10.999999999993468
    vertex 2759.6718909617343 699.4555956302628 15.99999999999347
  endloop
endfacet
facet normal -1.70530256582398e-13 1.0 -3.609557097658846e-14
  outer loop
    vertex 2759.671890961734 699.4555956302625 10.999999999993468
    vertex 2762.8468909617354 699.4555956302631 15.999999999992351
    vertex 2762.8468909617345 699.4555956302631 10.999999999992351
  endloop
endfacet
facet normal -1.0 -1.5158245029547082e-13 2.8876456781290745e-13
  outer loop
    vertex 2762.846890961733 704.2180956302635 10.999999999992351
    vertex 2762.8468909617354 699.4555956302631 15.999999999992351
    vertex 2762.8468909617354 704.2180956302636 15.999999999992351
  endloop
endfacet
facet normal -1.0 -1.5158245029547082e-13 2.8876456781290745e-13
  outer loop
    vertex 2762.8468909617354 699.4555956302631 15.999999999992351
    vertex 2762.846890961733 704.2180956302635 10.999999999992351
    vertex 2762.8468909617345 699.4555956302631 10.999999999992351
  endloop
endfacet
facet normal -1.0 -3.410605131648646e-13 3.9705128074275935e-13
  outer loop
    vertex 2762.846890961732 708.9805956302632 10.999999999992351
    vertex 2762.8468909617354 704.2180956302636 15.999999999992351
    vertex 2762.8468909617336 708.9805956302635 15.999999999992351
  endloop
endfacet
facet normal -1.0 -3.410605131648646e-13 3.9705128074275935e-13
  outer loop
    vertex 2762.8468909617354 704.2180956302636 15.999999999992351
    vertex 2762.846890961732 708.9805956302632 10.999999999992351
    vertex 2762.846890961733 704.2180956302635 10.999999999992351
  endloop
endfacet
facet normal 3.1263880373460534e-13 -1.0 5.4143356464806765e-14
  outer loop
    vertex 2762.846890961732 708.9805956302632 10.999999999992351
    vertex 2759.671890961735 708.9805956302625 15.99999999999347
    vertex 2759.671890961733 708.9805956302622 10.999999999993468
  endloop
endfacet
facet normal 3.1263880373460534e-13 -1.0 5.4143356464806765e-14
  outer loop
    vertex 2759.671890961735 708.9805956302625 15.99999999999347
    vertex 2762.846890961732 708.9805956302632 10.999999999992351
    vertex 2762.8468909617336 708.9805956302635 15.999999999992351
  endloop
endfacet
facet normal 2.842170943038139e-14 -1.0 -1.0258988318746803e-26
  outer loop
    vertex 2740.621890961734 708.9805956302621 11.000000000000194
    vertex 2737.4468909617335 708.9805956302621 16.0000000000013
    vertex 2737.4468909617317 708.9805956302621 11.000000000001311
  endloop
endfacet
facet normal 2.842170943038139e-14 -1.0 -1.0258988318746803e-26
  outer loop
    vertex 2737.4468909617335 708.9805956302621 16.0000000000013
    vertex 2740.621890961734 708.9805956302621 11.000000000000194
    vertex 2740.621890961736 708.9805956302621 16.00000000000018
  endloop
endfacet
facet normal 1.0 5.684341886081125e-14 -3.248601387895184e-13
  outer loop
    vertex 2737.446890961732 699.4555956302626 11.000000000001311
    vertex 2737.4468909617335 708.9805956302621 16.0000000000013
    vertex 2737.446890961734 699.4555956302626 16.0000000000013
  endloop
endfacet
facet normal 1.0 5.684341886081125e-14 -3.248601387895184e-13
  outer loop
    vertex 2737.4468909617335 708.9805956302621 16.0000000000013
    vertex 2737.446890961732 699.4555956302626 11.000000000001311
    vertex 2737.4468909617317 708.9805956302621 11.000000000001311
  endloop
endfacet
facet normal 0.0 1.0 0.0
  outer loop
    vertex 2740.621890961736 699.4555956302626 16.00000000000018
    vertex 2737.446890961732 699.4555956302626 11.000000000001311
    vertex 2737.446890961734 699.4555956302626 16.0000000000013
  endloop
endfacet
facet normal 0.0 1.0 0.0
  outer loop
    vertex 2737.446890961732 699.4555956302626 11.000000000001311
    vertex 2740.621890961736 699.4555956302626 16.00000000000018
    vertex 2740.6218909617346 699.4555956302626 11.000000000000194
  endloop
endfacet
facet normal -1.0 -1.8947806286936903e-14 3.248601387895186e-13
  outer loop
    vertex 2740.621890961734 708.9805956302621 11.000000000000194
    vertex 2740.621890961736 699.4555956302626 16.00000000000018
    vertex 2740.621890961736 708.9805956302621 16.00000000000018
  endloop
endfacet
facet normal -1.0 -1.8947806286936903e-14 3.248601387895186e-13
  outer loop
    vertex 2740.621890961736 699.4555956302626 16.00000000000018
    vertex 2740.621890961734 708.9805956302621 11.000000000000194
    vertex 2740.6218909617346 699.4555956302626 11.000000000000194
  endloop
endfacet
facet normal 1.0 1.8947806286933312e-14 -2.5266899683629104e-13
  outer loop
    vertex 2759.6718909617334 737.5555956302621 10.99999999999346
    vertex 2759.671890961735 747.0805956302635 15.99999999999347
    vertex 2759.671890961735 737.5555956302621 15.99999999999347
  endloop
endfacet
facet normal 1.0 1.8947806286933312e-14 -2.5266899683629104e-13
  outer loop
    vertex 2759.671890961735 747.0805956302635 15.99999999999347
    vertex 2759.6718909617334 737.5555956302621 10.99999999999346
    vertex 2759.6718909617343 747.0805956302635 10.99999999999346
  endloop
endfacet
facet normal 0.0 1.0 0.0
  outer loop
    vertex 2762.846890961733 737.5555956302621 15.999999999992351
    vertex 2759.6718909617334 737.5555956302621 10.99999999999346
    vertex 2759.671890961735 737.5555956302621 15.99999999999347
  endloop
endfacet
facet normal 0.0 1.0 0.0
  outer loop
    vertex 2759.6718909617334 737.5555956302621 10.99999999999346
    vertex 2762.846890961733 737.5555956302621 15.999999999992351
    vertex 2762.846890961732 737.5555956302621 10.999999999992339
  endloop
endfacet
facet normal -1.0 -3.7895612573866265e-14 2.8876456781290396e-13
  outer loop
    vertex 2762.846890961732 747.0805956302636 10.999999999992339
    vertex 2762.846890961733 737.5555956302621 15.999999999992351
    vertex 2762.8468909617327 747.0805956302636 15.999999999992351
  endloop
endfacet
facet normal -1.0 -3.7895612573866265e-14 2.8876456781290396e-13
  outer loop
    vertex 2762.846890961733 737.5555956302621 15.999999999992351
    vertex 2762.846890961732 747.0805956302636 10.999999999992339
    vertex 2762.846890961732 737.5555956302621 10.999999999992339
  endloop
endfacet
facet normal 2.842170943042178e-14 -1.0 -7.180528410875709e-27
  outer loop
    vertex 2759.6718909617343 747.0805956302635 10.99999999999346
    vertex 2762.8468909617327 747.0805956302636 15.999999999992351
    vertex 2759.671890961735 747.0805956302635 15.99999999999347
  endloop
endfacet
facet normal 2.842170943042178e-14 -1.0 -7.180528410875709e-27
  outer loop
    vertex 2762.8468909617327 747.0805956302636 15.999999999992351
    vertex 2759.6718909617343 747.0805956302635 10.99999999999346
    vertex 2762.846890961732 747.0805956302636 10.999999999992339
  endloop
endfacet
endsolid box draft 1
