solid box draft 1
facet normal -1.0 0.0 0.0
  outer loop
    vertex 2200.583121007984 743.3855870560642 25.4
    vertex 2200.583121007984 676.7105870560641 0.0
    vertex 2200.583121007984 676.7105870560641 25.4
  endloop
endfacet
facet normal -1.0 0.0 0.0
  outer loop
    vertex 2200.583121007984 676.7105870560641 0.0
    vertex 2200.583121007984 743.3855870560642 25.4
    vertex 2200.583121007984 743.3855870560642 0.0
  endloop
endfacet
facet normal 0.0 1.0 0.0
  outer loop
    vertex 2184.708121007984 676.7105870560641 25.4
    vertex 2200.583121007984 676.7105870560641 0.0
    vertex 2184.708121007984 676.7105870560641 0.0
  endloop
endfacet
facet normal 0.0 1.0 0.0
  outer loop
    vertex 2200.583121007984 676.7105870560641 0.0
    vertex 2184.708121007984 676.7105870560641 25.4
    vertex 2200.583121007984 676.7105870560641 25.4
  endloop
endfacet
facet normal 0.0 0.0 -1.0
  outer loop
    vertex 2179.9456210079843 748.1480870560641 0.0
    vertex 2184.708121007984 743.3855870560642 0.0
    vertex 2179.9456210079843 671.9480870560642 0.0
  endloop
endfacet
facet normal 0.0 0.0 -1.0
  outer loop
    vertex 2184.708121007984 743.3855870560642 0.0
    vertex 2179.9456210079843 748.1480870560641 0.0
    vertex 2205.3456210079844 748.1480870560641 0.0
  endloop
endfacet
facet normal 0.0 0.0 -1.0
  outer loop
    vertex 2184.708121007984 743.3855870560642 0.0
    vertex 2205.3456210079844 748.1480870560641 0.0
    vertex 2200.583121007984 743.3855870560642 0.0
  endloop
endfacet
facet normal 0.0 0.0 -1.0
  outer loop
    vertex 2200.583121007984 743.3855870560642 0.0
    vertex 2205.3456210079844 748.1480870560641 0.0
    vertex 2200.583121007984 676.7105870560641 0.0
  endloop
endfacet
facet normal 0.0 0.0 -1.0
  outer loop
    vertex 2179.9456210079843 671.9480870560642 0.0
    vertex 2184.708121007984 676.7105870560641 0.0
    vertex 2205.3456210079844 671.9480870560642 0.0
  endloop
endfacet
facet normal 0.0 0.0 -1.0
  outer loop
    vertex 2184.708121007984 676.7105870560641 0.0
    vertex 2179.9456210079843 671.9480870560642 0.0
    vertex 2184.708121007984 743.3855870560642 0.0
  endloop
endfacet
facet normal 0.0 0.0 -1.0
  outer loop
    vertex 2205.3456210079844 671.9480870560642 0.0
    vertex 2184.708121007984 676.7105870560641 0.0
    vertex 2200.583121007984 676.7105870560641 0.0
  endloop
endfacet
facet normal 0.0 0.0 -1.0
  outer loop
    vertex 2205.3456210079844 671.9480870560642 0.0
    vertex 2200.583121007984 676.7105870560641 0.0
    vertex 2205.3456210079844 748.1480870560641 0.0
  endloop
endfacet
facet normal 0.0 1.0 0.0
  outer loop
    vertex 2179.9456210079843 748.1480870560641 25.4
    vertex 2205.3456210079844 748.1480870560641 0.0
    vertex 2179.9456210079843 748.1480870560641 0.0
  endloop
endfacet
facet normal 0.0 1.0 0.0
  outer loop
    vertex 2205.3456210079844 748.1480870560641 0.0
    vertex 2179.9456210079843 748.1480870560641 25.4
    vertex 2205.3456210079844 748.1480870560641 25.4
  endloop
endfacet
facet normal -0.0 -1.0 -0.0
  outer loop
    vertex 2205.3456210079844 671.9480870560642 25.4
    vertex 2179.9456210079843 671.9480870560642 0.0
    vertex 2205.3456210079844 671.9480870560642 0.0
  endloop
endfacet
facet normal -0.0 -1.0 -0.0
  outer loop
    vertex 2179.9456210079843 671.9480870560642 0.0
    vertex 2205.3456210079844 671.9480870560642 25.4
    vertex 2179.9456210079843 671.9480870560642 25.4
  endloop
endfacet
facet normal -1.0 0.0 0.0
  outer loop
    vertex 2179.9456210079843 748.1480870560641 25.4
    vertex 2179.9456210079843 671.9480870560642 0.0
    vertex 2179.9456210079843 671.9480870560642 25.4
  endloop
endfacet
facet normal -1.0 0.0 0.0
  outer loop
    vertex 2179.9456210079843 671.9480870560642 0.0
    vertex 2179.9456210079843 748.1480870560641 25.4
    vertex 2179.9456210079843 748.1480870560641 0.0
  endloop
endfacet
facet normal 1.0 0.0 0.0
  outer loop
    vertex 2205.3456210079844 748.1480870560641 0.0
    vertex 2205.3456210079844 671.9480870560642 25.4
    vertex 2205.3456210079844 671.9480870560642 0.0
  endloop
endfacet
facet normal 1.0 0.0 0.0
  outer loop
    vertex 2205.3456210079844 671.9480870560642 25.4
    vertex 2205.3456210079844 748.1480870560641 0.0
    vertex 2205.3456210079844 748.1480870560641 25.4
  endloop
endfacet
facet normal 0.0 0.0 1.0
  outer loop
    vertex 2179.9456210079843 671.9480870560642 25.4
    vertex 2184.708121007984 676.7105870560641 25.4
    vertex 2179.9456210079843 748.1480870560641 25.4
  endloop
endfacet
facet normal 0.0 0.0 1.0
  outer loop
    vertex 2184.708121007984 676.7105870560641 25.4
    vertex 2179.9456210079843 671.9480870560642 25.4
    vertex 2205.3456210079844 671.9480870560642 25.4
  endloop
endfacet
facet normal 0.0 0.0 1.0
  outer loop
    vertex 2184.708121007984 676.7105870560641 25.4
    vertex 2205.3456210079844 671.9480870560642 25.4
    vertex 2200.583121007984 676.7105870560641 25.4
  endloop
endfacet
facet normal 0.0 0.0 1.0
  outer loop
    vertex 2200.583121007984 676.7105870560641 25.4
    vertex 2205.3456210079844 671.9480870560642 25.4
    vertex 2200.583121007984 743.3855870560642 25.4
  endloop
endfacet
facet normal 0.0 0.0 1.0
  outer loop
    vertex 2179.9456210079843 748.1480870560641 25.4
    vertex 2184.708121007984 743.3855870560642 25.4
    vertex 2205.3456210079844 748.1480870560641 25.4
  endloop
endfacet
facet normal 0.0 0.0 1.0
  outer loop
    vertex 2184.708121007984 743.3855870560642 25.4
    vertex 2179.9456210079843 748.1480870560641 25.4
    vertex 2184.708121007984 676.7105870560641 25.4
  endloop
endfacet
facet normal 0.0 0.0 1.0
  outer loop
    vertex 2205.3456210079844 748.1480870560641 25.4
    vertex 2184.708121007984 743.3855870560642 25.4
    vertex 2200.583121007984 743.3855870560642 25.4
  endloop
endfacet
facet normal 0.0 0.0 1.0
  outer loop
    vertex 2205.3456210079844 748.1480870560641 25.4
    vertex 2200.583121007984 743.3855870560642 25.4
    vertex 2205.3456210079844 671.9480870560642 25.4
  endloop
endfacet
facet normal -0.0 -1.0 -0.0
  outer loop
    vertex 2200.583121007984 743.3855870560642 25.4
    vertex 2184.708121007984 743.3855870560642 0.0
    vertex 2200.583121007984 743.3855870560642 0.0
  endloop
endfacet
facet normal -0.0 -1.0 -0.0
  outer loop
    vertex 2184.708121007984 743.3855870560642 0.0
    vertex 2200.583121007984 743.3855870560642 25.4
    vertex 2184.708121007984 743.3855870560642 25.4
  endloop
endfacet
facet normal 1.0 0.0 0.0
  outer loop
    vertex 2184.708121007984 743.3855870560642 0.0
    vertex 2184.708121007984 676.7105870560641 25.4
    vertex 2184.708121007984 676.7105870560641 0.0
  endloop
endfacet
facet normal 1.0 0.0 0.0
  outer loop
    vertex 2184.708121007984 676.7105870560641 25.4
    vertex 2184.708121007984 743.3855870560642 0.0
    vertex 2184.708121007984 743.3855870560642 25.4
  endloop
endfacet
endsolid box draft 1
