solid box draft 1
facet normal -3.1910562488671304e-14 0.9958932064677035 -0.09053574604252242
  outer loop
    vertex 2779.8483866630386 129.70553772662268 42.74999999999929
    vertex 2773.848386663035 128.70553772662262 31.750000000001407
    vertex 2773.8483866630386 129.70553772662268 42.750000000001414
  endloop
endfacet
facet normal -3.1910562488671304e-14 0.9958932064677035 -0.09053574604252242
  outer loop
    vertex 2773.848386663035 128.70553772662262 31.750000000001407
    vertex 2779.8483866630386 129.70553772662268 42.74999999999929
    vertex 2777.848386663035 128.70553772662262 31.75
  endloop
endfacet
facet normal 2.7956564864031647e-13 0.6087614290087782 0.7933533402911911
  outer loop
    vertex 2771.8483866630368 127.16013188122447 35.20459415460398
    vertex 2773.848386663036 126.88053772662268 35.41913429511044
    vertex 2773.8483866630363 127.16013188122447 35.204594154603285
  endloop
endfacet
facet normal 2.7956564864031647e-13 0.6087614290087782 0.7933533402911911
  outer loop
    vertex 2773.848386663036 126.88053772662268 35.41913429511044
    vertex 2771.8483866630368 127.16013188122447 35.20459415460398
    vertex 2771.8483866630363 126.88053772662268 35.41913429511112
  endloop
endfacet
facet normal -2.1451826711360828e-13 -0.7933533402911526 -0.6087614290088285
  outer loop
    vertex 2771.8483866630354 125.03640343151362 33.57500000000208
    vertex 2773.848386663035 125.25094357202083 33.29540584539955
    vertex 2773.848386663035 125.03640343151362 33.57500000000139
  endloop
endfacet
facet normal -2.1451826711360828e-13 -0.7933533402911526 -0.6087614290088285
  outer loop
    vertex 2773.848386663035 125.25094357202083 33.29540584539955
    vertex 2771.8483866630354 125.03640343151362 33.57500000000208
    vertex 2771.8483866630354 125.25094357202083 33.295405845400246
  endloop
endfacet
facet normal 1.3485182019121963e-13 0.9238795325112835 0.3826834323650976
  outer loop
    vertex 2773.8483866630354 127.50953759211293 34.59940571088983
    vertex 2771.848386663036 127.37467202173168 34.92500000000213
    vertex 2773.8483866630354 127.37467202173168 34.92500000000144
  endloop
endfacet
facet normal 1.3485182019121963e-13 0.9238795325112835 0.3826834323650976
  outer loop
    vertex 2771.848386663036 127.37467202173168 34.92500000000213
    vertex 2773.8483866630354 127.50953759211293 34.59940571088983
    vertex 2771.848386663036 127.50953759211293 34.59940571089054
  endloop
endfacet
facet normal 3.255631127127049e-13 0.38268343236501595 0.9238795325113173
  outer loop
    vertex 2753.8483866630363 126.88053772662268 35.419134295117445
    vertex 2755.848386663036 126.55494343751103 35.55399986549798
    vertex 2755.848386663036 126.88053772662268 35.419134295116734
  endloop
endfacet
facet normal 3.255631127127049e-13 0.38268343236501595 0.9238795325113173
  outer loop
    vertex 2755.848386663036 126.55494343751103 35.55399986549798
    vertex 2753.8483866630363 126.88053772662268 35.419134295117445
    vertex 2753.8483866630363 126.55494343751103 35.55399986549869
  endloop
endfacet
facet normal 1.3485182019114166e-13 -0.9238795325113752 0.3826834323648763
  outer loop
    vertex 2771.848386663036 125.03640343151362 34.92500000000209
    vertex 2773.8483866630354 124.90153786113245 34.599405710889805
    vertex 2773.8483866630354 125.03640343151362 34.92500000000141
  endloop
endfacet
facet normal 1.3485182019114166e-13 -0.9238795325113752 0.3826834323648763
  outer loop
    vertex 2773.8483866630354 124.90153786113245 34.599405710889805
    vertex 2771.848386663036 125.03640343151362 34.92500000000209
    vertex 2771.848386663036 124.90153786113245 34.5994057108905
  endloop
endfacet
facet normal 3.2556109321634254e-13 0.3826834323650298 0.9238795325113117
  outer loop
    vertex 2771.8483866630363 126.88053772662268 35.41913429511112
    vertex 2773.848386663036 126.55494343751103 35.55399986549168
    vertex 2773.848386663036 126.88053772662268 35.41913429511044
  endloop
endfacet
facet normal 3.2556109321634254e-13 0.3826834323650298 0.9238795325113117
  outer loop
    vertex 2773.848386663036 126.55494343751103 35.55399986549168
    vertex 2771.8483866630363 126.88053772662268 35.41913429511112
    vertex 2771.8483866630363 126.55494343751103 35.55399986549238
  endloop
endfacet
facet normal 3.4937008730478573e-13 -0.1305261922200822 0.9914448613738064
  outer loop
    vertex 2771.8483866630363 126.20553772662257 35.60000000000213
    vertex 2773.848386663036 125.85613201573419 35.553999865491676
    vertex 2773.848386663036 126.20553772662257 35.600000000001444
  endloop
endfacet
facet normal 3.4937008730478573e-13 -0.1305261922200822 0.9914448613738064
  outer loop
    vertex 2773.848386663036 125.85613201573419 35.553999865491676
    vertex 2771.8483866630363 126.20553772662257 35.60000000000213
    vertex 2771.8483866630363 125.85613201573419 35.553999865492365
  endloop
endfacet
facet normal 1.0 -2.772849700527292e-15 -4.1509906623104993e-13
  outer loop
    vertex 2784.9983866630387 118.77187409094529 42.74999999999747
    vertex 2784.9983866630405 112.42187409094528 47.74999999999748
    vertex 2784.998386663038 112.42187409094528 42.74999999999747
  endloop
endfacet
facet normal 1.0 -2.772849700527292e-15 -4.1509906623104993e-13
  outer loop
    vertex 2784.9983866630405 112.42187409094528 47.74999999999748
    vertex 2784.9983866630387 118.77187409094529 42.74999999999747
    vertex 2784.9983866630405 163.22187409094528 47.74999999999748
  endloop
endfacet
facet normal 1.0 -2.772849700527292e-15 -4.1509906623104993e-13
  outer loop
    vertex 2784.9983866630405 163.22187409094528 47.74999999999748
    vertex 2784.9983866630387 118.77187409094529 42.74999999999747
    vertex 2784.9983866630387 156.87187409094528 42.74999999999747
  endloop
endfacet
facet normal 1.0 -2.772849700527292e-15 -4.1509906623104993e-13
  outer loop
    vertex 2784.9983866630405 163.22187409094528 47.74999999999748
    vertex 2784.9983866630387 156.87187409094528 42.74999999999747
    vertex 2784.998386663038 163.22187409094528 42.74999999999745
  endloop
endfacet
facet normal -3.1931990923484484e-14 -0.9958932064677035 -0.09053574604252242
  outer loop
    vertex 2773.848386663035 123.7055377266226 31.750000000001407
    vertex 2779.8483866630386 122.70553772662254 42.74999999999929
    vertex 2773.8483866630386 122.70553772662254 42.750000000001414
  endloop
endfacet
facet normal -3.1931990923484484e-14 -0.9958932064677035 -0.09053574604252242
  outer loop
    vertex 2779.8483866630386 122.70553772662254 42.74999999999929
    vertex 2773.848386663035 123.7055377266226 31.750000000001407
    vertex 2777.848386663035 123.7055377266226 31.75
  endloop
endfacet
facet normal -4.5995444576010676e-14 0.9914448613738073 -0.13052619222007678
  outer loop
    vertex 2755.848386663036 127.55553772662262 34.25000000000777
    vertex 2753.8483866630354 127.50953759211285 33.900594289120086
    vertex 2753.8483866630363 127.55553772662262 34.250000000008484
  endloop
endfacet
facet normal -4.5995444576010676e-14 0.9914448613738073 -0.13052619222007678
  outer loop
    vertex 2753.8483866630354 127.50953759211285 33.900594289120086
    vertex 2755.848386663036 127.55553772662262 34.25000000000777
    vertex 2755.8483866630354 127.50953759211285 33.900594289119375
  endloop
endfacet
facet normal 0.9838699100998404 1.8261848323668632e-17 -0.17888543820035302
  outer loop
    vertex 2759.848386663035 123.7055377266226 31.750000000006338
    vertex 2761.848386663039 129.70553772662268 42.75000000000563
    vertex 2761.848386663039 122.70553772662254 42.75000000000563
  endloop
endfacet
facet normal 0.9838699100998404 1.8261848323668632e-17 -0.17888543820035302
  outer loop
    vertex 2761.848386663039 129.70553772662268 42.75000000000563
    vertex 2759.848386663035 123.7055377266226 31.750000000006338
    vertex 2759.848386663035 128.70553772662262 31.750000000006338
  endloop
endfacet
facet normal -2.1451826711360023e-13 0.7933533402911553 -0.6087614290088246
  outer loop
    vertex 2755.8483866630354 127.37467202173168 33.57500000000778
    vertex 2753.8483866630354 127.16013188122447 33.295405845406655
    vertex 2753.8483866630354 127.37467202173168 33.575000000008494
  endloop
endfacet
facet normal -2.1451826711360023e-13 0.7933533402911553 -0.6087614290088246
  outer loop
    vertex 2753.8483866630354 127.16013188122447 33.295405845406655
    vertex 2755.8483866630354 127.37467202173168 33.57500000000778
    vertex 2755.8483866630354 127.16013188122447 33.295405845405945
  endloop
endfacet
facet normal -1.0 -4.354757455739684e-29 3.609557097661301e-13
  outer loop
    vertex 2755.848386663041 150.91178772662263 47.75000000000778
    vertex 2755.848386663039 123.7055377266226 42.750000000007745
    vertex 2755.848386663041 123.7055377266226 47.75000000000778
  endloop
endfacet
facet normal -1.0 -4.354757455739684e-29 3.609557097661301e-13
  outer loop
    vertex 2755.848386663039 123.7055377266226 42.750000000007745
    vertex 2755.848386663041 150.91178772662263 47.75000000000778
    vertex 2755.848386663039 129.70553772662268 42.750000000007745
  endloop
endfacet
facet normal -1.0 -4.354757455739684e-29 3.609557097661301e-13
  outer loop
    vertex 2755.848386663039 123.7055377266226 42.750000000007745
    vertex 2755.848386663039 129.70553772662268 42.750000000007745
    vertex 2755.848386663036 125.03640343151362 34.92500000000773
  endloop
endfacet
facet normal -1.0 -4.354757455739684e-29 3.609557097661301e-13
  outer loop
    vertex 2755.848386663039 123.7055377266226 42.750000000007745
    vertex 2755.848386663036 125.03640343151362 34.92500000000773
    vertex 2755.848386663035 123.7055377266226 31.75000000000775
  endloop
endfacet
facet normal -1.0 -4.354757455739684e-29 3.609557097661301e-13
  outer loop
    vertex 2755.848386663035 123.7055377266226 31.75000000000775
    vertex 2755.848386663036 125.03640343151362 34.92500000000773
    vertex 2755.848386663036 124.90153786113245 34.59940571089613
  endloop
endfacet
facet normal -1.0 -4.354757455739684e-29 3.609557097661301e-13
  outer loop
    vertex 2755.848386663035 123.7055377266226 31.75000000000775
    vertex 2755.848386663036 124.90153786113245 34.59940571089613
    vertex 2755.848386663036 124.85553772662269 34.25000000000773
  endloop
endfacet
facet normal -1.0 -4.354757455739684e-29 3.609557097661301e-13
  outer loop
    vertex 2755.848386663036 125.03640343151362 34.92500000000773
    vertex 2755.848386663039 129.70553772662268 42.750000000007745
    vertex 2755.8483866630363 125.25094357202074 35.20459415460955
  endloop
endfacet
facet normal -1.0 -4.354757455739684e-29 3.609557097661301e-13
  outer loop
    vertex 2755.8483866630363 125.25094357202074 35.20459415460955
    vertex 2755.848386663039 129.70553772662268 42.750000000007745
    vertex 2755.848386663036 125.53053772662263 35.41913429511671
  endloop
endfacet
facet normal -1.0 -4.354757455739684e-29 3.609557097661301e-13
  outer loop
    vertex 2755.848386663036 125.53053772662263 35.41913429511671
    vertex 2755.848386663039 129.70553772662268 42.750000000007745
    vertex 2755.848386663036 125.85613201573419 35.55399986549797
  endloop
endfacet
facet normal -1.0 -4.354757455739684e-29 3.609557097661301e-13
  outer loop
    vertex 2755.848386663036 125.85613201573419 35.55399986549797
    vertex 2755.848386663039 129.70553772662268 42.750000000007745
    vertex 2755.848386663036 126.20553772662265 35.60000000000773
  endloop
endfacet
facet normal -1.0 -4.354757455739684e-29 3.609557097661301e-13
  outer loop
    vertex 2755.848386663036 126.20553772662265 35.60000000000773
    vertex 2755.848386663039 129.70553772662268 42.750000000007745
    vertex 2755.848386663036 126.55494343751103 35.55399986549798
  endloop
endfacet
facet normal -1.0 -4.354757455739684e-29 3.609557097661301e-13
  outer loop
    vertex 2755.848386663036 126.55494343751103 35.55399986549798
    vertex 2755.848386663039 129.70553772662268 42.750000000007745
    vertex 2755.848386663036 126.88053772662268 35.419134295116734
  endloop
endfacet
facet normal -1.0 -4.354757455739684e-29 3.609557097661301e-13
  outer loop
    vertex 2755.848386663036 126.88053772662268 35.419134295116734
    vertex 2755.848386663039 129.70553772662268 42.750000000007745
    vertex 2755.8483866630363 127.16013188122447 35.204594154609595
  endloop
endfacet
facet normal -1.0 -4.354757455739684e-29 3.609557097661301e-13
  outer loop
    vertex 2755.8483866630363 127.16013188122447 35.204594154609595
    vertex 2755.848386663039 129.70553772662268 42.750000000007745
    vertex 2755.848386663036 127.3746720217316 34.92500000000777
  endloop
endfacet
facet normal -1.0 -4.354757455739684e-29 3.609557097661301e-13
  outer loop
    vertex 2755.848386663036 127.3746720217316 34.92500000000777
    vertex 2755.848386663039 129.70553772662268 42.750000000007745
    vertex 2755.848386663036 127.50953759211285 34.59940571089618
  endloop
endfacet
facet normal -1.0 -4.354757455739684e-29 3.609557097661301e-13
  outer loop
    vertex 2755.848386663036 127.50953759211285 34.59940571089618
    vertex 2755.848386663039 129.70553772662268 42.750000000007745
    vertex 2755.848386663036 127.55553772662262 34.25000000000777
  endloop
endfacet
facet normal -1.0 -4.354757455739684e-29 3.609557097661301e-13
  outer loop
    vertex 2755.848386663036 127.55553772662262 34.25000000000777
    vertex 2755.848386663039 129.70553772662268 42.750000000007745
    vertex 2755.848386663035 128.70553772662262 31.75000000000775
  endloop
endfacet
facet normal -1.0 -4.354757455739684e-29 3.609557097661301e-13
  outer loop
    vertex 2755.848386663039 129.70553772662268 42.750000000007745
    vertex 2755.848386663041 150.91178772662263 47.75000000000778
    vertex 2755.8483866630404 150.91178772662263 46.75000000000778
  endloop
endfacet
facet normal -1.0 -4.354757455739684e-29 3.609557097661301e-13
  outer loop
    vertex 2755.848386663039 129.70553772662268 42.750000000007745
    vertex 2755.8483866630404 150.91178772662263 46.75000000000778
    vertex 2755.848386663039 153.70553772662262 42.750000000007745
  endloop
endfacet
facet normal -1.0 -4.354757455739684e-29 3.609557097661301e-13
  outer loop
    vertex 2755.848386663035 123.7055377266226 31.75000000000775
    vertex 2755.848386663041 125.53053772662263 33.080865704898756
    vertex 2755.848386663035 128.70553772662262 31.75000000000775
  endloop
endfacet
facet normal -1.0 -4.354757455739684e-29 3.609557097661301e-13
  outer loop
    vertex 2755.848386663041 125.53053772662263 33.080865704898756
    vertex 2755.848386663035 123.7055377266226 31.75000000000775
    vertex 2755.8483866630354 125.25094357202083 33.29540584540591
  endloop
endfacet
facet normal -1.0 -4.354757455739684e-29 3.609557097661301e-13
  outer loop
    vertex 2755.8483866630354 125.25094357202083 33.29540584540591
    vertex 2755.848386663035 123.7055377266226 31.75000000000775
    vertex 2755.8483866630354 125.0364034315137 33.57500000000774
  endloop
endfacet
facet normal -1.0 -4.354757455739684e-29 3.609557097661301e-13
  outer loop
    vertex 2755.8483866630354 125.0364034315137 33.57500000000774
    vertex 2755.848386663035 123.7055377266226 31.75000000000775
    vertex 2755.8483866630354 124.90153786113245 33.90059428911933
  endloop
endfacet
facet normal -1.0 -4.354757455739684e-29 3.609557097661301e-13
  outer loop
    vertex 2755.8483866630354 124.90153786113245 33.90059428911933
    vertex 2755.848386663035 123.7055377266226 31.75000000000775
    vertex 2755.848386663036 124.85553772662269 34.25000000000773
  endloop
endfacet
facet normal -1.0 -4.354757455739684e-29 3.609557097661301e-13
  outer loop
    vertex 2755.848386663035 128.70553772662262 31.75000000000775
    vertex 2755.848386663041 125.53053772662263 33.080865704898756
    vertex 2755.848386663041 125.85613201573427 32.94600013451751
  endloop
endfacet
facet normal -1.0 -4.354757455739684e-29 3.609557097661301e-13
  outer loop
    vertex 2755.848386663035 128.70553772662262 31.75000000000775
    vertex 2755.848386663041 125.85613201573427 32.94600013451751
    vertex 2755.8483866630354 126.20553772662265 32.900000000007765
  endloop
endfacet
facet normal -1.0 -4.354757455739684e-29 3.609557097661301e-13
  outer loop
    vertex 2755.848386663035 128.70553772662262 31.75000000000775
    vertex 2755.8483866630354 126.20553772662265 32.900000000007765
    vertex 2755.848386663041 126.55494343751111 32.946000134517526
  endloop
endfacet
facet normal -1.0 -4.354757455739684e-29 3.609557097661301e-13
  outer loop
    vertex 2755.848386663035 128.70553772662262 31.75000000000775
    vertex 2755.848386663041 126.55494343751111 32.946000134517526
    vertex 2755.848386663041 126.88053772662268 33.08086570489878
  endloop
endfacet
facet normal -1.0 -4.354757455739684e-29 3.609557097661301e-13
  outer loop
    vertex 2755.848386663035 128.70553772662262 31.75000000000775
    vertex 2755.848386663041 126.88053772662268 33.08086570489878
    vertex 2755.8483866630354 127.16013188122447 33.295405845405945
  endloop
endfacet
facet normal -1.0 -4.354757455739684e-29 3.609557097661301e-13
  outer loop
    vertex 2755.848386663035 128.70553772662262 31.75000000000775
    vertex 2755.8483866630354 127.16013188122447 33.295405845405945
    vertex 2755.8483866630354 127.37467202173168 33.57500000000778
  endloop
endfacet
facet normal -1.0 -4.354757455739684e-29 3.609557097661301e-13
  outer loop
    vertex 2755.848386663035 128.70553772662262 31.75000000000775
    vertex 2755.8483866630354 127.37467202173168 33.57500000000778
    vertex 2755.8483866630354 127.50953759211285 33.900594289119375
  endloop
endfacet
facet normal -1.0 -4.354757455739684e-29 3.609557097661301e-13
  outer loop
    vertex 2755.848386663035 128.70553772662262 31.75000000000775
    vertex 2755.8483866630354 127.50953759211285 33.900594289119375
    vertex 2755.848386663036 127.55553772662262 34.25000000000777
  endloop
endfacet
facet normal -1.0 -4.354757455739684e-29 3.609557097661301e-13
  outer loop
    vertex 2755.848386663035 123.7055377266226 31.75000000000775
    vertex 2755.848386663039 122.70553772662254 42.750000000007745
    vertex 2755.848386663039 123.7055377266226 42.750000000007745
  endloop
endfacet
facet normal -3.2556109321634305e-13 -0.38268343236502633 -0.923879532511313
  outer loop
    vertex 2771.8483866630413 125.53053772662263 33.08086570489309
    vertex 2773.848386663041 125.85613201573427 32.94600013451115
    vertex 2773.848386663041 125.53053772662263 33.080865704892396
  endloop
endfacet
facet normal -3.2556109321634305e-13 -0.38268343236502633 -0.923879532511313
  outer loop
    vertex 2773.848386663041 125.85613201573427 32.94600013451115
    vertex 2771.8483866630413 125.53053772662263 33.08086570489309
    vertex 2771.8483866630413 125.85613201573427 32.94600013451184
  endloop
endfacet
facet normal 2.1451826711360553e-13 0.7933533402911583 0.6087614290088207
  outer loop
    vertex 2773.8483866630354 127.37467202173168 34.92500000000144
    vertex 2771.8483866630368 127.16013188122447 35.20459415460398
    vertex 2773.8483866630363 127.16013188122447 35.204594154603285
  endloop
endfacet
facet normal 2.1451826711360553e-13 0.7933533402911583 0.6087614290088207
  outer loop
    vertex 2771.8483866630368 127.16013188122447 35.20459415460398
    vertex 2773.8483866630354 127.37467202173168 34.92500000000144
    vertex 2771.848386663036 127.37467202173168 34.92500000000213
  endloop
endfacet
facet normal 2.7956564864031167e-13 -0.6087614290087957 0.7933533402911775
  outer loop
    vertex 2773.848386663036 125.53053772662263 35.41913429511042
    vertex 2771.8483866630368 125.25094357202083 35.204594154603946
    vertex 2773.8483866630363 125.25094357202083 35.20459415460326
  endloop
endfacet
facet normal 2.7956564864031167e-13 -0.6087614290087957 0.7933533402911775
  outer loop
    vertex 2771.8483866630368 125.25094357202083 35.204594154603946
    vertex 2773.848386663036 125.53053772662263 35.41913429511042
    vertex 2771.8483866630363 125.53053772662263 35.419134295111114
  endloop
endfacet
facet normal -2.0030352078090248e-13 -0.819833276554784 -0.5726023040937289
  outer loop
    vertex 2745.3483866630404 150.91178772662263 46.75000000001143
    vertex 2755.848386663039 153.70553772662262 42.750000000007745
    vertex 2755.8483866630404 150.91178772662263 46.75000000000778
  endloop
endfacet
facet normal -2.0030352078090248e-13 -0.819833276554784 -0.5726023040937289
  outer loop
    vertex 2755.848386663039 153.70553772662262 42.750000000007745
    vertex 2745.3483866630404 150.91178772662263 46.75000000001143
    vertex 2745.348386663039 153.70553772662262 42.75000000001143
  endloop
endfacet
facet normal 4.599544457601102e-14 0.991444861373807 0.13052619222007783
  outer loop
    vertex 2755.848386663036 127.50953759211285 34.59940571089618
    vertex 2753.8483866630363 127.55553772662262 34.250000000008484
    vertex 2753.848386663036 127.50953759211285 34.59940571089689
  endloop
endfacet
facet normal 4.599544457601102e-14 0.991444861373807 0.13052619222007783
  outer loop
    vertex 2753.8483866630363 127.55553772662262 34.250000000008484
    vertex 2755.848386663036 127.50953759211285 34.59940571089618
    vertex 2755.848386663036 127.55553772662262 34.25000000000777
  endloop
endfacet
facet normal 3.493700873047864e-13 0.13052619222004283 0.9914448613738116
  outer loop
    vertex 2753.8483866630363 126.55494343751103 35.55399986549869
    vertex 2755.848386663036 126.20553772662265 35.60000000000773
    vertex 2755.848386663036 126.55494343751103 35.55399986549798
  endloop
endfacet
facet normal 3.493700873047864e-13 0.13052619222004283 0.9914448613738116
  outer loop
    vertex 2755.848386663036 126.20553772662265 35.60000000000773
    vertex 2753.8483866630363 126.55494343751103 35.55399986549869
    vertex 2753.8483866630363 126.20553772662265 35.60000000000844
  endloop
endfacet
facet normal 3.255610932163269e-13 -0.38268343236513735 0.9238795325112672
  outer loop
    vertex 2753.8483866630363 125.85613201573419 35.55399986549868
    vertex 2755.848386663036 125.53053772662263 35.41913429511671
    vertex 2755.848386663036 125.85613201573419 35.55399986549797
  endloop
endfacet
facet normal 3.255610932163269e-13 -0.38268343236513735 0.9238795325112672
  outer loop
    vertex 2755.848386663036 125.53053772662263 35.41913429511671
    vertex 2753.8483866630363 125.85613201573419 35.55399986549868
    vertex 2753.8483866630363 125.53053772662263 35.41913429511742
  endloop
endfacet
facet normal -2.1451826711355285e-13 -0.7933533402912731 -0.6087614290086711
  outer loop
    vertex 2753.8483866630354 125.25094357202083 33.29540584540662
    vertex 2755.8483866630354 125.0364034315137 33.57500000000774
    vertex 2753.8483866630354 125.0364034315137 33.57500000000846
  endloop
endfacet
facet normal -2.1451826711355285e-13 -0.7933533402912731 -0.6087614290086711
  outer loop
    vertex 2755.8483866630354 125.0364034315137 33.57500000000774
    vertex 2753.8483866630354 125.25094357202083 33.29540584540662
    vertex 2755.8483866630354 125.25094357202083 33.29540584540591
  endloop
endfacet
facet normal 2.1451826711355363e-13 0.7933533402912716 0.6087614290086731
  outer loop
    vertex 2755.8483866630363 127.16013188122447 35.204594154609595
    vertex 2753.848386663036 127.3746720217316 34.92500000000848
    vertex 2753.8483866630363 127.16013188122447 35.204594154610305
  endloop
endfacet
facet normal 2.1451826711355363e-13 0.7933533402912716 0.6087614290086731
  outer loop
    vertex 2753.848386663036 127.3746720217316 34.92500000000848
    vertex 2755.8483866630363 127.16013188122447 35.204594154609595
    vertex 2755.848386663036 127.3746720217316 34.92500000000777
  endloop
endfacet
facet normal 0.0 1.0 0.0
  outer loop
    vertex 2784.998386663038 163.22187409094528 42.74999999999745
    vertex 2734.1983866630408 163.22187409094528 47.750000000015376
    vertex 2784.9983866630405 163.22187409094528 47.74999999999748
  endloop
endfacet
facet normal 0.0 1.0 0.0
  outer loop
    vertex 2734.1983866630408 163.22187409094528 47.750000000015376
    vertex 2784.998386663038 163.22187409094528 42.74999999999745
    vertex 2778.6483866630388 163.22187409094528 42.749999999999716
  endloop
endfacet
facet normal 0.0 1.0 0.0
  outer loop
    vertex 2734.1983866630408 163.22187409094528 47.750000000015376
    vertex 2740.548386663039 163.22187409094528 42.75000000001313
    vertex 2734.1983866630394 163.22187409094528 42.75000000001536
  endloop
endfacet
facet normal 0.0 1.0 0.0
  outer loop
    vertex 2740.548386663039 163.22187409094528 42.75000000001313
    vertex 2734.1983866630408 163.22187409094528 47.750000000015376
    vertex 2778.6483866630388 163.22187409094528 42.749999999999716
  endloop
endfacet
facet normal 1.0 8.440597971323026e-30 -3.6095570976613087e-13
  outer loop
    vertex 2763.3483866630386 153.70553772662262 42.7500000000051
    vertex 2763.3483866630404 123.7055377266226 47.75000000000511
    vertex 2763.3483866630386 123.7055377266226 42.7500000000051
  endloop
endfacet
facet normal 1.0 8.440597971323026e-30 -3.6095570976613087e-13
  outer loop
    vertex 2763.3483866630404 123.7055377266226 47.75000000000511
    vertex 2763.3483866630386 153.70553772662262 42.7500000000051
    vertex 2763.34838666304 150.91178772662263 46.75000000000511
  endloop
endfacet
facet normal 1.0 8.440597971323026e-30 -3.6095570976613087e-13
  outer loop
    vertex 2763.3483866630404 150.91178772662263 47.75000000000511
    vertex 2763.3483866630404 123.7055377266226 47.75000000000511
    vertex 2763.34838666304 150.91178772662263 46.75000000000511
  endloop
endfacet
facet normal -1.0 8.318549101581602e-15 3.4290792427782353e-13
  outer loop
    vertex 2734.1983866630408 163.22187409094528 47.750000000015376
    vertex 2734.1983866630385 112.42187409094528 42.75000000001534
    vertex 2734.1983866630408 112.42187409094528 47.750000000015376
  endloop
endfacet
facet normal -1.0 8.318549101581602e-15 3.4290792427782353e-13
  outer loop
    vertex 2734.1983866630385 112.42187409094528 42.75000000001534
    vertex 2734.1983866630408 163.22187409094528 47.750000000015376
    vertex 2734.198386663039 118.77187409094529 42.750000000015376
  endloop
endfacet
facet normal -1.0 8.318549101581602e-15 3.4290792427782353e-13
  outer loop
    vertex 2734.198386663039 118.77187409094529 42.750000000015376
    vertex 2734.1983866630408 163.22187409094528 47.750000000015376
    vertex 2734.198386663039 156.87187409094528 42.750000000015376
  endloop
endfacet
facet normal -1.0 8.318549101581602e-15 3.4290792427782353e-13
  outer loop
    vertex 2734.198386663039 156.87187409094528 42.750000000015376
    vertex 2734.1983866630408 163.22187409094528 47.750000000015376
    vertex 2734.1983866630394 163.22187409094528 42.75000000001536
  endloop
endfacet
facet normal -1.0 0.0 3.523847880160247e-13
  outer loop
    vertex 2753.848386663036 124.90153786113245 34.59940571089684
    vertex 2753.8483866630354 124.90153786113245 33.90059428912004
    vertex 2753.8483866630363 124.85553772662269 34.25000000000844
  endloop
endfacet
facet normal -1.0 0.0 3.523847880160247e-13
  outer loop
    vertex 2753.8483866630354 124.90153786113245 33.90059428912004
    vertex 2753.848386663036 124.90153786113245 34.59940571089684
    vertex 2753.848386663036 125.03640343151362 34.92500000000844
  endloop
endfacet
facet normal -1.0 0.0 3.523847880160247e-13
  outer loop
    vertex 2753.8483866630354 124.90153786113245 33.90059428912004
    vertex 2753.848386663036 125.03640343151362 34.92500000000844
    vertex 2753.8483866630354 125.0364034315137 33.57500000000846
  endloop
endfacet
facet normal -1.0 0.0 3.523847880160247e-13
  outer loop
    vertex 2753.8483866630354 125.0364034315137 33.57500000000846
    vertex 2753.848386663036 125.03640343151362 34.92500000000844
    vertex 2753.8483866630363 125.25094357202074 35.20459415461026
  endloop
endfacet
facet normal -1.0 0.0 3.523847880160247e-13
  outer loop
    vertex 2753.8483866630354 125.0364034315137 33.57500000000846
    vertex 2753.8483866630363 125.25094357202074 35.20459415461026
    vertex 2753.8483866630354 125.25094357202083 33.29540584540662
  endloop
endfacet
facet normal -1.0 0.0 3.523847880160247e-13
  outer loop
    vertex 2753.8483866630354 125.25094357202083 33.29540584540662
    vertex 2753.8483866630363 125.25094357202074 35.20459415461026
    vertex 2753.8483866630363 125.53053772662263 35.41913429511742
  endloop
endfacet
facet normal -1.0 0.0 3.523847880160247e-13
  outer loop
    vertex 2753.8483866630354 125.25094357202083 33.29540584540662
    vertex 2753.8483866630363 125.53053772662263 35.41913429511742
    vertex 2753.8483866630413 125.53053772662263 33.08086570489948
  endloop
endfacet
facet normal -1.0 0.0 3.523847880160247e-13
  outer loop
    vertex 2753.8483866630413 125.53053772662263 33.08086570489948
    vertex 2753.8483866630363 125.53053772662263 35.41913429511742
    vertex 2753.8483866630363 125.85613201573419 35.55399986549868
  endloop
endfacet
facet normal -1.0 0.0 3.523847880160247e-13
  outer loop
    vertex 2753.8483866630413 125.53053772662263 33.08086570489948
    vertex 2753.8483866630363 125.85613201573419 35.55399986549868
    vertex 2753.8483866630413 125.85613201573427 32.946000134518236
  endloop
endfacet
facet normal -1.0 0.0 3.523847880160247e-13
  outer loop
    vertex 2753.8483866630413 125.85613201573427 32.946000134518236
    vertex 2753.8483866630363 125.85613201573419 35.55399986549868
    vertex 2753.8483866630363 126.20553772662265 35.60000000000844
  endloop
endfacet
facet normal -1.0 0.0 3.523847880160247e-13
  outer loop
    vertex 2753.8483866630413 125.85613201573427 32.946000134518236
    vertex 2753.8483866630363 126.20553772662265 35.60000000000844
    vertex 2753.848386663035 126.20553772662265 32.900000000008475
  endloop
endfacet
facet normal -1.0 0.0 3.523847880160247e-13
  outer loop
    vertex 2753.848386663035 126.20553772662265 32.900000000008475
    vertex 2753.8483866630363 126.20553772662265 35.60000000000844
    vertex 2753.8483866630363 126.55494343751103 35.55399986549869
  endloop
endfacet
facet normal -1.0 0.0 3.523847880160247e-13
  outer loop
    vertex 2753.848386663035 126.20553772662265 32.900000000008475
    vertex 2753.8483866630363 126.55494343751103 35.55399986549869
    vertex 2753.8483866630413 126.55494343751111 32.94600013451824
  endloop
endfacet
facet normal -1.0 0.0 3.523847880160247e-13
  outer loop
    vertex 2753.8483866630413 126.55494343751111 32.94600013451824
    vertex 2753.8483866630363 126.55494343751103 35.55399986549869
    vertex 2753.8483866630363 126.88053772662268 35.419134295117445
  endloop
endfacet
facet normal -1.0 0.0 3.523847880160247e-13
  outer loop
    vertex 2753.8483866630413 126.55494343751111 32.94600013451824
    vertex 2753.8483866630363 126.88053772662268 35.419134295117445
    vertex 2753.8483866630413 126.88053772662268 33.0808657048995
  endloop
endfacet
facet normal -1.0 0.0 3.523847880160247e-13
  outer loop
    vertex 2753.8483866630413 126.88053772662268 33.0808657048995
    vertex 2753.8483866630363 126.88053772662268 35.419134295117445
    vertex 2753.8483866630363 127.16013188122447 35.204594154610305
  endloop
endfacet
facet normal -1.0 0.0 3.523847880160247e-13
  outer loop
    vertex 2753.8483866630413 126.88053772662268 33.0808657048995
    vertex 2753.8483866630363 127.16013188122447 35.204594154610305
    vertex 2753.8483866630354 127.16013188122447 33.295405845406655
  endloop
endfacet
facet normal -1.0 0.0 3.523847880160247e-13
  outer loop
    vertex 2753.8483866630354 127.16013188122447 33.295405845406655
    vertex 2753.8483866630363 127.16013188122447 35.204594154610305
    vertex 2753.848386663036 127.3746720217316 34.92500000000848
  endloop
endfacet
facet normal -1.0 0.0 3.523847880160247e-13
  outer loop
    vertex 2753.8483866630354 127.16013188122447 33.295405845406655
    vertex 2753.848386663036 127.3746720217316 34.92500000000848
    vertex 2753.8483866630354 127.37467202173168 33.575000000008494
  endloop
endfacet
facet normal -1.0 0.0 3.523847880160247e-13
  outer loop
    vertex 2753.8483866630354 127.37467202173168 33.575000000008494
    vertex 2753.848386663036 127.3746720217316 34.92500000000848
    vertex 2753.848386663036 127.50953759211285 34.59940571089689
  endloop
endfacet
facet normal -1.0 0.0 3.523847880160247e-13
  outer loop
    vertex 2753.8483866630354 127.37467202173168 33.575000000008494
    vertex 2753.848386663036 127.50953759211285 34.59940571089689
    vertex 2753.8483866630354 127.50953759211285 33.900594289120086
  endloop
endfacet
facet normal -1.0 0.0 3.523847880160247e-13
  outer loop
    vertex 2753.8483866630354 127.50953759211285 33.900594289120086
    vertex 2753.848386663036 127.50953759211285 34.59940571089689
    vertex 2753.8483866630363 127.55553772662262 34.250000000008484
  endloop
endfacet
facet normal -3.493700873047888e-13 -0.13052619222003892 -0.991444861373812
  outer loop
    vertex 2753.8483866630413 125.85613201573427 32.946000134518236
    vertex 2755.8483866630354 126.20553772662265 32.900000000007765
    vertex 2755.848386663041 125.85613201573427 32.94600013451751
  endloop
endfacet
facet normal -3.493700873047888e-13 -0.13052619222003892 -0.991444861373812
  outer loop
    vertex 2755.8483866630354 126.20553772662265 32.900000000007765
    vertex 2753.8483866630413 125.85613201573427 32.946000134518236
    vertex 2753.848386663035 126.20553772662265 32.900000000008475
  endloop
endfacet
facet normal -3.190341967706691e-14 0.9958932064677035 -0.09053574604252243
  outer loop
    vertex 2759.848386663035 128.70553772662262 31.750000000006338
    vertex 2755.848386663039 129.70553772662268 42.750000000007745
    vertex 2761.848386663039 129.70553772662268 42.75000000000563
  endloop
endfacet
facet normal -3.190341967706691e-14 0.9958932064677035 -0.09053574604252243
  outer loop
    vertex 2755.848386663039 129.70553772662268 42.750000000007745
    vertex 2759.848386663035 128.70553772662262 31.750000000006338
    vertex 2755.848386663035 128.70553772662262 31.75000000000775
  endloop
endfacet
facet normal 4.5995444576098625e-14 -0.9914448613737743 0.13052619222032644
  outer loop
    vertex 2771.848386663036 124.90153786113245 34.5994057108905
    vertex 2773.848386663036 124.8555377266226 34.25000000000139
    vertex 2773.8483866630354 124.90153786113245 34.599405710889805
  endloop
endfacet
facet normal 4.5995444576098625e-14 -0.9914448613737743 0.13052619222032644
  outer loop
    vertex 2773.848386663036 124.8555377266226 34.25000000000139
    vertex 2771.848386663036 124.90153786113245 34.5994057108905
    vertex 2771.8483866630363 124.8555377266226 34.25000000000209
  endloop
endfacet
facet normal -1.3485182019114067e-13 0.9238795325113763 -0.3826834323648735
  outer loop
    vertex 2773.848386663035 127.37467202173168 33.575000000001424
    vertex 2771.8483866630354 127.50953759211285 33.90059428911371
    vertex 2773.848386663035 127.50953759211285 33.90059428911303
  endloop
endfacet
facet normal -1.3485182019114067e-13 0.9238795325113763 -0.3826834323648735
  outer loop
    vertex 2771.8483866630354 127.50953759211285 33.90059428911371
    vertex 2773.848386663035 127.37467202173168 33.575000000001424
    vertex 2771.8483866630354 127.37467202173168 33.57500000000211
  endloop
endfacet
facet normal -3.493700873047878e-13 0.13052619222003722 -0.9914448613738123
  outer loop
    vertex 2755.8483866630354 126.20553772662265 32.900000000007765
    vertex 2753.8483866630413 126.55494343751111 32.94600013451824
    vertex 2755.848386663041 126.55494343751111 32.946000134517526
  endloop
endfacet
facet normal -3.493700873047878e-13 0.13052619222003722 -0.9914448613738123
  outer loop
    vertex 2753.8483866630413 126.55494343751111 32.94600013451824
    vertex 2755.8483866630354 126.20553772662265 32.900000000007765
    vertex 2753.848386663035 126.20553772662265 32.900000000008475
  endloop
endfacet
facet normal 0.0 -1.0 0.0
  outer loop
    vertex 2763.3483866630404 150.91178772662263 47.75000000000511
    vertex 2773.8483866630404 150.91178772662263 46.750000000001414
    vertex 2773.8483866630404 150.91178772662263 47.750000000001414
  endloop
endfacet
facet normal 0.0 -1.0 0.0
  outer loop
    vertex 2773.8483866630404 150.91178772662263 46.750000000001414
    vertex 2763.3483866630404 150.91178772662263 47.75000000000511
    vertex 2763.34838666304 150.91178772662263 46.75000000000511
  endloop
endfacet
facet normal 3.493700873047875e-13 -0.13052619222004513 0.9914448613738114
  outer loop
    vertex 2753.8483866630363 126.20553772662265 35.60000000000844
    vertex 2755.848386663036 125.85613201573419 35.55399986549797
    vertex 2755.848386663036 126.20553772662265 35.60000000000773
  endloop
endfacet
facet normal 3.493700873047875e-13 -0.13052619222004513 0.9914448613738114
  outer loop
    vertex 2755.848386663036 125.85613201573419 35.55399986549797
    vertex 2753.8483866630363 126.20553772662265 35.60000000000844
    vertex 2753.8483866630363 125.85613201573419 35.55399986549868
  endloop
endfacet
facet normal -1.3485182019114463e-13 0.9238795325113717 -0.3826834323648848
  outer loop
    vertex 2755.8483866630354 127.50953759211285 33.900594289119375
    vertex 2753.8483866630354 127.37467202173168 33.575000000008494
    vertex 2753.8483866630354 127.50953759211285 33.900594289120086
  endloop
endfacet
facet normal -1.3485182019114463e-13 0.9238795325113717 -0.3826834323648848
  outer loop
    vertex 2753.8483866630354 127.37467202173168 33.575000000008494
    vertex 2755.8483866630354 127.50953759211285 33.900594289119375
    vertex 2755.8483866630354 127.37467202173168 33.57500000000778
  endloop
endfacet
facet normal 0.0 1.0 0.0
  outer loop
    vertex 2773.8483866630386 123.7055377266226 42.750000000001414
    vertex 2763.3483866630404 123.7055377266226 47.75000000000511
    vertex 2773.8483866630404 123.7055377266226 47.750000000001414
  endloop
endfacet
facet normal 0.0 1.0 0.0
  outer loop
    vertex 2763.3483866630404 123.7055377266226 47.75000000000511
    vertex 2773.8483866630386 123.7055377266226 42.750000000001414
    vertex 2763.3483866630386 123.7055377266226 42.7500000000051
  endloop
endfacet
facet normal 2.795656486403185e-13 0.6087614290087706 0.7933533402911969
  outer loop
    vertex 2753.8483866630363 127.16013188122447 35.204594154610305
    vertex 2755.848386663036 126.88053772662268 35.419134295116734
    vertex 2755.8483866630363 127.16013188122447 35.204594154609595
  endloop
endfacet
facet normal 2.795656486403185e-13 0.6087614290087706 0.7933533402911969
  outer loop
    vertex 2755.848386663036 126.88053772662268 35.419134295116734
    vertex 2753.8483866630363 127.16013188122447 35.204594154610305
    vertex 2753.8483866630363 126.88053772662268 35.419134295117445
  endloop
endfacet
facet normal -3.255610932163269e-13 0.38268343236513735 -0.9238795325112672
  outer loop
    vertex 2771.8483866630413 126.55494343751111 32.94600013451185
    vertex 2773.848386663041 126.88053772662268 33.08086570489242
    vertex 2773.848386663041 126.55494343751111 32.94600013451116
  endloop
endfacet
facet normal -3.255610932163269e-13 0.38268343236513735 -0.9238795325112672
  outer loop
    vertex 2773.848386663041 126.88053772662268 33.08086570489242
    vertex 2771.8483866630413 126.55494343751111 32.94600013451185
    vertex 2771.8483866630413 126.88053772662268 33.08086570489311
  endloop
endfacet
facet normal 4.599544457600993e-14 0.9914448613738075 0.13052619222007475
  outer loop
    vertex 2773.848386663036 127.5555377266227 34.25000000000143
    vertex 2771.848386663036 127.50953759211293 34.59940571089054
    vertex 2773.8483866630354 127.50953759211293 34.59940571088983
  endloop
endfacet
facet normal 4.599544457600993e-14 0.9914448613738075 0.13052619222007475
  outer loop
    vertex 2771.848386663036 127.50953759211293 34.59940571089054
    vertex 2773.848386663036 127.5555377266227 34.25000000000143
    vertex 2771.8483866630363 127.5555377266227 34.250000000002125
  endloop
endfacet
facet normal 2.1451826711360283e-13 -0.7933533402911642 0.608761429008813
  outer loop
    vertex 2771.8483866630368 125.25094357202083 35.204594154603946
    vertex 2773.8483866630354 125.03640343151362 34.92500000000141
    vertex 2773.8483866630363 125.25094357202083 35.20459415460326
  endloop
endfacet
facet normal 2.1451826711360283e-13 -0.7933533402911642 0.608761429008813
  outer loop
    vertex 2773.8483866630354 125.03640343151362 34.92500000000141
    vertex 2771.8483866630368 125.25094357202083 35.204594154603946
    vertex 2771.848386663036 125.03640343151362 34.92500000000209
  endloop
endfacet
facet normal -1.0 2.9031716371597984e-29 3.609557097661308e-13
  outer loop
    vertex 2773.8483866630404 150.91178772662263 47.750000000001414
    vertex 2773.8483866630386 123.7055377266226 42.750000000001414
    vertex 2773.8483866630404 123.7055377266226 47.750000000001414
  endloop
endfacet
facet normal -1.0 2.9031716371597984e-29 3.609557097661308e-13
  outer loop
    vertex 2773.8483866630386 123.7055377266226 42.750000000001414
    vertex 2773.8483866630404 150.91178772662263 47.750000000001414
    vertex 2773.8483866630386 129.70553772662268 42.750000000001414
  endloop
endfacet
facet normal -1.0 2.9031716371597984e-29 3.609557097661308e-13
  outer loop
    vertex 2773.8483866630386 123.7055377266226 42.750000000001414
    vertex 2773.8483866630386 129.70553772662268 42.750000000001414
    vertex 2773.8483866630354 125.03640343151362 34.92500000000141
  endloop
endfacet
facet normal -1.0 2.9031716371597984e-29 3.609557097661308e-13
  outer loop
    vertex 2773.8483866630386 123.7055377266226 42.750000000001414
    vertex 2773.8483866630354 125.03640343151362 34.92500000000141
    vertex 2773.848386663035 123.7055377266226 31.750000000001407
  endloop
endfacet
facet normal -1.0 2.9031716371597984e-29 3.609557097661308e-13
  outer loop
    vertex 2773.848386663035 123.7055377266226 31.750000000001407
    vertex 2773.8483866630354 125.03640343151362 34.92500000000141
    vertex 2773.8483866630354 124.90153786113245 34.599405710889805
  endloop
endfacet
facet normal -1.0 2.9031716371597984e-29 3.609557097661308e-13
  outer loop
    vertex 2773.848386663035 123.7055377266226 31.750000000001407
    vertex 2773.8483866630354 124.90153786113245 34.599405710889805
    vertex 2773.848386663036 124.8555377266226 34.25000000000139
  endloop
endfacet
facet normal -1.0 2.9031716371597984e-29 3.609557097661308e-13
  outer loop
    vertex 2773.8483866630354 125.03640343151362 34.92500000000141
    vertex 2773.8483866630386 129.70553772662268 42.750000000001414
    vertex 2773.8483866630363 125.25094357202083 35.20459415460326
  endloop
endfacet
facet normal -1.0 2.9031716371597984e-29 3.609557097661308e-13
  outer loop
    vertex 2773.8483866630363 125.25094357202083 35.20459415460326
    vertex 2773.8483866630386 129.70553772662268 42.750000000001414
    vertex 2773.848386663036 125.53053772662263 35.41913429511042
  endloop
endfacet
facet normal -1.0 2.9031716371597984e-29 3.609557097661308e-13
  outer loop
    vertex 2773.848386663036 125.53053772662263 35.41913429511042
    vertex 2773.8483866630386 129.70553772662268 42.750000000001414
    vertex 2773.848386663036 125.85613201573419 35.553999865491676
  endloop
endfacet
facet normal -1.0 2.9031716371597984e-29 3.609557097661308e-13
  outer loop
    vertex 2773.848386663036 125.85613201573419 35.553999865491676
    vertex 2773.8483866630386 129.70553772662268 42.750000000001414
    vertex 2773.848386663036 126.20553772662257 35.600000000001444
  endloop
endfacet
facet normal -1.0 2.9031716371597984e-29 3.609557097661308e-13
  outer loop
    vertex 2773.848386663036 126.20553772662257 35.600000000001444
    vertex 2773.8483866630386 129.70553772662268 42.750000000001414
    vertex 2773.848386663036 126.55494343751103 35.55399986549168
  endloop
endfacet
facet normal -1.0 2.9031716371597984e-29 3.609557097661308e-13
  outer loop
    vertex 2773.848386663036 126.55494343751103 35.55399986549168
    vertex 2773.8483866630386 129.70553772662268 42.750000000001414
    vertex 2773.848386663036 126.88053772662268 35.41913429511044
  endloop
endfacet
facet normal -1.0 2.9031716371597984e-29 3.609557097661308e-13
  outer loop
    vertex 2773.848386663036 126.88053772662268 35.41913429511044
    vertex 2773.8483866630386 129.70553772662268 42.750000000001414
    vertex 2773.8483866630363 127.16013188122447 35.204594154603285
  endloop
endfacet
facet normal -1.0 2.9031716371597984e-29 3.609557097661308e-13
  outer loop
    vertex 2773.8483866630363 127.16013188122447 35.204594154603285
    vertex 2773.8483866630386 129.70553772662268 42.750000000001414
    vertex 2773.8483866630354 127.37467202173168 34.92500000000144
  endloop
endfacet
facet normal -1.0 2.9031716371597984e-29 3.609557097661308e-13
  outer loop
    vertex 2773.8483866630354 127.37467202173168 34.92500000000144
    vertex 2773.8483866630386 129.70553772662268 42.750000000001414
    vertex 2773.8483866630354 127.50953759211293 34.59940571088983
  endloop
endfacet
facet normal -1.0 2.9031716371597984e-29 3.609557097661308e-13
  outer loop
    vertex 2773.8483866630354 127.50953759211293 34.59940571088983
    vertex 2773.8483866630386 129.70553772662268 42.750000000001414
    vertex 2773.848386663036 127.5555377266227 34.25000000000143
  endloop
endfacet
facet normal -1.0 2.9031716371597984e-29 3.609557097661308e-13
  outer loop
    vertex 2773.848386663036 127.5555377266227 34.25000000000143
    vertex 2773.8483866630386 129.70553772662268 42.750000000001414
    vertex 2773.848386663035 128.70553772662262 31.750000000001407
  endloop
endfacet
facet normal -1.0 2.9031716371597984e-29 3.609557097661308e-13
  outer loop
    vertex 2773.8483866630386 129.70553772662268 42.750000000001414
    vertex 2773.8483866630404 150.91178772662263 47.750000000001414
    vertex 2773.8483866630404 150.91178772662263 46.750000000001414
  endloop
endfacet
facet normal -1.0 2.9031716371597984e-29 3.609557097661308e-13
  outer loop
    vertex 2773.8483866630386 129.70553772662268 42.750000000001414
    vertex 2773.8483866630404 150.91178772662263 46.750000000001414
    vertex 2773.8483866630386 153.70553772662262 42.750000000001414
  endloop
endfacet
facet normal -1.0 2.9031716371597984e-29 3.609557097661308e-13
  outer loop
    vertex 2773.848386663035 123.7055377266226 31.750000000001407
    vertex 2773.848386663041 125.53053772662263 33.080865704892396
    vertex 2773.848386663035 128.70553772662262 31.750000000001407
  endloop
endfacet
facet normal -1.0 2.9031716371597984e-29 3.609557097661308e-13
  outer loop
    vertex 2773.848386663041 125.53053772662263 33.080865704892396
    vertex 2773.848386663035 123.7055377266226 31.750000000001407
    vertex 2773.848386663035 125.25094357202083 33.29540584539955
  endloop
endfacet
facet normal -1.0 2.9031716371597984e-29 3.609557097661308e-13
  outer loop
    vertex 2773.848386663035 125.25094357202083 33.29540584539955
    vertex 2773.848386663035 123.7055377266226 31.750000000001407
    vertex 2773.848386663035 125.03640343151362 33.57500000000139
  endloop
endfacet
facet normal -1.0 2.9031716371597984e-29 3.609557097661308e-13
  outer loop
    vertex 2773.848386663035 125.03640343151362 33.57500000000139
    vertex 2773.848386663035 123.7055377266226 31.750000000001407
    vertex 2773.848386663035 124.90153786113237 33.90059428911298
  endloop
endfacet
facet normal -1.0 2.9031716371597984e-29 3.609557097661308e-13
  outer loop
    vertex 2773.848386663035 124.90153786113237 33.90059428911298
    vertex 2773.848386663035 123.7055377266226 31.750000000001407
    vertex 2773.848386663036 124.8555377266226 34.25000000000139
  endloop
endfacet
facet normal -1.0 2.9031716371597984e-29 3.609557097661308e-13
  outer loop
    vertex 2773.848386663035 128.70553772662262 31.750000000001407
    vertex 2773.848386663041 125.53053772662263 33.080865704892396
    vertex 2773.848386663041 125.85613201573427 32.94600013451115
  endloop
endfacet
facet normal -1.0 2.9031716371597984e-29 3.609557097661308e-13
  outer loop
    vertex 2773.848386663035 128.70553772662262 31.750000000001407
    vertex 2773.848386663041 125.85613201573427 32.94600013451115
    vertex 2773.848386663041 126.20553772662274 32.9000000000014
  endloop
endfacet
facet normal -1.0 2.9031716371597984e-29 3.609557097661308e-13
  outer loop
    vertex 2773.848386663035 128.70553772662262 31.750000000001407
    vertex 2773.848386663041 126.20553772662274 32.9000000000014
    vertex 2773.848386663041 126.55494343751111 32.94600013451116
  endloop
endfacet
facet normal -1.0 2.9031716371597984e-29 3.609557097661308e-13
  outer loop
    vertex 2773.848386663035 128.70553772662262 31.750000000001407
    vertex 2773.848386663041 126.55494343751111 32.94600013451116
    vertex 2773.848386663041 126.88053772662268 33.08086570489242
  endloop
endfacet
facet normal -1.0 2.9031716371597984e-29 3.609557097661308e-13
  outer loop
    vertex 2773.848386663035 128.70553772662262 31.750000000001407
    vertex 2773.848386663041 126.88053772662268 33.08086570489242
    vertex 2773.848386663035 127.16013188122447 33.29540584539957
  endloop
endfacet
facet normal -1.0 2.9031716371597984e-29 3.609557097661308e-13
  outer loop
    vertex 2773.848386663035 128.70553772662262 31.750000000001407
    vertex 2773.848386663035 127.16013188122447 33.29540584539957
    vertex 2773.848386663035 127.37467202173168 33.575000000001424
  endloop
endfacet
facet normal -1.0 2.9031716371597984e-29 3.609557097661308e-13
  outer loop
    vertex 2773.848386663035 128.70553772662262 31.750000000001407
    vertex 2773.848386663035 127.37467202173168 33.575000000001424
    vertex 2773.848386663035 127.50953759211285 33.90059428911303
  endloop
endfacet
facet normal -1.0 2.9031716371597984e-29 3.609557097661308e-13
  outer loop
    vertex 2773.848386663035 128.70553772662262 31.750000000001407
    vertex 2773.848386663035 127.50953759211285 33.90059428911303
    vertex 2773.848386663036 127.5555377266227 34.25000000000143
  endloop
endfacet
facet normal -1.0 2.9031716371597984e-29 3.609557097661308e-13
  outer loop
    vertex 2773.848386663035 123.7055377266226 31.750000000001407
    vertex 2773.8483866630386 122.70553772662254 42.750000000001414
    vertex 2773.8483866630386 123.7055377266226 42.750000000001414
  endloop
endfacet
facet normal -3.2556109321634093e-13 -0.38268343236501945 -0.9238795325113159
  outer loop
    vertex 2753.8483866630413 125.53053772662263 33.08086570489948
    vertex 2755.848386663041 125.85613201573427 32.94600013451751
    vertex 2755.848386663041 125.53053772662263 33.080865704898756
  endloop
endfacet
facet normal -3.2556109321634093e-13 -0.38268343236501945 -0.9238795325113159
  outer loop
    vertex 2755.848386663041 125.85613201573427 32.94600013451751
    vertex 2753.8483866630413 125.53053772662263 33.08086570489948
    vertex 2753.8483866630413 125.85613201573427 32.946000134518236
  endloop
endfacet
facet normal 0.0 -1.0 0.0
  outer loop
    vertex 2734.1983866630385 112.42187409094528 42.75000000001534
    vertex 2784.9983866630405 112.42187409094528 47.74999999999748
    vertex 2734.1983866630408 112.42187409094528 47.750000000015376
  endloop
endfacet
facet normal 0.0 -1.0 0.0
  outer loop
    vertex 2784.9983866630405 112.42187409094528 47.74999999999748
    vertex 2734.1983866630385 112.42187409094528 42.75000000001534
    vertex 2740.548386663039 112.42187409094528 42.75000000001313
  endloop
endfacet
facet normal 0.0 -1.0 0.0
  outer loop
    vertex 2784.9983866630405 112.42187409094528 47.74999999999748
    vertex 2740.548386663039 112.42187409094528 42.75000000001313
    vertex 2778.6483866630388 112.42187409094528 42.749999999999716
  endloop
endfacet
facet normal 0.0 -1.0 0.0
  outer loop
    vertex 2784.998386663038 112.42187409094528 42.74999999999747
    vertex 2784.9983866630405 112.42187409094528 47.74999999999748
    vertex 2778.6483866630388 112.42187409094528 42.749999999999716
  endloop
endfacet
facet normal -3.493700873047886e-13 -0.13052619222002151 -0.9914448613738145
  outer loop
    vertex 2771.8483866630413 125.85613201573427 32.94600013451184
    vertex 2773.848386663041 126.20553772662274 32.9000000000014
    vertex 2773.848386663041 125.85613201573427 32.94600013451115
  endloop
endfacet
facet normal -3.493700873047886e-13 -0.13052619222002151 -0.9914448613738145
  outer loop
    vertex 2773.848386663041 126.20553772662274 32.9000000000014
    vertex 2771.8483866630413 125.85613201573427 32.94600013451184
    vertex 2771.8483866630354 126.20553772662274 32.90000000000208
  endloop
endfacet
facet normal 3.2556109321632634e-13 -0.38268343236514074 0.9238795325112656
  outer loop
    vertex 2771.8483866630363 125.85613201573419 35.553999865492365
    vertex 2773.848386663036 125.53053772662263 35.41913429511042
    vertex 2773.848386663036 125.85613201573419 35.553999865491676
  endloop
endfacet
facet normal 3.2556109321632634e-13 -0.38268343236514074 0.9238795325112656
  outer loop
    vertex 2773.848386663036 125.53053772662263 35.41913429511042
    vertex 2771.8483866630363 125.85613201573419 35.553999865492365
    vertex 2771.8483866630363 125.53053772662263 35.419134295111114
  endloop
endfacet
facet normal -2.795656486403129e-13 0.6087614290087908 -0.7933533402911814
  outer loop
    vertex 2753.8483866630413 126.88053772662268 33.0808657048995
    vertex 2755.8483866630354 127.16013188122447 33.295405845405945
    vertex 2755.848386663041 126.88053772662268 33.08086570489878
  endloop
endfacet
facet normal -2.795656486403129e-13 0.6087614290087908 -0.7933533402911814
  outer loop
    vertex 2755.8483866630354 127.16013188122447 33.295405845405945
    vertex 2753.8483866630413 126.88053772662268 33.0808657048995
    vertex 2753.8483866630354 127.16013188122447 33.295405845406655
  endloop
endfacet
facet normal -2.013032919970622e-13 -0.8198332765547831 -0.5726023040937303
  outer loop
    vertex 2763.34838666304 150.91178772662263 46.75000000000511
    vertex 2773.8483866630386 153.70553772662262 42.750000000001414
    vertex 2773.8483866630404 150.91178772662263 46.750000000001414
  endloop
endfacet
facet normal -2.013032919970622e-13 -0.8198332765547831 -0.5726023040937303
  outer loop
    vertex 2773.8483866630386 153.70553772662262 42.750000000001414
    vertex 2763.34838666304 150.91178772662263 46.75000000000511
    vertex 2763.3483866630386 153.70553772662262 42.7500000000051
  endloop
endfacet
facet normal 0.0 1.0 0.0
  outer loop
    vertex 2755.848386663039 123.7055377266226 42.750000000007745
    vertex 2745.348386663041 123.7055377266226 47.75000000001143
    vertex 2755.848386663041 123.7055377266226 47.75000000000778
  endloop
endfacet
facet normal 0.0 1.0 0.0
  outer loop
    vertex 2745.348386663041 123.7055377266226 47.75000000001143
    vertex 2755.848386663039 123.7055377266226 42.750000000007745
    vertex 2745.348386663039 123.7055377266226 42.75000000001143
  endloop
endfacet
facet normal 0.9838699100998516 1.826184832193267e-17 -0.1788854382002905
  outer loop
    vertex 2777.848386663035 123.7055377266226 31.75
    vertex 2779.8483866630386 129.70553772662268 42.74999999999929
    vertex 2779.8483866630386 122.70553772662254 42.74999999999929
  endloop
endfacet
facet normal 0.9838699100998516 1.826184832193267e-17 -0.1788854382002905
  outer loop
    vertex 2779.8483866630386 129.70553772662268 42.74999999999929
    vertex 2777.848386663035 123.7055377266226 31.75
    vertex 2777.848386663035 128.70553772662262 31.75
  endloop
endfacet
facet normal 3.523847880160247e-13 0.0 1.0
  outer loop
    vertex 2784.9983866630405 163.22187409094528 47.74999999999748
    vertex 2773.8483866630404 150.91178772662263 47.750000000001414
    vertex 2784.9983866630405 112.42187409094528 47.74999999999748
  endloop
endfacet
facet normal 3.523847880160247e-13 0.0 1.0
  outer loop
    vertex 2773.8483866630404 150.91178772662263 47.750000000001414
    vertex 2784.9983866630405 163.22187409094528 47.74999999999748
    vertex 2734.1983866630408 163.22187409094528 47.750000000015376
  endloop
endfacet
facet normal 3.523847880160247e-13 0.0 1.0
  outer loop
    vertex 2773.8483866630404 150.91178772662263 47.750000000001414
    vertex 2734.1983866630408 163.22187409094528 47.750000000015376
    vertex 2763.3483866630404 150.91178772662263 47.75000000000511
  endloop
endfacet
facet normal 3.523847880160247e-13 0.0 1.0
  outer loop
    vertex 2763.3483866630404 150.91178772662263 47.75000000000511
    vertex 2734.1983866630408 163.22187409094528 47.750000000015376
    vertex 2755.848386663041 150.91178772662263 47.75000000000778
  endloop
endfacet
facet normal 3.523847880160247e-13 0.0 1.0
  outer loop
    vertex 2763.3483866630404 150.91178772662263 47.75000000000511
    vertex 2755.848386663041 150.91178772662263 47.75000000000778
    vertex 2763.3483866630404 123.7055377266226 47.75000000000511
  endloop
endfacet
facet normal 3.523847880160247e-13 0.0 1.0
  outer loop
    vertex 2755.848386663041 150.91178772662263 47.75000000000778
    vertex 2734.1983866630408 163.22187409094528 47.750000000015376
    vertex 2745.348386663041 150.91178772662263 47.75000000001143
  endloop
endfacet
facet normal 3.523847880160247e-13 0.0 1.0
  outer loop
    vertex 2745.348386663041 150.91178772662263 47.75000000001143
    vertex 2734.1983866630408 163.22187409094528 47.750000000015376
    vertex 2745.348386663041 123.7055377266226 47.75000000001143
  endloop
endfacet
facet normal 3.523847880160247e-13 0.0 1.0
  outer loop
    vertex 2784.9983866630405 112.42187409094528 47.74999999999748
    vertex 2773.8483866630404 123.7055377266226 47.750000000001414
    vertex 2734.1983866630408 112.42187409094528 47.750000000015376
  endloop
endfacet
facet normal 3.523847880160247e-13 0.0 1.0
  outer loop
    vertex 2773.8483866630404 123.7055377266226 47.750000000001414
    vertex 2784.9983866630405 112.42187409094528 47.74999999999748
    vertex 2773.8483866630404 150.91178772662263 47.750000000001414
  endloop
endfacet
facet normal 3.523847880160247e-13 0.0 1.0
  outer loop
    vertex 2734.1983866630408 112.42187409094528 47.750000000015376
    vertex 2773.8483866630404 123.7055377266226 47.750000000001414
    vertex 2763.3483866630404 123.7055377266226 47.75000000000511
  endloop
endfacet
facet normal 3.523847880160247e-13 0.0 1.0
  outer loop
    vertex 2734.1983866630408 112.42187409094528 47.750000000015376
    vertex 2763.3483866630404 123.7055377266226 47.75000000000511
    vertex 2755.848386663041 123.7055377266226 47.75000000000778
  endloop
endfacet
facet normal 3.523847880160247e-13 0.0 1.0
  outer loop
    vertex 2755.848386663041 123.7055377266226 47.75000000000778
    vertex 2763.3483866630404 123.7055377266226 47.75000000000511
    vertex 2755.848386663041 150.91178772662263 47.75000000000778
  endloop
endfacet
facet normal 3.523847880160247e-13 0.0 1.0
  outer loop
    vertex 2734.1983866630408 112.42187409094528 47.750000000015376
    vertex 2755.848386663041 123.7055377266226 47.75000000000778
    vertex 2745.348386663041 123.7055377266226 47.75000000001143
  endloop
endfacet
facet normal 3.523847880160247e-13 0.0 1.0
  outer loop
    vertex 2734.1983866630408 112.42187409094528 47.750000000015376
    vertex 2745.348386663041 123.7055377266226 47.75000000001143
    vertex 2734.1983866630408 163.22187409094528 47.750000000015376
  endloop
endfacet
facet normal -2.7956564864031445e-13 -0.6087614290087857 -0.7933533402911854
  outer loop
    vertex 2773.848386663035 125.25094357202083 33.29540584539955
    vertex 2771.8483866630413 125.53053772662263 33.08086570489309
    vertex 2773.848386663041 125.53053772662263 33.080865704892396
  endloop
endfacet
facet normal -2.7956564864031445e-13 -0.6087614290087857 -0.7933533402911854
  outer loop
    vertex 2771.8483866630413 125.53053772662263 33.08086570489309
    vertex 2773.848386663035 125.25094357202083 33.29540584539955
    vertex 2771.8483866630354 125.25094357202083 33.295405845400246
  endloop
endfacet
facet normal -4.599544457601102e-14 -0.991444861373807 -0.13052619222007783
  outer loop
    vertex 2753.8483866630354 124.90153786113245 33.90059428912004
    vertex 2755.848386663036 124.85553772662269 34.25000000000773
    vertex 2753.8483866630363 124.85553772662269 34.25000000000844
  endloop
endfacet
facet normal -4.599544457601102e-14 -0.991444861373807 -0.13052619222007783
  outer loop
    vertex 2755.848386663036 124.85553772662269 34.25000000000773
    vertex 2753.8483866630354 124.90153786113245 33.90059428912004
    vertex 2755.8483866630354 124.90153786113245 33.90059428911933
  endloop
endfacet
facet normal -3.523847880160247e-13 0.0 -1.0
  outer loop
    vertex 2755.848386663035 123.7055377266226 31.75000000000775
    vertex 2759.848386663035 128.70553772662262 31.750000000006338
    vertex 2759.848386663035 123.7055377266226 31.750000000006338
  endloop
endfacet
facet normal -3.523847880160247e-13 0.0 -1.0
  outer loop
    vertex 2759.848386663035 128.70553772662262 31.750000000006338
    vertex 2755.848386663035 123.7055377266226 31.75000000000775
    vertex 2755.848386663035 128.70553772662262 31.75000000000775
  endloop
endfacet
facet normal -1.3485182019121963e-13 -0.9238795325112835 -0.3826834323650976
  outer loop
    vertex 2771.8483866630354 124.90153786113237 33.900594289113684
    vertex 2773.848386663035 125.03640343151362 33.57500000000139
    vertex 2773.848386663035 124.90153786113237 33.90059428911298
  endloop
endfacet
facet normal -1.3485182019121963e-13 -0.9238795325112835 -0.3826834323650976
  outer loop
    vertex 2773.848386663035 125.03640343151362 33.57500000000139
    vertex 2771.8483866630354 124.90153786113237 33.900594289113684
    vertex 2771.8483866630354 125.03640343151362 33.57500000000208
  endloop
endfacet
facet normal 1.3485182019123029e-13 0.9238795325112801 0.3826834323651062
  outer loop
    vertex 2755.848386663036 127.3746720217316 34.92500000000777
    vertex 2753.848386663036 127.50953759211285 34.59940571089689
    vertex 2753.848386663036 127.3746720217316 34.92500000000848
  endloop
endfacet
facet normal 1.3485182019123029e-13 0.9238795325112801 0.3826834323651062
  outer loop
    vertex 2753.848386663036 127.50953759211285 34.59940571089689
    vertex 2755.848386663036 127.3746720217316 34.92500000000777
    vertex 2755.848386663036 127.50953759211285 34.59940571089618
  endloop
endfacet
facet normal -2.7956564864031167e-13 0.6087614290087957 -0.7933533402911775
  outer loop
    vertex 2771.8483866630413 126.88053772662268 33.08086570489311
    vertex 2773.848386663035 127.16013188122447 33.29540584539957
    vertex 2773.848386663041 126.88053772662268 33.08086570489242
  endloop
endfacet
facet normal -2.7956564864031167e-13 0.6087614290087957 -0.7933533402911775
  outer loop
    vertex 2773.848386663035 127.16013188122447 33.29540584539957
    vertex 2771.8483866630413 126.88053772662268 33.08086570489311
    vertex 2771.8483866630354 127.16013188122447 33.29540584540027
  endloop
endfacet
facet normal -3.523847880160247e-13 0.0 -1.0
  outer loop
    vertex 2773.848386663035 123.7055377266226 31.750000000001407
    vertex 2777.848386663035 128.70553772662262 31.75
    vertex 2777.848386663035 123.7055377266226 31.75
  endloop
endfacet
facet normal -3.523847880160247e-13 0.0 -1.0
  outer loop
    vertex 2777.848386663035 128.70553772662262 31.75
    vertex 2773.848386663035 123.7055377266226 31.750000000001407
    vertex 2773.848386663035 128.70553772662262 31.750000000001407
  endloop
endfacet
facet normal 1.0 7.6367314978637e-30 -3.609557097661312e-13
  outer loop
    vertex 2745.348386663039 153.70553772662262 42.75000000001143
    vertex 2745.348386663041 123.7055377266226 47.75000000001143
    vertex 2745.348386663039 123.7055377266226 42.75000000001143
  endloop
endfacet
facet normal 1.0 7.6367314978637e-30 -3.609557097661312e-13
  outer loop
    vertex 2745.348386663041 123.7055377266226 47.75000000001143
    vertex 2745.348386663039 153.70553772662262 42.75000000001143
    vertex 2745.3483866630404 150.91178772662263 46.75000000001143
  endloop
endfacet
facet normal 1.0 7.6367314978637e-30 -3.609557097661312e-13
  outer loop
    vertex 2745.348386663041 150.91178772662263 47.75000000001143
    vertex 2745.348386663041 123.7055377266226 47.75000000001143
    vertex 2745.3483866630404 150.91178772662263 46.75000000001143
  endloop
endfacet
facet normal 2.1451826711355015e-13 -0.7933533402912791 0.6087614290086635
  outer loop
    vertex 2753.848386663036 125.03640343151362 34.92500000000844
    vertex 2755.8483866630363 125.25094357202074 35.20459415460955
    vertex 2753.8483866630363 125.25094357202074 35.20459415461026
  endloop
endfacet
facet normal 2.1451826711355015e-13 -0.7933533402912791 0.6087614290086635
  outer loop
    vertex 2755.8483866630363 125.25094357202074 35.20459415460955
    vertex 2753.848386663036 125.03640343151362 34.92500000000844
    vertex 2755.848386663036 125.03640343151362 34.92500000000773
  endloop
endfacet
facet normal -3.493700873047856e-13 0.13052619222008613 -0.9914448613738059
  outer loop
    vertex 2771.8483866630354 126.20553772662274 32.90000000000208
    vertex 2773.848386663041 126.55494343751111 32.94600013451116
    vertex 2773.848386663041 126.20553772662274 32.9000000000014
  endloop
endfacet
facet normal -3.493700873047856e-13 0.13052619222008613 -0.9914448613738059
  outer loop
    vertex 2773.848386663041 126.55494343751111 32.94600013451116
    vertex 2771.8483866630354 126.20553772662274 32.90000000000208
    vertex 2771.8483866630413 126.55494343751111 32.94600013451185
  endloop
endfacet
facet normal 4.599544457601102e-14 -0.991444861373807 0.13052619222007783
  outer loop
    vertex 2753.8483866630363 124.85553772662269 34.25000000000844
    vertex 2755.848386663036 124.90153786113245 34.59940571089613
    vertex 2753.848386663036 124.90153786113245 34.59940571089684
  endloop
endfacet
facet normal 4.599544457601102e-14 -0.991444861373807 0.13052619222007783
  outer loop
    vertex 2755.848386663036 124.90153786113245 34.59940571089613
    vertex 2753.8483866630363 124.85553772662269 34.25000000000844
    vertex 2755.848386663036 124.85553772662269 34.25000000000773
  endloop
endfacet
facet normal 3.493700873047886e-13 0.13052619222002151 0.9914448613738145
  outer loop
    vertex 2771.8483866630363 126.55494343751103 35.55399986549238
    vertex 2773.848386663036 126.20553772662257 35.600000000001444
    vertex 2773.848386663036 126.55494343751103 35.55399986549168
  endloop
endfacet
facet normal 3.493700873047886e-13 0.13052619222002151 0.9914448613738145
  outer loop
    vertex 2773.848386663036 126.20553772662257 35.600000000001444
    vertex 2771.8483866630363 126.55494343751103 35.55399986549238
    vertex 2771.8483866630363 126.20553772662257 35.60000000000213
  endloop
endfacet
facet normal -4.599544457609861e-14 0.9914448613737743 -0.1305261922203264
  outer loop
    vertex 2773.848386663035 127.50953759211285 33.90059428911303
    vertex 2771.8483866630363 127.5555377266227 34.250000000002125
    vertex 2773.848386663036 127.5555377266227 34.25000000000143
  endloop
endfacet
facet normal -4.599544457609861e-14 0.9914448613737743 -0.1305261922203264
  outer loop
    vertex 2771.8483866630363 127.5555377266227 34.250000000002125
    vertex 2773.848386663035 127.50953759211285 33.90059428911303
    vertex 2771.8483866630354 127.50953759211285 33.90059428911371
  endloop
endfacet
facet normal -2.1451826711360417e-13 0.7933533402911613 -0.6087614290088168
  outer loop
    vertex 2773.848386663035 127.16013188122447 33.29540584539957
    vertex 2771.8483866630354 127.37467202173168 33.57500000000211
    vertex 2773.848386663035 127.37467202173168 33.575000000001424
  endloop
endfacet
facet normal -2.1451826711360417e-13 0.7933533402911613 -0.6087614290088168
  outer loop
    vertex 2771.8483866630354 127.37467202173168 33.57500000000211
    vertex 2773.848386663035 127.16013188122447 33.29540584539957
    vertex 2771.8483866630354 127.16013188122447 33.29540584540027
  endloop
endfacet
facet normal 0.0 -1.0 0.0
  outer loop
    vertex 2745.348386663041 150.91178772662263 47.75000000001143
    vertex 2755.8483866630404 150.91178772662263 46.75000000000778
    vertex 2755.848386663041 150.91178772662263 47.75000000000778
  endloop
endfacet
facet normal 0.0 -1.0 0.0
  outer loop
    vertex 2755.8483866630404 150.91178772662263 46.75000000000778
    vertex 2745.348386663041 150.91178772662263 47.75000000001143
    vertex 2745.3483866630404 150.91178772662263 46.75000000001143
  endloop
endfacet
facet normal -2.7956564864031834e-13 -0.6087614290087705 -0.793353340291197
  outer loop
    vertex 2755.8483866630354 125.25094357202083 33.29540584540591
    vertex 2753.8483866630413 125.53053772662263 33.08086570489948
    vertex 2755.848386663041 125.53053772662263 33.080865704898756
  endloop
endfacet
facet normal -2.7956564864031834e-13 -0.6087614290087705 -0.793353340291197
  outer loop
    vertex 2753.8483866630413 125.53053772662263 33.08086570489948
    vertex 2755.8483866630354 125.25094357202083 33.29540584540591
    vertex 2753.8483866630354 125.25094357202083 33.29540584540662
  endloop
endfacet
facet normal -4.599544457600956e-14 -0.9914448613738075 -0.1305261922200737
  outer loop
    vertex 2771.8483866630363 124.8555377266226 34.25000000000209
    vertex 2773.848386663035 124.90153786113237 33.90059428911298
    vertex 2773.848386663036 124.8555377266226 34.25000000000139
  endloop
endfacet
facet normal -4.599544457600956e-14 -0.9914448613738075 -0.1305261922200737
  outer loop
    vertex 2773.848386663035 124.90153786113237 33.90059428911298
    vertex 2771.8483866630363 124.8555377266226 34.25000000000209
    vertex 2771.8483866630354 124.90153786113237 33.900594289113684
  endloop
endfacet
facet normal 2.795629872728366e-13 -0.6087614290086645 0.7933533402912782
  outer loop
    vertex 2755.848386663036 125.53053772662263 35.41913429511671
    vertex 2753.8483866630363 125.25094357202074 35.20459415461026
    vertex 2755.8483866630363 125.25094357202074 35.20459415460955
  endloop
endfacet
facet normal 2.795629872728366e-13 -0.6087614290086645 0.7933533402912782
  outer loop
    vertex 2753.8483866630363 125.25094357202074 35.20459415461026
    vertex 2755.848386663036 125.53053772662263 35.41913429511671
    vertex 2753.8483866630363 125.53053772662263 35.41913429511742
  endloop
endfacet
facet normal -3.255610932163269e-13 0.38268343236513735 -0.9238795325112672
  outer loop
    vertex 2753.8483866630413 126.55494343751111 32.94600013451824
    vertex 2755.848386663041 126.88053772662268 33.08086570489878
    vertex 2755.848386663041 126.55494343751111 32.946000134517526
  endloop
endfacet
facet normal -3.255610932163269e-13 0.38268343236513735 -0.9238795325112672
  outer loop
    vertex 2755.848386663041 126.88053772662268 33.08086570489878
    vertex 2753.8483866630413 126.55494343751111 32.94600013451824
    vertex 2753.8483866630413 126.88053772662268 33.0808657048995
  endloop
endfacet
facet normal -1.3485182019121633e-13 -0.9238795325112787 -0.38268343236510893
  outer loop
    vertex 2753.8483866630354 125.0364034315137 33.57500000000846
    vertex 2755.8483866630354 124.90153786113245 33.90059428911933
    vertex 2753.8483866630354 124.90153786113245 33.90059428912004
  endloop
endfacet
facet normal -1.3485182019121633e-13 -0.9238795325112787 -0.38268343236510893
  outer loop
    vertex 2755.8483866630354 124.90153786113245 33.90059428911933
    vertex 2753.8483866630354 125.0364034315137 33.57500000000846
    vertex 2755.8483866630354 125.0364034315137 33.57500000000774
  endloop
endfacet
facet normal 1.3485182019114395e-13 -0.9238795325113728 0.3826834323648819
  outer loop
    vertex 2753.848386663036 124.90153786113245 34.59940571089684
    vertex 2755.848386663036 125.03640343151362 34.92500000000773
    vertex 2753.848386663036 125.03640343151362 34.92500000000844
  endloop
endfacet
facet normal 1.3485182019114395e-13 -0.9238795325113728 0.3826834323648819
  outer loop
    vertex 2755.848386663036 125.03640343151362 34.92500000000773
    vertex 2753.848386663036 124.90153786113245 34.59940571089684
    vertex 2755.848386663036 124.90153786113245 34.59940571089613
  endloop
endfacet
facet normal -1.0 0.0 3.523847880160247e-13
  outer loop
    vertex 2771.848386663036 124.90153786113245 34.5994057108905
    vertex 2771.8483866630354 124.90153786113237 33.900594289113684
    vertex 2771.8483866630363 124.8555377266226 34.25000000000209
  endloop
endfacet
facet normal -1.0 0.0 3.523847880160247e-13
  outer loop
    vertex 2771.8483866630354 124.90153786113237 33.900594289113684
    vertex 2771.848386663036 124.90153786113245 34.5994057108905
    vertex 2771.8483866630354 125.03640343151362 33.57500000000208
  endloop
endfacet
facet normal -1.0 0.0 3.523847880160247e-13
  outer loop
    vertex 2771.8483866630354 125.03640343151362 33.57500000000208
    vertex 2771.848386663036 124.90153786113245 34.5994057108905
    vertex 2771.848386663036 125.03640343151362 34.92500000000209
  endloop
endfacet
facet normal -1.0 0.0 3.523847880160247e-13
  outer loop
    vertex 2771.8483866630354 125.03640343151362 33.57500000000208
    vertex 2771.848386663036 125.03640343151362 34.92500000000209
    vertex 2771.8483866630368 125.25094357202083 35.204594154603946
  endloop
endfacet
facet normal -1.0 0.0 3.523847880160247e-13
  outer loop
    vertex 2771.8483866630354 125.03640343151362 33.57500000000208
    vertex 2771.8483866630368 125.25094357202083 35.204594154603946
    vertex 2771.8483866630354 125.25094357202083 33.295405845400246
  endloop
endfacet
facet normal -1.0 0.0 3.523847880160247e-13
  outer loop
    vertex 2771.8483866630354 125.25094357202083 33.295405845400246
    vertex 2771.8483866630368 125.25094357202083 35.204594154603946
    vertex 2771.8483866630363 125.53053772662263 35.419134295111114
  endloop
endfacet
facet normal -1.0 0.0 3.523847880160247e-13
  outer loop
    vertex 2771.8483866630354 125.25094357202083 33.295405845400246
    vertex 2771.8483866630363 125.53053772662263 35.419134295111114
    vertex 2771.8483866630413 125.53053772662263 33.08086570489309
  endloop
endfacet
facet normal -1.0 0.0 3.523847880160247e-13
  outer loop
    vertex 2771.8483866630413 125.53053772662263 33.08086570489309
    vertex 2771.8483866630363 125.53053772662263 35.419134295111114
    vertex 2771.8483866630363 125.85613201573419 35.553999865492365
  endloop
endfacet
facet normal -1.0 0.0 3.523847880160247e-13
  outer loop
    vertex 2771.8483866630413 125.53053772662263 33.08086570489309
    vertex 2771.8483866630363 125.85613201573419 35.553999865492365
    vertex 2771.8483866630413 125.85613201573427 32.94600013451184
  endloop
endfacet
facet normal -1.0 0.0 3.523847880160247e-13
  outer loop
    vertex 2771.8483866630413 125.85613201573427 32.94600013451184
    vertex 2771.8483866630363 125.85613201573419 35.553999865492365
    vertex 2771.8483866630363 126.20553772662257 35.60000000000213
  endloop
endfacet
facet normal -1.0 0.0 3.523847880160247e-13
  outer loop
    vertex 2771.8483866630413 125.85613201573427 32.94600013451184
    vertex 2771.8483866630363 126.20553772662257 35.60000000000213
    vertex 2771.8483866630354 126.20553772662274 32.90000000000208
  endloop
endfacet
facet normal -1.0 0.0 3.523847880160247e-13
  outer loop
    vertex 2771.8483866630354 126.20553772662274 32.90000000000208
    vertex 2771.8483866630363 126.20553772662257 35.60000000000213
    vertex 2771.8483866630363 126.55494343751103 35.55399986549238
  endloop
endfacet
facet normal -1.0 0.0 3.523847880160247e-13
  outer loop
    vertex 2771.8483866630354 126.20553772662274 32.90000000000208
    vertex 2771.8483866630363 126.55494343751103 35.55399986549238
    vertex 2771.8483866630413 126.55494343751111 32.94600013451185
  endloop
endfacet
facet normal -1.0 0.0 3.523847880160247e-13
  outer loop
    vertex 2771.8483866630413 126.55494343751111 32.94600013451185
    vertex 2771.8483866630363 126.55494343751103 35.55399986549238
    vertex 2771.8483866630363 126.88053772662268 35.41913429511112
  endloop
endfacet
facet normal -1.0 0.0 3.523847880160247e-13
  outer loop
    vertex 2771.8483866630413 126.55494343751111 32.94600013451185
    vertex 2771.8483866630363 126.88053772662268 35.41913429511112
    vertex 2771.8483866630413 126.88053772662268 33.08086570489311
  endloop
endfacet
facet normal -1.0 0.0 3.523847880160247e-13
  outer loop
    vertex 2771.8483866630413 126.88053772662268 33.08086570489311
    vertex 2771.8483866630363 126.88053772662268 35.41913429511112
    vertex 2771.8483866630368 127.16013188122447 35.20459415460398
  endloop
endfacet
facet normal -1.0 0.0 3.523847880160247e-13
  outer loop
    vertex 2771.8483866630413 126.88053772662268 33.08086570489311
    vertex 2771.8483866630368 127.16013188122447 35.20459415460398
    vertex 2771.8483866630354 127.16013188122447 33.29540584540027
  endloop
endfacet
facet normal -1.0 0.0 3.523847880160247e-13
  outer loop
    vertex 2771.8483866630354 127.16013188122447 33.29540584540027
    vertex 2771.8483866630368 127.16013188122447 35.20459415460398
    vertex 2771.848386663036 127.37467202173168 34.92500000000213
  endloop
endfacet
facet normal -1.0 0.0 3.523847880160247e-13
  outer loop
    vertex 2771.8483866630354 127.16013188122447 33.29540584540027
    vertex 2771.848386663036 127.37467202173168 34.92500000000213
    vertex 2771.8483866630354 127.37467202173168 33.57500000000211
  endloop
endfacet
facet normal -1.0 0.0 3.523847880160247e-13
  outer loop
    vertex 2771.8483866630354 127.37467202173168 33.57500000000211
    vertex 2771.848386663036 127.37467202173168 34.92500000000213
    vertex 2771.848386663036 127.50953759211293 34.59940571089054
  endloop
endfacet
facet normal -1.0 0.0 3.523847880160247e-13
  outer loop
    vertex 2771.8483866630354 127.37467202173168 33.57500000000211
    vertex 2771.848386663036 127.50953759211293 34.59940571089054
    vertex 2771.8483866630354 127.50953759211285 33.90059428911371
  endloop
endfacet
facet normal -1.0 0.0 3.523847880160247e-13
  outer loop
    vertex 2771.8483866630354 127.50953759211285 33.90059428911371
    vertex 2771.848386663036 127.50953759211293 34.59940571089054
    vertex 2771.8483866630363 127.5555377266227 34.250000000002125
  endloop
endfacet
facet normal -3.1924848111880087e-14 -0.9958932064677035 -0.0905357460425224
  outer loop
    vertex 2755.848386663035 123.7055377266226 31.75000000000775
    vertex 2761.848386663039 122.70553772662254 42.75000000000563
    vertex 2755.848386663039 122.70553772662254 42.750000000007745
  endloop
endfacet
facet normal -3.1924848111880087e-14 -0.9958932064677035 -0.0905357460425224
  outer loop
    vertex 2761.848386663039 122.70553772662254 42.75000000000563
    vertex 2755.848386663035 123.7055377266226 31.75000000000775
    vertex 2759.848386663035 123.7055377266226 31.750000000006338
  endloop
endfacet
facet normal -3.4994229736183935e-13 2.6645352591103217e-15 -1.0
  outer loop
    vertex 2734.1983866630385 112.42187409094528 42.75000000001534
    vertex 2740.548386663039 118.77187409094529 42.75000000001313
    vertex 2740.548386663039 112.42187409094528 42.75000000001313
  endloop
endfacet
facet normal -3.4994229736183935e-13 2.6645352591103217e-15 -1.0
  outer loop
    vertex 2740.548386663039 118.77187409094529 42.75000000001313
    vertex 2734.1983866630385 112.42187409094528 42.75000000001534
    vertex 2734.198386663039 118.77187409094529 42.750000000015376
  endloop
endfacet
facet normal -3.523456036739791e-13 0.0 -1.0
  outer loop
    vertex 2740.548386663039 112.42187409094528 42.75000000001313
    vertex 2778.6483866630388 118.77187409094529 42.749999999999716
    vertex 2778.6483866630388 112.42187409094528 42.749999999999716
  endloop
endfacet
facet normal -3.523456036739791e-13 0.0 -1.0
  outer loop
    vertex 2778.6483866630388 118.77187409094529 42.749999999999716
    vertex 2740.548386663039 112.42187409094528 42.75000000001313
    vertex 2773.8483866630386 122.70553772662254 42.750000000001414
  endloop
endfacet
facet normal -3.523456036739791e-13 0.0 -1.0
  outer loop
    vertex 2773.8483866630386 122.70553772662254 42.750000000001414
    vertex 2740.548386663039 112.42187409094528 42.75000000001313
    vertex 2773.8483866630386 123.7055377266226 42.750000000001414
  endloop
endfacet
facet normal -3.523456036739791e-13 0.0 -1.0
  outer loop
    vertex 2773.8483866630386 123.7055377266226 42.750000000001414
    vertex 2740.548386663039 112.42187409094528 42.75000000001313
    vertex 2761.848386663039 122.70553772662254 42.75000000000563
  endloop
endfacet
facet normal -3.523456036739791e-13 0.0 -1.0
  outer loop
    vertex 2773.8483866630386 123.7055377266226 42.750000000001414
    vertex 2761.848386663039 122.70553772662254 42.75000000000563
    vertex 2763.3483866630386 123.7055377266226 42.7500000000051
  endloop
endfacet
facet normal -3.523456036739791e-13 0.0 -1.0
  outer loop
    vertex 2763.3483866630386 123.7055377266226 42.7500000000051
    vertex 2761.848386663039 122.70553772662254 42.75000000000563
    vertex 2763.3483866630386 153.70553772662262 42.7500000000051
  endloop
endfacet
facet normal -3.523456036739791e-13 0.0 -1.0
  outer loop
    vertex 2761.848386663039 122.70553772662254 42.75000000000563
    vertex 2740.548386663039 112.42187409094528 42.75000000001313
    vertex 2755.848386663039 122.70553772662254 42.750000000007745
  endloop
endfacet
facet normal -3.523456036739791e-13 0.0 -1.0
  outer loop
    vertex 2755.848386663039 122.70553772662254 42.750000000007745
    vertex 2740.548386663039 112.42187409094528 42.75000000001313
    vertex 2755.848386663039 123.7055377266226 42.750000000007745
  endloop
endfacet
facet normal -3.523456036739791e-13 0.0 -1.0
  outer loop
    vertex 2755.848386663039 123.7055377266226 42.750000000007745
    vertex 2740.548386663039 112.42187409094528 42.75000000001313
    vertex 2745.348386663039 123.7055377266226 42.75000000001143
  endloop
endfacet
facet normal -3.523456036739791e-13 0.0 -1.0
  outer loop
    vertex 2745.348386663039 123.7055377266226 42.75000000001143
    vertex 2740.548386663039 112.42187409094528 42.75000000001313
    vertex 2745.348386663039 153.70553772662262 42.75000000001143
  endloop
endfacet
facet normal -3.523456036739791e-13 0.0 -1.0
  outer loop
    vertex 2734.198386663039 118.77187409094529 42.750000000015376
    vertex 2740.548386663039 156.87187409094528 42.75000000001313
    vertex 2740.548386663039 118.77187409094529 42.75000000001313
  endloop
endfacet
facet normal -3.523456036739791e-13 0.0 -1.0
  outer loop
    vertex 2740.548386663039 156.87187409094528 42.75000000001313
    vertex 2734.198386663039 118.77187409094529 42.750000000015376
    vertex 2734.198386663039 156.87187409094528 42.750000000015376
  endloop
endfacet
facet normal -3.523456036739791e-13 0.0 -1.0
  outer loop
    vertex 2784.9983866630387 156.87187409094528 42.74999999999747
    vertex 2779.8483866630386 129.70553772662268 42.74999999999929
    vertex 2778.6483866630388 156.87187409094528 42.749999999999716
  endloop
endfacet
facet normal -3.523456036739791e-13 0.0 -1.0
  outer loop
    vertex 2779.8483866630386 129.70553772662268 42.74999999999929
    vertex 2784.9983866630387 156.87187409094528 42.74999999999747
    vertex 2779.8483866630386 122.70553772662254 42.74999999999929
  endloop
endfacet
facet normal -3.523456036739791e-13 0.0 -1.0
  outer loop
    vertex 2778.6483866630388 156.87187409094528 42.749999999999716
    vertex 2779.8483866630386 129.70553772662268 42.74999999999929
    vertex 2773.8483866630386 129.70553772662268 42.750000000001414
  endloop
endfacet
facet normal -3.523456036739791e-13 0.0 -1.0
  outer loop
    vertex 2778.6483866630388 156.87187409094528 42.749999999999716
    vertex 2773.8483866630386 129.70553772662268 42.750000000001414
    vertex 2778.6483866630388 163.22187409094528 42.749999999999716
  endloop
endfacet
facet normal -3.523456036739791e-13 0.0 -1.0
  outer loop
    vertex 2778.6483866630388 163.22187409094528 42.749999999999716
    vertex 2773.8483866630386 129.70553772662268 42.750000000001414
    vertex 2773.8483866630386 153.70553772662262 42.750000000001414
  endloop
endfacet
facet normal -3.523456036739791e-13 0.0 -1.0
  outer loop
    vertex 2778.6483866630388 163.22187409094528 42.749999999999716
    vertex 2773.8483866630386 153.70553772662262 42.750000000001414
    vertex 2740.548386663039 163.22187409094528 42.75000000001313
  endloop
endfacet
facet normal -3.523456036739791e-13 0.0 -1.0
  outer loop
    vertex 2740.548386663039 163.22187409094528 42.75000000001313
    vertex 2773.8483866630386 153.70553772662262 42.750000000001414
    vertex 2763.3483866630386 153.70553772662262 42.7500000000051
  endloop
endfacet
facet normal -3.523456036739791e-13 0.0 -1.0
  outer loop
    vertex 2740.548386663039 163.22187409094528 42.75000000001313
    vertex 2763.3483866630386 153.70553772662262 42.7500000000051
    vertex 2755.848386663039 153.70553772662262 42.750000000007745
  endloop
endfacet
facet normal -3.523456036739791e-13 0.0 -1.0
  outer loop
    vertex 2755.848386663039 153.70553772662262 42.750000000007745
    vertex 2763.3483866630386 153.70553772662262 42.7500000000051
    vertex 2761.848386663039 129.70553772662268 42.75000000000563
  endloop
endfacet
facet normal -3.523456036739791e-13 0.0 -1.0
  outer loop
    vertex 2761.848386663039 129.70553772662268 42.75000000000563
    vertex 2763.3483866630386 153.70553772662262 42.7500000000051
    vertex 2761.848386663039 122.70553772662254 42.75000000000563
  endloop
endfacet
facet normal -3.523456036739791e-13 0.0 -1.0
  outer loop
    vertex 2755.848386663039 153.70553772662262 42.750000000007745
    vertex 2761.848386663039 129.70553772662268 42.75000000000563
    vertex 2755.848386663039 129.70553772662268 42.750000000007745
  endloop
endfacet
facet normal -3.523456036739791e-13 0.0 -1.0
  outer loop
    vertex 2740.548386663039 163.22187409094528 42.75000000001313
    vertex 2755.848386663039 153.70553772662262 42.750000000007745
    vertex 2745.348386663039 153.70553772662262 42.75000000001143
  endloop
endfacet
facet normal -3.523456036739791e-13 0.0 -1.0
  outer loop
    vertex 2740.548386663039 163.22187409094528 42.75000000001313
    vertex 2745.348386663039 153.70553772662262 42.75000000001143
    vertex 2740.548386663039 112.42187409094528 42.75000000001313
  endloop
endfacet
facet normal -3.523456036739791e-13 0.0 -1.0
  outer loop
    vertex 2740.548386663039 163.22187409094528 42.75000000001313
    vertex 2740.548386663039 112.42187409094528 42.75000000001313
    vertex 2740.548386663039 118.77187409094529 42.75000000001313
  endloop
endfacet
facet normal -3.523456036739791e-13 0.0 -1.0
  outer loop
    vertex 2740.548386663039 163.22187409094528 42.75000000001313
    vertex 2740.548386663039 118.77187409094529 42.75000000001313
    vertex 2740.548386663039 156.87187409094528 42.75000000001313
  endloop
endfacet
facet normal -3.523456036739791e-13 0.0 -1.0
  outer loop
    vertex 2784.9983866630387 118.77187409094529 42.74999999999747
    vertex 2779.8483866630386 122.70553772662254 42.74999999999929
    vertex 2784.9983866630387 156.87187409094528 42.74999999999747
  endloop
endfacet
facet normal -3.523456036739791e-13 0.0 -1.0
  outer loop
    vertex 2779.8483866630386 122.70553772662254 42.74999999999929
    vertex 2784.9983866630387 118.77187409094529 42.74999999999747
    vertex 2778.6483866630388 118.77187409094529 42.749999999999716
  endloop
endfacet
facet normal -3.523456036739791e-13 0.0 -1.0
  outer loop
    vertex 2779.8483866630386 122.70553772662254 42.74999999999929
    vertex 2778.6483866630388 118.77187409094529 42.749999999999716
    vertex 2773.8483866630386 122.70553772662254 42.750000000001414
  endloop
endfacet
facet normal -3.5438318946035996e-13 -1.7763568394103226e-15 -1.0
  outer loop
    vertex 2778.6483866630388 156.87187409094528 42.749999999999716
    vertex 2784.998386663038 163.22187409094528 42.74999999999745
    vertex 2784.9983866630387 156.87187409094528 42.74999999999747
  endloop
endfacet
facet normal -3.5438318946035996e-13 -1.7763568394103226e-15 -1.0
  outer loop
    vertex 2784.998386663038 163.22187409094528 42.74999999999745
    vertex 2778.6483866630388 156.87187409094528 42.749999999999716
    vertex 2778.6483866630388 163.22187409094528 42.749999999999716
  endloop
endfacet
facet normal -3.5260683262096976e-13 2.0043377879856607e-26 -1.0
  outer loop
    vertex 2784.998386663038 112.42187409094528 42.74999999999747
    vertex 2778.6483866630388 118.77187409094529 42.749999999999716
    vertex 2784.9983866630387 118.77187409094529 42.74999999999747
  endloop
endfacet
facet normal -3.5260683262096976e-13 2.0043377879856607e-26 -1.0
  outer loop
    vertex 2778.6483866630388 118.77187409094529 42.749999999999716
    vertex 2784.998386663038 112.42187409094528 42.74999999999747
    vertex 2778.6483866630388 112.42187409094528 42.749999999999716
  endloop
endfacet
facet normal -3.5171865420126964e-13 -8.881784196801323e-16 -1.0
  outer loop
    vertex 2734.198386663039 156.87187409094528 42.750000000015376
    vertex 2740.548386663039 163.22187409094528 42.75000000001313
    vertex 2740.548386663039 156.87187409094528 42.75000000001313
  endloop
endfacet
facet normal -3.5171865420126964e-13 -8.881784196801323e-16 -1.0
  outer loop
    vertex 2740.548386663039 163.22187409094528 42.75000000001313
    vertex 2734.198386663039 156.87187409094528 42.750000000015376
    vertex 2734.1983866630394 163.22187409094528 42.75000000001536
  endloop
endfacet
endsolid box draft 1
