solid box draft 1
facet normal -1.0 -0.0 -0.0
  outer loop
    vertex 2896.1968909617394 761.3680956302619 66.7999999999886
    vertex 2896.1968909617394 685.1680956302615 60.4499999999886
    vertex 2896.1968909617394 685.1680956302615 66.7999999999886
  endloop
endfacet
facet normal -1.0 -0.0 -0.0
  outer loop
    vertex 2896.1968909617394 685.1680956302615 60.4499999999886
    vertex 2896.1968909617394 761.3680956302619 66.7999999999886
    vertex 2896.1968909617394 761.3680956302619 60.4499999999886
  endloop
endfacet
facet normal 0.0 -1.0 0.0
  outer loop
    vertex 2943.8218909617417 685.1680956302615 66.7999999999886
    vertex 2896.1968909617394 685.1680956302615 60.4499999999886
    vertex 2943.8218909617417 685.1680956302615 60.4499999999886
  endloop
endfacet
facet normal 0.0 -1.0 0.0
  outer loop
    vertex 2896.1968909617394 685.1680956302615 60.4499999999886
    vertex 2943.8218909617417 685.1680956302615 66.7999999999886
    vertex 2896.1968909617394 685.1680956302615 66.7999999999886
  endloop
endfacet
facet normal 0.0 1.0 0.0
  outer loop
    vertex 2896.1968909617394 761.3680956302619 66.7999999999886
    vertex 2943.8218909617417 761.3680956302619 60.4499999999886
    vertex 2896.1968909617394 761.3680956302619 60.4499999999886
  endloop
endfacet
facet normal 0.0 1.0 0.0
  outer loop
    vertex 2943.8218909617417 761.3680956302619 60.4499999999886
    vertex 2896.1968909617394 761.3680956302619 66.7999999999886
    vertex 2943.8218909617417 761.3680956302619 66.7999999999886
  endloop
endfacet
facet normal 0.0 0.0 1.0
  outer loop
    vertex 2943.8218909617417 685.1680956302615 66.7999999999886
    vertex 2896.1968909617394 761.3680956302619 66.7999999999886
    vertex 2896.1968909617394 685.1680956302615 66.7999999999886
  endloop
endfacet
facet normal 0.0 0.0 1.0
  outer loop
    vertex 2896.1968909617394 761.3680956302619 66.7999999999886
    vertex 2943.8218909617417 685.1680956302615 66.7999999999886
    vertex 2943.8218909617417 761.3680956302619 66.7999999999886
  endloop
endfacet
facet normal 0.0 0.0 -1.0
  outer loop
    vertex 2943.8218909617417 761.3680956302619 60.4499999999886
    vertex 2896.1968909617394 685.1680956302615 60.4499999999886
    vertex 2896.1968909617394 761.3680956302619 60.4499999999886
  endloop
endfacet
facet normal 0.0 0.0 -1.0
  outer loop
    vertex 2896.1968909617394 685.1680956302615 60.4499999999886
    vertex 2943.8218909617417 761.3680956302619 60.4499999999886
    vertex 2943.8218909617417 685.1680956302615 60.4499999999886
  endloop
endfacet
facet normal 1.0 0.0 0.0
  outer loop
    vertex 2943.8218909617417 761.3680956302619 60.4499999999886
    vertex 2943.8218909617417 685.1680956302615 66.7999999999886
    vertex 2943.8218909617417 685.1680956302615 60.4499999999886
  endloop
endfacet
facet normal 1.0 0.0 0.0
  outer loop
    vertex 2943.8218909617417 685.1680956302615 66.7999999999886
    vertex 2943.8218909617417 761.3680956302619 60.4499999999886
    vertex 2943.8218909617417 761.3680956302619 66.7999999999886
  endloop
endfacet
facet normal -0.0 -0.0 -1.0
  outer loop
    vertex 2916.247399770845 733.0866258306144 66.7999999999886
    vertex 2916.43416529096 723.1613724759101 66.7999999999886
    vertex 2914.4864677240425 723.2680956302618 66.7999999999886
  endloop
endfacet
facet normal -0.0 -0.0 -1.0
  outer loop
    vertex 2916.43416529096 723.1613724759101 66.7999999999886
    vertex 2916.247399770845 733.0866258306144 66.7999999999886
    vertex 2917.954970240471 731.0855666865208 66.7999999999886
  endloop
endfacet
facet normal -0.0 -0.0 -1.0
  outer loop
    vertex 2917.954970240471 731.0855666865208 66.7999999999886
    vertex 2916.247399770845 733.0866258306144 66.7999999999886
    vertex 2925.585675776615 733.0866258306144 66.7999999999886
  endloop
endfacet
facet normal -0.0 -0.0 -1.0
  outer loop
    vertex 2916.43416529096 723.1613724759101 66.7999999999886
    vertex 2917.954970240471 731.0855666865208 66.7999999999886
    vertex 2916.9411002741303 725.6426858145861 66.7999999999886
  endloop
endfacet
facet normal -0.0 -0.0 -1.0
  outer loop
    vertex 2917.954970240471 731.0855666865208 66.7999999999886
    vertex 2925.585675776615 733.0866258306144 66.7999999999886
    vertex 2925.585675776615 731.0855666865208 66.7999999999886
  endloop
endfacet
facet normal -0.0 -0.0 -1.0
  outer loop
    vertex 2916.9411002741303 725.6426858145861 66.7999999999886
    vertex 2917.968310634765 724.4553907224239 66.7999999999886
    vertex 2916.43416529096 723.1613724759101 66.7999999999886
  endloop
endfacet
facet normal -0.0 -0.0 -1.0
  outer loop
    vertex 2917.968310634765 724.4553907224239 66.7999999999886
    vertex 2916.9411002741303 725.6426858145861 66.7999999999886
    vertex 2916.9944618513064 725.5893242374103 66.7999999999886
  endloop
endfacet
facet normal -0.0 -0.0 -1.0
  outer loop
    vertex 2917.968310634765 724.4553907224239 66.7999999999886
    vertex 2916.9944618513064 725.5893242374103 66.7999999999886
    vertex 2917.6981672000743 726.1929775294502 66.7999999999886
  endloop
endfacet
facet normal -0.0 -0.0 -1.0
  outer loop
    vertex 2917.968310634765 724.4553907224239 66.7999999999886
    vertex 2917.6981672000743 726.1929775294502 66.7999999999886
    vertex 2918.5819687722874 726.6165345980451 66.7999999999886
  endloop
endfacet
facet normal -0.0 -0.0 -1.0
  outer loop
    vertex 2917.968310634765 724.4553907224239 66.7999999999886
    vertex 2918.5819687722874 726.6165345980451 66.7999999999886
    vertex 2918.898802819934 724.8255872810745 66.7999999999886
  endloop
endfacet
facet normal -0.0 -0.0 -1.0
  outer loop
    vertex 2918.898802819934 724.8255872810745 66.7999999999886
    vertex 2918.5819687722874 726.6165345980451 66.7999999999886
    vertex 2920.516325944911 726.950044455394 66.7999999999886
  endloop
endfacet
facet normal -0.0 -0.0 -1.0
  outer loop
    vertex 2918.898802819934 724.8255872810745 66.7999999999886
    vertex 2920.516325944911 726.950044455394 66.7999999999886
    vertex 2919.9560293845648 724.9489853113004 66.7999999999886
  endloop
endfacet
facet normal -0.0 -0.0 -1.0
  outer loop
    vertex 2919.9560293845648 724.9489853113004 66.7999999999886
    vertex 2920.516325944911 726.950044455394 66.7999999999886
    vertex 2921.7036210370734 724.6288158482454 66.7999999999886
  endloop
endfacet
facet normal -0.0 -0.0 -1.0
  outer loop
    vertex 2921.7036210370734 724.6288158482454 66.7999999999886
    vertex 2920.516325944911 726.950044455394 66.7999999999886
    vertex 2921.7369721895634 726.849991998454 66.7999999999886
  endloop
endfacet
facet normal -0.0 -0.0 -1.0
  outer loop
    vertex 2921.7036210370734 724.6288158482454 66.7999999999886
    vertex 2921.7369721895634 726.849991998454 66.7999999999886
    vertex 2923.051000860763 723.7350094305502 66.7999999999886
  endloop
endfacet
facet normal -0.0 -0.0 -1.0
  outer loop
    vertex 2923.051000860763 723.7350094305502 66.7999999999886
    vertex 2921.7369721895634 726.849991998454 66.7999999999886
    vertex 2922.890916129236 726.5498326265753 66.7999999999886
  endloop
endfacet
facet normal -0.0 -0.0 -1.0
  outer loop
    vertex 2923.051000860763 723.7350094305502 66.7999999999886
    vertex 2922.890916129236 726.5498326265753 66.7999999999886
    vertex 2923.9381374481723 726.0462332589186 66.7999999999886
  endloop
endfacet
facet normal -0.0 -0.0 -1.0
  outer loop
    vertex 2923.051000860763 723.7350094305502 66.7999999999886
    vertex 2923.9381374481723 726.0462332589186 66.7999999999886
    vertex 2923.9181264898702 722.3742892125666 66.7999999999886
  endloop
endfacet
facet normal -0.0 -0.0 -1.0
  outer loop
    vertex 2923.9181264898702 722.3742892125666 66.7999999999886
    vertex 2923.9381374481723 726.0462332589186 66.7999999999886
    vertex 2924.2249555586313 720.6533783486461 66.7999999999886
  endloop
endfacet
facet normal -0.0 -0.0 -1.0
  outer loop
    vertex 2924.2249555586313 720.6533783486461 66.7999999999886
    vertex 2923.9381374481723 726.0462332589186 66.7999999999886
    vertex 2924.8386136961535 725.3358567458251 66.7999999999886
  endloop
endfacet
facet normal -0.0 -0.0 -1.0
  outer loop
    vertex 2916.247399770845 719.5861468051296 66.7999999999886
    vertex 2914.119606313992 718.3721705908696 66.7999999999886
    vertex 2913.979532740872 719.5861468051296 66.7999999999886
  endloop
endfacet
facet normal -0.0 -0.0 -1.0
  outer loop
    vertex 2914.119606313992 718.3721705908696 66.7999999999886
    vertex 2916.247399770845 719.5861468051296 66.7999999999886
    vertex 2914.4864677240425 717.2915989865688 66.7999999999886
  endloop
endfacet
facet normal -0.0 -0.0 -1.0
  outer loop
    vertex 2914.4864677240425 717.2915989865688 66.7999999999886
    vertex 2916.247399770845 719.5861468051296 66.7999999999886
    vertex 2915.053434047973 716.361106067678 66.7999999999886
  endloop
endfacet
facet normal -0.0 -0.0 -1.0
  outer loop
    vertex 2915.053434047973 716.361106067678 66.7999999999886
    vertex 2916.247399770845 719.5861468051296 66.7999999999886
    vertex 2915.7938263648502 715.5973689112362 66.7999999999886
  endloop
endfacet
facet normal -0.0 -0.0 -1.0
  outer loop
    vertex 2915.7938263648502 715.5973689112362 66.7999999999886
    vertex 2916.247399770845 719.5861468051296 66.7999999999886
    vertex 2916.684297367138 714.9970507677964 66.7999999999886
  endloop
endfacet
facet normal -0.0 -0.0 -1.0
  outer loop
    vertex 2916.684297367138 714.9970507677964 66.7999999999886
    vertex 2916.247399770845 719.5861468051296 66.7999999999886
    vertex 2916.6075904167815 718.2387669814398 66.7999999999886
  endloop
endfacet
facet normal -0.0 -0.0 -1.0
  outer loop
    vertex 2916.684297367138 714.9970507677964 66.7999999999886
    vertex 2916.6075904167815 718.2387669814398 66.7999999999886
    vertex 2917.434694863007 717.1448546493352 66.7999999999886
  endloop
endfacet
facet normal -0.0 -0.0 -1.0
  outer loop
    vertex 2916.684297367138 714.9970507677964 66.7999999999886
    vertex 2917.434694863007 717.1448546493352 66.7999999999886
    vertex 2917.701502748886 714.5568181563076 66.7999999999886
  endloop
endfacet
facet normal -0.0 -0.0 -1.0
  outer loop
    vertex 2917.701502748886 714.5568181563076 66.7999999999886
    vertex 2917.434694863007 717.1448546493352 66.7999999999886
    vertex 2918.662011138051 716.4244733574616 66.7999999999886
  endloop
endfacet
facet normal -0.0 -0.0 -1.0
  outer loop
    vertex 2917.701502748886 714.5568181563076 66.7999999999886
    vertex 2918.662011138051 716.4244733574616 66.7999999999886
    vertex 2920.009390961741 714.1966275103707 66.7999999999886
  endloop
endfacet
facet normal -0.0 -0.0 -1.0
  outer loop
    vertex 2920.009390961741 714.1966275103707 66.7999999999886
    vertex 2918.662011138051 716.4244733574616 66.7999999999886
    vertex 2920.222837270444 716.1710058658764 66.7999999999886
  endloop
endfacet
facet normal -0.0 -0.0 -1.0
  outer loop
    vertex 2920.009390961741 714.1966275103707 66.7999999999886
    vertex 2920.222837270444 716.1710058658764 66.7999999999886
    vertex 2921.5602123153535 714.3266957043926 66.7999999999886
  endloop
endfacet
facet normal -0.0 -0.0 -1.0
  outer loop
    vertex 2921.5602123153535 714.3266957043926 66.7999999999886
    vertex 2920.222837270444 716.1710058658764 66.7999999999886
    vertex 2921.7569826142494 716.4511541460495 66.7999999999886
  endloop
endfacet
facet normal -0.0 -0.0 -1.0
  outer loop
    vertex 2921.5602123153535 714.3266957043926 66.7999999999886
    vertex 2921.7569826142494 716.4511541460495 66.7999999999886
    vertex 2922.9042565235295 714.7169028878351 66.7999999999886
  endloop
endfacet
facet normal -0.0 -0.0 -1.0
  outer loop
    vertex 2922.9042565235295 714.7169028878351 66.7999999999886
    vertex 2921.7569826142494 716.4511541460495 66.7999999999886
    vertex 2923.037660466469 717.2915989865688 66.7999999999886
  endloop
endfacet
facet normal -0.0 -0.0 -1.0
  outer loop
    vertex 2922.9042565235295 714.7169028878351 66.7999999999886
    vertex 2923.037660466469 717.2915989865688 66.7999999999886
    vertex 2924.04152565403 715.3272254765453 66.7999999999886
  endloop
endfacet
facet normal -0.0 -0.0 -1.0
  outer loop
    vertex 2924.04152565403 715.3272254765453 66.7999999999886
    vertex 2923.037660466469 717.2915989865688 66.7999999999886
    vertex 2923.904786095576 718.6923403874345 66.7999999999886
  endloop
endfacet
facet normal -0.0 -0.0 -1.0
  outer loop
    vertex 2924.04152565403 715.3272254765453 66.7999999999886
    vertex 2923.904786095576 718.6923403874345 66.7999999999886
    vertex 2924.2249555586313 720.6533783486461 66.7999999999886
  endloop
endfacet
facet normal -0.0 -0.0 -1.0
  outer loop
    vertex 2924.04152565403 715.3272254765453 66.7999999999886
    vertex 2924.2249555586313 720.6533783486461 66.7999999999886
    vertex 2924.972017639093 716.1176442887006 66.7999999999886
  endloop
endfacet
facet normal -0.0 -0.0 -1.0
  outer loop
    vertex 2924.972017639093 716.1176442887006 66.7999999999886
    vertex 2924.2249555586313 720.6533783486461 66.7999999999886
    vertex 2924.8386136961535 725.3358567458251 66.7999999999886
  endloop
endfacet
facet normal -0.0 -0.0 -1.0
  outer loop
    vertex 2924.972017639093 716.1176442887006 66.7999999999886
    vertex 2924.8386136961535 725.3358567458251 66.7999999999886
    vertex 2925.5790060130307 724.4220402369539 66.7999999999886
  endloop
endfacet
facet normal -0.0 -0.0 -1.0
  outer loop
    vertex 2924.972017639093 716.1176442887006 66.7999999999886
    vertex 2925.5790060130307 724.4220402369539 66.7999999999886
    vertex 2925.6957345464803 717.0614768681637 66.7999999999886
  endloop
endfacet
facet normal -0.0 -0.0 -1.0
  outer loop
    vertex 2925.6957345464803 717.0614768681637 66.7999999999886
    vertex 2925.5790060130307 724.4220402369539 66.7999999999886
    vertex 2926.145972336961 723.3081168131436 66.7999999999886
  endloop
endfacet
facet normal -0.0 -0.0 -1.0
  outer loop
    vertex 2925.6957345464803 717.0614768681637 66.7999999999886
    vertex 2926.145972336961 723.3081168131436 66.7999999999886
    vertex 2926.212674308431 718.1320438270882 66.7999999999886
  endloop
endfacet
facet normal -0.0 -0.0 -1.0
  outer loop
    vertex 2926.212674308431 718.1320438270882 66.7999999999886
    vertex 2926.145972336961 723.3081168131436 66.7999999999886
    vertex 2926.5061635832158 721.9907533935556 66.7999999999886
  endloop
endfacet
facet normal -0.0 -0.0 -1.0
  outer loop
    vertex 2926.212674308431 718.1320438270882 66.7999999999886
    vertex 2926.5061635832158 721.9907533935556 66.7999999999886
    vertex 2926.522838992706 719.2826527515645 66.7999999999886
  endloop
endfacet
facet normal -0.0 -0.0 -1.0
  outer loop
    vertex 2926.522838992706 719.2826527515645 66.7999999999886
    vertex 2926.5061635832158 721.9907533935556 66.7999999999886
    vertex 2926.6262265315436 720.4666128285306 66.7999999999886
  endloop
endfacet
facet normal 0.0 0.0 1.0
  outer loop
    vertex 2914.119606313992 718.3721705908696 69.9749999999886
    vertex 2916.247399770845 719.5861468051296 69.9749999999886
    vertex 2913.979532740872 719.5861468051296 69.9749999999886
  endloop
endfacet
facet normal 0.0 0.0 1.0
  outer loop
    vertex 2916.247399770845 719.5861468051296 69.9749999999886
    vertex 2914.119606313992 718.3721705908696 69.9749999999886
    vertex 2914.4864677240425 717.2915989865688 69.9749999999886
  endloop
endfacet
facet normal 0.0 0.0 1.0
  outer loop
    vertex 2916.247399770845 719.5861468051296 69.9749999999886
    vertex 2914.4864677240425 717.2915989865688 69.9749999999886
    vertex 2915.053434047973 716.361106067678 69.9749999999886
  endloop
endfacet
facet normal 0.0 0.0 1.0
  outer loop
    vertex 2916.247399770845 719.5861468051296 69.9749999999886
    vertex 2915.053434047973 716.361106067678 69.9749999999886
    vertex 2915.7938263648502 715.5973689112362 69.9749999999886
  endloop
endfacet
facet normal 0.0 0.0 1.0
  outer loop
    vertex 2916.247399770845 719.5861468051296 69.9749999999886
    vertex 2915.7938263648502 715.5973689112362 69.9749999999886
    vertex 2916.684297367138 714.9970507677964 69.9749999999886
  endloop
endfacet
facet normal 0.0 0.0 1.0
  outer loop
    vertex 2916.247399770845 719.5861468051296 69.9749999999886
    vertex 2916.684297367138 714.9970507677964 69.9749999999886
    vertex 2916.6075904167815 718.2387669814398 69.9749999999886
  endloop
endfacet
facet normal 0.0 0.0 1.0
  outer loop
    vertex 2916.6075904167815 718.2387669814398 69.9749999999886
    vertex 2916.684297367138 714.9970507677964 69.9749999999886
    vertex 2917.434694863007 717.1448546493352 69.9749999999886
  endloop
endfacet
facet normal 0.0 0.0 1.0
  outer loop
    vertex 2917.434694863007 717.1448546493352 69.9749999999886
    vertex 2916.684297367138 714.9970507677964 69.9749999999886
    vertex 2917.701502748886 714.5568181563076 69.9749999999886
  endloop
endfacet
facet normal 0.0 0.0 1.0
  outer loop
    vertex 2917.434694863007 717.1448546493352 69.9749999999886
    vertex 2917.701502748886 714.5568181563076 69.9749999999886
    vertex 2918.662011138051 716.4244733574616 69.9749999999886
  endloop
endfacet
facet normal 0.0 0.0 1.0
  outer loop
    vertex 2918.662011138051 716.4244733574616 69.9749999999886
    vertex 2917.701502748886 714.5568181563076 69.9749999999886
    vertex 2920.009390961741 714.1966275103707 69.9749999999886
  endloop
endfacet
facet normal 0.0 0.0 1.0
  outer loop
    vertex 2918.662011138051 716.4244733574616 69.9749999999886
    vertex 2920.009390961741 714.1966275103707 69.9749999999886
    vertex 2920.222837270444 716.1710058658764 69.9749999999886
  endloop
endfacet
facet normal 0.0 0.0 1.0
  outer loop
    vertex 2920.222837270444 716.1710058658764 69.9749999999886
    vertex 2920.009390961741 714.1966275103707 69.9749999999886
    vertex 2921.5602123153535 714.3266957043926 69.9749999999886
  endloop
endfacet
facet normal 0.0 0.0 1.0
  outer loop
    vertex 2920.222837270444 716.1710058658764 69.9749999999886
    vertex 2921.5602123153535 714.3266957043926 69.9749999999886
    vertex 2921.7569826142494 716.4511541460495 69.9749999999886
  endloop
endfacet
facet normal 0.0 0.0 1.0
  outer loop
    vertex 2921.7569826142494 716.4511541460495 69.9749999999886
    vertex 2921.5602123153535 714.3266957043926 69.9749999999886
    vertex 2922.9042565235295 714.7169028878351 69.9749999999886
  endloop
endfacet
facet normal 0.0 0.0 1.0
  outer loop
    vertex 2921.7569826142494 716.4511541460495 69.9749999999886
    vertex 2922.9042565235295 714.7169028878351 69.9749999999886
    vertex 2923.037660466469 717.2915989865688 69.9749999999886
  endloop
endfacet
facet normal 0.0 0.0 1.0
  outer loop
    vertex 2923.037660466469 717.2915989865688 69.9749999999886
    vertex 2922.9042565235295 714.7169028878351 69.9749999999886
    vertex 2924.04152565403 715.3272254765453 69.9749999999886
  endloop
endfacet
facet normal 0.0 0.0 1.0
  outer loop
    vertex 2923.037660466469 717.2915989865688 69.9749999999886
    vertex 2924.04152565403 715.3272254765453 69.9749999999886
    vertex 2923.904786095576 718.6923403874345 69.9749999999886
  endloop
endfacet
facet normal 0.0 0.0 1.0
  outer loop
    vertex 2923.904786095576 718.6923403874345 69.9749999999886
    vertex 2924.04152565403 715.3272254765453 69.9749999999886
    vertex 2924.2249555586313 720.6533783486461 69.9749999999886
  endloop
endfacet
facet normal 0.0 0.0 1.0
  outer loop
    vertex 2924.2249555586313 720.6533783486461 69.9749999999886
    vertex 2924.04152565403 715.3272254765453 69.9749999999886
    vertex 2924.972017639093 716.1176442887006 69.9749999999886
  endloop
endfacet
facet normal 0.0 0.0 1.0
  outer loop
    vertex 2924.2249555586313 720.6533783486461 69.9749999999886
    vertex 2924.972017639093 716.1176442887006 69.9749999999886
    vertex 2924.8386136961535 725.3358567458251 69.9749999999886
  endloop
endfacet
facet normal 0.0 0.0 1.0
  outer loop
    vertex 2924.8386136961535 725.3358567458251 69.9749999999886
    vertex 2924.972017639093 716.1176442887006 69.9749999999886
    vertex 2925.5790060130307 724.4220402369539 69.9749999999886
  endloop
endfacet
facet normal 0.0 0.0 1.0
  outer loop
    vertex 2925.5790060130307 724.4220402369539 69.9749999999886
    vertex 2924.972017639093 716.1176442887006 69.9749999999886
    vertex 2925.6957345464803 717.0614768681637 69.9749999999886
  endloop
endfacet
facet normal 0.0 0.0 1.0
  outer loop
    vertex 2925.5790060130307 724.4220402369539 69.9749999999886
    vertex 2925.6957345464803 717.0614768681637 69.9749999999886
    vertex 2926.145972336961 723.3081168131436 69.9749999999886
  endloop
endfacet
facet normal 0.0 0.0 1.0
  outer loop
    vertex 2926.145972336961 723.3081168131436 69.9749999999886
    vertex 2925.6957345464803 717.0614768681637 69.9749999999886
    vertex 2926.212674308431 718.1320438270882 69.9749999999886
  endloop
endfacet
facet normal 0.0 0.0 1.0
  outer loop
    vertex 2926.145972336961 723.3081168131436 69.9749999999886
    vertex 2926.212674308431 718.1320438270882 69.9749999999886
    vertex 2926.5061635832158 721.9907533935556 69.9749999999886
  endloop
endfacet
facet normal 0.0 0.0 1.0
  outer loop
    vertex 2926.5061635832158 721.9907533935556 69.9749999999886
    vertex 2926.212674308431 718.1320438270882 69.9749999999886
    vertex 2926.522838992706 719.2826527515645 69.9749999999886
  endloop
endfacet
facet normal 0.0 0.0 1.0
  outer loop
    vertex 2926.5061635832158 721.9907533935556 69.9749999999886
    vertex 2926.522838992706 719.2826527515645 69.9749999999886
    vertex 2926.6262265315436 720.4666128285306 69.9749999999886
  endloop
endfacet
facet normal 0.0 0.0 1.0
  outer loop
    vertex 2917.968310634765 724.4553907224239 69.9749999999886
    vertex 2916.9411002741303 725.6426858145861 69.9749999999886
    vertex 2916.43416529096 723.1613724759101 69.9749999999886
  endloop
endfacet
facet normal 0.0 0.0 1.0
  outer loop
    vertex 2916.9411002741303 725.6426858145861 69.9749999999886
    vertex 2917.968310634765 724.4553907224239 69.9749999999886
    vertex 2916.9944618513064 725.5893242374103 69.9749999999886
  endloop
endfacet
facet normal 0.0 0.0 1.0
  outer loop
    vertex 2916.9944618513064 725.5893242374103 69.9749999999886
    vertex 2917.968310634765 724.4553907224239 69.9749999999886
    vertex 2917.6981672000743 726.1929775294502 69.9749999999886
  endloop
endfacet
facet normal 0.0 0.0 1.0
  outer loop
    vertex 2917.6981672000743 726.1929775294502 69.9749999999886
    vertex 2917.968310634765 724.4553907224239 69.9749999999886
    vertex 2918.5819687722874 726.6165345980451 69.9749999999886
  endloop
endfacet
facet normal 0.0 0.0 1.0
  outer loop
    vertex 2918.5819687722874 726.6165345980451 69.9749999999886
    vertex 2917.968310634765 724.4553907224239 69.9749999999886
    vertex 2918.898802819934 724.8255872810745 69.9749999999886
  endloop
endfacet
facet normal 0.0 0.0 1.0
  outer loop
    vertex 2918.5819687722874 726.6165345980451 69.9749999999886
    vertex 2918.898802819934 724.8255872810745 69.9749999999886
    vertex 2920.516325944911 726.950044455394 69.9749999999886
  endloop
endfacet
facet normal 0.0 0.0 1.0
  outer loop
    vertex 2920.516325944911 726.950044455394 69.9749999999886
    vertex 2918.898802819934 724.8255872810745 69.9749999999886
    vertex 2919.9560293845648 724.9489853113004 69.9749999999886
  endloop
endfacet
facet normal 0.0 0.0 1.0
  outer loop
    vertex 2920.516325944911 726.950044455394 69.9749999999886
    vertex 2919.9560293845648 724.9489853113004 69.9749999999886
    vertex 2921.7036210370734 724.6288158482454 69.9749999999886
  endloop
endfacet
facet normal 0.0 0.0 1.0
  outer loop
    vertex 2920.516325944911 726.950044455394 69.9749999999886
    vertex 2921.7036210370734 724.6288158482454 69.9749999999886
    vertex 2921.7369721895634 726.849991998454 69.9749999999886
  endloop
endfacet
facet normal 0.0 0.0 1.0
  outer loop
    vertex 2921.7369721895634 726.849991998454 69.9749999999886
    vertex 2921.7036210370734 724.6288158482454 69.9749999999886
    vertex 2923.051000860763 723.7350094305502 69.9749999999886
  endloop
endfacet
facet normal 0.0 0.0 1.0
  outer loop
    vertex 2921.7369721895634 726.849991998454 69.9749999999886
    vertex 2923.051000860763 723.7350094305502 69.9749999999886
    vertex 2922.890916129236 726.5498326265753 69.9749999999886
  endloop
endfacet
facet normal 0.0 0.0 1.0
  outer loop
    vertex 2922.890916129236 726.5498326265753 69.9749999999886
    vertex 2923.051000860763 723.7350094305502 69.9749999999886
    vertex 2923.9381374481723 726.0462332589186 69.9749999999886
  endloop
endfacet
facet normal 0.0 0.0 1.0
  outer loop
    vertex 2923.9381374481723 726.0462332589186 69.9749999999886
    vertex 2923.051000860763 723.7350094305502 69.9749999999886
    vertex 2923.9181264898702 722.3742892125666 69.9749999999886
  endloop
endfacet
facet normal 0.0 0.0 1.0
  outer loop
    vertex 2923.9381374481723 726.0462332589186 69.9749999999886
    vertex 2923.9181264898702 722.3742892125666 69.9749999999886
    vertex 2924.2249555586313 720.6533783486461 69.9749999999886
  endloop
endfacet
facet normal 0.0 0.0 1.0
  outer loop
    vertex 2923.9381374481723 726.0462332589186 69.9749999999886
    vertex 2924.2249555586313 720.6533783486461 69.9749999999886
    vertex 2924.8386136961535 725.3358567458251 69.9749999999886
  endloop
endfacet
facet normal 0.0 0.0 1.0
  outer loop
    vertex 2916.43416529096 723.1613724759101 69.9749999999886
    vertex 2916.247399770845 733.0866258306144 69.9749999999886
    vertex 2914.4864677240425 723.2680956302618 69.9749999999886
  endloop
endfacet
facet normal 0.0 0.0 1.0
  outer loop
    vertex 2916.247399770845 733.0866258306144 69.9749999999886
    vertex 2916.43416529096 723.1613724759101 69.9749999999886
    vertex 2917.954970240471 731.0855666865208 69.9749999999886
  endloop
endfacet
facet normal 0.0 0.0 1.0
  outer loop
    vertex 2916.247399770845 733.0866258306144 69.9749999999886
    vertex 2917.954970240471 731.0855666865208 69.9749999999886
    vertex 2925.585675776615 733.0866258306144 69.9749999999886
  endloop
endfacet
facet normal 0.0 0.0 1.0
  outer loop
    vertex 2917.954970240471 731.0855666865208 69.9749999999886
    vertex 2916.43416529096 723.1613724759101 69.9749999999886
    vertex 2916.9411002741303 725.6426858145861 69.9749999999886
  endloop
endfacet
facet normal 0.0 0.0 1.0
  outer loop
    vertex 2925.585675776615 733.0866258306144 69.9749999999886
    vertex 2917.954970240471 731.0855666865208 69.9749999999886
    vertex 2925.585675776615 731.0855666865208 69.9749999999886
  endloop
endfacet
facet normal 1.0 0.0 0.0
  outer loop
    vertex 2925.585675776615 733.0866258306144 66.7999999999886
    vertex 2925.585675776615 731.0855666865208 69.9749999999886
    vertex 2925.585675776615 731.0855666865208 66.7999999999886
  endloop
endfacet
facet normal 1.0 0.0 0.0
  outer loop
    vertex 2925.585675776615 731.0855666865208 69.9749999999886
    vertex 2925.585675776615 733.0866258306144 66.7999999999886
    vertex 2925.585675776615 733.0866258306144 69.9749999999886
  endloop
endfacet
facet normal 0.0 -1.0 0.0
  outer loop
    vertex 2925.585675776615 731.0855666865208 69.9749999999886
    vertex 2917.954970240471 731.0855666865208 66.7999999999886
    vertex 2925.585675776615 731.0855666865208 66.7999999999886
  endloop
endfacet
facet normal 0.0 -1.0 0.0
  outer loop
    vertex 2917.954970240471 731.0855666865208 66.7999999999886
    vertex 2925.585675776615 731.0855666865208 69.9749999999886
    vertex 2917.954970240471 731.0855666865208 69.9749999999886
  endloop
endfacet
facet normal 0.9830897197714445 -0.18312455564370045 0.0
  outer loop
    vertex 2917.954970240471 731.0855666865208 66.7999999999886
    vertex 2916.9411002741303 725.6426858145861 69.9749999999886
    vertex 2916.9411002741303 725.6426858145861 66.7999999999886
  endloop
endfacet
facet normal 0.9830897197714445 -0.18312455564370045 0.0
  outer loop
    vertex 2916.9411002741303 725.6426858145861 69.9749999999886
    vertex 2917.954970240471 731.0855666865208 66.7999999999886
    vertex 2917.954970240471 731.0855666865208 69.9749999999886
  endloop
endfacet
facet normal 0.7071067811865313 0.707106781186564 0.0
  outer loop
    vertex 2916.9411002741303 725.6426858145861 69.9749999999886
    vertex 2916.9944618513064 725.5893242374103 66.7999999999886
    vertex 2916.9411002741303 725.6426858145861 66.7999999999886
  endloop
endfacet
facet normal 0.7071067811865313 0.707106781186564 0.0
  outer loop
    vertex 2916.9944618513064 725.5893242374103 66.7999999999886
    vertex 2916.9411002741303 725.6426858145861 69.9749999999886
    vertex 2916.9944618513064 725.5893242374103 69.9749999999886
  endloop
endfacet
facet normal -0.651088081093402 0.759002180931064 0.0
  outer loop
    vertex 2916.9944618513064 725.5893242374103 69.9749999999886
    vertex 2917.6981672000743 726.1929775294502 66.7999999999886
    vertex 2916.9944618513064 725.5893242374103 66.7999999999886
  endloop
endfacet
facet normal -0.651088081093402 0.759002180931064 0.0
  outer loop
    vertex 2917.6981672000743 726.1929775294502 66.7999999999886
    vertex 2916.9944618513064 725.5893242374103 69.9749999999886
    vertex 2917.6981672000743 726.1929775294502 69.9749999999886
  endloop
endfacet
facet normal -0.432177284092557 0.9017886643301642 0.0
  outer loop
    vertex 2917.6981672000743 726.1929775294502 69.9749999999886
    vertex 2918.5819687722874 726.6165345980451 66.7999999999886
    vertex 2917.6981672000743 726.1929775294502 66.7999999999886
  endloop
endfacet
facet normal -0.432177284092557 0.9017886643301642 0.0
  outer loop
    vertex 2918.5819687722874 726.6165345980451 66.7999999999886
    vertex 2917.6981672000743 726.1929775294502 69.9749999999886
    vertex 2918.5819687722874 726.6165345980451 69.9749999999886
  endloop
endfacet
facet normal -0.16990691650764658 0.985460115744348 0.0
  outer loop
    vertex 2918.5819687722874 726.6165345980451 69.9749999999886
    vertex 2920.516325944911 726.950044455394 66.7999999999886
    vertex 2918.5819687722874 726.6165345980451 66.7999999999886
  endloop
endfacet
facet normal -0.16990691650764658 0.985460115744348 0.0
  outer loop
    vertex 2920.516325944911 726.950044455394 66.7999999999886
    vertex 2918.5819687722874 726.6165345980451 69.9749999999886
    vertex 2920.516325944911 726.950044455394 69.9749999999886
  endloop
endfacet
facet normal 0.08169282261932811 0.9966575553982858 0.0
  outer loop
    vertex 2920.516325944911 726.950044455394 69.9749999999886
    vertex 2921.7369721895634 726.849991998454 66.7999999999886
    vertex 2920.516325944911 726.950044455394 66.7999999999886
  endloop
endfacet
facet normal 0.08169282261932811 0.9966575553982858 0.0
  outer loop
    vertex 2921.7369721895634 726.849991998454 66.7999999999886
    vertex 2920.516325944911 726.950044455394 69.9749999999886
    vertex 2921.7369721895634 726.849991998454 69.9749999999886
  endloop
endfacet
facet normal 0.2517390767429171 0.9677951421869319 0.0
  outer loop
    vertex 2921.7369721895634 726.849991998454 69.9749999999886
    vertex 2922.890916129236 726.5498326265753 66.7999999999886
    vertex 2921.7369721895634 726.849991998454 66.7999999999886
  endloop
endfacet
facet normal 0.2517390767429171 0.9677951421869319 0.0
  outer loop
    vertex 2922.890916129236 726.5498326265753 66.7999999999886
    vertex 2921.7369721895634 726.849991998454 69.9749999999886
    vertex 2922.890916129236 726.5498326265753 69.9749999999886
  endloop
endfacet
facet normal 0.4333836115825136 0.9012095456727571 0.0
  outer loop
    vertex 2922.890916129236 726.5498326265753 69.9749999999886
    vertex 2923.9381374481723 726.0462332589186 66.7999999999886
    vertex 2922.890916129236 726.5498326265753 66.7999999999886
  endloop
endfacet
facet normal 0.4333836115825136 0.9012095456727571 0.0
  outer loop
    vertex 2923.9381374481723 726.0462332589186 66.7999999999886
    vertex 2922.890916129236 726.5498326265753 69.9749999999886
    vertex 2923.9381374481723 726.0462332589186 69.9749999999886
  endloop
endfacet
facet normal 0.6193618410764031 0.7851056679316794 0.0
  outer loop
    vertex 2923.9381374481723 726.0462332589186 69.9749999999886
    vertex 2924.8386136961535 725.3358567458251 66.7999999999886
    vertex 2923.9381374481723 726.0462332589186 66.7999999999886
  endloop
endfacet
facet normal 0.6193618410764031 0.7851056679316794 0.0
  outer loop
    vertex 2924.8386136961535 725.3358567458251 66.7999999999886
    vertex 2923.9381374481723 726.0462332589186 69.9749999999886
    vertex 2924.8386136961535 725.3358567458251 69.9749999999886
  endloop
endfacet
facet normal 0.7769803063256778 0.6295249030674289 0.0
  outer loop
    vertex 2924.8386136961535 725.3358567458251 66.7999999999886
    vertex 2925.5790060130307 724.4220402369539 69.9749999999886
    vertex 2925.5790060130307 724.4220402369539 66.7999999999886
  endloop
endfacet
facet normal 0.7769803063256778 0.6295249030674289 0.0
  outer loop
    vertex 2925.5790060130307 724.4220402369539 69.9749999999886
    vertex 2924.8386136961535 725.3358567458251 66.7999999999886
    vertex 2924.8386136961535 725.3358567458251 69.9749999999886
  endloop
endfacet
facet normal 0.891202563818724 0.4536055447665223 0.0
  outer loop
    vertex 2925.5790060130307 724.4220402369539 66.7999999999886
    vertex 2926.145972336961 723.3081168131436 69.9749999999886
    vertex 2926.145972336961 723.3081168131436 66.7999999999886
  endloop
endfacet
facet normal 0.891202563818724 0.4536055447665223 0.0
  outer loop
    vertex 2926.145972336961 723.3081168131436 69.9749999999886
    vertex 2925.5790060130307 724.4220402369539 66.7999999999886
    vertex 2925.5790060130307 724.4220402369539 69.9749999999886
  endloop
endfacet
facet normal 0.9645944215948329 0.263737751996429 0.0
  outer loop
    vertex 2926.145972336961 723.3081168131436 66.7999999999886
    vertex 2926.5061635832158 721.9907533935556 69.9749999999886
    vertex 2926.5061635832158 721.9907533935556 66.7999999999886
  endloop
endfacet
facet normal 0.9645944215948329 0.263737751996429 0.0
  outer loop
    vertex 2926.5061635832158 721.9907533935556 69.9749999999886
    vertex 2926.145972336961 723.3081168131436 66.7999999999886
    vertex 2926.145972336961 723.3081168131436 69.9749999999886
  endloop
endfacet
facet normal 0.9969116787166292 0.0785309164494622 0.0
  outer loop
    vertex 2926.5061635832158 721.9907533935556 66.7999999999886
    vertex 2926.6262265315436 720.4666128285306 69.9749999999886
    vertex 2926.6262265315436 720.4666128285306 66.7999999999886
  endloop
endfacet
facet normal 0.9969116787166292 0.0785309164494622 0.0
  outer loop
    vertex 2926.6262265315436 720.4666128285306 69.9749999999886
    vertex 2926.5061635832158 721.9907533935556 66.7999999999886
    vertex 2926.5061635832158 721.9907533935556 69.9749999999886
  endloop
endfacet
facet normal 0.9962089704409696 -0.0869924549196286 0.0
  outer loop
    vertex 2926.6262265315436 720.4666128285306 66.7999999999886
    vertex 2926.522838992706 719.2826527515645 69.9749999999886
    vertex 2926.522838992706 719.2826527515645 66.7999999999886
  endloop
endfacet
facet normal 0.9962089704409696 -0.0869924549196286 0.0
  outer loop
    vertex 2926.522838992706 719.2826527515645 69.9749999999886
    vertex 2926.6262265315436 720.4666128285306 66.7999999999886
    vertex 2926.6262265315436 720.4666128285306 69.9749999999886
  endloop
endfacet
facet normal 0.9655345334456518 -0.2602749790584716 0.0
  outer loop
    vertex 2926.522838992706 719.2826527515645 66.7999999999886
    vertex 2926.212674308431 718.1320438270882 69.9749999999886
    vertex 2926.212674308431 718.1320438270882 66.7999999999886
  endloop
endfacet
facet normal 0.9655345334456518 -0.2602749790584716 0.0
  outer loop
    vertex 2926.212674308431 718.1320438270882 69.9749999999886
    vertex 2926.522838992706 719.2826527515645 66.7999999999886
    vertex 2926.522838992706 719.2826527515645 69.9749999999886
  endloop
endfacet
facet normal 0.9005139801750789 -0.43482705931121396 0.0
  outer loop
    vertex 2926.212674308431 718.1320438270882 66.7999999999886
    vertex 2925.6957345464803 717.0614768681637 69.9749999999886
    vertex 2925.6957345464803 717.0614768681637 66.7999999999886
  endloop
endfacet
facet normal 0.9005139801750789 -0.43482705931121396 0.0
  outer loop
    vertex 2925.6957345464803 717.0614768681637 69.9749999999886
    vertex 2926.212674308431 718.1320438270882 66.7999999999886
    vertex 2926.212674308431 718.1320438270882 69.9749999999886
  endloop
endfacet
facet normal 0.7935609180772397 -0.6084908128315569 0.0
  outer loop
    vertex 2925.6957345464803 717.0614768681637 66.7999999999886
    vertex 2924.972017639093 716.1176442887006 69.9749999999886
    vertex 2924.972017639093 716.1176442887006 66.7999999999886
  endloop
endfacet
facet normal 0.7935609180772397 -0.6084908128315569 0.0
  outer loop
    vertex 2924.972017639093 716.1176442887006 69.9749999999886
    vertex 2925.6957345464803 717.0614768681637 66.7999999999886
    vertex 2925.6957345464803 717.0614768681637 69.9749999999886
  endloop
endfacet
facet normal 0.6474109286489318 -0.7621411217523483 0.0
  outer loop
    vertex 2924.972017639093 716.1176442887006 69.9749999999886
    vertex 2924.04152565403 715.3272254765453 66.7999999999886
    vertex 2924.972017639093 716.1176442887006 66.7999999999886
  endloop
endfacet
facet normal 0.6474109286489318 -0.7621411217523483 0.0
  outer loop
    vertex 2924.04152565403 715.3272254765453 66.7999999999886
    vertex 2924.972017639093 716.1176442887006 69.9749999999886
    vertex 2924.04152565403 715.3272254765453 69.9749999999886
  endloop
endfacet
facet normal 0.47286620069003893 -0.8811342441676909 0.0
  outer loop
    vertex 2924.04152565403 715.3272254765453 69.9749999999886
    vertex 2922.9042565235295 714.7169028878351 66.7999999999886
    vertex 2924.04152565403 715.3272254765453 66.7999999999886
  endloop
endfacet
facet normal 0.47286620069003893 -0.8811342441676909 0.0
  outer loop
    vertex 2922.9042565235295 714.7169028878351 66.7999999999886
    vertex 2924.04152565403 715.3272254765453 69.9749999999886
    vertex 2922.9042565235295 714.7169028878351 69.9749999999886
  endloop
endfacet
facet normal 0.2788107223242366 -0.960346073619837 0.0
  outer loop
    vertex 2922.9042565235295 714.7169028878351 69.9749999999886
    vertex 2921.5602123153535 714.3266957043926 66.7999999999886
    vertex 2922.9042565235295 714.7169028878351 66.7999999999886
  endloop
endfacet
facet normal 0.2788107223242366 -0.960346073619837 0.0
  outer loop
    vertex 2921.5602123153535 714.3266957043926 66.7999999999886
    vertex 2922.9042565235295 714.7169028878351 69.9749999999886
    vertex 2921.5602123153535 714.3266957043926 69.9749999999886
  endloop
endfacet
facet normal 0.0835770839089446 -0.9965013151247103 0.0
  outer loop
    vertex 2921.5602123153535 714.3266957043926 69.9749999999886
    vertex 2920.009390961741 714.1966275103707 66.7999999999886
    vertex 2921.5602123153535 714.3266957043926 66.7999999999886
  endloop
endfacet
facet normal 0.0835770839089446 -0.9965013151247103 0.0
  outer loop
    vertex 2920.009390961741 714.1966275103707 66.7999999999886
    vertex 2921.5602123153535 714.3266957043926 69.9749999999886
    vertex 2920.009390961741 714.1966275103707 69.9749999999886
  endloop
endfacet
facet normal -0.15420265603988173 -0.9880392405518347 0.0
  outer loop
    vertex 2920.009390961741 714.1966275103707 69.9749999999886
    vertex 2917.701502748886 714.5568181563076 66.7999999999886
    vertex 2920.009390961741 714.1966275103707 66.7999999999886
  endloop
endfacet
facet normal -0.15420265603988173 -0.9880392405518347 0.0
  outer loop
    vertex 2917.701502748886 714.5568181563076 66.7999999999886
    vertex 2920.009390961741 714.1966275103707 69.9749999999886
    vertex 2917.701502748886 714.5568181563076 69.9749999999886
  endloop
endfacet
facet normal -0.3971847731985251 -0.9177386642935104 0.0
  outer loop
    vertex 2917.701502748886 714.5568181563076 69.9749999999886
    vertex 2916.684297367138 714.9970507677964 66.7999999999886
    vertex 2917.701502748886 714.5568181563076 66.7999999999886
  endloop
endfacet
facet normal -0.3971847731985251 -0.9177386642935104 0.0
  outer loop
    vertex 2916.684297367138 714.9970507677964 66.7999999999886
    vertex 2917.701502748886 714.5568181563076 69.9749999999886
    vertex 2916.684297367138 714.9970507677964 69.9749999999886
  endloop
endfacet
facet normal -0.5589931260231499 -0.8291722891286628 0.0
  outer loop
    vertex 2916.684297367138 714.9970507677964 69.9749999999886
    vertex 2915.7938263648502 715.5973689112362 66.7999999999886
    vertex 2916.684297367138 714.9970507677964 66.7999999999886
  endloop
endfacet
facet normal -0.5589931260231499 -0.8291722891286628 0.0
  outer loop
    vertex 2915.7938263648502 715.5973689112362 66.7999999999886
    vertex 2916.684297367138 714.9970507677964 69.9749999999886
    vertex 2915.7938263648502 715.5973689112362 69.9749999999886
  endloop
endfacet
facet normal -0.7179949588615933 -0.6960483022386731 0.0
  outer loop
    vertex 2915.053434047973 716.361106067678 69.9749999999886
    vertex 2915.7938263648502 715.5973689112362 66.7999999999886
    vertex 2915.7938263648502 715.5973689112362 69.9749999999886
  endloop
endfacet
facet normal -0.7179949588615933 -0.6960483022386731 0.0
  outer loop
    vertex 2915.7938263648502 715.5973689112362 66.7999999999886
    vertex 2915.053434047973 716.361106067678 69.9749999999886
    vertex 2915.053434047973 716.361106067678 66.7999999999886
  endloop
endfacet
facet normal -0.8539623276112099 -0.5203348374084177 0.0
  outer loop
    vertex 2914.4864677240425 717.2915989865688 69.9749999999886
    vertex 2915.053434047973 716.361106067678 66.7999999999886
    vertex 2915.053434047973 716.361106067678 69.9749999999886
  endloop
endfacet
facet normal -0.8539623276112099 -0.5203348374084177 0.0
  outer loop
    vertex 2915.053434047973 716.361106067678 66.7999999999886
    vertex 2914.4864677240425 717.2915989865688 69.9749999999886
    vertex 2914.4864677240425 717.2915989865688 66.7999999999886
  endloop
endfacet
facet normal -0.9469149842302366 -0.32148407836197873 0.0
  outer loop
    vertex 2914.119606313992 718.3721705908696 69.9749999999886
    vertex 2914.4864677240425 717.2915989865688 66.7999999999886
    vertex 2914.4864677240425 717.2915989865688 69.9749999999886
  endloop
endfacet
facet normal -0.9469149842302366 -0.32148407836197873 0.0
  outer loop
    vertex 2914.4864677240425 717.2915989865688 66.7999999999886
    vertex 2914.119606313992 718.3721705908696 69.9749999999886
    vertex 2914.119606313992 718.3721705908696 66.7999999999886
  endloop
endfacet
facet normal -0.993408992286618 -0.11462361904985544 0.0
  outer loop
    vertex 2913.979532740872 719.5861468051296 69.9749999999886
    vertex 2914.119606313992 718.3721705908696 66.7999999999886
    vertex 2914.119606313992 718.3721705908696 69.9749999999886
  endloop
endfacet
facet normal -0.993408992286618 -0.11462361904985544 0.0
  outer loop
    vertex 2914.119606313992 718.3721705908696 66.7999999999886
    vertex 2913.979532740872 719.5861468051296 69.9749999999886
    vertex 2913.979532740872 719.5861468051296 66.7999999999886
  endloop
endfacet
facet normal 0.0 1.0 0.0
  outer loop
    vertex 2913.979532740872 719.5861468051296 69.9749999999886
    vertex 2916.247399770845 719.5861468051296 66.7999999999886
    vertex 2913.979532740872 719.5861468051296 66.7999999999886
  endloop
endfacet
facet normal 0.0 1.0 0.0
  outer loop
    vertex 2916.247399770845 719.5861468051296 66.7999999999886
    vertex 2913.979532740872 719.5861468051296 69.9749999999886
    vertex 2916.247399770845 719.5861468051296 69.9749999999886
  endloop
endfacet
facet normal 0.9660759992001446 0.258257940380237 0.0
  outer loop
    vertex 2916.247399770845 719.5861468051296 66.7999999999886
    vertex 2916.6075904167815 718.2387669814398 69.9749999999886
    vertex 2916.6075904167815 718.2387669814398 66.7999999999886
  endloop
endfacet
facet normal 0.9660759992001446 0.258257940380237 0.0
  outer loop
    vertex 2916.6075904167815 718.2387669814398 69.9749999999886
    vertex 2916.247399770845 719.5861468051296 66.7999999999886
    vertex 2916.247399770845 719.5861468051296 69.9749999999886
  endloop
endfacet
facet normal 0.7976593312819871 0.6031082748717459 0.0
  outer loop
    vertex 2916.6075904167815 718.2387669814398 66.7999999999886
    vertex 2917.434694863007 717.1448546493352 69.9749999999886
    vertex 2917.434694863007 717.1448546493352 66.7999999999886
  endloop
endfacet
facet normal 0.7976593312819871 0.6031082748717459 0.0
  outer loop
    vertex 2917.434694863007 717.1448546493352 69.9749999999886
    vertex 2916.6075904167815 718.2387669814398 66.7999999999886
    vertex 2916.6075904167815 718.2387669814398 69.9749999999886
  endloop
endfacet
facet normal 0.5062005687642234 0.8624157838205286 0.0
  outer loop
    vertex 2917.434694863007 717.1448546493352 69.9749999999886
    vertex 2918.662011138051 716.4244733574616 66.7999999999886
    vertex 2917.434694863007 717.1448546493352 66.7999999999886
  endloop
endfacet
facet normal 0.5062005687642234 0.8624157838205286 0.0
  outer loop
    vertex 2918.662011138051 716.4244733574616 66.7999999999886
    vertex 2917.434694863007 717.1448546493352 69.9749999999886
    vertex 2918.662011138051 716.4244733574616 69.9749999999886
  endloop
endfacet
facet normal 0.16029332543164704 0.987069425026459 0.0
  outer loop
    vertex 2918.662011138051 716.4244733574616 69.9749999999886
    vertex 2920.222837270444 716.1710058658764 66.7999999999886
    vertex 2918.662011138051 716.4244733574616 66.7999999999886
  endloop
endfacet
facet normal 0.16029332543164704 0.987069425026459 0.0
  outer loop
    vertex 2920.222837270444 716.1710058658764 66.7999999999886
    vertex 2918.662011138051 716.4244733574616 69.9749999999886
    vertex 2920.222837270444 716.1710058658764 69.9749999999886
  endloop
endfacet
facet normal -0.17963815525319723 0.9837327549579856 0.0
  outer loop
    vertex 2920.222837270444 716.1710058658764 69.9749999999886
    vertex 2921.7569826142494 716.4511541460495 66.7999999999886
    vertex 2920.222837270444 716.1710058658764 66.7999999999886
  endloop
endfacet
facet normal -0.17963815525319723 0.9837327549579856 0.0
  outer loop
    vertex 2921.7569826142494 716.4511541460495 66.7999999999886
    vertex 2920.222837270444 716.1710058658764 69.9749999999886
    vertex 2921.7569826142494 716.4511541460495 69.9749999999886
  endloop
endfacet
facet normal -0.5486564414868225 0.8360479108370626 0.0
  outer loop
    vertex 2921.7569826142494 716.4511541460495 69.9749999999886
    vertex 2923.037660466469 717.2915989865688 66.7999999999886
    vertex 2921.7569826142494 716.4511541460495 66.7999999999886
  endloop
endfacet
facet normal -0.5486564414868225 0.8360479108370626 0.0
  outer loop
    vertex 2923.037660466469 717.2915989865688 66.7999999999886
    vertex 2921.7569826142494 716.4511541460495 69.9749999999886
    vertex 2923.037660466469 717.2915989865688 69.9749999999886
  endloop
endfacet
facet normal -0.8502651466878618 0.5263546146162956 0.0
  outer loop
    vertex 2923.904786095576 718.6923403874345 69.9749999999886
    vertex 2923.037660466469 717.2915989865688 66.7999999999886
    vertex 2923.037660466469 717.2915989865688 69.9749999999886
  endloop
endfacet
facet normal -0.8502651466878618 0.5263546146162956 0.0
  outer loop
    vertex 2923.037660466469 717.2915989865688 66.7999999999886
    vertex 2923.904786095576 718.6923403874345 69.9749999999886
    vertex 2923.904786095576 718.6923403874345 66.7999999999886
  endloop
endfacet
facet normal -0.9869328807756821 0.16113189890215193 0.0
  outer loop
    vertex 2924.2249555586313 720.6533783486461 69.9749999999886
    vertex 2923.904786095576 718.6923403874345 66.7999999999886
    vertex 2923.904786095576 718.6923403874345 69.9749999999886
  endloop
endfacet
facet normal -0.9869328807756821 0.16113189890215193 0.0
  outer loop
    vertex 2923.904786095576 718.6923403874345 66.7999999999886
    vertex 2924.2249555586313 720.6533783486461 69.9749999999886
    vertex 2924.2249555586313 720.6533783486461 66.7999999999886
  endloop
endfacet
facet normal -0.9844747068648391 -0.17552649812318755 0.0
  outer loop
    vertex 2923.9181264898702 722.3742892125666 69.9749999999886
    vertex 2924.2249555586313 720.6533783486461 66.7999999999886
    vertex 2924.2249555586313 720.6533783486461 69.9749999999886
  endloop
endfacet
facet normal -0.9844747068648391 -0.17552649812318755 0.0
  outer loop
    vertex 2924.2249555586313 720.6533783486461 66.7999999999886
    vertex 2923.9181264898702 722.3742892125666 69.9749999999886
    vertex 2923.9181264898702 722.3742892125666 66.7999999999886
  endloop
endfacet
facet normal -0.8433208771591537 -0.5374103628955399 0.0
  outer loop
    vertex 2923.051000860763 723.7350094305502 69.9749999999886
    vertex 2923.9181264898702 722.3742892125666 66.7999999999886
    vertex 2923.9181264898702 722.3742892125666 69.9749999999886
  endloop
endfacet
facet normal -0.8433208771591537 -0.5374103628955399 0.0
  outer loop
    vertex 2923.9181264898702 722.3742892125666 66.7999999999886
    vertex 2923.051000860763 723.7350094305502 69.9749999999886
    vertex 2923.051000860763 723.7350094305502 66.7999999999886
  endloop
endfacet
facet normal -0.5527947436353551 -0.8333174493607596 0.0
  outer loop
    vertex 2923.051000860763 723.7350094305502 69.9749999999886
    vertex 2921.7036210370734 724.6288158482454 66.7999999999886
    vertex 2923.051000860763 723.7350094305502 66.7999999999886
  endloop
endfacet
facet normal -0.5527947436353551 -0.8333174493607596 0.0
  outer loop
    vertex 2921.7036210370734 724.6288158482454 66.7999999999886
    vertex 2923.051000860763 723.7350094305502 69.9749999999886
    vertex 2921.7036210370734 724.6288158482454 69.9749999999886
  endloop
endfacet
facet normal -0.18020679331720713 -0.9836287468564192 0.0
  outer loop
    vertex 2921.7036210370734 724.6288158482454 69.9749999999886
    vertex 2919.9560293845648 724.9489853113004 66.7999999999886
    vertex 2921.7036210370734 724.6288158482454 66.7999999999886
  endloop
endfacet
facet normal -0.18020679331720713 -0.9836287468564192 0.0
  outer loop
    vertex 2919.9560293845648 724.9489853113004 66.7999999999886
    vertex 2921.7036210370734 724.6288158482454 69.9749999999886
    vertex 2919.9560293845648 724.9489853113004 69.9749999999886
  endloop
endfacet
facet normal 0.11593161372780328 -0.9932571977783334 0.0
  outer loop
    vertex 2919.9560293845648 724.9489853113004 69.9749999999886
    vertex 2918.898802819934 724.8255872810745 66.7999999999886
    vertex 2919.9560293845648 724.9489853113004 66.7999999999886
  endloop
endfacet
facet normal 0.11593161372780328 -0.9932571977783334 0.0
  outer loop
    vertex 2918.898802819934 724.8255872810745 66.7999999999886
    vertex 2919.9560293845648 724.9489853113004 69.9749999999886
    vertex 2918.898802819934 724.8255872810745 69.9749999999886
  endloop
endfacet
facet normal 0.3696680894663197 -0.9291638733992629 0.0
  outer loop
    vertex 2918.898802819934 724.8255872810745 69.9749999999886
    vertex 2917.968310634765 724.4553907224239 66.7999999999886
    vertex 2918.898802819934 724.8255872810745 66.7999999999886
  endloop
endfacet
facet normal 0.3696680894663197 -0.9291638733992629 0.0
  outer loop
    vertex 2917.968310634765 724.4553907224239 66.7999999999886
    vertex 2918.898802819934 724.8255872810745 69.9749999999886
    vertex 2917.968310634765 724.4553907224239 69.9749999999886
  endloop
endfacet
facet normal 0.6447495957168103 -0.7643938505920947 0.0
  outer loop
    vertex 2917.968310634765 724.4553907224239 69.9749999999886
    vertex 2916.43416529096 723.1613724759101 66.7999999999886
    vertex 2917.968310634765 724.4553907224239 66.7999999999886
  endloop
endfacet
facet normal 0.6447495957168103 -0.7643938505920947 0.0
  outer loop
    vertex 2916.43416529096 723.1613724759101 66.7999999999886
    vertex 2917.968310634765 724.4553907224239 69.9749999999886
    vertex 2916.43416529096 723.1613724759101 69.9749999999886
  endloop
endfacet
facet normal -0.05471244670214148 -0.9985021523140876 0.0
  outer loop
    vertex 2916.43416529096 723.1613724759101 69.9749999999886
    vertex 2914.4864677240425 723.2680956302618 66.7999999999886
    vertex 2916.43416529096 723.1613724759101 66.7999999999886
  endloop
endfacet
facet normal -0.05471244670214148 -0.9985021523140876 0.0
  outer loop
    vertex 2914.4864677240425 723.2680956302618 66.7999999999886
    vertex 2916.43416529096 723.1613724759101 69.9749999999886
    vertex 2914.4864677240425 723.2680956302618 69.9749999999886
  endloop
endfacet
facet normal -0.984295048983789 0.17653117726339684 0.0
  outer loop
    vertex 2916.247399770845 733.0866258306144 69.9749999999886
    vertex 2914.4864677240425 723.2680956302618 66.7999999999886
    vertex 2914.4864677240425 723.2680956302618 69.9749999999886
  endloop
endfacet
facet normal -0.984295048983789 0.17653117726339684 0.0
  outer loop
    vertex 2914.4864677240425 723.2680956302618 66.7999999999886
    vertex 2916.247399770845 733.0866258306144 69.9749999999886
    vertex 2916.247399770845 733.0866258306144 66.7999999999886
  endloop
endfacet
facet normal 0.0 1.0 0.0
  outer loop
    vertex 2916.247399770845 733.0866258306144 69.9749999999886
    vertex 2925.585675776615 733.0866258306144 66.7999999999886
    vertex 2916.247399770845 733.0866258306144 66.7999999999886
  endloop
endfacet
facet normal 0.0 1.0 0.0
  outer loop
    vertex 2925.585675776615 733.0866258306144 66.7999999999886
    vertex 2916.247399770845 733.0866258306144 69.9749999999886
    vertex 2925.585675776615 733.0866258306144 69.9749999999886
  endloop
endfacet
endsolid box draft 1
