solid box draft 1
facet normal -3.1910562488671304e-14 0.9958932064677035 -0.09053574604252242
  outer loop
    vertex 2963.9983866630387 129.70553772662268 17.34999999999929
    vertex 2957.9983866630346 128.70553772662262 6.3500000000014065
    vertex 2957.9983866630387 129.70553772662268 17.350000000001412
  endloop
endfacet
facet normal -3.1910562488671304e-14 0.9958932064677035 -0.09053574604252242
  outer loop
    vertex 2957.9983866630346 128.70553772662262 6.3500000000014065
    vertex 2963.9983866630387 129.70553772662268 17.34999999999929
    vertex 2961.998386663035 128.70553772662262 6.349999999999994
  endloop
endfacet
facet normal 2.7956564864031647e-13 0.6087614290087782 0.7933533402911911
  outer loop
    vertex 2955.9983866630373 127.16013188122447 9.804594154603977
    vertex 2957.998386663036 126.88053772662268 10.019134295110439
    vertex 2957.998386663037 127.16013188122447 9.804594154603288
  endloop
endfacet
facet normal 2.7956564864031647e-13 0.6087614290087782 0.7933533402911911
  outer loop
    vertex 2957.998386663036 126.88053772662268 10.019134295110439
    vertex 2955.9983866630373 127.16013188122447 9.804594154603977
    vertex 2955.9983866630364 126.88053772662268 10.019134295111122
  endloop
endfacet
facet normal -2.1451826711360828e-13 -0.7933533402911526 -0.6087614290088285
  outer loop
    vertex 2955.9983866630355 125.03640343151362 8.175000000002075
    vertex 2957.998386663035 125.25094357202083 7.895405845399547
    vertex 2957.998386663035 125.03640343151362 8.175000000001386
  endloop
endfacet
facet normal -2.1451826711360828e-13 -0.7933533402911526 -0.6087614290088285
  outer loop
    vertex 2957.998386663035 125.25094357202083 7.895405845399547
    vertex 2955.9983866630355 125.03640343151362 8.175000000002075
    vertex 2955.9983866630355 125.25094357202083 7.895405845400247
  endloop
endfacet
facet normal 1.3485182019121963e-13 0.9238795325112835 0.3826834323650976
  outer loop
    vertex 2957.9983866630355 127.50953759211293 9.199405710889835
    vertex 2955.998386663036 127.37467202173168 9.525000000002128
    vertex 2957.9983866630355 127.37467202173168 9.525000000001441
  endloop
endfacet
facet normal 1.3485182019121963e-13 0.9238795325112835 0.3826834323650976
  outer loop
    vertex 2955.998386663036 127.37467202173168 9.525000000002128
    vertex 2957.9983866630355 127.50953759211293 9.199405710889835
    vertex 2955.998386663036 127.50953759211293 9.199405710890534
  endloop
endfacet
facet normal 3.255631127127051e-13 0.38268343236501595 0.9238795325113173
  outer loop
    vertex 2937.998386663036 126.88053772662268 10.019134295117437
    vertex 2939.998386663036 126.55494343751103 10.153999865497969
    vertex 2939.998386663036 126.88053772662268 10.019134295116727
  endloop
endfacet
facet normal 3.255631127127051e-13 0.38268343236501595 0.9238795325113173
  outer loop
    vertex 2939.998386663036 126.55494343751103 10.153999865497969
    vertex 2937.998386663036 126.88053772662268 10.019134295117437
    vertex 2937.998386663036 126.55494343751103 10.15399986549868
  endloop
endfacet
facet normal 1.3485182019114166e-13 -0.9238795325113752 0.3826834323648763
  outer loop
    vertex 2955.998386663036 125.03640343151362 9.525000000002095
    vertex 2957.9983866630355 124.90153786113245 9.1994057108898
    vertex 2957.9983866630355 125.03640343151362 9.525000000001407
  endloop
endfacet
facet normal 1.3485182019114166e-13 -0.9238795325113752 0.3826834323648763
  outer loop
    vertex 2957.9983866630355 124.90153786113245 9.1994057108898
    vertex 2955.998386663036 125.03640343151362 9.525000000002095
    vertex 2955.998386663036 124.90153786113245 9.1994057108905
  endloop
endfacet
facet normal 3.2556109321634254e-13 0.3826834323650298 0.9238795325113117
  outer loop
    vertex 2955.9983866630364 126.88053772662268 10.019134295111122
    vertex 2957.998386663036 126.55494343751103 10.153999865491686
    vertex 2957.998386663036 126.88053772662268 10.019134295110439
  endloop
endfacet
facet normal 3.2556109321634254e-13 0.3826834323650298 0.9238795325113117
  outer loop
    vertex 2957.998386663036 126.55494343751103 10.153999865491686
    vertex 2955.9983866630364 126.88053772662268 10.019134295111122
    vertex 2955.9983866630364 126.55494343751103 10.153999865492375
  endloop
endfacet
facet normal 3.4937008730478573e-13 -0.1305261922200822 0.9914448613738064
  outer loop
    vertex 2955.9983866630364 126.20553772662257 10.200000000002131
    vertex 2957.998386663036 125.85613201573419 10.153999865491675
    vertex 2957.998386663036 126.20553772662257 10.200000000001442
  endloop
endfacet
facet normal 3.4937008730478573e-13 -0.1305261922200822 0.9914448613738064
  outer loop
    vertex 2957.998386663036 125.85613201573419 10.153999865491675
    vertex 2955.9983866630364 126.20553772662257 10.200000000002131
    vertex 2955.9983866630364 125.85613201573419 10.153999865492365
  endloop
endfacet
facet normal 1.0 2.7728497005272203e-15 -3.4290792427782464e-13
  outer loop
    vertex 2969.1483866630388 118.77187409094529 17.349999999997475
    vertex 2969.1483866630406 112.42187409094528 22.34999999999748
    vertex 2969.148386663039 112.42187409094528 17.349999999997486
  endloop
endfacet
facet normal 1.0 2.7728497005272203e-15 -3.4290792427782464e-13
  outer loop
    vertex 2969.1483866630406 112.42187409094528 22.34999999999748
    vertex 2969.1483866630388 118.77187409094529 17.349999999997475
    vertex 2969.1483866630406 163.22187409094528 22.34999999999748
  endloop
endfacet
facet normal 1.0 2.7728497005272203e-15 -3.4290792427782464e-13
  outer loop
    vertex 2969.1483866630406 163.22187409094528 22.34999999999748
    vertex 2969.1483866630388 118.77187409094529 17.349999999997475
    vertex 2969.1483866630388 156.87187409094528 17.349999999997475
  endloop
endfacet
facet normal 1.0 2.7728497005272203e-15 -3.4290792427782464e-13
  outer loop
    vertex 2969.1483866630406 163.22187409094528 22.34999999999748
    vertex 2969.1483866630388 156.87187409094528 17.349999999997475
    vertex 2969.1483866630388 163.22187409094528 17.349999999997486
  endloop
endfacet
facet normal -3.1931990923484484e-14 -0.9958932064677035 -0.09053574604252242
  outer loop
    vertex 2957.9983866630346 123.7055377266226 6.3500000000014065
    vertex 2963.9983866630387 122.70553772662254 17.34999999999929
    vertex 2957.9983866630387 122.70553772662254 17.350000000001412
  endloop
endfacet
facet normal -3.1931990923484484e-14 -0.9958932064677035 -0.09053574604252242
  outer loop
    vertex 2963.9983866630387 122.70553772662254 17.34999999999929
    vertex 2957.9983866630346 123.7055377266226 6.3500000000014065
    vertex 2961.998386663035 123.7055377266226 6.349999999999994
  endloop
endfacet
facet normal -4.5995444576010676e-14 0.9914448613738073 -0.13052619222007678
  outer loop
    vertex 2939.998386663037 127.55553772662262 8.850000000007775
    vertex 2937.9983866630355 127.50953759211285 8.500594289120087
    vertex 2937.998386663037 127.55553772662262 8.850000000008485
  endloop
endfacet
facet normal -4.5995444576010676e-14 0.9914448613738073 -0.13052619222007678
  outer loop
    vertex 2937.9983866630355 127.50953759211285 8.500594289120087
    vertex 2939.998386663037 127.55553772662262 8.850000000007775
    vertex 2939.9983866630355 127.50953759211285 8.500594289119377
  endloop
endfacet
facet normal 0.9838699100998404 1.8261848323668632e-17 -0.17888543820035302
  outer loop
    vertex 2943.9983866630346 123.7055377266226 6.350000000006336
    vertex 2945.998386663039 129.70553772662268 17.350000000005622
    vertex 2945.998386663039 122.70553772662254 17.350000000005622
  endloop
endfacet
facet normal 0.9838699100998404 1.8261848323668632e-17 -0.17888543820035302
  outer loop
    vertex 2945.998386663039 129.70553772662268 17.350000000005622
    vertex 2943.9983866630346 123.7055377266226 6.350000000006336
    vertex 2943.9983866630346 128.70553772662262 6.350000000006336
  endloop
endfacet
facet normal -2.1451826711360013e-13 0.7933533402911553 -0.6087614290088246
  outer loop
    vertex 2939.9983866630355 127.37467202173168 8.175000000007783
    vertex 2937.9983866630355 127.16013188122447 7.895405845406653
    vertex 2937.9983866630355 127.37467202173168 8.175000000008493
  endloop
endfacet
facet normal -2.1451826711360013e-13 0.7933533402911553 -0.6087614290088246
  outer loop
    vertex 2937.9983866630355 127.16013188122447 7.895405845406653
    vertex 2939.9983866630355 127.37467202173168 8.175000000007783
    vertex 2939.9983866630355 127.16013188122447 7.895405845405943
  endloop
endfacet
facet normal -1.0 -9.848001905883875e-29 3.609557097661304e-13
  outer loop
    vertex 2939.9983866630405 151.70553772662262 22.350000000007775
    vertex 2939.9983866630387 123.7055377266226 17.350000000007736
    vertex 2939.9983866630405 123.7055377266226 22.350000000007775
  endloop
endfacet
facet normal -1.0 -9.848001905883875e-29 3.609557097661304e-13
  outer loop
    vertex 2939.9983866630387 123.7055377266226 17.350000000007736
    vertex 2939.9983866630405 151.70553772662262 22.350000000007775
    vertex 2939.9983866630387 129.70553772662268 17.350000000007736
  endloop
endfacet
facet normal -1.0 -9.848001905883875e-29 3.609557097661304e-13
  outer loop
    vertex 2939.9983866630387 123.7055377266226 17.350000000007736
    vertex 2939.9983866630387 129.70553772662268 17.350000000007736
    vertex 2939.9983866630355 125.03640343151362 9.525000000007724
  endloop
endfacet
facet normal -1.0 -9.848001905883875e-29 3.609557097661304e-13
  outer loop
    vertex 2939.9983866630387 123.7055377266226 17.350000000007736
    vertex 2939.9983866630355 125.03640343151362 9.525000000007724
    vertex 2939.998386663035 123.7055377266226 6.350000000007746
  endloop
endfacet
facet normal -1.0 -9.848001905883875e-29 3.609557097661304e-13
  outer loop
    vertex 2939.998386663035 123.7055377266226 6.350000000007746
    vertex 2939.9983866630355 125.03640343151362 9.525000000007724
    vertex 2939.9983866630355 124.90153786113245 9.199405710896128
  endloop
endfacet
facet normal -1.0 -9.848001905883875e-29 3.609557097661304e-13
  outer loop
    vertex 2939.998386663035 123.7055377266226 6.350000000007746
    vertex 2939.9983866630355 124.90153786113245 9.199405710896128
    vertex 2939.998386663037 124.85553772662269 8.85000000000773
  endloop
endfacet
facet normal -1.0 -9.848001905883875e-29 3.609557097661304e-13
  outer loop
    vertex 2939.9983866630355 125.03640343151362 9.525000000007724
    vertex 2939.9983866630387 129.70553772662268 17.350000000007736
    vertex 2939.998386663037 125.25094357202074 9.804594154609543
  endloop
endfacet
facet normal -1.0 -9.848001905883875e-29 3.609557097661304e-13
  outer loop
    vertex 2939.998386663037 125.25094357202074 9.804594154609543
    vertex 2939.9983866630387 129.70553772662268 17.350000000007736
    vertex 2939.998386663036 125.53053772662263 10.019134295116704
  endloop
endfacet
facet normal -1.0 -9.848001905883875e-29 3.609557097661304e-13
  outer loop
    vertex 2939.998386663036 125.53053772662263 10.019134295116704
    vertex 2939.9983866630387 129.70553772662268 17.350000000007736
    vertex 2939.998386663036 125.85613201573419 10.153999865497958
  endloop
endfacet
facet normal -1.0 -9.848001905883875e-29 3.609557097661304e-13
  outer loop
    vertex 2939.998386663036 125.85613201573419 10.153999865497958
    vertex 2939.9983866630387 129.70553772662268 17.350000000007736
    vertex 2939.998386663036 126.20553772662265 10.20000000000772
  endloop
endfacet
facet normal -1.0 -9.848001905883875e-29 3.609557097661304e-13
  outer loop
    vertex 2939.998386663036 126.20553772662265 10.20000000000772
    vertex 2939.9983866630387 129.70553772662268 17.350000000007736
    vertex 2939.998386663036 126.55494343751103 10.153999865497969
  endloop
endfacet
facet normal -1.0 -9.848001905883875e-29 3.609557097661304e-13
  outer loop
    vertex 2939.998386663036 126.55494343751103 10.153999865497969
    vertex 2939.9983866630387 129.70553772662268 17.350000000007736
    vertex 2939.998386663036 126.88053772662268 10.019134295116727
  endloop
endfacet
facet normal -1.0 -9.848001905883875e-29 3.609557097661304e-13
  outer loop
    vertex 2939.998386663036 126.88053772662268 10.019134295116727
    vertex 2939.9983866630387 129.70553772662268 17.350000000007736
    vertex 2939.998386663037 127.16013188122447 9.804594154609582
  endloop
endfacet
facet normal -1.0 -9.848001905883875e-29 3.609557097661304e-13
  outer loop
    vertex 2939.998386663037 127.16013188122447 9.804594154609582
    vertex 2939.9983866630387 129.70553772662268 17.350000000007736
    vertex 2939.9983866630355 127.3746720217316 9.525000000007768
  endloop
endfacet
facet normal -1.0 -9.848001905883875e-29 3.609557097661304e-13
  outer loop
    vertex 2939.9983866630355 127.3746720217316 9.525000000007768
    vertex 2939.9983866630387 129.70553772662268 17.350000000007736
    vertex 2939.9983866630355 127.50953759211285 9.199405710896174
  endloop
endfacet
facet normal -1.0 -9.848001905883875e-29 3.609557097661304e-13
  outer loop
    vertex 2939.9983866630355 127.50953759211285 9.199405710896174
    vertex 2939.9983866630387 129.70553772662268 17.350000000007736
    vertex 2939.998386663037 127.55553772662262 8.850000000007775
  endloop
endfacet
facet normal -1.0 -9.848001905883875e-29 3.609557097661304e-13
  outer loop
    vertex 2939.998386663037 127.55553772662262 8.850000000007775
    vertex 2939.9983866630387 129.70553772662268 17.350000000007736
    vertex 2939.998386663035 128.70553772662262 6.350000000007746
  endloop
endfacet
facet normal -1.0 -9.848001905883875e-29 3.609557097661304e-13
  outer loop
    vertex 2939.9983866630387 129.70553772662268 17.350000000007736
    vertex 2939.9983866630405 151.70553772662262 22.350000000007775
    vertex 2939.9983866630405 151.70553772662262 21.35000000000778
  endloop
endfacet
facet normal -1.0 -9.848001905883875e-29 3.609557097661304e-13
  outer loop
    vertex 2939.9983866630387 129.70553772662268 17.350000000007736
    vertex 2939.9983866630405 151.70553772662262 21.35000000000778
    vertex 2939.9983866630387 153.70553772662262 17.350000000007736
  endloop
endfacet
facet normal -1.0 -9.848001905883875e-29 3.609557097661304e-13
  outer loop
    vertex 2939.998386663035 123.7055377266226 6.350000000007746
    vertex 2939.9983866630423 125.53053772662263 7.680865704898754
    vertex 2939.998386663035 128.70553772662262 6.350000000007746
  endloop
endfacet
facet normal -1.0 -9.848001905883875e-29 3.609557097661304e-13
  outer loop
    vertex 2939.9983866630423 125.53053772662263 7.680865704898754
    vertex 2939.998386663035 123.7055377266226 6.350000000007746
    vertex 2939.9983866630355 125.25094357202083 7.895405845405909
  endloop
endfacet
facet normal -1.0 -9.848001905883875e-29 3.609557097661304e-13
  outer loop
    vertex 2939.9983866630355 125.25094357202083 7.895405845405909
    vertex 2939.998386663035 123.7055377266226 6.350000000007746
    vertex 2939.9983866630355 125.0364034315137 8.175000000007737
  endloop
endfacet
facet normal -1.0 -9.848001905883875e-29 3.609557097661304e-13
  outer loop
    vertex 2939.9983866630355 125.0364034315137 8.175000000007737
    vertex 2939.998386663035 123.7055377266226 6.350000000007746
    vertex 2939.9983866630355 124.90153786113245 8.500594289119332
  endloop
endfacet
facet normal -1.0 -9.848001905883875e-29 3.609557097661304e-13
  outer loop
    vertex 2939.9983866630355 124.90153786113245 8.500594289119332
    vertex 2939.998386663035 123.7055377266226 6.350000000007746
    vertex 2939.998386663037 124.85553772662269 8.85000000000773
  endloop
endfacet
facet normal -1.0 -9.848001905883875e-29 3.609557097661304e-13
  outer loop
    vertex 2939.998386663035 128.70553772662262 6.350000000007746
    vertex 2939.9983866630423 125.53053772662263 7.680865704898754
    vertex 2939.9983866630423 125.85613201573427 7.54600013451751
  endloop
endfacet
facet normal -1.0 -9.848001905883875e-29 3.609557097661304e-13
  outer loop
    vertex 2939.998386663035 128.70553772662262 6.350000000007746
    vertex 2939.9983866630423 125.85613201573427 7.54600013451751
    vertex 2939.9983866630355 126.20553772662265 7.500000000007766
  endloop
endfacet
facet normal -1.0 -9.848001905883875e-29 3.609557097661304e-13
  outer loop
    vertex 2939.998386663035 128.70553772662262 6.350000000007746
    vertex 2939.9983866630355 126.20553772662265 7.500000000007766
    vertex 2939.9983866630423 126.55494343751111 7.546000134517522
  endloop
endfacet
facet normal -1.0 -9.848001905883875e-29 3.609557097661304e-13
  outer loop
    vertex 2939.998386663035 128.70553772662262 6.350000000007746
    vertex 2939.9983866630423 126.55494343751111 7.546000134517522
    vertex 2939.9983866630423 126.88053772662268 7.6808657048987765
  endloop
endfacet
facet normal -1.0 -9.848001905883875e-29 3.609557097661304e-13
  outer loop
    vertex 2939.998386663035 128.70553772662262 6.350000000007746
    vertex 2939.9983866630423 126.88053772662268 7.6808657048987765
    vertex 2939.9983866630355 127.16013188122447 7.895405845405943
  endloop
endfacet
facet normal -1.0 -9.848001905883875e-29 3.609557097661304e-13
  outer loop
    vertex 2939.998386663035 128.70553772662262 6.350000000007746
    vertex 2939.9983866630355 127.16013188122447 7.895405845405943
    vertex 2939.9983866630355 127.37467202173168 8.175000000007783
  endloop
endfacet
facet normal -1.0 -9.848001905883875e-29 3.609557097661304e-13
  outer loop
    vertex 2939.998386663035 128.70553772662262 6.350000000007746
    vertex 2939.9983866630355 127.37467202173168 8.175000000007783
    vertex 2939.9983866630355 127.50953759211285 8.500594289119377
  endloop
endfacet
facet normal -1.0 -9.848001905883875e-29 3.609557097661304e-13
  outer loop
    vertex 2939.998386663035 128.70553772662262 6.350000000007746
    vertex 2939.9983866630355 127.50953759211285 8.500594289119377
    vertex 2939.998386663037 127.55553772662262 8.850000000007775
  endloop
endfacet
facet normal -1.0 -9.848001905883875e-29 3.609557097661304e-13
  outer loop
    vertex 2939.998386663035 123.7055377266226 6.350000000007746
    vertex 2939.9983866630387 122.70553772662254 17.350000000007736
    vertex 2939.9983866630387 123.7055377266226 17.350000000007736
  endloop
endfacet
facet normal -3.2556109321634305e-13 -0.38268343236502633 -0.923879532511313
  outer loop
    vertex 2955.9983866630428 125.53053772662263 7.680865704893091
    vertex 2957.9983866630423 125.85613201573427 7.546000134511149
    vertex 2957.9983866630423 125.53053772662263 7.680865704892392
  endloop
endfacet
facet normal -3.2556109321634305e-13 -0.38268343236502633 -0.923879532511313
  outer loop
    vertex 2957.9983866630423 125.85613201573427 7.546000134511149
    vertex 2955.9983866630428 125.53053772662263 7.680865704893091
    vertex 2955.9983866630428 125.85613201573427 7.546000134511837
  endloop
endfacet
facet normal 2.1451826711360553e-13 0.7933533402911583 0.6087614290088207
  outer loop
    vertex 2957.9983866630355 127.37467202173168 9.525000000001441
    vertex 2955.9983866630373 127.16013188122447 9.804594154603977
    vertex 2957.998386663037 127.16013188122447 9.804594154603288
  endloop
endfacet
facet normal 2.1451826711360553e-13 0.7933533402911583 0.6087614290088207
  outer loop
    vertex 2955.9983866630373 127.16013188122447 9.804594154603977
    vertex 2957.9983866630355 127.37467202173168 9.525000000001441
    vertex 2955.998386663036 127.37467202173168 9.525000000002128
  endloop
endfacet
facet normal 2.7956564864031167e-13 -0.6087614290087957 0.7933533402911775
  outer loop
    vertex 2957.998386663036 125.53053772662263 10.01913429511042
    vertex 2955.9983866630373 125.25094357202083 9.804594154603944
    vertex 2957.998386663037 125.25094357202083 9.80459415460326
  endloop
endfacet
facet normal 2.7956564864031167e-13 -0.6087614290087957 0.7933533402911775
  outer loop
    vertex 2955.9983866630373 125.25094357202083 9.804594154603944
    vertex 2957.998386663036 125.53053772662263 10.01913429511042
    vertex 2955.9983866630364 125.53053772662263 10.01913429511111
  endloop
endfacet
facet normal -1.5631344635977877e-13 -0.8944271909999171 -0.4472135954999556
  outer loop
    vertex 2929.4983866630405 151.70553772662262 21.350000000011423
    vertex 2939.9983866630387 153.70553772662262 17.350000000007736
    vertex 2939.9983866630405 151.70553772662262 21.35000000000778
  endloop
endfacet
facet normal -1.5631344635977877e-13 -0.8944271909999171 -0.4472135954999556
  outer loop
    vertex 2939.9983866630387 153.70553772662262 17.350000000007736
    vertex 2929.4983866630405 151.70553772662262 21.350000000011423
    vertex 2929.498386663039 153.70553772662262 17.350000000011427
  endloop
endfacet
facet normal 4.599544457601102e-14 0.991444861373807 0.13052619222007783
  outer loop
    vertex 2939.9983866630355 127.50953759211285 9.199405710896174
    vertex 2937.998386663037 127.55553772662262 8.850000000008485
    vertex 2937.998386663036 127.50953759211285 9.199405710896885
  endloop
endfacet
facet normal 4.599544457601102e-14 0.991444861373807 0.13052619222007783
  outer loop
    vertex 2937.998386663037 127.55553772662262 8.850000000008485
    vertex 2939.9983866630355 127.50953759211285 9.199405710896174
    vertex 2939.998386663037 127.55553772662262 8.850000000007775
  endloop
endfacet
facet normal 3.493700873047864e-13 0.13052619222004283 0.9914448613738116
  outer loop
    vertex 2937.998386663036 126.55494343751103 10.15399986549868
    vertex 2939.998386663036 126.20553772662265 10.20000000000772
    vertex 2939.998386663036 126.55494343751103 10.153999865497969
  endloop
endfacet
facet normal 3.493700873047864e-13 0.13052619222004283 0.9914448613738116
  outer loop
    vertex 2939.998386663036 126.20553772662265 10.20000000000772
    vertex 2937.998386663036 126.55494343751103 10.15399986549868
    vertex 2937.998386663036 126.20553772662265 10.20000000000843
  endloop
endfacet
facet normal 3.255610932163269e-13 -0.38268343236513735 0.9238795325112672
  outer loop
    vertex 2937.998386663036 125.85613201573419 10.153999865498669
    vertex 2939.998386663036 125.53053772662263 10.019134295116704
    vertex 2939.998386663036 125.85613201573419 10.153999865497958
  endloop
endfacet
facet normal 3.255610932163269e-13 -0.38268343236513735 0.9238795325112672
  outer loop
    vertex 2939.998386663036 125.53053772662263 10.019134295116704
    vertex 2937.998386663036 125.85613201573419 10.153999865498669
    vertex 2937.998386663036 125.53053772662263 10.019134295117414
  endloop
endfacet
facet normal -2.1451826711355285e-13 -0.7933533402912731 -0.6087614290086711
  outer loop
    vertex 2937.9983866630355 125.25094357202083 7.89540584540662
    vertex 2939.9983866630355 125.0364034315137 8.175000000007737
    vertex 2937.9983866630355 125.0364034315137 8.17500000000846
  endloop
endfacet
facet normal -2.1451826711355285e-13 -0.7933533402912731 -0.6087614290086711
  outer loop
    vertex 2939.9983866630355 125.0364034315137 8.175000000007737
    vertex 2937.9983866630355 125.25094357202083 7.89540584540662
    vertex 2939.9983866630355 125.25094357202083 7.895405845405909
  endloop
endfacet
facet normal 2.1451826711355363e-13 0.7933533402912716 0.6087614290086731
  outer loop
    vertex 2939.998386663037 127.16013188122447 9.804594154609582
    vertex 2937.998386663036 127.3746720217316 9.525000000008479
    vertex 2937.9983866630373 127.16013188122447 9.804594154610292
  endloop
endfacet
facet normal 2.1451826711355363e-13 0.7933533402912716 0.6087614290086731
  outer loop
    vertex 2937.998386663036 127.3746720217316 9.525000000008479
    vertex 2939.998386663037 127.16013188122447 9.804594154609582
    vertex 2939.9983866630355 127.3746720217316 9.525000000007768
  endloop
endfacet
facet normal 0.0 1.0 0.0
  outer loop
    vertex 2969.1483866630388 163.22187409094528 17.349999999997486
    vertex 2918.3483866630404 163.22187409094528 22.350000000015378
    vertex 2969.1483866630406 163.22187409094528 22.34999999999748
  endloop
endfacet
facet normal 0.0 1.0 0.0
  outer loop
    vertex 2918.3483866630404 163.22187409094528 22.350000000015378
    vertex 2969.1483866630388 163.22187409094528 17.349999999997486
    vertex 2918.348386663039 163.22187409094528 17.350000000015378
  endloop
endfacet
facet normal 0.0 1.0 0.0
  outer loop
    vertex 2918.348386663039 163.22187409094528 17.350000000015378
    vertex 2969.1483866630388 163.22187409094528 17.349999999997486
    vertex 2962.798386663039 163.22187409094528 17.349999999999714
  endloop
endfacet
facet normal 0.0 1.0 0.0
  outer loop
    vertex 2918.348386663039 163.22187409094528 17.350000000015378
    vertex 2962.798386663039 163.22187409094528 17.349999999999714
    vertex 2924.698386663039 163.22187409094528 17.350000000013132
  endloop
endfacet
facet normal 1.0 7.002856682574357e-30 -3.609557097661309e-13
  outer loop
    vertex 2947.4983866630387 153.70553772662262 17.350000000005107
    vertex 2947.4983866630405 123.7055377266226 22.350000000005103
    vertex 2947.4983866630387 123.7055377266226 17.350000000005107
  endloop
endfacet
facet normal 1.0 7.002856682574357e-30 -3.609557097661309e-13
  outer loop
    vertex 2947.4983866630405 123.7055377266226 22.350000000005103
    vertex 2947.4983866630387 153.70553772662262 17.350000000005107
    vertex 2947.49838666304 151.70553772662262 21.350000000005103
  endloop
endfacet
facet normal 1.0 7.002856682574357e-30 -3.609557097661309e-13
  outer loop
    vertex 2947.4983866630405 151.70553772662262 22.350000000005103
    vertex 2947.4983866630405 123.7055377266226 22.350000000005103
    vertex 2947.49838666304 151.70553772662262 21.350000000005103
  endloop
endfacet
facet normal -1.0 -8.318549101581708e-15 2.707167823245972e-13
  outer loop
    vertex 2918.3483866630404 163.22187409094528 22.350000000015378
    vertex 2918.3483866630404 112.42187409094528 17.350000000015353
    vertex 2918.3483866630404 112.42187409094528 22.350000000015378
  endloop
endfacet
facet normal -1.0 -8.318549101581708e-15 2.707167823245972e-13
  outer loop
    vertex 2918.3483866630404 112.42187409094528 17.350000000015353
    vertex 2918.3483866630404 163.22187409094528 22.350000000015378
    vertex 2918.3483866630386 118.77187409094529 17.350000000015378
  endloop
endfacet
facet normal -1.0 -8.318549101581708e-15 2.707167823245972e-13
  outer loop
    vertex 2918.3483866630386 118.77187409094529 17.350000000015378
    vertex 2918.3483866630404 163.22187409094528 22.350000000015378
    vertex 2918.3483866630386 156.87187409094528 17.350000000015378
  endloop
endfacet
facet normal -1.0 -8.318549101581708e-15 2.707167823245972e-13
  outer loop
    vertex 2918.3483866630386 156.87187409094528 17.350000000015378
    vertex 2918.3483866630404 163.22187409094528 22.350000000015378
    vertex 2918.348386663039 163.22187409094528 17.350000000015378
  endloop
endfacet
facet normal -1.0 0.0 3.523847880160247e-13
  outer loop
    vertex 2937.998386663036 124.90153786113245 9.199405710896839
    vertex 2937.9983866630355 124.90153786113245 8.500594289120043
    vertex 2937.998386663037 124.85553772662269 8.850000000008441
  endloop
endfacet
facet normal -1.0 0.0 3.523847880160247e-13
  outer loop
    vertex 2937.9983866630355 124.90153786113245 8.500594289120043
    vertex 2937.998386663036 124.90153786113245 9.199405710896839
    vertex 2937.998386663036 125.03640343151362 9.525000000008434
  endloop
endfacet
facet normal -1.0 0.0 3.523847880160247e-13
  outer loop
    vertex 2937.9983866630355 124.90153786113245 8.500594289120043
    vertex 2937.998386663036 125.03640343151362 9.525000000008434
    vertex 2937.9983866630355 125.0364034315137 8.17500000000846
  endloop
endfacet
facet normal -1.0 0.0 3.523847880160247e-13
  outer loop
    vertex 2937.9983866630355 125.0364034315137 8.17500000000846
    vertex 2937.998386663036 125.03640343151362 9.525000000008434
    vertex 2937.9983866630373 125.25094357202074 9.804594154610253
  endloop
endfacet
facet normal -1.0 0.0 3.523847880160247e-13
  outer loop
    vertex 2937.9983866630355 125.0364034315137 8.17500000000846
    vertex 2937.9983866630373 125.25094357202074 9.804594154610253
    vertex 2937.9983866630355 125.25094357202083 7.89540584540662
  endloop
endfacet
facet normal -1.0 0.0 3.523847880160247e-13
  outer loop
    vertex 2937.9983866630355 125.25094357202083 7.89540584540662
    vertex 2937.9983866630373 125.25094357202074 9.804594154610253
    vertex 2937.998386663036 125.53053772662263 10.019134295117414
  endloop
endfacet
facet normal -1.0 0.0 3.523847880160247e-13
  outer loop
    vertex 2937.9983866630355 125.25094357202083 7.89540584540662
    vertex 2937.998386663036 125.53053772662263 10.019134295117414
    vertex 2937.9983866630428 125.53053772662263 7.6808657048994755
  endloop
endfacet
facet normal -1.0 0.0 3.523847880160247e-13
  outer loop
    vertex 2937.9983866630428 125.53053772662263 7.6808657048994755
    vertex 2937.998386663036 125.53053772662263 10.019134295117414
    vertex 2937.998386663036 125.85613201573419 10.153999865498669
  endloop
endfacet
facet normal -1.0 0.0 3.523847880160247e-13
  outer loop
    vertex 2937.9983866630428 125.53053772662263 7.6808657048994755
    vertex 2937.998386663036 125.85613201573419 10.153999865498669
    vertex 2937.9983866630428 125.85613201573427 7.546000134518232
  endloop
endfacet
facet normal -1.0 0.0 3.523847880160247e-13
  outer loop
    vertex 2937.9983866630428 125.85613201573427 7.546000134518232
    vertex 2937.998386663036 125.85613201573419 10.153999865498669
    vertex 2937.998386663036 126.20553772662265 10.20000000000843
  endloop
endfacet
facet normal -1.0 0.0 3.523847880160247e-13
  outer loop
    vertex 2937.9983866630428 125.85613201573427 7.546000134518232
    vertex 2937.998386663036 126.20553772662265 10.20000000000843
    vertex 2937.998386663035 126.20553772662265 7.500000000008477
  endloop
endfacet
facet normal -1.0 0.0 3.523847880160247e-13
  outer loop
    vertex 2937.998386663035 126.20553772662265 7.500000000008477
    vertex 2937.998386663036 126.20553772662265 10.20000000000843
    vertex 2937.998386663036 126.55494343751103 10.15399986549868
  endloop
endfacet
facet normal -1.0 0.0 3.523847880160247e-13
  outer loop
    vertex 2937.998386663035 126.20553772662265 7.500000000008477
    vertex 2937.998386663036 126.55494343751103 10.15399986549868
    vertex 2937.9983866630428 126.55494343751111 7.546000134518244
  endloop
endfacet
facet normal -1.0 0.0 3.523847880160247e-13
  outer loop
    vertex 2937.9983866630428 126.55494343751111 7.546000134518244
    vertex 2937.998386663036 126.55494343751103 10.15399986549868
    vertex 2937.998386663036 126.88053772662268 10.019134295117437
  endloop
endfacet
facet normal -1.0 0.0 3.523847880160247e-13
  outer loop
    vertex 2937.9983866630428 126.55494343751111 7.546000134518244
    vertex 2937.998386663036 126.88053772662268 10.019134295117437
    vertex 2937.9983866630428 126.88053772662268 7.680865704899499
  endloop
endfacet
facet normal -1.0 0.0 3.523847880160247e-13
  outer loop
    vertex 2937.9983866630428 126.88053772662268 7.680865704899499
    vertex 2937.998386663036 126.88053772662268 10.019134295117437
    vertex 2937.9983866630373 127.16013188122447 9.804594154610292
  endloop
endfacet
facet normal -1.0 0.0 3.523847880160247e-13
  outer loop
    vertex 2937.9983866630428 126.88053772662268 7.680865704899499
    vertex 2937.9983866630373 127.16013188122447 9.804594154610292
    vertex 2937.9983866630355 127.16013188122447 7.895405845406653
  endloop
endfacet
facet normal -1.0 0.0 3.523847880160247e-13
  outer loop
    vertex 2937.9983866630355 127.16013188122447 7.895405845406653
    vertex 2937.9983866630373 127.16013188122447 9.804594154610292
    vertex 2937.998386663036 127.3746720217316 9.525000000008479
  endloop
endfacet
facet normal -1.0 0.0 3.523847880160247e-13
  outer loop
    vertex 2937.9983866630355 127.16013188122447 7.895405845406653
    vertex 2937.998386663036 127.3746720217316 9.525000000008479
    vertex 2937.9983866630355 127.37467202173168 8.175000000008493
  endloop
endfacet
facet normal -1.0 0.0 3.523847880160247e-13
  outer loop
    vertex 2937.9983866630355 127.37467202173168 8.175000000008493
    vertex 2937.998386663036 127.3746720217316 9.525000000008479
    vertex 2937.998386663036 127.50953759211285 9.199405710896885
  endloop
endfacet
facet normal -1.0 0.0 3.523847880160247e-13
  outer loop
    vertex 2937.9983866630355 127.37467202173168 8.175000000008493
    vertex 2937.998386663036 127.50953759211285 9.199405710896885
    vertex 2937.9983866630355 127.50953759211285 8.500594289120087
  endloop
endfacet
facet normal -1.0 0.0 3.523847880160247e-13
  outer loop
    vertex 2937.9983866630355 127.50953759211285 8.500594289120087
    vertex 2937.998386663036 127.50953759211285 9.199405710896885
    vertex 2937.998386663037 127.55553772662262 8.850000000008485
  endloop
endfacet
facet normal -3.493700873047888e-13 -0.13052619222003892 -0.991444861373812
  outer loop
    vertex 2937.9983866630428 125.85613201573427 7.546000134518232
    vertex 2939.9983866630355 126.20553772662265 7.500000000007766
    vertex 2939.9983866630423 125.85613201573427 7.54600013451751
  endloop
endfacet
facet normal -3.493700873047888e-13 -0.13052619222003892 -0.991444861373812
  outer loop
    vertex 2939.9983866630355 126.20553772662265 7.500000000007766
    vertex 2937.9983866630428 125.85613201573427 7.546000134518232
    vertex 2937.998386663035 126.20553772662265 7.500000000008477
  endloop
endfacet
facet normal -3.190341967706691e-14 0.9958932064677035 -0.09053574604252243
  outer loop
    vertex 2943.9983866630346 128.70553772662262 6.350000000006336
    vertex 2939.9983866630387 129.70553772662268 17.350000000007736
    vertex 2945.998386663039 129.70553772662268 17.350000000005622
  endloop
endfacet
facet normal -3.190341967706691e-14 0.9958932064677035 -0.09053574604252243
  outer loop
    vertex 2939.9983866630387 129.70553772662268 17.350000000007736
    vertex 2943.9983866630346 128.70553772662262 6.350000000006336
    vertex 2939.998386663035 128.70553772662262 6.350000000007746
  endloop
endfacet
facet normal 4.5995444576098625e-14 -0.9914448613737743 0.13052619222032644
  outer loop
    vertex 2955.998386663036 124.90153786113245 9.1994057108905
    vertex 2957.9983866630364 124.8555377266226 8.85000000000139
    vertex 2957.9983866630355 124.90153786113245 9.1994057108898
  endloop
endfacet
facet normal 4.5995444576098625e-14 -0.9914448613737743 0.13052619222032644
  outer loop
    vertex 2957.9983866630364 124.8555377266226 8.85000000000139
    vertex 2955.998386663036 124.90153786113245 9.1994057108905
    vertex 2955.998386663037 124.8555377266226 8.85000000000209
  endloop
endfacet
facet normal -1.3485182019114067e-13 0.9238795325113763 -0.3826834323648735
  outer loop
    vertex 2957.998386663035 127.37467202173168 8.17500000000142
    vertex 2955.9983866630355 127.50953759211285 8.500594289113714
    vertex 2957.998386663035 127.50953759211285 8.500594289113026
  endloop
endfacet
facet normal -1.3485182019114067e-13 0.9238795325113763 -0.3826834323648735
  outer loop
    vertex 2955.9983866630355 127.50953759211285 8.500594289113714
    vertex 2957.998386663035 127.37467202173168 8.17500000000142
    vertex 2955.9983866630355 127.37467202173168 8.17500000000211
  endloop
endfacet
facet normal -3.493700873047878e-13 0.13052619222003722 -0.9914448613738123
  outer loop
    vertex 2939.9983866630355 126.20553772662265 7.500000000007766
    vertex 2937.9983866630428 126.55494343751111 7.546000134518244
    vertex 2939.9983866630423 126.55494343751111 7.546000134517522
  endloop
endfacet
facet normal -3.493700873047878e-13 0.13052619222003722 -0.9914448613738123
  outer loop
    vertex 2937.9983866630428 126.55494343751111 7.546000134518244
    vertex 2939.9983866630355 126.20553772662265 7.500000000007766
    vertex 2937.998386663035 126.20553772662265 7.500000000008477
  endloop
endfacet
facet normal 0.0 -1.0 0.0
  outer loop
    vertex 2947.4983866630405 151.70553772662262 22.350000000005103
    vertex 2957.99838666304 151.70553772662262 21.350000000001412
    vertex 2957.9983866630405 151.70553772662262 22.35000000000141
  endloop
endfacet
facet normal 0.0 -1.0 0.0
  outer loop
    vertex 2957.99838666304 151.70553772662262 21.350000000001412
    vertex 2947.4983866630405 151.70553772662262 22.350000000005103
    vertex 2947.49838666304 151.70553772662262 21.350000000005103
  endloop
endfacet
facet normal 3.493700873047875e-13 -0.13052619222004513 0.9914448613738114
  outer loop
    vertex 2937.998386663036 126.20553772662265 10.20000000000843
    vertex 2939.998386663036 125.85613201573419 10.153999865497958
    vertex 2939.998386663036 126.20553772662265 10.20000000000772
  endloop
endfacet
facet normal 3.493700873047875e-13 -0.13052619222004513 0.9914448613738114
  outer loop
    vertex 2939.998386663036 125.85613201573419 10.153999865497958
    vertex 2937.998386663036 126.20553772662265 10.20000000000843
    vertex 2937.998386663036 125.85613201573419 10.153999865498669
  endloop
endfacet
facet normal -1.3485182019114463e-13 0.9238795325113717 -0.3826834323648848
  outer loop
    vertex 2939.9983866630355 127.50953759211285 8.500594289119377
    vertex 2937.9983866630355 127.37467202173168 8.175000000008493
    vertex 2937.9983866630355 127.50953759211285 8.500594289120087
  endloop
endfacet
facet normal -1.3485182019114463e-13 0.9238795325113717 -0.3826834323648848
  outer loop
    vertex 2937.9983866630355 127.37467202173168 8.175000000008493
    vertex 2939.9983866630355 127.50953759211285 8.500594289119377
    vertex 2939.9983866630355 127.37467202173168 8.175000000007783
  endloop
endfacet
facet normal 0.0 1.0 0.0
  outer loop
    vertex 2957.9983866630387 123.7055377266226 17.350000000001412
    vertex 2947.4983866630405 123.7055377266226 22.350000000005103
    vertex 2957.9983866630405 123.7055377266226 22.35000000000141
  endloop
endfacet
facet normal 0.0 1.0 0.0
  outer loop
    vertex 2947.4983866630405 123.7055377266226 22.350000000005103
    vertex 2957.9983866630387 123.7055377266226 17.350000000001412
    vertex 2947.4983866630387 123.7055377266226 17.350000000005107
  endloop
endfacet
facet normal 2.795656486403185e-13 0.6087614290087706 0.7933533402911969
  outer loop
    vertex 2937.9983866630373 127.16013188122447 9.804594154610292
    vertex 2939.998386663036 126.88053772662268 10.019134295116727
    vertex 2939.998386663037 127.16013188122447 9.804594154609582
  endloop
endfacet
facet normal 2.795656486403185e-13 0.6087614290087706 0.7933533402911969
  outer loop
    vertex 2939.998386663036 126.88053772662268 10.019134295116727
    vertex 2937.9983866630373 127.16013188122447 9.804594154610292
    vertex 2937.998386663036 126.88053772662268 10.019134295117437
  endloop
endfacet
facet normal -3.255610932163269e-13 0.38268343236513735 -0.9238795325112672
  outer loop
    vertex 2955.9983866630428 126.55494343751111 7.546000134511848
    vertex 2957.9983866630423 126.88053772662268 7.6808657048924145
    vertex 2957.9983866630423 126.55494343751111 7.54600013451116
  endloop
endfacet
facet normal -3.255610932163269e-13 0.38268343236513735 -0.9238795325112672
  outer loop
    vertex 2957.9983866630423 126.88053772662268 7.6808657048924145
    vertex 2955.9983866630428 126.55494343751111 7.546000134511848
    vertex 2955.9983866630428 126.88053772662268 7.680865704893103
  endloop
endfacet
facet normal 4.599544457600993e-14 0.9914448613738075 0.13052619222007475
  outer loop
    vertex 2957.9983866630364 127.5555377266227 8.850000000001424
    vertex 2955.998386663036 127.50953759211293 9.199405710890534
    vertex 2957.9983866630355 127.50953759211293 9.199405710889835
  endloop
endfacet
facet normal 4.599544457600993e-14 0.9914448613738075 0.13052619222007475
  outer loop
    vertex 2955.998386663036 127.50953759211293 9.199405710890534
    vertex 2957.9983866630364 127.5555377266227 8.850000000001424
    vertex 2955.998386663037 127.5555377266227 8.850000000002124
  endloop
endfacet
facet normal 2.1451826711360283e-13 -0.7933533402911642 0.608761429008813
  outer loop
    vertex 2955.9983866630373 125.25094357202083 9.804594154603944
    vertex 2957.9983866630355 125.03640343151362 9.525000000001407
    vertex 2957.998386663037 125.25094357202083 9.80459415460326
  endloop
endfacet
facet normal 2.1451826711360283e-13 -0.7933533402911642 0.608761429008813
  outer loop
    vertex 2957.9983866630355 125.03640343151362 9.525000000001407
    vertex 2955.9983866630373 125.25094357202083 9.804594154603944
    vertex 2955.998386663036 125.03640343151362 9.525000000002095
  endloop
endfacet
facet normal -1.0 1.406857415126269e-29 3.609557097661307e-13
  outer loop
    vertex 2957.9983866630405 151.70553772662262 22.35000000000141
    vertex 2957.9983866630387 123.7055377266226 17.350000000001412
    vertex 2957.9983866630405 123.7055377266226 22.35000000000141
  endloop
endfacet
facet normal -1.0 1.406857415126269e-29 3.609557097661307e-13
  outer loop
    vertex 2957.9983866630387 123.7055377266226 17.350000000001412
    vertex 2957.9983866630405 151.70553772662262 22.35000000000141
    vertex 2957.9983866630387 129.70553772662268 17.350000000001412
  endloop
endfacet
facet normal -1.0 1.406857415126269e-29 3.609557097661307e-13
  outer loop
    vertex 2957.9983866630387 123.7055377266226 17.350000000001412
    vertex 2957.9983866630387 129.70553772662268 17.350000000001412
    vertex 2957.9983866630355 125.03640343151362 9.525000000001407
  endloop
endfacet
facet normal -1.0 1.406857415126269e-29 3.609557097661307e-13
  outer loop
    vertex 2957.9983866630387 123.7055377266226 17.350000000001412
    vertex 2957.9983866630355 125.03640343151362 9.525000000001407
    vertex 2957.9983866630346 123.7055377266226 6.3500000000014065
  endloop
endfacet
facet normal -1.0 1.406857415126269e-29 3.609557097661307e-13
  outer loop
    vertex 2957.9983866630346 123.7055377266226 6.3500000000014065
    vertex 2957.9983866630355 125.03640343151362 9.525000000001407
    vertex 2957.9983866630355 124.90153786113245 9.1994057108898
  endloop
endfacet
facet normal -1.0 1.406857415126269e-29 3.609557097661307e-13
  outer loop
    vertex 2957.9983866630346 123.7055377266226 6.3500000000014065
    vertex 2957.9983866630355 124.90153786113245 9.1994057108898
    vertex 2957.9983866630364 124.8555377266226 8.85000000000139
  endloop
endfacet
facet normal -1.0 1.406857415126269e-29 3.609557097661307e-13
  outer loop
    vertex 2957.9983866630355 125.03640343151362 9.525000000001407
    vertex 2957.9983866630387 129.70553772662268 17.350000000001412
    vertex 2957.998386663037 125.25094357202083 9.80459415460326
  endloop
endfacet
facet normal -1.0 1.406857415126269e-29 3.609557097661307e-13
  outer loop
    vertex 2957.998386663037 125.25094357202083 9.80459415460326
    vertex 2957.9983866630387 129.70553772662268 17.350000000001412
    vertex 2957.998386663036 125.53053772662263 10.01913429511042
  endloop
endfacet
facet normal -1.0 1.406857415126269e-29 3.609557097661307e-13
  outer loop
    vertex 2957.998386663036 125.53053772662263 10.01913429511042
    vertex 2957.9983866630387 129.70553772662268 17.350000000001412
    vertex 2957.998386663036 125.85613201573419 10.153999865491675
  endloop
endfacet
facet normal -1.0 1.406857415126269e-29 3.609557097661307e-13
  outer loop
    vertex 2957.998386663036 125.85613201573419 10.153999865491675
    vertex 2957.9983866630387 129.70553772662268 17.350000000001412
    vertex 2957.998386663036 126.20553772662257 10.200000000001442
  endloop
endfacet
facet normal -1.0 1.406857415126269e-29 3.609557097661307e-13
  outer loop
    vertex 2957.998386663036 126.20553772662257 10.200000000001442
    vertex 2957.9983866630387 129.70553772662268 17.350000000001412
    vertex 2957.998386663036 126.55494343751103 10.153999865491686
  endloop
endfacet
facet normal -1.0 1.406857415126269e-29 3.609557097661307e-13
  outer loop
    vertex 2957.998386663036 126.55494343751103 10.153999865491686
    vertex 2957.9983866630387 129.70553772662268 17.350000000001412
    vertex 2957.998386663036 126.88053772662268 10.019134295110439
  endloop
endfacet
facet normal -1.0 1.406857415126269e-29 3.609557097661307e-13
  outer loop
    vertex 2957.998386663036 126.88053772662268 10.019134295110439
    vertex 2957.9983866630387 129.70553772662268 17.350000000001412
    vertex 2957.998386663037 127.16013188122447 9.804594154603288
  endloop
endfacet
facet normal -1.0 1.406857415126269e-29 3.609557097661307e-13
  outer loop
    vertex 2957.998386663037 127.16013188122447 9.804594154603288
    vertex 2957.9983866630387 129.70553772662268 17.350000000001412
    vertex 2957.9983866630355 127.37467202173168 9.525000000001441
  endloop
endfacet
facet normal -1.0 1.406857415126269e-29 3.609557097661307e-13
  outer loop
    vertex 2957.9983866630355 127.37467202173168 9.525000000001441
    vertex 2957.9983866630387 129.70553772662268 17.350000000001412
    vertex 2957.9983866630355 127.50953759211293 9.199405710889835
  endloop
endfacet
facet normal -1.0 1.406857415126269e-29 3.609557097661307e-13
  outer loop
    vertex 2957.9983866630355 127.50953759211293 9.199405710889835
    vertex 2957.9983866630387 129.70553772662268 17.350000000001412
    vertex 2957.9983866630364 127.5555377266227 8.850000000001424
  endloop
endfacet
facet normal -1.0 1.406857415126269e-29 3.609557097661307e-13
  outer loop
    vertex 2957.9983866630364 127.5555377266227 8.850000000001424
    vertex 2957.9983866630387 129.70553772662268 17.350000000001412
    vertex 2957.9983866630346 128.70553772662262 6.3500000000014065
  endloop
endfacet
facet normal -1.0 1.406857415126269e-29 3.609557097661307e-13
  outer loop
    vertex 2957.9983866630387 129.70553772662268 17.350000000001412
    vertex 2957.9983866630405 151.70553772662262 22.35000000000141
    vertex 2957.99838666304 151.70553772662262 21.350000000001412
  endloop
endfacet
facet normal -1.0 1.406857415126269e-29 3.609557097661307e-13
  outer loop
    vertex 2957.9983866630387 129.70553772662268 17.350000000001412
    vertex 2957.99838666304 151.70553772662262 21.350000000001412
    vertex 2957.9983866630387 153.70553772662262 17.350000000001412
  endloop
endfacet
facet normal -1.0 1.406857415126269e-29 3.609557097661307e-13
  outer loop
    vertex 2957.9983866630346 123.7055377266226 6.3500000000014065
    vertex 2957.9983866630423 125.53053772662263 7.680865704892392
    vertex 2957.9983866630346 128.70553772662262 6.3500000000014065
  endloop
endfacet
facet normal -1.0 1.406857415126269e-29 3.609557097661307e-13
  outer loop
    vertex 2957.9983866630423 125.53053772662263 7.680865704892392
    vertex 2957.9983866630346 123.7055377266226 6.3500000000014065
    vertex 2957.998386663035 125.25094357202083 7.895405845399547
  endloop
endfacet
facet normal -1.0 1.406857415126269e-29 3.609557097661307e-13
  outer loop
    vertex 2957.998386663035 125.25094357202083 7.895405845399547
    vertex 2957.9983866630346 123.7055377266226 6.3500000000014065
    vertex 2957.998386663035 125.03640343151362 8.175000000001386
  endloop
endfacet
facet normal -1.0 1.406857415126269e-29 3.609557097661307e-13
  outer loop
    vertex 2957.998386663035 125.03640343151362 8.175000000001386
    vertex 2957.9983866630346 123.7055377266226 6.3500000000014065
    vertex 2957.998386663035 124.90153786113237 8.500594289112982
  endloop
endfacet
facet normal -1.0 1.406857415126269e-29 3.609557097661307e-13
  outer loop
    vertex 2957.998386663035 124.90153786113237 8.500594289112982
    vertex 2957.9983866630346 123.7055377266226 6.3500000000014065
    vertex 2957.9983866630364 124.8555377266226 8.85000000000139
  endloop
endfacet
facet normal -1.0 1.406857415126269e-29 3.609557097661307e-13
  outer loop
    vertex 2957.9983866630346 128.70553772662262 6.3500000000014065
    vertex 2957.9983866630423 125.53053772662263 7.680865704892392
    vertex 2957.9983866630423 125.85613201573427 7.546000134511149
  endloop
endfacet
facet normal -1.0 1.406857415126269e-29 3.609557097661307e-13
  outer loop
    vertex 2957.9983866630346 128.70553772662262 6.3500000000014065
    vertex 2957.9983866630423 125.85613201573427 7.546000134511149
    vertex 2957.9983866630423 126.20553772662274 7.5000000000013936
  endloop
endfacet
facet normal -1.0 1.406857415126269e-29 3.609557097661307e-13
  outer loop
    vertex 2957.9983866630346 128.70553772662262 6.3500000000014065
    vertex 2957.9983866630423 126.20553772662274 7.5000000000013936
    vertex 2957.9983866630423 126.55494343751111 7.54600013451116
  endloop
endfacet
facet normal -1.0 1.406857415126269e-29 3.609557097661307e-13
  outer loop
    vertex 2957.9983866630346 128.70553772662262 6.3500000000014065
    vertex 2957.9983866630423 126.55494343751111 7.54600013451116
    vertex 2957.9983866630423 126.88053772662268 7.6808657048924145
  endloop
endfacet
facet normal -1.0 1.406857415126269e-29 3.609557097661307e-13
  outer loop
    vertex 2957.9983866630346 128.70553772662262 6.3500000000014065
    vertex 2957.9983866630423 126.88053772662268 7.6808657048924145
    vertex 2957.998386663035 127.16013188122447 7.89540584539957
  endloop
endfacet
facet normal -1.0 1.406857415126269e-29 3.609557097661307e-13
  outer loop
    vertex 2957.9983866630346 128.70553772662262 6.3500000000014065
    vertex 2957.998386663035 127.16013188122447 7.89540584539957
    vertex 2957.998386663035 127.37467202173168 8.17500000000142
  endloop
endfacet
facet normal -1.0 1.406857415126269e-29 3.609557097661307e-13
  outer loop
    vertex 2957.9983866630346 128.70553772662262 6.3500000000014065
    vertex 2957.998386663035 127.37467202173168 8.17500000000142
    vertex 2957.998386663035 127.50953759211285 8.500594289113026
  endloop
endfacet
facet normal -1.0 1.406857415126269e-29 3.609557097661307e-13
  outer loop
    vertex 2957.9983866630346 128.70553772662262 6.3500000000014065
    vertex 2957.998386663035 127.50953759211285 8.500594289113026
    vertex 2957.9983866630364 127.5555377266227 8.850000000001424
  endloop
endfacet
facet normal -1.0 1.406857415126269e-29 3.609557097661307e-13
  outer loop
    vertex 2957.9983866630346 123.7055377266226 6.3500000000014065
    vertex 2957.9983866630387 122.70553772662254 17.350000000001412
    vertex 2957.9983866630387 123.7055377266226 17.350000000001412
  endloop
endfacet
facet normal -3.2556109321634093e-13 -0.38268343236501945 -0.9238795325113159
  outer loop
    vertex 2937.9983866630428 125.53053772662263 7.6808657048994755
    vertex 2939.9983866630423 125.85613201573427 7.54600013451751
    vertex 2939.9983866630423 125.53053772662263 7.680865704898754
  endloop
endfacet
facet normal -3.2556109321634093e-13 -0.38268343236501945 -0.9238795325113159
  outer loop
    vertex 2939.9983866630423 125.85613201573427 7.54600013451751
    vertex 2937.9983866630428 125.53053772662263 7.6808657048994755
    vertex 2937.9983866630428 125.85613201573427 7.546000134518232
  endloop
endfacet
facet normal 0.0 -1.0 0.0
  outer loop
    vertex 2918.3483866630404 112.42187409094528 17.350000000015353
    vertex 2969.1483866630406 112.42187409094528 22.34999999999748
    vertex 2918.3483866630404 112.42187409094528 22.350000000015378
  endloop
endfacet
facet normal 0.0 -1.0 0.0
  outer loop
    vertex 2969.1483866630406 112.42187409094528 22.34999999999748
    vertex 2918.3483866630404 112.42187409094528 17.350000000015353
    vertex 2969.148386663039 112.42187409094528 17.349999999997486
  endloop
endfacet
facet normal 0.0 -1.0 0.0
  outer loop
    vertex 2969.148386663039 112.42187409094528 17.349999999997486
    vertex 2918.3483866630404 112.42187409094528 17.350000000015353
    vertex 2962.798386663039 112.42187409094528 17.349999999999714
  endloop
endfacet
facet normal 0.0 -1.0 0.0
  outer loop
    vertex 2962.798386663039 112.42187409094528 17.349999999999714
    vertex 2918.3483866630404 112.42187409094528 17.350000000015353
    vertex 2924.6983866630403 112.42187409094528 17.35000000001312
  endloop
endfacet
facet normal -3.493700873047886e-13 -0.13052619222002151 -0.9914448613738145
  outer loop
    vertex 2955.9983866630428 125.85613201573427 7.546000134511837
    vertex 2957.9983866630423 126.20553772662274 7.5000000000013936
    vertex 2957.9983866630423 125.85613201573427 7.546000134511149
  endloop
endfacet
facet normal -3.493700873047886e-13 -0.13052619222002151 -0.9914448613738145
  outer loop
    vertex 2957.9983866630423 126.20553772662274 7.5000000000013936
    vertex 2955.9983866630428 125.85613201573427 7.546000134511837
    vertex 2955.998386663035 126.20553772662274 7.500000000002082
  endloop
endfacet
facet normal 3.2556109321632634e-13 -0.38268343236514074 0.9238795325112656
  outer loop
    vertex 2955.9983866630364 125.85613201573419 10.153999865492365
    vertex 2957.998386663036 125.53053772662263 10.01913429511042
    vertex 2957.998386663036 125.85613201573419 10.153999865491675
  endloop
endfacet
facet normal 3.2556109321632634e-13 -0.38268343236514074 0.9238795325112656
  outer loop
    vertex 2957.998386663036 125.53053772662263 10.01913429511042
    vertex 2955.9983866630364 125.85613201573419 10.153999865492365
    vertex 2955.9983866630364 125.53053772662263 10.01913429511111
  endloop
endfacet
facet normal -2.795656486403129e-13 0.6087614290087908 -0.7933533402911814
  outer loop
    vertex 2937.9983866630428 126.88053772662268 7.680865704899499
    vertex 2939.9983866630355 127.16013188122447 7.895405845405943
    vertex 2939.9983866630423 126.88053772662268 7.6808657048987765
  endloop
endfacet
facet normal -2.795656486403129e-13 0.6087614290087908 -0.7933533402911814
  outer loop
    vertex 2939.9983866630355 127.16013188122447 7.895405845405943
    vertex 2937.9983866630428 126.88053772662268 7.680865704899499
    vertex 2937.9983866630355 127.16013188122447 7.895405845406653
  endloop
endfacet
facet normal -1.572849576725296e-13 -0.8944271909999162 -0.44721359549995726
  outer loop
    vertex 2947.49838666304 151.70553772662262 21.350000000005103
    vertex 2957.9983866630387 153.70553772662262 17.350000000001412
    vertex 2957.99838666304 151.70553772662262 21.350000000001412
  endloop
endfacet
facet normal -1.572849576725296e-13 -0.8944271909999162 -0.44721359549995726
  outer loop
    vertex 2957.9983866630387 153.70553772662262 17.350000000001412
    vertex 2947.49838666304 151.70553772662262 21.350000000005103
    vertex 2947.4983866630387 153.70553772662262 17.350000000005107
  endloop
endfacet
facet normal 0.0 1.0 0.0
  outer loop
    vertex 2939.9983866630387 123.7055377266226 17.350000000007736
    vertex 2929.498386663041 123.7055377266226 22.350000000011423
    vertex 2939.9983866630405 123.7055377266226 22.350000000007775
  endloop
endfacet
facet normal 0.0 1.0 0.0
  outer loop
    vertex 2929.498386663041 123.7055377266226 22.350000000011423
    vertex 2939.9983866630387 123.7055377266226 17.350000000007736
    vertex 2929.498386663039 123.7055377266226 17.350000000011427
  endloop
endfacet
facet normal 0.9838699100998516 1.826184832193267e-17 -0.1788854382002905
  outer loop
    vertex 2961.998386663035 123.7055377266226 6.349999999999994
    vertex 2963.9983866630387 129.70553772662268 17.34999999999929
    vertex 2963.9983866630387 122.70553772662254 17.34999999999929
  endloop
endfacet
facet normal 0.9838699100998516 1.826184832193267e-17 -0.1788854382002905
  outer loop
    vertex 2963.9983866630387 129.70553772662268 17.34999999999929
    vertex 2961.998386663035 123.7055377266226 6.349999999999994
    vertex 2961.998386663035 128.70553772662262 6.349999999999994
  endloop
endfacet
facet normal 3.523847880160247e-13 0.0 1.0
  outer loop
    vertex 2969.1483866630406 163.22187409094528 22.34999999999748
    vertex 2957.9983866630405 151.70553772662262 22.35000000000141
    vertex 2969.1483866630406 112.42187409094528 22.34999999999748
  endloop
endfacet
facet normal 3.523847880160247e-13 0.0 1.0
  outer loop
    vertex 2957.9983866630405 151.70553772662262 22.35000000000141
    vertex 2969.1483866630406 163.22187409094528 22.34999999999748
    vertex 2918.3483866630404 163.22187409094528 22.350000000015378
  endloop
endfacet
facet normal 3.523847880160247e-13 0.0 1.0
  outer loop
    vertex 2957.9983866630405 151.70553772662262 22.35000000000141
    vertex 2918.3483866630404 163.22187409094528 22.350000000015378
    vertex 2947.4983866630405 151.70553772662262 22.350000000005103
  endloop
endfacet
facet normal 3.523847880160247e-13 0.0 1.0
  outer loop
    vertex 2947.4983866630405 151.70553772662262 22.350000000005103
    vertex 2918.3483866630404 163.22187409094528 22.350000000015378
    vertex 2939.9983866630405 151.70553772662262 22.350000000007775
  endloop
endfacet
facet normal 3.523847880160247e-13 0.0 1.0
  outer loop
    vertex 2947.4983866630405 151.70553772662262 22.350000000005103
    vertex 2939.9983866630405 151.70553772662262 22.350000000007775
    vertex 2947.4983866630405 123.7055377266226 22.350000000005103
  endloop
endfacet
facet normal 3.523847880160247e-13 0.0 1.0
  outer loop
    vertex 2939.9983866630405 151.70553772662262 22.350000000007775
    vertex 2918.3483866630404 163.22187409094528 22.350000000015378
    vertex 2929.498386663041 151.70553772662262 22.350000000011423
  endloop
endfacet
facet normal 3.523847880160247e-13 0.0 1.0
  outer loop
    vertex 2929.498386663041 151.70553772662262 22.350000000011423
    vertex 2918.3483866630404 163.22187409094528 22.350000000015378
    vertex 2929.498386663041 123.7055377266226 22.350000000011423
  endloop
endfacet
facet normal 3.523847880160247e-13 0.0 1.0
  outer loop
    vertex 2969.1483866630406 112.42187409094528 22.34999999999748
    vertex 2957.9983866630405 123.7055377266226 22.35000000000141
    vertex 2918.3483866630404 112.42187409094528 22.350000000015378
  endloop
endfacet
facet normal 3.523847880160247e-13 0.0 1.0
  outer loop
    vertex 2957.9983866630405 123.7055377266226 22.35000000000141
    vertex 2969.1483866630406 112.42187409094528 22.34999999999748
    vertex 2957.9983866630405 151.70553772662262 22.35000000000141
  endloop
endfacet
facet normal 3.523847880160247e-13 0.0 1.0
  outer loop
    vertex 2918.3483866630404 112.42187409094528 22.350000000015378
    vertex 2957.9983866630405 123.7055377266226 22.35000000000141
    vertex 2947.4983866630405 123.7055377266226 22.350000000005103
  endloop
endfacet
facet normal 3.523847880160247e-13 0.0 1.0
  outer loop
    vertex 2918.3483866630404 112.42187409094528 22.350000000015378
    vertex 2947.4983866630405 123.7055377266226 22.350000000005103
    vertex 2939.9983866630405 123.7055377266226 22.350000000007775
  endloop
endfacet
facet normal 3.523847880160247e-13 0.0 1.0
  outer loop
    vertex 2939.9983866630405 123.7055377266226 22.350000000007775
    vertex 2947.4983866630405 123.7055377266226 22.350000000005103
    vertex 2939.9983866630405 151.70553772662262 22.350000000007775
  endloop
endfacet
facet normal 3.523847880160247e-13 0.0 1.0
  outer loop
    vertex 2918.3483866630404 112.42187409094528 22.350000000015378
    vertex 2939.9983866630405 123.7055377266226 22.350000000007775
    vertex 2929.498386663041 123.7055377266226 22.350000000011423
  endloop
endfacet
facet normal 3.523847880160247e-13 0.0 1.0
  outer loop
    vertex 2918.3483866630404 112.42187409094528 22.350000000015378
    vertex 2929.498386663041 123.7055377266226 22.350000000011423
    vertex 2918.3483866630404 163.22187409094528 22.350000000015378
  endloop
endfacet
facet normal -2.7956564864031445e-13 -0.6087614290087857 -0.7933533402911854
  outer loop
    vertex 2957.998386663035 125.25094357202083 7.895405845399547
    vertex 2955.9983866630428 125.53053772662263 7.680865704893091
    vertex 2957.9983866630423 125.53053772662263 7.680865704892392
  endloop
endfacet
facet normal -2.7956564864031445e-13 -0.6087614290087857 -0.7933533402911854
  outer loop
    vertex 2955.9983866630428 125.53053772662263 7.680865704893091
    vertex 2957.998386663035 125.25094357202083 7.895405845399547
    vertex 2955.9983866630355 125.25094357202083 7.895405845400247
  endloop
endfacet
facet normal -4.599544457601102e-14 -0.991444861373807 -0.13052619222007783
  outer loop
    vertex 2937.9983866630355 124.90153786113245 8.500594289120043
    vertex 2939.998386663037 124.85553772662269 8.85000000000773
    vertex 2937.998386663037 124.85553772662269 8.850000000008441
  endloop
endfacet
facet normal -4.599544457601102e-14 -0.991444861373807 -0.13052619222007783
  outer loop
    vertex 2939.998386663037 124.85553772662269 8.85000000000773
    vertex 2937.9983866630355 124.90153786113245 8.500594289120043
    vertex 2939.9983866630355 124.90153786113245 8.500594289119332
  endloop
endfacet
facet normal -3.523847880160247e-13 0.0 -1.0
  outer loop
    vertex 2939.998386663035 123.7055377266226 6.350000000007746
    vertex 2943.9983866630346 128.70553772662262 6.350000000006336
    vertex 2943.9983866630346 123.7055377266226 6.350000000006336
  endloop
endfacet
facet normal -3.523847880160247e-13 0.0 -1.0
  outer loop
    vertex 2943.9983866630346 128.70553772662262 6.350000000006336
    vertex 2939.998386663035 123.7055377266226 6.350000000007746
    vertex 2939.998386663035 128.70553772662262 6.350000000007746
  endloop
endfacet
facet normal -1.3485182019121963e-13 -0.9238795325112835 -0.3826834323650976
  outer loop
    vertex 2955.9983866630355 124.90153786113237 8.50059428911368
    vertex 2957.998386663035 125.03640343151362 8.175000000001386
    vertex 2957.998386663035 124.90153786113237 8.500594289112982
  endloop
endfacet
facet normal -1.3485182019121963e-13 -0.9238795325112835 -0.3826834323650976
  outer loop
    vertex 2957.998386663035 125.03640343151362 8.175000000001386
    vertex 2955.9983866630355 124.90153786113237 8.50059428911368
    vertex 2955.9983866630355 125.03640343151362 8.175000000002075
  endloop
endfacet
facet normal 1.3485182019123029e-13 0.9238795325112801 0.3826834323651062
  outer loop
    vertex 2939.9983866630355 127.3746720217316 9.525000000007768
    vertex 2937.998386663036 127.50953759211285 9.199405710896885
    vertex 2937.998386663036 127.3746720217316 9.525000000008479
  endloop
endfacet
facet normal 1.3485182019123029e-13 0.9238795325112801 0.3826834323651062
  outer loop
    vertex 2937.998386663036 127.50953759211285 9.199405710896885
    vertex 2939.9983866630355 127.3746720217316 9.525000000007768
    vertex 2939.9983866630355 127.50953759211285 9.199405710896174
  endloop
endfacet
facet normal -2.7956564864031167e-13 0.6087614290087957 -0.7933533402911775
  outer loop
    vertex 2955.9983866630428 126.88053772662268 7.680865704893103
    vertex 2957.998386663035 127.16013188122447 7.89540584539957
    vertex 2957.9983866630423 126.88053772662268 7.6808657048924145
  endloop
endfacet
facet normal -2.7956564864031167e-13 0.6087614290087957 -0.7933533402911775
  outer loop
    vertex 2957.998386663035 127.16013188122447 7.89540584539957
    vertex 2955.9983866630428 126.88053772662268 7.680865704893103
    vertex 2955.9983866630355 127.16013188122447 7.895405845400269
  endloop
endfacet
facet normal -3.523847880160247e-13 0.0 -1.0
  outer loop
    vertex 2957.9983866630346 123.7055377266226 6.3500000000014065
    vertex 2961.998386663035 128.70553772662262 6.349999999999994
    vertex 2961.998386663035 123.7055377266226 6.349999999999994
  endloop
endfacet
facet normal -3.523847880160247e-13 0.0 -1.0
  outer loop
    vertex 2961.998386663035 128.70553772662262 6.349999999999994
    vertex 2957.9983866630346 123.7055377266226 6.3500000000014065
    vertex 2957.9983866630346 128.70553772662262 6.3500000000014065
  endloop
endfacet
facet normal 1.0 3.8904759347635365e-30 -3.609557097661312e-13
  outer loop
    vertex 2929.498386663039 153.70553772662262 17.350000000011427
    vertex 2929.498386663041 123.7055377266226 22.350000000011423
    vertex 2929.498386663039 123.7055377266226 17.350000000011427
  endloop
endfacet
facet normal 1.0 3.8904759347635365e-30 -3.609557097661312e-13
  outer loop
    vertex 2929.498386663041 123.7055377266226 22.350000000011423
    vertex 2929.498386663039 153.70553772662262 17.350000000011427
    vertex 2929.4983866630405 151.70553772662262 21.350000000011423
  endloop
endfacet
facet normal 1.0 3.8904759347635365e-30 -3.609557097661312e-13
  outer loop
    vertex 2929.498386663041 151.70553772662262 22.350000000011423
    vertex 2929.498386663041 123.7055377266226 22.350000000011423
    vertex 2929.4983866630405 151.70553772662262 21.350000000011423
  endloop
endfacet
facet normal 2.1451826711355015e-13 -0.7933533402912791 0.6087614290086635
  outer loop
    vertex 2937.998386663036 125.03640343151362 9.525000000008434
    vertex 2939.998386663037 125.25094357202074 9.804594154609543
    vertex 2937.9983866630373 125.25094357202074 9.804594154610253
  endloop
endfacet
facet normal 2.1451826711355015e-13 -0.7933533402912791 0.6087614290086635
  outer loop
    vertex 2939.998386663037 125.25094357202074 9.804594154609543
    vertex 2937.998386663036 125.03640343151362 9.525000000008434
    vertex 2939.9983866630355 125.03640343151362 9.525000000007724
  endloop
endfacet
facet normal -3.493700873047856e-13 0.13052619222008613 -0.9914448613738059
  outer loop
    vertex 2955.998386663035 126.20553772662274 7.500000000002082
    vertex 2957.9983866630423 126.55494343751111 7.54600013451116
    vertex 2957.9983866630423 126.20553772662274 7.5000000000013936
  endloop
endfacet
facet normal -3.493700873047856e-13 0.13052619222008613 -0.9914448613738059
  outer loop
    vertex 2957.9983866630423 126.55494343751111 7.54600013451116
    vertex 2955.998386663035 126.20553772662274 7.500000000002082
    vertex 2955.9983866630428 126.55494343751111 7.546000134511848
  endloop
endfacet
facet normal 4.599544457601102e-14 -0.991444861373807 0.13052619222007783
  outer loop
    vertex 2937.998386663037 124.85553772662269 8.850000000008441
    vertex 2939.9983866630355 124.90153786113245 9.199405710896128
    vertex 2937.998386663036 124.90153786113245 9.199405710896839
  endloop
endfacet
facet normal 4.599544457601102e-14 -0.991444861373807 0.13052619222007783
  outer loop
    vertex 2939.9983866630355 124.90153786113245 9.199405710896128
    vertex 2937.998386663037 124.85553772662269 8.850000000008441
    vertex 2939.998386663037 124.85553772662269 8.85000000000773
  endloop
endfacet
facet normal 3.493700873047886e-13 0.13052619222002151 0.9914448613738145
  outer loop
    vertex 2955.9983866630364 126.55494343751103 10.153999865492375
    vertex 2957.998386663036 126.20553772662257 10.200000000001442
    vertex 2957.998386663036 126.55494343751103 10.153999865491686
  endloop
endfacet
facet normal 3.493700873047886e-13 0.13052619222002151 0.9914448613738145
  outer loop
    vertex 2957.998386663036 126.20553772662257 10.200000000001442
    vertex 2955.9983866630364 126.55494343751103 10.153999865492375
    vertex 2955.9983866630364 126.20553772662257 10.200000000002131
  endloop
endfacet
facet normal -4.599544457609861e-14 0.9914448613737743 -0.1305261922203264
  outer loop
    vertex 2957.998386663035 127.50953759211285 8.500594289113026
    vertex 2955.998386663037 127.5555377266227 8.850000000002124
    vertex 2957.9983866630364 127.5555377266227 8.850000000001424
  endloop
endfacet
facet normal -4.599544457609861e-14 0.9914448613737743 -0.1305261922203264
  outer loop
    vertex 2955.998386663037 127.5555377266227 8.850000000002124
    vertex 2957.998386663035 127.50953759211285 8.500594289113026
    vertex 2955.9983866630355 127.50953759211285 8.500594289113714
  endloop
endfacet
facet normal -2.1451826711360417e-13 0.7933533402911613 -0.6087614290088168
  outer loop
    vertex 2957.998386663035 127.16013188122447 7.89540584539957
    vertex 2955.9983866630355 127.37467202173168 8.17500000000211
    vertex 2957.998386663035 127.37467202173168 8.17500000000142
  endloop
endfacet
facet normal -2.1451826711360417e-13 0.7933533402911613 -0.6087614290088168
  outer loop
    vertex 2955.9983866630355 127.37467202173168 8.17500000000211
    vertex 2957.998386663035 127.16013188122447 7.89540584539957
    vertex 2955.9983866630355 127.16013188122447 7.895405845400269
  endloop
endfacet
facet normal 0.0 -1.0 0.0
  outer loop
    vertex 2929.498386663041 151.70553772662262 22.350000000011423
    vertex 2939.9983866630405 151.70553772662262 21.35000000000778
    vertex 2939.9983866630405 151.70553772662262 22.350000000007775
  endloop
endfacet
facet normal 0.0 -1.0 0.0
  outer loop
    vertex 2939.9983866630405 151.70553772662262 21.35000000000778
    vertex 2929.498386663041 151.70553772662262 22.350000000011423
    vertex 2929.4983866630405 151.70553772662262 21.350000000011423
  endloop
endfacet
facet normal -2.7956564864031834e-13 -0.6087614290087705 -0.793353340291197
  outer loop
    vertex 2939.9983866630355 125.25094357202083 7.895405845405909
    vertex 2937.9983866630428 125.53053772662263 7.6808657048994755
    vertex 2939.9983866630423 125.53053772662263 7.680865704898754
  endloop
endfacet
facet normal -2.7956564864031834e-13 -0.6087614290087705 -0.793353340291197
  outer loop
    vertex 2937.9983866630428 125.53053772662263 7.6808657048994755
    vertex 2939.9983866630355 125.25094357202083 7.895405845405909
    vertex 2937.9983866630355 125.25094357202083 7.89540584540662
  endloop
endfacet
facet normal -4.599544457600956e-14 -0.9914448613738075 -0.1305261922200737
  outer loop
    vertex 2955.998386663037 124.8555377266226 8.85000000000209
    vertex 2957.998386663035 124.90153786113237 8.500594289112982
    vertex 2957.9983866630364 124.8555377266226 8.85000000000139
  endloop
endfacet
facet normal -4.599544457600956e-14 -0.9914448613738075 -0.1305261922200737
  outer loop
    vertex 2957.998386663035 124.90153786113237 8.500594289112982
    vertex 2955.998386663037 124.8555377266226 8.85000000000209
    vertex 2955.9983866630355 124.90153786113237 8.50059428911368
  endloop
endfacet
facet normal 2.795629872728366e-13 -0.6087614290086645 0.7933533402912782
  outer loop
    vertex 2939.998386663036 125.53053772662263 10.019134295116704
    vertex 2937.9983866630373 125.25094357202074 9.804594154610253
    vertex 2939.998386663037 125.25094357202074 9.804594154609543
  endloop
endfacet
facet normal 2.795629872728366e-13 -0.6087614290086645 0.7933533402912782
  outer loop
    vertex 2937.9983866630373 125.25094357202074 9.804594154610253
    vertex 2939.998386663036 125.53053772662263 10.019134295116704
    vertex 2937.998386663036 125.53053772662263 10.019134295117414
  endloop
endfacet
facet normal -3.255610932163269e-13 0.38268343236513735 -0.9238795325112672
  outer loop
    vertex 2937.9983866630428 126.55494343751111 7.546000134518244
    vertex 2939.9983866630423 126.88053772662268 7.6808657048987765
    vertex 2939.9983866630423 126.55494343751111 7.546000134517522
  endloop
endfacet
facet normal -3.255610932163269e-13 0.38268343236513735 -0.9238795325112672
  outer loop
    vertex 2939.9983866630423 126.88053772662268 7.6808657048987765
    vertex 2937.9983866630428 126.55494343751111 7.546000134518244
    vertex 2937.9983866630428 126.88053772662268 7.680865704899499
  endloop
endfacet
facet normal -1.3485182019121643e-13 -0.9238795325112787 -0.38268343236510893
  outer loop
    vertex 2937.9983866630355 125.0364034315137 8.17500000000846
    vertex 2939.9983866630355 124.90153786113245 8.500594289119332
    vertex 2937.9983866630355 124.90153786113245 8.500594289120043
  endloop
endfacet
facet normal -1.3485182019121643e-13 -0.9238795325112787 -0.38268343236510893
  outer loop
    vertex 2939.9983866630355 124.90153786113245 8.500594289119332
    vertex 2937.9983866630355 125.0364034315137 8.17500000000846
    vertex 2939.9983866630355 125.0364034315137 8.175000000007737
  endloop
endfacet
facet normal 1.3485182019114405e-13 -0.9238795325113728 0.3826834323648819
  outer loop
    vertex 2937.998386663036 124.90153786113245 9.199405710896839
    vertex 2939.9983866630355 125.03640343151362 9.525000000007724
    vertex 2937.998386663036 125.03640343151362 9.525000000008434
  endloop
endfacet
facet normal 1.3485182019114405e-13 -0.9238795325113728 0.3826834323648819
  outer loop
    vertex 2939.9983866630355 125.03640343151362 9.525000000007724
    vertex 2937.998386663036 124.90153786113245 9.199405710896839
    vertex 2939.9983866630355 124.90153786113245 9.199405710896128
  endloop
endfacet
facet normal -1.0 0.0 3.523847880160247e-13
  outer loop
    vertex 2955.998386663036 124.90153786113245 9.1994057108905
    vertex 2955.9983866630355 124.90153786113237 8.50059428911368
    vertex 2955.998386663037 124.8555377266226 8.85000000000209
  endloop
endfacet
facet normal -1.0 0.0 3.523847880160247e-13
  outer loop
    vertex 2955.9983866630355 124.90153786113237 8.50059428911368
    vertex 2955.998386663036 124.90153786113245 9.1994057108905
    vertex 2955.9983866630355 125.03640343151362 8.175000000002075
  endloop
endfacet
facet normal -1.0 0.0 3.523847880160247e-13
  outer loop
    vertex 2955.9983866630355 125.03640343151362 8.175000000002075
    vertex 2955.998386663036 124.90153786113245 9.1994057108905
    vertex 2955.998386663036 125.03640343151362 9.525000000002095
  endloop
endfacet
facet normal -1.0 0.0 3.523847880160247e-13
  outer loop
    vertex 2955.9983866630355 125.03640343151362 8.175000000002075
    vertex 2955.998386663036 125.03640343151362 9.525000000002095
    vertex 2955.9983866630373 125.25094357202083 9.804594154603944
  endloop
endfacet
facet normal -1.0 0.0 3.523847880160247e-13
  outer loop
    vertex 2955.9983866630355 125.03640343151362 8.175000000002075
    vertex 2955.9983866630373 125.25094357202083 9.804594154603944
    vertex 2955.9983866630355 125.25094357202083 7.895405845400247
  endloop
endfacet
facet normal -1.0 0.0 3.523847880160247e-13
  outer loop
    vertex 2955.9983866630355 125.25094357202083 7.895405845400247
    vertex 2955.9983866630373 125.25094357202083 9.804594154603944
    vertex 2955.9983866630364 125.53053772662263 10.01913429511111
  endloop
endfacet
facet normal -1.0 0.0 3.523847880160247e-13
  outer loop
    vertex 2955.9983866630355 125.25094357202083 7.895405845400247
    vertex 2955.9983866630364 125.53053772662263 10.01913429511111
    vertex 2955.9983866630428 125.53053772662263 7.680865704893091
  endloop
endfacet
facet normal -1.0 0.0 3.523847880160247e-13
  outer loop
    vertex 2955.9983866630428 125.53053772662263 7.680865704893091
    vertex 2955.9983866630364 125.53053772662263 10.01913429511111
    vertex 2955.9983866630364 125.85613201573419 10.153999865492365
  endloop
endfacet
facet normal -1.0 0.0 3.523847880160247e-13
  outer loop
    vertex 2955.9983866630428 125.53053772662263 7.680865704893091
    vertex 2955.9983866630364 125.85613201573419 10.153999865492365
    vertex 2955.9983866630428 125.85613201573427 7.546000134511837
  endloop
endfacet
facet normal -1.0 0.0 3.523847880160247e-13
  outer loop
    vertex 2955.9983866630428 125.85613201573427 7.546000134511837
    vertex 2955.9983866630364 125.85613201573419 10.153999865492365
    vertex 2955.9983866630364 126.20553772662257 10.200000000002131
  endloop
endfacet
facet normal -1.0 0.0 3.523847880160247e-13
  outer loop
    vertex 2955.9983866630428 125.85613201573427 7.546000134511837
    vertex 2955.9983866630364 126.20553772662257 10.200000000002131
    vertex 2955.998386663035 126.20553772662274 7.500000000002082
  endloop
endfacet
facet normal -1.0 0.0 3.523847880160247e-13
  outer loop
    vertex 2955.998386663035 126.20553772662274 7.500000000002082
    vertex 2955.9983866630364 126.20553772662257 10.200000000002131
    vertex 2955.9983866630364 126.55494343751103 10.153999865492375
  endloop
endfacet
facet normal -1.0 0.0 3.523847880160247e-13
  outer loop
    vertex 2955.998386663035 126.20553772662274 7.500000000002082
    vertex 2955.9983866630364 126.55494343751103 10.153999865492375
    vertex 2955.9983866630428 126.55494343751111 7.546000134511848
  endloop
endfacet
facet normal -1.0 0.0 3.523847880160247e-13
  outer loop
    vertex 2955.9983866630428 126.55494343751111 7.546000134511848
    vertex 2955.9983866630364 126.55494343751103 10.153999865492375
    vertex 2955.9983866630364 126.88053772662268 10.019134295111122
  endloop
endfacet
facet normal -1.0 0.0 3.523847880160247e-13
  outer loop
    vertex 2955.9983866630428 126.55494343751111 7.546000134511848
    vertex 2955.9983866630364 126.88053772662268 10.019134295111122
    vertex 2955.9983866630428 126.88053772662268 7.680865704893103
  endloop
endfacet
facet normal -1.0 0.0 3.523847880160247e-13
  outer loop
    vertex 2955.9983866630428 126.88053772662268 7.680865704893103
    vertex 2955.9983866630364 126.88053772662268 10.019134295111122
    vertex 2955.9983866630373 127.16013188122447 9.804594154603977
  endloop
endfacet
facet normal -1.0 0.0 3.523847880160247e-13
  outer loop
    vertex 2955.9983866630428 126.88053772662268 7.680865704893103
    vertex 2955.9983866630373 127.16013188122447 9.804594154603977
    vertex 2955.9983866630355 127.16013188122447 7.895405845400269
  endloop
endfacet
facet normal -1.0 0.0 3.523847880160247e-13
  outer loop
    vertex 2955.9983866630355 127.16013188122447 7.895405845400269
    vertex 2955.9983866630373 127.16013188122447 9.804594154603977
    vertex 2955.998386663036 127.37467202173168 9.525000000002128
  endloop
endfacet
facet normal -1.0 0.0 3.523847880160247e-13
  outer loop
    vertex 2955.9983866630355 127.16013188122447 7.895405845400269
    vertex 2955.998386663036 127.37467202173168 9.525000000002128
    vertex 2955.9983866630355 127.37467202173168 8.17500000000211
  endloop
endfacet
facet normal -1.0 0.0 3.523847880160247e-13
  outer loop
    vertex 2955.9983866630355 127.37467202173168 8.17500000000211
    vertex 2955.998386663036 127.37467202173168 9.525000000002128
    vertex 2955.998386663036 127.50953759211293 9.199405710890534
  endloop
endfacet
facet normal -1.0 0.0 3.523847880160247e-13
  outer loop
    vertex 2955.9983866630355 127.37467202173168 8.17500000000211
    vertex 2955.998386663036 127.50953759211293 9.199405710890534
    vertex 2955.9983866630355 127.50953759211285 8.500594289113714
  endloop
endfacet
facet normal -1.0 0.0 3.523847880160247e-13
  outer loop
    vertex 2955.9983866630355 127.50953759211285 8.500594289113714
    vertex 2955.998386663036 127.50953759211293 9.199405710890534
    vertex 2955.998386663037 127.5555377266227 8.850000000002124
  endloop
endfacet
facet normal -3.1924848111880087e-14 -0.9958932064677035 -0.0905357460425224
  outer loop
    vertex 2939.9983866630387 122.70553772662254 17.350000000007736
    vertex 2943.9983866630346 123.7055377266226 6.350000000006336
    vertex 2945.998386663039 122.70553772662254 17.350000000005622
  endloop
endfacet
facet normal -3.1924848111880087e-14 -0.9958932064677035 -0.0905357460425224
  outer loop
    vertex 2943.9983866630346 123.7055377266226 6.350000000006336
    vertex 2939.9983866630387 122.70553772662254 17.350000000007736
    vertex 2939.998386663035 123.7055377266226 6.350000000007746
  endloop
endfacet
facet normal -3.5349501104060986e-13 1.7763568393600627e-15 -1.0
  outer loop
    vertex 2918.3483866630404 112.42187409094528 17.350000000015353
    vertex 2924.6983866630403 118.77187409094529 17.35000000001312
    vertex 2924.6983866630403 112.42187409094528 17.35000000001312
  endloop
endfacet
facet normal -3.5349501104060986e-13 1.7763568393600627e-15 -1.0
  outer loop
    vertex 2924.6983866630403 118.77187409094529 17.35000000001312
    vertex 2918.3483866630404 112.42187409094528 17.350000000015353
    vertex 2918.3483866630386 118.77187409094529 17.350000000015378
  endloop
endfacet
facet normal -3.522672349898914e-13 2.0898315757237744e-16 -1.0
  outer loop
    vertex 2969.1483866630388 118.77187409094529 17.349999999997475
    vertex 2963.9983866630387 122.70553772662254 17.34999999999929
    vertex 2969.1483866630388 156.87187409094528 17.349999999997475
  endloop
endfacet
facet normal -3.522672349898914e-13 2.0898315757237744e-16 -1.0
  outer loop
    vertex 2963.9983866630387 122.70553772662254 17.34999999999929
    vertex 2969.1483866630388 118.77187409094529 17.349999999997475
    vertex 2962.7983866630393 118.77187409094529 17.34999999999971
  endloop
endfacet
facet normal -3.522672349898914e-13 2.0898315757237744e-16 -1.0
  outer loop
    vertex 2963.9983866630387 122.70553772662254 17.34999999999929
    vertex 2962.7983866630393 118.77187409094529 17.34999999999971
    vertex 2957.9983866630387 122.70553772662254 17.350000000001412
  endloop
endfacet
facet normal -3.522672349898914e-13 2.0898315757237744e-16 -1.0
  outer loop
    vertex 2957.9983866630387 122.70553772662254 17.350000000001412
    vertex 2962.7983866630393 118.77187409094529 17.34999999999971
    vertex 2962.798386663039 112.42187409094528 17.349999999999714
  endloop
endfacet
facet normal -3.522672349898914e-13 2.0898315757237744e-16 -1.0
  outer loop
    vertex 2957.9983866630387 122.70553772662254 17.350000000001412
    vertex 2962.798386663039 112.42187409094528 17.349999999999714
    vertex 2924.6983866630403 112.42187409094528 17.35000000001312
  endloop
endfacet
facet normal -3.522672349898914e-13 2.0898315757237744e-16 -1.0
  outer loop
    vertex 2957.9983866630387 122.70553772662254 17.350000000001412
    vertex 2924.6983866630403 112.42187409094528 17.35000000001312
    vertex 2957.9983866630387 123.7055377266226 17.350000000001412
  endloop
endfacet
facet normal -3.522672349898914e-13 2.0898315757237744e-16 -1.0
  outer loop
    vertex 2957.9983866630387 123.7055377266226 17.350000000001412
    vertex 2924.6983866630403 112.42187409094528 17.35000000001312
    vertex 2945.998386663039 122.70553772662254 17.350000000005622
  endloop
endfacet
facet normal -3.522672349898914e-13 2.0898315757237744e-16 -1.0
  outer loop
    vertex 2957.9983866630387 123.7055377266226 17.350000000001412
    vertex 2945.998386663039 122.70553772662254 17.350000000005622
    vertex 2947.4983866630387 123.7055377266226 17.350000000005107
  endloop
endfacet
facet normal -3.522672349898914e-13 2.0898315757237744e-16 -1.0
  outer loop
    vertex 2947.4983866630387 123.7055377266226 17.350000000005107
    vertex 2945.998386663039 122.70553772662254 17.350000000005622
    vertex 2947.4983866630387 153.70553772662262 17.350000000005107
  endloop
endfacet
facet normal -3.522672349898914e-13 2.0898315757237744e-16 -1.0
  outer loop
    vertex 2945.998386663039 122.70553772662254 17.350000000005622
    vertex 2924.6983866630403 112.42187409094528 17.35000000001312
    vertex 2939.9983866630387 122.70553772662254 17.350000000007736
  endloop
endfacet
facet normal -3.522672349898914e-13 2.0898315757237744e-16 -1.0
  outer loop
    vertex 2939.9983866630387 122.70553772662254 17.350000000007736
    vertex 2924.6983866630403 112.42187409094528 17.35000000001312
    vertex 2939.9983866630387 123.7055377266226 17.350000000007736
  endloop
endfacet
facet normal -3.522672349898914e-13 2.0898315757237744e-16 -1.0
  outer loop
    vertex 2939.9983866630387 123.7055377266226 17.350000000007736
    vertex 2924.6983866630403 112.42187409094528 17.35000000001312
    vertex 2929.498386663039 123.7055377266226 17.350000000011427
  endloop
endfacet
facet normal -3.522672349898914e-13 2.0898315757237744e-16 -1.0
  outer loop
    vertex 2929.498386663039 123.7055377266226 17.350000000011427
    vertex 2924.6983866630403 112.42187409094528 17.35000000001312
    vertex 2929.498386663039 153.70553772662262 17.350000000011427
  endloop
endfacet
facet normal -3.522672349898914e-13 2.0898315757237744e-16 -1.0
  outer loop
    vertex 2918.3483866630386 118.77187409094529 17.350000000015378
    vertex 2924.698386663039 156.87187409094528 17.350000000013154
    vertex 2924.6983866630403 118.77187409094529 17.35000000001312
  endloop
endfacet
facet normal -3.522672349898914e-13 2.0898315757237744e-16 -1.0
  outer loop
    vertex 2924.698386663039 156.87187409094528 17.350000000013154
    vertex 2918.3483866630386 118.77187409094529 17.350000000015378
    vertex 2918.3483866630386 156.87187409094528 17.350000000015378
  endloop
endfacet
facet normal -3.522672349898914e-13 2.0898315757237744e-16 -1.0
  outer loop
    vertex 2969.1483866630388 156.87187409094528 17.349999999997475
    vertex 2963.9983866630387 129.70553772662268 17.34999999999929
    vertex 2962.798386663039 156.87187409094528 17.34999999999972
  endloop
endfacet
facet normal -3.522672349898914e-13 2.0898315757237744e-16 -1.0
  outer loop
    vertex 2963.9983866630387 129.70553772662268 17.34999999999929
    vertex 2969.1483866630388 156.87187409094528 17.349999999997475
    vertex 2963.9983866630387 122.70553772662254 17.34999999999929
  endloop
endfacet
facet normal -3.522672349898914e-13 2.0898315757237744e-16 -1.0
  outer loop
    vertex 2962.798386663039 156.87187409094528 17.34999999999972
    vertex 2963.9983866630387 129.70553772662268 17.34999999999929
    vertex 2957.9983866630387 129.70553772662268 17.350000000001412
  endloop
endfacet
facet normal -3.522672349898914e-13 2.0898315757237744e-16 -1.0
  outer loop
    vertex 2962.798386663039 156.87187409094528 17.34999999999972
    vertex 2957.9983866630387 129.70553772662268 17.350000000001412
    vertex 2962.798386663039 163.22187409094528 17.349999999999714
  endloop
endfacet
facet normal -3.522672349898914e-13 2.0898315757237744e-16 -1.0
  outer loop
    vertex 2962.798386663039 163.22187409094528 17.349999999999714
    vertex 2957.9983866630387 129.70553772662268 17.350000000001412
    vertex 2957.9983866630387 153.70553772662262 17.350000000001412
  endloop
endfacet
facet normal -3.522672349898914e-13 2.0898315757237744e-16 -1.0
  outer loop
    vertex 2962.798386663039 163.22187409094528 17.349999999999714
    vertex 2957.9983866630387 153.70553772662262 17.350000000001412
    vertex 2924.698386663039 163.22187409094528 17.350000000013132
  endloop
endfacet
facet normal -3.522672349898914e-13 2.0898315757237744e-16 -1.0
  outer loop
    vertex 2924.698386663039 163.22187409094528 17.350000000013132
    vertex 2957.9983866630387 153.70553772662262 17.350000000001412
    vertex 2947.4983866630387 153.70553772662262 17.350000000005107
  endloop
endfacet
facet normal -3.522672349898914e-13 2.0898315757237744e-16 -1.0
  outer loop
    vertex 2924.698386663039 163.22187409094528 17.350000000013132
    vertex 2947.4983866630387 153.70553772662262 17.350000000005107
    vertex 2939.9983866630387 153.70553772662262 17.350000000007736
  endloop
endfacet
facet normal -3.522672349898914e-13 2.0898315757237744e-16 -1.0
  outer loop
    vertex 2939.9983866630387 153.70553772662262 17.350000000007736
    vertex 2947.4983866630387 153.70553772662262 17.350000000005107
    vertex 2945.998386663039 129.70553772662268 17.350000000005622
  endloop
endfacet
facet normal -3.522672349898914e-13 2.0898315757237744e-16 -1.0
  outer loop
    vertex 2945.998386663039 129.70553772662268 17.350000000005622
    vertex 2947.4983866630387 153.70553772662262 17.350000000005107
    vertex 2945.998386663039 122.70553772662254 17.350000000005622
  endloop
endfacet
facet normal -3.522672349898914e-13 2.0898315757237744e-16 -1.0
  outer loop
    vertex 2939.9983866630387 153.70553772662262 17.350000000007736
    vertex 2945.998386663039 129.70553772662268 17.350000000005622
    vertex 2939.9983866630387 129.70553772662268 17.350000000007736
  endloop
endfacet
facet normal -3.522672349898914e-13 2.0898315757237744e-16 -1.0
  outer loop
    vertex 2924.698386663039 163.22187409094528 17.350000000013132
    vertex 2939.9983866630387 153.70553772662262 17.350000000007736
    vertex 2929.498386663039 153.70553772662262 17.350000000011427
  endloop
endfacet
facet normal -3.522672349898914e-13 2.0898315757237744e-16 -1.0
  outer loop
    vertex 2924.698386663039 163.22187409094528 17.350000000013132
    vertex 2929.498386663039 153.70553772662262 17.350000000011427
    vertex 2924.698386663039 156.87187409094528 17.350000000013154
  endloop
endfacet
facet normal -3.522672349898914e-13 2.0898315757237744e-16 -1.0
  outer loop
    vertex 2924.698386663039 156.87187409094528 17.350000000013154
    vertex 2929.498386663039 153.70553772662262 17.350000000011427
    vertex 2924.6983866630403 118.77187409094529 17.35000000001312
  endloop
endfacet
facet normal -3.522672349898914e-13 2.0898315757237744e-16 -1.0
  outer loop
    vertex 2924.6983866630403 118.77187409094529 17.35000000001312
    vertex 2929.498386663039 153.70553772662262 17.350000000011427
    vertex 2924.6983866630403 112.42187409094528 17.35000000001312
  endloop
endfacet
facet normal -3.5216274341109965e-13 4.440892098500626e-16 -1.0
  outer loop
    vertex 2962.798386663039 156.87187409094528 17.34999999999972
    vertex 2969.1483866630388 163.22187409094528 17.349999999997486
    vertex 2969.1483866630388 156.87187409094528 17.349999999997475
  endloop
endfacet
facet normal -3.5216274341109965e-13 4.440892098500626e-16 -1.0
  outer loop
    vertex 2969.1483866630388 163.22187409094528 17.349999999997486
    vertex 2962.798386663039 156.87187409094528 17.34999999999972
    vertex 2962.798386663039 163.22187409094528 17.349999999999714
  endloop
endfacet
facet normal -3.5127456499139953e-13 -1.3322676295501878e-15 -1.0
  outer loop
    vertex 2962.798386663039 112.42187409094528 17.349999999999714
    vertex 2969.1483866630388 118.77187409094529 17.349999999997475
    vertex 2969.148386663039 112.42187409094528 17.349999999997486
  endloop
endfacet
facet normal -3.5127456499139953e-13 -1.3322676295501878e-15 -1.0
  outer loop
    vertex 2969.1483866630388 118.77187409094529 17.349999999997475
    vertex 2962.798386663039 112.42187409094528 17.349999999999714
    vertex 2962.7983866630393 118.77187409094529 17.34999999999971
  endloop
endfacet
facet normal -3.517186542012495e-13 -1.7763568394002505e-15 -1.0
  outer loop
    vertex 2918.3483866630386 156.87187409094528 17.350000000015378
    vertex 2924.698386663039 163.22187409094528 17.350000000013132
    vertex 2924.698386663039 156.87187409094528 17.350000000013154
  endloop
endfacet
facet normal -3.517186542012495e-13 -1.7763568394002505e-15 -1.0
  outer loop
    vertex 2924.698386663039 163.22187409094528 17.350000000013132
    vertex 2918.3483866630386 156.87187409094528 17.350000000015378
    vertex 2918.348386663039 163.22187409094528 17.350000000015378
  endloop
endfacet
endsolid box draft 1
