solid box draft 1
facet normal 3.493700873047864e-13 0.13052619222004283 0.9914448613738116
  outer loop
    vertex 2857.448386663036 126.20553772662265 10.200000000007691
    vertex 2855.448386663036 126.55494343751103 10.153999865498635
    vertex 2855.448386663036 126.20553772662265 10.20000000000839
  endloop
endfacet
facet normal 3.493700873047864e-13 0.13052619222004283 0.9914448613738116
  outer loop
    vertex 2855.448386663036 126.55494343751103 10.153999865498635
    vertex 2857.448386663036 126.20553772662265 10.200000000007691
    vertex 2857.448386663036 126.55494343751103 10.153999865497935
  endloop
endfacet
facet normal 2.7956564864031167e-13 -0.6087614290087957 0.7933533402911775
  outer loop
    vertex 2875.4483866630358 125.25094357202083 9.804594154603198
    vertex 2873.448386663036 125.53053772662263 10.019134295111064
    vertex 2873.448386663036 125.25094357202083 9.804594154603897
  endloop
endfacet
facet normal 2.7956564864031167e-13 -0.6087614290087957 0.7933533402911775
  outer loop
    vertex 2873.448386663036 125.53053772662263 10.019134295111064
    vertex 2875.4483866630358 125.25094357202083 9.804594154603198
    vertex 2875.4483866630358 125.53053772662263 10.019134295110364
  endloop
endfacet
facet normal 0.0 -1.0 0.0
  outer loop
    vertex 2857.4483866630403 152.49928772662264 21.350000000007704
    vertex 2846.948386663039 152.49928772662264 17.350000000011402
    vertex 2857.448386663039 152.49928772662264 17.3500000000077
  endloop
endfacet
facet normal 0.0 -1.0 0.0
  outer loop
    vertex 2846.948386663039 152.49928772662264 17.350000000011402
    vertex 2857.4483866630403 152.49928772662264 21.350000000007704
    vertex 2846.9483866630408 152.49928772662264 21.350000000011406
  endloop
endfacet
facet normal -1.0 0.0 3.523847880160247e-13
  outer loop
    vertex 2836.5921366630405 113.21562409094528 22.350000000015058
    vertex 2836.5921366630387 118.77187409094529 17.350000000015044
    vertex 2836.592136663014 113.21562409094528 -47.499999999984944
  endloop
endfacet
facet normal -1.0 0.0 3.523847880160247e-13
  outer loop
    vertex 2836.5921366630387 118.77187409094529 17.350000000015044
    vertex 2836.5921366630405 113.21562409094528 22.350000000015058
    vertex 2836.5921366630405 162.4281240909453 22.350000000015058
  endloop
endfacet
facet normal -1.0 0.0 3.523847880160247e-13
  outer loop
    vertex 2836.5921366630387 118.77187409094529 17.350000000015044
    vertex 2836.5921366630405 162.4281240909453 22.350000000015058
    vertex 2836.5921366630387 156.87187409094528 17.350000000015044
  endloop
endfacet
facet normal -1.0 0.0 3.523847880160247e-13
  outer loop
    vertex 2836.5921366630387 156.87187409094528 17.350000000015044
    vertex 2836.5921366630405 162.4281240909453 22.350000000015058
    vertex 2836.592136663015 156.87187409094528 -47.49999999998494
  endloop
endfacet
facet normal -1.0 0.0 3.523847880160247e-13
  outer loop
    vertex 2836.592136663015 156.87187409094528 -47.49999999998494
    vertex 2836.5921366630405 162.4281240909453 22.350000000015058
    vertex 2836.592136663015 162.4281240909453 -47.49999999998494
  endloop
endfacet
facet normal -1.0 0.0 3.523847880160247e-13
  outer loop
    vertex 2836.592136663014 118.77187409094529 -47.499999999984944
    vertex 2836.592136663014 113.21562409094528 -47.499999999984944
    vertex 2836.5921366630387 118.77187409094529 17.350000000015044
  endloop
endfacet
facet normal 2.1451826711360558e-13 0.7933533402911586 0.6087614290088208
  outer loop
    vertex 2873.4483866630358 127.37467202173168 9.525000000002091
    vertex 2875.4483866630358 127.16013188122447 9.804594154603231
    vertex 2875.4483866630353 127.37467202173168 9.52500000000138
  endloop
endfacet
facet normal 2.1451826711360558e-13 0.7933533402911586 0.6087614290088208
  outer loop
    vertex 2875.4483866630358 127.16013188122447 9.804594154603231
    vertex 2873.4483866630358 127.37467202173168 9.525000000002091
    vertex 2873.448386663036 127.16013188122447 9.804594154603931
  endloop
endfacet
facet normal 2.1451826711355363e-13 0.7933533402912716 0.6087614290086731
  outer loop
    vertex 2855.4483866630358 127.3746720217316 9.52500000000842
    vertex 2857.448386663036 127.16013188122447 9.804594154609548
    vertex 2857.4483866630358 127.3746720217316 9.52500000000772
  endloop
endfacet
facet normal 2.1451826711355363e-13 0.7933533402912716 0.6087614290086731
  outer loop
    vertex 2857.448386663036 127.16013188122447 9.804594154609548
    vertex 2855.4483866630358 127.3746720217316 9.52500000000842
    vertex 2855.448386663036 127.16013188122447 9.804594154610248
  endloop
endfacet
facet normal -3.2556109321634305e-13 -0.38268343236502633 -0.923879532511313
  outer loop
    vertex 2875.4483866630358 125.85613201573427 7.54600013451109
    vertex 2873.448386663036 125.53053772662263 7.680865704893043
    vertex 2873.448386663036 125.85613201573427 7.5460001345118
  endloop
endfacet
facet normal -3.2556109321634305e-13 -0.38268343236502633 -0.923879532511313
  outer loop
    vertex 2873.448386663036 125.53053772662263 7.680865704893043
    vertex 2875.4483866630358 125.85613201573427 7.54600013451109
    vertex 2875.4483866630358 125.53053772662263 7.680865704892333
  endloop
endfacet
facet normal 0.0 1.0 0.0
  outer loop
    vertex 2836.592136663015 162.4281240909453 -47.49999999998494
    vertex 2842.1483866630388 162.4281240909453 17.350000000013083
    vertex 2842.148386663015 162.4281240909453 -47.49999999998689
  endloop
endfacet
facet normal 0.0 1.0 0.0
  outer loop
    vertex 2842.1483866630388 162.4281240909453 17.350000000013083
    vertex 2836.592136663015 162.4281240909453 -47.49999999998494
    vertex 2836.5921366630405 162.4281240909453 22.350000000015058
  endloop
endfacet
facet normal 0.0 1.0 0.0
  outer loop
    vertex 2842.1483866630388 162.4281240909453 17.350000000013083
    vertex 2836.5921366630405 162.4281240909453 22.350000000015058
    vertex 2885.8046366630406 162.4281240909453 22.34999999999771
  endloop
endfacet
facet normal 0.0 1.0 0.0
  outer loop
    vertex 2880.2483866630155 162.4281240909453 -47.50000000001825
    vertex 2885.8046366630406 162.4281240909453 22.34999999999771
    vertex 2885.804636663015 162.4281240909453 -47.5000000000202
  endloop
endfacet
facet normal 0.0 1.0 0.0
  outer loop
    vertex 2885.8046366630406 162.4281240909453 22.34999999999771
    vertex 2880.2483866630155 162.4281240909453 -47.50000000001825
    vertex 2880.2483866630387 162.4281240909453 17.349999999999657
  endloop
endfacet
facet normal 0.0 1.0 0.0
  outer loop
    vertex 2885.8046366630406 162.4281240909453 22.34999999999771
    vertex 2880.2483866630387 162.4281240909453 17.349999999999657
    vertex 2842.1483866630388 162.4281240909453 17.350000000013083
  endloop
endfacet
facet normal 1.0 8.56218137565019e-30 -3.609557097661307e-13
  outer loop
    vertex 2864.9483866630385 152.49928772662264 17.35000000000505
    vertex 2864.9483866630403 123.7055377266226 22.350000000005053
    vertex 2864.9483866630385 123.7055377266226 17.35000000000505
  endloop
endfacet
facet normal 1.0 8.56218137565019e-30 -3.609557097661307e-13
  outer loop
    vertex 2864.9483866630403 123.7055377266226 22.350000000005053
    vertex 2864.9483866630385 152.49928772662264 17.35000000000505
    vertex 2864.9483866630403 152.49928772662264 22.350000000005053
  endloop
endfacet
facet normal 1.0 8.56218137565019e-30 -3.609557097661307e-13
  outer loop
    vertex 2864.9483866630403 152.49928772662264 22.350000000005053
    vertex 2864.9483866630385 152.49928772662264 17.35000000000505
    vertex 2864.94838666304 152.49928772662264 21.350000000005053
  endloop
endfacet
facet normal -4.599544457600956e-14 -0.9914448613738075 -0.1305261922200737
  outer loop
    vertex 2875.4483866630353 124.8555377266226 8.850000000001343
    vertex 2873.4483866630358 124.90153786113237 8.500594289113632
    vertex 2875.4483866630353 124.90153786113237 8.500594289112922
  endloop
endfacet
facet normal -4.599544457600956e-14 -0.9914448613738075 -0.1305261922200737
  outer loop
    vertex 2873.4483866630358 124.90153786113237 8.500594289113632
    vertex 2875.4483866630353 124.8555377266226 8.850000000001343
    vertex 2873.4483866630358 124.8555377266226 8.850000000002042
  endloop
endfacet
facet normal 2.795629872728366e-13 -0.6087614290086645 0.7933533402912782
  outer loop
    vertex 2857.448386663036 125.25094357202074 9.804594154609514
    vertex 2855.448386663036 125.53053772662263 10.01913429511737
    vertex 2855.448386663036 125.25094357202074 9.804594154610214
  endloop
endfacet
facet normal 2.795629872728366e-13 -0.6087614290086645 0.7933533402912782
  outer loop
    vertex 2855.448386663036 125.53053772662263 10.01913429511737
    vertex 2857.448386663036 125.25094357202074 9.804594154609514
    vertex 2857.448386663036 125.53053772662263 10.01913429511667
  endloop
endfacet
facet normal -3.255610932163269e-13 0.38268343236513735 -0.9238795325112672
  outer loop
    vertex 2857.448386663036 126.88053772662268 7.6808657048987286
    vertex 2855.448386663036 126.55494343751111 7.546000134518184
    vertex 2855.448386663036 126.88053772662268 7.680865704899439
  endloop
endfacet
facet normal -3.255610932163269e-13 0.38268343236513735 -0.9238795325112672
  outer loop
    vertex 2855.448386663036 126.55494343751111 7.546000134518184
    vertex 2857.448386663036 126.88053772662268 7.6808657048987286
    vertex 2857.448386663036 126.55494343751111 7.546000134517474
  endloop
endfacet
facet normal 1.0 0.0 -3.523847880160247e-13
  outer loop
    vertex 2885.804636663015 162.4281240909453 -47.5000000000202
    vertex 2885.8046366630388 156.87187409094528 17.349999999997706
    vertex 2885.804636663015 156.87187409094528 -47.5000000000202
  endloop
endfacet
facet normal 1.0 0.0 -3.523847880160247e-13
  outer loop
    vertex 2885.804636663014 118.77187409094529 -47.5000000000023
    vertex 2885.8046366630406 113.21562409094528 22.34999999999771
    vertex 2885.804636663014 113.21562409094528 -47.5000000000023
  endloop
endfacet
facet normal 1.0 0.0 -3.523847880160247e-13
  outer loop
    vertex 2885.8046366630406 113.21562409094528 22.34999999999771
    vertex 2885.804636663014 118.77187409094529 -47.5000000000023
    vertex 2885.8046366630388 118.77187409094529 17.349999999997706
  endloop
endfacet
facet normal 1.0 0.0 -3.523847880160247e-13
  outer loop
    vertex 2885.8046366630406 113.21562409094528 22.34999999999771
    vertex 2885.8046366630388 118.77187409094529 17.349999999997706
    vertex 2885.8046366630406 162.4281240909453 22.34999999999771
  endloop
endfacet
facet normal 1.0 0.0 -3.523847880160247e-13
  outer loop
    vertex 2885.8046366630406 162.4281240909453 22.34999999999771
    vertex 2885.8046366630388 118.77187409094529 17.349999999997706
    vertex 2885.8046366630388 156.87187409094528 17.349999999997706
  endloop
endfacet
facet normal 1.0 0.0 -3.523847880160247e-13
  outer loop
    vertex 2885.8046366630406 162.4281240909453 22.34999999999771
    vertex 2885.8046366630388 156.87187409094528 17.349999999997706
    vertex 2885.804636663015 162.4281240909453 -47.5000000000202
  endloop
endfacet
facet normal -3.493700873047886e-13 -0.13052619222002151 -0.9914448613738145
  outer loop
    vertex 2875.4483866630358 126.20553772662274 7.500000000001334
    vertex 2873.448386663036 125.85613201573427 7.5460001345118
    vertex 2873.4483866630358 126.20553772662274 7.500000000002034
  endloop
endfacet
facet normal -3.493700873047886e-13 -0.13052619222002151 -0.9914448613738145
  outer loop
    vertex 2873.448386663036 125.85613201573427 7.5460001345118
    vertex 2875.4483866630358 126.20553772662274 7.500000000001334
    vertex 2875.4483866630358 125.85613201573427 7.54600013451109
  endloop
endfacet
facet normal -3.523847880160247e-13 0.0 -1.0
  outer loop
    vertex 2879.448386663035 128.70553772662262 6.349999999999949
    vertex 2875.448386663035 123.7055377266226 6.350000000001359
    vertex 2875.448386663035 128.70553772662262 6.350000000001359
  endloop
endfacet
facet normal -3.523847880160247e-13 0.0 -1.0
  outer loop
    vertex 2875.448386663035 123.7055377266226 6.350000000001359
    vertex 2879.448386663035 128.70553772662262 6.349999999999949
    vertex 2879.448386663035 123.7055377266226 6.349999999999949
  endloop
endfacet
facet normal 0.9838699100998404 1.8261848323668632e-17 -0.17888543820035302
  outer loop
    vertex 2861.448386663035 123.7055377266226 6.350000000006288
    vertex 2863.448386663039 129.70553772662268 17.35000000000559
    vertex 2863.448386663039 122.70553772662254 17.35000000000559
  endloop
endfacet
facet normal 0.9838699100998404 1.8261848323668632e-17 -0.17888543820035302
  outer loop
    vertex 2863.448386663039 129.70553772662268 17.35000000000559
    vertex 2861.448386663035 123.7055377266226 6.350000000006288
    vertex 2861.448386663035 128.70553772662262 6.350000000006288
  endloop
endfacet
facet normal 0.0 -1.0 0.0
  outer loop
    vertex 2885.8046366630406 113.21562409094528 22.34999999999771
    vertex 2880.248386663014 113.21562409094528 -47.50000000000035
    vertex 2885.804636663014 113.21562409094528 -47.5000000000023
  endloop
endfacet
facet normal 0.0 -1.0 0.0
  outer loop
    vertex 2880.248386663014 113.21562409094528 -47.50000000000035
    vertex 2885.8046366630406 113.21562409094528 22.34999999999771
    vertex 2880.2483866630387 113.21562409094528 17.349999999999657
  endloop
endfacet
facet normal 0.0 -1.0 0.0
  outer loop
    vertex 2880.2483866630387 113.21562409094528 17.349999999999657
    vertex 2885.8046366630406 113.21562409094528 22.34999999999771
    vertex 2842.1483866630388 113.21562409094528 17.350000000013093
  endloop
endfacet
facet normal 0.0 -1.0 0.0
  outer loop
    vertex 2842.1483866630388 113.21562409094528 17.350000000013093
    vertex 2836.592136663014 113.21562409094528 -47.499999999984944
    vertex 2842.148386663014 113.21562409094528 -47.499999999986905
  endloop
endfacet
facet normal 0.0 -1.0 0.0
  outer loop
    vertex 2836.592136663014 113.21562409094528 -47.499999999984944
    vertex 2842.1483866630388 113.21562409094528 17.350000000013093
    vertex 2836.5921366630405 113.21562409094528 22.350000000015058
  endloop
endfacet
facet normal 0.0 -1.0 0.0
  outer loop
    vertex 2836.5921366630405 113.21562409094528 22.350000000015058
    vertex 2842.1483866630388 113.21562409094528 17.350000000013093
    vertex 2885.8046366630406 113.21562409094528 22.34999999999771
  endloop
endfacet
facet normal -2.1451826711360828e-13 -0.7933533402911526 -0.6087614290088285
  outer loop
    vertex 2875.4483866630353 125.03640343151362 8.175000000001328
    vertex 2873.4483866630358 125.25094357202083 7.895405845400199
    vertex 2875.4483866630353 125.25094357202083 7.8954058453994875
  endloop
endfacet
facet normal -2.1451826711360828e-13 -0.7933533402911526 -0.6087614290088285
  outer loop
    vertex 2873.4483866630358 125.25094357202083 7.895405845400199
    vertex 2875.4483866630353 125.03640343151362 8.175000000001328
    vertex 2873.4483866630358 125.03640343151362 8.175000000002038
  endloop
endfacet
facet normal 3.255631127127044e-13 0.38268343236501606 0.9238795325113175
  outer loop
    vertex 2857.448386663036 126.55494343751103 10.153999865497935
    vertex 2855.448386663036 126.88053772662268 10.019134295117391
    vertex 2855.448386663036 126.55494343751103 10.153999865498635
  endloop
endfacet
facet normal 3.255631127127044e-13 0.38268343236501606 0.9238795325113175
  outer loop
    vertex 2855.448386663036 126.88053772662268 10.019134295117391
    vertex 2857.448386663036 126.55494343751103 10.153999865497935
    vertex 2857.448386663036 126.88053772662268 10.019134295116693
  endloop
endfacet
facet normal -3.523847880160247e-13 0.0 -1.0
  outer loop
    vertex 2861.448386663035 128.70553772662262 6.350000000006288
    vertex 2857.448386663035 123.7055377266226 6.350000000007698
    vertex 2857.448386663035 128.70553772662262 6.350000000007698
  endloop
endfacet
facet normal -3.523847880160247e-13 0.0 -1.0
  outer loop
    vertex 2857.448386663035 123.7055377266226 6.350000000007698
    vertex 2861.448386663035 128.70553772662262 6.350000000006288
    vertex 2861.448386663035 123.7055377266226 6.350000000006288
  endloop
endfacet
facet normal -1.3485182019121963e-13 -0.9238795325112835 -0.3826834323650976
  outer loop
    vertex 2875.4483866630353 124.90153786113237 8.500594289112922
    vertex 2873.4483866630358 125.03640343151362 8.175000000002038
    vertex 2875.4483866630353 125.03640343151362 8.175000000001328
  endloop
endfacet
facet normal -1.3485182019121963e-13 -0.9238795325112835 -0.3826834323650976
  outer loop
    vertex 2873.4483866630358 125.03640343151362 8.175000000002038
    vertex 2875.4483866630353 124.90153786113237 8.500594289112922
    vertex 2873.4483866630358 124.90153786113237 8.500594289113632
  endloop
endfacet
facet normal 1.3485182019123029e-13 0.9238795325112801 0.3826834323651062
  outer loop
    vertex 2855.4483866630358 127.50953759211285 9.199405710896825
    vertex 2857.4483866630358 127.3746720217316 9.52500000000772
    vertex 2857.4483866630358 127.50953759211285 9.199405710896126
  endloop
endfacet
facet normal 1.3485182019123029e-13 0.9238795325112801 0.3826834323651062
  outer loop
    vertex 2857.4483866630358 127.3746720217316 9.52500000000772
    vertex 2855.4483866630358 127.50953759211285 9.199405710896825
    vertex 2855.4483866630358 127.3746720217316 9.52500000000842
  endloop
endfacet
facet normal -2.7956564864031167e-13 0.6087614290087957 -0.7933533402911775
  outer loop
    vertex 2875.4483866630353 127.16013188122447 7.895405845399522
    vertex 2873.448386663036 126.88053772662268 7.680865704893055
    vertex 2873.4483866630358 127.16013188122447 7.895405845400221
  endloop
endfacet
facet normal -2.7956564864031167e-13 0.6087614290087957 -0.7933533402911775
  outer loop
    vertex 2873.448386663036 126.88053772662268 7.680865704893055
    vertex 2875.4483866630353 127.16013188122447 7.895405845399522
    vertex 2875.4483866630358 126.88053772662268 7.680865704892356
  endloop
endfacet
facet normal -1.0 1.410423403113812e-29 3.609557097661308e-13
  outer loop
    vertex 2875.4483866630408 152.49928772662264 22.35000000000135
    vertex 2875.448386663039 123.7055377266226 17.35000000000135
    vertex 2875.4483866630408 123.7055377266226 22.35000000000135
  endloop
endfacet
facet normal -1.0 1.410423403113812e-29 3.609557097661308e-13
  outer loop
    vertex 2875.448386663039 123.7055377266226 17.35000000000135
    vertex 2875.4483866630408 152.49928772662264 22.35000000000135
    vertex 2875.448386663039 129.70553772662268 17.35000000000135
  endloop
endfacet
facet normal -1.0 1.410423403113812e-29 3.609557097661308e-13
  outer loop
    vertex 2875.448386663039 123.7055377266226 17.35000000000135
    vertex 2875.448386663039 129.70553772662268 17.35000000000135
    vertex 2875.4483866630353 125.03640343151362 9.525000000001347
  endloop
endfacet
facet normal -1.0 1.410423403113812e-29 3.609557097661308e-13
  outer loop
    vertex 2875.448386663039 123.7055377266226 17.35000000000135
    vertex 2875.4483866630353 125.03640343151362 9.525000000001347
    vertex 2875.448386663035 123.7055377266226 6.350000000001359
  endloop
endfacet
facet normal -1.0 1.410423403113812e-29 3.609557097661308e-13
  outer loop
    vertex 2875.448386663035 123.7055377266226 6.350000000001359
    vertex 2875.4483866630353 125.03640343151362 9.525000000001347
    vertex 2875.4483866630353 124.90153786113245 9.199405710889742
  endloop
endfacet
facet normal -1.0 1.410423403113812e-29 3.609557097661308e-13
  outer loop
    vertex 2875.448386663035 123.7055377266226 6.350000000001359
    vertex 2875.4483866630353 124.90153786113245 9.199405710889742
    vertex 2875.4483866630353 124.8555377266226 8.850000000001343
  endloop
endfacet
facet normal -1.0 1.410423403113812e-29 3.609557097661308e-13
  outer loop
    vertex 2875.4483866630353 125.03640343151362 9.525000000001347
    vertex 2875.448386663039 129.70553772662268 17.35000000000135
    vertex 2875.4483866630358 125.25094357202083 9.804594154603198
  endloop
endfacet
facet normal -1.0 1.410423403113812e-29 3.609557097661308e-13
  outer loop
    vertex 2875.4483866630358 125.25094357202083 9.804594154603198
    vertex 2875.448386663039 129.70553772662268 17.35000000000135
    vertex 2875.4483866630358 125.53053772662263 10.019134295110364
  endloop
endfacet
facet normal -1.0 1.410423403113812e-29 3.609557097661308e-13
  outer loop
    vertex 2875.4483866630358 125.53053772662263 10.019134295110364
    vertex 2875.448386663039 129.70553772662268 17.35000000000135
    vertex 2875.4483866630358 125.85613201573419 10.153999865491619
  endloop
endfacet
facet normal -1.0 1.410423403113812e-29 3.609557097661308e-13
  outer loop
    vertex 2875.4483866630358 125.85613201573419 10.153999865491619
    vertex 2875.448386663039 129.70553772662268 17.35000000000135
    vertex 2875.4483866630358 126.20553772662257 10.200000000001385
  endloop
endfacet
facet normal -1.0 1.410423403113812e-29 3.609557097661308e-13
  outer loop
    vertex 2875.4483866630358 126.20553772662257 10.200000000001385
    vertex 2875.448386663039 129.70553772662268 17.35000000000135
    vertex 2875.4483866630358 126.55494343751103 10.153999865491631
  endloop
endfacet
facet normal -1.0 1.410423403113812e-29 3.609557097661308e-13
  outer loop
    vertex 2875.4483866630358 126.55494343751103 10.153999865491631
    vertex 2875.448386663039 129.70553772662268 17.35000000000135
    vertex 2875.4483866630358 126.88053772662268 10.019134295110376
  endloop
endfacet
facet normal -1.0 1.410423403113812e-29 3.609557097661308e-13
  outer loop
    vertex 2875.4483866630358 126.88053772662268 10.019134295110376
    vertex 2875.448386663039 129.70553772662268 17.35000000000135
    vertex 2875.4483866630358 127.16013188122447 9.804594154603231
  endloop
endfacet
facet normal -1.0 1.410423403113812e-29 3.609557097661308e-13
  outer loop
    vertex 2875.4483866630358 127.16013188122447 9.804594154603231
    vertex 2875.448386663039 129.70553772662268 17.35000000000135
    vertex 2875.4483866630353 127.37467202173168 9.52500000000138
  endloop
endfacet
facet normal -1.0 1.410423403113812e-29 3.609557097661308e-13
  outer loop
    vertex 2875.4483866630353 127.37467202173168 9.52500000000138
    vertex 2875.448386663039 129.70553772662268 17.35000000000135
    vertex 2875.4483866630353 127.50953759211293 9.199405710889787
  endloop
endfacet
facet normal -1.0 1.410423403113812e-29 3.609557097661308e-13
  outer loop
    vertex 2875.4483866630353 127.50953759211293 9.199405710889787
    vertex 2875.448386663039 129.70553772662268 17.35000000000135
    vertex 2875.4483866630353 127.5555377266227 8.850000000001376
  endloop
endfacet
facet normal -1.0 1.410423403113812e-29 3.609557097661308e-13
  outer loop
    vertex 2875.4483866630353 127.5555377266227 8.850000000001376
    vertex 2875.448386663039 129.70553772662268 17.35000000000135
    vertex 2875.448386663035 128.70553772662262 6.350000000001359
  endloop
endfacet
facet normal -1.0 1.410423403113812e-29 3.609557097661308e-13
  outer loop
    vertex 2875.448386663039 129.70553772662268 17.35000000000135
    vertex 2875.4483866630408 152.49928772662264 22.35000000000135
    vertex 2875.448386663039 152.49928772662264 17.35000000000135
  endloop
endfacet
facet normal -1.0 1.410423403113812e-29 3.609557097661308e-13
  outer loop
    vertex 2875.448386663039 152.49928772662264 17.35000000000135
    vertex 2875.4483866630408 152.49928772662264 22.35000000000135
    vertex 2875.4483866630403 152.49928772662264 21.350000000001355
  endloop
endfacet
facet normal -1.0 1.410423403113812e-29 3.609557097661308e-13
  outer loop
    vertex 2875.448386663035 123.7055377266226 6.350000000001359
    vertex 2875.4483866630358 125.53053772662263 7.680865704892333
    vertex 2875.448386663035 128.70553772662262 6.350000000001359
  endloop
endfacet
facet normal -1.0 1.410423403113812e-29 3.609557097661308e-13
  outer loop
    vertex 2875.4483866630358 125.53053772662263 7.680865704892333
    vertex 2875.448386663035 123.7055377266226 6.350000000001359
    vertex 2875.4483866630353 125.25094357202083 7.8954058453994875
  endloop
endfacet
facet normal -1.0 1.410423403113812e-29 3.609557097661308e-13
  outer loop
    vertex 2875.4483866630353 125.25094357202083 7.8954058453994875
    vertex 2875.448386663035 123.7055377266226 6.350000000001359
    vertex 2875.4483866630353 125.03640343151362 8.175000000001328
  endloop
endfacet
facet normal -1.0 1.410423403113812e-29 3.609557097661308e-13
  outer loop
    vertex 2875.4483866630353 125.03640343151362 8.175000000001328
    vertex 2875.448386663035 123.7055377266226 6.350000000001359
    vertex 2875.4483866630353 124.90153786113237 8.500594289112922
  endloop
endfacet
facet normal -1.0 1.410423403113812e-29 3.609557097661308e-13
  outer loop
    vertex 2875.4483866630353 124.90153786113237 8.500594289112922
    vertex 2875.448386663035 123.7055377266226 6.350000000001359
    vertex 2875.4483866630353 124.8555377266226 8.850000000001343
  endloop
endfacet
facet normal -1.0 1.410423403113812e-29 3.609557097661308e-13
  outer loop
    vertex 2875.448386663035 128.70553772662262 6.350000000001359
    vertex 2875.4483866630358 125.53053772662263 7.680865704892333
    vertex 2875.4483866630358 125.85613201573427 7.54600013451109
  endloop
endfacet
facet normal -1.0 1.410423403113812e-29 3.609557097661308e-13
  outer loop
    vertex 2875.448386663035 128.70553772662262 6.350000000001359
    vertex 2875.4483866630358 125.85613201573427 7.54600013451109
    vertex 2875.4483866630358 126.20553772662274 7.500000000001334
  endloop
endfacet
facet normal -1.0 1.410423403113812e-29 3.609557097661308e-13
  outer loop
    vertex 2875.448386663035 128.70553772662262 6.350000000001359
    vertex 2875.4483866630358 126.20553772662274 7.500000000001334
    vertex 2875.4483866630358 126.55494343751111 7.546000134511101
  endloop
endfacet
facet normal -1.0 1.410423403113812e-29 3.609557097661308e-13
  outer loop
    vertex 2875.448386663035 128.70553772662262 6.350000000001359
    vertex 2875.4483866630358 126.55494343751111 7.546000134511101
    vertex 2875.4483866630358 126.88053772662268 7.680865704892356
  endloop
endfacet
facet normal -1.0 1.410423403113812e-29 3.609557097661308e-13
  outer loop
    vertex 2875.448386663035 128.70553772662262 6.350000000001359
    vertex 2875.4483866630358 126.88053772662268 7.680865704892356
    vertex 2875.4483866630353 127.16013188122447 7.895405845399522
  endloop
endfacet
facet normal -1.0 1.410423403113812e-29 3.609557097661308e-13
  outer loop
    vertex 2875.448386663035 128.70553772662262 6.350000000001359
    vertex 2875.4483866630353 127.16013188122447 7.895405845399522
    vertex 2875.4483866630353 127.37467202173168 8.175000000001361
  endloop
endfacet
facet normal -1.0 1.410423403113812e-29 3.609557097661308e-13
  outer loop
    vertex 2875.448386663035 128.70553772662262 6.350000000001359
    vertex 2875.4483866630353 127.37467202173168 8.175000000001361
    vertex 2875.4483866630353 127.50953759211285 8.500594289112968
  endloop
endfacet
facet normal -1.0 1.410423403113812e-29 3.609557097661308e-13
  outer loop
    vertex 2875.448386663035 128.70553772662262 6.350000000001359
    vertex 2875.4483866630353 127.50953759211285 8.500594289112968
    vertex 2875.4483866630353 127.5555377266227 8.850000000001376
  endloop
endfacet
facet normal -1.0 1.410423403113812e-29 3.609557097661308e-13
  outer loop
    vertex 2875.448386663035 123.7055377266226 6.350000000001359
    vertex 2875.448386663039 122.70553772662254 17.35000000000135
    vertex 2875.448386663039 123.7055377266226 17.35000000000135
  endloop
endfacet
facet normal -3.2556109321634093e-13 -0.38268343236501945 -0.9238795325113159
  outer loop
    vertex 2857.448386663036 125.85613201573427 7.546000134517462
    vertex 2855.448386663036 125.53053772662263 7.680865704899417
    vertex 2855.448386663036 125.85613201573427 7.546000134518173
  endloop
endfacet
facet normal -3.2556109321634093e-13 -0.38268343236501945 -0.9238795325113159
  outer loop
    vertex 2855.448386663036 125.53053772662263 7.680865704899417
    vertex 2857.448386663036 125.85613201573427 7.546000134517462
    vertex 2857.448386663036 125.53053772662263 7.680865704898706
  endloop
endfacet
facet normal 3.2556109321634254e-13 0.3826834323650298 0.9238795325113117
  outer loop
    vertex 2875.4483866630358 126.55494343751103 10.153999865491631
    vertex 2873.448386663036 126.88053772662268 10.019134295111074
    vertex 2873.448386663036 126.55494343751103 10.15399986549233
  endloop
endfacet
facet normal 3.2556109321634254e-13 0.3826834323650298 0.9238795325113117
  outer loop
    vertex 2873.448386663036 126.88053772662268 10.019134295111074
    vertex 2875.4483866630358 126.55494343751103 10.153999865491631
    vertex 2875.4483866630358 126.88053772662268 10.019134295110376
  endloop
endfacet
facet normal -4.5995444576010676e-14 0.9914448613738073 -0.13052619222007678
  outer loop
    vertex 2855.4483866630353 127.50953759211285 8.500594289120029
    vertex 2857.4483866630358 127.55553772662262 8.850000000007727
    vertex 2857.4483866630353 127.50953759211285 8.500594289119329
  endloop
endfacet
facet normal -4.5995444576010676e-14 0.9914448613738073 -0.13052619222007678
  outer loop
    vertex 2857.4483866630358 127.55553772662262 8.850000000007727
    vertex 2855.4483866630353 127.50953759211285 8.500594289120029
    vertex 2855.4483866630358 127.55553772662262 8.850000000008427
  endloop
endfacet
facet normal -1.3485182019114463e-13 0.9238795325113717 -0.3826834323648848
  outer loop
    vertex 2855.4483866630353 127.37467202173168 8.175000000008433
    vertex 2857.4483866630353 127.50953759211285 8.500594289119329
    vertex 2857.4483866630353 127.37467202173168 8.175000000007735
  endloop
endfacet
facet normal -1.3485182019114463e-13 0.9238795325113717 -0.3826834323648848
  outer loop
    vertex 2857.4483866630353 127.50953759211285 8.500594289119329
    vertex 2855.4483866630353 127.37467202173168 8.175000000008433
    vertex 2855.4483866630353 127.50953759211285 8.500594289120029
  endloop
endfacet
facet normal 3.493700873047875e-13 -0.13052619222004513 0.9914448613738114
  outer loop
    vertex 2857.448386663036 125.85613201573419 10.153999865497925
    vertex 2855.448386663036 126.20553772662265 10.20000000000839
    vertex 2855.448386663036 125.85613201573419 10.153999865498625
  endloop
endfacet
facet normal 3.493700873047875e-13 -0.13052619222004513 0.9914448613738114
  outer loop
    vertex 2855.448386663036 126.20553772662265 10.20000000000839
    vertex 2857.448386663036 125.85613201573419 10.153999865497925
    vertex 2857.448386663036 126.20553772662265 10.200000000007691
  endloop
endfacet
facet normal -1.0 -1.41042340311381e-29 3.609557097661308e-13
  outer loop
    vertex 2857.4483866630408 152.49928772662264 22.350000000007704
    vertex 2857.448386663039 123.7055377266226 17.3500000000077
    vertex 2857.4483866630408 123.7055377266226 22.350000000007704
  endloop
endfacet
facet normal -1.0 -1.41042340311381e-29 3.609557097661308e-13
  outer loop
    vertex 2857.448386663039 123.7055377266226 17.3500000000077
    vertex 2857.4483866630408 152.49928772662264 22.350000000007704
    vertex 2857.448386663039 129.70553772662268 17.3500000000077
  endloop
endfacet
facet normal -1.0 -1.41042340311381e-29 3.609557097661308e-13
  outer loop
    vertex 2857.448386663039 123.7055377266226 17.3500000000077
    vertex 2857.448386663039 129.70553772662268 17.3500000000077
    vertex 2857.4483866630358 125.03640343151362 9.525000000007676
  endloop
endfacet
facet normal -1.0 -1.41042340311381e-29 3.609557097661308e-13
  outer loop
    vertex 2857.448386663039 123.7055377266226 17.3500000000077
    vertex 2857.4483866630358 125.03640343151362 9.525000000007676
    vertex 2857.448386663035 123.7055377266226 6.350000000007698
  endloop
endfacet
facet normal -1.0 -1.41042340311381e-29 3.609557097661308e-13
  outer loop
    vertex 2857.448386663035 123.7055377266226 6.350000000007698
    vertex 2857.4483866630358 125.03640343151362 9.525000000007676
    vertex 2857.4483866630358 124.90153786113245 9.19940571089608
  endloop
endfacet
facet normal -1.0 -1.41042340311381e-29 3.609557097661308e-13
  outer loop
    vertex 2857.448386663035 123.7055377266226 6.350000000007698
    vertex 2857.4483866630358 124.90153786113245 9.19940571089608
    vertex 2857.4483866630358 124.85553772662269 8.850000000007682
  endloop
endfacet
facet normal -1.0 -1.41042340311381e-29 3.609557097661308e-13
  outer loop
    vertex 2857.4483866630358 125.03640343151362 9.525000000007676
    vertex 2857.448386663039 129.70553772662268 17.3500000000077
    vertex 2857.448386663036 125.25094357202074 9.804594154609514
  endloop
endfacet
facet normal -1.0 -1.41042340311381e-29 3.609557097661308e-13
  outer loop
    vertex 2857.448386663036 125.25094357202074 9.804594154609514
    vertex 2857.448386663039 129.70553772662268 17.3500000000077
    vertex 2857.448386663036 125.53053772662263 10.01913429511667
  endloop
endfacet
facet normal -1.0 -1.41042340311381e-29 3.609557097661308e-13
  outer loop
    vertex 2857.448386663036 125.53053772662263 10.01913429511667
    vertex 2857.448386663039 129.70553772662268 17.3500000000077
    vertex 2857.448386663036 125.85613201573419 10.153999865497925
  endloop
endfacet
facet normal -1.0 -1.41042340311381e-29 3.609557097661308e-13
  outer loop
    vertex 2857.448386663036 125.85613201573419 10.153999865497925
    vertex 2857.448386663039 129.70553772662268 17.3500000000077
    vertex 2857.448386663036 126.20553772662265 10.200000000007691
  endloop
endfacet
facet normal -1.0 -1.41042340311381e-29 3.609557097661308e-13
  outer loop
    vertex 2857.448386663036 126.20553772662265 10.200000000007691
    vertex 2857.448386663039 129.70553772662268 17.3500000000077
    vertex 2857.448386663036 126.55494343751103 10.153999865497935
  endloop
endfacet
facet normal -1.0 -1.41042340311381e-29 3.609557097661308e-13
  outer loop
    vertex 2857.448386663036 126.55494343751103 10.153999865497935
    vertex 2857.448386663039 129.70553772662268 17.3500000000077
    vertex 2857.448386663036 126.88053772662268 10.019134295116693
  endloop
endfacet
facet normal -1.0 -1.41042340311381e-29 3.609557097661308e-13
  outer loop
    vertex 2857.448386663036 126.88053772662268 10.019134295116693
    vertex 2857.448386663039 129.70553772662268 17.3500000000077
    vertex 2857.448386663036 127.16013188122447 9.804594154609548
  endloop
endfacet
facet normal -1.0 -1.41042340311381e-29 3.609557097661308e-13
  outer loop
    vertex 2857.448386663036 127.16013188122447 9.804594154609548
    vertex 2857.448386663039 129.70553772662268 17.3500000000077
    vertex 2857.4483866630358 127.3746720217316 9.52500000000772
  endloop
endfacet
facet normal -1.0 -1.41042340311381e-29 3.609557097661308e-13
  outer loop
    vertex 2857.4483866630358 127.3746720217316 9.52500000000772
    vertex 2857.448386663039 129.70553772662268 17.3500000000077
    vertex 2857.4483866630358 127.50953759211285 9.199405710896126
  endloop
endfacet
facet normal -1.0 -1.41042340311381e-29 3.609557097661308e-13
  outer loop
    vertex 2857.4483866630358 127.50953759211285 9.199405710896126
    vertex 2857.448386663039 129.70553772662268 17.3500000000077
    vertex 2857.4483866630358 127.55553772662262 8.850000000007727
  endloop
endfacet
facet normal -1.0 -1.41042340311381e-29 3.609557097661308e-13
  outer loop
    vertex 2857.4483866630358 127.55553772662262 8.850000000007727
    vertex 2857.448386663039 129.70553772662268 17.3500000000077
    vertex 2857.448386663035 128.70553772662262 6.350000000007698
  endloop
endfacet
facet normal -1.0 -1.41042340311381e-29 3.609557097661308e-13
  outer loop
    vertex 2857.448386663039 129.70553772662268 17.3500000000077
    vertex 2857.4483866630408 152.49928772662264 22.350000000007704
    vertex 2857.448386663039 152.49928772662264 17.3500000000077
  endloop
endfacet
facet normal -1.0 -1.41042340311381e-29 3.609557097661308e-13
  outer loop
    vertex 2857.448386663039 152.49928772662264 17.3500000000077
    vertex 2857.4483866630408 152.49928772662264 22.350000000007704
    vertex 2857.4483866630403 152.49928772662264 21.350000000007704
  endloop
endfacet
facet normal -1.0 -1.41042340311381e-29 3.609557097661308e-13
  outer loop
    vertex 2857.448386663035 123.7055377266226 6.350000000007698
    vertex 2857.448386663036 125.53053772662263 7.680865704898706
    vertex 2857.448386663035 128.70553772662262 6.350000000007698
  endloop
endfacet
facet normal -1.0 -1.41042340311381e-29 3.609557097661308e-13
  outer loop
    vertex 2857.448386663036 125.53053772662263 7.680865704898706
    vertex 2857.448386663035 123.7055377266226 6.350000000007698
    vertex 2857.4483866630353 125.25094357202083 7.895405845405861
  endloop
endfacet
facet normal -1.0 -1.41042340311381e-29 3.609557097661308e-13
  outer loop
    vertex 2857.4483866630353 125.25094357202083 7.895405845405861
    vertex 2857.448386663035 123.7055377266226 6.350000000007698
    vertex 2857.4483866630353 125.0364034315137 8.175000000007689
  endloop
endfacet
facet normal -1.0 -1.41042340311381e-29 3.609557097661308e-13
  outer loop
    vertex 2857.4483866630353 125.0364034315137 8.175000000007689
    vertex 2857.448386663035 123.7055377266226 6.350000000007698
    vertex 2857.4483866630353 124.90153786113245 8.500594289119284
  endloop
endfacet
facet normal -1.0 -1.41042340311381e-29 3.609557097661308e-13
  outer loop
    vertex 2857.4483866630353 124.90153786113245 8.500594289119284
    vertex 2857.448386663035 123.7055377266226 6.350000000007698
    vertex 2857.4483866630358 124.85553772662269 8.850000000007682
  endloop
endfacet
facet normal -1.0 -1.41042340311381e-29 3.609557097661308e-13
  outer loop
    vertex 2857.448386663035 128.70553772662262 6.350000000007698
    vertex 2857.448386663036 125.53053772662263 7.680865704898706
    vertex 2857.448386663036 125.85613201573427 7.546000134517462
  endloop
endfacet
facet normal -1.0 -1.41042340311381e-29 3.609557097661308e-13
  outer loop
    vertex 2857.448386663035 128.70553772662262 6.350000000007698
    vertex 2857.448386663036 125.85613201573427 7.546000134517462
    vertex 2857.448386663035 126.20553772662265 7.500000000007718
  endloop
endfacet
facet normal -1.0 -1.41042340311381e-29 3.609557097661308e-13
  outer loop
    vertex 2857.448386663035 128.70553772662262 6.350000000007698
    vertex 2857.448386663035 126.20553772662265 7.500000000007718
    vertex 2857.448386663036 126.55494343751111 7.546000134517474
  endloop
endfacet
facet normal -1.0 -1.41042340311381e-29 3.609557097661308e-13
  outer loop
    vertex 2857.448386663035 128.70553772662262 6.350000000007698
    vertex 2857.448386663036 126.55494343751111 7.546000134517474
    vertex 2857.448386663036 126.88053772662268 7.6808657048987286
  endloop
endfacet
facet normal -1.0 -1.41042340311381e-29 3.609557097661308e-13
  outer loop
    vertex 2857.448386663035 128.70553772662262 6.350000000007698
    vertex 2857.448386663036 126.88053772662268 7.6808657048987286
    vertex 2857.4483866630353 127.16013188122447 7.895405845405895
  endloop
endfacet
facet normal -1.0 -1.41042340311381e-29 3.609557097661308e-13
  outer loop
    vertex 2857.448386663035 128.70553772662262 6.350000000007698
    vertex 2857.4483866630353 127.16013188122447 7.895405845405895
    vertex 2857.4483866630353 127.37467202173168 8.175000000007735
  endloop
endfacet
facet normal -1.0 -1.41042340311381e-29 3.609557097661308e-13
  outer loop
    vertex 2857.448386663035 128.70553772662262 6.350000000007698
    vertex 2857.4483866630353 127.37467202173168 8.175000000007735
    vertex 2857.4483866630353 127.50953759211285 8.500594289119329
  endloop
endfacet
facet normal -1.0 -1.41042340311381e-29 3.609557097661308e-13
  outer loop
    vertex 2857.448386663035 128.70553772662262 6.350000000007698
    vertex 2857.4483866630353 127.50953759211285 8.500594289119329
    vertex 2857.4483866630358 127.55553772662262 8.850000000007727
  endloop
endfacet
facet normal -1.0 -1.41042340311381e-29 3.609557097661308e-13
  outer loop
    vertex 2857.448386663035 123.7055377266226 6.350000000007698
    vertex 2857.448386663039 122.70553772662254 17.3500000000077
    vertex 2857.448386663039 123.7055377266226 17.3500000000077
  endloop
endfacet
facet normal -3.190341967706691e-14 0.9958932064677035 -0.09053574604252243
  outer loop
    vertex 2857.448386663035 128.70553772662262 6.350000000007698
    vertex 2863.448386663039 129.70553772662268 17.35000000000559
    vertex 2861.448386663035 128.70553772662262 6.350000000006288
  endloop
endfacet
facet normal -3.190341967706691e-14 0.9958932064677035 -0.09053574604252243
  outer loop
    vertex 2863.448386663039 129.70553772662268 17.35000000000559
    vertex 2857.448386663035 128.70553772662262 6.350000000007698
    vertex 2857.448386663039 129.70553772662268 17.3500000000077
  endloop
endfacet
facet normal 4.5995444576098625e-14 -0.9914448613737743 0.13052619222032644
  outer loop
    vertex 2875.4483866630353 124.90153786113245 9.199405710889742
    vertex 2873.4483866630358 124.8555377266226 8.850000000002042
    vertex 2875.4483866630353 124.8555377266226 8.850000000001343
  endloop
endfacet
facet normal 4.5995444576098625e-14 -0.9914448613737743 0.13052619222032644
  outer loop
    vertex 2873.4483866630358 124.8555377266226 8.850000000002042
    vertex 2875.4483866630353 124.90153786113245 9.199405710889742
    vertex 2873.4483866630358 124.90153786113245 9.199405710890453
  endloop
endfacet
facet normal 3.4937008730478573e-13 -0.1305261922200822 0.9914448613738064
  outer loop
    vertex 2875.4483866630358 125.85613201573419 10.153999865491619
    vertex 2873.448386663036 126.20553772662257 10.200000000002085
    vertex 2873.448386663036 125.85613201573419 10.153999865492318
  endloop
endfacet
facet normal 3.4937008730478573e-13 -0.1305261922200822 0.9914448613738064
  outer loop
    vertex 2873.448386663036 126.20553772662257 10.200000000002085
    vertex 2875.4483866630358 125.85613201573419 10.153999865491619
    vertex 2875.4483866630358 126.20553772662257 10.200000000001385
  endloop
endfacet
facet normal 0.0 -1.0 0.0
  outer loop
    vertex 2875.4483866630408 152.49928772662264 22.35000000000135
    vertex 2864.94838666304 152.49928772662264 21.350000000005053
    vertex 2875.4483866630403 152.49928772662264 21.350000000001355
  endloop
endfacet
facet normal 0.0 -1.0 0.0
  outer loop
    vertex 2864.94838666304 152.49928772662264 21.350000000005053
    vertex 2875.4483866630408 152.49928772662264 22.35000000000135
    vertex 2864.9483866630403 152.49928772662264 22.350000000005053
  endloop
endfacet
facet normal -1.3485182019114067e-13 0.9238795325113763 -0.3826834323648735
  outer loop
    vertex 2873.4483866630358 127.37467202173168 8.175000000002061
    vertex 2875.4483866630353 127.50953759211285 8.500594289112968
    vertex 2875.4483866630353 127.37467202173168 8.175000000001361
  endloop
endfacet
facet normal -1.3485182019114067e-13 0.9238795325113763 -0.3826834323648735
  outer loop
    vertex 2875.4483866630353 127.50953759211285 8.500594289112968
    vertex 2873.4483866630358 127.37467202173168 8.175000000002061
    vertex 2873.4483866630358 127.50953759211285 8.500594289113666
  endloop
endfacet
facet normal -3.493700873047878e-13 0.13052619222003722 -0.9914448613738123
  outer loop
    vertex 2855.448386663036 126.55494343751111 7.546000134518184
    vertex 2857.448386663035 126.20553772662265 7.500000000007718
    vertex 2855.4483866630353 126.20553772662265 7.500000000008418
  endloop
endfacet
facet normal -3.493700873047878e-13 0.13052619222003722 -0.9914448613738123
  outer loop
    vertex 2857.448386663035 126.20553772662265 7.500000000007718
    vertex 2855.448386663036 126.55494343751111 7.546000134518184
    vertex 2857.448386663036 126.55494343751111 7.546000134517474
  endloop
endfacet
facet normal 0.0 1.0 0.0
  outer loop
    vertex 2864.9483866630385 123.7055377266226 17.35000000000505
    vertex 2875.4483866630408 123.7055377266226 22.35000000000135
    vertex 2875.448386663039 123.7055377266226 17.35000000000135
  endloop
endfacet
facet normal 0.0 1.0 0.0
  outer loop
    vertex 2875.4483866630408 123.7055377266226 22.35000000000135
    vertex 2864.9483866630385 123.7055377266226 17.35000000000505
    vertex 2864.9483866630403 123.7055377266226 22.350000000005053
  endloop
endfacet
facet normal -3.493700873047856e-13 0.13052619222008613 -0.9914448613738059
  outer loop
    vertex 2873.448386663036 126.55494343751111 7.5460001345118
    vertex 2875.4483866630358 126.20553772662274 7.500000000001334
    vertex 2873.4483866630358 126.20553772662274 7.500000000002034
  endloop
endfacet
facet normal -3.493700873047856e-13 0.13052619222008613 -0.9914448613738059
  outer loop
    vertex 2875.4483866630358 126.20553772662274 7.500000000001334
    vertex 2873.448386663036 126.55494343751111 7.5460001345118
    vertex 2875.4483866630358 126.55494343751111 7.546000134511101
  endloop
endfacet
facet normal 4.599544457601102e-14 -0.991444861373807 0.13052619222007783
  outer loop
    vertex 2857.4483866630358 124.90153786113245 9.19940571089608
    vertex 2855.4483866630358 124.85553772662269 8.850000000008382
    vertex 2857.4483866630358 124.85553772662269 8.850000000007682
  endloop
endfacet
facet normal 4.599544457601102e-14 -0.991444861373807 0.13052619222007783
  outer loop
    vertex 2855.4483866630358 124.85553772662269 8.850000000008382
    vertex 2857.4483866630358 124.90153786113245 9.19940571089608
    vertex 2855.4483866630358 124.90153786113245 9.19940571089678
  endloop
endfacet
facet normal 3.493700873047886e-13 0.13052619222002151 0.9914448613738145
  outer loop
    vertex 2875.4483866630358 126.20553772662257 10.200000000001385
    vertex 2873.448386663036 126.55494343751103 10.15399986549233
    vertex 2873.448386663036 126.20553772662257 10.200000000002085
  endloop
endfacet
facet normal 3.493700873047886e-13 0.13052619222002151 0.9914448613738145
  outer loop
    vertex 2873.448386663036 126.55494343751103 10.15399986549233
    vertex 2875.4483866630358 126.20553772662257 10.200000000001385
    vertex 2875.4483866630358 126.55494343751103 10.153999865491631
  endloop
endfacet
facet normal -4.599544457609861e-14 0.9914448613737743 -0.1305261922203264
  outer loop
    vertex 2873.4483866630358 127.50953759211285 8.500594289113666
    vertex 2875.4483866630353 127.5555377266227 8.850000000001376
    vertex 2875.4483866630353 127.50953759211285 8.500594289112968
  endloop
endfacet
facet normal -4.599544457609861e-14 0.9914448613737743 -0.1305261922203264
  outer loop
    vertex 2875.4483866630353 127.5555377266227 8.850000000001376
    vertex 2873.4483866630358 127.50953759211285 8.500594289113666
    vertex 2873.4483866630358 127.5555377266227 8.850000000002076
  endloop
endfacet
facet normal -2.1451826711360417e-13 0.7933533402911613 -0.6087614290088168
  outer loop
    vertex 2873.4483866630358 127.16013188122447 7.895405845400221
    vertex 2875.4483866630353 127.37467202173168 8.175000000001361
    vertex 2875.4483866630353 127.16013188122447 7.895405845399522
  endloop
endfacet
facet normal -2.1451826711360417e-13 0.7933533402911613 -0.6087614290088168
  outer loop
    vertex 2875.4483866630353 127.37467202173168 8.175000000001361
    vertex 2873.4483866630358 127.16013188122447 7.895405845400221
    vertex 2873.4483866630358 127.37467202173168 8.175000000002061
  endloop
endfacet
facet normal 0.0 -1.0 0.0
  outer loop
    vertex 2857.4483866630408 152.49928772662264 22.350000000007704
    vertex 2846.9483866630408 152.49928772662264 21.350000000011406
    vertex 2857.4483866630403 152.49928772662264 21.350000000007704
  endloop
endfacet
facet normal 0.0 -1.0 0.0
  outer loop
    vertex 2846.9483866630408 152.49928772662264 21.350000000011406
    vertex 2857.4483866630408 152.49928772662264 22.350000000007704
    vertex 2846.9483866630408 152.49928772662264 22.350000000011402
  endloop
endfacet
facet normal -1.0 0.0 3.526068326209497e-13
  outer loop
    vertex 2880.2483866630387 162.4281240909453 17.349999999999657
    vertex 2880.2483866630155 156.87187409094528 -47.50000000001825
    vertex 2880.2483866630387 156.87187409094528 17.349999999999657
  endloop
endfacet
facet normal -1.0 0.0 3.526068326209497e-13
  outer loop
    vertex 2880.2483866630155 156.87187409094528 -47.50000000001825
    vertex 2880.2483866630387 162.4281240909453 17.349999999999657
    vertex 2880.2483866630155 162.4281240909453 -47.50000000001825
  endloop
endfacet
facet normal 0.0 -1.0 0.0
  outer loop
    vertex 2885.8046366630388 156.87187409094528 17.349999999997706
    vertex 2880.2483866630155 156.87187409094528 -47.50000000001825
    vertex 2885.804636663015 156.87187409094528 -47.5000000000202
  endloop
endfacet
facet normal 0.0 -1.0 0.0
  outer loop
    vertex 2880.2483866630155 156.87187409094528 -47.50000000001825
    vertex 2885.8046366630388 156.87187409094528 17.349999999997706
    vertex 2880.2483866630387 156.87187409094528 17.349999999999657
  endloop
endfacet
facet normal -3.526068326209497e-13 0.0 -1.0
  outer loop
    vertex 2885.804636663015 162.4281240909453 -47.5000000000202
    vertex 2880.2483866630155 156.87187409094528 -47.50000000001825
    vertex 2880.2483866630155 162.4281240909453 -47.50000000001825
  endloop
endfacet
facet normal -3.526068326209497e-13 0.0 -1.0
  outer loop
    vertex 2880.2483866630155 156.87187409094528 -47.50000000001825
    vertex 2885.804636663015 162.4281240909453 -47.5000000000202
    vertex 2885.804636663015 156.87187409094528 -47.5000000000202
  endloop
endfacet
facet normal -2.1451826711360053e-13 0.7933533402911556 -0.6087614290088247
  outer loop
    vertex 2855.4483866630353 127.16013188122447 7.895405845406594
    vertex 2857.4483866630353 127.37467202173168 8.175000000007735
    vertex 2857.4483866630353 127.16013188122447 7.895405845405895
  endloop
endfacet
facet normal -2.1451826711360053e-13 0.7933533402911556 -0.6087614290088247
  outer loop
    vertex 2857.4483866630353 127.37467202173168 8.175000000007735
    vertex 2855.4483866630353 127.16013188122447 7.895405845406594
    vertex 2855.4483866630353 127.37467202173168 8.175000000008433
  endloop
endfacet
facet normal 0.0 -1.0 0.0
  outer loop
    vertex 2842.1483866630388 156.87187409094528 17.350000000013083
    vertex 2836.592136663015 156.87187409094528 -47.49999999998494
    vertex 2842.148386663015 156.87187409094528 -47.49999999998689
  endloop
endfacet
facet normal 0.0 -1.0 0.0
  outer loop
    vertex 2836.592136663015 156.87187409094528 -47.49999999998494
    vertex 2842.1483866630388 156.87187409094528 17.350000000013083
    vertex 2836.5921366630387 156.87187409094528 17.350000000015044
  endloop
endfacet
facet normal -2.1451826711355285e-13 -0.7933533402912731 -0.6087614290086711
  outer loop
    vertex 2857.4483866630353 125.0364034315137 8.175000000007689
    vertex 2855.4483866630353 125.25094357202083 7.89540584540656
    vertex 2857.4483866630353 125.25094357202083 7.895405845405861
  endloop
endfacet
facet normal -2.1451826711355285e-13 -0.7933533402912731 -0.6087614290086711
  outer loop
    vertex 2855.4483866630353 125.25094357202083 7.89540584540656
    vertex 2857.4483866630353 125.0364034315137 8.175000000007689
    vertex 2855.4483866630353 125.0364034315137 8.1750000000084
  endloop
endfacet
facet normal -3.526068326209497e-13 0.0 -1.0
  outer loop
    vertex 2842.148386663015 162.4281240909453 -47.49999999998689
    vertex 2836.592136663015 156.87187409094528 -47.49999999998494
    vertex 2836.592136663015 162.4281240909453 -47.49999999998494
  endloop
endfacet
facet normal -3.526068326209497e-13 0.0 -1.0
  outer loop
    vertex 2836.592136663015 156.87187409094528 -47.49999999998494
    vertex 2842.148386663015 162.4281240909453 -47.49999999998689
    vertex 2842.148386663015 156.87187409094528 -47.49999999998689
  endloop
endfacet
facet normal 1.0 0.0 -3.526068326209497e-13
  outer loop
    vertex 2842.148386663015 162.4281240909453 -47.49999999998689
    vertex 2842.1483866630388 156.87187409094528 17.350000000013083
    vertex 2842.148386663015 156.87187409094528 -47.49999999998689
  endloop
endfacet
facet normal 1.0 0.0 -3.526068326209497e-13
  outer loop
    vertex 2842.1483866630388 156.87187409094528 17.350000000013083
    vertex 2842.148386663015 162.4281240909453 -47.49999999998689
    vertex 2842.1483866630388 162.4281240909453 17.350000000013083
  endloop
endfacet
facet normal 0.0 1.0 0.0
  outer loop
    vertex 2880.248386663014 118.77187409094529 -47.50000000000035
    vertex 2885.8046366630388 118.77187409094529 17.349999999997706
    vertex 2885.804636663014 118.77187409094529 -47.5000000000023
  endloop
endfacet
facet normal 0.0 1.0 0.0
  outer loop
    vertex 2885.8046366630388 118.77187409094529 17.349999999997706
    vertex 2880.248386663014 118.77187409094529 -47.50000000000035
    vertex 2880.2483866630387 118.77187409094529 17.349999999999657
  endloop
endfacet
facet normal -1.0 0.0 3.526068326209497e-13
  outer loop
    vertex 2880.2483866630387 118.77187409094529 17.349999999999657
    vertex 2880.248386663014 113.21562409094528 -47.50000000000035
    vertex 2880.2483866630387 113.21562409094528 17.349999999999657
  endloop
endfacet
facet normal -1.0 0.0 3.526068326209497e-13
  outer loop
    vertex 2880.248386663014 113.21562409094528 -47.50000000000035
    vertex 2880.2483866630387 118.77187409094529 17.349999999999657
    vertex 2880.248386663014 118.77187409094529 -47.50000000000035
  endloop
endfacet
facet normal -3.526068326209497e-13 0.0 -1.0
  outer loop
    vertex 2885.804636663014 118.77187409094529 -47.5000000000023
    vertex 2880.248386663014 113.21562409094528 -47.50000000000035
    vertex 2880.248386663014 118.77187409094529 -47.50000000000035
  endloop
endfacet
facet normal -3.526068326209497e-13 0.0 -1.0
  outer loop
    vertex 2880.248386663014 113.21562409094528 -47.50000000000035
    vertex 2885.804636663014 118.77187409094529 -47.5000000000023
    vertex 2885.804636663014 113.21562409094528 -47.5000000000023
  endloop
endfacet
facet normal -3.5242593257528346e-13 -9.247479996877783e-17 -1.0
  outer loop
    vertex 2880.2483866630387 162.4281240909453 17.349999999999657
    vertex 2842.1483866630388 156.87187409094528 17.350000000013083
    vertex 2842.1483866630388 162.4281240909453 17.350000000013083
  endloop
endfacet
facet normal -3.5242593257528346e-13 -9.247479996877783e-17 -1.0
  outer loop
    vertex 2842.1483866630388 156.87187409094528 17.350000000013083
    vertex 2880.2483866630387 162.4281240909453 17.349999999999657
    vertex 2846.948386663039 152.49928772662264 17.350000000011402
  endloop
endfacet
facet normal -3.5242593257528346e-13 -9.247479996877783e-17 -1.0
  outer loop
    vertex 2842.1483866630388 156.87187409094528 17.350000000013083
    vertex 2846.948386663039 152.49928772662264 17.350000000011402
    vertex 2842.1483866630388 118.77187409094529 17.350000000013093
  endloop
endfacet
facet normal -3.5242593257528346e-13 -9.247479996877783e-17 -1.0
  outer loop
    vertex 2842.1483866630388 118.77187409094529 17.350000000013093
    vertex 2846.948386663039 152.49928772662264 17.350000000011402
    vertex 2842.1483866630388 113.21562409094528 17.350000000013093
  endloop
endfacet
facet normal -3.5242593257528346e-13 -9.247479996877783e-17 -1.0
  outer loop
    vertex 2846.948386663039 152.49928772662264 17.350000000011402
    vertex 2880.2483866630387 162.4281240909453 17.349999999999657
    vertex 2857.448386663039 152.49928772662264 17.3500000000077
  endloop
endfacet
facet normal -3.5242593257528346e-13 -9.247479996877783e-17 -1.0
  outer loop
    vertex 2857.448386663039 152.49928772662264 17.3500000000077
    vertex 2880.2483866630387 162.4281240909453 17.349999999999657
    vertex 2864.9483866630385 152.49928772662264 17.35000000000505
  endloop
endfacet
facet normal -3.5242593257528346e-13 -9.247479996877783e-17 -1.0
  outer loop
    vertex 2857.448386663039 152.49928772662264 17.3500000000077
    vertex 2864.9483866630385 152.49928772662264 17.35000000000505
    vertex 2857.448386663039 129.70553772662268 17.3500000000077
  endloop
endfacet
facet normal -3.5242593257528346e-13 -9.247479996877783e-17 -1.0
  outer loop
    vertex 2857.448386663039 129.70553772662268 17.3500000000077
    vertex 2864.9483866630385 152.49928772662264 17.35000000000505
    vertex 2863.448386663039 129.70553772662268 17.35000000000559
  endloop
endfacet
facet normal -3.5242593257528346e-13 -9.247479996877783e-17 -1.0
  outer loop
    vertex 2863.448386663039 129.70553772662268 17.35000000000559
    vertex 2864.9483866630385 152.49928772662264 17.35000000000505
    vertex 2863.448386663039 122.70553772662254 17.35000000000559
  endloop
endfacet
facet normal -3.5242593257528346e-13 -9.247479996877783e-17 -1.0
  outer loop
    vertex 2864.9483866630385 152.49928772662264 17.35000000000505
    vertex 2880.2483866630387 162.4281240909453 17.349999999999657
    vertex 2875.448386663039 152.49928772662264 17.35000000000135
  endloop
endfacet
facet normal -3.5242593257528346e-13 -9.247479996877783e-17 -1.0
  outer loop
    vertex 2875.448386663039 152.49928772662264 17.35000000000135
    vertex 2880.2483866630387 162.4281240909453 17.349999999999657
    vertex 2875.448386663039 129.70553772662268 17.35000000000135
  endloop
endfacet
facet normal -3.5242593257528346e-13 -9.247479996877783e-17 -1.0
  outer loop
    vertex 2875.448386663039 129.70553772662268 17.35000000000135
    vertex 2880.2483866630387 162.4281240909453 17.349999999999657
    vertex 2880.2483866630387 156.87187409094528 17.349999999999657
  endloop
endfacet
facet normal -3.5242593257528346e-13 -9.247479996877783e-17 -1.0
  outer loop
    vertex 2875.448386663039 129.70553772662268 17.35000000000135
    vertex 2880.2483866630387 156.87187409094528 17.349999999999657
    vertex 2881.4483866630385 129.70553772662268 17.34999999999924
  endloop
endfacet
facet normal -3.5242593257528346e-13 -9.247479996877783e-17 -1.0
  outer loop
    vertex 2881.4483866630385 129.70553772662268 17.34999999999924
    vertex 2880.2483866630387 156.87187409094528 17.349999999999657
    vertex 2885.8046366630388 156.87187409094528 17.349999999997706
  endloop
endfacet
facet normal -3.5242593257528346e-13 -9.247479996877783e-17 -1.0
  outer loop
    vertex 2881.4483866630385 129.70553772662268 17.34999999999924
    vertex 2885.8046366630388 156.87187409094528 17.349999999997706
    vertex 2881.4483866630385 122.70553772662254 17.34999999999924
  endloop
endfacet
facet normal -3.5242593257528346e-13 -9.247479996877783e-17 -1.0
  outer loop
    vertex 2881.4483866630385 122.70553772662254 17.34999999999924
    vertex 2880.2483866630387 118.77187409094529 17.349999999999657
    vertex 2875.448386663039 122.70553772662254 17.35000000000135
  endloop
endfacet
facet normal -3.5242593257528346e-13 -9.247479996877783e-17 -1.0
  outer loop
    vertex 2880.2483866630387 118.77187409094529 17.349999999999657
    vertex 2881.4483866630385 122.70553772662254 17.34999999999924
    vertex 2885.8046366630388 118.77187409094529 17.349999999997706
  endloop
endfacet
facet normal -3.5242593257528346e-13 -9.247479996877783e-17 -1.0
  outer loop
    vertex 2885.8046366630388 118.77187409094529 17.349999999997706
    vertex 2881.4483866630385 122.70553772662254 17.34999999999924
    vertex 2885.8046366630388 156.87187409094528 17.349999999997706
  endloop
endfacet
facet normal -3.5242593257528346e-13 -9.247479996877783e-17 -1.0
  outer loop
    vertex 2842.1483866630388 113.21562409094528 17.350000000013093
    vertex 2846.948386663039 123.7055377266226 17.350000000011402
    vertex 2880.2483866630387 113.21562409094528 17.349999999999657
  endloop
endfacet
facet normal -3.5242593257528346e-13 -9.247479996877783e-17 -1.0
  outer loop
    vertex 2846.948386663039 123.7055377266226 17.350000000011402
    vertex 2842.1483866630388 113.21562409094528 17.350000000013093
    vertex 2846.948386663039 152.49928772662264 17.350000000011402
  endloop
endfacet
facet normal -3.5242593257528346e-13 -9.247479996877783e-17 -1.0
  outer loop
    vertex 2880.2483866630387 113.21562409094528 17.349999999999657
    vertex 2846.948386663039 123.7055377266226 17.350000000011402
    vertex 2857.448386663039 122.70553772662254 17.3500000000077
  endloop
endfacet
facet normal -3.5242593257528346e-13 -9.247479996877783e-17 -1.0
  outer loop
    vertex 2857.448386663039 122.70553772662254 17.3500000000077
    vertex 2846.948386663039 123.7055377266226 17.350000000011402
    vertex 2857.448386663039 123.7055377266226 17.3500000000077
  endloop
endfacet
facet normal -3.5242593257528346e-13 -9.247479996877783e-17 -1.0
  outer loop
    vertex 2880.2483866630387 113.21562409094528 17.349999999999657
    vertex 2857.448386663039 122.70553772662254 17.3500000000077
    vertex 2863.448386663039 122.70553772662254 17.35000000000559
  endloop
endfacet
facet normal -3.5242593257528346e-13 -9.247479996877783e-17 -1.0
  outer loop
    vertex 2880.2483866630387 113.21562409094528 17.349999999999657
    vertex 2863.448386663039 122.70553772662254 17.35000000000559
    vertex 2864.9483866630385 123.7055377266226 17.35000000000505
  endloop
endfacet
facet normal -3.5242593257528346e-13 -9.247479996877783e-17 -1.0
  outer loop
    vertex 2864.9483866630385 123.7055377266226 17.35000000000505
    vertex 2863.448386663039 122.70553772662254 17.35000000000559
    vertex 2864.9483866630385 152.49928772662264 17.35000000000505
  endloop
endfacet
facet normal -3.5242593257528346e-13 -9.247479996877783e-17 -1.0
  outer loop
    vertex 2880.2483866630387 113.21562409094528 17.349999999999657
    vertex 2864.9483866630385 123.7055377266226 17.35000000000505
    vertex 2875.448386663039 122.70553772662254 17.35000000000135
  endloop
endfacet
facet normal -3.5242593257528346e-13 -9.247479996877783e-17 -1.0
  outer loop
    vertex 2875.448386663039 122.70553772662254 17.35000000000135
    vertex 2864.9483866630385 123.7055377266226 17.35000000000505
    vertex 2875.448386663039 123.7055377266226 17.35000000000135
  endloop
endfacet
facet normal -3.5242593257528346e-13 -9.247479996877783e-17 -1.0
  outer loop
    vertex 2880.2483866630387 113.21562409094528 17.349999999999657
    vertex 2875.448386663039 122.70553772662254 17.35000000000135
    vertex 2880.2483866630387 118.77187409094529 17.349999999999657
  endloop
endfacet
facet normal -3.5242593257528346e-13 -9.247479996877783e-17 -1.0
  outer loop
    vertex 2842.1483866630388 156.87187409094528 17.350000000013083
    vertex 2836.5921366630387 118.77187409094529 17.350000000015044
    vertex 2836.5921366630387 156.87187409094528 17.350000000015044
  endloop
endfacet
facet normal -3.5242593257528346e-13 -9.247479996877783e-17 -1.0
  outer loop
    vertex 2836.5921366630387 118.77187409094529 17.350000000015044
    vertex 2842.1483866630388 156.87187409094528 17.350000000013083
    vertex 2842.1483866630388 118.77187409094529 17.350000000013093
  endloop
endfacet
facet normal 0.0 1.0 0.0
  outer loop
    vertex 2846.948386663039 123.7055377266226 17.350000000011402
    vertex 2857.4483866630408 123.7055377266226 22.350000000007704
    vertex 2857.448386663039 123.7055377266226 17.3500000000077
  endloop
endfacet
facet normal 0.0 1.0 0.0
  outer loop
    vertex 2857.4483866630408 123.7055377266226 22.350000000007704
    vertex 2846.948386663039 123.7055377266226 17.350000000011402
    vertex 2846.9483866630408 123.7055377266226 22.350000000011402
  endloop
endfacet
facet normal 2.795656486403185e-13 0.6087614290087706 0.7933533402911969
  outer loop
    vertex 2857.448386663036 126.88053772662268 10.019134295116693
    vertex 2855.448386663036 127.16013188122447 9.804594154610248
    vertex 2855.448386663036 126.88053772662268 10.019134295117391
  endloop
endfacet
facet normal 2.795656486403185e-13 0.6087614290087706 0.7933533402911969
  outer loop
    vertex 2855.448386663036 127.16013188122447 9.804594154610248
    vertex 2857.448386663036 126.88053772662268 10.019134295116693
    vertex 2857.448386663036 127.16013188122447 9.804594154609548
  endloop
endfacet
facet normal -3.255610932163269e-13 0.38268343236513735 -0.9238795325112672
  outer loop
    vertex 2875.4483866630358 126.88053772662268 7.680865704892356
    vertex 2873.448386663036 126.55494343751111 7.5460001345118
    vertex 2873.448386663036 126.88053772662268 7.680865704893055
  endloop
endfacet
facet normal -3.255610932163269e-13 0.38268343236513735 -0.9238795325112672
  outer loop
    vertex 2873.448386663036 126.55494343751111 7.5460001345118
    vertex 2875.4483866630358 126.88053772662268 7.680865704892356
    vertex 2875.4483866630358 126.55494343751111 7.546000134511101
  endloop
endfacet
facet normal -3.493700873047888e-13 -0.13052619222003892 -0.991444861373812
  outer loop
    vertex 2857.448386663035 126.20553772662265 7.500000000007718
    vertex 2855.448386663036 125.85613201573427 7.546000134518173
    vertex 2855.4483866630353 126.20553772662265 7.500000000008418
  endloop
endfacet
facet normal -3.493700873047888e-13 -0.13052619222003892 -0.991444861373812
  outer loop
    vertex 2855.448386663036 125.85613201573427 7.546000134518173
    vertex 2857.448386663035 126.20553772662265 7.500000000007718
    vertex 2857.448386663036 125.85613201573427 7.546000134517462
  endloop
endfacet
facet normal 2.7956564864031647e-13 0.6087614290087782 0.7933533402911911
  outer loop
    vertex 2875.4483866630358 126.88053772662268 10.019134295110376
    vertex 2873.448386663036 127.16013188122447 9.804594154603931
    vertex 2873.448386663036 126.88053772662268 10.019134295111074
  endloop
endfacet
facet normal 2.7956564864031647e-13 0.6087614290087782 0.7933533402911911
  outer loop
    vertex 2873.448386663036 127.16013188122447 9.804594154603931
    vertex 2875.4483866630358 126.88053772662268 10.019134295110376
    vertex 2875.4483866630358 127.16013188122447 9.804594154603231
  endloop
endfacet
facet normal -3.1910562488671304e-14 0.9958932064677035 -0.09053574604252242
  outer loop
    vertex 2875.448386663035 128.70553772662262 6.350000000001359
    vertex 2881.4483866630385 129.70553772662268 17.34999999999924
    vertex 2879.448386663035 128.70553772662262 6.349999999999949
  endloop
endfacet
facet normal -3.1910562488671304e-14 0.9958932064677035 -0.09053574604252242
  outer loop
    vertex 2881.4483866630385 129.70553772662268 17.34999999999924
    vertex 2875.448386663035 128.70553772662262 6.350000000001359
    vertex 2875.448386663039 129.70553772662268 17.35000000000135
  endloop
endfacet
facet normal 1.3485182019114166e-13 -0.9238795325113752 0.3826834323648763
  outer loop
    vertex 2875.4483866630353 125.03640343151362 9.525000000001347
    vertex 2873.4483866630358 124.90153786113245 9.199405710890453
    vertex 2875.4483866630353 124.90153786113245 9.199405710889742
  endloop
endfacet
facet normal 1.3485182019114166e-13 -0.9238795325113752 0.3826834323648763
  outer loop
    vertex 2873.4483866630358 124.90153786113245 9.199405710890453
    vertex 2875.4483866630353 125.03640343151362 9.525000000001347
    vertex 2873.4483866630358 125.03640343151362 9.525000000002047
  endloop
endfacet
facet normal 3.2556109321632634e-13 -0.38268343236514074 0.9238795325112656
  outer loop
    vertex 2875.4483866630358 125.53053772662263 10.019134295110364
    vertex 2873.448386663036 125.85613201573419 10.153999865492318
    vertex 2873.448386663036 125.53053772662263 10.019134295111064
  endloop
endfacet
facet normal 3.2556109321632634e-13 -0.38268343236514074 0.9238795325112656
  outer loop
    vertex 2873.448386663036 125.85613201573419 10.153999865492318
    vertex 2875.4483866630358 125.53053772662263 10.019134295110364
    vertex 2875.4483866630358 125.85613201573419 10.153999865491619
  endloop
endfacet
facet normal 4.599544457601102e-14 0.991444861373807 0.13052619222007783
  outer loop
    vertex 2855.4483866630358 127.55553772662262 8.850000000008427
    vertex 2857.4483866630358 127.50953759211285 9.199405710896126
    vertex 2857.4483866630358 127.55553772662262 8.850000000007727
  endloop
endfacet
facet normal 4.599544457601102e-14 0.991444861373807 0.13052619222007783
  outer loop
    vertex 2857.4483866630358 127.50953759211285 9.199405710896126
    vertex 2855.4483866630358 127.55553772662262 8.850000000008427
    vertex 2855.4483866630358 127.50953759211285 9.199405710896825
  endloop
endfacet
facet normal -1.0 0.0 3.523847880160247e-13
  outer loop
    vertex 2855.4483866630358 124.90153786113245 9.19940571089678
    vertex 2855.4483866630353 124.90153786113245 8.500594289119983
    vertex 2855.4483866630358 124.85553772662269 8.850000000008382
  endloop
endfacet
facet normal -1.0 0.0 3.523847880160247e-13
  outer loop
    vertex 2855.4483866630353 124.90153786113245 8.500594289119983
    vertex 2855.4483866630358 124.90153786113245 9.19940571089678
    vertex 2855.4483866630358 125.03640343151362 9.525000000008374
  endloop
endfacet
facet normal -1.0 0.0 3.523847880160247e-13
  outer loop
    vertex 2855.4483866630353 124.90153786113245 8.500594289119983
    vertex 2855.4483866630358 125.03640343151362 9.525000000008374
    vertex 2855.4483866630353 125.0364034315137 8.1750000000084
  endloop
endfacet
facet normal -1.0 0.0 3.523847880160247e-13
  outer loop
    vertex 2855.4483866630353 125.0364034315137 8.1750000000084
    vertex 2855.4483866630358 125.03640343151362 9.525000000008374
    vertex 2855.448386663036 125.25094357202074 9.804594154610214
  endloop
endfacet
facet normal -1.0 0.0 3.523847880160247e-13
  outer loop
    vertex 2855.4483866630353 125.0364034315137 8.1750000000084
    vertex 2855.448386663036 125.25094357202074 9.804594154610214
    vertex 2855.4483866630353 125.25094357202083 7.89540584540656
  endloop
endfacet
facet normal -1.0 0.0 3.523847880160247e-13
  outer loop
    vertex 2855.4483866630353 125.25094357202083 7.89540584540656
    vertex 2855.448386663036 125.25094357202074 9.804594154610214
    vertex 2855.448386663036 125.53053772662263 10.01913429511737
  endloop
endfacet
facet normal -1.0 0.0 3.523847880160247e-13
  outer loop
    vertex 2855.4483866630353 125.25094357202083 7.89540584540656
    vertex 2855.448386663036 125.53053772662263 10.01913429511737
    vertex 2855.448386663036 125.53053772662263 7.680865704899417
  endloop
endfacet
facet normal -1.0 0.0 3.523847880160247e-13
  outer loop
    vertex 2855.448386663036 125.53053772662263 7.680865704899417
    vertex 2855.448386663036 125.53053772662263 10.01913429511737
    vertex 2855.448386663036 125.85613201573419 10.153999865498625
  endloop
endfacet
facet normal -1.0 0.0 3.523847880160247e-13
  outer loop
    vertex 2855.448386663036 125.53053772662263 7.680865704899417
    vertex 2855.448386663036 125.85613201573419 10.153999865498625
    vertex 2855.448386663036 125.85613201573427 7.546000134518173
  endloop
endfacet
facet normal -1.0 0.0 3.523847880160247e-13
  outer loop
    vertex 2855.448386663036 125.85613201573427 7.546000134518173
    vertex 2855.448386663036 125.85613201573419 10.153999865498625
    vertex 2855.448386663036 126.20553772662265 10.20000000000839
  endloop
endfacet
facet normal -1.0 0.0 3.523847880160247e-13
  outer loop
    vertex 2855.448386663036 125.85613201573427 7.546000134518173
    vertex 2855.448386663036 126.20553772662265 10.20000000000839
    vertex 2855.4483866630353 126.20553772662265 7.500000000008418
  endloop
endfacet
facet normal -1.0 0.0 3.523847880160247e-13
  outer loop
    vertex 2855.4483866630353 126.20553772662265 7.500000000008418
    vertex 2855.448386663036 126.20553772662265 10.20000000000839
    vertex 2855.448386663036 126.55494343751103 10.153999865498635
  endloop
endfacet
facet normal -1.0 0.0 3.523847880160247e-13
  outer loop
    vertex 2855.4483866630353 126.20553772662265 7.500000000008418
    vertex 2855.448386663036 126.55494343751103 10.153999865498635
    vertex 2855.448386663036 126.55494343751111 7.546000134518184
  endloop
endfacet
facet normal -1.0 0.0 3.523847880160247e-13
  outer loop
    vertex 2855.448386663036 126.55494343751111 7.546000134518184
    vertex 2855.448386663036 126.55494343751103 10.153999865498635
    vertex 2855.448386663036 126.88053772662268 10.019134295117391
  endloop
endfacet
facet normal -1.0 0.0 3.523847880160247e-13
  outer loop
    vertex 2855.448386663036 126.55494343751111 7.546000134518184
    vertex 2855.448386663036 126.88053772662268 10.019134295117391
    vertex 2855.448386663036 126.88053772662268 7.680865704899439
  endloop
endfacet
facet normal -1.0 0.0 3.523847880160247e-13
  outer loop
    vertex 2855.448386663036 126.88053772662268 7.680865704899439
    vertex 2855.448386663036 126.88053772662268 10.019134295117391
    vertex 2855.448386663036 127.16013188122447 9.804594154610248
  endloop
endfacet
facet normal -1.0 0.0 3.523847880160247e-13
  outer loop
    vertex 2855.448386663036 126.88053772662268 7.680865704899439
    vertex 2855.448386663036 127.16013188122447 9.804594154610248
    vertex 2855.4483866630353 127.16013188122447 7.895405845406594
  endloop
endfacet
facet normal -1.0 0.0 3.523847880160247e-13
  outer loop
    vertex 2855.4483866630353 127.16013188122447 7.895405845406594
    vertex 2855.448386663036 127.16013188122447 9.804594154610248
    vertex 2855.4483866630358 127.3746720217316 9.52500000000842
  endloop
endfacet
facet normal -1.0 0.0 3.523847880160247e-13
  outer loop
    vertex 2855.4483866630353 127.16013188122447 7.895405845406594
    vertex 2855.4483866630358 127.3746720217316 9.52500000000842
    vertex 2855.4483866630353 127.37467202173168 8.175000000008433
  endloop
endfacet
facet normal -1.0 0.0 3.523847880160247e-13
  outer loop
    vertex 2855.4483866630353 127.37467202173168 8.175000000008433
    vertex 2855.4483866630358 127.3746720217316 9.52500000000842
    vertex 2855.4483866630358 127.50953759211285 9.199405710896825
  endloop
endfacet
facet normal -1.0 0.0 3.523847880160247e-13
  outer loop
    vertex 2855.4483866630353 127.37467202173168 8.175000000008433
    vertex 2855.4483866630358 127.50953759211285 9.199405710896825
    vertex 2855.4483866630353 127.50953759211285 8.500594289120029
  endloop
endfacet
facet normal -1.0 0.0 3.523847880160247e-13
  outer loop
    vertex 2855.4483866630353 127.50953759211285 8.500594289120029
    vertex 2855.4483866630358 127.50953759211285 9.199405710896825
    vertex 2855.4483866630358 127.55553772662262 8.850000000008427
  endloop
endfacet
facet normal 2.1451826711360288e-13 -0.7933533402911644 0.6087614290088131
  outer loop
    vertex 2875.4483866630358 125.25094357202083 9.804594154603198
    vertex 2873.4483866630358 125.03640343151362 9.525000000002047
    vertex 2875.4483866630353 125.03640343151362 9.525000000001347
  endloop
endfacet
facet normal 2.1451826711360288e-13 -0.7933533402911644 0.6087614290088131
  outer loop
    vertex 2873.4483866630358 125.03640343151362 9.525000000002047
    vertex 2875.4483866630358 125.25094357202083 9.804594154603198
    vertex 2873.448386663036 125.25094357202083 9.804594154603897
  endloop
endfacet
facet normal -2.7956564864031834e-13 -0.6087614290087705 -0.793353340291197
  outer loop
    vertex 2855.448386663036 125.53053772662263 7.680865704899417
    vertex 2857.4483866630353 125.25094357202083 7.895405845405861
    vertex 2855.4483866630353 125.25094357202083 7.89540584540656
  endloop
endfacet
facet normal -2.7956564864031834e-13 -0.6087614290087705 -0.793353340291197
  outer loop
    vertex 2857.4483866630353 125.25094357202083 7.895405845405861
    vertex 2855.448386663036 125.53053772662263 7.680865704899417
    vertex 2857.448386663036 125.53053772662263 7.680865704898706
  endloop
endfacet
facet normal -2.795656486403129e-13 0.6087614290087908 -0.7933533402911814
  outer loop
    vertex 2857.4483866630353 127.16013188122447 7.895405845405895
    vertex 2855.448386663036 126.88053772662268 7.680865704899439
    vertex 2855.4483866630353 127.16013188122447 7.895405845406594
  endloop
endfacet
facet normal -2.795656486403129e-13 0.6087614290087908 -0.7933533402911814
  outer loop
    vertex 2855.448386663036 126.88053772662268 7.680865704899439
    vertex 2857.4483866630353 127.16013188122447 7.895405845405895
    vertex 2857.448386663036 126.88053772662268 7.6808657048987286
  endloop
endfacet
facet normal 0.0 -1.0 0.0
  outer loop
    vertex 2875.4483866630403 152.49928772662264 21.350000000001355
    vertex 2864.9483866630385 152.49928772662264 17.35000000000505
    vertex 2875.448386663039 152.49928772662264 17.35000000000135
  endloop
endfacet
facet normal 0.0 -1.0 0.0
  outer loop
    vertex 2864.9483866630385 152.49928772662264 17.35000000000505
    vertex 2875.4483866630403 152.49928772662264 21.350000000001355
    vertex 2864.94838666304 152.49928772662264 21.350000000005053
  endloop
endfacet
facet normal -1.348518201912161e-13 -0.923879532511279 -0.38268343236510904
  outer loop
    vertex 2857.4483866630353 124.90153786113245 8.500594289119284
    vertex 2855.4483866630353 125.0364034315137 8.1750000000084
    vertex 2857.4483866630353 125.0364034315137 8.175000000007689
  endloop
endfacet
facet normal -1.348518201912161e-13 -0.923879532511279 -0.38268343236510904
  outer loop
    vertex 2855.4483866630353 125.0364034315137 8.1750000000084
    vertex 2857.4483866630353 124.90153786113245 8.500594289119284
    vertex 2855.4483866630353 124.90153786113245 8.500594289119983
  endloop
endfacet
facet normal -2.7956564864031445e-13 -0.6087614290087857 -0.7933533402911854
  outer loop
    vertex 2873.448386663036 125.53053772662263 7.680865704893043
    vertex 2875.4483866630353 125.25094357202083 7.8954058453994875
    vertex 2873.4483866630358 125.25094357202083 7.895405845400199
  endloop
endfacet
facet normal -2.7956564864031445e-13 -0.6087614290087857 -0.7933533402911854
  outer loop
    vertex 2875.4483866630353 125.25094357202083 7.8954058453994875
    vertex 2873.448386663036 125.53053772662263 7.680865704893043
    vertex 2875.4483866630358 125.53053772662263 7.680865704892333
  endloop
endfacet
facet normal -4.599544457601102e-14 -0.991444861373807 -0.13052619222007783
  outer loop
    vertex 2857.4483866630358 124.85553772662269 8.850000000007682
    vertex 2855.4483866630353 124.90153786113245 8.500594289119983
    vertex 2857.4483866630353 124.90153786113245 8.500594289119284
  endloop
endfacet
facet normal -4.599544457601102e-14 -0.991444861373807 -0.13052619222007783
  outer loop
    vertex 2855.4483866630353 124.90153786113245 8.500594289119983
    vertex 2857.4483866630358 124.85553772662269 8.850000000007682
    vertex 2855.4483866630358 124.85553772662269 8.850000000008382
  endloop
endfacet
facet normal 1.0 5.4486608754137576e-30 -3.609557097661307e-13
  outer loop
    vertex 2846.948386663039 152.49928772662264 17.350000000011402
    vertex 2846.9483866630408 123.7055377266226 22.350000000011402
    vertex 2846.948386663039 123.7055377266226 17.350000000011402
  endloop
endfacet
facet normal 1.0 5.4486608754137576e-30 -3.609557097661307e-13
  outer loop
    vertex 2846.9483866630408 123.7055377266226 22.350000000011402
    vertex 2846.948386663039 152.49928772662264 17.350000000011402
    vertex 2846.9483866630408 152.49928772662264 22.350000000011402
  endloop
endfacet
facet normal 1.0 5.4486608754137576e-30 -3.609557097661307e-13
  outer loop
    vertex 2846.9483866630408 152.49928772662264 22.350000000011402
    vertex 2846.948386663039 152.49928772662264 17.350000000011402
    vertex 2846.9483866630408 152.49928772662264 21.350000000011406
  endloop
endfacet
facet normal 2.1451826711355015e-13 -0.7933533402912791 0.6087614290086635
  outer loop
    vertex 2857.448386663036 125.25094357202074 9.804594154609514
    vertex 2855.4483866630358 125.03640343151362 9.525000000008374
    vertex 2857.4483866630358 125.03640343151362 9.525000000007676
  endloop
endfacet
facet normal 2.1451826711355015e-13 -0.7933533402912791 0.6087614290086635
  outer loop
    vertex 2855.4483866630358 125.03640343151362 9.525000000008374
    vertex 2857.448386663036 125.25094357202074 9.804594154609514
    vertex 2855.448386663036 125.25094357202074 9.804594154610214
  endloop
endfacet
facet normal -3.1931990923484484e-14 -0.9958932064677035 -0.09053574604252242
  outer loop
    vertex 2881.4483866630385 122.70553772662254 17.34999999999924
    vertex 2875.448386663035 123.7055377266226 6.350000000001359
    vertex 2879.448386663035 123.7055377266226 6.349999999999949
  endloop
endfacet
facet normal -3.1931990923484484e-14 -0.9958932064677035 -0.09053574604252242
  outer loop
    vertex 2875.448386663035 123.7055377266226 6.350000000001359
    vertex 2881.4483866630385 122.70553772662254 17.34999999999924
    vertex 2875.448386663039 122.70553772662254 17.35000000000135
  endloop
endfacet
facet normal 4.599544457600993e-14 0.9914448613738075 0.13052619222007475
  outer loop
    vertex 2873.4483866630358 127.5555377266227 8.850000000002076
    vertex 2875.4483866630353 127.50953759211293 9.199405710889787
    vertex 2875.4483866630353 127.5555377266227 8.850000000001376
  endloop
endfacet
facet normal 4.599544457600993e-14 0.9914448613738075 0.13052619222007475
  outer loop
    vertex 2875.4483866630353 127.50953759211293 9.199405710889787
    vertex 2873.4483866630358 127.5555377266227 8.850000000002076
    vertex 2873.4483866630358 127.50953759211293 9.199405710890487
  endloop
endfacet
facet normal 1.3485182019114373e-13 -0.923879532511373 0.382683432364882
  outer loop
    vertex 2857.4483866630358 125.03640343151362 9.525000000007676
    vertex 2855.4483866630358 124.90153786113245 9.19940571089678
    vertex 2857.4483866630358 124.90153786113245 9.19940571089608
  endloop
endfacet
facet normal 1.3485182019114373e-13 -0.923879532511373 0.382683432364882
  outer loop
    vertex 2855.4483866630358 124.90153786113245 9.19940571089678
    vertex 2857.4483866630358 125.03640343151362 9.525000000007676
    vertex 2855.4483866630358 125.03640343151362 9.525000000008374
  endloop
endfacet
facet normal -1.0 0.0 3.523847880160247e-13
  outer loop
    vertex 2873.4483866630358 124.90153786113245 9.199405710890453
    vertex 2873.4483866630358 124.90153786113237 8.500594289113632
    vertex 2873.4483866630358 124.8555377266226 8.850000000002042
  endloop
endfacet
facet normal -1.0 0.0 3.523847880160247e-13
  outer loop
    vertex 2873.4483866630358 124.90153786113237 8.500594289113632
    vertex 2873.4483866630358 124.90153786113245 9.199405710890453
    vertex 2873.4483866630358 125.03640343151362 8.175000000002038
  endloop
endfacet
facet normal -1.0 0.0 3.523847880160247e-13
  outer loop
    vertex 2873.4483866630358 125.03640343151362 8.175000000002038
    vertex 2873.4483866630358 124.90153786113245 9.199405710890453
    vertex 2873.4483866630358 125.03640343151362 9.525000000002047
  endloop
endfacet
facet normal -1.0 0.0 3.523847880160247e-13
  outer loop
    vertex 2873.4483866630358 125.03640343151362 8.175000000002038
    vertex 2873.4483866630358 125.03640343151362 9.525000000002047
    vertex 2873.448386663036 125.25094357202083 9.804594154603897
  endloop
endfacet
facet normal -1.0 0.0 3.523847880160247e-13
  outer loop
    vertex 2873.4483866630358 125.03640343151362 8.175000000002038
    vertex 2873.448386663036 125.25094357202083 9.804594154603897
    vertex 2873.4483866630358 125.25094357202083 7.895405845400199
  endloop
endfacet
facet normal -1.0 0.0 3.523847880160247e-13
  outer loop
    vertex 2873.4483866630358 125.25094357202083 7.895405845400199
    vertex 2873.448386663036 125.25094357202083 9.804594154603897
    vertex 2873.448386663036 125.53053772662263 10.019134295111064
  endloop
endfacet
facet normal -1.0 0.0 3.523847880160247e-13
  outer loop
    vertex 2873.4483866630358 125.25094357202083 7.895405845400199
    vertex 2873.448386663036 125.53053772662263 10.019134295111064
    vertex 2873.448386663036 125.53053772662263 7.680865704893043
  endloop
endfacet
facet normal -1.0 0.0 3.523847880160247e-13
  outer loop
    vertex 2873.448386663036 125.53053772662263 7.680865704893043
    vertex 2873.448386663036 125.53053772662263 10.019134295111064
    vertex 2873.448386663036 125.85613201573419 10.153999865492318
  endloop
endfacet
facet normal -1.0 0.0 3.523847880160247e-13
  outer loop
    vertex 2873.448386663036 125.53053772662263 7.680865704893043
    vertex 2873.448386663036 125.85613201573419 10.153999865492318
    vertex 2873.448386663036 125.85613201573427 7.5460001345118
  endloop
endfacet
facet normal -1.0 0.0 3.523847880160247e-13
  outer loop
    vertex 2873.448386663036 125.85613201573427 7.5460001345118
    vertex 2873.448386663036 125.85613201573419 10.153999865492318
    vertex 2873.448386663036 126.20553772662257 10.200000000002085
  endloop
endfacet
facet normal -1.0 0.0 3.523847880160247e-13
  outer loop
    vertex 2873.448386663036 125.85613201573427 7.5460001345118
    vertex 2873.448386663036 126.20553772662257 10.200000000002085
    vertex 2873.4483866630358 126.20553772662274 7.500000000002034
  endloop
endfacet
facet normal -1.0 0.0 3.523847880160247e-13
  outer loop
    vertex 2873.4483866630358 126.20553772662274 7.500000000002034
    vertex 2873.448386663036 126.20553772662257 10.200000000002085
    vertex 2873.448386663036 126.55494343751103 10.15399986549233
  endloop
endfacet
facet normal -1.0 0.0 3.523847880160247e-13
  outer loop
    vertex 2873.4483866630358 126.20553772662274 7.500000000002034
    vertex 2873.448386663036 126.55494343751103 10.15399986549233
    vertex 2873.448386663036 126.55494343751111 7.5460001345118
  endloop
endfacet
facet normal -1.0 0.0 3.523847880160247e-13
  outer loop
    vertex 2873.448386663036 126.55494343751111 7.5460001345118
    vertex 2873.448386663036 126.55494343751103 10.15399986549233
    vertex 2873.448386663036 126.88053772662268 10.019134295111074
  endloop
endfacet
facet normal -1.0 0.0 3.523847880160247e-13
  outer loop
    vertex 2873.448386663036 126.55494343751111 7.5460001345118
    vertex 2873.448386663036 126.88053772662268 10.019134295111074
    vertex 2873.448386663036 126.88053772662268 7.680865704893055
  endloop
endfacet
facet normal -1.0 0.0 3.523847880160247e-13
  outer loop
    vertex 2873.448386663036 126.88053772662268 7.680865704893055
    vertex 2873.448386663036 126.88053772662268 10.019134295111074
    vertex 2873.448386663036 127.16013188122447 9.804594154603931
  endloop
endfacet
facet normal -1.0 0.0 3.523847880160247e-13
  outer loop
    vertex 2873.448386663036 126.88053772662268 7.680865704893055
    vertex 2873.448386663036 127.16013188122447 9.804594154603931
    vertex 2873.4483866630358 127.16013188122447 7.895405845400221
  endloop
endfacet
facet normal -1.0 0.0 3.523847880160247e-13
  outer loop
    vertex 2873.4483866630358 127.16013188122447 7.895405845400221
    vertex 2873.448386663036 127.16013188122447 9.804594154603931
    vertex 2873.4483866630358 127.37467202173168 9.525000000002091
  endloop
endfacet
facet normal -1.0 0.0 3.523847880160247e-13
  outer loop
    vertex 2873.4483866630358 127.16013188122447 7.895405845400221
    vertex 2873.4483866630358 127.37467202173168 9.525000000002091
    vertex 2873.4483866630358 127.37467202173168 8.175000000002061
  endloop
endfacet
facet normal -1.0 0.0 3.523847880160247e-13
  outer loop
    vertex 2873.4483866630358 127.37467202173168 8.175000000002061
    vertex 2873.4483866630358 127.37467202173168 9.525000000002091
    vertex 2873.4483866630358 127.50953759211293 9.199405710890487
  endloop
endfacet
facet normal -1.0 0.0 3.523847880160247e-13
  outer loop
    vertex 2873.4483866630358 127.37467202173168 8.175000000002061
    vertex 2873.4483866630358 127.50953759211293 9.199405710890487
    vertex 2873.4483866630358 127.50953759211285 8.500594289113666
  endloop
endfacet
facet normal -1.0 0.0 3.523847880160247e-13
  outer loop
    vertex 2873.4483866630358 127.50953759211285 8.500594289113666
    vertex 2873.4483866630358 127.50953759211293 9.199405710890487
    vertex 2873.4483866630358 127.5555377266227 8.850000000002076
  endloop
endfacet
facet normal 0.9838699100998516 1.826184832193267e-17 -0.1788854382002905
  outer loop
    vertex 2879.448386663035 123.7055377266226 6.349999999999949
    vertex 2881.4483866630385 129.70553772662268 17.34999999999924
    vertex 2881.4483866630385 122.70553772662254 17.34999999999924
  endloop
endfacet
facet normal 0.9838699100998516 1.826184832193267e-17 -0.1788854382002905
  outer loop
    vertex 2881.4483866630385 129.70553772662268 17.34999999999924
    vertex 2879.448386663035 123.7055377266226 6.349999999999949
    vertex 2879.448386663035 128.70553772662262 6.349999999999949
  endloop
endfacet
facet normal 3.523847880160247e-13 0.0 1.0
  outer loop
    vertex 2836.5921366630405 113.21562409094528 22.350000000015058
    vertex 2846.9483866630408 123.7055377266226 22.350000000011402
    vertex 2836.5921366630405 162.4281240909453 22.350000000015058
  endloop
endfacet
facet normal 3.523847880160247e-13 0.0 1.0
  outer loop
    vertex 2846.9483866630408 123.7055377266226 22.350000000011402
    vertex 2836.5921366630405 113.21562409094528 22.350000000015058
    vertex 2885.8046366630406 113.21562409094528 22.34999999999771
  endloop
endfacet
facet normal 3.523847880160247e-13 0.0 1.0
  outer loop
    vertex 2846.9483866630408 123.7055377266226 22.350000000011402
    vertex 2885.8046366630406 113.21562409094528 22.34999999999771
    vertex 2857.4483866630408 123.7055377266226 22.350000000007704
  endloop
endfacet
facet normal 3.523847880160247e-13 0.0 1.0
  outer loop
    vertex 2857.4483866630408 123.7055377266226 22.350000000007704
    vertex 2885.8046366630406 113.21562409094528 22.34999999999771
    vertex 2864.9483866630403 123.7055377266226 22.350000000005053
  endloop
endfacet
facet normal 3.523847880160247e-13 0.0 1.0
  outer loop
    vertex 2857.4483866630408 123.7055377266226 22.350000000007704
    vertex 2864.9483866630403 123.7055377266226 22.350000000005053
    vertex 2857.4483866630408 152.49928772662264 22.350000000007704
  endloop
endfacet
facet normal 3.523847880160247e-13 0.0 1.0
  outer loop
    vertex 2864.9483866630403 123.7055377266226 22.350000000005053
    vertex 2885.8046366630406 113.21562409094528 22.34999999999771
    vertex 2875.4483866630408 123.7055377266226 22.35000000000135
  endloop
endfacet
facet normal 3.523847880160247e-13 0.0 1.0
  outer loop
    vertex 2875.4483866630408 123.7055377266226 22.35000000000135
    vertex 2885.8046366630406 113.21562409094528 22.34999999999771
    vertex 2875.4483866630408 152.49928772662264 22.35000000000135
  endloop
endfacet
facet normal 3.523847880160247e-13 0.0 1.0
  outer loop
    vertex 2836.5921366630405 162.4281240909453 22.350000000015058
    vertex 2846.9483866630408 152.49928772662264 22.350000000011402
    vertex 2885.8046366630406 162.4281240909453 22.34999999999771
  endloop
endfacet
facet normal 3.523847880160247e-13 0.0 1.0
  outer loop
    vertex 2846.9483866630408 152.49928772662264 22.350000000011402
    vertex 2836.5921366630405 162.4281240909453 22.350000000015058
    vertex 2846.9483866630408 123.7055377266226 22.350000000011402
  endloop
endfacet
facet normal 3.523847880160247e-13 0.0 1.0
  outer loop
    vertex 2885.8046366630406 162.4281240909453 22.34999999999771
    vertex 2846.9483866630408 152.49928772662264 22.350000000011402
    vertex 2857.4483866630408 152.49928772662264 22.350000000007704
  endloop
endfacet
facet normal 3.523847880160247e-13 0.0 1.0
  outer loop
    vertex 2885.8046366630406 162.4281240909453 22.34999999999771
    vertex 2857.4483866630408 152.49928772662264 22.350000000007704
    vertex 2864.9483866630403 152.49928772662264 22.350000000005053
  endloop
endfacet
facet normal 3.523847880160247e-13 0.0 1.0
  outer loop
    vertex 2864.9483866630403 152.49928772662264 22.350000000005053
    vertex 2857.4483866630408 152.49928772662264 22.350000000007704
    vertex 2864.9483866630403 123.7055377266226 22.350000000005053
  endloop
endfacet
facet normal 3.523847880160247e-13 0.0 1.0
  outer loop
    vertex 2885.8046366630406 162.4281240909453 22.34999999999771
    vertex 2864.9483866630403 152.49928772662264 22.350000000005053
    vertex 2875.4483866630408 152.49928772662264 22.35000000000135
  endloop
endfacet
facet normal 3.523847880160247e-13 0.0 1.0
  outer loop
    vertex 2885.8046366630406 162.4281240909453 22.34999999999771
    vertex 2875.4483866630408 152.49928772662264 22.35000000000135
    vertex 2885.8046366630406 113.21562409094528 22.34999999999771
  endloop
endfacet
facet normal 3.255610932163269e-13 -0.38268343236513735 0.9238795325112672
  outer loop
    vertex 2857.448386663036 125.53053772662263 10.01913429511667
    vertex 2855.448386663036 125.85613201573419 10.153999865498625
    vertex 2855.448386663036 125.53053772662263 10.01913429511737
  endloop
endfacet
facet normal 3.255610932163269e-13 -0.38268343236513735 0.9238795325112672
  outer loop
    vertex 2855.448386663036 125.85613201573419 10.153999865498625
    vertex 2857.448386663036 125.53053772662263 10.01913429511667
    vertex 2857.448386663036 125.85613201573419 10.153999865497925
  endloop
endfacet
facet normal -3.5216274341109965e-13 0.0 -1.0
  outer loop
    vertex 2842.148386663014 118.77187409094529 -47.499999999986905
    vertex 2836.592136663014 113.21562409094528 -47.499999999984944
    vertex 2836.592136663014 118.77187409094529 -47.499999999984944
  endloop
endfacet
facet normal -3.5216274341109965e-13 0.0 -1.0
  outer loop
    vertex 2836.592136663014 113.21562409094528 -47.499999999984944
    vertex 2842.148386663014 118.77187409094529 -47.499999999986905
    vertex 2842.148386663014 113.21562409094528 -47.499999999986905
  endloop
endfacet
facet normal 0.0 1.0 0.0
  outer loop
    vertex 2836.592136663014 118.77187409094529 -47.499999999984944
    vertex 2842.1483866630388 118.77187409094529 17.350000000013093
    vertex 2842.148386663014 118.77187409094529 -47.499999999986905
  endloop
endfacet
facet normal 0.0 1.0 0.0
  outer loop
    vertex 2842.1483866630388 118.77187409094529 17.350000000013093
    vertex 2836.592136663014 118.77187409094529 -47.499999999984944
    vertex 2836.5921366630387 118.77187409094529 17.350000000015044
  endloop
endfacet
facet normal 1.0 0.0 -3.5216274341109965e-13
  outer loop
    vertex 2842.148386663014 118.77187409094529 -47.499999999986905
    vertex 2842.1483866630388 113.21562409094528 17.350000000013093
    vertex 2842.148386663014 113.21562409094528 -47.499999999986905
  endloop
endfacet
facet normal 1.0 0.0 -3.5216274341109965e-13
  outer loop
    vertex 2842.1483866630388 113.21562409094528 17.350000000013093
    vertex 2842.148386663014 118.77187409094529 -47.499999999986905
    vertex 2842.1483866630388 118.77187409094529 17.350000000013093
  endloop
endfacet
facet normal -3.1924848111880087e-14 -0.9958932064677035 -0.0905357460425224
  outer loop
    vertex 2863.448386663039 122.70553772662254 17.35000000000559
    vertex 2857.448386663035 123.7055377266226 6.350000000007698
    vertex 2861.448386663035 123.7055377266226 6.350000000006288
  endloop
endfacet
facet normal -3.1924848111880087e-14 -0.9958932064677035 -0.0905357460425224
  outer loop
    vertex 2857.448386663035 123.7055377266226 6.350000000007698
    vertex 2863.448386663039 122.70553772662254 17.35000000000559
    vertex 2857.448386663039 122.70553772662254 17.3500000000077
  endloop
endfacet
facet normal 1.3485182019121963e-13 0.9238795325112835 0.3826834323650976
  outer loop
    vertex 2873.4483866630358 127.50953759211293 9.199405710890487
    vertex 2875.4483866630353 127.37467202173168 9.52500000000138
    vertex 2875.4483866630353 127.50953759211293 9.199405710889787
  endloop
endfacet
facet normal 1.3485182019121963e-13 0.9238795325112835 0.3826834323650976
  outer loop
    vertex 2875.4483866630353 127.37467202173168 9.52500000000138
    vertex 2873.4483866630358 127.50953759211293 9.199405710890487
    vertex 2873.4483866630358 127.37467202173168 9.525000000002091
  endloop
endfacet
endsolid box draft 1
