solid box draft 1
facet normal -3.1910562488671304e-14 0.9958932064677035 -0.09053574604252242
  outer loop
    vertex 2777.848386663035 128.70553772662262 6.349999999999997
    vertex 2774.642136663039 129.70553772662268 17.350000000001128
    vertex 2779.8483866630386 129.70553772662268 17.34999999999929
  endloop
endfacet
facet normal -3.1910562488671304e-14 0.9958932064677035 -0.09053574604252242
  outer loop
    vertex 2774.642136663039 129.70553772662268 17.350000000001128
    vertex 2777.848386663035 128.70553772662262 6.349999999999997
    vertex 2774.6421366630348 128.70553772662262 6.350000000001128
  endloop
endfacet
facet normal 2.7956564864031647e-13 0.6087614290087782 0.7933533402911911
  outer loop
    vertex 2771.8483866630363 127.16013188122447 9.80459415460398
    vertex 2774.6421366630357 126.88053772662268 10.019134295110147
    vertex 2774.6421366630357 127.16013188122447 9.804594154602997
  endloop
endfacet
facet normal 2.7956564864031647e-13 0.6087614290087782 0.7933533402911911
  outer loop
    vertex 2774.6421366630357 126.88053772662268 10.019134295110147
    vertex 2771.8483866630363 127.16013188122447 9.80459415460398
    vertex 2771.8483866630363 126.88053772662268 10.01913429511113
  endloop
endfacet
facet normal -2.1451826711360828e-13 -0.7933533402911526 -0.6087614290088285
  outer loop
    vertex 2771.8483866630354 125.25094357202083 7.895405845400247
    vertex 2774.642136663035 125.03640343151362 8.175000000001098
    vertex 2771.8483866630354 125.03640343151362 8.175000000002083
  endloop
endfacet
facet normal -2.1451826711360828e-13 -0.7933533402911526 -0.6087614290088285
  outer loop
    vertex 2774.642136663035 125.03640343151362 8.175000000001098
    vertex 2771.8483866630354 125.25094357202083 7.895405845400247
    vertex 2774.642136663035 125.25094357202083 7.895405845399262
  endloop
endfacet
facet normal 1.3485182019121963e-13 0.9238795325112835 0.3826834323650976
  outer loop
    vertex 2774.6421366630357 127.50953759211293 9.199405710889552
    vertex 2771.848386663036 127.37467202173168 9.525000000002137
    vertex 2774.6421366630357 127.37467202173168 9.525000000001153
  endloop
endfacet
facet normal 1.3485182019121963e-13 0.9238795325112835 0.3826834323650976
  outer loop
    vertex 2771.848386663036 127.37467202173168 9.525000000002137
    vertex 2774.6421366630357 127.50953759211293 9.199405710889552
    vertex 2771.848386663036 127.50953759211293 9.199405710890536
  endloop
endfacet
facet normal 3.2556311271270427e-13 0.38268343236501606 0.9238795325113175
  outer loop
    vertex 2753.8483866630363 126.88053772662268 10.019134295117448
    vertex 2755.848386663036 126.55494343751103 10.153999865497985
    vertex 2755.848386663036 126.88053772662268 10.019134295116743
  endloop
endfacet
facet normal 3.2556311271270427e-13 0.38268343236501606 0.9238795325113175
  outer loop
    vertex 2755.848386663036 126.55494343751103 10.153999865497985
    vertex 2753.8483866630363 126.88053772662268 10.019134295117448
    vertex 2753.8483866630363 126.55494343751103 10.15399986549869
  endloop
endfacet
facet normal 1.3485182019114166e-13 -0.9238795325113752 0.3826834323648763
  outer loop
    vertex 2771.848386663036 124.90153786113245 9.1994057108905
    vertex 2774.6421366630357 125.03640343151362 9.52500000000112
    vertex 2771.848386663036 125.03640343151362 9.525000000002104
  endloop
endfacet
facet normal 1.3485182019114166e-13 -0.9238795325113752 0.3826834323648763
  outer loop
    vertex 2774.6421366630357 125.03640343151362 9.52500000000112
    vertex 2771.848386663036 124.90153786113245 9.1994057108905
    vertex 2774.6421366630357 124.90153786113245 9.199405710889517
  endloop
endfacet
facet normal 3.2556109321634254e-13 0.3826834323650298 0.9238795325113117
  outer loop
    vertex 2771.8483866630363 126.88053772662268 10.01913429511113
    vertex 2774.6421366630357 126.55494343751103 10.153999865491395
    vertex 2774.6421366630357 126.88053772662268 10.019134295110147
  endloop
endfacet
facet normal 3.2556109321634254e-13 0.3826834323650298 0.9238795325113117
  outer loop
    vertex 2774.6421366630357 126.55494343751103 10.153999865491395
    vertex 2771.8483866630363 126.88053772662268 10.01913429511113
    vertex 2771.8483866630363 126.55494343751103 10.153999865492377
  endloop
endfacet
facet normal 3.4937008730478573e-13 -0.1305261922200822 0.9914448613738064
  outer loop
    vertex 2771.8483866630363 126.20553772662257 10.200000000002133
    vertex 2774.6421366630357 125.85613201573419 10.153999865491384
    vertex 2774.6421366630357 126.20553772662257 10.20000000000115
  endloop
endfacet
facet normal 3.4937008730478573e-13 -0.1305261922200822 0.9914448613738064
  outer loop
    vertex 2774.6421366630357 125.85613201573419 10.153999865491384
    vertex 2771.8483866630363 126.20553772662257 10.200000000002133
    vertex 2771.8483866630363 125.85613201573419 10.153999865492368
  endloop
endfacet
facet normal 1.0 0.0 -3.523847880160247e-13
  outer loop
    vertex 2784.9983866630155 163.22187409094528 -47.500000000002515
    vertex 2784.9983866630387 156.87187409094528 17.349999999997475
    vertex 2784.9983866630155 156.87187409094528 -47.500000000002515
  endloop
endfacet
facet normal 1.0 0.0 -3.523847880160247e-13
  outer loop
    vertex 2784.9983866630146 118.77187409094529 -47.50000000000251
    vertex 2784.9983866630405 112.42187409094528 22.34999999999748
    vertex 2784.9983866630146 112.42187409094528 -47.50000000000251
  endloop
endfacet
facet normal 1.0 0.0 -3.523847880160247e-13
  outer loop
    vertex 2784.9983866630405 112.42187409094528 22.34999999999748
    vertex 2784.9983866630146 118.77187409094529 -47.50000000000251
    vertex 2784.9983866630387 118.77187409094529 17.349999999997475
  endloop
endfacet
facet normal 1.0 0.0 -3.523847880160247e-13
  outer loop
    vertex 2784.9983866630405 112.42187409094528 22.34999999999748
    vertex 2784.9983866630387 118.77187409094529 17.349999999997475
    vertex 2784.9983866630405 163.22187409094528 22.34999999999748
  endloop
endfacet
facet normal 1.0 0.0 -3.523847880160247e-13
  outer loop
    vertex 2784.9983866630405 163.22187409094528 22.34999999999748
    vertex 2784.9983866630387 118.77187409094529 17.349999999997475
    vertex 2784.9983866630387 156.87187409094528 17.349999999997475
  endloop
endfacet
facet normal 1.0 0.0 -3.523847880160247e-13
  outer loop
    vertex 2784.9983866630405 163.22187409094528 22.34999999999748
    vertex 2784.9983866630387 156.87187409094528 17.349999999997475
    vertex 2784.9983866630155 163.22187409094528 -47.500000000002515
  endloop
endfacet
facet normal -3.1931990923484484e-14 -0.9958932064677035 -0.09053574604252242
  outer loop
    vertex 2774.6421366630348 123.7055377266226 6.350000000001128
    vertex 2779.8483866630386 122.70553772662254 17.34999999999929
    vertex 2774.642136663039 122.70553772662254 17.350000000001128
  endloop
endfacet
facet normal -3.1931990923484484e-14 -0.9958932064677035 -0.09053574604252242
  outer loop
    vertex 2779.8483866630386 122.70553772662254 17.34999999999929
    vertex 2774.6421366630348 123.7055377266226 6.350000000001128
    vertex 2777.848386663035 123.7055377266226 6.349999999999997
  endloop
endfacet
facet normal -4.5995444576010676e-14 0.9914448613738073 -0.13052619222007678
  outer loop
    vertex 2755.8483866630354 127.50953759211285 8.500594289119377
    vertex 2753.848386663036 127.55553772662262 8.85000000000848
    vertex 2755.848386663036 127.55553772662262 8.850000000007775
  endloop
endfacet
facet normal -4.5995444576010676e-14 0.9914448613738073 -0.13052619222007678
  outer loop
    vertex 2753.848386663036 127.55553772662262 8.85000000000848
    vertex 2755.8483866630354 127.50953759211285 8.500594289119377
    vertex 2753.8483866630354 127.50953759211285 8.500594289120082
  endloop
endfacet
facet normal 0.9838699100998404 1.8261848323668632e-17 -0.17888543820035302
  outer loop
    vertex 2759.848386663035 123.7055377266226 6.350000000006342
    vertex 2761.848386663039 129.70553772662268 17.350000000005636
    vertex 2761.848386663039 122.70553772662254 17.350000000005636
  endloop
endfacet
facet normal 0.9838699100998404 1.8261848323668632e-17 -0.17888543820035302
  outer loop
    vertex 2761.848386663039 129.70553772662268 17.350000000005636
    vertex 2759.848386663035 123.7055377266226 6.350000000006342
    vertex 2759.848386663035 128.70553772662262 6.350000000006342
  endloop
endfacet
facet normal -2.145182671136006e-13 0.7933533402911556 -0.6087614290088247
  outer loop
    vertex 2755.8483866630354 127.16013188122447 7.895405845405943
    vertex 2753.8483866630354 127.37467202173168 8.175000000008486
    vertex 2755.8483866630354 127.37467202173168 8.175000000007783
  endloop
endfacet
facet normal -2.145182671136006e-13 0.7933533402911556 -0.6087614290088247
  outer loop
    vertex 2753.8483866630354 127.37467202173168 8.175000000008486
    vertex 2755.8483866630354 127.16013188122447 7.895405845405943
    vertex 2753.8483866630354 127.16013188122447 7.895405845406648
  endloop
endfacet
facet normal -1.0 -2.726465541210913e-29 3.60955709766131e-13
  outer loop
    vertex 2755.848386663041 152.49928772662264 22.35000000000776
    vertex 2755.848386663039 123.7055377266226 17.35000000000775
    vertex 2755.848386663041 123.7055377266226 22.35000000000776
  endloop
endfacet
facet normal -1.0 -2.726465541210913e-29 3.60955709766131e-13
  outer loop
    vertex 2755.848386663039 123.7055377266226 17.35000000000775
    vertex 2755.848386663041 152.49928772662264 22.35000000000776
    vertex 2755.848386663039 129.70553772662268 17.35000000000775
  endloop
endfacet
facet normal -1.0 -2.726465541210913e-29 3.60955709766131e-13
  outer loop
    vertex 2755.848386663039 123.7055377266226 17.35000000000775
    vertex 2755.848386663039 129.70553772662268 17.35000000000775
    vertex 2755.848386663036 125.03640343151362 9.525000000007724
  endloop
endfacet
facet normal -1.0 -2.726465541210913e-29 3.60955709766131e-13
  outer loop
    vertex 2755.848386663039 123.7055377266226 17.35000000000775
    vertex 2755.848386663036 125.03640343151362 9.525000000007724
    vertex 2755.848386663035 123.7055377266226 6.350000000007752
  endloop
endfacet
facet normal -1.0 -2.726465541210913e-29 3.60955709766131e-13
  outer loop
    vertex 2755.848386663035 123.7055377266226 6.350000000007752
    vertex 2755.848386663036 125.03640343151362 9.525000000007724
    vertex 2755.848386663036 124.90153786113245 9.199405710896128
  endloop
endfacet
facet normal -1.0 -2.726465541210913e-29 3.60955709766131e-13
  outer loop
    vertex 2755.848386663035 123.7055377266226 6.350000000007752
    vertex 2755.848386663036 124.90153786113245 9.199405710896128
    vertex 2755.848386663036 124.85553772662269 8.85000000000773
  endloop
endfacet
facet normal -1.0 -2.726465541210913e-29 3.60955709766131e-13
  outer loop
    vertex 2755.848386663036 125.03640343151362 9.525000000007724
    vertex 2755.848386663039 129.70553772662268 17.35000000000775
    vertex 2755.848386663036 125.25094357202074 9.80459415460956
  endloop
endfacet
facet normal -1.0 -2.726465541210913e-29 3.60955709766131e-13
  outer loop
    vertex 2755.848386663036 125.25094357202074 9.80459415460956
    vertex 2755.848386663039 129.70553772662268 17.35000000000775
    vertex 2755.848386663036 125.53053772662263 10.019134295116718
  endloop
endfacet
facet normal -1.0 -2.726465541210913e-29 3.60955709766131e-13
  outer loop
    vertex 2755.848386663036 125.53053772662263 10.019134295116718
    vertex 2755.848386663039 129.70553772662268 17.35000000000775
    vertex 2755.848386663036 125.85613201573419 10.153999865497973
  endloop
endfacet
facet normal -1.0 -2.726465541210913e-29 3.60955709766131e-13
  outer loop
    vertex 2755.848386663036 125.85613201573419 10.153999865497973
    vertex 2755.848386663039 129.70553772662268 17.35000000000775
    vertex 2755.848386663036 126.20553772662265 10.200000000007737
  endloop
endfacet
facet normal -1.0 -2.726465541210913e-29 3.60955709766131e-13
  outer loop
    vertex 2755.848386663036 126.20553772662265 10.200000000007737
    vertex 2755.848386663039 129.70553772662268 17.35000000000775
    vertex 2755.848386663036 126.55494343751103 10.153999865497985
  endloop
endfacet
facet normal -1.0 -2.726465541210913e-29 3.60955709766131e-13
  outer loop
    vertex 2755.848386663036 126.55494343751103 10.153999865497985
    vertex 2755.848386663039 129.70553772662268 17.35000000000775
    vertex 2755.848386663036 126.88053772662268 10.019134295116743
  endloop
endfacet
facet normal -1.0 -2.726465541210913e-29 3.60955709766131e-13
  outer loop
    vertex 2755.848386663036 126.88053772662268 10.019134295116743
    vertex 2755.848386663039 129.70553772662268 17.35000000000775
    vertex 2755.848386663036 127.16013188122447 9.804594154609596
  endloop
endfacet
facet normal -1.0 -2.726465541210913e-29 3.60955709766131e-13
  outer loop
    vertex 2755.848386663036 127.16013188122447 9.804594154609596
    vertex 2755.848386663039 129.70553772662268 17.35000000000775
    vertex 2755.848386663036 127.3746720217316 9.525000000007768
  endloop
endfacet
facet normal -1.0 -2.726465541210913e-29 3.60955709766131e-13
  outer loop
    vertex 2755.848386663036 127.3746720217316 9.525000000007768
    vertex 2755.848386663039 129.70553772662268 17.35000000000775
    vertex 2755.848386663036 127.50953759211285 9.199405710896174
  endloop
endfacet
facet normal -1.0 -2.726465541210913e-29 3.60955709766131e-13
  outer loop
    vertex 2755.848386663036 127.50953759211285 9.199405710896174
    vertex 2755.848386663039 129.70553772662268 17.35000000000775
    vertex 2755.848386663036 127.55553772662262 8.850000000007775
  endloop
endfacet
facet normal -1.0 -2.726465541210913e-29 3.60955709766131e-13
  outer loop
    vertex 2755.848386663036 127.55553772662262 8.850000000007775
    vertex 2755.848386663039 129.70553772662268 17.35000000000775
    vertex 2755.848386663035 128.70553772662262 6.350000000007752
  endloop
endfacet
facet normal -1.0 -2.726465541210913e-29 3.60955709766131e-13
  outer loop
    vertex 2755.848386663039 129.70553772662268 17.35000000000775
    vertex 2755.848386663041 152.49928772662264 22.35000000000776
    vertex 2755.8483866630404 152.49928772662264 21.35000000000776
  endloop
endfacet
facet normal -1.0 -2.726465541210913e-29 3.60955709766131e-13
  outer loop
    vertex 2755.848386663039 129.70553772662268 17.35000000000775
    vertex 2755.8483866630404 152.49928772662264 21.35000000000776
    vertex 2755.848386663039 153.70553772662262 17.35000000000775
  endloop
endfacet
facet normal -1.0 -2.726465541210913e-29 3.60955709766131e-13
  outer loop
    vertex 2755.848386663035 123.7055377266226 6.350000000007752
    vertex 2755.8483866630368 125.53053772662263 7.68086570489876
    vertex 2755.848386663035 128.70553772662262 6.350000000007752
  endloop
endfacet
facet normal -1.0 -2.726465541210913e-29 3.60955709766131e-13
  outer loop
    vertex 2755.8483866630368 125.53053772662263 7.68086570489876
    vertex 2755.848386663035 123.7055377266226 6.350000000007752
    vertex 2755.8483866630354 125.25094357202083 7.895405845405909
  endloop
endfacet
facet normal -1.0 -2.726465541210913e-29 3.60955709766131e-13
  outer loop
    vertex 2755.8483866630354 125.25094357202083 7.895405845405909
    vertex 2755.848386663035 123.7055377266226 6.350000000007752
    vertex 2755.8483866630354 125.0364034315137 8.175000000007742
  endloop
endfacet
facet normal -1.0 -2.726465541210913e-29 3.60955709766131e-13
  outer loop
    vertex 2755.8483866630354 125.0364034315137 8.175000000007742
    vertex 2755.848386663035 123.7055377266226 6.350000000007752
    vertex 2755.8483866630354 124.90153786113245 8.500594289119332
  endloop
endfacet
facet normal -1.0 -2.726465541210913e-29 3.60955709766131e-13
  outer loop
    vertex 2755.8483866630354 124.90153786113245 8.500594289119332
    vertex 2755.848386663035 123.7055377266226 6.350000000007752
    vertex 2755.848386663036 124.85553772662269 8.85000000000773
  endloop
endfacet
facet normal -1.0 -2.726465541210913e-29 3.60955709766131e-13
  outer loop
    vertex 2755.848386663035 128.70553772662262 6.350000000007752
    vertex 2755.8483866630368 125.53053772662263 7.68086570489876
    vertex 2755.8483866630368 125.85613201573427 7.5460001345175165
  endloop
endfacet
facet normal -1.0 -2.726465541210913e-29 3.60955709766131e-13
  outer loop
    vertex 2755.848386663035 128.70553772662262 6.350000000007752
    vertex 2755.8483866630368 125.85613201573427 7.5460001345175165
    vertex 2755.8483866630354 126.20553772662265 7.500000000007766
  endloop
endfacet
facet normal -1.0 -2.726465541210913e-29 3.60955709766131e-13
  outer loop
    vertex 2755.848386663035 128.70553772662262 6.350000000007752
    vertex 2755.8483866630354 126.20553772662265 7.500000000007766
    vertex 2755.8483866630368 126.55494343751111 7.546000134517527
  endloop
endfacet
facet normal -1.0 -2.726465541210913e-29 3.60955709766131e-13
  outer loop
    vertex 2755.848386663035 128.70553772662262 6.350000000007752
    vertex 2755.8483866630368 126.55494343751111 7.546000134517527
    vertex 2755.8483866630368 126.88053772662268 7.680865704898782
  endloop
endfacet
facet normal -1.0 -2.726465541210913e-29 3.60955709766131e-13
  outer loop
    vertex 2755.848386663035 128.70553772662262 6.350000000007752
    vertex 2755.8483866630368 126.88053772662268 7.680865704898782
    vertex 2755.8483866630354 127.16013188122447 7.895405845405943
  endloop
endfacet
facet normal -1.0 -2.726465541210913e-29 3.60955709766131e-13
  outer loop
    vertex 2755.848386663035 128.70553772662262 6.350000000007752
    vertex 2755.8483866630354 127.16013188122447 7.895405845405943
    vertex 2755.8483866630354 127.37467202173168 8.175000000007783
  endloop
endfacet
facet normal -1.0 -2.726465541210913e-29 3.60955709766131e-13
  outer loop
    vertex 2755.848386663035 128.70553772662262 6.350000000007752
    vertex 2755.8483866630354 127.37467202173168 8.175000000007783
    vertex 2755.8483866630354 127.50953759211285 8.500594289119377
  endloop
endfacet
facet normal -1.0 -2.726465541210913e-29 3.60955709766131e-13
  outer loop
    vertex 2755.848386663035 128.70553772662262 6.350000000007752
    vertex 2755.8483866630354 127.50953759211285 8.500594289119377
    vertex 2755.848386663036 127.55553772662262 8.850000000007775
  endloop
endfacet
facet normal -1.0 -2.726465541210913e-29 3.60955709766131e-13
  outer loop
    vertex 2755.848386663035 123.7055377266226 6.350000000007752
    vertex 2755.848386663039 122.70553772662254 17.35000000000775
    vertex 2755.848386663039 123.7055377266226 17.35000000000775
  endloop
endfacet
facet normal -3.2556109321634305e-13 -0.38268343236502633 -0.923879532511313
  outer loop
    vertex 2771.848386663037 125.53053772662263 7.680865704893091
    vertex 2774.6421366630366 125.85613201573427 7.546000134510861
    vertex 2774.6421366630366 125.53053772662263 7.680865704892107
  endloop
endfacet
facet normal -3.2556109321634305e-13 -0.38268343236502633 -0.923879532511313
  outer loop
    vertex 2774.6421366630366 125.85613201573427 7.546000134510861
    vertex 2771.848386663037 125.53053772662263 7.680865704893091
    vertex 2771.848386663037 125.85613201573427 7.5460001345118455
  endloop
endfacet
facet normal 2.1451826711360558e-13 0.7933533402911586 0.6087614290088208
  outer loop
    vertex 2774.6421366630357 127.37467202173168 9.525000000001153
    vertex 2771.8483866630363 127.16013188122447 9.80459415460398
    vertex 2774.6421366630357 127.16013188122447 9.804594154602997
  endloop
endfacet
facet normal 2.1451826711360558e-13 0.7933533402911586 0.6087614290088208
  outer loop
    vertex 2771.8483866630363 127.16013188122447 9.80459415460398
    vertex 2774.6421366630357 127.37467202173168 9.525000000001153
    vertex 2771.848386663036 127.37467202173168 9.525000000002137
  endloop
endfacet
facet normal 2.7956564864031167e-13 -0.6087614290087957 0.7933533402911775
  outer loop
    vertex 2771.8483866630363 125.53053772662263 10.019134295111112
    vertex 2774.6421366630357 125.25094357202083 9.804594154602968
    vertex 2774.6421366630357 125.53053772662263 10.01913429511013
  endloop
endfacet
facet normal 2.7956564864031167e-13 -0.6087614290087957 0.7933533402911775
  outer loop
    vertex 2774.6421366630357 125.25094357202083 9.804594154602968
    vertex 2771.8483866630363 125.53053772662263 10.019134295111112
    vertex 2771.8483866630363 125.25094357202083 9.80459415460395
  endloop
endfacet
facet normal -1.0168886239112839e-13 -0.9574135702049259 -0.28872002976492206
  outer loop
    vertex 2744.5546366630406 152.49928772662264 21.35000000001173
    vertex 2755.848386663039 153.70553772662262 17.35000000000775
    vertex 2755.8483866630404 152.49928772662264 21.35000000000776
  endloop
endfacet
facet normal -1.0168886239112839e-13 -0.9574135702049259 -0.28872002976492206
  outer loop
    vertex 2755.848386663039 153.70553772662262 17.35000000000775
    vertex 2744.5546366630406 152.49928772662264 21.35000000001173
    vertex 2744.554636663039 153.70553772662262 17.35000000001173
  endloop
endfacet
facet normal 4.599544457601102e-14 0.991444861373807 0.13052619222007783
  outer loop
    vertex 2755.848386663036 127.55553772662262 8.850000000007775
    vertex 2753.848386663036 127.50953759211285 9.199405710896878
    vertex 2755.848386663036 127.50953759211285 9.199405710896174
  endloop
endfacet
facet normal 4.599544457601102e-14 0.991444861373807 0.13052619222007783
  outer loop
    vertex 2753.848386663036 127.50953759211285 9.199405710896878
    vertex 2755.848386663036 127.55553772662262 8.850000000007775
    vertex 2753.848386663036 127.55553772662262 8.85000000000848
  endloop
endfacet
facet normal 3.493700873047864e-13 0.13052619222004283 0.9914448613738116
  outer loop
    vertex 2753.8483866630363 126.55494343751103 10.15399986549869
    vertex 2755.848386663036 126.20553772662265 10.200000000007737
    vertex 2755.848386663036 126.55494343751103 10.153999865497985
  endloop
endfacet
facet normal 3.493700873047864e-13 0.13052619222004283 0.9914448613738116
  outer loop
    vertex 2755.848386663036 126.20553772662265 10.200000000007737
    vertex 2753.8483866630363 126.55494343751103 10.15399986549869
    vertex 2753.8483866630363 126.20553772662265 10.20000000000844
  endloop
endfacet
facet normal 3.255610932163269e-13 -0.38268343236513735 0.9238795325112672
  outer loop
    vertex 2753.8483866630363 125.85613201573419 10.153999865498678
    vertex 2755.848386663036 125.53053772662263 10.019134295116718
    vertex 2755.848386663036 125.85613201573419 10.153999865497973
  endloop
endfacet
facet normal 3.255610932163269e-13 -0.38268343236513735 0.9238795325112672
  outer loop
    vertex 2755.848386663036 125.53053772662263 10.019134295116718
    vertex 2753.8483866630363 125.85613201573419 10.153999865498678
    vertex 2753.8483866630363 125.53053772662263 10.019134295117423
  endloop
endfacet
facet normal -2.1451826711355285e-13 -0.7933533402912731 -0.6087614290086711
  outer loop
    vertex 2753.8483866630354 125.25094357202083 7.895405845406614
    vertex 2755.8483866630354 125.0364034315137 8.175000000007742
    vertex 2753.8483866630354 125.0364034315137 8.175000000008447
  endloop
endfacet
facet normal -2.1451826711355285e-13 -0.7933533402912731 -0.6087614290086711
  outer loop
    vertex 2755.8483866630354 125.0364034315137 8.175000000007742
    vertex 2753.8483866630354 125.25094357202083 7.895405845406614
    vertex 2755.8483866630354 125.25094357202083 7.895405845405909
  endloop
endfacet
facet normal 2.1451826711355363e-13 0.7933533402912716 0.6087614290086731
  outer loop
    vertex 2755.848386663036 127.3746720217316 9.525000000007768
    vertex 2753.8483866630363 127.16013188122447 9.804594154610301
    vertex 2755.848386663036 127.16013188122447 9.804594154609596
  endloop
endfacet
facet normal 2.1451826711355363e-13 0.7933533402912716 0.6087614290086731
  outer loop
    vertex 2753.8483866630363 127.16013188122447 9.804594154610301
    vertex 2755.848386663036 127.3746720217316 9.525000000007768
    vertex 2753.848386663036 127.3746720217316 9.525000000008474
  endloop
endfacet
facet normal 0.0 1.0 0.0
  outer loop
    vertex 2784.9983866630405 163.22187409094528 22.34999999999748
    vertex 2778.6483866630388 163.22187409094528 17.349999999999714
    vertex 2734.1983866630408 163.22187409094528 22.350000000015378
  endloop
endfacet
facet normal 0.0 1.0 0.0
  outer loop
    vertex 2778.6483866630388 163.22187409094528 17.349999999999714
    vertex 2784.9983866630405 163.22187409094528 22.34999999999748
    vertex 2784.9983866630155 163.22187409094528 -47.500000000002515
  endloop
endfacet
facet normal 0.0 1.0 0.0
  outer loop
    vertex 2778.6483866630388 163.22187409094528 17.349999999999714
    vertex 2784.9983866630155 163.22187409094528 -47.500000000002515
    vertex 2778.648386663015 163.22187409094528 -47.500000000000284
  endloop
endfacet
facet normal 0.0 1.0 0.0
  outer loop
    vertex 2734.1983866630408 163.22187409094528 22.350000000015378
    vertex 2740.548386663039 163.22187409094528 17.350000000013136
    vertex 2734.198386663016 163.22187409094528 -47.49999999998461
  endloop
endfacet
facet normal 0.0 1.0 0.0
  outer loop
    vertex 2740.548386663039 163.22187409094528 17.350000000013136
    vertex 2734.1983866630408 163.22187409094528 22.350000000015378
    vertex 2778.6483866630388 163.22187409094528 17.349999999999714
  endloop
endfacet
facet normal 0.0 1.0 0.0
  outer loop
    vertex 2734.198386663016 163.22187409094528 -47.49999999998461
    vertex 2740.548386663039 163.22187409094528 17.350000000013136
    vertex 2740.548386663016 163.22187409094528 -47.49999999998684
  endloop
endfacet
facet normal 1.0 7.53206706296465e-30 -3.609557097661309e-13
  outer loop
    vertex 2763.3483866630386 153.70553772662262 17.350000000005107
    vertex 2763.3483866630404 123.7055377266226 22.350000000005107
    vertex 2763.3483866630386 123.7055377266226 17.350000000005107
  endloop
endfacet
facet normal 1.0 7.53206706296465e-30 -3.609557097661309e-13
  outer loop
    vertex 2763.3483866630404 123.7055377266226 22.350000000005107
    vertex 2763.3483866630386 153.70553772662262 17.350000000005107
    vertex 2763.34838666304 152.49928772662264 21.350000000005107
  endloop
endfacet
facet normal 1.0 7.53206706296465e-30 -3.609557097661309e-13
  outer loop
    vertex 2763.3483866630404 152.49928772662264 22.350000000005107
    vertex 2763.3483866630404 123.7055377266226 22.350000000005107
    vertex 2763.34838666304 152.49928772662264 21.350000000005107
  endloop
endfacet
facet normal -1.0 0.0 3.523847880160247e-13
  outer loop
    vertex 2734.1983866630408 112.42187409094528 22.350000000015378
    vertex 2734.198386663039 118.77187409094529 17.350000000015378
    vertex 2734.1983866630158 112.42187409094528 -47.49999999998462
  endloop
endfacet
facet normal -1.0 0.0 3.523847880160247e-13
  outer loop
    vertex 2734.198386663039 118.77187409094529 17.350000000015378
    vertex 2734.1983866630408 112.42187409094528 22.350000000015378
    vertex 2734.1983866630408 163.22187409094528 22.350000000015378
  endloop
endfacet
facet normal -1.0 0.0 3.523847880160247e-13
  outer loop
    vertex 2734.198386663039 118.77187409094529 17.350000000015378
    vertex 2734.1983866630408 163.22187409094528 22.350000000015378
    vertex 2734.198386663039 156.87187409094528 17.350000000015378
  endloop
endfacet
facet normal -1.0 0.0 3.523847880160247e-13
  outer loop
    vertex 2734.198386663039 156.87187409094528 17.350000000015378
    vertex 2734.1983866630408 163.22187409094528 22.350000000015378
    vertex 2734.198386663016 156.87187409094528 -47.49999999998461
  endloop
endfacet
facet normal -1.0 0.0 3.523847880160247e-13
  outer loop
    vertex 2734.198386663016 156.87187409094528 -47.49999999998461
    vertex 2734.1983866630408 163.22187409094528 22.350000000015378
    vertex 2734.198386663016 163.22187409094528 -47.49999999998461
  endloop
endfacet
facet normal -1.0 0.0 3.523847880160247e-13
  outer loop
    vertex 2734.1983866630158 118.77187409094529 -47.49999999998462
    vertex 2734.1983866630158 112.42187409094528 -47.49999999998462
    vertex 2734.198386663039 118.77187409094529 17.350000000015378
  endloop
endfacet
facet normal -1.0 0.0 3.523847880160247e-13
  outer loop
    vertex 2753.848386663036 124.90153786113245 9.199405710896833
    vertex 2753.8483866630354 124.90153786113245 8.500594289120038
    vertex 2753.848386663036 124.85553772662269 8.850000000008436
  endloop
endfacet
facet normal -1.0 0.0 3.523847880160247e-13
  outer loop
    vertex 2753.8483866630354 124.90153786113245 8.500594289120038
    vertex 2753.848386663036 124.90153786113245 9.199405710896833
    vertex 2753.848386663036 125.03640343151362 9.52500000000843
  endloop
endfacet
facet normal -1.0 0.0 3.523847880160247e-13
  outer loop
    vertex 2753.8483866630354 124.90153786113245 8.500594289120038
    vertex 2753.848386663036 125.03640343151362 9.52500000000843
    vertex 2753.8483866630354 125.0364034315137 8.175000000008447
  endloop
endfacet
facet normal -1.0 0.0 3.523847880160247e-13
  outer loop
    vertex 2753.8483866630354 125.0364034315137 8.175000000008447
    vertex 2753.848386663036 125.03640343151362 9.52500000000843
    vertex 2753.8483866630363 125.25094357202074 9.804594154610266
  endloop
endfacet
facet normal -1.0 0.0 3.523847880160247e-13
  outer loop
    vertex 2753.8483866630354 125.0364034315137 8.175000000008447
    vertex 2753.8483866630363 125.25094357202074 9.804594154610266
    vertex 2753.8483866630354 125.25094357202083 7.895405845406614
  endloop
endfacet
facet normal -1.0 0.0 3.523847880160247e-13
  outer loop
    vertex 2753.8483866630354 125.25094357202083 7.895405845406614
    vertex 2753.8483866630363 125.25094357202074 9.804594154610266
    vertex 2753.8483866630363 125.53053772662263 10.019134295117423
  endloop
endfacet
facet normal -1.0 0.0 3.523847880160247e-13
  outer loop
    vertex 2753.8483866630354 125.25094357202083 7.895405845406614
    vertex 2753.8483866630363 125.53053772662263 10.019134295117423
    vertex 2753.8483866630368 125.53053772662263 7.680865704899465
  endloop
endfacet
facet normal -1.0 0.0 3.523847880160247e-13
  outer loop
    vertex 2753.8483866630368 125.53053772662263 7.680865704899465
    vertex 2753.8483866630363 125.53053772662263 10.019134295117423
    vertex 2753.8483866630363 125.85613201573419 10.153999865498678
  endloop
endfacet
facet normal -1.0 0.0 3.523847880160247e-13
  outer loop
    vertex 2753.8483866630368 125.53053772662263 7.680865704899465
    vertex 2753.8483866630363 125.85613201573419 10.153999865498678
    vertex 2753.8483866630368 125.85613201573427 7.546000134518221
  endloop
endfacet
facet normal -1.0 0.0 3.523847880160247e-13
  outer loop
    vertex 2753.8483866630368 125.85613201573427 7.546000134518221
    vertex 2753.8483866630363 125.85613201573419 10.153999865498678
    vertex 2753.8483866630363 126.20553772662265 10.20000000000844
  endloop
endfacet
facet normal -1.0 0.0 3.523847880160247e-13
  outer loop
    vertex 2753.8483866630368 125.85613201573427 7.546000134518221
    vertex 2753.8483866630363 126.20553772662265 10.20000000000844
    vertex 2753.848386663035 126.20553772662265 7.5000000000084714
  endloop
endfacet
facet normal -1.0 0.0 3.523847880160247e-13
  outer loop
    vertex 2753.848386663035 126.20553772662265 7.5000000000084714
    vertex 2753.8483866630363 126.20553772662265 10.20000000000844
    vertex 2753.8483866630363 126.55494343751103 10.15399986549869
  endloop
endfacet
facet normal -1.0 0.0 3.523847880160247e-13
  outer loop
    vertex 2753.848386663035 126.20553772662265 7.5000000000084714
    vertex 2753.8483866630363 126.55494343751103 10.15399986549869
    vertex 2753.8483866630368 126.55494343751111 7.546000134518232
  endloop
endfacet
facet normal -1.0 0.0 3.523847880160247e-13
  outer loop
    vertex 2753.8483866630368 126.55494343751111 7.546000134518232
    vertex 2753.8483866630363 126.55494343751103 10.15399986549869
    vertex 2753.8483866630363 126.88053772662268 10.019134295117448
  endloop
endfacet
facet normal -1.0 0.0 3.523847880160247e-13
  outer loop
    vertex 2753.8483866630368 126.55494343751111 7.546000134518232
    vertex 2753.8483866630363 126.88053772662268 10.019134295117448
    vertex 2753.8483866630368 126.88053772662268 7.680865704899487
  endloop
endfacet
facet normal -1.0 0.0 3.523847880160247e-13
  outer loop
    vertex 2753.8483866630368 126.88053772662268 7.680865704899487
    vertex 2753.8483866630363 126.88053772662268 10.019134295117448
    vertex 2753.8483866630363 127.16013188122447 9.804594154610301
  endloop
endfacet
facet normal -1.0 0.0 3.523847880160247e-13
  outer loop
    vertex 2753.8483866630368 126.88053772662268 7.680865704899487
    vertex 2753.8483866630363 127.16013188122447 9.804594154610301
    vertex 2753.8483866630354 127.16013188122447 7.895405845406648
  endloop
endfacet
facet normal -1.0 0.0 3.523847880160247e-13
  outer loop
    vertex 2753.8483866630354 127.16013188122447 7.895405845406648
    vertex 2753.8483866630363 127.16013188122447 9.804594154610301
    vertex 2753.848386663036 127.3746720217316 9.525000000008474
  endloop
endfacet
facet normal -1.0 0.0 3.523847880160247e-13
  outer loop
    vertex 2753.8483866630354 127.16013188122447 7.895405845406648
    vertex 2753.848386663036 127.3746720217316 9.525000000008474
    vertex 2753.8483866630354 127.37467202173168 8.175000000008486
  endloop
endfacet
facet normal -1.0 0.0 3.523847880160247e-13
  outer loop
    vertex 2753.8483866630354 127.37467202173168 8.175000000008486
    vertex 2753.848386663036 127.3746720217316 9.525000000008474
    vertex 2753.848386663036 127.50953759211285 9.199405710896878
  endloop
endfacet
facet normal -1.0 0.0 3.523847880160247e-13
  outer loop
    vertex 2753.8483866630354 127.37467202173168 8.175000000008486
    vertex 2753.848386663036 127.50953759211285 9.199405710896878
    vertex 2753.8483866630354 127.50953759211285 8.500594289120082
  endloop
endfacet
facet normal -1.0 0.0 3.523847880160247e-13
  outer loop
    vertex 2753.8483866630354 127.50953759211285 8.500594289120082
    vertex 2753.848386663036 127.50953759211285 9.199405710896878
    vertex 2753.848386663036 127.55553772662262 8.85000000000848
  endloop
endfacet
facet normal -3.493700873047888e-13 -0.13052619222003892 -0.991444861373812
  outer loop
    vertex 2753.8483866630368 125.85613201573427 7.546000134518221
    vertex 2755.8483866630354 126.20553772662265 7.500000000007766
    vertex 2755.8483866630368 125.85613201573427 7.5460001345175165
  endloop
endfacet
facet normal -3.493700873047888e-13 -0.13052619222003892 -0.991444861373812
  outer loop
    vertex 2755.8483866630354 126.20553772662265 7.500000000007766
    vertex 2753.8483866630368 125.85613201573427 7.546000134518221
    vertex 2753.848386663035 126.20553772662265 7.5000000000084714
  endloop
endfacet
facet normal -3.190341967706691e-14 0.9958932064677035 -0.09053574604252243
  outer loop
    vertex 2761.848386663039 129.70553772662268 17.350000000005636
    vertex 2755.848386663035 128.70553772662262 6.350000000007752
    vertex 2755.848386663039 129.70553772662268 17.35000000000775
  endloop
endfacet
facet normal -3.190341967706691e-14 0.9958932064677035 -0.09053574604252243
  outer loop
    vertex 2755.848386663035 128.70553772662262 6.350000000007752
    vertex 2761.848386663039 129.70553772662268 17.350000000005636
    vertex 2759.848386663035 128.70553772662262 6.350000000006342
  endloop
endfacet
facet normal 4.5995444576098625e-14 -0.9914448613737743 0.13052619222032644
  outer loop
    vertex 2771.848386663036 124.8555377266226 8.850000000002094
    vertex 2774.6421366630357 124.90153786113245 9.199405710889517
    vertex 2771.848386663036 124.90153786113245 9.1994057108905
  endloop
endfacet
facet normal 4.5995444576098625e-14 -0.9914448613737743 0.13052619222032644
  outer loop
    vertex 2774.6421366630357 124.90153786113245 9.199405710889517
    vertex 2771.848386663036 124.8555377266226 8.850000000002094
    vertex 2774.6421366630357 124.8555377266226 8.850000000001108
  endloop
endfacet
facet normal -1.3485182019114067e-13 0.9238795325113763 -0.3826834323648735
  outer loop
    vertex 2774.642136663035 127.37467202173168 8.175000000001132
    vertex 2771.8483866630354 127.50953759211285 8.500594289113723
    vertex 2774.642136663035 127.50953759211285 8.500594289112739
  endloop
endfacet
facet normal -1.3485182019114067e-13 0.9238795325113763 -0.3826834323648735
  outer loop
    vertex 2771.8483866630354 127.50953759211285 8.500594289113723
    vertex 2774.642136663035 127.37467202173168 8.175000000001132
    vertex 2771.8483866630354 127.37467202173168 8.175000000002116
  endloop
endfacet
facet normal -3.493700873047878e-13 0.13052619222003722 -0.9914448613738123
  outer loop
    vertex 2755.8483866630354 126.20553772662265 7.500000000007766
    vertex 2753.8483866630368 126.55494343751111 7.546000134518232
    vertex 2755.8483866630368 126.55494343751111 7.546000134517527
  endloop
endfacet
facet normal -3.493700873047878e-13 0.13052619222003722 -0.9914448613738123
  outer loop
    vertex 2753.8483866630368 126.55494343751111 7.546000134518232
    vertex 2755.8483866630354 126.20553772662265 7.500000000007766
    vertex 2753.848386663035 126.20553772662265 7.5000000000084714
  endloop
endfacet
facet normal 0.0 -1.0 0.0
  outer loop
    vertex 2763.34838666304 152.49928772662264 21.350000000005107
    vertex 2774.6421366630407 152.49928772662264 22.350000000001128
    vertex 2763.3483866630404 152.49928772662264 22.350000000005107
  endloop
endfacet
facet normal 0.0 -1.0 0.0
  outer loop
    vertex 2774.6421366630407 152.49928772662264 22.350000000001128
    vertex 2763.34838666304 152.49928772662264 21.350000000005107
    vertex 2774.64213666304 152.49928772662264 21.350000000001128
  endloop
endfacet
facet normal 3.493700873047875e-13 -0.13052619222004513 0.9914448613738114
  outer loop
    vertex 2753.8483866630363 126.20553772662265 10.20000000000844
    vertex 2755.848386663036 125.85613201573419 10.153999865497973
    vertex 2755.848386663036 126.20553772662265 10.200000000007737
  endloop
endfacet
facet normal 3.493700873047875e-13 -0.13052619222004513 0.9914448613738114
  outer loop
    vertex 2755.848386663036 125.85613201573419 10.153999865497973
    vertex 2753.8483866630363 126.20553772662265 10.20000000000844
    vertex 2753.8483866630363 125.85613201573419 10.153999865498678
  endloop
endfacet
facet normal -1.3485182019114463e-13 0.9238795325113717 -0.3826834323648848
  outer loop
    vertex 2755.8483866630354 127.37467202173168 8.175000000007783
    vertex 2753.8483866630354 127.50953759211285 8.500594289120082
    vertex 2755.8483866630354 127.50953759211285 8.500594289119377
  endloop
endfacet
facet normal -1.3485182019114463e-13 0.9238795325113717 -0.3826834323648848
  outer loop
    vertex 2753.8483866630354 127.50953759211285 8.500594289120082
    vertex 2755.8483866630354 127.37467202173168 8.175000000007783
    vertex 2753.8483866630354 127.37467202173168 8.175000000008486
  endloop
endfacet
facet normal 0.0 1.0 0.0
  outer loop
    vertex 2774.642136663039 123.7055377266226 17.350000000001128
    vertex 2763.3483866630404 123.7055377266226 22.350000000005107
    vertex 2774.6421366630407 123.7055377266226 22.350000000001128
  endloop
endfacet
facet normal 0.0 1.0 0.0
  outer loop
    vertex 2763.3483866630404 123.7055377266226 22.350000000005107
    vertex 2774.642136663039 123.7055377266226 17.350000000001128
    vertex 2763.3483866630386 123.7055377266226 17.350000000005107
  endloop
endfacet
facet normal 2.795656486403185e-13 0.6087614290087706 0.7933533402911969
  outer loop
    vertex 2753.8483866630363 127.16013188122447 9.804594154610301
    vertex 2755.848386663036 126.88053772662268 10.019134295116743
    vertex 2755.848386663036 127.16013188122447 9.804594154609596
  endloop
endfacet
facet normal 2.795656486403185e-13 0.6087614290087706 0.7933533402911969
  outer loop
    vertex 2755.848386663036 126.88053772662268 10.019134295116743
    vertex 2753.8483866630363 127.16013188122447 9.804594154610301
    vertex 2753.8483866630363 126.88053772662268 10.019134295117448
  endloop
endfacet
facet normal -3.255610932163269e-13 0.38268343236513735 -0.9238795325112672
  outer loop
    vertex 2771.848386663037 126.55494343751111 7.546000134511856
    vertex 2774.6421366630366 126.88053772662268 7.680865704892127
    vertex 2774.6421366630366 126.55494343751111 7.546000134510872
  endloop
endfacet
facet normal -3.255610932163269e-13 0.38268343236513735 -0.9238795325112672
  outer loop
    vertex 2774.6421366630366 126.88053772662268 7.680865704892127
    vertex 2771.848386663037 126.55494343751111 7.546000134511856
    vertex 2771.848386663037 126.88053772662268 7.680865704893111
  endloop
endfacet
facet normal 4.599544457600993e-14 0.9914448613738075 0.13052619222007475
  outer loop
    vertex 2774.6421366630357 127.5555377266227 8.850000000001145
    vertex 2771.848386663036 127.50953759211293 9.199405710890536
    vertex 2774.6421366630357 127.50953759211293 9.199405710889552
  endloop
endfacet
facet normal 4.599544457600993e-14 0.9914448613738075 0.13052619222007475
  outer loop
    vertex 2771.848386663036 127.50953759211293 9.199405710890536
    vertex 2774.6421366630357 127.5555377266227 8.850000000001145
    vertex 2771.848386663036 127.5555377266227 8.85000000000213
  endloop
endfacet
facet normal 2.1451826711360288e-13 -0.7933533402911644 0.6087614290088131
  outer loop
    vertex 2771.8483866630363 125.25094357202083 9.80459415460395
    vertex 2774.6421366630357 125.03640343151362 9.52500000000112
    vertex 2774.6421366630357 125.25094357202083 9.804594154602968
  endloop
endfacet
facet normal 2.1451826711360288e-13 -0.7933533402911644 0.6087614290088131
  outer loop
    vertex 2774.6421366630357 125.03640343151362 9.52500000000112
    vertex 2771.8483866630363 125.25094357202083 9.80459415460395
    vertex 2771.848386663036 125.03640343151362 9.525000000002104
  endloop
endfacet
facet normal -1.0 1.3632327706054564e-29 3.6095570976613077e-13
  outer loop
    vertex 2774.6421366630407 152.49928772662264 22.350000000001128
    vertex 2774.642136663039 123.7055377266226 17.350000000001128
    vertex 2774.6421366630407 123.7055377266226 22.350000000001128
  endloop
endfacet
facet normal -1.0 1.3632327706054564e-29 3.6095570976613077e-13
  outer loop
    vertex 2774.642136663039 123.7055377266226 17.350000000001128
    vertex 2774.6421366630407 152.49928772662264 22.350000000001128
    vertex 2774.642136663039 129.70553772662268 17.350000000001128
  endloop
endfacet
facet normal -1.0 1.3632327706054564e-29 3.6095570976613077e-13
  outer loop
    vertex 2774.642136663039 123.7055377266226 17.350000000001128
    vertex 2774.642136663039 129.70553772662268 17.350000000001128
    vertex 2774.6421366630357 125.03640343151362 9.52500000000112
  endloop
endfacet
facet normal -1.0 1.3632327706054564e-29 3.6095570976613077e-13
  outer loop
    vertex 2774.642136663039 123.7055377266226 17.350000000001128
    vertex 2774.6421366630357 125.03640343151362 9.52500000000112
    vertex 2774.6421366630348 123.7055377266226 6.350000000001128
  endloop
endfacet
facet normal -1.0 1.3632327706054564e-29 3.6095570976613077e-13
  outer loop
    vertex 2774.6421366630348 123.7055377266226 6.350000000001128
    vertex 2774.6421366630357 125.03640343151362 9.52500000000112
    vertex 2774.6421366630357 124.90153786113245 9.199405710889517
  endloop
endfacet
facet normal -1.0 1.3632327706054564e-29 3.6095570976613077e-13
  outer loop
    vertex 2774.6421366630348 123.7055377266226 6.350000000001128
    vertex 2774.6421366630357 124.90153786113245 9.199405710889517
    vertex 2774.6421366630357 124.8555377266226 8.850000000001108
  endloop
endfacet
facet normal -1.0 1.3632327706054564e-29 3.6095570976613077e-13
  outer loop
    vertex 2774.6421366630357 125.03640343151362 9.52500000000112
    vertex 2774.642136663039 129.70553772662268 17.350000000001128
    vertex 2774.6421366630357 125.25094357202083 9.804594154602968
  endloop
endfacet
facet normal -1.0 1.3632327706054564e-29 3.6095570976613077e-13
  outer loop
    vertex 2774.6421366630357 125.25094357202083 9.804594154602968
    vertex 2774.642136663039 129.70553772662268 17.350000000001128
    vertex 2774.6421366630357 125.53053772662263 10.01913429511013
  endloop
endfacet
facet normal -1.0 1.3632327706054564e-29 3.6095570976613077e-13
  outer loop
    vertex 2774.6421366630357 125.53053772662263 10.01913429511013
    vertex 2774.642136663039 129.70553772662268 17.350000000001128
    vertex 2774.6421366630357 125.85613201573419 10.153999865491384
  endloop
endfacet
facet normal -1.0 1.3632327706054564e-29 3.6095570976613077e-13
  outer loop
    vertex 2774.6421366630357 125.85613201573419 10.153999865491384
    vertex 2774.642136663039 129.70553772662268 17.350000000001128
    vertex 2774.6421366630357 126.20553772662257 10.20000000000115
  endloop
endfacet
facet normal -1.0 1.3632327706054564e-29 3.6095570976613077e-13
  outer loop
    vertex 2774.6421366630357 126.20553772662257 10.20000000000115
    vertex 2774.642136663039 129.70553772662268 17.350000000001128
    vertex 2774.6421366630357 126.55494343751103 10.153999865491395
  endloop
endfacet
facet normal -1.0 1.3632327706054564e-29 3.6095570976613077e-13
  outer loop
    vertex 2774.6421366630357 126.55494343751103 10.153999865491395
    vertex 2774.642136663039 129.70553772662268 17.350000000001128
    vertex 2774.6421366630357 126.88053772662268 10.019134295110147
  endloop
endfacet
facet normal -1.0 1.3632327706054564e-29 3.6095570976613077e-13
  outer loop
    vertex 2774.6421366630357 126.88053772662268 10.019134295110147
    vertex 2774.642136663039 129.70553772662268 17.350000000001128
    vertex 2774.6421366630357 127.16013188122447 9.804594154602997
  endloop
endfacet
facet normal -1.0 1.3632327706054564e-29 3.6095570976613077e-13
  outer loop
    vertex 2774.6421366630357 127.16013188122447 9.804594154602997
    vertex 2774.642136663039 129.70553772662268 17.350000000001128
    vertex 2774.6421366630357 127.37467202173168 9.525000000001153
  endloop
endfacet
facet normal -1.0 1.3632327706054564e-29 3.6095570976613077e-13
  outer loop
    vertex 2774.6421366630357 127.37467202173168 9.525000000001153
    vertex 2774.642136663039 129.70553772662268 17.350000000001128
    vertex 2774.6421366630357 127.50953759211293 9.199405710889552
  endloop
endfacet
facet normal -1.0 1.3632327706054564e-29 3.6095570976613077e-13
  outer loop
    vertex 2774.6421366630357 127.50953759211293 9.199405710889552
    vertex 2774.642136663039 129.70553772662268 17.350000000001128
    vertex 2774.6421366630357 127.5555377266227 8.850000000001145
  endloop
endfacet
facet normal -1.0 1.3632327706054564e-29 3.6095570976613077e-13
  outer loop
    vertex 2774.6421366630357 127.5555377266227 8.850000000001145
    vertex 2774.642136663039 129.70553772662268 17.350000000001128
    vertex 2774.6421366630348 128.70553772662262 6.350000000001128
  endloop
endfacet
facet normal -1.0 1.3632327706054564e-29 3.6095570976613077e-13
  outer loop
    vertex 2774.642136663039 129.70553772662268 17.350000000001128
    vertex 2774.6421366630407 152.49928772662264 22.350000000001128
    vertex 2774.64213666304 152.49928772662264 21.350000000001128
  endloop
endfacet
facet normal -1.0 1.3632327706054564e-29 3.6095570976613077e-13
  outer loop
    vertex 2774.642136663039 129.70553772662268 17.350000000001128
    vertex 2774.64213666304 152.49928772662264 21.350000000001128
    vertex 2774.642136663039 153.70553772662262 17.350000000001128
  endloop
endfacet
facet normal -1.0 1.3632327706054564e-29 3.6095570976613077e-13
  outer loop
    vertex 2774.6421366630348 123.7055377266226 6.350000000001128
    vertex 2774.6421366630366 125.53053772662263 7.680865704892107
    vertex 2774.6421366630348 128.70553772662262 6.350000000001128
  endloop
endfacet
facet normal -1.0 1.3632327706054564e-29 3.6095570976613077e-13
  outer loop
    vertex 2774.6421366630366 125.53053772662263 7.680865704892107
    vertex 2774.6421366630348 123.7055377266226 6.350000000001128
    vertex 2774.642136663035 125.25094357202083 7.895405845399262
  endloop
endfacet
facet normal -1.0 1.3632327706054564e-29 3.6095570976613077e-13
  outer loop
    vertex 2774.642136663035 125.25094357202083 7.895405845399262
    vertex 2774.6421366630348 123.7055377266226 6.350000000001128
    vertex 2774.642136663035 125.03640343151362 8.175000000001098
  endloop
endfacet
facet normal -1.0 1.3632327706054564e-29 3.6095570976613077e-13
  outer loop
    vertex 2774.642136663035 125.03640343151362 8.175000000001098
    vertex 2774.6421366630348 123.7055377266226 6.350000000001128
    vertex 2774.642136663035 124.90153786113237 8.5005942891127
  endloop
endfacet
facet normal -1.0 1.3632327706054564e-29 3.6095570976613077e-13
  outer loop
    vertex 2774.642136663035 124.90153786113237 8.5005942891127
    vertex 2774.6421366630348 123.7055377266226 6.350000000001128
    vertex 2774.6421366630357 124.8555377266226 8.850000000001108
  endloop
endfacet
facet normal -1.0 1.3632327706054564e-29 3.6095570976613077e-13
  outer loop
    vertex 2774.6421366630348 128.70553772662262 6.350000000001128
    vertex 2774.6421366630366 125.53053772662263 7.680865704892107
    vertex 2774.6421366630366 125.85613201573427 7.546000134510861
  endloop
endfacet
facet normal -1.0 1.3632327706054564e-29 3.6095570976613077e-13
  outer loop
    vertex 2774.6421366630348 128.70553772662262 6.350000000001128
    vertex 2774.6421366630366 125.85613201573427 7.546000134510861
    vertex 2774.6421366630366 126.20553772662274 7.500000000001106
  endloop
endfacet
facet normal -1.0 1.3632327706054564e-29 3.6095570976613077e-13
  outer loop
    vertex 2774.6421366630348 128.70553772662262 6.350000000001128
    vertex 2774.6421366630366 126.20553772662274 7.500000000001106
    vertex 2774.6421366630366 126.55494343751111 7.546000134510872
  endloop
endfacet
facet normal -1.0 1.3632327706054564e-29 3.6095570976613077e-13
  outer loop
    vertex 2774.6421366630348 128.70553772662262 6.350000000001128
    vertex 2774.6421366630366 126.55494343751111 7.546000134510872
    vertex 2774.6421366630366 126.88053772662268 7.680865704892127
  endloop
endfacet
facet normal -1.0 1.3632327706054564e-29 3.6095570976613077e-13
  outer loop
    vertex 2774.6421366630348 128.70553772662262 6.350000000001128
    vertex 2774.6421366630366 126.88053772662268 7.680865704892127
    vertex 2774.642136663035 127.16013188122447 7.895405845399288
  endloop
endfacet
facet normal -1.0 1.3632327706054564e-29 3.6095570976613077e-13
  outer loop
    vertex 2774.6421366630348 128.70553772662262 6.350000000001128
    vertex 2774.642136663035 127.16013188122447 7.895405845399288
    vertex 2774.642136663035 127.37467202173168 8.175000000001132
  endloop
endfacet
facet normal -1.0 1.3632327706054564e-29 3.6095570976613077e-13
  outer loop
    vertex 2774.6421366630348 128.70553772662262 6.350000000001128
    vertex 2774.642136663035 127.37467202173168 8.175000000001132
    vertex 2774.642136663035 127.50953759211285 8.500594289112739
  endloop
endfacet
facet normal -1.0 1.3632327706054564e-29 3.6095570976613077e-13
  outer loop
    vertex 2774.6421366630348 128.70553772662262 6.350000000001128
    vertex 2774.642136663035 127.50953759211285 8.500594289112739
    vertex 2774.6421366630357 127.5555377266227 8.850000000001145
  endloop
endfacet
facet normal -1.0 1.3632327706054564e-29 3.6095570976613077e-13
  outer loop
    vertex 2774.6421366630348 123.7055377266226 6.350000000001128
    vertex 2774.642136663039 122.70553772662254 17.350000000001128
    vertex 2774.642136663039 123.7055377266226 17.350000000001128
  endloop
endfacet
facet normal -3.2556109321634093e-13 -0.38268343236501945 -0.9238795325113159
  outer loop
    vertex 2753.8483866630368 125.53053772662263 7.680865704899465
    vertex 2755.8483866630368 125.85613201573427 7.5460001345175165
    vertex 2755.8483866630368 125.53053772662263 7.68086570489876
  endloop
endfacet
facet normal -3.2556109321634093e-13 -0.38268343236501945 -0.9238795325113159
  outer loop
    vertex 2755.8483866630368 125.85613201573427 7.5460001345175165
    vertex 2753.8483866630368 125.53053772662263 7.680865704899465
    vertex 2753.8483866630368 125.85613201573427 7.546000134518221
  endloop
endfacet
facet normal 0.0 -1.0 0.0
  outer loop
    vertex 2734.1983866630408 112.42187409094528 22.350000000015378
    vertex 2740.548386663039 112.42187409094528 17.350000000013136
    vertex 2784.9983866630405 112.42187409094528 22.34999999999748
  endloop
endfacet
facet normal 0.0 -1.0 0.0
  outer loop
    vertex 2740.548386663039 112.42187409094528 17.350000000013136
    vertex 2734.1983866630408 112.42187409094528 22.350000000015378
    vertex 2734.1983866630158 112.42187409094528 -47.49999999998462
  endloop
endfacet
facet normal 0.0 -1.0 0.0
  outer loop
    vertex 2740.548386663039 112.42187409094528 17.350000000013136
    vertex 2734.1983866630158 112.42187409094528 -47.49999999998462
    vertex 2740.5483866630157 112.42187409094528 -47.49999999998685
  endloop
endfacet
facet normal 0.0 -1.0 0.0
  outer loop
    vertex 2784.9983866630405 112.42187409094528 22.34999999999748
    vertex 2778.6483866630388 112.42187409094528 17.349999999999714
    vertex 2784.9983866630146 112.42187409094528 -47.50000000000251
  endloop
endfacet
facet normal 0.0 -1.0 0.0
  outer loop
    vertex 2778.6483866630388 112.42187409094528 17.349999999999714
    vertex 2784.9983866630405 112.42187409094528 22.34999999999748
    vertex 2740.548386663039 112.42187409094528 17.350000000013136
  endloop
endfacet
facet normal 0.0 -1.0 0.0
  outer loop
    vertex 2784.9983866630146 112.42187409094528 -47.50000000000251
    vertex 2778.6483866630388 112.42187409094528 17.349999999999714
    vertex 2778.6483866630147 112.42187409094528 -47.50000000000028
  endloop
endfacet
facet normal -3.493700873047886e-13 -0.13052619222002151 -0.9914448613738145
  outer loop
    vertex 2771.848386663037 125.85613201573427 7.5460001345118455
    vertex 2774.6421366630366 126.20553772662274 7.500000000001106
    vertex 2774.6421366630366 125.85613201573427 7.546000134510861
  endloop
endfacet
facet normal -3.493700873047886e-13 -0.13052619222002151 -0.9914448613738145
  outer loop
    vertex 2774.6421366630366 126.20553772662274 7.500000000001106
    vertex 2771.848386663037 125.85613201573427 7.5460001345118455
    vertex 2771.8483866630354 126.20553772662274 7.50000000000209
  endloop
endfacet
facet normal 3.2556109321632634e-13 -0.38268343236514074 0.9238795325112656
  outer loop
    vertex 2771.8483866630363 125.85613201573419 10.153999865492368
    vertex 2774.6421366630357 125.53053772662263 10.01913429511013
    vertex 2774.6421366630357 125.85613201573419 10.153999865491384
  endloop
endfacet
facet normal 3.2556109321632634e-13 -0.38268343236514074 0.9238795325112656
  outer loop
    vertex 2774.6421366630357 125.53053772662263 10.01913429511013
    vertex 2771.8483866630363 125.85613201573419 10.153999865492368
    vertex 2771.8483866630363 125.53053772662263 10.019134295111112
  endloop
endfacet
facet normal -2.795656486403129e-13 0.6087614290087908 -0.7933533402911814
  outer loop
    vertex 2753.8483866630368 126.88053772662268 7.680865704899487
    vertex 2755.8483866630354 127.16013188122447 7.895405845405943
    vertex 2755.8483866630368 126.88053772662268 7.680865704898782
  endloop
endfacet
facet normal -2.795656486403129e-13 0.6087614290087908 -0.7933533402911814
  outer loop
    vertex 2755.8483866630354 127.16013188122447 7.895405845405943
    vertex 2753.8483866630368 126.88053772662268 7.680865704899487
    vertex 2753.8483866630354 127.16013188122447 7.895405845406648
  endloop
endfacet
facet normal -1.0171419607010583e-13 -0.9574135702049259 -0.28872002976492206
  outer loop
    vertex 2763.3483866630386 153.70553772662262 17.350000000005107
    vertex 2774.64213666304 152.49928772662264 21.350000000001128
    vertex 2763.34838666304 152.49928772662264 21.350000000005107
  endloop
endfacet
facet normal -1.0171419607010583e-13 -0.9574135702049259 -0.28872002976492206
  outer loop
    vertex 2774.64213666304 152.49928772662264 21.350000000001128
    vertex 2763.3483866630386 153.70553772662262 17.350000000005107
    vertex 2774.642136663039 153.70553772662262 17.350000000001128
  endloop
endfacet
facet normal 0.0 1.0 0.0
  outer loop
    vertex 2755.848386663039 123.7055377266226 17.35000000000775
    vertex 2744.554636663041 123.7055377266226 22.350000000011725
    vertex 2755.848386663041 123.7055377266226 22.35000000000776
  endloop
endfacet
facet normal 0.0 1.0 0.0
  outer loop
    vertex 2744.554636663041 123.7055377266226 22.350000000011725
    vertex 2755.848386663039 123.7055377266226 17.35000000000775
    vertex 2744.554636663039 123.7055377266226 17.35000000001173
  endloop
endfacet
facet normal 0.9838699100998516 1.826184832193267e-17 -0.1788854382002905
  outer loop
    vertex 2777.848386663035 123.7055377266226 6.349999999999997
    vertex 2779.8483866630386 129.70553772662268 17.34999999999929
    vertex 2779.8483866630386 122.70553772662254 17.34999999999929
  endloop
endfacet
facet normal 0.9838699100998516 1.826184832193267e-17 -0.1788854382002905
  outer loop
    vertex 2779.8483866630386 129.70553772662268 17.34999999999929
    vertex 2777.848386663035 123.7055377266226 6.349999999999997
    vertex 2777.848386663035 128.70553772662262 6.349999999999997
  endloop
endfacet
facet normal 3.523847880160247e-13 0.0 1.0
  outer loop
    vertex 2784.9983866630405 163.22187409094528 22.34999999999748
    vertex 2774.6421366630407 152.49928772662264 22.350000000001128
    vertex 2784.9983866630405 112.42187409094528 22.34999999999748
  endloop
endfacet
facet normal 3.523847880160247e-13 0.0 1.0
  outer loop
    vertex 2774.6421366630407 152.49928772662264 22.350000000001128
    vertex 2784.9983866630405 163.22187409094528 22.34999999999748
    vertex 2734.1983866630408 163.22187409094528 22.350000000015378
  endloop
endfacet
facet normal 3.523847880160247e-13 0.0 1.0
  outer loop
    vertex 2774.6421366630407 152.49928772662264 22.350000000001128
    vertex 2734.1983866630408 163.22187409094528 22.350000000015378
    vertex 2763.3483866630404 152.49928772662264 22.350000000005107
  endloop
endfacet
facet normal 3.523847880160247e-13 0.0 1.0
  outer loop
    vertex 2763.3483866630404 152.49928772662264 22.350000000005107
    vertex 2734.1983866630408 163.22187409094528 22.350000000015378
    vertex 2755.848386663041 152.49928772662264 22.35000000000776
  endloop
endfacet
facet normal 3.523847880160247e-13 0.0 1.0
  outer loop
    vertex 2763.3483866630404 152.49928772662264 22.350000000005107
    vertex 2755.848386663041 152.49928772662264 22.35000000000776
    vertex 2763.3483866630404 123.7055377266226 22.350000000005107
  endloop
endfacet
facet normal 3.523847880160247e-13 0.0 1.0
  outer loop
    vertex 2755.848386663041 152.49928772662264 22.35000000000776
    vertex 2734.1983866630408 163.22187409094528 22.350000000015378
    vertex 2744.554636663041 152.49928772662264 22.350000000011725
  endloop
endfacet
facet normal 3.523847880160247e-13 0.0 1.0
  outer loop
    vertex 2744.554636663041 152.49928772662264 22.350000000011725
    vertex 2734.1983866630408 163.22187409094528 22.350000000015378
    vertex 2744.554636663041 123.7055377266226 22.350000000011725
  endloop
endfacet
facet normal 3.523847880160247e-13 0.0 1.0
  outer loop
    vertex 2784.9983866630405 112.42187409094528 22.34999999999748
    vertex 2774.6421366630407 123.7055377266226 22.350000000001128
    vertex 2734.1983866630408 112.42187409094528 22.350000000015378
  endloop
endfacet
facet normal 3.523847880160247e-13 0.0 1.0
  outer loop
    vertex 2774.6421366630407 123.7055377266226 22.350000000001128
    vertex 2784.9983866630405 112.42187409094528 22.34999999999748
    vertex 2774.6421366630407 152.49928772662264 22.350000000001128
  endloop
endfacet
facet normal 3.523847880160247e-13 0.0 1.0
  outer loop
    vertex 2734.1983866630408 112.42187409094528 22.350000000015378
    vertex 2774.6421366630407 123.7055377266226 22.350000000001128
    vertex 2763.3483866630404 123.7055377266226 22.350000000005107
  endloop
endfacet
facet normal 3.523847880160247e-13 0.0 1.0
  outer loop
    vertex 2734.1983866630408 112.42187409094528 22.350000000015378
    vertex 2763.3483866630404 123.7055377266226 22.350000000005107
    vertex 2755.848386663041 123.7055377266226 22.35000000000776
  endloop
endfacet
facet normal 3.523847880160247e-13 0.0 1.0
  outer loop
    vertex 2755.848386663041 123.7055377266226 22.35000000000776
    vertex 2763.3483866630404 123.7055377266226 22.350000000005107
    vertex 2755.848386663041 152.49928772662264 22.35000000000776
  endloop
endfacet
facet normal 3.523847880160247e-13 0.0 1.0
  outer loop
    vertex 2734.1983866630408 112.42187409094528 22.350000000015378
    vertex 2755.848386663041 123.7055377266226 22.35000000000776
    vertex 2744.554636663041 123.7055377266226 22.350000000011725
  endloop
endfacet
facet normal 3.523847880160247e-13 0.0 1.0
  outer loop
    vertex 2734.1983866630408 112.42187409094528 22.350000000015378
    vertex 2744.554636663041 123.7055377266226 22.350000000011725
    vertex 2734.1983866630408 163.22187409094528 22.350000000015378
  endloop
endfacet
facet normal -2.7956564864031445e-13 -0.6087614290087857 -0.7933533402911854
  outer loop
    vertex 2774.642136663035 125.25094357202083 7.895405845399262
    vertex 2771.848386663037 125.53053772662263 7.680865704893091
    vertex 2774.6421366630366 125.53053772662263 7.680865704892107
  endloop
endfacet
facet normal -2.7956564864031445e-13 -0.6087614290087857 -0.7933533402911854
  outer loop
    vertex 2771.848386663037 125.53053772662263 7.680865704893091
    vertex 2774.642136663035 125.25094357202083 7.895405845399262
    vertex 2771.8483866630354 125.25094357202083 7.895405845400247
  endloop
endfacet
facet normal -4.599544457601102e-14 -0.991444861373807 -0.13052619222007783
  outer loop
    vertex 2753.8483866630354 124.90153786113245 8.500594289120038
    vertex 2755.848386663036 124.85553772662269 8.85000000000773
    vertex 2753.848386663036 124.85553772662269 8.850000000008436
  endloop
endfacet
facet normal -4.599544457601102e-14 -0.991444861373807 -0.13052619222007783
  outer loop
    vertex 2755.848386663036 124.85553772662269 8.85000000000773
    vertex 2753.8483866630354 124.90153786113245 8.500594289120038
    vertex 2755.8483866630354 124.90153786113245 8.500594289119332
  endloop
endfacet
facet normal -3.523847880160247e-13 0.0 -1.0
  outer loop
    vertex 2755.848386663035 123.7055377266226 6.350000000007752
    vertex 2759.848386663035 128.70553772662262 6.350000000006342
    vertex 2759.848386663035 123.7055377266226 6.350000000006342
  endloop
endfacet
facet normal -3.523847880160247e-13 0.0 -1.0
  outer loop
    vertex 2759.848386663035 128.70553772662262 6.350000000006342
    vertex 2755.848386663035 123.7055377266226 6.350000000007752
    vertex 2755.848386663035 128.70553772662262 6.350000000007752
  endloop
endfacet
facet normal -1.3485182019121963e-13 -0.9238795325112835 -0.3826834323650976
  outer loop
    vertex 2771.8483866630354 125.03640343151362 8.175000000002083
    vertex 2774.642136663035 124.90153786113237 8.5005942891127
    vertex 2771.8483866630354 124.90153786113237 8.500594289113684
  endloop
endfacet
facet normal -1.3485182019121963e-13 -0.9238795325112835 -0.3826834323650976
  outer loop
    vertex 2774.642136663035 124.90153786113237 8.5005942891127
    vertex 2771.8483866630354 125.03640343151362 8.175000000002083
    vertex 2774.642136663035 125.03640343151362 8.175000000001098
  endloop
endfacet
facet normal 1.3485182019123029e-13 0.9238795325112801 0.3826834323651062
  outer loop
    vertex 2755.848386663036 127.50953759211285 9.199405710896174
    vertex 2753.848386663036 127.3746720217316 9.525000000008474
    vertex 2755.848386663036 127.3746720217316 9.525000000007768
  endloop
endfacet
facet normal 1.3485182019123029e-13 0.9238795325112801 0.3826834323651062
  outer loop
    vertex 2753.848386663036 127.3746720217316 9.525000000008474
    vertex 2755.848386663036 127.50953759211285 9.199405710896174
    vertex 2753.848386663036 127.50953759211285 9.199405710896878
  endloop
endfacet
facet normal -2.7956564864031167e-13 0.6087614290087957 -0.7933533402911775
  outer loop
    vertex 2771.848386663037 126.88053772662268 7.680865704893111
    vertex 2774.642136663035 127.16013188122447 7.895405845399288
    vertex 2774.6421366630366 126.88053772662268 7.680865704892127
  endloop
endfacet
facet normal -2.7956564864031167e-13 0.6087614290087957 -0.7933533402911775
  outer loop
    vertex 2774.642136663035 127.16013188122447 7.895405845399288
    vertex 2771.848386663037 126.88053772662268 7.680865704893111
    vertex 2771.8483866630354 127.16013188122447 7.895405845400272
  endloop
endfacet
facet normal -3.523847880160247e-13 0.0 -1.0
  outer loop
    vertex 2774.6421366630348 123.7055377266226 6.350000000001128
    vertex 2777.848386663035 128.70553772662262 6.349999999999997
    vertex 2777.848386663035 123.7055377266226 6.349999999999997
  endloop
endfacet
facet normal -3.523847880160247e-13 0.0 -1.0
  outer loop
    vertex 2777.848386663035 128.70553772662262 6.349999999999997
    vertex 2774.6421366630348 123.7055377266226 6.350000000001128
    vertex 2774.6421366630348 128.70553772662262 6.350000000001128
  endloop
endfacet
facet normal 1.0 4.519240237778796e-30 -3.609557097661312e-13
  outer loop
    vertex 2744.554636663039 153.70553772662262 17.35000000001173
    vertex 2744.554636663041 123.7055377266226 22.350000000011725
    vertex 2744.554636663039 123.7055377266226 17.35000000001173
  endloop
endfacet
facet normal 1.0 4.519240237778796e-30 -3.609557097661312e-13
  outer loop
    vertex 2744.554636663041 123.7055377266226 22.350000000011725
    vertex 2744.554636663039 153.70553772662262 17.35000000001173
    vertex 2744.5546366630406 152.49928772662264 21.35000000001173
  endloop
endfacet
facet normal 1.0 4.519240237778796e-30 -3.609557097661312e-13
  outer loop
    vertex 2744.554636663041 152.49928772662264 22.350000000011725
    vertex 2744.554636663041 123.7055377266226 22.350000000011725
    vertex 2744.5546366630406 152.49928772662264 21.35000000001173
  endloop
endfacet
facet normal 2.1451826711355015e-13 -0.7933533402912791 0.6087614290086635
  outer loop
    vertex 2753.848386663036 125.03640343151362 9.52500000000843
    vertex 2755.848386663036 125.25094357202074 9.80459415460956
    vertex 2753.8483866630363 125.25094357202074 9.804594154610266
  endloop
endfacet
facet normal 2.1451826711355015e-13 -0.7933533402912791 0.6087614290086635
  outer loop
    vertex 2755.848386663036 125.25094357202074 9.80459415460956
    vertex 2753.848386663036 125.03640343151362 9.52500000000843
    vertex 2755.848386663036 125.03640343151362 9.525000000007724
  endloop
endfacet
facet normal -3.493700873047856e-13 0.13052619222008613 -0.9914448613738059
  outer loop
    vertex 2771.8483866630354 126.20553772662274 7.50000000000209
    vertex 2774.6421366630366 126.55494343751111 7.546000134510872
    vertex 2774.6421366630366 126.20553772662274 7.500000000001106
  endloop
endfacet
facet normal -3.493700873047856e-13 0.13052619222008613 -0.9914448613738059
  outer loop
    vertex 2774.6421366630366 126.55494343751111 7.546000134510872
    vertex 2771.8483866630354 126.20553772662274 7.50000000000209
    vertex 2771.848386663037 126.55494343751111 7.546000134511856
  endloop
endfacet
facet normal 4.599544457601102e-14 -0.991444861373807 0.13052619222007783
  outer loop
    vertex 2753.848386663036 124.85553772662269 8.850000000008436
    vertex 2755.848386663036 124.90153786113245 9.199405710896128
    vertex 2753.848386663036 124.90153786113245 9.199405710896833
  endloop
endfacet
facet normal 4.599544457601102e-14 -0.991444861373807 0.13052619222007783
  outer loop
    vertex 2755.848386663036 124.90153786113245 9.199405710896128
    vertex 2753.848386663036 124.85553772662269 8.850000000008436
    vertex 2755.848386663036 124.85553772662269 8.85000000000773
  endloop
endfacet
facet normal 3.493700873047886e-13 0.13052619222002151 0.9914448613738145
  outer loop
    vertex 2771.8483866630363 126.55494343751103 10.153999865492377
    vertex 2774.6421366630357 126.20553772662257 10.20000000000115
    vertex 2774.6421366630357 126.55494343751103 10.153999865491395
  endloop
endfacet
facet normal 3.493700873047886e-13 0.13052619222002151 0.9914448613738145
  outer loop
    vertex 2774.6421366630357 126.20553772662257 10.20000000000115
    vertex 2771.8483866630363 126.55494343751103 10.153999865492377
    vertex 2771.8483866630363 126.20553772662257 10.200000000002133
  endloop
endfacet
facet normal -4.599544457609861e-14 0.9914448613737743 -0.1305261922203264
  outer loop
    vertex 2774.642136663035 127.50953759211285 8.500594289112739
    vertex 2771.848386663036 127.5555377266227 8.85000000000213
    vertex 2774.6421366630357 127.5555377266227 8.850000000001145
  endloop
endfacet
facet normal -4.599544457609861e-14 0.9914448613737743 -0.1305261922203264
  outer loop
    vertex 2771.848386663036 127.5555377266227 8.85000000000213
    vertex 2774.642136663035 127.50953759211285 8.500594289112739
    vertex 2771.8483866630354 127.50953759211285 8.500594289113723
  endloop
endfacet
facet normal -2.1451826711360417e-13 0.7933533402911613 -0.6087614290088168
  outer loop
    vertex 2774.642136663035 127.16013188122447 7.895405845399288
    vertex 2771.8483866630354 127.37467202173168 8.175000000002116
    vertex 2774.642136663035 127.37467202173168 8.175000000001132
  endloop
endfacet
facet normal -2.1451826711360417e-13 0.7933533402911613 -0.6087614290088168
  outer loop
    vertex 2771.8483866630354 127.37467202173168 8.175000000002116
    vertex 2774.642136663035 127.16013188122447 7.895405845399288
    vertex 2771.8483866630354 127.16013188122447 7.895405845400272
  endloop
endfacet
facet normal 0.0 -1.0 0.0
  outer loop
    vertex 2744.554636663041 152.49928772662264 22.350000000011725
    vertex 2755.8483866630404 152.49928772662264 21.35000000000776
    vertex 2755.848386663041 152.49928772662264 22.35000000000776
  endloop
endfacet
facet normal 0.0 -1.0 0.0
  outer loop
    vertex 2755.8483866630404 152.49928772662264 21.35000000000776
    vertex 2744.554636663041 152.49928772662264 22.350000000011725
    vertex 2744.5546366630406 152.49928772662264 21.35000000001173
  endloop
endfacet
facet normal -2.7956564864031834e-13 -0.6087614290087705 -0.793353340291197
  outer loop
    vertex 2755.8483866630354 125.25094357202083 7.895405845405909
    vertex 2753.8483866630368 125.53053772662263 7.680865704899465
    vertex 2755.8483866630368 125.53053772662263 7.68086570489876
  endloop
endfacet
facet normal -2.7956564864031834e-13 -0.6087614290087705 -0.793353340291197
  outer loop
    vertex 2753.8483866630368 125.53053772662263 7.680865704899465
    vertex 2755.8483866630354 125.25094357202083 7.895405845405909
    vertex 2753.8483866630354 125.25094357202083 7.895405845406614
  endloop
endfacet
facet normal -4.599544457600956e-14 -0.9914448613738075 -0.1305261922200737
  outer loop
    vertex 2771.8483866630354 124.90153786113237 8.500594289113684
    vertex 2774.6421366630357 124.8555377266226 8.850000000001108
    vertex 2771.848386663036 124.8555377266226 8.850000000002094
  endloop
endfacet
facet normal -4.599544457600956e-14 -0.9914448613738075 -0.1305261922200737
  outer loop
    vertex 2774.6421366630357 124.8555377266226 8.850000000001108
    vertex 2771.8483866630354 124.90153786113237 8.500594289113684
    vertex 2774.642136663035 124.90153786113237 8.5005942891127
  endloop
endfacet
facet normal 2.795629872728366e-13 -0.6087614290086645 0.7933533402912782
  outer loop
    vertex 2753.8483866630363 125.53053772662263 10.019134295117423
    vertex 2755.848386663036 125.25094357202074 9.80459415460956
    vertex 2755.848386663036 125.53053772662263 10.019134295116718
  endloop
endfacet
facet normal 2.795629872728366e-13 -0.6087614290086645 0.7933533402912782
  outer loop
    vertex 2755.848386663036 125.25094357202074 9.80459415460956
    vertex 2753.8483866630363 125.53053772662263 10.019134295117423
    vertex 2753.8483866630363 125.25094357202074 9.804594154610266
  endloop
endfacet
facet normal -3.255610932163269e-13 0.38268343236513735 -0.9238795325112672
  outer loop
    vertex 2753.8483866630368 126.55494343751111 7.546000134518232
    vertex 2755.8483866630368 126.88053772662268 7.680865704898782
    vertex 2755.8483866630368 126.55494343751111 7.546000134517527
  endloop
endfacet
facet normal -3.255610932163269e-13 0.38268343236513735 -0.9238795325112672
  outer loop
    vertex 2755.8483866630368 126.88053772662268 7.680865704898782
    vertex 2753.8483866630368 126.55494343751111 7.546000134518232
    vertex 2753.8483866630368 126.88053772662268 7.680865704899487
  endloop
endfacet
facet normal -1.3485182019121602e-13 -0.923879532511279 -0.38268343236510904
  outer loop
    vertex 2753.8483866630354 125.0364034315137 8.175000000008447
    vertex 2755.8483866630354 124.90153786113245 8.500594289119332
    vertex 2753.8483866630354 124.90153786113245 8.500594289120038
  endloop
endfacet
facet normal -1.3485182019121602e-13 -0.923879532511279 -0.38268343236510904
  outer loop
    vertex 2755.8483866630354 124.90153786113245 8.500594289119332
    vertex 2753.8483866630354 125.0364034315137 8.175000000008447
    vertex 2755.8483866630354 125.0364034315137 8.175000000007742
  endloop
endfacet
facet normal 1.3485182019114365e-13 -0.923879532511373 0.382683432364882
  outer loop
    vertex 2753.848386663036 124.90153786113245 9.199405710896833
    vertex 2755.848386663036 125.03640343151362 9.525000000007724
    vertex 2753.848386663036 125.03640343151362 9.52500000000843
  endloop
endfacet
facet normal 1.3485182019114365e-13 -0.923879532511373 0.382683432364882
  outer loop
    vertex 2755.848386663036 125.03640343151362 9.525000000007724
    vertex 2753.848386663036 124.90153786113245 9.199405710896833
    vertex 2755.848386663036 124.90153786113245 9.199405710896128
  endloop
endfacet
facet normal -1.0 0.0 3.523847880160247e-13
  outer loop
    vertex 2771.848386663036 124.90153786113245 9.1994057108905
    vertex 2771.8483866630354 124.90153786113237 8.500594289113684
    vertex 2771.848386663036 124.8555377266226 8.850000000002094
  endloop
endfacet
facet normal -1.0 0.0 3.523847880160247e-13
  outer loop
    vertex 2771.8483866630354 124.90153786113237 8.500594289113684
    vertex 2771.848386663036 124.90153786113245 9.1994057108905
    vertex 2771.8483866630354 125.03640343151362 8.175000000002083
  endloop
endfacet
facet normal -1.0 0.0 3.523847880160247e-13
  outer loop
    vertex 2771.8483866630354 125.03640343151362 8.175000000002083
    vertex 2771.848386663036 124.90153786113245 9.1994057108905
    vertex 2771.848386663036 125.03640343151362 9.525000000002104
  endloop
endfacet
facet normal -1.0 0.0 3.523847880160247e-13
  outer loop
    vertex 2771.8483866630354 125.03640343151362 8.175000000002083
    vertex 2771.848386663036 125.03640343151362 9.525000000002104
    vertex 2771.8483866630363 125.25094357202083 9.80459415460395
  endloop
endfacet
facet normal -1.0 0.0 3.523847880160247e-13
  outer loop
    vertex 2771.8483866630354 125.03640343151362 8.175000000002083
    vertex 2771.8483866630363 125.25094357202083 9.80459415460395
    vertex 2771.8483866630354 125.25094357202083 7.895405845400247
  endloop
endfacet
facet normal -1.0 0.0 3.523847880160247e-13
  outer loop
    vertex 2771.8483866630354 125.25094357202083 7.895405845400247
    vertex 2771.8483866630363 125.25094357202083 9.80459415460395
    vertex 2771.8483866630363 125.53053772662263 10.019134295111112
  endloop
endfacet
facet normal -1.0 0.0 3.523847880160247e-13
  outer loop
    vertex 2771.8483866630354 125.25094357202083 7.895405845400247
    vertex 2771.8483866630363 125.53053772662263 10.019134295111112
    vertex 2771.848386663037 125.53053772662263 7.680865704893091
  endloop
endfacet
facet normal -1.0 0.0 3.523847880160247e-13
  outer loop
    vertex 2771.848386663037 125.53053772662263 7.680865704893091
    vertex 2771.8483866630363 125.53053772662263 10.019134295111112
    vertex 2771.8483866630363 125.85613201573419 10.153999865492368
  endloop
endfacet
facet normal -1.0 0.0 3.523847880160247e-13
  outer loop
    vertex 2771.848386663037 125.53053772662263 7.680865704893091
    vertex 2771.8483866630363 125.85613201573419 10.153999865492368
    vertex 2771.848386663037 125.85613201573427 7.5460001345118455
  endloop
endfacet
facet normal -1.0 0.0 3.523847880160247e-13
  outer loop
    vertex 2771.848386663037 125.85613201573427 7.5460001345118455
    vertex 2771.8483866630363 125.85613201573419 10.153999865492368
    vertex 2771.8483866630363 126.20553772662257 10.200000000002133
  endloop
endfacet
facet normal -1.0 0.0 3.523847880160247e-13
  outer loop
    vertex 2771.848386663037 125.85613201573427 7.5460001345118455
    vertex 2771.8483866630363 126.20553772662257 10.200000000002133
    vertex 2771.8483866630354 126.20553772662274 7.50000000000209
  endloop
endfacet
facet normal -1.0 0.0 3.523847880160247e-13
  outer loop
    vertex 2771.8483866630354 126.20553772662274 7.50000000000209
    vertex 2771.8483866630363 126.20553772662257 10.200000000002133
    vertex 2771.8483866630363 126.55494343751103 10.153999865492377
  endloop
endfacet
facet normal -1.0 0.0 3.523847880160247e-13
  outer loop
    vertex 2771.8483866630354 126.20553772662274 7.50000000000209
    vertex 2771.8483866630363 126.55494343751103 10.153999865492377
    vertex 2771.848386663037 126.55494343751111 7.546000134511856
  endloop
endfacet
facet normal -1.0 0.0 3.523847880160247e-13
  outer loop
    vertex 2771.848386663037 126.55494343751111 7.546000134511856
    vertex 2771.8483866630363 126.55494343751103 10.153999865492377
    vertex 2771.8483866630363 126.88053772662268 10.01913429511113
  endloop
endfacet
facet normal -1.0 0.0 3.523847880160247e-13
  outer loop
    vertex 2771.848386663037 126.55494343751111 7.546000134511856
    vertex 2771.8483866630363 126.88053772662268 10.01913429511113
    vertex 2771.848386663037 126.88053772662268 7.680865704893111
  endloop
endfacet
facet normal -1.0 0.0 3.523847880160247e-13
  outer loop
    vertex 2771.848386663037 126.88053772662268 7.680865704893111
    vertex 2771.8483866630363 126.88053772662268 10.01913429511113
    vertex 2771.8483866630363 127.16013188122447 9.80459415460398
  endloop
endfacet
facet normal -1.0 0.0 3.523847880160247e-13
  outer loop
    vertex 2771.848386663037 126.88053772662268 7.680865704893111
    vertex 2771.8483866630363 127.16013188122447 9.80459415460398
    vertex 2771.8483866630354 127.16013188122447 7.895405845400272
  endloop
endfacet
facet normal -1.0 0.0 3.523847880160247e-13
  outer loop
    vertex 2771.8483866630354 127.16013188122447 7.895405845400272
    vertex 2771.8483866630363 127.16013188122447 9.80459415460398
    vertex 2771.848386663036 127.37467202173168 9.525000000002137
  endloop
endfacet
facet normal -1.0 0.0 3.523847880160247e-13
  outer loop
    vertex 2771.8483866630354 127.16013188122447 7.895405845400272
    vertex 2771.848386663036 127.37467202173168 9.525000000002137
    vertex 2771.8483866630354 127.37467202173168 8.175000000002116
  endloop
endfacet
facet normal -1.0 0.0 3.523847880160247e-13
  outer loop
    vertex 2771.8483866630354 127.37467202173168 8.175000000002116
    vertex 2771.848386663036 127.37467202173168 9.525000000002137
    vertex 2771.848386663036 127.50953759211293 9.199405710890536
  endloop
endfacet
facet normal -1.0 0.0 3.523847880160247e-13
  outer loop
    vertex 2771.8483866630354 127.37467202173168 8.175000000002116
    vertex 2771.848386663036 127.50953759211293 9.199405710890536
    vertex 2771.8483866630354 127.50953759211285 8.500594289113723
  endloop
endfacet
facet normal -1.0 0.0 3.523847880160247e-13
  outer loop
    vertex 2771.8483866630354 127.50953759211285 8.500594289113723
    vertex 2771.848386663036 127.50953759211293 9.199405710890536
    vertex 2771.848386663036 127.5555377266227 8.85000000000213
  endloop
endfacet
facet normal -3.1924848111880087e-14 -0.9958932064677035 -0.0905357460425224
  outer loop
    vertex 2755.848386663035 123.7055377266226 6.350000000007752
    vertex 2761.848386663039 122.70553772662254 17.350000000005636
    vertex 2755.848386663039 122.70553772662254 17.35000000000775
  endloop
endfacet
facet normal -3.1924848111880087e-14 -0.9958932064677035 -0.0905357460425224
  outer loop
    vertex 2761.848386663039 122.70553772662254 17.350000000005636
    vertex 2755.848386663035 123.7055377266226 6.350000000007752
    vertex 2759.848386663035 123.7055377266226 6.350000000006342
  endloop
endfacet
facet normal -3.526068326209497e-13 0.0 -1.0
  outer loop
    vertex 2734.1983866630158 112.42187409094528 -47.49999999998462
    vertex 2740.5483866630157 118.77187409094529 -47.49999999998685
    vertex 2740.5483866630157 112.42187409094528 -47.49999999998685
  endloop
endfacet
facet normal -3.526068326209497e-13 0.0 -1.0
  outer loop
    vertex 2740.5483866630157 118.77187409094529 -47.49999999998685
    vertex 2734.1983866630158 112.42187409094528 -47.49999999998462
    vertex 2734.1983866630158 118.77187409094529 -47.49999999998462
  endloop
endfacet
facet normal 0.0 1.0 0.0
  outer loop
    vertex 2740.5483866630157 118.77187409094529 -47.49999999998685
    vertex 2734.198386663039 118.77187409094529 17.350000000015378
    vertex 2740.548386663039 118.77187409094529 17.350000000013136
  endloop
endfacet
facet normal 0.0 1.0 0.0
  outer loop
    vertex 2734.198386663039 118.77187409094529 17.350000000015378
    vertex 2740.5483866630157 118.77187409094529 -47.49999999998685
    vertex 2734.1983866630158 118.77187409094529 -47.49999999998462
  endloop
endfacet
facet normal 1.0 0.0 -3.526068326209497e-13
  outer loop
    vertex 2740.5483866630157 118.77187409094529 -47.49999999998685
    vertex 2740.548386663039 112.42187409094528 17.350000000013136
    vertex 2740.5483866630157 112.42187409094528 -47.49999999998685
  endloop
endfacet
facet normal 1.0 0.0 -3.526068326209497e-13
  outer loop
    vertex 2740.548386663039 112.42187409094528 17.350000000013136
    vertex 2740.5483866630157 118.77187409094529 -47.49999999998685
    vertex 2740.548386663039 118.77187409094529 17.350000000013136
  endloop
endfacet
facet normal -3.526068326209497e-13 0.0 -1.0
  outer loop
    vertex 2734.198386663016 156.87187409094528 -47.49999999998461
    vertex 2740.548386663016 163.22187409094528 -47.49999999998684
    vertex 2740.548386663016 156.87187409094528 -47.49999999998684
  endloop
endfacet
facet normal -3.526068326209497e-13 0.0 -1.0
  outer loop
    vertex 2740.548386663016 163.22187409094528 -47.49999999998684
    vertex 2734.198386663016 156.87187409094528 -47.49999999998461
    vertex 2734.198386663016 163.22187409094528 -47.49999999998461
  endloop
endfacet
facet normal 1.0 0.0 -3.526068326209497e-13
  outer loop
    vertex 2740.548386663016 163.22187409094528 -47.49999999998684
    vertex 2740.548386663039 156.87187409094528 17.350000000013136
    vertex 2740.548386663016 156.87187409094528 -47.49999999998684
  endloop
endfacet
facet normal 1.0 0.0 -3.526068326209497e-13
  outer loop
    vertex 2740.548386663039 156.87187409094528 17.350000000013136
    vertex 2740.548386663016 163.22187409094528 -47.49999999998684
    vertex 2740.548386663039 163.22187409094528 17.350000000013136
  endloop
endfacet
facet normal -0.0 -1.0 0.0
  outer loop
    vertex 2734.198386663016 156.87187409094528 -47.49999999998461
    vertex 2740.548386663039 156.87187409094528 17.350000000013136
    vertex 2734.198386663039 156.87187409094528 17.350000000015378
  endloop
endfacet
facet normal -0.0 -1.0 0.0
  outer loop
    vertex 2740.548386663039 156.87187409094528 17.350000000013136
    vertex 2734.198386663016 156.87187409094528 -47.49999999998461
    vertex 2740.548386663016 156.87187409094528 -47.49999999998684
  endloop
endfacet
facet normal -3.523651958450019e-13 2.2857532859929692e-17 -1.0
  outer loop
    vertex 2740.548386663039 112.42187409094528 17.350000000013136
    vertex 2778.6483866630388 118.77187409094529 17.349999999999714
    vertex 2778.6483866630388 112.42187409094528 17.349999999999714
  endloop
endfacet
facet normal -3.523651958450019e-13 2.2857532859929692e-17 -1.0
  outer loop
    vertex 2778.6483866630388 118.77187409094529 17.349999999999714
    vertex 2740.548386663039 112.42187409094528 17.350000000013136
    vertex 2774.642136663039 122.70553772662254 17.350000000001128
  endloop
endfacet
facet normal -3.523651958450019e-13 2.2857532859929692e-17 -1.0
  outer loop
    vertex 2774.642136663039 122.70553772662254 17.350000000001128
    vertex 2740.548386663039 112.42187409094528 17.350000000013136
    vertex 2774.642136663039 123.7055377266226 17.350000000001128
  endloop
endfacet
facet normal -3.523651958450019e-13 2.2857532859929692e-17 -1.0
  outer loop
    vertex 2774.642136663039 123.7055377266226 17.350000000001128
    vertex 2740.548386663039 112.42187409094528 17.350000000013136
    vertex 2761.848386663039 122.70553772662254 17.350000000005636
  endloop
endfacet
facet normal -3.523651958450019e-13 2.2857532859929692e-17 -1.0
  outer loop
    vertex 2774.642136663039 123.7055377266226 17.350000000001128
    vertex 2761.848386663039 122.70553772662254 17.350000000005636
    vertex 2763.3483866630386 123.7055377266226 17.350000000005107
  endloop
endfacet
facet normal -3.523651958450019e-13 2.2857532859929692e-17 -1.0
  outer loop
    vertex 2763.3483866630386 123.7055377266226 17.350000000005107
    vertex 2761.848386663039 122.70553772662254 17.350000000005636
    vertex 2763.3483866630386 153.70553772662262 17.350000000005107
  endloop
endfacet
facet normal -3.523651958450019e-13 2.2857532859929692e-17 -1.0
  outer loop
    vertex 2761.848386663039 122.70553772662254 17.350000000005636
    vertex 2740.548386663039 112.42187409094528 17.350000000013136
    vertex 2755.848386663039 122.70553772662254 17.35000000000775
  endloop
endfacet
facet normal -3.523651958450019e-13 2.2857532859929692e-17 -1.0
  outer loop
    vertex 2755.848386663039 122.70553772662254 17.35000000000775
    vertex 2740.548386663039 112.42187409094528 17.350000000013136
    vertex 2755.848386663039 123.7055377266226 17.35000000000775
  endloop
endfacet
facet normal -3.523651958450019e-13 2.2857532859929692e-17 -1.0
  outer loop
    vertex 2755.848386663039 123.7055377266226 17.35000000000775
    vertex 2740.548386663039 112.42187409094528 17.350000000013136
    vertex 2744.554636663039 123.7055377266226 17.35000000001173
  endloop
endfacet
facet normal -3.523651958450019e-13 2.2857532859929692e-17 -1.0
  outer loop
    vertex 2744.554636663039 123.7055377266226 17.35000000001173
    vertex 2740.548386663039 112.42187409094528 17.350000000013136
    vertex 2744.554636663039 153.70553772662262 17.35000000001173
  endloop
endfacet
facet normal -3.523651958450019e-13 2.2857532859929692e-17 -1.0
  outer loop
    vertex 2734.198386663039 118.77187409094529 17.350000000015378
    vertex 2740.548386663039 156.87187409094528 17.350000000013136
    vertex 2740.548386663039 118.77187409094529 17.350000000013136
  endloop
endfacet
facet normal -3.523651958450019e-13 2.2857532859929692e-17 -1.0
  outer loop
    vertex 2740.548386663039 156.87187409094528 17.350000000013136
    vertex 2734.198386663039 118.77187409094529 17.350000000015378
    vertex 2734.198386663039 156.87187409094528 17.350000000015378
  endloop
endfacet
facet normal -3.523651958450019e-13 2.2857532859929692e-17 -1.0
  outer loop
    vertex 2784.9983866630387 156.87187409094528 17.349999999997475
    vertex 2779.8483866630386 129.70553772662268 17.34999999999929
    vertex 2778.6483866630388 156.87187409094528 17.349999999999714
  endloop
endfacet
facet normal -3.523651958450019e-13 2.2857532859929692e-17 -1.0
  outer loop
    vertex 2779.8483866630386 129.70553772662268 17.34999999999929
    vertex 2784.9983866630387 156.87187409094528 17.349999999997475
    vertex 2779.8483866630386 122.70553772662254 17.34999999999929
  endloop
endfacet
facet normal -3.523651958450019e-13 2.2857532859929692e-17 -1.0
  outer loop
    vertex 2778.6483866630388 156.87187409094528 17.349999999999714
    vertex 2779.8483866630386 129.70553772662268 17.34999999999929
    vertex 2774.642136663039 129.70553772662268 17.350000000001128
  endloop
endfacet
facet normal -3.523651958450019e-13 2.2857532859929692e-17 -1.0
  outer loop
    vertex 2778.6483866630388 156.87187409094528 17.349999999999714
    vertex 2774.642136663039 129.70553772662268 17.350000000001128
    vertex 2778.6483866630388 163.22187409094528 17.349999999999714
  endloop
endfacet
facet normal -3.523651958450019e-13 2.2857532859929692e-17 -1.0
  outer loop
    vertex 2778.6483866630388 163.22187409094528 17.349999999999714
    vertex 2774.642136663039 129.70553772662268 17.350000000001128
    vertex 2774.642136663039 153.70553772662262 17.350000000001128
  endloop
endfacet
facet normal -3.523651958450019e-13 2.2857532859929692e-17 -1.0
  outer loop
    vertex 2778.6483866630388 163.22187409094528 17.349999999999714
    vertex 2774.642136663039 153.70553772662262 17.350000000001128
    vertex 2740.548386663039 163.22187409094528 17.350000000013136
  endloop
endfacet
facet normal -3.523651958450019e-13 2.2857532859929692e-17 -1.0
  outer loop
    vertex 2740.548386663039 163.22187409094528 17.350000000013136
    vertex 2774.642136663039 153.70553772662262 17.350000000001128
    vertex 2763.3483866630386 153.70553772662262 17.350000000005107
  endloop
endfacet
facet normal -3.523651958450019e-13 2.2857532859929692e-17 -1.0
  outer loop
    vertex 2740.548386663039 163.22187409094528 17.350000000013136
    vertex 2763.3483866630386 153.70553772662262 17.350000000005107
    vertex 2755.848386663039 153.70553772662262 17.35000000000775
  endloop
endfacet
facet normal -3.523651958450019e-13 2.2857532859929692e-17 -1.0
  outer loop
    vertex 2755.848386663039 153.70553772662262 17.35000000000775
    vertex 2763.3483866630386 153.70553772662262 17.350000000005107
    vertex 2761.848386663039 129.70553772662268 17.350000000005636
  endloop
endfacet
facet normal -3.523651958450019e-13 2.2857532859929692e-17 -1.0
  outer loop
    vertex 2761.848386663039 129.70553772662268 17.350000000005636
    vertex 2763.3483866630386 153.70553772662262 17.350000000005107
    vertex 2761.848386663039 122.70553772662254 17.350000000005636
  endloop
endfacet
facet normal -3.523651958450019e-13 2.2857532859929692e-17 -1.0
  outer loop
    vertex 2755.848386663039 153.70553772662262 17.35000000000775
    vertex 2761.848386663039 129.70553772662268 17.350000000005636
    vertex 2755.848386663039 129.70553772662268 17.35000000000775
  endloop
endfacet
facet normal -3.523651958450019e-13 2.2857532859929692e-17 -1.0
  outer loop
    vertex 2740.548386663039 163.22187409094528 17.350000000013136
    vertex 2755.848386663039 153.70553772662262 17.35000000000775
    vertex 2744.554636663039 153.70553772662262 17.35000000001173
  endloop
endfacet
facet normal -3.523651958450019e-13 2.2857532859929692e-17 -1.0
  outer loop
    vertex 2740.548386663039 163.22187409094528 17.350000000013136
    vertex 2744.554636663039 153.70553772662262 17.35000000001173
    vertex 2740.548386663039 112.42187409094528 17.350000000013136
  endloop
endfacet
facet normal -3.523651958450019e-13 2.2857532859929692e-17 -1.0
  outer loop
    vertex 2740.548386663039 163.22187409094528 17.350000000013136
    vertex 2740.548386663039 112.42187409094528 17.350000000013136
    vertex 2740.548386663039 118.77187409094529 17.350000000013136
  endloop
endfacet
facet normal -3.523651958450019e-13 2.2857532859929692e-17 -1.0
  outer loop
    vertex 2740.548386663039 163.22187409094528 17.350000000013136
    vertex 2740.548386663039 118.77187409094529 17.350000000013136
    vertex 2740.548386663039 156.87187409094528 17.350000000013136
  endloop
endfacet
facet normal -3.523651958450019e-13 2.2857532859929692e-17 -1.0
  outer loop
    vertex 2784.9983866630387 118.77187409094529 17.349999999997475
    vertex 2779.8483866630386 122.70553772662254 17.34999999999929
    vertex 2784.9983866630387 156.87187409094528 17.349999999997475
  endloop
endfacet
facet normal -3.523651958450019e-13 2.2857532859929692e-17 -1.0
  outer loop
    vertex 2779.8483866630386 122.70553772662254 17.34999999999929
    vertex 2784.9983866630387 118.77187409094529 17.349999999997475
    vertex 2778.6483866630388 118.77187409094529 17.349999999999714
  endloop
endfacet
facet normal -3.523651958450019e-13 2.2857532859929692e-17 -1.0
  outer loop
    vertex 2779.8483866630386 122.70553772662254 17.34999999999929
    vertex 2778.6483866630388 118.77187409094529 17.349999999999714
    vertex 2774.642136663039 122.70553772662254 17.350000000001128
  endloop
endfacet
facet normal -3.526068326209497e-13 0.0 -1.0
  outer loop
    vertex 2778.648386663015 156.87187409094528 -47.500000000000284
    vertex 2784.9983866630155 163.22187409094528 -47.500000000002515
    vertex 2784.9983866630155 156.87187409094528 -47.500000000002515
  endloop
endfacet
facet normal -3.526068326209497e-13 0.0 -1.0
  outer loop
    vertex 2784.9983866630155 163.22187409094528 -47.500000000002515
    vertex 2778.648386663015 156.87187409094528 -47.500000000000284
    vertex 2778.648386663015 163.22187409094528 -47.500000000000284
  endloop
endfacet
facet normal -0.0 -1.0 0.0
  outer loop
    vertex 2778.648386663015 156.87187409094528 -47.500000000000284
    vertex 2784.9983866630387 156.87187409094528 17.349999999997475
    vertex 2778.6483866630388 156.87187409094528 17.349999999999714
  endloop
endfacet
facet normal -0.0 -1.0 0.0
  outer loop
    vertex 2784.9983866630387 156.87187409094528 17.349999999997475
    vertex 2778.648386663015 156.87187409094528 -47.500000000000284
    vertex 2784.9983866630155 156.87187409094528 -47.500000000002515
  endloop
endfacet
facet normal -1.0 0.0 3.526068326209497e-13
  outer loop
    vertex 2778.6483866630388 163.22187409094528 17.349999999999714
    vertex 2778.648386663015 156.87187409094528 -47.500000000000284
    vertex 2778.6483866630388 156.87187409094528 17.349999999999714
  endloop
endfacet
facet normal -1.0 0.0 3.526068326209497e-13
  outer loop
    vertex 2778.648386663015 156.87187409094528 -47.500000000000284
    vertex 2778.6483866630388 163.22187409094528 17.349999999999714
    vertex 2778.648386663015 163.22187409094528 -47.500000000000284
  endloop
endfacet
facet normal -3.5216274341109965e-13 0.0 -1.0
  outer loop
    vertex 2778.6483866630147 112.42187409094528 -47.50000000000028
    vertex 2784.9983866630146 118.77187409094529 -47.50000000000251
    vertex 2784.9983866630146 112.42187409094528 -47.50000000000251
  endloop
endfacet
facet normal -3.5216274341109965e-13 0.0 -1.0
  outer loop
    vertex 2784.9983866630146 118.77187409094529 -47.50000000000251
    vertex 2778.6483866630147 112.42187409094528 -47.50000000000028
    vertex 2778.6483866630147 118.77187409094529 -47.50000000000028
  endloop
endfacet
facet normal -1.0 0.0 3.5216274341109965e-13
  outer loop
    vertex 2778.6483866630388 118.77187409094529 17.349999999999714
    vertex 2778.6483866630147 112.42187409094528 -47.50000000000028
    vertex 2778.6483866630388 112.42187409094528 17.349999999999714
  endloop
endfacet
facet normal -1.0 0.0 3.5216274341109965e-13
  outer loop
    vertex 2778.6483866630147 112.42187409094528 -47.50000000000028
    vertex 2778.6483866630388 118.77187409094529 17.349999999999714
    vertex 2778.6483866630147 118.77187409094529 -47.50000000000028
  endloop
endfacet
facet normal 0.0 1.0 0.0
  outer loop
    vertex 2784.9983866630146 118.77187409094529 -47.50000000000251
    vertex 2778.6483866630388 118.77187409094529 17.349999999999714
    vertex 2784.9983866630387 118.77187409094529 17.349999999997475
  endloop
endfacet
facet normal 0.0 1.0 0.0
  outer loop
    vertex 2778.6483866630388 118.77187409094529 17.349999999999714
    vertex 2784.9983866630146 118.77187409094529 -47.50000000000251
    vertex 2778.6483866630147 118.77187409094529 -47.50000000000028
  endloop
endfacet
endsolid box draft 1
