solid box draft 1
facet normal -3.1910562488671304e-14 0.9958932064677035 -0.09053574604252242
  outer loop
    vertex 3031.8483866630354 192.20553772662262 6.349999999999997
    vertex 3027.848386663039 193.20553772662265 17.350000000001405
    vertex 3033.848386663039 193.20553772662265 17.34999999999929
  endloop
endfacet
facet normal -3.1910562488671304e-14 0.9958932064677035 -0.09053574604252242
  outer loop
    vertex 3027.848386663039 193.20553772662265 17.350000000001405
    vertex 3031.8483866630354 192.20553772662262 6.349999999999997
    vertex 3027.848386663035 192.20553772662262 6.3500000000014065
  endloop
endfacet
facet normal 2.7956564864031647e-13 0.6087614290087782 0.7933533402911911
  outer loop
    vertex 3025.8483866630368 190.66013188122446 9.80459415460398
    vertex 3027.8483866630363 190.38053772662266 10.01913429511043
    vertex 3027.8483866630363 190.66013188122446 9.80459415460328
  endloop
endfacet
facet normal 2.7956564864031647e-13 0.6087614290087782 0.7933533402911911
  outer loop
    vertex 3027.8483866630363 190.38053772662266 10.01913429511043
    vertex 3025.8483866630368 190.66013188122446 9.80459415460398
    vertex 3025.8483866630368 190.38053772662266 10.01913429511113
  endloop
endfacet
facet normal -2.1451826711360828e-13 -0.7933533402911526 -0.6087614290088285
  outer loop
    vertex 3025.848386663036 188.75094357202082 7.895405845400247
    vertex 3027.8483866630354 188.5364034315136 8.175000000001377
    vertex 3025.848386663036 188.5364034315136 8.175000000002083
  endloop
endfacet
facet normal -2.1451826711360828e-13 -0.7933533402911526 -0.6087614290088285
  outer loop
    vertex 3027.8483866630354 188.5364034315136 8.175000000001377
    vertex 3025.848386663036 188.75094357202082 7.895405845400247
    vertex 3027.8483866630354 188.75094357202082 7.895405845399542
  endloop
endfacet
facet normal 1.3485182019121963e-13 0.9238795325112835 0.3826834323650976
  outer loop
    vertex 3027.848386663036 191.00953759211293 9.199405710889831
    vertex 3025.8483866630363 190.87467202173167 9.525000000002137
    vertex 3027.848386663036 190.87467202173167 9.525000000001432
  endloop
endfacet
facet normal 1.3485182019121963e-13 0.9238795325112835 0.3826834323650976
  outer loop
    vertex 3025.8483866630363 190.87467202173167 9.525000000002137
    vertex 3027.848386663036 191.00953759211293 9.199405710889831
    vertex 3025.8483866630363 191.00953759211293 9.199405710890536
  endloop
endfacet
facet normal 3.2556311271270437e-13 0.38268343236501606 0.9238795325113175
  outer loop
    vertex 3007.8483866630363 190.38053772662266 10.019134295117448
    vertex 3009.8483866630363 190.054943437511 10.153999865497985
    vertex 3009.8483866630363 190.38053772662266 10.019134295116743
  endloop
endfacet
facet normal 3.2556311271270437e-13 0.38268343236501606 0.9238795325113175
  outer loop
    vertex 3009.8483866630363 190.054943437511 10.153999865497985
    vertex 3007.8483866630363 190.38053772662266 10.019134295117448
    vertex 3007.8483866630363 190.054943437511 10.15399986549869
  endloop
endfacet
facet normal 1.3485182019114166e-13 -0.9238795325113752 0.3826834323648763
  outer loop
    vertex 3025.8483866630363 188.40153786113245 9.1994057108905
    vertex 3027.848386663036 188.5364034315136 9.525000000001398
    vertex 3025.8483866630363 188.5364034315136 9.525000000002104
  endloop
endfacet
facet normal 1.3485182019114166e-13 -0.9238795325113752 0.3826834323648763
  outer loop
    vertex 3027.848386663036 188.5364034315136 9.525000000001398
    vertex 3025.8483866630363 188.40153786113245 9.1994057108905
    vertex 3027.848386663036 188.40153786113245 9.199405710889796
  endloop
endfacet
facet normal 3.2556109321634254e-13 0.3826834323650298 0.9238795325113117
  outer loop
    vertex 3025.8483866630368 190.38053772662266 10.01913429511113
    vertex 3027.8483866630363 190.054943437511 10.153999865491677
    vertex 3027.8483866630363 190.38053772662266 10.01913429511043
  endloop
endfacet
facet normal 3.2556109321634254e-13 0.3826834323650298 0.9238795325113117
  outer loop
    vertex 3027.8483866630363 190.054943437511 10.153999865491677
    vertex 3025.8483866630368 190.38053772662266 10.01913429511113
    vertex 3025.8483866630368 190.054943437511 10.153999865492377
  endloop
endfacet
facet normal 3.4937008730478573e-13 -0.1305261922200822 0.9914448613738064
  outer loop
    vertex 3025.8483866630368 189.70553772662257 10.200000000002133
    vertex 3027.8483866630363 189.35613201573418 10.153999865491667
    vertex 3027.8483866630363 189.70553772662257 10.200000000001433
  endloop
endfacet
facet normal 3.4937008730478573e-13 -0.1305261922200822 0.9914448613738064
  outer loop
    vertex 3027.8483866630363 189.35613201573418 10.153999865491667
    vertex 3025.8483866630368 189.70553772662257 10.200000000002133
    vertex 3025.8483866630368 189.35613201573418 10.153999865492368
  endloop
endfacet
facet normal 1.0 0.0 -3.523847880160247e-13
  outer loop
    vertex 3038.2046366630157 225.9281240909453 -47.50000000002015
    vertex 3038.2046366630393 220.37187409094528 17.349999999997756
    vertex 3038.2046366630157 220.37187409094528 -47.50000000002015
  endloop
endfacet
facet normal 1.0 0.0 -3.523847880160247e-13
  outer loop
    vertex 3038.2046366630148 182.2718740909453 -47.500000000002245
    vertex 3038.204636663041 176.71562409094528 22.349999999997756
    vertex 3038.2046366630148 176.71562409094528 -47.500000000002245
  endloop
endfacet
facet normal 1.0 0.0 -3.523847880160247e-13
  outer loop
    vertex 3038.204636663041 176.71562409094528 22.349999999997756
    vertex 3038.2046366630148 182.2718740909453 -47.500000000002245
    vertex 3038.2046366630393 182.2718740909453 17.349999999997756
  endloop
endfacet
facet normal 1.0 0.0 -3.523847880160247e-13
  outer loop
    vertex 3038.204636663041 176.71562409094528 22.349999999997756
    vertex 3038.2046366630393 182.2718740909453 17.349999999997756
    vertex 3038.204636663041 225.9281240909453 22.349999999997756
  endloop
endfacet
facet normal 1.0 0.0 -3.523847880160247e-13
  outer loop
    vertex 3038.204636663041 225.9281240909453 22.349999999997756
    vertex 3038.2046366630393 182.2718740909453 17.349999999997756
    vertex 3038.2046366630393 220.37187409094528 17.349999999997756
  endloop
endfacet
facet normal 1.0 0.0 -3.523847880160247e-13
  outer loop
    vertex 3038.204636663041 225.9281240909453 22.349999999997756
    vertex 3038.2046366630393 220.37187409094528 17.349999999997756
    vertex 3038.2046366630157 225.9281240909453 -47.50000000002015
  endloop
endfacet
facet normal -3.1931990923484484e-14 -0.9958932064677035 -0.09053574604252242
  outer loop
    vertex 3027.848386663035 187.2055377266226 6.3500000000014065
    vertex 3033.848386663039 186.20553772662254 17.34999999999929
    vertex 3027.848386663039 186.20553772662254 17.350000000001405
  endloop
endfacet
facet normal -3.1931990923484484e-14 -0.9958932064677035 -0.09053574604252242
  outer loop
    vertex 3033.848386663039 186.20553772662254 17.34999999999929
    vertex 3027.848386663035 187.2055377266226 6.3500000000014065
    vertex 3031.8483866630354 187.2055377266226 6.349999999999997
  endloop
endfacet
facet normal -4.5995444576010676e-14 0.9914448613738073 -0.13052619222007678
  outer loop
    vertex 3009.8483866630354 191.00953759211285 8.500594289119377
    vertex 3007.848386663036 191.05553772662262 8.85000000000848
    vertex 3009.848386663036 191.05553772662262 8.850000000007775
  endloop
endfacet
facet normal -4.5995444576010676e-14 0.9914448613738073 -0.13052619222007678
  outer loop
    vertex 3007.848386663036 191.05553772662262 8.85000000000848
    vertex 3009.8483866630354 191.00953759211285 8.500594289119377
    vertex 3007.848386663036 191.00953759211285 8.500594289120082
  endloop
endfacet
facet normal 0.9838699100998404 1.8261848323668632e-17 -0.17888543820035302
  outer loop
    vertex 3013.848386663035 187.2055377266226 6.350000000006342
    vertex 3015.8483866630395 193.20553772662265 17.350000000005636
    vertex 3015.8483866630395 186.20553772662254 17.350000000005636
  endloop
endfacet
facet normal 0.9838699100998404 1.8261848323668632e-17 -0.17888543820035302
  outer loop
    vertex 3015.8483866630395 193.20553772662265 17.350000000005636
    vertex 3013.848386663035 187.2055377266226 6.350000000006342
    vertex 3013.848386663035 192.20553772662262 6.350000000006342
  endloop
endfacet
facet normal -2.1451826711360056e-13 0.7933533402911556 -0.6087614290088247
  outer loop
    vertex 3009.8483866630354 190.66013188122446 7.895405845405943
    vertex 3007.848386663036 190.87467202173167 8.175000000008486
    vertex 3009.8483866630354 190.87467202173167 8.175000000007783
  endloop
endfacet
facet normal -2.1451826711360056e-13 0.7933533402911556 -0.6087614290088247
  outer loop
    vertex 3007.848386663036 190.87467202173167 8.175000000008486
    vertex 3009.8483866630354 190.66013188122446 7.895405845405943
    vertex 3007.848386663036 190.66013188122446 7.895405845406648
  endloop
endfacet
facet normal -1.0 -1.3632327706054564e-29 3.609557097661309e-13
  outer loop
    vertex 3009.848386663041 215.9992877266226 22.350000000007753
    vertex 3009.848386663039 187.2055377266226 17.35000000000775
    vertex 3009.848386663041 187.2055377266226 22.350000000007753
  endloop
endfacet
facet normal -1.0 -1.3632327706054564e-29 3.609557097661309e-13
  outer loop
    vertex 3009.848386663039 187.2055377266226 17.35000000000775
    vertex 3009.848386663041 215.9992877266226 22.350000000007753
    vertex 3009.848386663039 193.20553772662265 17.35000000000775
  endloop
endfacet
facet normal -1.0 -1.3632327706054564e-29 3.609557097661309e-13
  outer loop
    vertex 3009.848386663039 187.2055377266226 17.35000000000775
    vertex 3009.848386663039 193.20553772662265 17.35000000000775
    vertex 3009.848386663036 188.5364034315136 9.525000000007724
  endloop
endfacet
facet normal -1.0 -1.3632327706054564e-29 3.609557097661309e-13
  outer loop
    vertex 3009.848386663039 187.2055377266226 17.35000000000775
    vertex 3009.848386663036 188.5364034315136 9.525000000007724
    vertex 3009.8483866630354 187.2055377266226 6.350000000007752
  endloop
endfacet
facet normal -1.0 -1.3632327706054564e-29 3.609557097661309e-13
  outer loop
    vertex 3009.8483866630354 187.2055377266226 6.350000000007752
    vertex 3009.848386663036 188.5364034315136 9.525000000007724
    vertex 3009.848386663036 188.40153786113245 9.199405710896128
  endloop
endfacet
facet normal -1.0 -1.3632327706054564e-29 3.609557097661309e-13
  outer loop
    vertex 3009.8483866630354 187.2055377266226 6.350000000007752
    vertex 3009.848386663036 188.40153786113245 9.199405710896128
    vertex 3009.848386663036 188.35553772662269 8.85000000000773
  endloop
endfacet
facet normal -1.0 -1.3632327706054564e-29 3.609557097661309e-13
  outer loop
    vertex 3009.848386663036 188.5364034315136 9.525000000007724
    vertex 3009.848386663039 193.20553772662265 17.35000000000775
    vertex 3009.8483866630363 188.75094357202073 9.80459415460956
  endloop
endfacet
facet normal -1.0 -1.3632327706054564e-29 3.609557097661309e-13
  outer loop
    vertex 3009.8483866630363 188.75094357202073 9.80459415460956
    vertex 3009.848386663039 193.20553772662265 17.35000000000775
    vertex 3009.8483866630363 189.0305377266226 10.019134295116718
  endloop
endfacet
facet normal -1.0 -1.3632327706054564e-29 3.609557097661309e-13
  outer loop
    vertex 3009.8483866630363 189.0305377266226 10.019134295116718
    vertex 3009.848386663039 193.20553772662265 17.35000000000775
    vertex 3009.8483866630363 189.35613201573418 10.153999865497973
  endloop
endfacet
facet normal -1.0 -1.3632327706054564e-29 3.609557097661309e-13
  outer loop
    vertex 3009.8483866630363 189.35613201573418 10.153999865497973
    vertex 3009.848386663039 193.20553772662265 17.35000000000775
    vertex 3009.8483866630363 189.70553772662265 10.200000000007737
  endloop
endfacet
facet normal -1.0 -1.3632327706054564e-29 3.609557097661309e-13
  outer loop
    vertex 3009.8483866630363 189.70553772662265 10.200000000007737
    vertex 3009.848386663039 193.20553772662265 17.35000000000775
    vertex 3009.8483866630363 190.054943437511 10.153999865497985
  endloop
endfacet
facet normal -1.0 -1.3632327706054564e-29 3.609557097661309e-13
  outer loop
    vertex 3009.8483866630363 190.054943437511 10.153999865497985
    vertex 3009.848386663039 193.20553772662265 17.35000000000775
    vertex 3009.8483866630363 190.38053772662266 10.019134295116743
  endloop
endfacet
facet normal -1.0 -1.3632327706054564e-29 3.609557097661309e-13
  outer loop
    vertex 3009.8483866630363 190.38053772662266 10.019134295116743
    vertex 3009.848386663039 193.20553772662265 17.35000000000775
    vertex 3009.8483866630363 190.66013188122446 9.804594154609596
  endloop
endfacet
facet normal -1.0 -1.3632327706054564e-29 3.609557097661309e-13
  outer loop
    vertex 3009.8483866630363 190.66013188122446 9.804594154609596
    vertex 3009.848386663039 193.20553772662265 17.35000000000775
    vertex 3009.848386663036 190.87467202173158 9.525000000007768
  endloop
endfacet
facet normal -1.0 -1.3632327706054564e-29 3.609557097661309e-13
  outer loop
    vertex 3009.848386663036 190.87467202173158 9.525000000007768
    vertex 3009.848386663039 193.20553772662265 17.35000000000775
    vertex 3009.848386663036 191.00953759211285 9.199405710896174
  endloop
endfacet
facet normal -1.0 -1.3632327706054564e-29 3.609557097661309e-13
  outer loop
    vertex 3009.848386663036 191.00953759211285 9.199405710896174
    vertex 3009.848386663039 193.20553772662265 17.35000000000775
    vertex 3009.848386663036 191.05553772662262 8.850000000007775
  endloop
endfacet
facet normal -1.0 -1.3632327706054564e-29 3.609557097661309e-13
  outer loop
    vertex 3009.848386663036 191.05553772662262 8.850000000007775
    vertex 3009.848386663039 193.20553772662265 17.35000000000775
    vertex 3009.8483866630354 192.20553772662262 6.350000000007752
  endloop
endfacet
facet normal -1.0 -1.3632327706054564e-29 3.609557097661309e-13
  outer loop
    vertex 3009.848386663039 193.20553772662265 17.35000000000775
    vertex 3009.848386663041 215.9992877266226 22.350000000007753
    vertex 3009.848386663041 215.9992877266226 21.350000000007757
  endloop
endfacet
facet normal -1.0 -1.3632327706054564e-29 3.609557097661309e-13
  outer loop
    vertex 3009.848386663039 193.20553772662265 17.35000000000775
    vertex 3009.848386663041 215.9992877266226 21.350000000007757
    vertex 3009.848386663039 217.20553772662262 17.35000000000775
  endloop
endfacet
facet normal -1.0 -1.3632327706054564e-29 3.609557097661309e-13
  outer loop
    vertex 3009.8483866630354 187.2055377266226 6.350000000007752
    vertex 3009.8483866630363 189.0305377266226 7.68086570489876
    vertex 3009.8483866630354 192.20553772662262 6.350000000007752
  endloop
endfacet
facet normal -1.0 -1.3632327706054564e-29 3.609557097661309e-13
  outer loop
    vertex 3009.8483866630363 189.0305377266226 7.68086570489876
    vertex 3009.8483866630354 187.2055377266226 6.350000000007752
    vertex 3009.8483866630354 188.75094357202082 7.895405845405909
  endloop
endfacet
facet normal -1.0 -1.3632327706054564e-29 3.609557097661309e-13
  outer loop
    vertex 3009.8483866630354 188.75094357202082 7.895405845405909
    vertex 3009.8483866630354 187.2055377266226 6.350000000007752
    vertex 3009.8483866630354 188.53640343151372 8.175000000007742
  endloop
endfacet
facet normal -1.0 -1.3632327706054564e-29 3.609557097661309e-13
  outer loop
    vertex 3009.8483866630354 188.53640343151372 8.175000000007742
    vertex 3009.8483866630354 187.2055377266226 6.350000000007752
    vertex 3009.8483866630354 188.40153786113245 8.500594289119332
  endloop
endfacet
facet normal -1.0 -1.3632327706054564e-29 3.609557097661309e-13
  outer loop
    vertex 3009.8483866630354 188.40153786113245 8.500594289119332
    vertex 3009.8483866630354 187.2055377266226 6.350000000007752
    vertex 3009.848386663036 188.35553772662269 8.85000000000773
  endloop
endfacet
facet normal -1.0 -1.3632327706054564e-29 3.609557097661309e-13
  outer loop
    vertex 3009.8483866630354 192.20553772662262 6.350000000007752
    vertex 3009.8483866630363 189.0305377266226 7.68086570489876
    vertex 3009.8483866630363 189.35613201573426 7.5460001345175165
  endloop
endfacet
facet normal -1.0 -1.3632327706054564e-29 3.609557097661309e-13
  outer loop
    vertex 3009.8483866630354 192.20553772662262 6.350000000007752
    vertex 3009.8483866630363 189.35613201573426 7.5460001345175165
    vertex 3009.8483866630354 189.70553772662265 7.500000000007766
  endloop
endfacet
facet normal -1.0 -1.3632327706054564e-29 3.609557097661309e-13
  outer loop
    vertex 3009.8483866630354 192.20553772662262 6.350000000007752
    vertex 3009.8483866630354 189.70553772662265 7.500000000007766
    vertex 3009.8483866630363 190.05494343751113 7.546000134517527
  endloop
endfacet
facet normal -1.0 -1.3632327706054564e-29 3.609557097661309e-13
  outer loop
    vertex 3009.8483866630354 192.20553772662262 6.350000000007752
    vertex 3009.8483866630363 190.05494343751113 7.546000134517527
    vertex 3009.8483866630363 190.38053772662266 7.680865704898782
  endloop
endfacet
facet normal -1.0 -1.3632327706054564e-29 3.609557097661309e-13
  outer loop
    vertex 3009.8483866630354 192.20553772662262 6.350000000007752
    vertex 3009.8483866630363 190.38053772662266 7.680865704898782
    vertex 3009.8483866630354 190.66013188122446 7.895405845405943
  endloop
endfacet
facet normal -1.0 -1.3632327706054564e-29 3.609557097661309e-13
  outer loop
    vertex 3009.8483866630354 192.20553772662262 6.350000000007752
    vertex 3009.8483866630354 190.66013188122446 7.895405845405943
    vertex 3009.8483866630354 190.87467202173167 8.175000000007783
  endloop
endfacet
facet normal -1.0 -1.3632327706054564e-29 3.609557097661309e-13
  outer loop
    vertex 3009.8483866630354 192.20553772662262 6.350000000007752
    vertex 3009.8483866630354 190.87467202173167 8.175000000007783
    vertex 3009.8483866630354 191.00953759211285 8.500594289119377
  endloop
endfacet
facet normal -1.0 -1.3632327706054564e-29 3.609557097661309e-13
  outer loop
    vertex 3009.8483866630354 192.20553772662262 6.350000000007752
    vertex 3009.8483866630354 191.00953759211285 8.500594289119377
    vertex 3009.848386663036 191.05553772662262 8.850000000007775
  endloop
endfacet
facet normal -1.0 -1.3632327706054564e-29 3.609557097661309e-13
  outer loop
    vertex 3009.8483866630354 187.2055377266226 6.350000000007752
    vertex 3009.848386663039 186.20553772662254 17.35000000000775
    vertex 3009.848386663039 187.2055377266226 17.35000000000775
  endloop
endfacet
facet normal -3.2556109321634305e-13 -0.38268343236502633 -0.923879532511313
  outer loop
    vertex 3025.8483866630368 189.0305377266226 7.680865704893091
    vertex 3027.8483866630363 189.35613201573426 7.54600013451114
    vertex 3027.8483866630363 189.0305377266226 7.680865704892386
  endloop
endfacet
facet normal -3.2556109321634305e-13 -0.38268343236502633 -0.923879532511313
  outer loop
    vertex 3027.8483866630363 189.35613201573426 7.54600013451114
    vertex 3025.8483866630368 189.0305377266226 7.680865704893091
    vertex 3025.8483866630368 189.35613201573426 7.5460001345118455
  endloop
endfacet
facet normal 2.1451826711360558e-13 0.7933533402911586 0.6087614290088208
  outer loop
    vertex 3027.848386663036 190.87467202173167 9.525000000001432
    vertex 3025.8483866630368 190.66013188122446 9.80459415460398
    vertex 3027.8483866630363 190.66013188122446 9.80459415460328
  endloop
endfacet
facet normal 2.1451826711360558e-13 0.7933533402911586 0.6087614290088208
  outer loop
    vertex 3025.8483866630368 190.66013188122446 9.80459415460398
    vertex 3027.848386663036 190.87467202173167 9.525000000001432
    vertex 3025.8483866630363 190.87467202173167 9.525000000002137
  endloop
endfacet
facet normal 2.7956564864031167e-13 -0.6087614290087957 0.7933533402911775
  outer loop
    vertex 3025.8483866630368 189.0305377266226 10.019134295111112
    vertex 3027.8483866630363 188.75094357202082 9.804594154603251
    vertex 3027.8483866630363 189.0305377266226 10.01913429511041
  endloop
endfacet
facet normal 2.7956564864031167e-13 -0.6087614290087957 0.7933533402911775
  outer loop
    vertex 3027.8483866630363 188.75094357202082 9.804594154603251
    vertex 3025.8483866630368 189.0305377266226 10.019134295111112
    vertex 3025.8483866630368 188.75094357202082 9.80459415460395
  endloop
endfacet
facet normal -1.0169459085064849e-13 -0.9574135702049259 -0.28872002976492206
  outer loop
    vertex 2999.348386663041 215.9992877266226 21.35000000001145
    vertex 3009.848386663039 217.20553772662262 17.35000000000775
    vertex 3009.848386663041 215.9992877266226 21.350000000007757
  endloop
endfacet
facet normal -1.0169459085064849e-13 -0.9574135702049259 -0.28872002976492206
  outer loop
    vertex 3009.848386663039 217.20553772662262 17.35000000000775
    vertex 2999.348386663041 215.9992877266226 21.35000000001145
    vertex 2999.3483866630395 217.20553772662262 17.350000000011452
  endloop
endfacet
facet normal 4.599544457601102e-14 0.991444861373807 0.13052619222007783
  outer loop
    vertex 3009.848386663036 191.05553772662262 8.850000000007775
    vertex 3007.848386663036 191.00953759211285 9.199405710896878
    vertex 3009.848386663036 191.00953759211285 9.199405710896174
  endloop
endfacet
facet normal 4.599544457601102e-14 0.991444861373807 0.13052619222007783
  outer loop
    vertex 3007.848386663036 191.00953759211285 9.199405710896878
    vertex 3009.848386663036 191.05553772662262 8.850000000007775
    vertex 3007.848386663036 191.05553772662262 8.85000000000848
  endloop
endfacet
facet normal 3.493700873047864e-13 0.13052619222004283 0.9914448613738116
  outer loop
    vertex 3007.8483866630363 190.054943437511 10.15399986549869
    vertex 3009.8483866630363 189.70553772662265 10.200000000007737
    vertex 3009.8483866630363 190.054943437511 10.153999865497985
  endloop
endfacet
facet normal 3.493700873047864e-13 0.13052619222004283 0.9914448613738116
  outer loop
    vertex 3009.8483866630363 189.70553772662265 10.200000000007737
    vertex 3007.8483866630363 190.054943437511 10.15399986549869
    vertex 3007.8483866630363 189.70553772662265 10.20000000000844
  endloop
endfacet
facet normal 3.255610932163269e-13 -0.38268343236513735 0.9238795325112672
  outer loop
    vertex 3007.8483866630363 189.35613201573418 10.153999865498678
    vertex 3009.8483866630363 189.0305377266226 10.019134295116718
    vertex 3009.8483866630363 189.35613201573418 10.153999865497973
  endloop
endfacet
facet normal 3.255610932163269e-13 -0.38268343236513735 0.9238795325112672
  outer loop
    vertex 3009.8483866630363 189.0305377266226 10.019134295116718
    vertex 3007.8483866630363 189.35613201573418 10.153999865498678
    vertex 3007.8483866630363 189.0305377266226 10.019134295117423
  endloop
endfacet
facet normal -2.1451826711355285e-13 -0.7933533402912731 -0.6087614290086711
  outer loop
    vertex 3007.848386663036 188.75094357202082 7.895405845406614
    vertex 3009.8483866630354 188.53640343151372 8.175000000007742
    vertex 3007.848386663036 188.53640343151372 8.175000000008447
  endloop
endfacet
facet normal -2.1451826711355285e-13 -0.7933533402912731 -0.6087614290086711
  outer loop
    vertex 3009.8483866630354 188.53640343151372 8.175000000007742
    vertex 3007.848386663036 188.75094357202082 7.895405845406614
    vertex 3009.8483866630354 188.75094357202082 7.895405845405909
  endloop
endfacet
facet normal 2.1451826711355363e-13 0.7933533402912716 0.6087614290086731
  outer loop
    vertex 3009.848386663036 190.87467202173158 9.525000000007768
    vertex 3007.8483866630363 190.66013188122446 9.804594154610301
    vertex 3009.8483866630363 190.66013188122446 9.804594154609596
  endloop
endfacet
facet normal 2.1451826711355363e-13 0.7933533402912716 0.6087614290086731
  outer loop
    vertex 3007.8483866630363 190.66013188122446 9.804594154610301
    vertex 3009.848386663036 190.87467202173158 9.525000000007768
    vertex 3007.848386663036 190.87467202173158 9.525000000008474
  endloop
endfacet
facet normal 0.0 1.0 0.0
  outer loop
    vertex 3038.204636663041 225.9281240909453 22.349999999997756
    vertex 3032.648386663039 225.9281240909453 17.349999999999714
    vertex 2987.404636663041 225.9281240909453 22.35000000001566
  endloop
endfacet
facet normal 0.0 1.0 0.0
  outer loop
    vertex 3032.648386663039 225.9281240909453 17.349999999999714
    vertex 3038.204636663041 225.9281240909453 22.349999999997756
    vertex 3038.2046366630157 225.9281240909453 -47.50000000002015
  endloop
endfacet
facet normal 0.0 1.0 0.0
  outer loop
    vertex 3032.648386663039 225.9281240909453 17.349999999999714
    vertex 3038.2046366630157 225.9281240909453 -47.50000000002015
    vertex 3032.6483866630156 225.9281240909453 -47.5000000000182
  endloop
endfacet
facet normal 0.0 1.0 0.0
  outer loop
    vertex 2987.404636663041 225.9281240909453 22.35000000001566
    vertex 2994.5483866630393 225.9281240909453 17.350000000013136
    vertex 2987.4046366630155 225.9281240909453 -47.499999999984325
  endloop
endfacet
facet normal 0.0 1.0 0.0
  outer loop
    vertex 2994.5483866630393 225.9281240909453 17.350000000013136
    vertex 2987.404636663041 225.9281240909453 22.35000000001566
    vertex 3032.648386663039 225.9281240909453 17.349999999999714
  endloop
endfacet
facet normal 0.0 1.0 0.0
  outer loop
    vertex 2987.4046366630155 225.9281240909453 -47.499999999984325
    vertex 2994.5483866630393 225.9281240909453 17.350000000013136
    vertex 2994.548386663015 225.9281240909453 -47.49999999998684
  endloop
endfacet
facet normal 1.0 7.53206706296465e-30 -3.609557097661309e-13
  outer loop
    vertex 3017.348386663039 217.20553772662262 17.350000000005107
    vertex 3017.348386663041 187.2055377266226 22.350000000005107
    vertex 3017.348386663039 187.2055377266226 17.350000000005107
  endloop
endfacet
facet normal 1.0 7.53206706296465e-30 -3.609557097661309e-13
  outer loop
    vertex 3017.348386663041 187.2055377266226 22.350000000005107
    vertex 3017.348386663039 217.20553772662262 17.350000000005107
    vertex 3017.3483866630404 215.9992877266226 21.350000000005107
  endloop
endfacet
facet normal 1.0 7.53206706296465e-30 -3.609557097661309e-13
  outer loop
    vertex 3017.348386663041 215.9992877266226 22.350000000005107
    vertex 3017.348386663041 187.2055377266226 22.350000000005107
    vertex 3017.3483866630404 215.9992877266226 21.350000000005107
  endloop
endfacet
facet normal -1.0 0.0 3.523847880160247e-13
  outer loop
    vertex 2987.404636663041 176.71562409094528 22.35000000001566
    vertex 2987.404636663039 182.2718740909453 17.350000000015655
    vertex 2987.4046366630146 176.71562409094528 -47.49999999998433
  endloop
endfacet
facet normal -1.0 0.0 3.523847880160247e-13
  outer loop
    vertex 2987.404636663039 182.2718740909453 17.350000000015655
    vertex 2987.404636663041 176.71562409094528 22.35000000001566
    vertex 2987.404636663041 225.9281240909453 22.35000000001566
  endloop
endfacet
facet normal -1.0 0.0 3.523847880160247e-13
  outer loop
    vertex 2987.404636663039 182.2718740909453 17.350000000015655
    vertex 2987.404636663041 225.9281240909453 22.35000000001566
    vertex 2987.404636663039 220.37187409094528 17.350000000015655
  endloop
endfacet
facet normal -1.0 0.0 3.523847880160247e-13
  outer loop
    vertex 2987.404636663039 220.37187409094528 17.350000000015655
    vertex 2987.404636663041 225.9281240909453 22.35000000001566
    vertex 2987.4046366630155 220.37187409094528 -47.499999999984325
  endloop
endfacet
facet normal -1.0 0.0 3.523847880160247e-13
  outer loop
    vertex 2987.4046366630155 220.37187409094528 -47.499999999984325
    vertex 2987.404636663041 225.9281240909453 22.35000000001566
    vertex 2987.4046366630155 225.9281240909453 -47.499999999984325
  endloop
endfacet
facet normal -1.0 0.0 3.523847880160247e-13
  outer loop
    vertex 2987.4046366630146 182.2718740909453 -47.49999999998433
    vertex 2987.4046366630146 176.71562409094528 -47.49999999998433
    vertex 2987.404636663039 182.2718740909453 17.350000000015655
  endloop
endfacet
facet normal -1.0 0.0 3.523847880160247e-13
  outer loop
    vertex 3007.848386663036 188.40153786113245 9.199405710896833
    vertex 3007.848386663036 188.40153786113245 8.500594289120038
    vertex 3007.848386663036 188.35553772662269 8.850000000008436
  endloop
endfacet
facet normal -1.0 0.0 3.523847880160247e-13
  outer loop
    vertex 3007.848386663036 188.40153786113245 8.500594289120038
    vertex 3007.848386663036 188.40153786113245 9.199405710896833
    vertex 3007.848386663036 188.5364034315136 9.52500000000843
  endloop
endfacet
facet normal -1.0 0.0 3.523847880160247e-13
  outer loop
    vertex 3007.848386663036 188.40153786113245 8.500594289120038
    vertex 3007.848386663036 188.5364034315136 9.52500000000843
    vertex 3007.848386663036 188.53640343151372 8.175000000008447
  endloop
endfacet
facet normal -1.0 0.0 3.523847880160247e-13
  outer loop
    vertex 3007.848386663036 188.53640343151372 8.175000000008447
    vertex 3007.848386663036 188.5364034315136 9.52500000000843
    vertex 3007.8483866630363 188.75094357202073 9.804594154610266
  endloop
endfacet
facet normal -1.0 0.0 3.523847880160247e-13
  outer loop
    vertex 3007.848386663036 188.53640343151372 8.175000000008447
    vertex 3007.8483866630363 188.75094357202073 9.804594154610266
    vertex 3007.848386663036 188.75094357202082 7.895405845406614
  endloop
endfacet
facet normal -1.0 0.0 3.523847880160247e-13
  outer loop
    vertex 3007.848386663036 188.75094357202082 7.895405845406614
    vertex 3007.8483866630363 188.75094357202073 9.804594154610266
    vertex 3007.8483866630363 189.0305377266226 10.019134295117423
  endloop
endfacet
facet normal -1.0 0.0 3.523847880160247e-13
  outer loop
    vertex 3007.848386663036 188.75094357202082 7.895405845406614
    vertex 3007.8483866630363 189.0305377266226 10.019134295117423
    vertex 3007.8483866630363 189.0305377266226 7.680865704899465
  endloop
endfacet
facet normal -1.0 0.0 3.523847880160247e-13
  outer loop
    vertex 3007.8483866630363 189.0305377266226 7.680865704899465
    vertex 3007.8483866630363 189.0305377266226 10.019134295117423
    vertex 3007.8483866630363 189.35613201573418 10.153999865498678
  endloop
endfacet
facet normal -1.0 0.0 3.523847880160247e-13
  outer loop
    vertex 3007.8483866630363 189.0305377266226 7.680865704899465
    vertex 3007.8483866630363 189.35613201573418 10.153999865498678
    vertex 3007.8483866630363 189.35613201573426 7.546000134518221
  endloop
endfacet
facet normal -1.0 0.0 3.523847880160247e-13
  outer loop
    vertex 3007.8483866630363 189.35613201573426 7.546000134518221
    vertex 3007.8483866630363 189.35613201573418 10.153999865498678
    vertex 3007.8483866630363 189.70553772662265 10.20000000000844
  endloop
endfacet
facet normal -1.0 0.0 3.523847880160247e-13
  outer loop
    vertex 3007.8483866630363 189.35613201573426 7.546000134518221
    vertex 3007.8483866630363 189.70553772662265 10.20000000000844
    vertex 3007.848386663036 189.70553772662265 7.5000000000084714
  endloop
endfacet
facet normal -1.0 0.0 3.523847880160247e-13
  outer loop
    vertex 3007.848386663036 189.70553772662265 7.5000000000084714
    vertex 3007.8483866630363 189.70553772662265 10.20000000000844
    vertex 3007.8483866630363 190.054943437511 10.15399986549869
  endloop
endfacet
facet normal -1.0 0.0 3.523847880160247e-13
  outer loop
    vertex 3007.848386663036 189.70553772662265 7.5000000000084714
    vertex 3007.8483866630363 190.054943437511 10.15399986549869
    vertex 3007.8483866630363 190.05494343751113 7.546000134518232
  endloop
endfacet
facet normal -1.0 0.0 3.523847880160247e-13
  outer loop
    vertex 3007.8483866630363 190.05494343751113 7.546000134518232
    vertex 3007.8483866630363 190.054943437511 10.15399986549869
    vertex 3007.8483866630363 190.38053772662266 10.019134295117448
  endloop
endfacet
facet normal -1.0 0.0 3.523847880160247e-13
  outer loop
    vertex 3007.8483866630363 190.05494343751113 7.546000134518232
    vertex 3007.8483866630363 190.38053772662266 10.019134295117448
    vertex 3007.8483866630363 190.38053772662266 7.680865704899487
  endloop
endfacet
facet normal -1.0 0.0 3.523847880160247e-13
  outer loop
    vertex 3007.8483866630363 190.38053772662266 7.680865704899487
    vertex 3007.8483866630363 190.38053772662266 10.019134295117448
    vertex 3007.8483866630363 190.66013188122446 9.804594154610301
  endloop
endfacet
facet normal -1.0 0.0 3.523847880160247e-13
  outer loop
    vertex 3007.8483866630363 190.38053772662266 7.680865704899487
    vertex 3007.8483866630363 190.66013188122446 9.804594154610301
    vertex 3007.848386663036 190.66013188122446 7.895405845406648
  endloop
endfacet
facet normal -1.0 0.0 3.523847880160247e-13
  outer loop
    vertex 3007.848386663036 190.66013188122446 7.895405845406648
    vertex 3007.8483866630363 190.66013188122446 9.804594154610301
    vertex 3007.848386663036 190.87467202173158 9.525000000008474
  endloop
endfacet
facet normal -1.0 0.0 3.523847880160247e-13
  outer loop
    vertex 3007.848386663036 190.66013188122446 7.895405845406648
    vertex 3007.848386663036 190.87467202173158 9.525000000008474
    vertex 3007.848386663036 190.87467202173167 8.175000000008486
  endloop
endfacet
facet normal -1.0 0.0 3.523847880160247e-13
  outer loop
    vertex 3007.848386663036 190.87467202173167 8.175000000008486
    vertex 3007.848386663036 190.87467202173158 9.525000000008474
    vertex 3007.848386663036 191.00953759211285 9.199405710896878
  endloop
endfacet
facet normal -1.0 0.0 3.523847880160247e-13
  outer loop
    vertex 3007.848386663036 190.87467202173167 8.175000000008486
    vertex 3007.848386663036 191.00953759211285 9.199405710896878
    vertex 3007.848386663036 191.00953759211285 8.500594289120082
  endloop
endfacet
facet normal -1.0 0.0 3.523847880160247e-13
  outer loop
    vertex 3007.848386663036 191.00953759211285 8.500594289120082
    vertex 3007.848386663036 191.00953759211285 9.199405710896878
    vertex 3007.848386663036 191.05553772662262 8.85000000000848
  endloop
endfacet
facet normal -3.493700873047888e-13 -0.13052619222003892 -0.991444861373812
  outer loop
    vertex 3007.8483866630363 189.35613201573426 7.546000134518221
    vertex 3009.8483866630354 189.70553772662265 7.500000000007766
    vertex 3009.8483866630363 189.35613201573426 7.5460001345175165
  endloop
endfacet
facet normal -3.493700873047888e-13 -0.13052619222003892 -0.991444861373812
  outer loop
    vertex 3009.8483866630354 189.70553772662265 7.500000000007766
    vertex 3007.8483866630363 189.35613201573426 7.546000134518221
    vertex 3007.848386663036 189.70553772662265 7.5000000000084714
  endloop
endfacet
facet normal -3.190341967706691e-14 0.9958932064677035 -0.09053574604252243
  outer loop
    vertex 3015.8483866630395 193.20553772662265 17.350000000005636
    vertex 3009.8483866630354 192.20553772662262 6.350000000007752
    vertex 3009.848386663039 193.20553772662265 17.35000000000775
  endloop
endfacet
facet normal -3.190341967706691e-14 0.9958932064677035 -0.09053574604252243
  outer loop
    vertex 3009.8483866630354 192.20553772662262 6.350000000007752
    vertex 3015.8483866630395 193.20553772662265 17.350000000005636
    vertex 3013.848386663035 192.20553772662262 6.350000000006342
  endloop
endfacet
facet normal 4.5995444576098625e-14 -0.9914448613737743 0.13052619222032644
  outer loop
    vertex 3025.8483866630363 188.3555377266226 8.850000000002094
    vertex 3027.848386663036 188.40153786113245 9.199405710889796
    vertex 3025.8483866630363 188.40153786113245 9.1994057108905
  endloop
endfacet
facet normal 4.5995444576098625e-14 -0.9914448613737743 0.13052619222032644
  outer loop
    vertex 3027.848386663036 188.40153786113245 9.199405710889796
    vertex 3025.8483866630363 188.3555377266226 8.850000000002094
    vertex 3027.848386663036 188.3555377266226 8.850000000001389
  endloop
endfacet
facet normal -1.3485182019114067e-13 0.9238795325113763 -0.3826834323648735
  outer loop
    vertex 3027.8483866630354 190.87467202173167 8.175000000001411
    vertex 3025.848386663036 191.00953759211285 8.500594289113723
    vertex 3027.8483866630354 191.00953759211285 8.500594289113018
  endloop
endfacet
facet normal -1.3485182019114067e-13 0.9238795325113763 -0.3826834323648735
  outer loop
    vertex 3025.848386663036 191.00953759211285 8.500594289113723
    vertex 3027.8483866630354 190.87467202173167 8.175000000001411
    vertex 3025.848386663036 190.87467202173167 8.175000000002116
  endloop
endfacet
facet normal -3.493700873047878e-13 0.13052619222003722 -0.9914448613738123
  outer loop
    vertex 3009.8483866630354 189.70553772662265 7.500000000007766
    vertex 3007.8483866630363 190.05494343751113 7.546000134518232
    vertex 3009.8483866630363 190.05494343751113 7.546000134517527
  endloop
endfacet
facet normal -3.493700873047878e-13 0.13052619222003722 -0.9914448613738123
  outer loop
    vertex 3007.8483866630363 190.05494343751113 7.546000134518232
    vertex 3009.8483866630354 189.70553772662265 7.500000000007766
    vertex 3007.848386663036 189.70553772662265 7.5000000000084714
  endloop
endfacet
facet normal 0.0 -1.0 0.0
  outer loop
    vertex 3017.3483866630404 215.9992877266226 21.350000000005107
    vertex 3027.848386663041 215.9992877266226 22.350000000001405
    vertex 3017.348386663041 215.9992877266226 22.350000000005107
  endloop
endfacet
facet normal 0.0 -1.0 0.0
  outer loop
    vertex 3027.848386663041 215.9992877266226 22.350000000001405
    vertex 3017.3483866630404 215.9992877266226 21.350000000005107
    vertex 3027.8483866630404 215.9992877266226 21.35000000000141
  endloop
endfacet
facet normal 3.493700873047875e-13 -0.13052619222004513 0.9914448613738114
  outer loop
    vertex 3007.8483866630363 189.70553772662265 10.20000000000844
    vertex 3009.8483866630363 189.35613201573418 10.153999865497973
    vertex 3009.8483866630363 189.70553772662265 10.200000000007737
  endloop
endfacet
facet normal 3.493700873047875e-13 -0.13052619222004513 0.9914448613738114
  outer loop
    vertex 3009.8483866630363 189.35613201573418 10.153999865497973
    vertex 3007.8483866630363 189.70553772662265 10.20000000000844
    vertex 3007.8483866630363 189.35613201573418 10.153999865498678
  endloop
endfacet
facet normal -1.3485182019114463e-13 0.9238795325113717 -0.3826834323648848
  outer loop
    vertex 3009.8483866630354 190.87467202173167 8.175000000007783
    vertex 3007.848386663036 191.00953759211285 8.500594289120082
    vertex 3009.8483866630354 191.00953759211285 8.500594289119377
  endloop
endfacet
facet normal -1.3485182019114463e-13 0.9238795325113717 -0.3826834323648848
  outer loop
    vertex 3007.848386663036 191.00953759211285 8.500594289120082
    vertex 3009.8483866630354 190.87467202173167 8.175000000007783
    vertex 3007.848386663036 190.87467202173167 8.175000000008486
  endloop
endfacet
facet normal 0.0 1.0 0.0
  outer loop
    vertex 3027.848386663039 187.2055377266226 17.350000000001405
    vertex 3017.348386663041 187.2055377266226 22.350000000005107
    vertex 3027.848386663041 187.2055377266226 22.350000000001405
  endloop
endfacet
facet normal 0.0 1.0 0.0
  outer loop
    vertex 3017.348386663041 187.2055377266226 22.350000000005107
    vertex 3027.848386663039 187.2055377266226 17.350000000001405
    vertex 3017.348386663039 187.2055377266226 17.350000000005107
  endloop
endfacet
facet normal 2.795656486403185e-13 0.6087614290087706 0.7933533402911969
  outer loop
    vertex 3007.8483866630363 190.66013188122446 9.804594154610301
    vertex 3009.8483866630363 190.38053772662266 10.019134295116743
    vertex 3009.8483866630363 190.66013188122446 9.804594154609596
  endloop
endfacet
facet normal 2.795656486403185e-13 0.6087614290087706 0.7933533402911969
  outer loop
    vertex 3009.8483866630363 190.38053772662266 10.019134295116743
    vertex 3007.8483866630363 190.66013188122446 9.804594154610301
    vertex 3007.8483866630363 190.38053772662266 10.019134295117448
  endloop
endfacet
facet normal -3.255610932163269e-13 0.38268343236513735 -0.9238795325112672
  outer loop
    vertex 3025.8483866630368 190.05494343751113 7.546000134511856
    vertex 3027.8483866630363 190.38053772662266 7.6808657048924065
    vertex 3027.8483866630363 190.05494343751113 7.546000134511152
  endloop
endfacet
facet normal -3.255610932163269e-13 0.38268343236513735 -0.9238795325112672
  outer loop
    vertex 3027.8483866630363 190.38053772662266 7.6808657048924065
    vertex 3025.8483866630368 190.05494343751113 7.546000134511856
    vertex 3025.8483866630368 190.38053772662266 7.680865704893111
  endloop
endfacet
facet normal 4.599544457600993e-14 0.9914448613738075 0.13052619222007475
  outer loop
    vertex 3027.848386663036 191.0555377266227 8.850000000001424
    vertex 3025.8483866630363 191.00953759211293 9.199405710890536
    vertex 3027.848386663036 191.00953759211293 9.199405710889831
  endloop
endfacet
facet normal 4.599544457600993e-14 0.9914448613738075 0.13052619222007475
  outer loop
    vertex 3025.8483866630363 191.00953759211293 9.199405710890536
    vertex 3027.848386663036 191.0555377266227 8.850000000001424
    vertex 3025.8483866630363 191.0555377266227 8.85000000000213
  endloop
endfacet
facet normal 2.1451826711360288e-13 -0.7933533402911644 0.6087614290088131
  outer loop
    vertex 3025.8483866630368 188.75094357202082 9.80459415460395
    vertex 3027.848386663036 188.5364034315136 9.525000000001398
    vertex 3027.8483866630363 188.75094357202082 9.804594154603251
  endloop
endfacet
facet normal 2.1451826711360288e-13 -0.7933533402911644 0.6087614290088131
  outer loop
    vertex 3027.848386663036 188.5364034315136 9.525000000001398
    vertex 3025.8483866630368 188.75094357202082 9.80459415460395
    vertex 3025.8483866630363 188.5364034315136 9.525000000002104
  endloop
endfacet
facet normal -1.0 0.0 3.609557097661308e-13
  outer loop
    vertex 3027.848386663041 215.9992877266226 22.350000000001405
    vertex 3027.848386663039 187.2055377266226 17.350000000001405
    vertex 3027.848386663041 187.2055377266226 22.350000000001405
  endloop
endfacet
facet normal -1.0 0.0 3.609557097661308e-13
  outer loop
    vertex 3027.848386663039 187.2055377266226 17.350000000001405
    vertex 3027.848386663041 215.9992877266226 22.350000000001405
    vertex 3027.848386663039 193.20553772662265 17.350000000001405
  endloop
endfacet
facet normal -1.0 0.0 3.609557097661308e-13
  outer loop
    vertex 3027.848386663039 187.2055377266226 17.350000000001405
    vertex 3027.848386663039 193.20553772662265 17.350000000001405
    vertex 3027.848386663036 188.5364034315136 9.525000000001398
  endloop
endfacet
facet normal -1.0 0.0 3.609557097661308e-13
  outer loop
    vertex 3027.848386663039 187.2055377266226 17.350000000001405
    vertex 3027.848386663036 188.5364034315136 9.525000000001398
    vertex 3027.848386663035 187.2055377266226 6.3500000000014065
  endloop
endfacet
facet normal -1.0 0.0 3.609557097661308e-13
  outer loop
    vertex 3027.848386663035 187.2055377266226 6.3500000000014065
    vertex 3027.848386663036 188.5364034315136 9.525000000001398
    vertex 3027.848386663036 188.40153786113245 9.199405710889796
  endloop
endfacet
facet normal -1.0 0.0 3.609557097661308e-13
  outer loop
    vertex 3027.848386663035 187.2055377266226 6.3500000000014065
    vertex 3027.848386663036 188.40153786113245 9.199405710889796
    vertex 3027.848386663036 188.3555377266226 8.850000000001389
  endloop
endfacet
facet normal -1.0 0.0 3.609557097661308e-13
  outer loop
    vertex 3027.848386663036 188.5364034315136 9.525000000001398
    vertex 3027.848386663039 193.20553772662265 17.350000000001405
    vertex 3027.8483866630363 188.75094357202082 9.804594154603251
  endloop
endfacet
facet normal -1.0 0.0 3.609557097661308e-13
  outer loop
    vertex 3027.8483866630363 188.75094357202082 9.804594154603251
    vertex 3027.848386663039 193.20553772662265 17.350000000001405
    vertex 3027.8483866630363 189.0305377266226 10.01913429511041
  endloop
endfacet
facet normal -1.0 0.0 3.609557097661308e-13
  outer loop
    vertex 3027.8483866630363 189.0305377266226 10.01913429511041
    vertex 3027.848386663039 193.20553772662265 17.350000000001405
    vertex 3027.8483866630363 189.35613201573418 10.153999865491667
  endloop
endfacet
facet normal -1.0 0.0 3.609557097661308e-13
  outer loop
    vertex 3027.8483866630363 189.35613201573418 10.153999865491667
    vertex 3027.848386663039 193.20553772662265 17.350000000001405
    vertex 3027.8483866630363 189.70553772662257 10.200000000001433
  endloop
endfacet
facet normal -1.0 0.0 3.609557097661308e-13
  outer loop
    vertex 3027.8483866630363 189.70553772662257 10.200000000001433
    vertex 3027.848386663039 193.20553772662265 17.350000000001405
    vertex 3027.8483866630363 190.054943437511 10.153999865491677
  endloop
endfacet
facet normal -1.0 0.0 3.609557097661308e-13
  outer loop
    vertex 3027.8483866630363 190.054943437511 10.153999865491677
    vertex 3027.848386663039 193.20553772662265 17.350000000001405
    vertex 3027.8483866630363 190.38053772662266 10.01913429511043
  endloop
endfacet
facet normal -1.0 0.0 3.609557097661308e-13
  outer loop
    vertex 3027.8483866630363 190.38053772662266 10.01913429511043
    vertex 3027.848386663039 193.20553772662265 17.350000000001405
    vertex 3027.8483866630363 190.66013188122446 9.80459415460328
  endloop
endfacet
facet normal -1.0 0.0 3.609557097661308e-13
  outer loop
    vertex 3027.8483866630363 190.66013188122446 9.80459415460328
    vertex 3027.848386663039 193.20553772662265 17.350000000001405
    vertex 3027.848386663036 190.87467202173167 9.525000000001432
  endloop
endfacet
facet normal -1.0 0.0 3.609557097661308e-13
  outer loop
    vertex 3027.848386663036 190.87467202173167 9.525000000001432
    vertex 3027.848386663039 193.20553772662265 17.350000000001405
    vertex 3027.848386663036 191.00953759211293 9.199405710889831
  endloop
endfacet
facet normal -1.0 0.0 3.609557097661308e-13
  outer loop
    vertex 3027.848386663036 191.00953759211293 9.199405710889831
    vertex 3027.848386663039 193.20553772662265 17.350000000001405
    vertex 3027.848386663036 191.0555377266227 8.850000000001424
  endloop
endfacet
facet normal -1.0 0.0 3.609557097661308e-13
  outer loop
    vertex 3027.848386663036 191.0555377266227 8.850000000001424
    vertex 3027.848386663039 193.20553772662265 17.350000000001405
    vertex 3027.848386663035 192.20553772662262 6.3500000000014065
  endloop
endfacet
facet normal -1.0 0.0 3.609557097661308e-13
  outer loop
    vertex 3027.848386663039 193.20553772662265 17.350000000001405
    vertex 3027.848386663041 215.9992877266226 22.350000000001405
    vertex 3027.8483866630404 215.9992877266226 21.35000000000141
  endloop
endfacet
facet normal -1.0 0.0 3.609557097661308e-13
  outer loop
    vertex 3027.848386663039 193.20553772662265 17.350000000001405
    vertex 3027.8483866630404 215.9992877266226 21.35000000000141
    vertex 3027.848386663039 217.20553772662262 17.350000000001405
  endloop
endfacet
facet normal -1.0 0.0 3.609557097661308e-13
  outer loop
    vertex 3027.848386663035 187.2055377266226 6.3500000000014065
    vertex 3027.8483866630363 189.0305377266226 7.680865704892386
    vertex 3027.848386663035 192.20553772662262 6.3500000000014065
  endloop
endfacet
facet normal -1.0 0.0 3.609557097661308e-13
  outer loop
    vertex 3027.8483866630363 189.0305377266226 7.680865704892386
    vertex 3027.848386663035 187.2055377266226 6.3500000000014065
    vertex 3027.8483866630354 188.75094357202082 7.895405845399542
  endloop
endfacet
facet normal -1.0 0.0 3.609557097661308e-13
  outer loop
    vertex 3027.8483866630354 188.75094357202082 7.895405845399542
    vertex 3027.848386663035 187.2055377266226 6.3500000000014065
    vertex 3027.8483866630354 188.5364034315136 8.175000000001377
  endloop
endfacet
facet normal -1.0 0.0 3.609557097661308e-13
  outer loop
    vertex 3027.8483866630354 188.5364034315136 8.175000000001377
    vertex 3027.848386663035 187.2055377266226 6.3500000000014065
    vertex 3027.8483866630354 188.40153786113237 8.500594289112978
  endloop
endfacet
facet normal -1.0 0.0 3.609557097661308e-13
  outer loop
    vertex 3027.8483866630354 188.40153786113237 8.500594289112978
    vertex 3027.848386663035 187.2055377266226 6.3500000000014065
    vertex 3027.848386663036 188.3555377266226 8.850000000001389
  endloop
endfacet
facet normal -1.0 0.0 3.609557097661308e-13
  outer loop
    vertex 3027.848386663035 192.20553772662262 6.3500000000014065
    vertex 3027.8483866630363 189.0305377266226 7.680865704892386
    vertex 3027.8483866630363 189.35613201573426 7.54600013451114
  endloop
endfacet
facet normal -1.0 0.0 3.609557097661308e-13
  outer loop
    vertex 3027.848386663035 192.20553772662262 6.3500000000014065
    vertex 3027.8483866630363 189.35613201573426 7.54600013451114
    vertex 3027.8483866630363 189.70553772662274 7.500000000001385
  endloop
endfacet
facet normal -1.0 0.0 3.609557097661308e-13
  outer loop
    vertex 3027.848386663035 192.20553772662262 6.3500000000014065
    vertex 3027.8483866630363 189.70553772662274 7.500000000001385
    vertex 3027.8483866630363 190.05494343751113 7.546000134511152
  endloop
endfacet
facet normal -1.0 0.0 3.609557097661308e-13
  outer loop
    vertex 3027.848386663035 192.20553772662262 6.3500000000014065
    vertex 3027.8483866630363 190.05494343751113 7.546000134511152
    vertex 3027.8483866630363 190.38053772662266 7.6808657048924065
  endloop
endfacet
facet normal -1.0 0.0 3.609557097661308e-13
  outer loop
    vertex 3027.848386663035 192.20553772662262 6.3500000000014065
    vertex 3027.8483866630363 190.38053772662266 7.6808657048924065
    vertex 3027.8483866630354 190.66013188122446 7.895405845399567
  endloop
endfacet
facet normal -1.0 0.0 3.609557097661308e-13
  outer loop
    vertex 3027.848386663035 192.20553772662262 6.3500000000014065
    vertex 3027.8483866630354 190.66013188122446 7.895405845399567
    vertex 3027.8483866630354 190.87467202173167 8.175000000001411
  endloop
endfacet
facet normal -1.0 0.0 3.609557097661308e-13
  outer loop
    vertex 3027.848386663035 192.20553772662262 6.3500000000014065
    vertex 3027.8483866630354 190.87467202173167 8.175000000001411
    vertex 3027.8483866630354 191.00953759211285 8.500594289113018
  endloop
endfacet
facet normal -1.0 0.0 3.609557097661308e-13
  outer loop
    vertex 3027.848386663035 192.20553772662262 6.3500000000014065
    vertex 3027.8483866630354 191.00953759211285 8.500594289113018
    vertex 3027.848386663036 191.0555377266227 8.850000000001424
  endloop
endfacet
facet normal -1.0 0.0 3.609557097661308e-13
  outer loop
    vertex 3027.848386663035 187.2055377266226 6.3500000000014065
    vertex 3027.848386663039 186.20553772662254 17.350000000001405
    vertex 3027.848386663039 187.2055377266226 17.350000000001405
  endloop
endfacet
facet normal -3.2556109321634093e-13 -0.38268343236501945 -0.9238795325113159
  outer loop
    vertex 3007.8483866630363 189.0305377266226 7.680865704899465
    vertex 3009.8483866630363 189.35613201573426 7.5460001345175165
    vertex 3009.8483866630363 189.0305377266226 7.68086570489876
  endloop
endfacet
facet normal -3.2556109321634093e-13 -0.38268343236501945 -0.9238795325113159
  outer loop
    vertex 3009.8483866630363 189.35613201573426 7.5460001345175165
    vertex 3007.8483866630363 189.0305377266226 7.680865704899465
    vertex 3007.8483866630363 189.35613201573426 7.546000134518221
  endloop
endfacet
facet normal 0.0 -1.0 0.0
  outer loop
    vertex 2987.404636663041 176.71562409094528 22.35000000001566
    vertex 2994.5483866630393 176.71562409094528 17.350000000013143
    vertex 3038.204636663041 176.71562409094528 22.349999999997756
  endloop
endfacet
facet normal 0.0 -1.0 0.0
  outer loop
    vertex 2994.5483866630393 176.71562409094528 17.350000000013143
    vertex 2987.404636663041 176.71562409094528 22.35000000001566
    vertex 2987.4046366630146 176.71562409094528 -47.49999999998433
  endloop
endfacet
facet normal 0.0 -1.0 0.0
  outer loop
    vertex 2994.5483866630393 176.71562409094528 17.350000000013143
    vertex 2987.4046366630146 176.71562409094528 -47.49999999998433
    vertex 2994.5483866630148 176.71562409094528 -47.49999999998685
  endloop
endfacet
facet normal 0.0 -1.0 0.0
  outer loop
    vertex 3038.204636663041 176.71562409094528 22.349999999997756
    vertex 3032.648386663039 176.71562409094528 17.349999999999714
    vertex 3038.2046366630148 176.71562409094528 -47.500000000002245
  endloop
endfacet
facet normal 0.0 -1.0 0.0
  outer loop
    vertex 3032.648386663039 176.71562409094528 17.349999999999714
    vertex 3038.204636663041 176.71562409094528 22.349999999997756
    vertex 2994.5483866630393 176.71562409094528 17.350000000013143
  endloop
endfacet
facet normal 0.0 -1.0 0.0
  outer loop
    vertex 3038.2046366630148 176.71562409094528 -47.500000000002245
    vertex 3032.648386663039 176.71562409094528 17.349999999999714
    vertex 3032.6483866630147 176.71562409094528 -47.5000000000003
  endloop
endfacet
facet normal -3.493700873047886e-13 -0.13052619222002151 -0.9914448613738145
  outer loop
    vertex 3025.8483866630368 189.35613201573426 7.5460001345118455
    vertex 3027.8483866630363 189.70553772662274 7.500000000001385
    vertex 3027.8483866630363 189.35613201573426 7.54600013451114
  endloop
endfacet
facet normal -3.493700873047886e-13 -0.13052619222002151 -0.9914448613738145
  outer loop
    vertex 3027.8483866630363 189.70553772662274 7.500000000001385
    vertex 3025.8483866630368 189.35613201573426 7.5460001345118455
    vertex 3025.848386663036 189.70553772662274 7.50000000000209
  endloop
endfacet
facet normal 3.2556109321632634e-13 -0.38268343236514074 0.9238795325112656
  outer loop
    vertex 3025.8483866630368 189.35613201573418 10.153999865492368
    vertex 3027.8483866630363 189.0305377266226 10.01913429511041
    vertex 3027.8483866630363 189.35613201573418 10.153999865491667
  endloop
endfacet
facet normal 3.2556109321632634e-13 -0.38268343236514074 0.9238795325112656
  outer loop
    vertex 3027.8483866630363 189.0305377266226 10.01913429511041
    vertex 3025.8483866630368 189.35613201573418 10.153999865492368
    vertex 3025.8483866630368 189.0305377266226 10.019134295111112
  endloop
endfacet
facet normal -2.795656486403129e-13 0.6087614290087908 -0.7933533402911814
  outer loop
    vertex 3007.8483866630363 190.38053772662266 7.680865704899487
    vertex 3009.8483866630354 190.66013188122446 7.895405845405943
    vertex 3009.8483866630363 190.38053772662266 7.680865704898782
  endloop
endfacet
facet normal -2.795656486403129e-13 0.6087614290087908 -0.7933533402911814
  outer loop
    vertex 3009.8483866630354 190.66013188122446 7.895405845405943
    vertex 3007.8483866630363 190.38053772662266 7.680865704899487
    vertex 3007.848386663036 190.66013188122446 7.895405845406648
  endloop
endfacet
facet normal -1.0172976124603629e-13 -0.9574135702049259 -0.288720029764922
  outer loop
    vertex 3017.348386663039 217.20553772662262 17.350000000005107
    vertex 3027.8483866630404 215.9992877266226 21.35000000000141
    vertex 3017.3483866630404 215.9992877266226 21.350000000005107
  endloop
endfacet
facet normal -1.0172976124603629e-13 -0.9574135702049259 -0.288720029764922
  outer loop
    vertex 3027.8483866630404 215.9992877266226 21.35000000000141
    vertex 3017.348386663039 217.20553772662262 17.350000000005107
    vertex 3027.848386663039 217.20553772662262 17.350000000001405
  endloop
endfacet
facet normal 0.0 1.0 0.0
  outer loop
    vertex 3009.848386663039 187.2055377266226 17.35000000000775
    vertex 2999.3483866630413 187.2055377266226 22.35000000001145
    vertex 3009.848386663041 187.2055377266226 22.350000000007753
  endloop
endfacet
facet normal 0.0 1.0 0.0
  outer loop
    vertex 2999.3483866630413 187.2055377266226 22.35000000001145
    vertex 3009.848386663039 187.2055377266226 17.35000000000775
    vertex 2999.3483866630395 187.2055377266226 17.350000000011452
  endloop
endfacet
facet normal 0.9838699100998516 1.826184832193267e-17 -0.1788854382002905
  outer loop
    vertex 3031.8483866630354 187.2055377266226 6.349999999999997
    vertex 3033.848386663039 193.20553772662265 17.34999999999929
    vertex 3033.848386663039 186.20553772662254 17.34999999999929
  endloop
endfacet
facet normal 0.9838699100998516 1.826184832193267e-17 -0.1788854382002905
  outer loop
    vertex 3033.848386663039 193.20553772662265 17.34999999999929
    vertex 3031.8483866630354 187.2055377266226 6.349999999999997
    vertex 3031.8483866630354 192.20553772662262 6.349999999999997
  endloop
endfacet
facet normal 3.523847880160247e-13 0.0 1.0
  outer loop
    vertex 3038.204636663041 225.9281240909453 22.349999999997756
    vertex 3027.848386663041 215.9992877266226 22.350000000001405
    vertex 3038.204636663041 176.71562409094528 22.349999999997756
  endloop
endfacet
facet normal 3.523847880160247e-13 0.0 1.0
  outer loop
    vertex 3027.848386663041 215.9992877266226 22.350000000001405
    vertex 3038.204636663041 225.9281240909453 22.349999999997756
    vertex 2987.404636663041 225.9281240909453 22.35000000001566
  endloop
endfacet
facet normal 3.523847880160247e-13 0.0 1.0
  outer loop
    vertex 3027.848386663041 215.9992877266226 22.350000000001405
    vertex 2987.404636663041 225.9281240909453 22.35000000001566
    vertex 3017.348386663041 215.9992877266226 22.350000000005107
  endloop
endfacet
facet normal 3.523847880160247e-13 0.0 1.0
  outer loop
    vertex 3017.348386663041 215.9992877266226 22.350000000005107
    vertex 2987.404636663041 225.9281240909453 22.35000000001566
    vertex 3009.848386663041 215.9992877266226 22.350000000007753
  endloop
endfacet
facet normal 3.523847880160247e-13 0.0 1.0
  outer loop
    vertex 3017.348386663041 215.9992877266226 22.350000000005107
    vertex 3009.848386663041 215.9992877266226 22.350000000007753
    vertex 3017.348386663041 187.2055377266226 22.350000000005107
  endloop
endfacet
facet normal 3.523847880160247e-13 0.0 1.0
  outer loop
    vertex 3009.848386663041 215.9992877266226 22.350000000007753
    vertex 2987.404636663041 225.9281240909453 22.35000000001566
    vertex 2999.3483866630413 215.9992877266226 22.35000000001145
  endloop
endfacet
facet normal 3.523847880160247e-13 0.0 1.0
  outer loop
    vertex 2999.3483866630413 215.9992877266226 22.35000000001145
    vertex 2987.404636663041 225.9281240909453 22.35000000001566
    vertex 2999.3483866630413 187.2055377266226 22.35000000001145
  endloop
endfacet
facet normal 3.523847880160247e-13 0.0 1.0
  outer loop
    vertex 3038.204636663041 176.71562409094528 22.349999999997756
    vertex 3027.848386663041 187.2055377266226 22.350000000001405
    vertex 2987.404636663041 176.71562409094528 22.35000000001566
  endloop
endfacet
facet normal 3.523847880160247e-13 0.0 1.0
  outer loop
    vertex 3027.848386663041 187.2055377266226 22.350000000001405
    vertex 3038.204636663041 176.71562409094528 22.349999999997756
    vertex 3027.848386663041 215.9992877266226 22.350000000001405
  endloop
endfacet
facet normal 3.523847880160247e-13 0.0 1.0
  outer loop
    vertex 2987.404636663041 176.71562409094528 22.35000000001566
    vertex 3027.848386663041 187.2055377266226 22.350000000001405
    vertex 3017.348386663041 187.2055377266226 22.350000000005107
  endloop
endfacet
facet normal 3.523847880160247e-13 0.0 1.0
  outer loop
    vertex 2987.404636663041 176.71562409094528 22.35000000001566
    vertex 3017.348386663041 187.2055377266226 22.350000000005107
    vertex 3009.848386663041 187.2055377266226 22.350000000007753
  endloop
endfacet
facet normal 3.523847880160247e-13 0.0 1.0
  outer loop
    vertex 3009.848386663041 187.2055377266226 22.350000000007753
    vertex 3017.348386663041 187.2055377266226 22.350000000005107
    vertex 3009.848386663041 215.9992877266226 22.350000000007753
  endloop
endfacet
facet normal 3.523847880160247e-13 0.0 1.0
  outer loop
    vertex 2987.404636663041 176.71562409094528 22.35000000001566
    vertex 3009.848386663041 187.2055377266226 22.350000000007753
    vertex 2999.3483866630413 187.2055377266226 22.35000000001145
  endloop
endfacet
facet normal 3.523847880160247e-13 0.0 1.0
  outer loop
    vertex 2987.404636663041 176.71562409094528 22.35000000001566
    vertex 2999.3483866630413 187.2055377266226 22.35000000001145
    vertex 2987.404636663041 225.9281240909453 22.35000000001566
  endloop
endfacet
facet normal -2.7956564864031445e-13 -0.6087614290087857 -0.7933533402911854
  outer loop
    vertex 3027.8483866630354 188.75094357202082 7.895405845399542
    vertex 3025.8483866630368 189.0305377266226 7.680865704893091
    vertex 3027.8483866630363 189.0305377266226 7.680865704892386
  endloop
endfacet
facet normal -2.7956564864031445e-13 -0.6087614290087857 -0.7933533402911854
  outer loop
    vertex 3025.8483866630368 189.0305377266226 7.680865704893091
    vertex 3027.8483866630354 188.75094357202082 7.895405845399542
    vertex 3025.848386663036 188.75094357202082 7.895405845400247
  endloop
endfacet
facet normal -4.599544457601102e-14 -0.991444861373807 -0.13052619222007783
  outer loop
    vertex 3007.848386663036 188.40153786113245 8.500594289120038
    vertex 3009.848386663036 188.35553772662269 8.85000000000773
    vertex 3007.848386663036 188.35553772662269 8.850000000008436
  endloop
endfacet
facet normal -4.599544457601102e-14 -0.991444861373807 -0.13052619222007783
  outer loop
    vertex 3009.848386663036 188.35553772662269 8.85000000000773
    vertex 3007.848386663036 188.40153786113245 8.500594289120038
    vertex 3009.8483866630354 188.40153786113245 8.500594289119332
  endloop
endfacet
facet normal -3.523847880160247e-13 0.0 -1.0
  outer loop
    vertex 3009.8483866630354 187.2055377266226 6.350000000007752
    vertex 3013.848386663035 192.20553772662262 6.350000000006342
    vertex 3013.848386663035 187.2055377266226 6.350000000006342
  endloop
endfacet
facet normal -3.523847880160247e-13 0.0 -1.0
  outer loop
    vertex 3013.848386663035 192.20553772662262 6.350000000006342
    vertex 3009.8483866630354 187.2055377266226 6.350000000007752
    vertex 3009.8483866630354 192.20553772662262 6.350000000007752
  endloop
endfacet
facet normal -1.3485182019121963e-13 -0.9238795325112835 -0.3826834323650976
  outer loop
    vertex 3025.848386663036 188.5364034315136 8.175000000002083
    vertex 3027.8483866630354 188.40153786113237 8.500594289112978
    vertex 3025.848386663036 188.40153786113237 8.500594289113684
  endloop
endfacet
facet normal -1.3485182019121963e-13 -0.9238795325112835 -0.3826834323650976
  outer loop
    vertex 3027.8483866630354 188.40153786113237 8.500594289112978
    vertex 3025.848386663036 188.5364034315136 8.175000000002083
    vertex 3027.8483866630354 188.5364034315136 8.175000000001377
  endloop
endfacet
facet normal 1.3485182019123029e-13 0.9238795325112801 0.3826834323651062
  outer loop
    vertex 3009.848386663036 191.00953759211285 9.199405710896174
    vertex 3007.848386663036 190.87467202173158 9.525000000008474
    vertex 3009.848386663036 190.87467202173158 9.525000000007768
  endloop
endfacet
facet normal 1.3485182019123029e-13 0.9238795325112801 0.3826834323651062
  outer loop
    vertex 3007.848386663036 190.87467202173158 9.525000000008474
    vertex 3009.848386663036 191.00953759211285 9.199405710896174
    vertex 3007.848386663036 191.00953759211285 9.199405710896878
  endloop
endfacet
facet normal -2.7956564864031167e-13 0.6087614290087957 -0.7933533402911775
  outer loop
    vertex 3025.8483866630368 190.38053772662266 7.680865704893111
    vertex 3027.8483866630354 190.66013188122446 7.895405845399567
    vertex 3027.8483866630363 190.38053772662266 7.6808657048924065
  endloop
endfacet
facet normal -2.7956564864031167e-13 0.6087614290087957 -0.7933533402911775
  outer loop
    vertex 3027.8483866630354 190.66013188122446 7.895405845399567
    vertex 3025.8483866630368 190.38053772662266 7.680865704893111
    vertex 3025.848386663036 190.66013188122446 7.895405845400272
  endloop
endfacet
facet normal -3.523847880160247e-13 0.0 -1.0
  outer loop
    vertex 3027.848386663035 187.2055377266226 6.3500000000014065
    vertex 3031.8483866630354 192.20553772662262 6.349999999999997
    vertex 3031.8483866630354 187.2055377266226 6.349999999999997
  endloop
endfacet
facet normal -3.523847880160247e-13 0.0 -1.0
  outer loop
    vertex 3031.8483866630354 192.20553772662262 6.349999999999997
    vertex 3027.848386663035 187.2055377266226 6.3500000000014065
    vertex 3027.848386663035 192.20553772662262 6.3500000000014065
  endloop
endfacet
facet normal 1.0 3.766033531482329e-30 -3.609557097661311e-13
  outer loop
    vertex 2999.3483866630395 217.20553772662262 17.350000000011452
    vertex 2999.3483866630413 187.2055377266226 22.35000000001145
    vertex 2999.3483866630395 187.2055377266226 17.350000000011452
  endloop
endfacet
facet normal 1.0 3.766033531482329e-30 -3.609557097661311e-13
  outer loop
    vertex 2999.3483866630413 187.2055377266226 22.35000000001145
    vertex 2999.3483866630395 217.20553772662262 17.350000000011452
    vertex 2999.348386663041 215.9992877266226 21.35000000001145
  endloop
endfacet
facet normal 1.0 3.766033531482329e-30 -3.609557097661311e-13
  outer loop
    vertex 2999.3483866630413 215.9992877266226 22.35000000001145
    vertex 2999.3483866630413 187.2055377266226 22.35000000001145
    vertex 2999.348386663041 215.9992877266226 21.35000000001145
  endloop
endfacet
facet normal 2.1451826711355015e-13 -0.7933533402912791 0.6087614290086635
  outer loop
    vertex 3007.848386663036 188.5364034315136 9.52500000000843
    vertex 3009.8483866630363 188.75094357202073 9.80459415460956
    vertex 3007.8483866630363 188.75094357202073 9.804594154610266
  endloop
endfacet
facet normal 2.1451826711355015e-13 -0.7933533402912791 0.6087614290086635
  outer loop
    vertex 3009.8483866630363 188.75094357202073 9.80459415460956
    vertex 3007.848386663036 188.5364034315136 9.52500000000843
    vertex 3009.848386663036 188.5364034315136 9.525000000007724
  endloop
endfacet
facet normal -3.493700873047856e-13 0.13052619222008613 -0.9914448613738059
  outer loop
    vertex 3025.848386663036 189.70553772662274 7.50000000000209
    vertex 3027.8483866630363 190.05494343751113 7.546000134511152
    vertex 3027.8483866630363 189.70553772662274 7.500000000001385
  endloop
endfacet
facet normal -3.493700873047856e-13 0.13052619222008613 -0.9914448613738059
  outer loop
    vertex 3027.8483866630363 190.05494343751113 7.546000134511152
    vertex 3025.848386663036 189.70553772662274 7.50000000000209
    vertex 3025.8483866630368 190.05494343751113 7.546000134511856
  endloop
endfacet
facet normal 4.599544457601102e-14 -0.991444861373807 0.13052619222007783
  outer loop
    vertex 3007.848386663036 188.35553772662269 8.850000000008436
    vertex 3009.848386663036 188.40153786113245 9.199405710896128
    vertex 3007.848386663036 188.40153786113245 9.199405710896833
  endloop
endfacet
facet normal 4.599544457601102e-14 -0.991444861373807 0.13052619222007783
  outer loop
    vertex 3009.848386663036 188.40153786113245 9.199405710896128
    vertex 3007.848386663036 188.35553772662269 8.850000000008436
    vertex 3009.848386663036 188.35553772662269 8.85000000000773
  endloop
endfacet
facet normal 3.493700873047886e-13 0.13052619222002151 0.9914448613738145
  outer loop
    vertex 3025.8483866630368 190.054943437511 10.153999865492377
    vertex 3027.8483866630363 189.70553772662257 10.200000000001433
    vertex 3027.8483866630363 190.054943437511 10.153999865491677
  endloop
endfacet
facet normal 3.493700873047886e-13 0.13052619222002151 0.9914448613738145
  outer loop
    vertex 3027.8483866630363 189.70553772662257 10.200000000001433
    vertex 3025.8483866630368 190.054943437511 10.153999865492377
    vertex 3025.8483866630368 189.70553772662257 10.200000000002133
  endloop
endfacet
facet normal -4.599544457609861e-14 0.9914448613737743 -0.1305261922203264
  outer loop
    vertex 3027.8483866630354 191.00953759211285 8.500594289113018
    vertex 3025.8483866630363 191.0555377266227 8.85000000000213
    vertex 3027.848386663036 191.0555377266227 8.850000000001424
  endloop
endfacet
facet normal -4.599544457609861e-14 0.9914448613737743 -0.1305261922203264
  outer loop
    vertex 3025.8483866630363 191.0555377266227 8.85000000000213
    vertex 3027.8483866630354 191.00953759211285 8.500594289113018
    vertex 3025.848386663036 191.00953759211285 8.500594289113723
  endloop
endfacet
facet normal -2.1451826711360417e-13 0.7933533402911613 -0.6087614290088168
  outer loop
    vertex 3027.8483866630354 190.66013188122446 7.895405845399567
    vertex 3025.848386663036 190.87467202173167 8.175000000002116
    vertex 3027.8483866630354 190.87467202173167 8.175000000001411
  endloop
endfacet
facet normal -2.1451826711360417e-13 0.7933533402911613 -0.6087614290088168
  outer loop
    vertex 3025.848386663036 190.87467202173167 8.175000000002116
    vertex 3027.8483866630354 190.66013188122446 7.895405845399567
    vertex 3025.848386663036 190.66013188122446 7.895405845400272
  endloop
endfacet
facet normal 0.0 -1.0 0.0
  outer loop
    vertex 2999.3483866630413 215.9992877266226 22.35000000001145
    vertex 3009.848386663041 215.9992877266226 21.350000000007757
    vertex 3009.848386663041 215.9992877266226 22.350000000007753
  endloop
endfacet
facet normal 0.0 -1.0 0.0
  outer loop
    vertex 3009.848386663041 215.9992877266226 21.350000000007757
    vertex 2999.3483866630413 215.9992877266226 22.35000000001145
    vertex 2999.348386663041 215.9992877266226 21.35000000001145
  endloop
endfacet
facet normal -2.7956564864031834e-13 -0.6087614290087705 -0.793353340291197
  outer loop
    vertex 3009.8483866630354 188.75094357202082 7.895405845405909
    vertex 3007.8483866630363 189.0305377266226 7.680865704899465
    vertex 3009.8483866630363 189.0305377266226 7.68086570489876
  endloop
endfacet
facet normal -2.7956564864031834e-13 -0.6087614290087705 -0.793353340291197
  outer loop
    vertex 3007.8483866630363 189.0305377266226 7.680865704899465
    vertex 3009.8483866630354 188.75094357202082 7.895405845405909
    vertex 3007.848386663036 188.75094357202082 7.895405845406614
  endloop
endfacet
facet normal -4.599544457600956e-14 -0.9914448613738075 -0.1305261922200737
  outer loop
    vertex 3025.848386663036 188.40153786113237 8.500594289113684
    vertex 3027.848386663036 188.3555377266226 8.850000000001389
    vertex 3025.8483866630363 188.3555377266226 8.850000000002094
  endloop
endfacet
facet normal -4.599544457600956e-14 -0.9914448613738075 -0.1305261922200737
  outer loop
    vertex 3027.848386663036 188.3555377266226 8.850000000001389
    vertex 3025.848386663036 188.40153786113237 8.500594289113684
    vertex 3027.8483866630354 188.40153786113237 8.500594289112978
  endloop
endfacet
facet normal 2.795629872728366e-13 -0.6087614290086645 0.7933533402912782
  outer loop
    vertex 3007.8483866630363 189.0305377266226 10.019134295117423
    vertex 3009.8483866630363 188.75094357202073 9.80459415460956
    vertex 3009.8483866630363 189.0305377266226 10.019134295116718
  endloop
endfacet
facet normal 2.795629872728366e-13 -0.6087614290086645 0.7933533402912782
  outer loop
    vertex 3009.8483866630363 188.75094357202073 9.80459415460956
    vertex 3007.8483866630363 189.0305377266226 10.019134295117423
    vertex 3007.8483866630363 188.75094357202073 9.804594154610266
  endloop
endfacet
facet normal -3.255610932163269e-13 0.38268343236513735 -0.9238795325112672
  outer loop
    vertex 3007.8483866630363 190.05494343751113 7.546000134518232
    vertex 3009.8483866630363 190.38053772662266 7.680865704898782
    vertex 3009.8483866630363 190.05494343751113 7.546000134517527
  endloop
endfacet
facet normal -3.255610932163269e-13 0.38268343236513735 -0.9238795325112672
  outer loop
    vertex 3009.8483866630363 190.38053772662266 7.680865704898782
    vertex 3007.8483866630363 190.05494343751113 7.546000134518232
    vertex 3007.8483866630363 190.38053772662266 7.680865704899487
  endloop
endfacet
facet normal -1.3485182019121607e-13 -0.923879532511279 -0.38268343236510904
  outer loop
    vertex 3007.848386663036 188.53640343151372 8.175000000008447
    vertex 3009.8483866630354 188.40153786113245 8.500594289119332
    vertex 3007.848386663036 188.40153786113245 8.500594289120038
  endloop
endfacet
facet normal -1.3485182019121607e-13 -0.923879532511279 -0.38268343236510904
  outer loop
    vertex 3009.8483866630354 188.40153786113245 8.500594289119332
    vertex 3007.848386663036 188.53640343151372 8.175000000008447
    vertex 3009.8483866630354 188.53640343151372 8.175000000007742
  endloop
endfacet
facet normal 1.348518201911437e-13 -0.923879532511373 0.382683432364882
  outer loop
    vertex 3007.848386663036 188.40153786113245 9.199405710896833
    vertex 3009.848386663036 188.5364034315136 9.525000000007724
    vertex 3007.848386663036 188.5364034315136 9.52500000000843
  endloop
endfacet
facet normal 1.348518201911437e-13 -0.923879532511373 0.382683432364882
  outer loop
    vertex 3009.848386663036 188.5364034315136 9.525000000007724
    vertex 3007.848386663036 188.40153786113245 9.199405710896833
    vertex 3009.848386663036 188.40153786113245 9.199405710896128
  endloop
endfacet
facet normal -1.0 0.0 3.523847880160247e-13
  outer loop
    vertex 3025.8483866630363 188.40153786113245 9.1994057108905
    vertex 3025.848386663036 188.40153786113237 8.500594289113684
    vertex 3025.8483866630363 188.3555377266226 8.850000000002094
  endloop
endfacet
facet normal -1.0 0.0 3.523847880160247e-13
  outer loop
    vertex 3025.848386663036 188.40153786113237 8.500594289113684
    vertex 3025.8483866630363 188.40153786113245 9.1994057108905
    vertex 3025.848386663036 188.5364034315136 8.175000000002083
  endloop
endfacet
facet normal -1.0 0.0 3.523847880160247e-13
  outer loop
    vertex 3025.848386663036 188.5364034315136 8.175000000002083
    vertex 3025.8483866630363 188.40153786113245 9.1994057108905
    vertex 3025.8483866630363 188.5364034315136 9.525000000002104
  endloop
endfacet
facet normal -1.0 0.0 3.523847880160247e-13
  outer loop
    vertex 3025.848386663036 188.5364034315136 8.175000000002083
    vertex 3025.8483866630363 188.5364034315136 9.525000000002104
    vertex 3025.8483866630368 188.75094357202082 9.80459415460395
  endloop
endfacet
facet normal -1.0 0.0 3.523847880160247e-13
  outer loop
    vertex 3025.848386663036 188.5364034315136 8.175000000002083
    vertex 3025.8483866630368 188.75094357202082 9.80459415460395
    vertex 3025.848386663036 188.75094357202082 7.895405845400247
  endloop
endfacet
facet normal -1.0 0.0 3.523847880160247e-13
  outer loop
    vertex 3025.848386663036 188.75094357202082 7.895405845400247
    vertex 3025.8483866630368 188.75094357202082 9.80459415460395
    vertex 3025.8483866630368 189.0305377266226 10.019134295111112
  endloop
endfacet
facet normal -1.0 0.0 3.523847880160247e-13
  outer loop
    vertex 3025.848386663036 188.75094357202082 7.895405845400247
    vertex 3025.8483866630368 189.0305377266226 10.019134295111112
    vertex 3025.8483866630368 189.0305377266226 7.680865704893091
  endloop
endfacet
facet normal -1.0 0.0 3.523847880160247e-13
  outer loop
    vertex 3025.8483866630368 189.0305377266226 7.680865704893091
    vertex 3025.8483866630368 189.0305377266226 10.019134295111112
    vertex 3025.8483866630368 189.35613201573418 10.153999865492368
  endloop
endfacet
facet normal -1.0 0.0 3.523847880160247e-13
  outer loop
    vertex 3025.8483866630368 189.0305377266226 7.680865704893091
    vertex 3025.8483866630368 189.35613201573418 10.153999865492368
    vertex 3025.8483866630368 189.35613201573426 7.5460001345118455
  endloop
endfacet
facet normal -1.0 0.0 3.523847880160247e-13
  outer loop
    vertex 3025.8483866630368 189.35613201573426 7.5460001345118455
    vertex 3025.8483866630368 189.35613201573418 10.153999865492368
    vertex 3025.8483866630368 189.70553772662257 10.200000000002133
  endloop
endfacet
facet normal -1.0 0.0 3.523847880160247e-13
  outer loop
    vertex 3025.8483866630368 189.35613201573426 7.5460001345118455
    vertex 3025.8483866630368 189.70553772662257 10.200000000002133
    vertex 3025.848386663036 189.70553772662274 7.50000000000209
  endloop
endfacet
facet normal -1.0 0.0 3.523847880160247e-13
  outer loop
    vertex 3025.848386663036 189.70553772662274 7.50000000000209
    vertex 3025.8483866630368 189.70553772662257 10.200000000002133
    vertex 3025.8483866630368 190.054943437511 10.153999865492377
  endloop
endfacet
facet normal -1.0 0.0 3.523847880160247e-13
  outer loop
    vertex 3025.848386663036 189.70553772662274 7.50000000000209
    vertex 3025.8483866630368 190.054943437511 10.153999865492377
    vertex 3025.8483866630368 190.05494343751113 7.546000134511856
  endloop
endfacet
facet normal -1.0 0.0 3.523847880160247e-13
  outer loop
    vertex 3025.8483866630368 190.05494343751113 7.546000134511856
    vertex 3025.8483866630368 190.054943437511 10.153999865492377
    vertex 3025.8483866630368 190.38053772662266 10.01913429511113
  endloop
endfacet
facet normal -1.0 0.0 3.523847880160247e-13
  outer loop
    vertex 3025.8483866630368 190.05494343751113 7.546000134511856
    vertex 3025.8483866630368 190.38053772662266 10.01913429511113
    vertex 3025.8483866630368 190.38053772662266 7.680865704893111
  endloop
endfacet
facet normal -1.0 0.0 3.523847880160247e-13
  outer loop
    vertex 3025.8483866630368 190.38053772662266 7.680865704893111
    vertex 3025.8483866630368 190.38053772662266 10.01913429511113
    vertex 3025.8483866630368 190.66013188122446 9.80459415460398
  endloop
endfacet
facet normal -1.0 0.0 3.523847880160247e-13
  outer loop
    vertex 3025.8483866630368 190.38053772662266 7.680865704893111
    vertex 3025.8483866630368 190.66013188122446 9.80459415460398
    vertex 3025.848386663036 190.66013188122446 7.895405845400272
  endloop
endfacet
facet normal -1.0 0.0 3.523847880160247e-13
  outer loop
    vertex 3025.848386663036 190.66013188122446 7.895405845400272
    vertex 3025.8483866630368 190.66013188122446 9.80459415460398
    vertex 3025.8483866630363 190.87467202173167 9.525000000002137
  endloop
endfacet
facet normal -1.0 0.0 3.523847880160247e-13
  outer loop
    vertex 3025.848386663036 190.66013188122446 7.895405845400272
    vertex 3025.8483866630363 190.87467202173167 9.525000000002137
    vertex 3025.848386663036 190.87467202173167 8.175000000002116
  endloop
endfacet
facet normal -1.0 0.0 3.523847880160247e-13
  outer loop
    vertex 3025.848386663036 190.87467202173167 8.175000000002116
    vertex 3025.8483866630363 190.87467202173167 9.525000000002137
    vertex 3025.8483866630363 191.00953759211293 9.199405710890536
  endloop
endfacet
facet normal -1.0 0.0 3.523847880160247e-13
  outer loop
    vertex 3025.848386663036 190.87467202173167 8.175000000002116
    vertex 3025.8483866630363 191.00953759211293 9.199405710890536
    vertex 3025.848386663036 191.00953759211285 8.500594289113723
  endloop
endfacet
facet normal -1.0 0.0 3.523847880160247e-13
  outer loop
    vertex 3025.848386663036 191.00953759211285 8.500594289113723
    vertex 3025.8483866630363 191.00953759211293 9.199405710890536
    vertex 3025.8483866630363 191.0555377266227 8.85000000000213
  endloop
endfacet
facet normal -3.1924848111880087e-14 -0.9958932064677035 -0.0905357460425224
  outer loop
    vertex 3009.8483866630354 187.2055377266226 6.350000000007752
    vertex 3015.8483866630395 186.20553772662254 17.350000000005636
    vertex 3009.848386663039 186.20553772662254 17.35000000000775
  endloop
endfacet
facet normal -3.1924848111880087e-14 -0.9958932064677035 -0.0905357460425224
  outer loop
    vertex 3015.8483866630395 186.20553772662254 17.350000000005636
    vertex 3009.8483866630354 187.2055377266226 6.350000000007752
    vertex 3013.848386663035 187.2055377266226 6.350000000006342
  endloop
endfacet
facet normal -3.5216274341109965e-13 0.0 -1.0
  outer loop
    vertex 2987.4046366630146 176.71562409094528 -47.49999999998433
    vertex 2994.5483866630148 182.2718740909453 -47.49999999998685
    vertex 2994.5483866630148 176.71562409094528 -47.49999999998685
  endloop
endfacet
facet normal -3.5216274341109965e-13 0.0 -1.0
  outer loop
    vertex 2994.5483866630148 182.2718740909453 -47.49999999998685
    vertex 2987.4046366630146 176.71562409094528 -47.49999999998433
    vertex 2987.4046366630146 182.2718740909453 -47.49999999998433
  endloop
endfacet
facet normal 0.0 1.0 0.0
  outer loop
    vertex 2994.5483866630148 182.2718740909453 -47.49999999998685
    vertex 2987.404636663039 182.2718740909453 17.350000000015655
    vertex 2994.5483866630393 182.2718740909453 17.350000000013143
  endloop
endfacet
facet normal 0.0 1.0 0.0
  outer loop
    vertex 2987.404636663039 182.2718740909453 17.350000000015655
    vertex 2994.5483866630148 182.2718740909453 -47.49999999998685
    vertex 2987.4046366630146 182.2718740909453 -47.49999999998433
  endloop
endfacet
facet normal 1.0 0.0 -3.5216274341109965e-13
  outer loop
    vertex 2994.5483866630148 182.2718740909453 -47.49999999998685
    vertex 2994.5483866630393 176.71562409094528 17.350000000013143
    vertex 2994.5483866630148 176.71562409094528 -47.49999999998685
  endloop
endfacet
facet normal 1.0 0.0 -3.5216274341109965e-13
  outer loop
    vertex 2994.5483866630393 176.71562409094528 17.350000000013143
    vertex 2994.5483866630148 182.2718740909453 -47.49999999998685
    vertex 2994.5483866630393 182.2718740909453 17.350000000013143
  endloop
endfacet
facet normal -3.5236519584500186e-13 -2.2857532859930182e-17 -1.0
  outer loop
    vertex 2994.5483866630393 176.71562409094528 17.350000000013143
    vertex 3032.648386663039 182.2718740909453 17.349999999999714
    vertex 3032.648386663039 176.71562409094528 17.349999999999714
  endloop
endfacet
facet normal -3.5236519584500186e-13 -2.2857532859930182e-17 -1.0
  outer loop
    vertex 3032.648386663039 182.2718740909453 17.349999999999714
    vertex 2994.5483866630393 176.71562409094528 17.350000000013143
    vertex 3027.848386663039 186.20553772662254 17.350000000001405
  endloop
endfacet
facet normal -3.5236519584500186e-13 -2.2857532859930182e-17 -1.0
  outer loop
    vertex 3027.848386663039 186.20553772662254 17.350000000001405
    vertex 2994.5483866630393 176.71562409094528 17.350000000013143
    vertex 3027.848386663039 187.2055377266226 17.350000000001405
  endloop
endfacet
facet normal -3.5236519584500186e-13 -2.2857532859930182e-17 -1.0
  outer loop
    vertex 3027.848386663039 187.2055377266226 17.350000000001405
    vertex 2994.5483866630393 176.71562409094528 17.350000000013143
    vertex 3015.8483866630395 186.20553772662254 17.350000000005636
  endloop
endfacet
facet normal -3.5236519584500186e-13 -2.2857532859930182e-17 -1.0
  outer loop
    vertex 3027.848386663039 187.2055377266226 17.350000000001405
    vertex 3015.8483866630395 186.20553772662254 17.350000000005636
    vertex 3017.348386663039 187.2055377266226 17.350000000005107
  endloop
endfacet
facet normal -3.5236519584500186e-13 -2.2857532859930182e-17 -1.0
  outer loop
    vertex 3017.348386663039 187.2055377266226 17.350000000005107
    vertex 3015.8483866630395 186.20553772662254 17.350000000005636
    vertex 3017.348386663039 217.20553772662262 17.350000000005107
  endloop
endfacet
facet normal -3.5236519584500186e-13 -2.2857532859930182e-17 -1.0
  outer loop
    vertex 3015.8483866630395 186.20553772662254 17.350000000005636
    vertex 2994.5483866630393 176.71562409094528 17.350000000013143
    vertex 3009.848386663039 186.20553772662254 17.35000000000775
  endloop
endfacet
facet normal -3.5236519584500186e-13 -2.2857532859930182e-17 -1.0
  outer loop
    vertex 3009.848386663039 186.20553772662254 17.35000000000775
    vertex 2994.5483866630393 176.71562409094528 17.350000000013143
    vertex 3009.848386663039 187.2055377266226 17.35000000000775
  endloop
endfacet
facet normal -3.5236519584500186e-13 -2.2857532859930182e-17 -1.0
  outer loop
    vertex 3009.848386663039 187.2055377266226 17.35000000000775
    vertex 2994.5483866630393 176.71562409094528 17.350000000013143
    vertex 2999.3483866630395 187.2055377266226 17.350000000011452
  endloop
endfacet
facet normal -3.5236519584500186e-13 -2.2857532859930182e-17 -1.0
  outer loop
    vertex 2999.3483866630395 187.2055377266226 17.350000000011452
    vertex 2994.5483866630393 176.71562409094528 17.350000000013143
    vertex 2999.3483866630395 217.20553772662262 17.350000000011452
  endloop
endfacet
facet normal -3.5236519584500186e-13 -2.2857532859930182e-17 -1.0
  outer loop
    vertex 2987.404636663039 182.2718740909453 17.350000000015655
    vertex 2994.5483866630393 220.37187409094528 17.350000000013136
    vertex 2994.5483866630393 182.2718740909453 17.350000000013143
  endloop
endfacet
facet normal -3.5236519584500186e-13 -2.2857532859930182e-17 -1.0
  outer loop
    vertex 2994.5483866630393 220.37187409094528 17.350000000013136
    vertex 2987.404636663039 182.2718740909453 17.350000000015655
    vertex 2987.404636663039 220.37187409094528 17.350000000015655
  endloop
endfacet
facet normal -3.5236519584500186e-13 -2.2857532859930182e-17 -1.0
  outer loop
    vertex 3038.2046366630393 220.37187409094528 17.349999999997756
    vertex 3033.848386663039 193.20553772662265 17.34999999999929
    vertex 3032.648386663039 220.37187409094528 17.349999999999714
  endloop
endfacet
facet normal -3.5236519584500186e-13 -2.2857532859930182e-17 -1.0
  outer loop
    vertex 3033.848386663039 193.20553772662265 17.34999999999929
    vertex 3038.2046366630393 220.37187409094528 17.349999999997756
    vertex 3033.848386663039 186.20553772662254 17.34999999999929
  endloop
endfacet
facet normal -3.5236519584500186e-13 -2.2857532859930182e-17 -1.0
  outer loop
    vertex 3032.648386663039 220.37187409094528 17.349999999999714
    vertex 3033.848386663039 193.20553772662265 17.34999999999929
    vertex 3027.848386663039 193.20553772662265 17.350000000001405
  endloop
endfacet
facet normal -3.5236519584500186e-13 -2.2857532859930182e-17 -1.0
  outer loop
    vertex 3032.648386663039 220.37187409094528 17.349999999999714
    vertex 3027.848386663039 193.20553772662265 17.350000000001405
    vertex 3032.648386663039 225.9281240909453 17.349999999999714
  endloop
endfacet
facet normal -3.5236519584500186e-13 -2.2857532859930182e-17 -1.0
  outer loop
    vertex 3032.648386663039 225.9281240909453 17.349999999999714
    vertex 3027.848386663039 193.20553772662265 17.350000000001405
    vertex 3027.848386663039 217.20553772662262 17.350000000001405
  endloop
endfacet
facet normal -3.5236519584500186e-13 -2.2857532859930182e-17 -1.0
  outer loop
    vertex 3032.648386663039 225.9281240909453 17.349999999999714
    vertex 3027.848386663039 217.20553772662262 17.350000000001405
    vertex 2994.5483866630393 225.9281240909453 17.350000000013136
  endloop
endfacet
facet normal -3.5236519584500186e-13 -2.2857532859930182e-17 -1.0
  outer loop
    vertex 2994.5483866630393 225.9281240909453 17.350000000013136
    vertex 3027.848386663039 217.20553772662262 17.350000000001405
    vertex 3017.348386663039 217.20553772662262 17.350000000005107
  endloop
endfacet
facet normal -3.5236519584500186e-13 -2.2857532859930182e-17 -1.0
  outer loop
    vertex 2994.5483866630393 225.9281240909453 17.350000000013136
    vertex 3017.348386663039 217.20553772662262 17.350000000005107
    vertex 3009.848386663039 217.20553772662262 17.35000000000775
  endloop
endfacet
facet normal -3.5236519584500186e-13 -2.2857532859930182e-17 -1.0
  outer loop
    vertex 3009.848386663039 217.20553772662262 17.35000000000775
    vertex 3017.348386663039 217.20553772662262 17.350000000005107
    vertex 3015.8483866630395 193.20553772662265 17.350000000005636
  endloop
endfacet
facet normal -3.5236519584500186e-13 -2.2857532859930182e-17 -1.0
  outer loop
    vertex 3015.8483866630395 193.20553772662265 17.350000000005636
    vertex 3017.348386663039 217.20553772662262 17.350000000005107
    vertex 3015.8483866630395 186.20553772662254 17.350000000005636
  endloop
endfacet
facet normal -3.5236519584500186e-13 -2.2857532859930182e-17 -1.0
  outer loop
    vertex 3009.848386663039 217.20553772662262 17.35000000000775
    vertex 3015.8483866630395 193.20553772662265 17.350000000005636
    vertex 3009.848386663039 193.20553772662265 17.35000000000775
  endloop
endfacet
facet normal -3.5236519584500186e-13 -2.2857532859930182e-17 -1.0
  outer loop
    vertex 2994.5483866630393 225.9281240909453 17.350000000013136
    vertex 3009.848386663039 217.20553772662262 17.35000000000775
    vertex 2999.3483866630395 217.20553772662262 17.350000000011452
  endloop
endfacet
facet normal -3.5236519584500186e-13 -2.2857532859930182e-17 -1.0
  outer loop
    vertex 2994.5483866630393 225.9281240909453 17.350000000013136
    vertex 2999.3483866630395 217.20553772662262 17.350000000011452
    vertex 2994.5483866630393 176.71562409094528 17.350000000013143
  endloop
endfacet
facet normal -3.5236519584500186e-13 -2.2857532859930182e-17 -1.0
  outer loop
    vertex 2994.5483866630393 225.9281240909453 17.350000000013136
    vertex 2994.5483866630393 176.71562409094528 17.350000000013143
    vertex 2994.5483866630393 182.2718740909453 17.350000000013143
  endloop
endfacet
facet normal -3.5236519584500186e-13 -2.2857532859930182e-17 -1.0
  outer loop
    vertex 2994.5483866630393 225.9281240909453 17.350000000013136
    vertex 2994.5483866630393 182.2718740909453 17.350000000013143
    vertex 2994.5483866630393 220.37187409094528 17.350000000013136
  endloop
endfacet
facet normal -3.5236519584500186e-13 -2.2857532859930182e-17 -1.0
  outer loop
    vertex 3038.2046366630393 182.2718740909453 17.349999999997756
    vertex 3033.848386663039 186.20553772662254 17.34999999999929
    vertex 3038.2046366630393 220.37187409094528 17.349999999997756
  endloop
endfacet
facet normal -3.5236519584500186e-13 -2.2857532859930182e-17 -1.0
  outer loop
    vertex 3033.848386663039 186.20553772662254 17.34999999999929
    vertex 3038.2046366630393 182.2718740909453 17.349999999997756
    vertex 3032.648386663039 182.2718740909453 17.349999999999714
  endloop
endfacet
facet normal -3.5236519584500186e-13 -2.2857532859930182e-17 -1.0
  outer loop
    vertex 3033.848386663039 186.20553772662254 17.34999999999929
    vertex 3032.648386663039 182.2718740909453 17.349999999999714
    vertex 3027.848386663039 186.20553772662254 17.350000000001405
  endloop
endfacet
facet normal -3.526068326209497e-13 0.0 -1.0
  outer loop
    vertex 3032.6483866630147 176.71562409094528 -47.5000000000003
    vertex 3038.2046366630148 182.2718740909453 -47.500000000002245
    vertex 3038.2046366630148 176.71562409094528 -47.500000000002245
  endloop
endfacet
facet normal -3.526068326209497e-13 0.0 -1.0
  outer loop
    vertex 3038.2046366630148 182.2718740909453 -47.500000000002245
    vertex 3032.6483866630147 176.71562409094528 -47.5000000000003
    vertex 3032.6483866630147 182.2718740909453 -47.5000000000003
  endloop
endfacet
facet normal -1.0 0.0 3.526068326209497e-13
  outer loop
    vertex 3032.648386663039 182.2718740909453 17.349999999999714
    vertex 3032.6483866630147 176.71562409094528 -47.5000000000003
    vertex 3032.648386663039 176.71562409094528 17.349999999999714
  endloop
endfacet
facet normal -1.0 0.0 3.526068326209497e-13
  outer loop
    vertex 3032.6483866630147 176.71562409094528 -47.5000000000003
    vertex 3032.648386663039 182.2718740909453 17.349999999999714
    vertex 3032.6483866630147 182.2718740909453 -47.5000000000003
  endloop
endfacet
facet normal 0.0 1.0 0.0
  outer loop
    vertex 3038.2046366630393 182.2718740909453 17.349999999997756
    vertex 3032.6483866630147 182.2718740909453 -47.5000000000003
    vertex 3032.648386663039 182.2718740909453 17.349999999999714
  endloop
endfacet
facet normal 0.0 1.0 0.0
  outer loop
    vertex 3032.6483866630147 182.2718740909453 -47.5000000000003
    vertex 3038.2046366630393 182.2718740909453 17.349999999997756
    vertex 3038.2046366630148 182.2718740909453 -47.500000000002245
  endloop
endfacet
facet normal -3.526068326209497e-13 0.0 -1.0
  outer loop
    vertex 2987.4046366630155 220.37187409094528 -47.499999999984325
    vertex 2994.548386663015 225.9281240909453 -47.49999999998684
    vertex 2994.548386663015 220.37187409094528 -47.49999999998684
  endloop
endfacet
facet normal -3.526068326209497e-13 0.0 -1.0
  outer loop
    vertex 2994.548386663015 225.9281240909453 -47.49999999998684
    vertex 2987.4046366630155 220.37187409094528 -47.499999999984325
    vertex 2987.4046366630155 225.9281240909453 -47.499999999984325
  endloop
endfacet
facet normal 1.0 0.0 -3.526068326209497e-13
  outer loop
    vertex 2994.548386663015 225.9281240909453 -47.49999999998684
    vertex 2994.5483866630393 220.37187409094528 17.350000000013136
    vertex 2994.548386663015 220.37187409094528 -47.49999999998684
  endloop
endfacet
facet normal 1.0 0.0 -3.526068326209497e-13
  outer loop
    vertex 2994.5483866630393 220.37187409094528 17.350000000013136
    vertex 2994.548386663015 225.9281240909453 -47.49999999998684
    vertex 2994.5483866630393 225.9281240909453 17.350000000013136
  endloop
endfacet
facet normal -0.0 -1.0 0.0
  outer loop
    vertex 2987.4046366630155 220.37187409094528 -47.499999999984325
    vertex 2994.5483866630393 220.37187409094528 17.350000000013136
    vertex 2987.404636663039 220.37187409094528 17.350000000015655
  endloop
endfacet
facet normal -0.0 -1.0 0.0
  outer loop
    vertex 2994.5483866630393 220.37187409094528 17.350000000013136
    vertex 2987.4046366630155 220.37187409094528 -47.499999999984325
    vertex 2994.548386663015 220.37187409094528 -47.49999999998684
  endloop
endfacet
facet normal -3.526068326209497e-13 0.0 -1.0
  outer loop
    vertex 3032.6483866630156 220.37187409094528 -47.5000000000182
    vertex 3038.2046366630157 225.9281240909453 -47.50000000002015
    vertex 3038.2046366630157 220.37187409094528 -47.50000000002015
  endloop
endfacet
facet normal -3.526068326209497e-13 0.0 -1.0
  outer loop
    vertex 3038.2046366630157 225.9281240909453 -47.50000000002015
    vertex 3032.6483866630156 220.37187409094528 -47.5000000000182
    vertex 3032.6483866630156 225.9281240909453 -47.5000000000182
  endloop
endfacet
facet normal -0.0 -1.0 0.0
  outer loop
    vertex 3032.6483866630156 220.37187409094528 -47.5000000000182
    vertex 3038.2046366630393 220.37187409094528 17.349999999997756
    vertex 3032.648386663039 220.37187409094528 17.349999999999714
  endloop
endfacet
facet normal -0.0 -1.0 0.0
  outer loop
    vertex 3038.2046366630393 220.37187409094528 17.349999999997756
    vertex 3032.6483866630156 220.37187409094528 -47.5000000000182
    vertex 3038.2046366630157 220.37187409094528 -47.50000000002015
  endloop
endfacet
facet normal -1.0 0.0 3.526068326209497e-13
  outer loop
    vertex 3032.648386663039 225.9281240909453 17.349999999999714
    vertex 3032.6483866630156 220.37187409094528 -47.5000000000182
    vertex 3032.648386663039 220.37187409094528 17.349999999999714
  endloop
endfacet
facet normal -1.0 0.0 3.526068326209497e-13
  outer loop
    vertex 3032.6483866630156 220.37187409094528 -47.5000000000182
    vertex 3032.648386663039 225.9281240909453 17.349999999999714
    vertex 3032.6483866630156 225.9281240909453 -47.5000000000182
  endloop
endfacet
endsolid box draft 1
