solid box draft 1
facet normal 4.1520649352561837e-13 -5.938107148852266e-14 1.0
  outer loop
    vertex 2773.848386663042 187.2055377266226 76.3250000000014
    vertex 2763.348386663042 198.31803772662258 76.32500000000643
    vertex 2763.348386663042 187.2055377266226 76.3250000000051
  endloop
endfacet
facet normal 4.1520649352561837e-13 -5.938107148852266e-14 1.0
  outer loop
    vertex 2763.348386663042 198.31803772662258 76.32500000000643
    vertex 2773.848386663042 187.2055377266226 76.3250000000014
    vertex 2773.848386663042 198.31803772662258 76.3250000000014
  endloop
endfacet
facet normal 3.5216274341109965e-13 -1.9721522630525278e-31 1.0
  outer loop
    vertex 2734.1983866630476 175.92187409094598 104.90000000001537
    vertex 2737.3733866630505 179.096874090946 104.89999999999814
    vertex 2734.1983866630476 226.72187409094602 104.90000000001537
  endloop
endfacet
facet normal 3.5216274341109965e-13 -1.9721522630525278e-31 1.0
  outer loop
    vertex 2737.3733866630505 179.096874090946 104.89999999999814
    vertex 2734.1983866630476 175.92187409094598 104.90000000001537
    vertex 2784.9983866630478 175.92187409094598 104.89999999999749
  endloop
endfacet
facet normal 3.5216274341109965e-13 -1.9721522630525278e-31 1.0
  outer loop
    vertex 2737.3733866630505 179.096874090946 104.89999999999814
    vertex 2784.9983866630478 175.92187409094598 104.89999999999749
    vertex 2781.8233866630508 179.096874090946 104.89999999999814
  endloop
endfacet
facet normal 3.5216274341109965e-13 -1.9721522630525278e-31 1.0
  outer loop
    vertex 2781.8233866630508 179.096874090946 104.89999999999814
    vertex 2784.9983866630478 175.92187409094598 104.89999999999749
    vertex 2781.8233866630508 223.546874090946 104.89999999999782
  endloop
endfacet
facet normal 3.5216274341109965e-13 -1.9721522630525278e-31 1.0
  outer loop
    vertex 2734.1983866630476 226.72187409094602 104.90000000001537
    vertex 2737.3733866630505 223.546874090946 104.89999999999814
    vertex 2784.9983866630478 226.72187409094602 104.89999999999749
  endloop
endfacet
facet normal 3.5216274341109965e-13 -1.9721522630525278e-31 1.0
  outer loop
    vertex 2737.3733866630505 223.546874090946 104.89999999999814
    vertex 2734.1983866630476 226.72187409094602 104.90000000001537
    vertex 2737.3733866630505 179.096874090946 104.89999999999814
  endloop
endfacet
facet normal 3.5216274341109965e-13 -1.9721522630525278e-31 1.0
  outer loop
    vertex 2784.9983866630478 226.72187409094602 104.89999999999749
    vertex 2737.3733866630505 223.546874090946 104.89999999999814
    vertex 2781.8233866630508 223.546874090946 104.89999999999782
  endloop
endfacet
facet normal 3.5216274341109965e-13 -1.9721522630525278e-31 1.0
  outer loop
    vertex 2784.9983866630478 226.72187409094602 104.89999999999749
    vertex 2781.8233866630508 223.546874090946 104.89999999999782
    vertex 2784.9983866630478 175.92187409094598 104.89999999999749
  endloop
endfacet
facet normal 0.0 -1.0 0.0
  outer loop
    vertex 2773.848386663042 198.31803772662258 76.3250000000014
    vertex 2763.348386663041 198.31803772662258 73.15000000000641
    vertex 2773.848386663041 198.31803772662258 73.1500000000014
  endloop
endfacet
facet normal 0.0 -1.0 0.0
  outer loop
    vertex 2763.348386663041 198.31803772662258 73.15000000000641
    vertex 2773.848386663042 198.31803772662258 76.3250000000014
    vertex 2763.348386663042 198.31803772662258 76.32500000000643
  endloop
endfacet
facet normal -1.0 0.0 4.547473508864641e-13
  outer loop
    vertex 2773.848386663042 198.31803772662258 76.3250000000014
    vertex 2773.848386663041 187.2055377266226 73.1500000000014
    vertex 2773.848386663042 187.2055377266226 76.3250000000014
  endloop
endfacet
facet normal -1.0 0.0 4.547473508864641e-13
  outer loop
    vertex 2773.848386663041 187.2055377266226 73.1500000000014
    vertex 2773.848386663042 198.31803772662258 76.3250000000014
    vertex 2773.848386663041 198.31803772662258 73.1500000000014
  endloop
endfacet
facet normal -3.523847880160247e-13 0.0 -1.0
  outer loop
    vertex 2784.998386663041 226.72187409094528 73.14999999999748
    vertex 2734.1983866630408 175.9218740909453 73.15000000001538
    vertex 2734.1983866630408 226.72187409094528 73.15000000001538
  endloop
endfacet
facet normal -3.523847880160247e-13 0.0 -1.0
  outer loop
    vertex 2734.1983866630408 175.9218740909453 73.15000000001538
    vertex 2784.998386663041 226.72187409094528 73.14999999999748
    vertex 2763.348386663041 198.31803772662258 73.15000000000641
  endloop
endfacet
facet normal -3.523847880160247e-13 0.0 -1.0
  outer loop
    vertex 2763.348386663041 198.31803772662258 73.15000000000641
    vertex 2784.998386663041 226.72187409094528 73.14999999999748
    vertex 2773.848386663041 198.31803772662258 73.1500000000014
  endloop
endfacet
facet normal -3.523847880160247e-13 0.0 -1.0
  outer loop
    vertex 2773.848386663041 198.31803772662258 73.1500000000014
    vertex 2784.998386663041 226.72187409094528 73.14999999999748
    vertex 2773.848386663041 187.2055377266226 73.1500000000014
  endloop
endfacet
facet normal -3.523847880160247e-13 0.0 -1.0
  outer loop
    vertex 2734.1983866630408 175.9218740909453 73.15000000001538
    vertex 2763.348386663041 187.2055377266226 73.1500000000051
    vertex 2784.998386663041 175.9218740909453 73.14999999999748
  endloop
endfacet
facet normal -3.523847880160247e-13 0.0 -1.0
  outer loop
    vertex 2763.348386663041 187.2055377266226 73.1500000000051
    vertex 2734.1983866630408 175.9218740909453 73.15000000001538
    vertex 2763.348386663041 198.31803772662258 73.15000000000641
  endloop
endfacet
facet normal -3.523847880160247e-13 0.0 -1.0
  outer loop
    vertex 2784.998386663041 175.9218740909453 73.14999999999748
    vertex 2763.348386663041 187.2055377266226 73.1500000000051
    vertex 2773.848386663041 187.2055377266226 73.1500000000014
  endloop
endfacet
facet normal -3.523847880160247e-13 0.0 -1.0
  outer loop
    vertex 2784.998386663041 175.9218740909453 73.14999999999748
    vertex 2773.848386663041 187.2055377266226 73.1500000000014
    vertex 2784.998386663041 226.72187409094528 73.14999999999748
  endloop
endfacet
facet normal 7.759472522025436e-27 -1.0 2.20268248085631e-14
  outer loop
    vertex 2784.9983866630478 175.92187409094598 104.89999999999749
    vertex 2734.1983866630408 175.9218740909453 73.15000000001538
    vertex 2784.998386663041 175.9218740909453 73.14999999999748
  endloop
endfacet
facet normal 7.759472522025436e-27 -1.0 2.20268248085631e-14
  outer loop
    vertex 2734.1983866630408 175.9218740909453 73.15000000001538
    vertex 2784.9983866630478 175.92187409094598 104.89999999999749
    vertex 2734.1983866630476 175.92187409094598 104.90000000001537
  endloop
endfacet
facet normal 0.0 1.0 -2.7533531010703882e-14
  outer loop
    vertex 2737.3733866630505 179.096874090946 104.89999999999814
    vertex 2781.8233866630467 179.09687409094528 79.49999999999814
    vertex 2737.373386663047 179.09687409094528 79.49999999999814
  endloop
endfacet
facet normal 0.0 1.0 -2.7533531010703882e-14
  outer loop
    vertex 2781.8233866630467 179.09687409094528 79.49999999999814
    vertex 2737.3733866630505 179.096874090946 104.89999999999814
    vertex 2781.8233866630508 179.096874090946 104.89999999999814
  endloop
endfacet
facet normal 1.0 5.400676990441085e-26 -4.547473508864641e-13
  outer loop
    vertex 2763.348386663041 198.31803772662258 73.15000000000641
    vertex 2763.348386663042 187.2055377266226 76.3250000000051
    vertex 2763.348386663041 187.2055377266226 73.1500000000051
  endloop
endfacet
facet normal 1.0 5.400676990441085e-26 -4.547473508864641e-13
  outer loop
    vertex 2763.348386663042 187.2055377266226 76.3250000000051
    vertex 2763.348386663041 198.31803772662258 73.15000000000641
    vertex 2763.348386663042 198.31803772662258 76.32500000000643
  endloop
endfacet
facet normal 1.0 0.0 -1.5631940186722204e-13
  outer loop
    vertex 2737.373386663047 223.5468740909453 79.49999999999814
    vertex 2737.3733866630505 179.096874090946 104.89999999999814
    vertex 2737.373386663047 179.09687409094528 79.49999999999814
  endloop
endfacet
facet normal 1.0 0.0 -1.5631940186722204e-13
  outer loop
    vertex 2737.3733866630505 179.096874090946 104.89999999999814
    vertex 2737.373386663047 223.5468740909453 79.49999999999814
    vertex 2737.3733866630505 223.546874090946 104.89999999999814
  endloop
endfacet
facet normal -8.009778087252064e-27 1.0 -2.2737367544323204e-14
  outer loop
    vertex 2734.1983866630408 226.72187409094528 73.15000000001538
    vertex 2784.9983866630478 226.72187409094602 104.89999999999749
    vertex 2784.998386663041 226.72187409094528 73.14999999999748
  endloop
endfacet
facet normal -8.009778087252064e-27 1.0 -2.2737367544323204e-14
  outer loop
    vertex 2784.9983866630478 226.72187409094602 104.89999999999749
    vertex 2734.1983866630408 226.72187409094528 73.15000000001538
    vertex 2734.1983866630476 226.72187409094602 104.90000000001537
  endloop
endfacet
facet normal -1.0 0.0 2.1600499167107047e-13
  outer loop
    vertex 2734.1983866630476 175.92187409094598 104.90000000001537
    vertex 2734.1983866630408 226.72187409094528 73.15000000001538
    vertex 2734.1983866630408 175.9218740909453 73.15000000001538
  endloop
endfacet
facet normal -1.0 0.0 2.1600499167107047e-13
  outer loop
    vertex 2734.1983866630408 226.72187409094528 73.15000000001538
    vertex 2734.1983866630476 175.92187409094598 104.90000000001537
    vertex 2734.1983866630476 226.72187409094602 104.90000000001537
  endloop
endfacet
facet normal -1.0 1.1107161545511839e-27 1.5631940186722204e-13
  outer loop
    vertex 2781.8233866630508 179.096874090946 104.89999999999814
    vertex 2781.8233866630467 223.5468740909453 79.49999999999783
    vertex 2781.8233866630467 179.09687409094528 79.49999999999814
  endloop
endfacet
facet normal -1.0 1.1107161545511839e-27 1.5631940186722204e-13
  outer loop
    vertex 2781.8233866630467 223.5468740909453 79.49999999999783
    vertex 2781.8233866630508 179.096874090946 104.89999999999814
    vertex 2781.8233866630508 223.546874090946 104.89999999999782
  endloop
endfacet
facet normal 3.552713678800501e-15 3.552713678800501e-15 1.0
  outer loop
    vertex 2781.8233866630467 179.09687409094528 79.49999999999814
    vertex 2737.373386663047 223.5468740909453 79.49999999999814
    vertex 2737.373386663047 179.09687409094528 79.49999999999814
  endloop
endfacet
facet normal 3.552713678800501e-15 3.552713678800501e-15 1.0
  outer loop
    vertex 2737.373386663047 223.5468740909453 79.49999999999814
    vertex 2781.8233866630467 179.09687409094528 79.49999999999814
    vertex 2781.8233866630467 223.5468740909453 79.49999999999783
  endloop
endfacet
facet normal 1.0 -6.887662211849334e-43 -2.160049916710704e-13
  outer loop
    vertex 2784.998386663041 226.72187409094528 73.14999999999748
    vertex 2784.9983866630478 175.92187409094598 104.89999999999749
    vertex 2784.998386663041 175.9218740909453 73.14999999999748
  endloop
endfacet
facet normal 1.0 -6.887662211849334e-43 -2.160049916710704e-13
  outer loop
    vertex 2784.9983866630478 175.92187409094598 104.89999999999749
    vertex 2784.998386663041 226.72187409094528 73.14999999999748
    vertex 2784.9983866630478 226.72187409094602 104.89999999999749
  endloop
endfacet
facet normal 2.0194839173657902e-28 -1.0 2.842170943040401e-14
  outer loop
    vertex 2781.8233866630508 223.546874090946 104.89999999999782
    vertex 2737.373386663047 223.5468740909453 79.49999999999814
    vertex 2781.8233866630467 223.5468740909453 79.49999999999783
  endloop
endfacet
facet normal 2.0194839173657902e-28 -1.0 2.842170943040401e-14
  outer loop
    vertex 2737.373386663047 223.5468740909453 79.49999999999814
    vertex 2781.8233866630508 223.546874090946 104.89999999999782
    vertex 2737.3733866630505 223.546874090946 104.89999999999814
  endloop
endfacet
facet normal 0.0 1.0 0.0
  outer loop
    vertex 2763.348386663041 187.2055377266226 73.1500000000051
    vertex 2773.848386663042 187.2055377266226 76.3250000000014
    vertex 2773.848386663041 187.2055377266226 73.1500000000014
  endloop
endfacet
facet normal 0.0 1.0 0.0
  outer loop
    vertex 2773.848386663042 187.2055377266226 76.3250000000014
    vertex 2763.348386663041 187.2055377266226 73.1500000000051
    vertex 2763.348386663042 187.2055377266226 76.3250000000051
  endloop
endfacet
endsolid box draft 1
