solid box draft 1
facet normal 1.3899203214067355e-14 -1.0 -4.897867778180774e-27
  outer loop
    vertex 2868.834173694794 249.84695487670984 2.8199664825478976e-13
    vertex 2863.2779236948177 249.84695487670996 64.85000000000215
    vertex 2863.277923694794 249.84695487670996 2.1544543926665936e-12
  endloop
endfacet
facet normal 1.3899203214067355e-14 -1.0 -4.897867778180774e-27
  outer loop
    vertex 2825.1779236947937 249.84695487670942 1.566773377703612e-11
    vertex 2819.6216736948195 249.84695487670913 69.85000000001757
    vertex 2819.6216736947936 249.84695487670913 1.758531098516869e-11
  endloop
endfacet
facet normal 1.3899203214067355e-14 -1.0 -4.897867778180774e-27
  outer loop
    vertex 2819.6216736948195 249.84695487670913 69.85000000001757
    vertex 2825.1779236947937 249.84695487670942 1.566773377703612e-11
    vertex 2825.1779236948178 249.84695487670942 64.85000000001565
  endloop
endfacet
facet normal 1.3899203214067355e-14 -1.0 -4.897867778180774e-27
  outer loop
    vertex 2819.6216736948195 249.84695487670913 69.85000000001757
    vertex 2825.1779236948178 249.84695487670942 64.85000000001565
    vertex 2868.834173694819 249.84695487670984 69.85000000000028
  endloop
endfacet
facet normal 1.3899203214067355e-14 -1.0 -4.897867778180774e-27
  outer loop
    vertex 2868.834173694819 249.84695487670984 69.85000000000028
    vertex 2825.1779236948178 249.84695487670942 64.85000000001565
    vertex 2863.2779236948177 249.84695487670996 64.85000000000215
  endloop
endfacet
facet normal 1.3899203214067355e-14 -1.0 -4.897867778180774e-27
  outer loop
    vertex 2868.834173694819 249.84695487670984 69.85000000000028
    vertex 2863.2779236948177 249.84695487670996 64.85000000000215
    vertex 2868.834173694794 249.84695487670984 2.8199664825478976e-13
  endloop
endfacet
facet normal 1.0 1.3899203214067355e-14 -3.523847880160247e-13
  outer loop
    vertex 2868.834173694819 249.84695487670984 69.85000000000028
    vertex 2868.8341736948178 256.51445487670986 64.85000000000028
    vertex 2868.834173694818 326.68195487671 69.85000000000028
  endloop
endfacet
facet normal 1.0 1.3899203214067355e-14 -3.523847880160247e-13
  outer loop
    vertex 2868.8341736948178 256.51445487670986 64.85000000000028
    vertex 2868.834173694819 249.84695487670984 69.85000000000028
    vertex 2868.834173694794 249.84695487670984 2.8199664825478976e-13
  endloop
endfacet
facet normal 1.0 1.3899203214067355e-14 -3.523847880160247e-13
  outer loop
    vertex 2868.8341736948178 256.51445487670986 64.85000000000028
    vertex 2868.834173694794 249.84695487670984 2.8199664825478976e-13
    vertex 2868.8341736947928 256.51445487670986 2.8199664825478976e-13
  endloop
endfacet
facet normal 1.0 1.3899203214067355e-14 -3.523847880160247e-13
  outer loop
    vertex 2868.834173694818 326.68195487671 69.85000000000028
    vertex 2868.834173694814 320.01445487671003 64.85000000000028
    vertex 2868.8341736947937 326.68195487671 2.9327651418498134e-13
  endloop
endfacet
facet normal 1.0 1.3899203214067355e-14 -3.523847880160247e-13
  outer loop
    vertex 2868.834173694814 320.01445487671003 64.85000000000028
    vertex 2868.834173694818 326.68195487671 69.85000000000028
    vertex 2868.8341736948178 256.51445487670986 64.85000000000028
  endloop
endfacet
facet normal 1.0 1.3899203214067355e-14 -3.523847880160247e-13
  outer loop
    vertex 2868.8341736947937 326.68195487671 2.9327651418498134e-13
    vertex 2868.834173694814 320.01445487671003 64.85000000000028
    vertex 2868.8341736947914 320.01445487671003 2.9327651418498134e-13
  endloop
endfacet
facet normal -1.3899203214067355e-14 1.0 4.897867778180774e-27
  outer loop
    vertex 2819.621673694818 326.6819548767091 69.85000000001757
    vertex 2825.177923694793 326.68195487670937 1.5645174045175734e-11
    vertex 2819.6216736947936 326.6819548767091 1.7562751253308304e-11
  endloop
endfacet
facet normal -1.3899203214067355e-14 1.0 4.897867778180774e-27
  outer loop
    vertex 2825.177923694793 326.68195487670937 1.5645174045175734e-11
    vertex 2819.621673694818 326.6819548767091 69.85000000001757
    vertex 2825.1779236948164 326.68195487670937 64.85000000001565
  endloop
endfacet
facet normal -1.3899203214067355e-14 1.0 4.897867778180774e-27
  outer loop
    vertex 2825.1779236948164 326.68195487670937 64.85000000001565
    vertex 2819.621673694818 326.6819548767091 69.85000000001757
    vertex 2868.834173694818 326.68195487671 69.85000000000028
  endloop
endfacet
facet normal -1.3899203214067355e-14 1.0 4.897867778180774e-27
  outer loop
    vertex 2825.1779236948164 326.68195487670937 64.85000000001565
    vertex 2868.834173694818 326.68195487671 69.85000000000028
    vertex 2863.2779236948163 326.6819548767099 64.85000000000215
  endloop
endfacet
facet normal -1.3899203214067355e-14 1.0 4.897867778180774e-27
  outer loop
    vertex 2863.2779236948163 326.6819548767099 64.85000000000215
    vertex 2868.834173694818 326.68195487671 69.85000000000028
    vertex 2863.2779236947936 326.6819548767099 2.165734258596785e-12
  endloop
endfacet
facet normal -1.3899203214067355e-14 1.0 4.897867778180774e-27
  outer loop
    vertex 2863.2779236947936 326.6819548767099 2.165734258596785e-12
    vertex 2868.834173694818 326.68195487671 69.85000000000028
    vertex 2868.8341736947937 326.68195487671 2.9327651418498134e-13
  endloop
endfacet
facet normal -1.0 -1.3899203214067355e-14 3.523847880160247e-13
  outer loop
    vertex 2819.621673694818 326.6819548767091 69.85000000001757
    vertex 2819.621673694814 320.0144548767091 64.85000000001757
    vertex 2819.6216736948195 249.84695487670913 69.85000000001757
  endloop
endfacet
facet normal -1.0 -1.3899203214067355e-14 3.523847880160247e-13
  outer loop
    vertex 2819.621673694814 320.0144548767091 64.85000000001757
    vertex 2819.621673694818 326.6819548767091 69.85000000001757
    vertex 2819.6216736947936 326.6819548767091 1.7562751253308304e-11
  endloop
endfacet
facet normal -1.0 -1.3899203214067355e-14 3.523847880160247e-13
  outer loop
    vertex 2819.621673694814 320.0144548767091 64.85000000001757
    vertex 2819.6216736947936 326.6819548767091 1.7562751253308304e-11
    vertex 2819.621673694791 320.0144548767091 1.7562751253308304e-11
  endloop
endfacet
facet normal -1.0 -1.3899203214067355e-14 3.523847880160247e-13
  outer loop
    vertex 2819.6216736948195 249.84695487670913 69.85000000001757
    vertex 2819.6216736948177 256.5144548767091 64.85000000001757
    vertex 2819.6216736947936 249.84695487670913 1.758531098516869e-11
  endloop
endfacet
facet normal -1.0 -1.3899203214067355e-14 3.523847880160247e-13
  outer loop
    vertex 2819.6216736948177 256.5144548767091 64.85000000001757
    vertex 2819.6216736948195 249.84695487670913 69.85000000001757
    vertex 2819.621673694814 320.0144548767091 64.85000000001757
  endloop
endfacet
facet normal -1.0 -1.3899203214067355e-14 3.523847880160247e-13
  outer loop
    vertex 2819.6216736947936 249.84695487670913 1.758531098516869e-11
    vertex 2819.6216736948177 256.5144548767091 64.85000000001757
    vertex 2819.621673694792 256.5144548767091 1.758531098516869e-11
  endloop
endfacet
facet normal 3.523847880160246e-13 4.638016669834797e-27 1.0
  outer loop
    vertex 2868.834173694819 249.84695487670984 69.85000000000028
    vertex 2845.4605493971194 283.6642331290078 69.85000000000846
    vertex 2844.2279236948184 283.50195487670953 69.8500000000089
  endloop
endfacet
facet normal 3.523847880160246e-13 4.638016669834797e-27 1.0
  outer loop
    vertex 2845.4605493971194 283.6642331290078 69.85000000000846
    vertex 2868.834173694819 249.84695487670984 69.85000000000028
    vertex 2846.6091736948188 284.1400088911861 69.85000000000807
  endloop
endfacet
facet normal 3.523847880160246e-13 4.638016669834797e-27 1.0
  outer loop
    vertex 2846.6091736948188 284.1400088911861 69.85000000000807
    vertex 2868.834173694819 249.84695487670984 69.85000000000028
    vertex 2847.5955197402195 284.8968588313086 69.85000000000771
  endloop
endfacet
facet normal 3.523847880160246e-13 4.638016669834797e-27 1.0
  outer loop
    vertex 2847.5955197402195 284.8968588313086 69.85000000000771
    vertex 2868.834173694819 249.84695487670984 69.85000000000028
    vertex 2848.352369680342 285.8832048767095 69.85000000000746
  endloop
endfacet
facet normal 3.523847880160246e-13 4.638016669834797e-27 1.0
  outer loop
    vertex 2848.352369680342 285.8832048767095 69.85000000000746
    vertex 2868.834173694819 249.84695487670984 69.85000000000028
    vertex 2868.834173694818 326.68195487671 69.85000000000028
  endloop
endfacet
facet normal 3.523847880160246e-13 4.638016669834797e-27 1.0
  outer loop
    vertex 2848.352369680342 285.8832048767095 69.85000000000746
    vertex 2868.834173694818 326.68195487671 69.85000000000028
    vertex 2848.82814544252 287.0318291744087 69.85000000000728
  endloop
endfacet
facet normal 3.523847880160246e-13 4.638016669834797e-27 1.0
  outer loop
    vertex 2848.82814544252 287.0318291744087 69.85000000000728
    vertex 2868.834173694818 326.68195487671 69.85000000000028
    vertex 2848.990423694818 288.26445487670946 69.85000000000723
  endloop
endfacet
facet normal 3.523847880160246e-13 4.638016669834797e-27 1.0
  outer loop
    vertex 2848.990423694818 288.26445487670946 69.85000000000723
    vertex 2868.834173694818 326.68195487671 69.85000000000028
    vertex 2848.82814544252 289.49708057901023 69.85000000000728
  endloop
endfacet
facet normal 3.523847880160246e-13 4.638016669834797e-27 1.0
  outer loop
    vertex 2848.82814544252 289.49708057901023 69.85000000000728
    vertex 2868.834173694818 326.68195487671 69.85000000000028
    vertex 2848.352369680342 290.64570487670954 69.85000000000746
  endloop
endfacet
facet normal 3.523847880160246e-13 4.638016669834797e-27 1.0
  outer loop
    vertex 2848.352369680342 290.64570487670954 69.85000000000746
    vertex 2868.834173694818 326.68195487671 69.85000000000028
    vertex 2847.595519740219 291.6320509221104 69.85000000000771
  endloop
endfacet
facet normal 3.523847880160246e-13 4.638016669834797e-27 1.0
  outer loop
    vertex 2847.595519740219 291.6320509221104 69.85000000000771
    vertex 2868.834173694818 326.68195487671 69.85000000000028
    vertex 2846.6091736948183 292.38890086223284 69.85000000000807
  endloop
endfacet
facet normal 3.523847880160246e-13 4.638016669834797e-27 1.0
  outer loop
    vertex 2846.6091736948183 292.38890086223284 69.85000000000807
    vertex 2868.834173694818 326.68195487671 69.85000000000028
    vertex 2845.460549397119 292.8646766244112 69.85000000000846
  endloop
endfacet
facet normal 3.523847880160246e-13 4.638016669834797e-27 1.0
  outer loop
    vertex 2845.460549397119 292.8646766244112 69.85000000000846
    vertex 2868.834173694818 326.68195487671 69.85000000000028
    vertex 2844.2279236948184 293.0269548767095 69.8500000000089
  endloop
endfacet
facet normal 3.523847880160246e-13 4.638016669834797e-27 1.0
  outer loop
    vertex 2844.2279236948184 293.0269548767095 69.8500000000089
    vertex 2868.834173694818 326.68195487671 69.85000000000028
    vertex 2819.621673694818 326.6819548767091 69.85000000001757
  endloop
endfacet
facet normal 3.523847880160246e-13 4.638016669834797e-27 1.0
  outer loop
    vertex 2819.6216736948195 249.84695487670913 69.85000000001757
    vertex 2840.1034777092946 285.8832048767095 69.85000000001035
    vertex 2819.621673694818 326.6819548767091 69.85000000001757
  endloop
endfacet
facet normal 3.523847880160246e-13 4.638016669834797e-27 1.0
  outer loop
    vertex 2840.1034777092946 285.8832048767095 69.85000000001035
    vertex 2819.6216736948195 249.84695487670913 69.85000000001757
    vertex 2840.8603276494177 284.8968588313086 69.8500000000101
  endloop
endfacet
facet normal 3.523847880160246e-13 4.638016669834797e-27 1.0
  outer loop
    vertex 2840.8603276494177 284.8968588313086 69.8500000000101
    vertex 2819.6216736948195 249.84695487670913 69.85000000001757
    vertex 2868.834173694819 249.84695487670984 69.85000000000028
  endloop
endfacet
facet normal 3.523847880160246e-13 4.638016669834797e-27 1.0
  outer loop
    vertex 2840.8603276494177 284.8968588313086 69.8500000000101
    vertex 2868.834173694819 249.84695487670984 69.85000000000028
    vertex 2841.8466736948185 284.14000889118614 69.85000000000974
  endloop
endfacet
facet normal 3.523847880160246e-13 4.638016669834797e-27 1.0
  outer loop
    vertex 2841.8466736948185 284.14000889118614 69.85000000000974
    vertex 2868.834173694819 249.84695487670984 69.85000000000028
    vertex 2842.995297992518 283.66423312900787 69.85000000000935
  endloop
endfacet
facet normal 3.523847880160246e-13 4.638016669834797e-27 1.0
  outer loop
    vertex 2842.995297992518 283.66423312900787 69.85000000000935
    vertex 2868.834173694819 249.84695487670984 69.85000000000028
    vertex 2844.2279236948184 283.50195487670953 69.8500000000089
  endloop
endfacet
facet normal 3.523847880160246e-13 4.638016669834797e-27 1.0
  outer loop
    vertex 2819.621673694818 326.6819548767091 69.85000000001757
    vertex 2840.1034777092946 285.8832048767095 69.85000000001035
    vertex 2839.6277019471163 287.0318291744087 69.85000000001052
  endloop
endfacet
facet normal 3.523847880160246e-13 4.638016669834797e-27 1.0
  outer loop
    vertex 2819.621673694818 326.6819548767091 69.85000000001757
    vertex 2839.6277019471163 287.0318291744087 69.85000000001052
    vertex 2839.465423694818 288.26445487670946 69.85000000001058
  endloop
endfacet
facet normal 3.523847880160246e-13 4.638016669834797e-27 1.0
  outer loop
    vertex 2819.621673694818 326.6819548767091 69.85000000001757
    vertex 2839.465423694818 288.26445487670946 69.85000000001058
    vertex 2839.6277019471163 289.49708057901023 69.85000000001052
  endloop
endfacet
facet normal 3.523847880160246e-13 4.638016669834797e-27 1.0
  outer loop
    vertex 2819.621673694818 326.6819548767091 69.85000000001757
    vertex 2839.6277019471163 289.49708057901023 69.85000000001052
    vertex 2840.1034777092946 290.6457048767095 69.85000000001035
  endloop
endfacet
facet normal 3.523847880160246e-13 4.638016669834797e-27 1.0
  outer loop
    vertex 2819.621673694818 326.6819548767091 69.85000000001757
    vertex 2840.1034777092946 290.6457048767095 69.85000000001035
    vertex 2840.8603276494173 291.6320509221104 69.8500000000101
  endloop
endfacet
facet normal 3.523847880160246e-13 4.638016669834797e-27 1.0
  outer loop
    vertex 2819.621673694818 326.6819548767091 69.85000000001757
    vertex 2840.8603276494173 291.6320509221104 69.8500000000101
    vertex 2841.846673694818 292.3889008622329 69.85000000000974
  endloop
endfacet
facet normal 3.523847880160246e-13 4.638016669834797e-27 1.0
  outer loop
    vertex 2819.621673694818 326.6819548767091 69.85000000001757
    vertex 2841.846673694818 292.3889008622329 69.85000000000974
    vertex 2842.9952979925174 292.8646766244112 69.85000000000935
  endloop
endfacet
facet normal 3.523847880160246e-13 4.638016669834797e-27 1.0
  outer loop
    vertex 2819.621673694818 326.6819548767091 69.85000000001757
    vertex 2842.9952979925174 292.8646766244112 69.85000000000935
    vertex 2844.2279236948184 293.0269548767095 69.8500000000089
  endloop
endfacet
facet normal -3.523847880160247e-13 2.2204460492502818e-16 -1.0
  outer loop
    vertex 2819.621673694792 256.5144548767091 1.758531098516869e-11
    vertex 2825.1779236947937 249.84695487670942 1.566773377703612e-11
    vertex 2819.6216736947936 249.84695487670913 1.758531098516869e-11
  endloop
endfacet
facet normal -3.523847880160247e-13 2.2204460492502818e-16 -1.0
  outer loop
    vertex 2825.1779236947937 249.84695487670942 1.566773377703612e-11
    vertex 2819.621673694792 256.5144548767091 1.758531098516869e-11
    vertex 2825.1779236947923 256.5144548767094 1.566773377703612e-11
  endloop
endfacet
facet normal -1.4210854715201925e-14 1.0 2.2204460493003584e-16
  outer loop
    vertex 2819.6216736948177 256.5144548767091 64.85000000001757
    vertex 2825.1779236947923 256.5144548767094 1.566773377703612e-11
    vertex 2819.621673694792 256.5144548767091 1.758531098516869e-11
  endloop
endfacet
facet normal -1.4210854715201925e-14 1.0 2.2204460493003584e-16
  outer loop
    vertex 2825.1779236947923 256.5144548767094 1.566773377703612e-11
    vertex 2819.6216736948177 256.5144548767091 64.85000000001757
    vertex 2825.1779236948178 256.5144548767094 64.85000000001565
  endloop
endfacet
facet normal 1.0 1.5619445923376034e-28 -3.523847880160247e-13
  outer loop
    vertex 2825.1779236947937 249.84695487670942 1.566773377703612e-11
    vertex 2825.1779236948178 256.5144548767094 64.85000000001565
    vertex 2825.1779236948178 249.84695487670942 64.85000000001565
  endloop
endfacet
facet normal 1.0 1.5619445923376034e-28 -3.523847880160247e-13
  outer loop
    vertex 2825.1779236948178 256.5144548767094 64.85000000001565
    vertex 2825.1779236947937 249.84695487670942 1.566773377703612e-11
    vertex 2825.1779236947923 256.5144548767094 1.566773377703612e-11
  endloop
endfacet
facet normal -3.5216274341109965e-13 6.31088724176774e-30 -1.0
  outer loop
    vertex 2819.6216736947936 326.6819548767091 1.7562751253308304e-11
    vertex 2825.177923694791 320.0144548767094 1.5645174045175734e-11
    vertex 2819.621673694791 320.0144548767091 1.7562751253308304e-11
  endloop
endfacet
facet normal -3.5216274341109965e-13 6.31088724176774e-30 -1.0
  outer loop
    vertex 2825.177923694791 320.0144548767094 1.5645174045175734e-11
    vertex 2819.6216736947936 326.6819548767091 1.7562751253308304e-11
    vertex 2825.177923694793 326.68195487670937 1.5645174045175734e-11
  endloop
endfacet
facet normal 1.0 0.0 -3.5216274341109965e-13
  outer loop
    vertex 2825.177923694791 320.0144548767094 1.5645174045175734e-11
    vertex 2825.1779236948164 326.68195487670937 64.85000000001565
    vertex 2825.177923694814 320.0144548767094 64.85000000001565
  endloop
endfacet
facet normal 1.0 0.0 -3.5216274341109965e-13
  outer loop
    vertex 2825.1779236948164 326.68195487670937 64.85000000001565
    vertex 2825.177923694791 320.0144548767094 1.5645174045175734e-11
    vertex 2825.177923694793 326.68195487670937 1.5645174045175734e-11
  endloop
endfacet
facet normal 1.4210854715202004e-14 -1.0 -5.010844469963867e-27
  outer loop
    vertex 2825.177923694791 320.0144548767094 1.5645174045175734e-11
    vertex 2819.621673694814 320.0144548767091 64.85000000001757
    vertex 2819.621673694791 320.0144548767091 1.7562751253308304e-11
  endloop
endfacet
facet normal 1.4210854715202004e-14 -1.0 -5.010844469963867e-27
  outer loop
    vertex 2819.621673694814 320.0144548767091 64.85000000001757
    vertex 2825.177923694791 320.0144548767094 1.5645174045175734e-11
    vertex 2825.177923694814 320.0144548767094 64.85000000001565
  endloop
endfacet
facet normal -3.524043801870475e-13 1.4046617338071786e-17 -1.0
  outer loop
    vertex 2825.1779236948178 256.5144548767094 64.85000000001565
    vertex 2863.2779236948177 249.84695487670996 64.85000000000215
    vertex 2825.1779236948178 249.84695487670942 64.85000000001565
  endloop
endfacet
facet normal -3.524043801870475e-13 1.4046617338071786e-17 -1.0
  outer loop
    vertex 2863.2779236948177 249.84695487670996 64.85000000000215
    vertex 2825.1779236948178 256.5144548767094 64.85000000001565
    vertex 2863.2779236948177 256.51445487670986 64.85000000000215
  endloop
endfacet
facet normal -3.524043801870475e-13 1.4046617338071786e-17 -1.0
  outer loop
    vertex 2819.621673694814 320.0144548767091 64.85000000001757
    vertex 2825.1779236948178 256.5144548767094 64.85000000001565
    vertex 2819.6216736948177 256.5144548767091 64.85000000001757
  endloop
endfacet
facet normal -3.524043801870475e-13 1.4046617338071786e-17 -1.0
  outer loop
    vertex 2825.1779236948178 256.5144548767094 64.85000000001565
    vertex 2819.621673694814 320.0144548767091 64.85000000001757
    vertex 2840.103477709295 285.8832048767095 64.85000000001037
  endloop
endfacet
facet normal -3.524043801870475e-13 1.4046617338071786e-17 -1.0
  outer loop
    vertex 2825.1779236948178 256.5144548767094 64.85000000001565
    vertex 2840.103477709295 285.8832048767095 64.85000000001037
    vertex 2840.8603276494177 284.8968588313086 64.85000000001011
  endloop
endfacet
facet normal -3.524043801870475e-13 1.4046617338071786e-17 -1.0
  outer loop
    vertex 2825.1779236948178 256.5144548767094 64.85000000001565
    vertex 2840.8603276494177 284.8968588313086 64.85000000001011
    vertex 2841.8466736948185 284.14000889118614 64.85000000000976
  endloop
endfacet
facet normal -3.524043801870475e-13 1.4046617338071786e-17 -1.0
  outer loop
    vertex 2825.1779236948178 256.5144548767094 64.85000000001565
    vertex 2841.8466736948185 284.14000889118614 64.85000000000976
    vertex 2842.995297992518 283.66423312900787 64.85000000000937
  endloop
endfacet
facet normal -3.524043801870475e-13 1.4046617338071786e-17 -1.0
  outer loop
    vertex 2825.1779236948178 256.5144548767094 64.85000000001565
    vertex 2842.995297992518 283.66423312900787 64.85000000000937
    vertex 2844.2279236948184 283.50195487670953 64.85000000000892
  endloop
endfacet
facet normal -3.524043801870475e-13 1.4046617338071786e-17 -1.0
  outer loop
    vertex 2840.103477709295 285.8832048767095 64.85000000001037
    vertex 2819.621673694814 320.0144548767091 64.85000000001757
    vertex 2839.6277019471167 287.0318291744087 64.85000000001054
  endloop
endfacet
facet normal -3.524043801870475e-13 1.4046617338071786e-17 -1.0
  outer loop
    vertex 2839.6277019471167 287.0318291744087 64.85000000001054
    vertex 2819.621673694814 320.0144548767091 64.85000000001757
    vertex 2839.4654236948186 288.26445487670946 64.8500000000106
  endloop
endfacet
facet normal -3.524043801870475e-13 1.4046617338071786e-17 -1.0
  outer loop
    vertex 2839.4654236948186 288.26445487670946 64.8500000000106
    vertex 2819.621673694814 320.0144548767091 64.85000000001757
    vertex 2839.6277019471163 289.49708057901023 64.85000000001054
  endloop
endfacet
facet normal -3.524043801870475e-13 1.4046617338071786e-17 -1.0
  outer loop
    vertex 2839.6277019471163 289.49708057901023 64.85000000001054
    vertex 2819.621673694814 320.0144548767091 64.85000000001757
    vertex 2840.1034777092946 290.6457048767095 64.85000000001037
  endloop
endfacet
facet normal -3.524043801870475e-13 1.4046617338071786e-17 -1.0
  outer loop
    vertex 2840.1034777092946 290.6457048767095 64.85000000001037
    vertex 2819.621673694814 320.0144548767091 64.85000000001757
    vertex 2840.8603276494173 291.6320509221104 64.85000000001011
  endloop
endfacet
facet normal -3.524043801870475e-13 1.4046617338071786e-17 -1.0
  outer loop
    vertex 2840.8603276494173 291.6320509221104 64.85000000001011
    vertex 2819.621673694814 320.0144548767091 64.85000000001757
    vertex 2841.846673694818 292.3889008622329 64.85000000000976
  endloop
endfacet
facet normal -3.524043801870475e-13 1.4046617338071786e-17 -1.0
  outer loop
    vertex 2841.846673694818 292.3889008622329 64.85000000000976
    vertex 2819.621673694814 320.0144548767091 64.85000000001757
    vertex 2842.9952979925174 292.8646766244112 64.85000000000937
  endloop
endfacet
facet normal -3.524043801870475e-13 1.4046617338071786e-17 -1.0
  outer loop
    vertex 2842.9952979925174 292.8646766244112 64.85000000000937
    vertex 2819.621673694814 320.0144548767091 64.85000000001757
    vertex 2844.2279236948184 293.0269548767095 64.85000000000892
  endloop
endfacet
facet normal -3.524043801870475e-13 1.4046617338071786e-17 -1.0
  outer loop
    vertex 2863.2779236948177 256.51445487670986 64.85000000000215
    vertex 2868.834173694814 320.01445487671003 64.85000000000028
    vertex 2868.8341736948178 256.51445487670986 64.85000000000028
  endloop
endfacet
facet normal -3.524043801870475e-13 1.4046617338071786e-17 -1.0
  outer loop
    vertex 2868.834173694814 320.01445487671003 64.85000000000028
    vertex 2863.2779236948177 256.51445487670986 64.85000000000215
    vertex 2848.3523696803422 285.8832048767095 64.85000000000747
  endloop
endfacet
facet normal -3.524043801870475e-13 1.4046617338071786e-17 -1.0
  outer loop
    vertex 2848.3523696803422 285.8832048767095 64.85000000000747
    vertex 2863.2779236948177 256.51445487670986 64.85000000000215
    vertex 2847.5955197402195 284.8968588313086 64.85000000000773
  endloop
endfacet
facet normal -3.524043801870475e-13 1.4046617338071786e-17 -1.0
  outer loop
    vertex 2847.5955197402195 284.8968588313086 64.85000000000773
    vertex 2863.2779236948177 256.51445487670986 64.85000000000215
    vertex 2825.1779236948178 256.5144548767094 64.85000000001565
  endloop
endfacet
facet normal -3.524043801870475e-13 1.4046617338071786e-17 -1.0
  outer loop
    vertex 2847.5955197402195 284.8968588313086 64.85000000000773
    vertex 2825.1779236948178 256.5144548767094 64.85000000001565
    vertex 2846.6091736948188 284.1400088911861 64.8500000000081
  endloop
endfacet
facet normal -3.524043801870475e-13 1.4046617338071786e-17 -1.0
  outer loop
    vertex 2846.6091736948188 284.1400088911861 64.8500000000081
    vertex 2825.1779236948178 256.5144548767094 64.85000000001565
    vertex 2845.4605493971194 283.6642331290078 64.85000000000849
  endloop
endfacet
facet normal -3.524043801870475e-13 1.4046617338071786e-17 -1.0
  outer loop
    vertex 2845.4605493971194 283.6642331290078 64.85000000000849
    vertex 2825.1779236948178 256.5144548767094 64.85000000001565
    vertex 2844.2279236948184 283.50195487670953 64.85000000000892
  endloop
endfacet
facet normal -3.524043801870475e-13 1.4046617338071786e-17 -1.0
  outer loop
    vertex 2868.834173694814 320.01445487671003 64.85000000000028
    vertex 2848.3523696803422 285.8832048767095 64.85000000000747
    vertex 2848.8281454425205 287.0318291744087 64.8500000000073
  endloop
endfacet
facet normal -3.524043801870475e-13 1.4046617338071786e-17 -1.0
  outer loop
    vertex 2868.834173694814 320.01445487671003 64.85000000000028
    vertex 2848.8281454425205 287.0318291744087 64.8500000000073
    vertex 2848.9904236948187 288.26445487670946 64.85000000000724
  endloop
endfacet
facet normal -3.524043801870475e-13 1.4046617338071786e-17 -1.0
  outer loop
    vertex 2868.834173694814 320.01445487671003 64.85000000000028
    vertex 2848.9904236948187 288.26445487670946 64.85000000000724
    vertex 2848.82814544252 289.49708057901023 64.8500000000073
  endloop
endfacet
facet normal -3.524043801870475e-13 1.4046617338071786e-17 -1.0
  outer loop
    vertex 2868.834173694814 320.01445487671003 64.85000000000028
    vertex 2848.82814544252 289.49708057901023 64.8500000000073
    vertex 2848.352369680342 290.64570487670954 64.85000000000747
  endloop
endfacet
facet normal -3.524043801870475e-13 1.4046617338071786e-17 -1.0
  outer loop
    vertex 2868.834173694814 320.01445487671003 64.85000000000028
    vertex 2848.352369680342 290.64570487670954 64.85000000000747
    vertex 2847.595519740219 291.6320509221104 64.85000000000773
  endloop
endfacet
facet normal -3.524043801870475e-13 1.4046617338071786e-17 -1.0
  outer loop
    vertex 2868.834173694814 320.01445487671003 64.85000000000028
    vertex 2847.595519740219 291.6320509221104 64.85000000000773
    vertex 2846.6091736948183 292.38890086223284 64.8500000000081
  endloop
endfacet
facet normal -3.524043801870475e-13 1.4046617338071786e-17 -1.0
  outer loop
    vertex 2868.834173694814 320.01445487671003 64.85000000000028
    vertex 2846.6091736948183 292.38890086223284 64.8500000000081
    vertex 2845.460549397119 292.8646766244112 64.85000000000849
  endloop
endfacet
facet normal -3.524043801870475e-13 1.4046617338071786e-17 -1.0
  outer loop
    vertex 2868.834173694814 320.01445487671003 64.85000000000028
    vertex 2845.460549397119 292.8646766244112 64.85000000000849
    vertex 2844.2279236948184 293.0269548767095 64.85000000000892
  endloop
endfacet
facet normal -3.524043801870475e-13 1.4046617338071786e-17 -1.0
  outer loop
    vertex 2868.834173694814 320.01445487671003 64.85000000000028
    vertex 2844.2279236948184 293.0269548767095 64.85000000000892
    vertex 2819.621673694814 320.0144548767091 64.85000000001757
  endloop
endfacet
facet normal -3.524043801870475e-13 1.4046617338071786e-17 -1.0
  outer loop
    vertex 2868.834173694814 320.01445487671003 64.85000000000028
    vertex 2819.621673694814 320.0144548767091 64.85000000001757
    vertex 2825.177923694814 320.0144548767094 64.85000000001565
  endloop
endfacet
facet normal -3.524043801870475e-13 1.4046617338071786e-17 -1.0
  outer loop
    vertex 2868.834173694814 320.01445487671003 64.85000000000028
    vertex 2825.177923694814 320.0144548767094 64.85000000001565
    vertex 2863.277923694814 320.01445487671 64.85000000000215
  endloop
endfacet
facet normal -3.524043801870475e-13 1.4046617338071786e-17 -1.0
  outer loop
    vertex 2863.277923694814 320.01445487671 64.85000000000215
    vertex 2825.177923694814 320.0144548767094 64.85000000001565
    vertex 2825.1779236948164 326.68195487670937 64.85000000001565
  endloop
endfacet
facet normal -3.524043801870475e-13 1.4046617338071786e-17 -1.0
  outer loop
    vertex 2863.277923694814 320.01445487671 64.85000000000215
    vertex 2825.1779236948164 326.68195487670937 64.85000000001565
    vertex 2863.2779236948163 326.6819548767099 64.85000000000215
  endloop
endfacet
facet normal -1.0 -1.5619445923376034e-28 3.523847880160247e-13
  outer loop
    vertex 2863.2779236947936 326.6819548767099 2.165734258596785e-12
    vertex 2863.277923694814 320.01445487671 64.85000000000215
    vertex 2863.2779236948163 326.6819548767099 64.85000000000215
  endloop
endfacet
facet normal -1.0 -1.5619445923376034e-28 3.523847880160247e-13
  outer loop
    vertex 2863.277923694814 320.01445487671 64.85000000000215
    vertex 2863.2779236947936 326.6819548767099 2.165734258596785e-12
    vertex 2863.2779236947913 320.01445487671 2.165734258596785e-12
  endloop
endfacet
facet normal -1.0 0.0 3.5216274341109965e-13
  outer loop
    vertex 2863.2779236947927 256.51445487670986 2.1544543926665936e-12
    vertex 2863.2779236948177 249.84695487670996 64.85000000000215
    vertex 2863.2779236948177 256.51445487670986 64.85000000000215
  endloop
endfacet
facet normal -1.0 0.0 3.5216274341109965e-13
  outer loop
    vertex 2863.2779236948177 249.84695487670996 64.85000000000215
    vertex 2863.2779236947927 256.51445487670986 2.1544543926665936e-12
    vertex 2863.277923694794 249.84695487670996 2.1544543926665936e-12
  endloop
endfacet
facet normal -3.523847880160247e-13 2.2204460492502502e-16 -1.0
  outer loop
    vertex 2863.2779236947913 320.01445487671 2.165734258596785e-12
    vertex 2868.8341736947937 326.68195487671 2.9327651418498134e-13
    vertex 2868.8341736947914 320.01445487671003 2.9327651418498134e-13
  endloop
endfacet
facet normal -3.523847880160247e-13 2.2204460492502502e-16 -1.0
  outer loop
    vertex 2868.8341736947937 326.68195487671 2.9327651418498134e-13
    vertex 2863.2779236947913 320.01445487671 2.165734258596785e-12
    vertex 2863.2779236947936 326.6819548767099 2.165734258596785e-12
  endloop
endfacet
facet normal 7.105427357600924e-15 -1.0 -2.2204460492752884e-16
  outer loop
    vertex 2868.8341736947914 320.01445487671003 2.9327651418498134e-13
    vertex 2863.277923694814 320.01445487671 64.85000000000215
    vertex 2863.2779236947913 320.01445487671 2.165734258596785e-12
  endloop
endfacet
facet normal 7.105427357600924e-15 -1.0 -2.2204460492752884e-16
  outer loop
    vertex 2863.277923694814 320.01445487671 64.85000000000215
    vertex 2868.8341736947914 320.01445487671003 2.9327651418498134e-13
    vertex 2868.834173694814 320.01445487671003 64.85000000000028
  endloop
endfacet
facet normal -3.5216274341109965e-13 9.466330862651787e-30 -1.0
  outer loop
    vertex 2863.277923694794 249.84695487670996 2.1544543926665936e-12
    vertex 2868.8341736947928 256.51445487670986 2.8199664825478976e-13
    vertex 2868.834173694794 249.84695487670984 2.8199664825478976e-13
  endloop
endfacet
facet normal -3.5216274341109965e-13 9.466330862651787e-30 -1.0
  outer loop
    vertex 2868.8341736947928 256.51445487670986 2.8199664825478976e-13
    vertex 2863.277923694794 249.84695487670996 2.1544543926665936e-12
    vertex 2863.2779236947927 256.51445487670986 2.1544543926665936e-12
  endloop
endfacet
facet normal -2.1316282072803006e-14 1.0 7.5162667049458e-27
  outer loop
    vertex 2863.2779236948177 256.51445487670986 64.85000000000215
    vertex 2868.8341736947928 256.51445487670986 2.8199664825478976e-13
    vertex 2863.2779236947927 256.51445487670986 2.1544543926665936e-12
  endloop
endfacet
facet normal -2.1316282072803006e-14 1.0 7.5162667049458e-27
  outer loop
    vertex 2868.8341736947928 256.51445487670986 2.8199664825478976e-13
    vertex 2863.2779236948177 256.51445487670986 64.85000000000215
    vertex 2868.8341736948178 256.51445487670986 64.85000000000028
  endloop
endfacet
facet normal 0.9914448613738236 -0.13052619221995254 -3.4961038845464164e-13
  outer loop
    vertex 2839.4654236948186 288.26445487670946 64.8500000000106
    vertex 2839.6277019471163 289.49708057901023 69.85000000001052
    vertex 2839.465423694818 288.26445487670946 69.85000000001058
  endloop
endfacet
facet normal 0.9914448613738236 -0.13052619221995254 -3.4961038845464164e-13
  outer loop
    vertex 2839.6277019471163 289.49708057901023 69.85000000001052
    vertex 2839.4654236948186 288.26445487670946 64.8500000000106
    vertex 2839.6277019471163 289.49708057901023 64.85000000001054
  endloop
endfacet
facet normal 0.9914448613738236 0.13052619221995254 -3.496103884546416e-13
  outer loop
    vertex 2839.6277019471167 287.0318291744087 64.85000000001054
    vertex 2839.465423694818 288.26445487670946 69.85000000001058
    vertex 2839.6277019471163 287.0318291744087 69.85000000001052
  endloop
endfacet
facet normal 0.9914448613738236 0.13052619221995254 -3.496103884546416e-13
  outer loop
    vertex 2839.465423694818 288.26445487670946 69.85000000001058
    vertex 2839.6277019471167 287.0318291744087 64.85000000001054
    vertex 2839.4654236948186 288.26445487670946 64.8500000000106
  endloop
endfacet
facet normal 0.9238795325112764 0.38268343236511515 -3.25785018239934e-13
  outer loop
    vertex 2840.103477709295 285.8832048767095 64.85000000001037
    vertex 2839.6277019471163 287.0318291744087 69.85000000001052
    vertex 2840.1034777092946 285.8832048767095 69.85000000001035
  endloop
endfacet
facet normal 0.9238795325112764 0.38268343236511515 -3.25785018239934e-13
  outer loop
    vertex 2839.6277019471163 287.0318291744087 69.85000000001052
    vertex 2840.103477709295 285.8832048767095 64.85000000001037
    vertex 2839.6277019471167 287.0318291744087 64.85000000001054
  endloop
endfacet
facet normal 0.7933533402911352 0.608761429008851 -2.797579374173499e-13
  outer loop
    vertex 2840.8603276494177 284.8968588313086 64.85000000001011
    vertex 2840.1034777092946 285.8832048767095 69.85000000001035
    vertex 2840.8603276494177 284.8968588313086 69.8500000000101
  endloop
endfacet
facet normal 0.7933533402911352 0.608761429008851 -2.797579374173499e-13
  outer loop
    vertex 2840.1034777092946 285.8832048767095 69.85000000001035
    vertex 2840.8603276494177 284.8968588313086 64.85000000001011
    vertex 2840.103477709295 285.8832048767095 64.85000000001037
  endloop
endfacet
facet normal 0.6087614290087894 0.7933533402911825 -2.1466581548171284e-13
  outer loop
    vertex 2841.8466736948185 284.14000889118614 69.85000000000974
    vertex 2840.8603276494177 284.8968588313086 64.85000000001011
    vertex 2840.8603276494177 284.8968588313086 69.8500000000101
  endloop
endfacet
facet normal 0.6087614290087894 0.7933533402911825 -2.1466581548171284e-13
  outer loop
    vertex 2840.8603276494177 284.8968588313086 64.85000000001011
    vertex 2841.8466736948185 284.14000889118614 69.85000000000974
    vertex 2841.8466736948185 284.14000889118614 64.85000000000976
  endloop
endfacet
facet normal 0.3826834323650585 0.9238795325112997 -1.3494457297293736e-13
  outer loop
    vertex 2842.995297992518 283.66423312900787 69.85000000000935
    vertex 2841.8466736948185 284.14000889118614 64.85000000000976
    vertex 2841.8466736948185 284.14000889118614 69.85000000000974
  endloop
endfacet
facet normal 0.3826834323650585 0.9238795325112997 -1.3494457297293736e-13
  outer loop
    vertex 2841.8466736948185 284.14000889118614 64.85000000000976
    vertex 2842.995297992518 283.66423312900787 69.85000000000935
    vertex 2842.995297992518 283.66423312900787 64.85000000000937
  endloop
endfacet
facet normal 0.13052619222006895 0.9914448613738083 -4.602708082255875e-14
  outer loop
    vertex 2844.2279236948184 283.50195487670953 69.8500000000089
    vertex 2842.995297992518 283.66423312900787 64.85000000000937
    vertex 2842.995297992518 283.66423312900787 69.85000000000935
  endloop
endfacet
facet normal 0.13052619222006895 0.9914448613738083 -4.602708082255875e-14
  outer loop
    vertex 2842.995297992518 283.66423312900787 64.85000000000937
    vertex 2844.2279236948184 283.50195487670953 69.8500000000089
    vertex 2844.2279236948184 283.50195487670953 64.85000000000892
  endloop
endfacet
facet normal -0.13052619222006895 0.9914448613738083 4.602708082255875e-14
  outer loop
    vertex 2845.4605493971194 283.6642331290078 69.85000000000846
    vertex 2844.2279236948184 283.50195487670953 64.85000000000892
    vertex 2844.2279236948184 283.50195487670953 69.8500000000089
  endloop
endfacet
facet normal -0.13052619222006895 0.9914448613738083 4.602708082255875e-14
  outer loop
    vertex 2844.2279236948184 283.50195487670953 64.85000000000892
    vertex 2845.4605493971194 283.6642331290078 69.85000000000846
    vertex 2845.4605493971194 283.6642331290078 64.85000000000849
  endloop
endfacet
facet normal -0.3826834323650585 0.9238795325112997 1.3494457297293733e-13
  outer loop
    vertex 2846.6091736948188 284.1400088911861 69.85000000000807
    vertex 2845.4605493971194 283.6642331290078 64.85000000000849
    vertex 2845.4605493971194 283.6642331290078 69.85000000000846
  endloop
endfacet
facet normal -0.3826834323650585 0.9238795325112997 1.3494457297293733e-13
  outer loop
    vertex 2845.4605493971194 283.6642331290078 64.85000000000849
    vertex 2846.6091736948188 284.1400088911861 69.85000000000807
    vertex 2846.6091736948188 284.1400088911861 64.8500000000081
  endloop
endfacet
facet normal -0.6087614290087894 0.7933533402911825 2.1466581548171286e-13
  outer loop
    vertex 2847.5955197402195 284.8968588313086 69.85000000000771
    vertex 2846.6091736948188 284.1400088911861 64.8500000000081
    vertex 2846.6091736948188 284.1400088911861 69.85000000000807
  endloop
endfacet
facet normal -0.6087614290087894 0.7933533402911825 2.1466581548171286e-13
  outer loop
    vertex 2846.6091736948188 284.1400088911861 64.8500000000081
    vertex 2847.5955197402195 284.8968588313086 69.85000000000771
    vertex 2847.5955197402195 284.8968588313086 64.85000000000773
  endloop
endfacet
facet normal -0.7933533402911352 0.608761429008851 2.797579374173499e-13
  outer loop
    vertex 2848.3523696803422 285.8832048767095 64.85000000000747
    vertex 2847.5955197402195 284.8968588313086 69.85000000000771
    vertex 2848.352369680342 285.8832048767095 69.85000000000746
  endloop
endfacet
facet normal -0.7933533402911352 0.608761429008851 2.797579374173499e-13
  outer loop
    vertex 2847.5955197402195 284.8968588313086 69.85000000000771
    vertex 2848.3523696803422 285.8832048767095 64.85000000000747
    vertex 2847.5955197402195 284.8968588313086 64.85000000000773
  endloop
endfacet
facet normal -0.9238795325112764 0.38268343236511515 3.25785018239934e-13
  outer loop
    vertex 2848.8281454425205 287.0318291744087 64.8500000000073
    vertex 2848.352369680342 285.8832048767095 69.85000000000746
    vertex 2848.82814544252 287.0318291744087 69.85000000000728
  endloop
endfacet
facet normal -0.9238795325112764 0.38268343236511515 3.25785018239934e-13
  outer loop
    vertex 2848.352369680342 285.8832048767095 69.85000000000746
    vertex 2848.8281454425205 287.0318291744087 64.8500000000073
    vertex 2848.3523696803422 285.8832048767095 64.85000000000747
  endloop
endfacet
facet normal -0.9914448613738236 0.13052619221995254 3.4961038845464164e-13
  outer loop
    vertex 2848.9904236948187 288.26445487670946 64.85000000000724
    vertex 2848.82814544252 287.0318291744087 69.85000000000728
    vertex 2848.990423694818 288.26445487670946 69.85000000000723
  endloop
endfacet
facet normal -0.9914448613738236 0.13052619221995254 3.4961038845464164e-13
  outer loop
    vertex 2848.82814544252 287.0318291744087 69.85000000000728
    vertex 2848.9904236948187 288.26445487670946 64.85000000000724
    vertex 2848.8281454425205 287.0318291744087 64.8500000000073
  endloop
endfacet
facet normal -0.9914448613738236 -0.13052619221995254 3.496103884546416e-13
  outer loop
    vertex 2848.82814544252 289.49708057901023 64.8500000000073
    vertex 2848.990423694818 288.26445487670946 69.85000000000723
    vertex 2848.82814544252 289.49708057901023 69.85000000000728
  endloop
endfacet
facet normal -0.9914448613738236 -0.13052619221995254 3.496103884546416e-13
  outer loop
    vertex 2848.990423694818 288.26445487670946 69.85000000000723
    vertex 2848.82814544252 289.49708057901023 64.8500000000073
    vertex 2848.9904236948187 288.26445487670946 64.85000000000724
  endloop
endfacet
facet normal -0.9238795325112764 -0.38268343236511515 3.25785018239934e-13
  outer loop
    vertex 2848.352369680342 290.64570487670954 64.85000000000747
    vertex 2848.82814544252 289.49708057901023 69.85000000000728
    vertex 2848.352369680342 290.64570487670954 69.85000000000746
  endloop
endfacet
facet normal -0.9238795325112764 -0.38268343236511515 3.25785018239934e-13
  outer loop
    vertex 2848.82814544252 289.49708057901023 69.85000000000728
    vertex 2848.352369680342 290.64570487670954 64.85000000000747
    vertex 2848.82814544252 289.49708057901023 64.8500000000073
  endloop
endfacet
facet normal -0.7933533402911352 -0.608761429008851 2.797579374173499e-13
  outer loop
    vertex 2847.595519740219 291.6320509221104 64.85000000000773
    vertex 2848.352369680342 290.64570487670954 69.85000000000746
    vertex 2847.595519740219 291.6320509221104 69.85000000000771
  endloop
endfacet
facet normal -0.7933533402911352 -0.608761429008851 2.797579374173499e-13
  outer loop
    vertex 2848.352369680342 290.64570487670954 69.85000000000746
    vertex 2847.595519740219 291.6320509221104 64.85000000000773
    vertex 2848.352369680342 290.64570487670954 64.85000000000747
  endloop
endfacet
facet normal -0.6087614290087894 -0.7933533402911825 2.1466581548171284e-13
  outer loop
    vertex 2846.6091736948183 292.38890086223284 64.8500000000081
    vertex 2847.595519740219 291.6320509221104 69.85000000000771
    vertex 2846.6091736948183 292.38890086223284 69.85000000000807
  endloop
endfacet
facet normal -0.6087614290087894 -0.7933533402911825 2.1466581548171284e-13
  outer loop
    vertex 2847.595519740219 291.6320509221104 69.85000000000771
    vertex 2846.6091736948183 292.38890086223284 64.8500000000081
    vertex 2847.595519740219 291.6320509221104 64.85000000000773
  endloop
endfacet
facet normal -0.3826834323650585 -0.9238795325112997 1.3494457297293736e-13
  outer loop
    vertex 2845.460549397119 292.8646766244112 64.85000000000849
    vertex 2846.6091736948183 292.38890086223284 69.85000000000807
    vertex 2845.460549397119 292.8646766244112 69.85000000000846
  endloop
endfacet
facet normal -0.3826834323650585 -0.9238795325112997 1.3494457297293736e-13
  outer loop
    vertex 2846.6091736948183 292.38890086223284 69.85000000000807
    vertex 2845.460549397119 292.8646766244112 64.85000000000849
    vertex 2846.6091736948183 292.38890086223284 64.8500000000081
  endloop
endfacet
facet normal -0.13052619222006895 -0.9914448613738083 4.602708082255875e-14
  outer loop
    vertex 2844.2279236948184 293.0269548767095 64.85000000000892
    vertex 2845.460549397119 292.8646766244112 69.85000000000846
    vertex 2844.2279236948184 293.0269548767095 69.8500000000089
  endloop
endfacet
facet normal -0.13052619222006895 -0.9914448613738083 4.602708082255875e-14
  outer loop
    vertex 2845.460549397119 292.8646766244112 69.85000000000846
    vertex 2844.2279236948184 293.0269548767095 64.85000000000892
    vertex 2845.460549397119 292.8646766244112 64.85000000000849
  endloop
endfacet
facet normal 0.13052619222006895 -0.9914448613738083 -4.602708082255875e-14
  outer loop
    vertex 2842.9952979925174 292.8646766244112 64.85000000000937
    vertex 2844.2279236948184 293.0269548767095 69.8500000000089
    vertex 2842.9952979925174 292.8646766244112 69.85000000000935
  endloop
endfacet
facet normal 0.13052619222006895 -0.9914448613738083 -4.602708082255875e-14
  outer loop
    vertex 2844.2279236948184 293.0269548767095 69.8500000000089
    vertex 2842.9952979925174 292.8646766244112 64.85000000000937
    vertex 2844.2279236948184 293.0269548767095 64.85000000000892
  endloop
endfacet
facet normal 0.3826834323650585 -0.9238795325112997 -1.3494457297293733e-13
  outer loop
    vertex 2841.846673694818 292.3889008622329 64.85000000000976
    vertex 2842.9952979925174 292.8646766244112 69.85000000000935
    vertex 2841.846673694818 292.3889008622329 69.85000000000974
  endloop
endfacet
facet normal 0.3826834323650585 -0.9238795325112997 -1.3494457297293733e-13
  outer loop
    vertex 2842.9952979925174 292.8646766244112 69.85000000000935
    vertex 2841.846673694818 292.3889008622329 64.85000000000976
    vertex 2842.9952979925174 292.8646766244112 64.85000000000937
  endloop
endfacet
facet normal 0.6087614290087894 -0.7933533402911825 -2.1466581548171286e-13
  outer loop
    vertex 2840.8603276494173 291.6320509221104 64.85000000001011
    vertex 2841.846673694818 292.3889008622329 69.85000000000974
    vertex 2840.8603276494173 291.6320509221104 69.8500000000101
  endloop
endfacet
facet normal 0.6087614290087894 -0.7933533402911825 -2.1466581548171286e-13
  outer loop
    vertex 2841.846673694818 292.3889008622329 69.85000000000974
    vertex 2840.8603276494173 291.6320509221104 64.85000000001011
    vertex 2841.846673694818 292.3889008622329 64.85000000000976
  endloop
endfacet
facet normal 0.7933533402911352 -0.608761429008851 -2.797579374173499e-13
  outer loop
    vertex 2840.1034777092946 290.6457048767095 64.85000000001037
    vertex 2840.8603276494173 291.6320509221104 69.8500000000101
    vertex 2840.1034777092946 290.6457048767095 69.85000000001035
  endloop
endfacet
facet normal 0.7933533402911352 -0.608761429008851 -2.797579374173499e-13
  outer loop
    vertex 2840.8603276494173 291.6320509221104 69.8500000000101
    vertex 2840.1034777092946 290.6457048767095 64.85000000001037
    vertex 2840.8603276494173 291.6320509221104 64.85000000001011
  endloop
endfacet
facet normal 0.9238795325112764 -0.38268343236511515 -3.25785018239934e-13
  outer loop
    vertex 2839.6277019471163 289.49708057901023 64.85000000001054
    vertex 2840.1034777092946 290.6457048767095 69.85000000001035
    vertex 2839.6277019471163 289.49708057901023 69.85000000001052
  endloop
endfacet
facet normal 0.9238795325112764 -0.38268343236511515 -3.25785018239934e-13
  outer loop
    vertex 2840.1034777092946 290.6457048767095 69.85000000001035
    vertex 2839.6277019471163 289.49708057901023 64.85000000001054
    vertex 2840.1034777092946 290.6457048767095 64.85000000001037
  endloop
endfacet
endsolid box draft 1
