solid box draft 1
facet normal 1.3899203214067355e-14 -1.0 -4.897867778180774e-27
  outer loop
    vertex 3064.597298220446 47.563371586443154 1.127986593019159e-14
    vertex 3059.0410482204697 47.563371586443076 64.8500000000019
    vertex 3059.0410482204466 47.563371586443076 1.9062973422023785e-12
  endloop
endfacet
facet normal 1.3899203214067355e-14 -1.0 -4.897867778180774e-27
  outer loop
    vertex 3020.941048220446 47.56337158644255 1.539701699471152e-11
    vertex 3015.3847982204716 47.56337158644242 69.85000000001732
    vertex 3015.384798220446 47.56337158644242 1.7337153934704473e-11
  endloop
endfacet
facet normal 1.3899203214067355e-14 -1.0 -4.897867778180774e-27
  outer loop
    vertex 3015.3847982204716 47.56337158644242 69.85000000001732
    vertex 3020.941048220446 47.56337158644255 1.539701699471152e-11
    vertex 3020.94104822047 47.56337158644255 64.85000000001538
  endloop
endfacet
facet normal 1.3899203214067355e-14 -1.0 -4.897867778180774e-27
  outer loop
    vertex 3015.3847982204716 47.56337158644242 69.85000000001732
    vertex 3020.94104822047 47.56337158644255 64.85000000001538
    vertex 3064.5972982204717 47.563371586443154 69.85000000000001
  endloop
endfacet
facet normal 1.3899203214067355e-14 -1.0 -4.897867778180774e-27
  outer loop
    vertex 3064.5972982204717 47.563371586443154 69.85000000000001
    vertex 3020.94104822047 47.56337158644255 64.85000000001538
    vertex 3059.0410482204697 47.563371586443076 64.8500000000019
  endloop
endfacet
facet normal 1.3899203214067355e-14 -1.0 -4.897867778180774e-27
  outer loop
    vertex 3064.5972982204717 47.563371586443154 69.85000000000001
    vertex 3059.0410482204697 47.563371586443076 64.8500000000019
    vertex 3064.597298220446 47.563371586443154 1.127986593019159e-14
  endloop
endfacet
facet normal 1.0 1.3899203214067355e-14 -3.523847880160247e-13
  outer loop
    vertex 3064.5972982204717 47.563371586443154 69.85000000000001
    vertex 3064.59729822047 54.230871586443136 64.85000000000001
    vertex 3064.5972982204707 124.39837158644312 69.85000000000001
  endloop
endfacet
facet normal 1.0 1.3899203214067355e-14 -3.523847880160247e-13
  outer loop
    vertex 3064.59729822047 54.230871586443136 64.85000000000001
    vertex 3064.5972982204717 47.563371586443154 69.85000000000001
    vertex 3064.597298220446 47.563371586443154 1.127986593019159e-14
  endloop
endfacet
facet normal 1.0 1.3899203214067355e-14 -3.523847880160247e-13
  outer loop
    vertex 3064.59729822047 54.230871586443136 64.85000000000001
    vertex 3064.597298220446 47.563371586443154 1.127986593019159e-14
    vertex 3064.5972982204457 54.230871586443136 1.127986593019159e-14
  endloop
endfacet
facet normal 1.0 1.3899203214067355e-14 -3.523847880160247e-13
  outer loop
    vertex 3064.5972982204707 124.39837158644312 69.85000000000001
    vertex 3064.597298220467 117.73087158644313 64.85000000000001
    vertex 3064.597298220446 124.39837158644312 2.255973186038318e-14
  endloop
endfacet
facet normal 1.0 1.3899203214067355e-14 -3.523847880160247e-13
  outer loop
    vertex 3064.597298220467 117.73087158644313 64.85000000000001
    vertex 3064.5972982204707 124.39837158644312 69.85000000000001
    vertex 3064.59729822047 54.230871586443136 64.85000000000001
  endloop
endfacet
facet normal 1.0 1.3899203214067355e-14 -3.523847880160247e-13
  outer loop
    vertex 3064.597298220446 124.39837158644312 2.255973186038318e-14
    vertex 3064.597298220467 117.73087158644313 64.85000000000001
    vertex 3064.5972982204444 117.73087158644313 2.255973186038318e-14
  endloop
endfacet
facet normal -1.3899203214067355e-14 1.0 4.897867778180774e-27
  outer loop
    vertex 3015.3847982204707 124.39837158644237 69.85000000001732
    vertex 3020.9410482204457 124.39837158644251 1.5374457262851136e-11
    vertex 3015.3847982204456 124.39837158644237 1.731459420284409e-11
  endloop
endfacet
facet normal -1.3899203214067355e-14 1.0 4.897867778180774e-27
  outer loop
    vertex 3020.9410482204457 124.39837158644251 1.5374457262851136e-11
    vertex 3015.3847982204707 124.39837158644237 69.85000000001732
    vertex 3020.941048220469 124.39837158644251 64.85000000001538
  endloop
endfacet
facet normal -1.3899203214067355e-14 1.0 4.897867778180774e-27
  outer loop
    vertex 3020.941048220469 124.39837158644251 64.85000000001538
    vertex 3015.3847982204707 124.39837158644237 69.85000000001732
    vertex 3064.5972982204707 124.39837158644312 69.85000000000001
  endloop
endfacet
facet normal -1.3899203214067355e-14 1.0 4.897867778180774e-27
  outer loop
    vertex 3020.941048220469 124.39837158644251 64.85000000001538
    vertex 3064.5972982204707 124.39837158644312 69.85000000000001
    vertex 3059.041048220469 124.39837158644305 64.85000000000191
  endloop
endfacet
facet normal -1.3899203214067355e-14 1.0 4.897867778180774e-27
  outer loop
    vertex 3059.041048220469 124.39837158644305 64.85000000000191
    vertex 3064.5972982204707 124.39837158644312 69.85000000000001
    vertex 3059.041048220446 124.39837158644305 1.9175772081325704e-12
  endloop
endfacet
facet normal -1.3899203214067355e-14 1.0 4.897867778180774e-27
  outer loop
    vertex 3059.041048220446 124.39837158644305 1.9175772081325704e-12
    vertex 3064.5972982204707 124.39837158644312 69.85000000000001
    vertex 3064.597298220446 124.39837158644312 2.255973186038318e-14
  endloop
endfacet
facet normal -1.0 -1.3899203214067355e-14 3.523847880160247e-13
  outer loop
    vertex 3015.3847982204707 124.39837158644237 69.85000000001732
    vertex 3015.3847982204675 117.73087158644239 64.85000000001732
    vertex 3015.3847982204716 47.56337158644242 69.85000000001732
  endloop
endfacet
facet normal -1.0 -1.3899203214067355e-14 3.523847880160247e-13
  outer loop
    vertex 3015.3847982204675 117.73087158644239 64.85000000001732
    vertex 3015.3847982204707 124.39837158644237 69.85000000001732
    vertex 3015.3847982204456 124.39837158644237 1.731459420284409e-11
  endloop
endfacet
facet normal -1.0 -1.3899203214067355e-14 3.523847880160247e-13
  outer loop
    vertex 3015.3847982204675 117.73087158644239 64.85000000001732
    vertex 3015.3847982204456 124.39837158644237 1.731459420284409e-11
    vertex 3015.3847982204443 117.73087158644239 1.731459420284409e-11
  endloop
endfacet
facet normal -1.0 -1.3899203214067355e-14 3.523847880160247e-13
  outer loop
    vertex 3015.3847982204716 47.56337158644242 69.85000000001732
    vertex 3015.3847982204697 54.2308715864424 64.85000000001732
    vertex 3015.384798220446 47.56337158644242 1.7337153934704473e-11
  endloop
endfacet
facet normal -1.0 -1.3899203214067355e-14 3.523847880160247e-13
  outer loop
    vertex 3015.3847982204697 54.2308715864424 64.85000000001732
    vertex 3015.3847982204716 47.56337158644242 69.85000000001732
    vertex 3015.3847982204675 117.73087158644239 64.85000000001732
  endloop
endfacet
facet normal -1.0 -1.3899203214067355e-14 3.523847880160247e-13
  outer loop
    vertex 3015.384798220446 47.56337158644242 1.7337153934704473e-11
    vertex 3015.3847982204697 54.2308715864424 64.85000000001732
    vertex 3015.384798220445 54.2308715864424 1.7337153934704473e-11
  endloop
endfacet
facet normal 3.523847880160246e-13 4.638016669834797e-27 1.0
  outer loop
    vertex 3064.5972982204717 47.563371586443154 69.85000000000001
    vertex 3041.2236739227715 62.33064983874137 69.85000000000822
    vertex 3039.991048220471 62.16837158644306 69.85000000000868
  endloop
endfacet
facet normal 3.523847880160246e-13 4.638016669834797e-27 1.0
  outer loop
    vertex 3041.2236739227715 62.33064983874137 69.85000000000822
    vertex 3064.5972982204717 47.563371586443154 69.85000000000001
    vertex 3042.372298220471 62.80642560091967 69.85000000000782
  endloop
endfacet
facet normal 3.523847880160246e-13 4.638016669834797e-27 1.0
  outer loop
    vertex 3042.372298220471 62.80642560091967 69.85000000000782
    vertex 3064.5972982204717 47.563371586443154 69.85000000000001
    vertex 3043.3586442658716 63.563275541042124 69.85000000000747
  endloop
endfacet
facet normal 3.523847880160246e-13 4.638016669834797e-27 1.0
  outer loop
    vertex 3043.3586442658716 63.563275541042124 69.85000000000747
    vertex 3064.5972982204717 47.563371586443154 69.85000000000001
    vertex 3044.1154942059943 64.54962158644305 69.85000000000721
  endloop
endfacet
facet normal 3.523847880160246e-13 4.638016669834797e-27 1.0
  outer loop
    vertex 3044.1154942059943 64.54962158644305 69.85000000000721
    vertex 3064.5972982204717 47.563371586443154 69.85000000000001
    vertex 3044.591269968173 65.69824588414231 69.85000000000704
  endloop
endfacet
facet normal 3.523847880160246e-13 4.638016669834797e-27 1.0
  outer loop
    vertex 3044.591269968173 65.69824588414231 69.85000000000704
    vertex 3064.5972982204717 47.563371586443154 69.85000000000001
    vertex 3064.5972982204707 124.39837158644312 69.85000000000001
  endloop
endfacet
facet normal 3.523847880160246e-13 4.638016669834797e-27 1.0
  outer loop
    vertex 3044.591269968173 65.69824588414231 69.85000000000704
    vertex 3064.5972982204707 124.39837158644312 69.85000000000001
    vertex 3044.753548220471 66.93087158644306 69.85000000000699
  endloop
endfacet
facet normal 3.523847880160246e-13 4.638016669834797e-27 1.0
  outer loop
    vertex 3044.753548220471 66.93087158644306 69.85000000000699
    vertex 3064.5972982204707 124.39837158644312 69.85000000000001
    vertex 3044.591269968173 68.16349728874381 69.85000000000704
  endloop
endfacet
facet normal 3.523847880160246e-13 4.638016669834797e-27 1.0
  outer loop
    vertex 3044.591269968173 68.16349728874381 69.85000000000704
    vertex 3064.5972982204707 124.39837158644312 69.85000000000001
    vertex 3044.1154942059948 69.31212158644306 69.85000000000721
  endloop
endfacet
facet normal 3.523847880160246e-13 4.638016669834797e-27 1.0
  outer loop
    vertex 3044.1154942059948 69.31212158644306 69.85000000000721
    vertex 3064.5972982204707 124.39837158644312 69.85000000000001
    vertex 3043.358644265872 70.29846763184399 69.85000000000747
  endloop
endfacet
facet normal 3.523847880160246e-13 4.638016669834797e-27 1.0
  outer loop
    vertex 3043.358644265872 70.29846763184399 69.85000000000747
    vertex 3064.5972982204707 124.39837158644312 69.85000000000001
    vertex 3042.3722982204713 71.05531757196644 69.85000000000782
  endloop
endfacet
facet normal 3.523847880160246e-13 4.638016669834797e-27 1.0
  outer loop
    vertex 3042.3722982204713 71.05531757196644 69.85000000000782
    vertex 3064.5972982204707 124.39837158644312 69.85000000000001
    vertex 3041.223673922772 71.53109333414474 69.85000000000822
  endloop
endfacet
facet normal 3.523847880160246e-13 4.638016669834797e-27 1.0
  outer loop
    vertex 3041.223673922772 71.53109333414474 69.85000000000822
    vertex 3064.5972982204707 124.39837158644312 69.85000000000001
    vertex 3039.9910482204714 71.69337158644306 69.85000000000868
  endloop
endfacet
facet normal 3.523847880160246e-13 4.638016669834797e-27 1.0
  outer loop
    vertex 3039.9910482204714 71.69337158644306 69.85000000000868
    vertex 3064.5972982204707 124.39837158644312 69.85000000000001
    vertex 3043.3586442658716 101.66327554104143 69.85000000000747
  endloop
endfacet
facet normal 3.523847880160246e-13 4.638016669834797e-27 1.0
  outer loop
    vertex 3039.9910482204714 71.69337158644306 69.85000000000868
    vertex 3043.3586442658716 101.66327554104143 69.85000000000747
    vertex 3042.372298220471 100.90642560091901 69.85000000000782
  endloop
endfacet
facet normal 3.523847880160246e-13 4.638016669834797e-27 1.0
  outer loop
    vertex 3039.9910482204714 71.69337158644306 69.85000000000868
    vertex 3042.372298220471 100.90642560091901 69.85000000000782
    vertex 3041.2236739227715 100.4306498387407 69.85000000000822
  endloop
endfacet
facet normal 3.523847880160246e-13 4.638016669834797e-27 1.0
  outer loop
    vertex 3039.9910482204714 71.69337158644306 69.85000000000868
    vertex 3041.2236739227715 100.4306498387407 69.85000000000822
    vertex 3039.991048220471 100.26837158644238 69.85000000000868
  endloop
endfacet
facet normal 3.523847880160246e-13 4.638016669834797e-27 1.0
  outer loop
    vertex 3043.3586442658716 101.66327554104143 69.85000000000747
    vertex 3064.5972982204707 124.39837158644312 69.85000000000001
    vertex 3044.1154942059943 102.64962158644236 69.85000000000721
  endloop
endfacet
facet normal 3.523847880160246e-13 4.638016669834797e-27 1.0
  outer loop
    vertex 3044.1154942059943 102.64962158644236 69.85000000000721
    vertex 3064.5972982204707 124.39837158644312 69.85000000000001
    vertex 3044.5912699681726 103.79824588414164 69.85000000000704
  endloop
endfacet
facet normal 3.523847880160246e-13 4.638016669834797e-27 1.0
  outer loop
    vertex 3044.5912699681726 103.79824588414164 69.85000000000704
    vertex 3064.5972982204707 124.39837158644312 69.85000000000001
    vertex 3044.7535482204707 105.03087158644239 69.85000000000699
  endloop
endfacet
facet normal 3.523847880160246e-13 4.638016669834797e-27 1.0
  outer loop
    vertex 3044.7535482204707 105.03087158644239 69.85000000000699
    vertex 3064.5972982204707 124.39837158644312 69.85000000000001
    vertex 3044.5912699681726 106.26349728874315 69.85000000000704
  endloop
endfacet
facet normal 3.523847880160246e-13 4.638016669834797e-27 1.0
  outer loop
    vertex 3044.5912699681726 106.26349728874315 69.85000000000704
    vertex 3064.5972982204707 124.39837158644312 69.85000000000001
    vertex 3044.1154942059943 107.41212158644237 69.85000000000721
  endloop
endfacet
facet normal 3.523847880160246e-13 4.638016669834797e-27 1.0
  outer loop
    vertex 3044.1154942059943 107.41212158644237 69.85000000000721
    vertex 3064.5972982204707 124.39837158644312 69.85000000000001
    vertex 3043.3586442658716 108.3984676318433 69.85000000000747
  endloop
endfacet
facet normal 3.523847880160246e-13 4.638016669834797e-27 1.0
  outer loop
    vertex 3043.3586442658716 108.3984676318433 69.85000000000747
    vertex 3064.5972982204707 124.39837158644312 69.85000000000001
    vertex 3042.372298220471 109.15531757196578 69.85000000000782
  endloop
endfacet
facet normal 3.523847880160246e-13 4.638016669834797e-27 1.0
  outer loop
    vertex 3042.372298220471 109.15531757196578 69.85000000000782
    vertex 3064.5972982204707 124.39837158644312 69.85000000000001
    vertex 3041.2236739227715 109.63109333414407 69.85000000000822
  endloop
endfacet
facet normal 3.523847880160246e-13 4.638016669834797e-27 1.0
  outer loop
    vertex 3041.2236739227715 109.63109333414407 69.85000000000822
    vertex 3064.5972982204707 124.39837158644312 69.85000000000001
    vertex 3039.9910482204705 109.79337158644239 69.85000000000868
  endloop
endfacet
facet normal 3.523847880160246e-13 4.638016669834797e-27 1.0
  outer loop
    vertex 3039.9910482204705 109.79337158644239 69.85000000000868
    vertex 3064.5972982204707 124.39837158644312 69.85000000000001
    vertex 3015.3847982204707 124.39837158644237 69.85000000001732
  endloop
endfacet
facet normal 3.523847880160246e-13 4.638016669834797e-27 1.0
  outer loop
    vertex 3015.3847982204716 47.56337158644242 69.85000000001732
    vertex 3035.3908264727693 65.6982458841423 69.85000000001028
    vertex 3015.3847982204707 124.39837158644237 69.85000000001732
  endloop
endfacet
facet normal 3.523847880160246e-13 4.638016669834797e-27 1.0
  outer loop
    vertex 3035.3908264727693 65.6982458841423 69.85000000001028
    vertex 3015.3847982204716 47.56337158644242 69.85000000001732
    vertex 3035.8666022349475 64.54962158644305 69.85000000001011
  endloop
endfacet
facet normal 3.523847880160246e-13 4.638016669834797e-27 1.0
  outer loop
    vertex 3035.8666022349475 64.54962158644305 69.85000000001011
    vertex 3015.3847982204716 47.56337158644242 69.85000000001732
    vertex 3036.6234521750703 63.563275541042124 69.85000000000986
  endloop
endfacet
facet normal 3.523847880160246e-13 4.638016669834797e-27 1.0
  outer loop
    vertex 3036.6234521750703 63.563275541042124 69.85000000000986
    vertex 3015.3847982204716 47.56337158644242 69.85000000001732
    vertex 3037.609798220471 62.80642560091967 69.85000000000949
  endloop
endfacet
facet normal 3.523847880160246e-13 4.638016669834797e-27 1.0
  outer loop
    vertex 3037.609798220471 62.80642560091967 69.85000000000949
    vertex 3015.3847982204716 47.56337158644242 69.85000000001732
    vertex 3064.5972982204717 47.563371586443154 69.85000000000001
  endloop
endfacet
facet normal 3.523847880160246e-13 4.638016669834797e-27 1.0
  outer loop
    vertex 3037.609798220471 62.80642560091967 69.85000000000949
    vertex 3064.5972982204717 47.563371586443154 69.85000000000001
    vertex 3038.7584225181704 62.33064983874137 69.8500000000091
  endloop
endfacet
facet normal 3.523847880160246e-13 4.638016669834797e-27 1.0
  outer loop
    vertex 3038.7584225181704 62.33064983874137 69.8500000000091
    vertex 3064.5972982204717 47.563371586443154 69.85000000000001
    vertex 3039.991048220471 62.16837158644306 69.85000000000868
  endloop
endfacet
facet normal 3.523847880160246e-13 4.638016669834797e-27 1.0
  outer loop
    vertex 3015.3847982204707 124.39837158644237 69.85000000001732
    vertex 3035.3908264727693 65.6982458841423 69.85000000001028
    vertex 3035.228548220471 66.93087158644306 69.85000000001034
  endloop
endfacet
facet normal 3.523847880160246e-13 4.638016669834797e-27 1.0
  outer loop
    vertex 3015.3847982204707 124.39837158644237 69.85000000001732
    vertex 3035.228548220471 66.93087158644306 69.85000000001034
    vertex 3035.3908264727693 68.16349728874381 69.85000000001028
  endloop
endfacet
facet normal 3.523847880160246e-13 4.638016669834797e-27 1.0
  outer loop
    vertex 3015.3847982204707 124.39837158644237 69.85000000001732
    vertex 3035.3908264727693 68.16349728874381 69.85000000001028
    vertex 3035.866602234948 69.31212158644306 69.85000000001011
  endloop
endfacet
facet normal 3.523847880160246e-13 4.638016669834797e-27 1.0
  outer loop
    vertex 3015.3847982204707 124.39837158644237 69.85000000001732
    vertex 3035.866602234948 69.31212158644306 69.85000000001011
    vertex 3036.6234521750707 70.29846763184399 69.85000000000986
  endloop
endfacet
facet normal 3.523847880160246e-13 4.638016669834797e-27 1.0
  outer loop
    vertex 3015.3847982204707 124.39837158644237 69.85000000001732
    vertex 3036.6234521750707 70.29846763184399 69.85000000000986
    vertex 3037.6097982204715 71.05531757196646 69.85000000000949
  endloop
endfacet
facet normal 3.523847880160246e-13 4.638016669834797e-27 1.0
  outer loop
    vertex 3015.3847982204707 124.39837158644237 69.85000000001732
    vertex 3037.6097982204715 71.05531757196646 69.85000000000949
    vertex 3038.7584225181704 71.53109333414474 69.8500000000091
  endloop
endfacet
facet normal 3.523847880160246e-13 4.638016669834797e-27 1.0
  outer loop
    vertex 3015.3847982204707 124.39837158644237 69.85000000001732
    vertex 3038.7584225181704 71.53109333414474 69.8500000000091
    vertex 3039.9910482204714 71.69337158644306 69.85000000000868
  endloop
endfacet
facet normal 3.523847880160246e-13 4.638016669834797e-27 1.0
  outer loop
    vertex 3015.3847982204707 124.39837158644237 69.85000000001732
    vertex 3039.9910482204714 71.69337158644306 69.85000000000868
    vertex 3036.6234521750703 101.66327554104143 69.85000000000986
  endloop
endfacet
facet normal 3.523847880160246e-13 4.638016669834797e-27 1.0
  outer loop
    vertex 3036.6234521750703 101.66327554104143 69.85000000000986
    vertex 3039.9910482204714 71.69337158644306 69.85000000000868
    vertex 3037.609798220471 100.90642560091901 69.85000000000949
  endloop
endfacet
facet normal 3.523847880160246e-13 4.638016669834797e-27 1.0
  outer loop
    vertex 3037.609798220471 100.90642560091901 69.85000000000949
    vertex 3039.9910482204714 71.69337158644306 69.85000000000868
    vertex 3038.7584225181704 100.43064983874072 69.8500000000091
  endloop
endfacet
facet normal 3.523847880160246e-13 4.638016669834797e-27 1.0
  outer loop
    vertex 3038.7584225181704 100.43064983874072 69.8500000000091
    vertex 3039.9910482204714 71.69337158644306 69.85000000000868
    vertex 3039.991048220471 100.26837158644238 69.85000000000868
  endloop
endfacet
facet normal 3.523847880160246e-13 4.638016669834797e-27 1.0
  outer loop
    vertex 3015.3847982204707 124.39837158644237 69.85000000001732
    vertex 3036.6234521750703 101.66327554104143 69.85000000000986
    vertex 3035.8666022349475 102.6496215864424 69.85000000001011
  endloop
endfacet
facet normal 3.523847880160246e-13 4.638016669834797e-27 1.0
  outer loop
    vertex 3015.3847982204707 124.39837158644237 69.85000000001732
    vertex 3035.8666022349475 102.6496215864424 69.85000000001011
    vertex 3035.3908264727693 103.79824588414164 69.85000000001028
  endloop
endfacet
facet normal 3.523847880160246e-13 4.638016669834797e-27 1.0
  outer loop
    vertex 3015.3847982204707 124.39837158644237 69.85000000001732
    vertex 3035.3908264727693 103.79824588414164 69.85000000001028
    vertex 3035.228548220471 105.03087158644239 69.85000000001034
  endloop
endfacet
facet normal 3.523847880160246e-13 4.638016669834797e-27 1.0
  outer loop
    vertex 3015.3847982204707 124.39837158644237 69.85000000001732
    vertex 3035.228548220471 105.03087158644239 69.85000000001034
    vertex 3035.3908264727693 106.26349728874315 69.85000000001028
  endloop
endfacet
facet normal 3.523847880160246e-13 4.638016669834797e-27 1.0
  outer loop
    vertex 3015.3847982204707 124.39837158644237 69.85000000001732
    vertex 3035.3908264727693 106.26349728874315 69.85000000001028
    vertex 3035.8666022349475 107.4121215864424 69.85000000001011
  endloop
endfacet
facet normal 3.523847880160246e-13 4.638016669834797e-27 1.0
  outer loop
    vertex 3015.3847982204707 124.39837158644237 69.85000000001732
    vertex 3035.8666022349475 107.4121215864424 69.85000000001011
    vertex 3036.6234521750703 108.3984676318433 69.85000000000986
  endloop
endfacet
facet normal 3.523847880160246e-13 4.638016669834797e-27 1.0
  outer loop
    vertex 3015.3847982204707 124.39837158644237 69.85000000001732
    vertex 3036.6234521750703 108.3984676318433 69.85000000000986
    vertex 3037.609798220471 109.15531757196578 69.85000000000949
  endloop
endfacet
facet normal 3.523847880160246e-13 4.638016669834797e-27 1.0
  outer loop
    vertex 3015.3847982204707 124.39837158644237 69.85000000001732
    vertex 3037.609798220471 109.15531757196578 69.85000000000949
    vertex 3038.7584225181704 109.63109333414407 69.8500000000091
  endloop
endfacet
facet normal 3.523847880160246e-13 4.638016669834797e-27 1.0
  outer loop
    vertex 3015.3847982204707 124.39837158644237 69.85000000001732
    vertex 3038.7584225181704 109.63109333414407 69.8500000000091
    vertex 3039.9910482204705 109.79337158644239 69.85000000000868
  endloop
endfacet
facet normal -3.523847880160247e-13 2.2204460492502818e-16 -1.0
  outer loop
    vertex 3015.384798220445 54.2308715864424 1.7337153934704473e-11
    vertex 3020.941048220446 47.56337158644255 1.539701699471152e-11
    vertex 3015.384798220446 47.56337158644242 1.7337153934704473e-11
  endloop
endfacet
facet normal -3.523847880160247e-13 2.2204460492502818e-16 -1.0
  outer loop
    vertex 3020.941048220446 47.56337158644255 1.539701699471152e-11
    vertex 3015.384798220445 54.2308715864424 1.7337153934704473e-11
    vertex 3020.9410482204453 54.23087158644253 1.539701699471152e-11
  endloop
endfacet
facet normal -1.4210854715201925e-14 1.0 2.2204460493003584e-16
  outer loop
    vertex 3015.3847982204697 54.2308715864424 64.85000000001732
    vertex 3020.9410482204453 54.23087158644253 1.539701699471152e-11
    vertex 3015.384798220445 54.2308715864424 1.7337153934704473e-11
  endloop
endfacet
facet normal -1.4210854715201925e-14 1.0 2.2204460493003584e-16
  outer loop
    vertex 3020.9410482204453 54.23087158644253 1.539701699471152e-11
    vertex 3015.3847982204697 54.2308715864424 64.85000000001732
    vertex 3020.94104822047 54.23087158644253 64.85000000001538
  endloop
endfacet
facet normal 1.0 1.5619445923376034e-28 -3.523847880160247e-13
  outer loop
    vertex 3020.941048220446 47.56337158644255 1.539701699471152e-11
    vertex 3020.94104822047 54.23087158644253 64.85000000001538
    vertex 3020.94104822047 47.56337158644255 64.85000000001538
  endloop
endfacet
facet normal 1.0 1.5619445923376034e-28 -3.523847880160247e-13
  outer loop
    vertex 3020.94104822047 54.23087158644253 64.85000000001538
    vertex 3020.941048220446 47.56337158644255 1.539701699471152e-11
    vertex 3020.9410482204453 54.23087158644253 1.539701699471152e-11
  endloop
endfacet
facet normal -3.5216274341109965e-13 6.31088724176774e-30 -1.0
  outer loop
    vertex 3015.3847982204456 124.39837158644237 1.731459420284409e-11
    vertex 3020.9410482204444 117.73087158644253 1.5374457262851136e-11
    vertex 3015.3847982204443 117.73087158644239 1.731459420284409e-11
  endloop
endfacet
facet normal -3.5216274341109965e-13 6.31088724176774e-30 -1.0
  outer loop
    vertex 3020.9410482204444 117.73087158644253 1.5374457262851136e-11
    vertex 3015.3847982204456 124.39837158644237 1.731459420284409e-11
    vertex 3020.9410482204457 124.39837158644251 1.5374457262851136e-11
  endloop
endfacet
facet normal 1.0 0.0 -3.5216274341109965e-13
  outer loop
    vertex 3020.9410482204444 117.73087158644253 1.5374457262851136e-11
    vertex 3020.941048220469 124.39837158644251 64.85000000001538
    vertex 3020.941048220467 117.73087158644253 64.85000000001538
  endloop
endfacet
facet normal 1.0 0.0 -3.5216274341109965e-13
  outer loop
    vertex 3020.941048220469 124.39837158644251 64.85000000001538
    vertex 3020.9410482204444 117.73087158644253 1.5374457262851136e-11
    vertex 3020.9410482204457 124.39837158644251 1.5374457262851136e-11
  endloop
endfacet
facet normal 1.4210854715202004e-14 -1.0 -5.010844469963867e-27
  outer loop
    vertex 3020.9410482204444 117.73087158644253 1.5374457262851136e-11
    vertex 3015.3847982204675 117.73087158644239 64.85000000001732
    vertex 3015.3847982204443 117.73087158644239 1.731459420284409e-11
  endloop
endfacet
facet normal 1.4210854715202004e-14 -1.0 -5.010844469963867e-27
  outer loop
    vertex 3015.3847982204675 117.73087158644239 64.85000000001732
    vertex 3020.9410482204444 117.73087158644253 1.5374457262851136e-11
    vertex 3020.941048220467 117.73087158644253 64.85000000001538
  endloop
endfacet
facet normal -3.524043801870475e-13 1.4046617338071786e-17 -1.0
  outer loop
    vertex 3015.3847982204675 117.73087158644239 64.85000000001732
    vertex 3020.94104822047 54.23087158644253 64.85000000001538
    vertex 3015.3847982204697 54.2308715864424 64.85000000001732
  endloop
endfacet
facet normal -3.524043801870475e-13 1.4046617338071786e-17 -1.0
  outer loop
    vertex 3020.94104822047 54.23087158644253 64.85000000001538
    vertex 3015.3847982204675 117.73087158644239 64.85000000001732
    vertex 3035.3908264727665 65.6982458841423 64.8500000000103
  endloop
endfacet
facet normal -3.524043801870475e-13 1.4046617338071786e-17 -1.0
  outer loop
    vertex 3020.94104822047 54.23087158644253 64.85000000001538
    vertex 3035.3908264727665 65.6982458841423 64.8500000000103
    vertex 3035.8666022349444 64.54962158644305 64.85000000001013
  endloop
endfacet
facet normal -3.524043801870475e-13 1.4046617338071786e-17 -1.0
  outer loop
    vertex 3020.94104822047 54.23087158644253 64.85000000001538
    vertex 3035.8666022349444 64.54962158644305 64.85000000001013
    vertex 3036.623452175067 63.563275541042124 64.85000000000987
  endloop
endfacet
facet normal -3.524043801870475e-13 1.4046617338071786e-17 -1.0
  outer loop
    vertex 3020.94104822047 54.23087158644253 64.85000000001538
    vertex 3036.623452175067 63.563275541042124 64.85000000000987
    vertex 3037.609798220468 62.80642560091967 64.8500000000095
  endloop
endfacet
facet normal -3.524043801870475e-13 1.4046617338071786e-17 -1.0
  outer loop
    vertex 3020.94104822047 54.23087158644253 64.85000000001538
    vertex 3037.609798220468 62.80642560091967 64.8500000000095
    vertex 3038.758422518167 62.33064983874137 64.8500000000091
  endloop
endfacet
facet normal -3.524043801870475e-13 1.4046617338071786e-17 -1.0
  outer loop
    vertex 3020.94104822047 54.23087158644253 64.85000000001538
    vertex 3038.758422518167 62.33064983874137 64.8500000000091
    vertex 3064.59729822047 54.230871586443136 64.85000000000001
  endloop
endfacet
facet normal -3.524043801870475e-13 1.4046617338071786e-17 -1.0
  outer loop
    vertex 3064.59729822047 54.230871586443136 64.85000000000001
    vertex 3038.758422518167 62.33064983874137 64.8500000000091
    vertex 3039.991048220468 62.16837158644306 64.85000000000866
  endloop
endfacet
facet normal -3.524043801870475e-13 1.4046617338071786e-17 -1.0
  outer loop
    vertex 3035.3908264727665 65.6982458841423 64.8500000000103
    vertex 3015.3847982204675 117.73087158644239 64.85000000001732
    vertex 3035.2285482204684 66.93087158644306 64.85000000001035
  endloop
endfacet
facet normal -3.524043801870475e-13 1.4046617338071786e-17 -1.0
  outer loop
    vertex 3035.2285482204684 66.93087158644306 64.85000000001035
    vertex 3015.3847982204675 117.73087158644239 64.85000000001732
    vertex 3035.3908264727665 68.16349728874381 64.8500000000103
  endloop
endfacet
facet normal -3.524043801870475e-13 1.4046617338071786e-17 -1.0
  outer loop
    vertex 3035.3908264727665 68.16349728874381 64.8500000000103
    vertex 3015.3847982204675 117.73087158644239 64.85000000001732
    vertex 3035.866602234945 69.31212158644306 64.85000000001013
  endloop
endfacet
facet normal -3.524043801870475e-13 1.4046617338071786e-17 -1.0
  outer loop
    vertex 3035.866602234945 69.31212158644306 64.85000000001013
    vertex 3015.3847982204675 117.73087158644239 64.85000000001732
    vertex 3036.6234521750675 70.29846763184399 64.85000000000987
  endloop
endfacet
facet normal -3.524043801870475e-13 1.4046617338071786e-17 -1.0
  outer loop
    vertex 3036.6234521750675 70.29846763184399 64.85000000000987
    vertex 3015.3847982204675 117.73087158644239 64.85000000001732
    vertex 3037.6097982204683 71.05531757196646 64.8500000000095
  endloop
endfacet
facet normal -3.524043801870475e-13 1.4046617338071786e-17 -1.0
  outer loop
    vertex 3037.6097982204683 71.05531757196646 64.8500000000095
    vertex 3015.3847982204675 117.73087158644239 64.85000000001732
    vertex 3038.7584225181677 71.53109333414474 64.8500000000091
  endloop
endfacet
facet normal -3.524043801870475e-13 1.4046617338071786e-17 -1.0
  outer loop
    vertex 3038.7584225181677 71.53109333414474 64.8500000000091
    vertex 3015.3847982204675 117.73087158644239 64.85000000001732
    vertex 3039.991048220468 71.69337158644306 64.85000000000866
  endloop
endfacet
facet normal -3.524043801870475e-13 1.4046617338071786e-17 -1.0
  outer loop
    vertex 3039.991048220468 71.69337158644306 64.85000000000866
    vertex 3015.3847982204675 117.73087158644239 64.85000000001732
    vertex 3037.609798220464 100.90642560091901 64.8500000000095
  endloop
endfacet
facet normal -3.524043801870475e-13 1.4046617338071786e-17 -1.0
  outer loop
    vertex 3039.991048220468 71.69337158644306 64.85000000000866
    vertex 3037.609798220464 100.90642560091901 64.8500000000095
    vertex 3038.7584225181636 100.43064983874072 64.85000000000912
  endloop
endfacet
facet normal -3.524043801870475e-13 1.4046617338071786e-17 -1.0
  outer loop
    vertex 3039.991048220468 71.69337158644306 64.85000000000866
    vertex 3038.7584225181636 100.43064983874072 64.85000000000912
    vertex 3039.991048220464 100.26837158644238 64.85000000000866
  endloop
endfacet
facet normal -3.524043801870475e-13 1.4046617338071786e-17 -1.0
  outer loop
    vertex 3037.609798220464 100.90642560091901 64.8500000000095
    vertex 3015.3847982204675 117.73087158644239 64.85000000001732
    vertex 3036.6234521750634 101.66327554104143 64.85000000000986
  endloop
endfacet
facet normal -3.524043801870475e-13 1.4046617338071786e-17 -1.0
  outer loop
    vertex 3036.6234521750634 101.66327554104143 64.85000000000986
    vertex 3015.3847982204675 117.73087158644239 64.85000000001732
    vertex 3035.8666022349407 102.6496215864424 64.85000000001011
  endloop
endfacet
facet normal -3.524043801870475e-13 1.4046617338071786e-17 -1.0
  outer loop
    vertex 3035.8666022349407 102.6496215864424 64.85000000001011
    vertex 3015.3847982204675 117.73087158644239 64.85000000001732
    vertex 3035.3908264727625 103.79824588414164 64.8500000000103
  endloop
endfacet
facet normal -3.524043801870475e-13 1.4046617338071786e-17 -1.0
  outer loop
    vertex 3035.3908264727625 103.79824588414164 64.8500000000103
    vertex 3015.3847982204675 117.73087158644239 64.85000000001732
    vertex 3035.228548220464 105.03087158644239 64.85000000001034
  endloop
endfacet
facet normal -3.524043801870475e-13 1.4046617338071786e-17 -1.0
  outer loop
    vertex 3035.228548220464 105.03087158644239 64.85000000001034
    vertex 3015.3847982204675 117.73087158644239 64.85000000001732
    vertex 3035.3908264727625 106.26349728874315 64.8500000000103
  endloop
endfacet
facet normal -3.524043801870475e-13 1.4046617338071786e-17 -1.0
  outer loop
    vertex 3035.3908264727625 106.26349728874315 64.8500000000103
    vertex 3015.3847982204675 117.73087158644239 64.85000000001732
    vertex 3035.8666022349407 107.4121215864424 64.85000000001011
  endloop
endfacet
facet normal -3.524043801870475e-13 1.4046617338071786e-17 -1.0
  outer loop
    vertex 3035.8666022349407 107.4121215864424 64.85000000001011
    vertex 3015.3847982204675 117.73087158644239 64.85000000001732
    vertex 3036.6234521750634 108.3984676318433 64.85000000000986
  endloop
endfacet
facet normal -3.524043801870475e-13 1.4046617338071786e-17 -1.0
  outer loop
    vertex 3036.6234521750634 108.3984676318433 64.85000000000986
    vertex 3015.3847982204675 117.73087158644239 64.85000000001732
    vertex 3037.609798220464 109.15531757196578 64.8500000000095
  endloop
endfacet
facet normal -3.524043801870475e-13 1.4046617338071786e-17 -1.0
  outer loop
    vertex 3037.609798220464 109.15531757196578 64.8500000000095
    vertex 3015.3847982204675 117.73087158644239 64.85000000001732
    vertex 3038.7584225181636 109.63109333414407 64.85000000000912
  endloop
endfacet
facet normal -3.524043801870475e-13 1.4046617338071786e-17 -1.0
  outer loop
    vertex 3038.7584225181636 109.63109333414407 64.85000000000912
    vertex 3015.3847982204675 117.73087158644239 64.85000000001732
    vertex 3039.991048220464 109.79337158644239 64.85000000000866
  endloop
endfacet
facet normal -3.524043801870475e-13 1.4046617338071786e-17 -1.0
  outer loop
    vertex 3064.59729822047 54.230871586443136 64.85000000000001
    vertex 3044.5912699681703 65.69824588414231 64.85000000000706
    vertex 3064.597298220467 117.73087158644313 64.85000000000001
  endloop
endfacet
facet normal -3.524043801870475e-13 1.4046617338071786e-17 -1.0
  outer loop
    vertex 3044.5912699681703 65.69824588414231 64.85000000000706
    vertex 3064.59729822047 54.230871586443136 64.85000000000001
    vertex 3044.1154942059916 64.54962158644305 64.85000000000723
  endloop
endfacet
facet normal -3.524043801870475e-13 1.4046617338071786e-17 -1.0
  outer loop
    vertex 3044.1154942059916 64.54962158644305 64.85000000000723
    vertex 3064.59729822047 54.230871586443136 64.85000000000001
    vertex 3043.358644265869 63.563275541042124 64.85000000000748
  endloop
endfacet
facet normal -3.524043801870475e-13 1.4046617338071786e-17 -1.0
  outer loop
    vertex 3043.358644265869 63.563275541042124 64.85000000000748
    vertex 3064.59729822047 54.230871586443136 64.85000000000001
    vertex 3042.372298220468 62.80642560091967 64.85000000000784
  endloop
endfacet
facet normal -3.524043801870475e-13 1.4046617338071786e-17 -1.0
  outer loop
    vertex 3042.372298220468 62.80642560091967 64.85000000000784
    vertex 3064.59729822047 54.230871586443136 64.85000000000001
    vertex 3041.2236739227687 62.33064983874137 64.85000000000822
  endloop
endfacet
facet normal -3.524043801870475e-13 1.4046617338071786e-17 -1.0
  outer loop
    vertex 3041.2236739227687 62.33064983874137 64.85000000000822
    vertex 3064.59729822047 54.230871586443136 64.85000000000001
    vertex 3039.991048220468 62.16837158644306 64.85000000000866
  endloop
endfacet
facet normal -3.524043801870475e-13 1.4046617338071786e-17 -1.0
  outer loop
    vertex 3064.597298220467 117.73087158644313 64.85000000000001
    vertex 3044.5912699681703 65.69824588414231 64.85000000000706
    vertex 3044.7535482204685 66.93087158644306 64.850000000007
  endloop
endfacet
facet normal -3.524043801870475e-13 1.4046617338071786e-17 -1.0
  outer loop
    vertex 3064.597298220467 117.73087158644313 64.85000000000001
    vertex 3044.7535482204685 66.93087158644306 64.850000000007
    vertex 3044.5912699681703 68.16349728874381 64.85000000000706
  endloop
endfacet
facet normal -3.524043801870475e-13 1.4046617338071786e-17 -1.0
  outer loop
    vertex 3064.597298220467 117.73087158644313 64.85000000000001
    vertex 3044.5912699681703 68.16349728874381 64.85000000000706
    vertex 3044.115494205992 69.31212158644306 64.85000000000723
  endloop
endfacet
facet normal -3.524043801870475e-13 1.4046617338071786e-17 -1.0
  outer loop
    vertex 3064.597298220467 117.73087158644313 64.85000000000001
    vertex 3044.115494205992 69.31212158644306 64.85000000000723
    vertex 3043.3586442658693 70.29846763184399 64.85000000000748
  endloop
endfacet
facet normal -3.524043801870475e-13 1.4046617338071786e-17 -1.0
  outer loop
    vertex 3064.597298220467 117.73087158644313 64.85000000000001
    vertex 3043.3586442658693 70.29846763184399 64.85000000000748
    vertex 3042.3722982204686 71.05531757196644 64.85000000000784
  endloop
endfacet
facet normal -3.524043801870475e-13 1.4046617338071786e-17 -1.0
  outer loop
    vertex 3064.597298220467 117.73087158644313 64.85000000000001
    vertex 3042.3722982204686 71.05531757196644 64.85000000000784
    vertex 3041.223673922769 71.53109333414474 64.85000000000822
  endloop
endfacet
facet normal -3.524043801870475e-13 1.4046617338071786e-17 -1.0
  outer loop
    vertex 3064.597298220467 117.73087158644313 64.85000000000001
    vertex 3041.223673922769 71.53109333414474 64.85000000000822
    vertex 3039.991048220468 71.69337158644306 64.85000000000866
  endloop
endfacet
facet normal -3.524043801870475e-13 1.4046617338071786e-17 -1.0
  outer loop
    vertex 3064.597298220467 117.73087158644313 64.85000000000001
    vertex 3039.991048220468 71.69337158644306 64.85000000000866
    vertex 3042.372298220464 100.90642560091901 64.85000000000784
  endloop
endfacet
facet normal -3.524043801870475e-13 1.4046617338071786e-17 -1.0
  outer loop
    vertex 3042.372298220464 100.90642560091901 64.85000000000784
    vertex 3039.991048220468 71.69337158644306 64.85000000000866
    vertex 3041.2236739227646 100.4306498387407 64.85000000000822
  endloop
endfacet
facet normal -3.524043801870475e-13 1.4046617338071786e-17 -1.0
  outer loop
    vertex 3041.2236739227646 100.4306498387407 64.85000000000822
    vertex 3039.991048220468 71.69337158644306 64.85000000000866
    vertex 3039.991048220464 100.26837158644238 64.85000000000866
  endloop
endfacet
facet normal -3.524043801870475e-13 1.4046617338071786e-17 -1.0
  outer loop
    vertex 3064.597298220467 117.73087158644313 64.85000000000001
    vertex 3042.372298220464 100.90642560091901 64.85000000000784
    vertex 3043.3586442658648 101.66327554104143 64.8500000000075
  endloop
endfacet
facet normal -3.524043801870475e-13 1.4046617338071786e-17 -1.0
  outer loop
    vertex 3064.597298220467 117.73087158644313 64.85000000000001
    vertex 3043.3586442658648 101.66327554104143 64.8500000000075
    vertex 3044.1154942059875 102.64962158644236 64.85000000000724
  endloop
endfacet
facet normal -3.524043801870475e-13 1.4046617338071786e-17 -1.0
  outer loop
    vertex 3064.597298220467 117.73087158644313 64.85000000000001
    vertex 3044.1154942059875 102.64962158644236 64.85000000000724
    vertex 3044.5912699681658 103.79824588414164 64.85000000000706
  endloop
endfacet
facet normal -3.524043801870475e-13 1.4046617338071786e-17 -1.0
  outer loop
    vertex 3064.597298220467 117.73087158644313 64.85000000000001
    vertex 3044.5912699681658 103.79824588414164 64.85000000000706
    vertex 3044.753548220464 105.03087158644239 64.85000000000701
  endloop
endfacet
facet normal -3.524043801870475e-13 1.4046617338071786e-17 -1.0
  outer loop
    vertex 3064.597298220467 117.73087158644313 64.85000000000001
    vertex 3044.753548220464 105.03087158644239 64.85000000000701
    vertex 3044.5912699681658 106.26349728874315 64.85000000000706
  endloop
endfacet
facet normal -3.524043801870475e-13 1.4046617338071786e-17 -1.0
  outer loop
    vertex 3064.597298220467 117.73087158644313 64.85000000000001
    vertex 3044.5912699681658 106.26349728874315 64.85000000000706
    vertex 3044.1154942059875 107.41212158644237 64.85000000000724
  endloop
endfacet
facet normal -3.524043801870475e-13 1.4046617338071786e-17 -1.0
  outer loop
    vertex 3064.597298220467 117.73087158644313 64.85000000000001
    vertex 3044.1154942059875 107.41212158644237 64.85000000000724
    vertex 3043.3586442658648 108.3984676318433 64.8500000000075
  endloop
endfacet
facet normal -3.524043801870475e-13 1.4046617338071786e-17 -1.0
  outer loop
    vertex 3064.597298220467 117.73087158644313 64.85000000000001
    vertex 3043.3586442658648 108.3984676318433 64.8500000000075
    vertex 3042.372298220464 109.15531757196578 64.85000000000784
  endloop
endfacet
facet normal -3.524043801870475e-13 1.4046617338071786e-17 -1.0
  outer loop
    vertex 3064.597298220467 117.73087158644313 64.85000000000001
    vertex 3042.372298220464 109.15531757196578 64.85000000000784
    vertex 3041.2236739227646 109.63109333414407 64.85000000000822
  endloop
endfacet
facet normal -3.524043801870475e-13 1.4046617338071786e-17 -1.0
  outer loop
    vertex 3064.597298220467 117.73087158644313 64.85000000000001
    vertex 3041.2236739227646 109.63109333414407 64.85000000000822
    vertex 3039.991048220464 109.79337158644239 64.85000000000866
  endloop
endfacet
facet normal -3.524043801870475e-13 1.4046617338071786e-17 -1.0
  outer loop
    vertex 3064.597298220467 117.73087158644313 64.85000000000001
    vertex 3039.991048220464 109.79337158644239 64.85000000000866
    vertex 3015.3847982204675 117.73087158644239 64.85000000001732
  endloop
endfacet
facet normal -3.524043801870475e-13 1.4046617338071786e-17 -1.0
  outer loop
    vertex 3064.597298220467 117.73087158644313 64.85000000000001
    vertex 3015.3847982204675 117.73087158644239 64.85000000001732
    vertex 3020.941048220467 117.73087158644253 64.85000000001538
  endloop
endfacet
facet normal -3.524043801870475e-13 1.4046617338071786e-17 -1.0
  outer loop
    vertex 3064.597298220467 117.73087158644313 64.85000000000001
    vertex 3020.941048220467 117.73087158644253 64.85000000001538
    vertex 3059.0410482204675 117.73087158644312 64.8500000000019
  endloop
endfacet
facet normal -3.524043801870475e-13 1.4046617338071786e-17 -1.0
  outer loop
    vertex 3059.0410482204675 117.73087158644312 64.8500000000019
    vertex 3020.941048220467 117.73087158644253 64.85000000001538
    vertex 3020.941048220469 124.39837158644251 64.85000000001538
  endloop
endfacet
facet normal -3.524043801870475e-13 1.4046617338071786e-17 -1.0
  outer loop
    vertex 3059.0410482204675 117.73087158644312 64.8500000000019
    vertex 3020.941048220469 124.39837158644251 64.85000000001538
    vertex 3059.041048220469 124.39837158644305 64.85000000000191
  endloop
endfacet
facet normal -3.524043801870475e-13 1.4046617338071786e-17 -1.0
  outer loop
    vertex 3020.94104822047 54.23087158644253 64.85000000001538
    vertex 3059.0410482204697 47.563371586443076 64.8500000000019
    vertex 3020.94104822047 47.56337158644255 64.85000000001538
  endloop
endfacet
facet normal -3.524043801870475e-13 1.4046617338071786e-17 -1.0
  outer loop
    vertex 3059.0410482204697 47.563371586443076 64.8500000000019
    vertex 3020.94104822047 54.23087158644253 64.85000000001538
    vertex 3059.0410482204697 54.230871586443016 64.8500000000019
  endloop
endfacet
facet normal -3.524043801870475e-13 1.4046617338071786e-17 -1.0
  outer loop
    vertex 3059.0410482204697 54.230871586443016 64.8500000000019
    vertex 3020.94104822047 54.23087158644253 64.85000000001538
    vertex 3064.59729822047 54.230871586443136 64.85000000000001
  endloop
endfacet
facet normal -3.523847880160247e-13 2.2204460492502502e-16 -1.0
  outer loop
    vertex 3059.0410482204447 117.73087158644312 1.9175772081325704e-12
    vertex 3064.597298220446 124.39837158644312 2.255973186038318e-14
    vertex 3064.5972982204444 117.73087158644313 2.255973186038318e-14
  endloop
endfacet
facet normal -3.523847880160247e-13 2.2204460492502502e-16 -1.0
  outer loop
    vertex 3064.597298220446 124.39837158644312 2.255973186038318e-14
    vertex 3059.0410482204447 117.73087158644312 1.9175772081325704e-12
    vertex 3059.041048220446 124.39837158644305 1.9175772081325704e-12
  endloop
endfacet
facet normal 7.105427357600924e-15 -1.0 -2.2204460492752884e-16
  outer loop
    vertex 3064.5972982204444 117.73087158644313 2.255973186038318e-14
    vertex 3059.0410482204675 117.73087158644312 64.8500000000019
    vertex 3059.0410482204447 117.73087158644312 1.9175772081325704e-12
  endloop
endfacet
facet normal 7.105427357600924e-15 -1.0 -2.2204460492752884e-16
  outer loop
    vertex 3059.0410482204675 117.73087158644312 64.8500000000019
    vertex 3064.5972982204444 117.73087158644313 2.255973186038318e-14
    vertex 3064.597298220467 117.73087158644313 64.85000000000001
  endloop
endfacet
facet normal -1.0 -1.5619445923376034e-28 3.523847880160247e-13
  outer loop
    vertex 3059.041048220446 124.39837158644305 1.9175772081325704e-12
    vertex 3059.0410482204675 117.73087158644312 64.8500000000019
    vertex 3059.041048220469 124.39837158644305 64.85000000000191
  endloop
endfacet
facet normal -1.0 -1.5619445923376034e-28 3.523847880160247e-13
  outer loop
    vertex 3059.0410482204675 117.73087158644312 64.8500000000019
    vertex 3059.041048220446 124.39837158644305 1.9175772081325704e-12
    vertex 3059.0410482204447 117.73087158644312 1.9175772081325704e-12
  endloop
endfacet
facet normal -3.5216274341109965e-13 9.466330862651787e-30 -1.0
  outer loop
    vertex 3059.0410482204456 54.230871586443016 1.9062973422023785e-12
    vertex 3064.597298220446 47.563371586443154 1.127986593019159e-14
    vertex 3059.0410482204466 47.563371586443076 1.9062973422023785e-12
  endloop
endfacet
facet normal -3.5216274341109965e-13 9.466330862651787e-30 -1.0
  outer loop
    vertex 3064.597298220446 47.563371586443154 1.127986593019159e-14
    vertex 3059.0410482204456 54.230871586443016 1.9062973422023785e-12
    vertex 3064.5972982204457 54.230871586443136 1.127986593019159e-14
  endloop
endfacet
facet normal -1.0 0.0 3.5216274341109965e-13
  outer loop
    vertex 3059.0410482204456 54.230871586443016 1.9062973422023785e-12
    vertex 3059.0410482204697 47.563371586443076 64.8500000000019
    vertex 3059.0410482204697 54.230871586443016 64.8500000000019
  endloop
endfacet
facet normal -1.0 0.0 3.5216274341109965e-13
  outer loop
    vertex 3059.0410482204697 47.563371586443076 64.8500000000019
    vertex 3059.0410482204456 54.230871586443016 1.9062973422023785e-12
    vertex 3059.0410482204466 47.563371586443076 1.9062973422023785e-12
  endloop
endfacet
facet normal -2.1316282072803006e-14 1.0 7.5162667049458e-27
  outer loop
    vertex 3059.0410482204697 54.230871586443016 64.8500000000019
    vertex 3064.5972982204457 54.230871586443136 1.127986593019159e-14
    vertex 3059.0410482204456 54.230871586443016 1.9062973422023785e-12
  endloop
endfacet
facet normal -2.1316282072803006e-14 1.0 7.5162667049458e-27
  outer loop
    vertex 3064.5972982204457 54.230871586443136 1.127986593019159e-14
    vertex 3059.0410482204697 54.230871586443016 64.8500000000019
    vertex 3064.59729822047 54.230871586443136 64.85000000000001
  endloop
endfacet
facet normal -0.9914448613738236 0.13052619221995254 3.496103884546416e-13
  outer loop
    vertex 3044.753548220464 105.03087158644239 64.85000000000701
    vertex 3044.5912699681726 103.79824588414164 69.85000000000704
    vertex 3044.7535482204707 105.03087158644239 69.85000000000699
  endloop
endfacet
facet normal -0.9914448613738236 0.13052619221995254 3.496103884546416e-13
  outer loop
    vertex 3044.5912699681726 103.79824588414164 69.85000000000704
    vertex 3044.753548220464 105.03087158644239 64.85000000000701
    vertex 3044.5912699681658 103.79824588414164 64.85000000000706
  endloop
endfacet
facet normal -0.9914448613738236 -0.13052619221995254 3.4961038845464153e-13
  outer loop
    vertex 3044.5912699681658 106.26349728874315 64.85000000000706
    vertex 3044.7535482204707 105.03087158644239 69.85000000000699
    vertex 3044.5912699681726 106.26349728874315 69.85000000000704
  endloop
endfacet
facet normal -0.9914448613738236 -0.13052619221995254 3.4961038845464153e-13
  outer loop
    vertex 3044.7535482204707 105.03087158644239 69.85000000000699
    vertex 3044.5912699681658 106.26349728874315 64.85000000000706
    vertex 3044.753548220464 105.03087158644239 64.85000000000701
  endloop
endfacet
facet normal -0.9238795325112764 -0.38268343236511515 3.25785018239934e-13
  outer loop
    vertex 3044.1154942059875 107.41212158644237 64.85000000000724
    vertex 3044.5912699681726 106.26349728874315 69.85000000000704
    vertex 3044.1154942059943 107.41212158644237 69.85000000000721
  endloop
endfacet
facet normal -0.9238795325112764 -0.38268343236511515 3.25785018239934e-13
  outer loop
    vertex 3044.5912699681726 106.26349728874315 69.85000000000704
    vertex 3044.1154942059875 107.41212158644237 64.85000000000724
    vertex 3044.5912699681658 106.26349728874315 64.85000000000706
  endloop
endfacet
facet normal -0.7933533402911421 -0.6087614290088422 2.797579374173522e-13
  outer loop
    vertex 3043.3586442658648 108.3984676318433 64.8500000000075
    vertex 3044.1154942059943 107.41212158644237 69.85000000000721
    vertex 3043.3586442658716 108.3984676318433 69.85000000000747
  endloop
endfacet
facet normal -0.7933533402911421 -0.6087614290088422 2.797579374173522e-13
  outer loop
    vertex 3044.1154942059943 107.41212158644237 69.85000000000721
    vertex 3043.3586442658648 108.3984676318433 64.8500000000075
    vertex 3044.1154942059875 107.41212158644237 64.85000000000724
  endloop
endfacet
facet normal -0.6087614290087779 -0.7933533402911913 2.1466581548170875e-13
  outer loop
    vertex 3043.3586442658648 108.3984676318433 64.8500000000075
    vertex 3042.372298220471 109.15531757196578 69.85000000000782
    vertex 3042.372298220464 109.15531757196578 64.85000000000784
  endloop
endfacet
facet normal -0.6087614290087779 -0.7933533402911913 2.1466581548170875e-13
  outer loop
    vertex 3042.372298220471 109.15531757196578 69.85000000000782
    vertex 3043.3586442658648 108.3984676318433 64.8500000000075
    vertex 3043.3586442658716 108.3984676318433 69.85000000000747
  endloop
endfacet
facet normal -0.3826834323650585 -0.9238795325112997 1.3494457297293733e-13
  outer loop
    vertex 3042.372298220464 109.15531757196578 64.85000000000784
    vertex 3041.2236739227715 109.63109333414407 69.85000000000822
    vertex 3041.2236739227646 109.63109333414407 64.85000000000822
  endloop
endfacet
facet normal -0.3826834323650585 -0.9238795325112997 1.3494457297293733e-13
  outer loop
    vertex 3041.2236739227715 109.63109333414407 69.85000000000822
    vertex 3042.372298220464 109.15531757196578 64.85000000000784
    vertex 3042.372298220471 109.15531757196578 69.85000000000782
  endloop
endfacet
facet normal -0.13052619222006895 -0.9914448613738083 4.602708082255875e-14
  outer loop
    vertex 3041.2236739227646 109.63109333414407 64.85000000000822
    vertex 3039.9910482204705 109.79337158644239 69.85000000000868
    vertex 3039.991048220464 109.79337158644239 64.85000000000866
  endloop
endfacet
facet normal -0.13052619222006895 -0.9914448613738083 4.602708082255875e-14
  outer loop
    vertex 3039.9910482204705 109.79337158644239 69.85000000000868
    vertex 3041.2236739227646 109.63109333414407 64.85000000000822
    vertex 3041.2236739227715 109.63109333414407 69.85000000000822
  endloop
endfacet
facet normal 0.13052619222006895 -0.9914448613738083 -4.6027080822558736e-14
  outer loop
    vertex 3039.991048220464 109.79337158644239 64.85000000000866
    vertex 3038.7584225181704 109.63109333414407 69.8500000000091
    vertex 3038.7584225181636 109.63109333414407 64.85000000000912
  endloop
endfacet
facet normal 0.13052619222006895 -0.9914448613738083 -4.6027080822558736e-14
  outer loop
    vertex 3038.7584225181704 109.63109333414407 69.8500000000091
    vertex 3039.991048220464 109.79337158644239 64.85000000000866
    vertex 3039.9910482204705 109.79337158644239 69.85000000000868
  endloop
endfacet
facet normal 0.3826834323650585 -0.9238795325112997 -1.349445729729373e-13
  outer loop
    vertex 3038.7584225181636 109.63109333414407 64.85000000000912
    vertex 3037.609798220471 109.15531757196578 69.85000000000949
    vertex 3037.609798220464 109.15531757196578 64.8500000000095
  endloop
endfacet
facet normal 0.3826834323650585 -0.9238795325112997 -1.349445729729373e-13
  outer loop
    vertex 3037.609798220471 109.15531757196578 69.85000000000949
    vertex 3038.7584225181636 109.63109333414407 64.85000000000912
    vertex 3038.7584225181704 109.63109333414407 69.8500000000091
  endloop
endfacet
facet normal 0.6087614290087779 -0.7933533402911913 -2.1466581548170877e-13
  outer loop
    vertex 3037.609798220464 109.15531757196578 64.8500000000095
    vertex 3036.6234521750703 108.3984676318433 69.85000000000986
    vertex 3036.6234521750634 108.3984676318433 64.85000000000986
  endloop
endfacet
facet normal 0.6087614290087779 -0.7933533402911913 -2.1466581548170877e-13
  outer loop
    vertex 3036.6234521750703 108.3984676318433 69.85000000000986
    vertex 3037.609798220464 109.15531757196578 64.8500000000095
    vertex 3037.609798220471 109.15531757196578 69.85000000000949
  endloop
endfacet
facet normal 0.7933533402911421 -0.6087614290088422 -2.797579374173522e-13
  outer loop
    vertex 3035.8666022349407 107.4121215864424 64.85000000001011
    vertex 3036.6234521750703 108.3984676318433 69.85000000000986
    vertex 3035.8666022349475 107.4121215864424 69.85000000001011
  endloop
endfacet
facet normal 0.7933533402911421 -0.6087614290088422 -2.797579374173522e-13
  outer loop
    vertex 3036.6234521750703 108.3984676318433 69.85000000000986
    vertex 3035.8666022349407 107.4121215864424 64.85000000001011
    vertex 3036.6234521750634 108.3984676318433 64.85000000000986
  endloop
endfacet
facet normal 0.9238795325112764 -0.38268343236511515 -3.25785018239934e-13
  outer loop
    vertex 3035.3908264727625 106.26349728874315 64.8500000000103
    vertex 3035.8666022349475 107.4121215864424 69.85000000001011
    vertex 3035.3908264727693 106.26349728874315 69.85000000001028
  endloop
endfacet
facet normal 0.9238795325112764 -0.38268343236511515 -3.25785018239934e-13
  outer loop
    vertex 3035.8666022349475 107.4121215864424 69.85000000001011
    vertex 3035.3908264727625 106.26349728874315 64.8500000000103
    vertex 3035.8666022349407 107.4121215864424 64.85000000001011
  endloop
endfacet
facet normal 0.9914448613738236 -0.13052619221995254 -3.496103884546416e-13
  outer loop
    vertex 3035.228548220464 105.03087158644239 64.85000000001034
    vertex 3035.3908264727693 106.26349728874315 69.85000000001028
    vertex 3035.228548220471 105.03087158644239 69.85000000001034
  endloop
endfacet
facet normal 0.9914448613738236 -0.13052619221995254 -3.496103884546416e-13
  outer loop
    vertex 3035.3908264727693 106.26349728874315 69.85000000001028
    vertex 3035.228548220464 105.03087158644239 64.85000000001034
    vertex 3035.3908264727625 106.26349728874315 64.8500000000103
  endloop
endfacet
facet normal 0.9914448613738236 0.13052619221995254 -3.4961038845464153e-13
  outer loop
    vertex 3035.3908264727625 103.79824588414164 64.8500000000103
    vertex 3035.228548220471 105.03087158644239 69.85000000001034
    vertex 3035.3908264727693 103.79824588414164 69.85000000001028
  endloop
endfacet
facet normal 0.9914448613738236 0.13052619221995254 -3.4961038845464153e-13
  outer loop
    vertex 3035.228548220471 105.03087158644239 69.85000000001034
    vertex 3035.3908264727625 103.79824588414164 64.8500000000103
    vertex 3035.228548220464 105.03087158644239 64.85000000001034
  endloop
endfacet
facet normal 0.9238795325112764 0.38268343236511515 -3.25785018239934e-13
  outer loop
    vertex 3035.8666022349407 102.6496215864424 64.85000000001011
    vertex 3035.3908264727693 103.79824588414164 69.85000000001028
    vertex 3035.8666022349475 102.6496215864424 69.85000000001011
  endloop
endfacet
facet normal 0.9238795325112764 0.38268343236511515 -3.25785018239934e-13
  outer loop
    vertex 3035.3908264727693 103.79824588414164 69.85000000001028
    vertex 3035.8666022349407 102.6496215864424 64.85000000001011
    vertex 3035.3908264727625 103.79824588414164 64.8500000000103
  endloop
endfacet
facet normal 0.7933533402911421 0.6087614290088422 -2.797579374173522e-13
  outer loop
    vertex 3036.6234521750634 101.66327554104143 64.85000000000986
    vertex 3035.8666022349475 102.6496215864424 69.85000000001011
    vertex 3036.6234521750703 101.66327554104143 69.85000000000986
  endloop
endfacet
facet normal 0.7933533402911421 0.6087614290088422 -2.797579374173522e-13
  outer loop
    vertex 3035.8666022349475 102.6496215864424 69.85000000001011
    vertex 3036.6234521750634 101.66327554104143 64.85000000000986
    vertex 3035.8666022349407 102.6496215864424 64.85000000001011
  endloop
endfacet
facet normal 0.6087614290087779 0.7933533402911913 -2.1466581548170875e-13
  outer loop
    vertex 3036.6234521750703 101.66327554104143 69.85000000000986
    vertex 3037.609798220464 100.90642560091901 64.8500000000095
    vertex 3036.6234521750634 101.66327554104143 64.85000000000986
  endloop
endfacet
facet normal 0.6087614290087779 0.7933533402911913 -2.1466581548170875e-13
  outer loop
    vertex 3037.609798220464 100.90642560091901 64.8500000000095
    vertex 3036.6234521750703 101.66327554104143 69.85000000000986
    vertex 3037.609798220471 100.90642560091901 69.85000000000949
  endloop
endfacet
facet normal 0.38268343236506625 0.9238795325112965 -1.3494457297294003e-13
  outer loop
    vertex 3037.609798220471 100.90642560091901 69.85000000000949
    vertex 3038.7584225181636 100.43064983874072 64.85000000000912
    vertex 3037.609798220464 100.90642560091901 64.8500000000095
  endloop
endfacet
facet normal 0.38268343236506625 0.9238795325112965 -1.3494457297294003e-13
  outer loop
    vertex 3038.7584225181636 100.43064983874072 64.85000000000912
    vertex 3037.609798220471 100.90642560091901 69.85000000000949
    vertex 3038.7584225181704 100.43064983874072 69.8500000000091
  endloop
endfacet
facet normal 0.13052619222006004 0.9914448613738095 -4.6027080822555606e-14
  outer loop
    vertex 3038.7584225181704 100.43064983874072 69.8500000000091
    vertex 3039.991048220464 100.26837158644238 64.85000000000866
    vertex 3038.7584225181636 100.43064983874072 64.85000000000912
  endloop
endfacet
facet normal 0.13052619222006004 0.9914448613738095 -4.6027080822555606e-14
  outer loop
    vertex 3039.991048220464 100.26837158644238 64.85000000000866
    vertex 3038.7584225181704 100.43064983874072 69.8500000000091
    vertex 3039.991048220471 100.26837158644238 69.85000000000868
  endloop
endfacet
facet normal -0.13052619222006 0.9914448613738093 4.602708082255558e-14
  outer loop
    vertex 3039.991048220471 100.26837158644238 69.85000000000868
    vertex 3041.2236739227646 100.4306498387407 64.85000000000822
    vertex 3039.991048220464 100.26837158644238 64.85000000000866
  endloop
endfacet
facet normal -0.13052619222006 0.9914448613738093 4.602708082255558e-14
  outer loop
    vertex 3041.2236739227646 100.4306498387407 64.85000000000822
    vertex 3039.991048220471 100.26837158644238 69.85000000000868
    vertex 3041.2236739227715 100.4306498387407 69.85000000000822
  endloop
endfacet
facet normal -0.38268343236506625 0.9238795325112965 1.3494457297294003e-13
  outer loop
    vertex 3041.2236739227715 100.4306498387407 69.85000000000822
    vertex 3042.372298220464 100.90642560091901 64.85000000000784
    vertex 3041.2236739227646 100.4306498387407 64.85000000000822
  endloop
endfacet
facet normal -0.38268343236506625 0.9238795325112965 1.3494457297294003e-13
  outer loop
    vertex 3042.372298220464 100.90642560091901 64.85000000000784
    vertex 3041.2236739227715 100.4306498387407 69.85000000000822
    vertex 3042.372298220471 100.90642560091901 69.85000000000782
  endloop
endfacet
facet normal -0.6087614290087779 0.7933533402911913 2.1466581548170877e-13
  outer loop
    vertex 3042.372298220471 100.90642560091901 69.85000000000782
    vertex 3043.3586442658648 101.66327554104143 64.8500000000075
    vertex 3042.372298220464 100.90642560091901 64.85000000000784
  endloop
endfacet
facet normal -0.6087614290087779 0.7933533402911913 2.1466581548170877e-13
  outer loop
    vertex 3043.3586442658648 101.66327554104143 64.8500000000075
    vertex 3042.372298220471 100.90642560091901 69.85000000000782
    vertex 3043.3586442658716 101.66327554104143 69.85000000000747
  endloop
endfacet
facet normal -0.7933533402911421 0.6087614290088422 2.797579374173522e-13
  outer loop
    vertex 3044.1154942059875 102.64962158644236 64.85000000000724
    vertex 3043.3586442658716 101.66327554104143 69.85000000000747
    vertex 3044.1154942059943 102.64962158644236 69.85000000000721
  endloop
endfacet
facet normal -0.7933533402911421 0.6087614290088422 2.797579374173522e-13
  outer loop
    vertex 3043.3586442658716 101.66327554104143 69.85000000000747
    vertex 3044.1154942059875 102.64962158644236 64.85000000000724
    vertex 3043.3586442658648 101.66327554104143 64.8500000000075
  endloop
endfacet
facet normal -0.9238795325112764 0.38268343236511515 3.25785018239934e-13
  outer loop
    vertex 3044.5912699681658 103.79824588414164 64.85000000000706
    vertex 3044.1154942059943 102.64962158644236 69.85000000000721
    vertex 3044.5912699681726 103.79824588414164 69.85000000000704
  endloop
endfacet
facet normal -0.9238795325112764 0.38268343236511515 3.25785018239934e-13
  outer loop
    vertex 3044.1154942059943 102.64962158644236 69.85000000000721
    vertex 3044.5912699681658 103.79824588414164 64.85000000000706
    vertex 3044.1154942059875 102.64962158644236 64.85000000000724
  endloop
endfacet
facet normal -0.9914448613738235 0.13052619221995373 3.496103884546416e-13
  outer loop
    vertex 3044.7535482204685 66.93087158644306 64.850000000007
    vertex 3044.591269968173 65.69824588414231 69.85000000000704
    vertex 3044.753548220471 66.93087158644306 69.85000000000699
  endloop
endfacet
facet normal -0.9914448613738235 0.13052619221995373 3.496103884546416e-13
  outer loop
    vertex 3044.591269968173 65.69824588414231 69.85000000000704
    vertex 3044.7535482204685 66.93087158644306 64.850000000007
    vertex 3044.5912699681703 65.69824588414231 64.85000000000706
  endloop
endfacet
facet normal -0.9914448613738233 -0.1305261922199537 3.496103884546414e-13
  outer loop
    vertex 3044.5912699681703 68.16349728874381 64.85000000000706
    vertex 3044.753548220471 66.93087158644306 69.85000000000699
    vertex 3044.591269968173 68.16349728874381 69.85000000000704
  endloop
endfacet
facet normal -0.9914448613738233 -0.1305261922199537 3.496103884546414e-13
  outer loop
    vertex 3044.753548220471 66.93087158644306 69.85000000000699
    vertex 3044.5912699681703 68.16349728874381 64.85000000000706
    vertex 3044.7535482204685 66.93087158644306 64.850000000007
  endloop
endfacet
facet normal -0.9238795325112777 -0.382683432365112 3.257850182399345e-13
  outer loop
    vertex 3044.115494205992 69.31212158644306 64.85000000000723
    vertex 3044.591269968173 68.16349728874381 69.85000000000704
    vertex 3044.1154942059948 69.31212158644306 69.85000000000721
  endloop
endfacet
facet normal -0.9238795325112777 -0.382683432365112 3.257850182399345e-13
  outer loop
    vertex 3044.591269968173 68.16349728874381 69.85000000000704
    vertex 3044.115494205992 69.31212158644306 64.85000000000723
    vertex 3044.5912699681703 68.16349728874381 64.85000000000706
  endloop
endfacet
facet normal -0.7933533402911421 -0.6087614290088422 2.797579374173522e-13
  outer loop
    vertex 3043.3586442658693 70.29846763184399 64.85000000000748
    vertex 3044.1154942059948 69.31212158644306 69.85000000000721
    vertex 3043.358644265872 70.29846763184399 69.85000000000747
  endloop
endfacet
facet normal -0.7933533402911421 -0.6087614290088422 2.797579374173522e-13
  outer loop
    vertex 3044.1154942059948 69.31212158644306 69.85000000000721
    vertex 3043.3586442658693 70.29846763184399 64.85000000000748
    vertex 3044.115494205992 69.31212158644306 64.85000000000723
  endloop
endfacet
facet normal -0.6087614290087779 -0.7933533402911913 2.1466581548170875e-13
  outer loop
    vertex 3043.3586442658693 70.29846763184399 64.85000000000748
    vertex 3042.3722982204713 71.05531757196644 69.85000000000782
    vertex 3042.3722982204686 71.05531757196644 64.85000000000784
  endloop
endfacet
facet normal -0.6087614290087779 -0.7933533402911913 2.1466581548170875e-13
  outer loop
    vertex 3042.3722982204713 71.05531757196644 69.85000000000782
    vertex 3043.3586442658693 70.29846763184399 64.85000000000748
    vertex 3043.358644265872 70.29846763184399 69.85000000000747
  endloop
endfacet
facet normal -0.38268343236506625 -0.9238795325112965 1.3494457297294003e-13
  outer loop
    vertex 3042.3722982204686 71.05531757196644 64.85000000000784
    vertex 3041.223673922772 71.53109333414474 69.85000000000822
    vertex 3041.223673922769 71.53109333414474 64.85000000000822
  endloop
endfacet
facet normal -0.38268343236506625 -0.9238795325112965 1.3494457297294003e-13
  outer loop
    vertex 3041.223673922772 71.53109333414474 69.85000000000822
    vertex 3042.3722982204686 71.05531757196644 64.85000000000784
    vertex 3042.3722982204713 71.05531757196644 69.85000000000782
  endloop
endfacet
facet normal -0.13052619222006004 -0.9914448613738095 4.602708082255559e-14
  outer loop
    vertex 3041.223673922769 71.53109333414474 64.85000000000822
    vertex 3039.9910482204714 71.69337158644306 69.85000000000868
    vertex 3039.991048220468 71.69337158644306 64.85000000000866
  endloop
endfacet
facet normal -0.13052619222006004 -0.9914448613738095 4.602708082255559e-14
  outer loop
    vertex 3039.9910482204714 71.69337158644306 69.85000000000868
    vertex 3041.223673922769 71.53109333414474 64.85000000000822
    vertex 3041.223673922772 71.53109333414474 69.85000000000822
  endloop
endfacet
facet normal 0.13052619222006 -0.9914448613738093 -4.602708082255559e-14
  outer loop
    vertex 3039.991048220468 71.69337158644306 64.85000000000866
    vertex 3038.7584225181704 71.53109333414474 69.8500000000091
    vertex 3038.7584225181677 71.53109333414474 64.8500000000091
  endloop
endfacet
facet normal 0.13052619222006 -0.9914448613738093 -4.602708082255559e-14
  outer loop
    vertex 3038.7584225181704 71.53109333414474 69.8500000000091
    vertex 3039.991048220468 71.69337158644306 64.85000000000866
    vertex 3039.9910482204714 71.69337158644306 69.85000000000868
  endloop
endfacet
facet normal 0.38268343236506625 -0.9238795325112965 -1.3494457297294003e-13
  outer loop
    vertex 3038.7584225181677 71.53109333414474 64.8500000000091
    vertex 3037.6097982204715 71.05531757196646 69.85000000000949
    vertex 3037.6097982204683 71.05531757196646 64.8500000000095
  endloop
endfacet
facet normal 0.38268343236506625 -0.9238795325112965 -1.3494457297294003e-13
  outer loop
    vertex 3037.6097982204715 71.05531757196646 69.85000000000949
    vertex 3038.7584225181677 71.53109333414474 64.8500000000091
    vertex 3038.7584225181704 71.53109333414474 69.8500000000091
  endloop
endfacet
facet normal 0.6087614290087779 -0.7933533402911913 -2.1466581548170877e-13
  outer loop
    vertex 3037.6097982204683 71.05531757196646 64.8500000000095
    vertex 3036.6234521750707 70.29846763184399 69.85000000000986
    vertex 3036.6234521750675 70.29846763184399 64.85000000000987
  endloop
endfacet
facet normal 0.6087614290087779 -0.7933533402911913 -2.1466581548170877e-13
  outer loop
    vertex 3036.6234521750707 70.29846763184399 69.85000000000986
    vertex 3037.6097982204683 71.05531757196646 64.8500000000095
    vertex 3037.6097982204715 71.05531757196646 69.85000000000949
  endloop
endfacet
facet normal 0.7933533402911421 -0.6087614290088422 -2.797579374173522e-13
  outer loop
    vertex 3035.866602234945 69.31212158644306 64.85000000001013
    vertex 3036.6234521750707 70.29846763184399 69.85000000000986
    vertex 3035.866602234948 69.31212158644306 69.85000000001011
  endloop
endfacet
facet normal 0.7933533402911421 -0.6087614290088422 -2.797579374173522e-13
  outer loop
    vertex 3036.6234521750707 70.29846763184399 69.85000000000986
    vertex 3035.866602234945 69.31212158644306 64.85000000001013
    vertex 3036.6234521750675 70.29846763184399 64.85000000000987
  endloop
endfacet
facet normal 0.9238795325112777 -0.382683432365112 -3.2578501823993447e-13
  outer loop
    vertex 3035.3908264727665 68.16349728874381 64.8500000000103
    vertex 3035.866602234948 69.31212158644306 69.85000000001011
    vertex 3035.3908264727693 68.16349728874381 69.85000000001028
  endloop
endfacet
facet normal 0.9238795325112777 -0.382683432365112 -3.2578501823993447e-13
  outer loop
    vertex 3035.866602234948 69.31212158644306 69.85000000001011
    vertex 3035.3908264727665 68.16349728874381 64.8500000000103
    vertex 3035.866602234945 69.31212158644306 64.85000000001013
  endloop
endfacet
facet normal 0.9914448613738235 -0.13052619221995373 -3.496103884546416e-13
  outer loop
    vertex 3035.2285482204684 66.93087158644306 64.85000000001035
    vertex 3035.3908264727693 68.16349728874381 69.85000000001028
    vertex 3035.228548220471 66.93087158644306 69.85000000001034
  endloop
endfacet
facet normal 0.9914448613738235 -0.13052619221995373 -3.496103884546416e-13
  outer loop
    vertex 3035.3908264727693 68.16349728874381 69.85000000001028
    vertex 3035.2285482204684 66.93087158644306 64.85000000001035
    vertex 3035.3908264727665 68.16349728874381 64.8500000000103
  endloop
endfacet
facet normal 0.9914448613738236 0.13052619221995254 -3.4961038845464153e-13
  outer loop
    vertex 3035.3908264727665 65.6982458841423 64.8500000000103
    vertex 3035.228548220471 66.93087158644306 69.85000000001034
    vertex 3035.3908264727693 65.6982458841423 69.85000000001028
  endloop
endfacet
facet normal 0.9914448613738236 0.13052619221995254 -3.4961038845464153e-13
  outer loop
    vertex 3035.228548220471 66.93087158644306 69.85000000001034
    vertex 3035.3908264727665 65.6982458841423 64.8500000000103
    vertex 3035.2285482204684 66.93087158644306 64.85000000001035
  endloop
endfacet
facet normal 0.9238795325112764 0.38268343236511515 -3.25785018239934e-13
  outer loop
    vertex 3035.8666022349444 64.54962158644305 64.85000000001013
    vertex 3035.3908264727693 65.6982458841423 69.85000000001028
    vertex 3035.8666022349475 64.54962158644305 69.85000000001011
  endloop
endfacet
facet normal 0.9238795325112764 0.38268343236511515 -3.25785018239934e-13
  outer loop
    vertex 3035.3908264727693 65.6982458841423 69.85000000001028
    vertex 3035.8666022349444 64.54962158644305 64.85000000001013
    vertex 3035.3908264727665 65.6982458841423 64.8500000000103
  endloop
endfacet
facet normal 0.7933533402911421 0.6087614290088422 -2.797579374173522e-13
  outer loop
    vertex 3036.623452175067 63.563275541042124 64.85000000000987
    vertex 3035.8666022349475 64.54962158644305 69.85000000001011
    vertex 3036.6234521750703 63.563275541042124 69.85000000000986
  endloop
endfacet
facet normal 0.7933533402911421 0.6087614290088422 -2.797579374173522e-13
  outer loop
    vertex 3035.8666022349475 64.54962158644305 69.85000000001011
    vertex 3036.623452175067 63.563275541042124 64.85000000000987
    vertex 3035.8666022349444 64.54962158644305 64.85000000001013
  endloop
endfacet
facet normal 0.6087614290087779 0.7933533402911913 -2.1466581548170875e-13
  outer loop
    vertex 3036.6234521750703 63.563275541042124 69.85000000000986
    vertex 3037.609798220468 62.80642560091967 64.8500000000095
    vertex 3036.623452175067 63.563275541042124 64.85000000000987
  endloop
endfacet
facet normal 0.6087614290087779 0.7933533402911913 -2.1466581548170875e-13
  outer loop
    vertex 3037.609798220468 62.80642560091967 64.8500000000095
    vertex 3036.6234521750703 63.563275541042124 69.85000000000986
    vertex 3037.609798220471 62.80642560091967 69.85000000000949
  endloop
endfacet
facet normal 0.38268343236506625 0.9238795325112965 -1.3494457297294003e-13
  outer loop
    vertex 3037.609798220471 62.80642560091967 69.85000000000949
    vertex 3038.758422518167 62.33064983874137 64.8500000000091
    vertex 3037.609798220468 62.80642560091967 64.8500000000095
  endloop
endfacet
facet normal 0.38268343236506625 0.9238795325112965 -1.3494457297294003e-13
  outer loop
    vertex 3038.758422518167 62.33064983874137 64.8500000000091
    vertex 3037.609798220471 62.80642560091967 69.85000000000949
    vertex 3038.7584225181704 62.33064983874137 69.8500000000091
  endloop
endfacet
facet normal 0.13052619222006004 0.9914448613738095 -4.602708082255559e-14
  outer loop
    vertex 3038.7584225181704 62.33064983874137 69.8500000000091
    vertex 3039.991048220468 62.16837158644306 64.85000000000866
    vertex 3038.758422518167 62.33064983874137 64.8500000000091
  endloop
endfacet
facet normal 0.13052619222006004 0.9914448613738095 -4.602708082255559e-14
  outer loop
    vertex 3039.991048220468 62.16837158644306 64.85000000000866
    vertex 3038.7584225181704 62.33064983874137 69.8500000000091
    vertex 3039.991048220471 62.16837158644306 69.85000000000868
  endloop
endfacet
facet normal -0.13052619222006 0.9914448613738093 4.602708082255559e-14
  outer loop
    vertex 3039.991048220471 62.16837158644306 69.85000000000868
    vertex 3041.2236739227687 62.33064983874137 64.85000000000822
    vertex 3039.991048220468 62.16837158644306 64.85000000000866
  endloop
endfacet
facet normal -0.13052619222006 0.9914448613738093 4.602708082255559e-14
  outer loop
    vertex 3041.2236739227687 62.33064983874137 64.85000000000822
    vertex 3039.991048220471 62.16837158644306 69.85000000000868
    vertex 3041.2236739227715 62.33064983874137 69.85000000000822
  endloop
endfacet
facet normal -0.38268343236506625 0.9238795325112965 1.3494457297294003e-13
  outer loop
    vertex 3041.2236739227715 62.33064983874137 69.85000000000822
    vertex 3042.372298220468 62.80642560091967 64.85000000000784
    vertex 3041.2236739227687 62.33064983874137 64.85000000000822
  endloop
endfacet
facet normal -0.38268343236506625 0.9238795325112965 1.3494457297294003e-13
  outer loop
    vertex 3042.372298220468 62.80642560091967 64.85000000000784
    vertex 3041.2236739227715 62.33064983874137 69.85000000000822
    vertex 3042.372298220471 62.80642560091967 69.85000000000782
  endloop
endfacet
facet normal -0.6087614290087779 0.7933533402911913 2.1466581548170877e-13
  outer loop
    vertex 3042.372298220471 62.80642560091967 69.85000000000782
    vertex 3043.358644265869 63.563275541042124 64.85000000000748
    vertex 3042.372298220468 62.80642560091967 64.85000000000784
  endloop
endfacet
facet normal -0.6087614290087779 0.7933533402911913 2.1466581548170877e-13
  outer loop
    vertex 3043.358644265869 63.563275541042124 64.85000000000748
    vertex 3042.372298220471 62.80642560091967 69.85000000000782
    vertex 3043.3586442658716 63.563275541042124 69.85000000000747
  endloop
endfacet
facet normal -0.7933533402911421 0.6087614290088422 2.797579374173522e-13
  outer loop
    vertex 3044.1154942059916 64.54962158644305 64.85000000000723
    vertex 3043.3586442658716 63.563275541042124 69.85000000000747
    vertex 3044.1154942059943 64.54962158644305 69.85000000000721
  endloop
endfacet
facet normal -0.7933533402911421 0.6087614290088422 2.797579374173522e-13
  outer loop
    vertex 3043.3586442658716 63.563275541042124 69.85000000000747
    vertex 3044.1154942059916 64.54962158644305 64.85000000000723
    vertex 3043.358644265869 63.563275541042124 64.85000000000748
  endloop
endfacet
facet normal -0.9238795325112777 0.382683432365112 3.2578501823993447e-13
  outer loop
    vertex 3044.5912699681703 65.69824588414231 64.85000000000706
    vertex 3044.1154942059943 64.54962158644305 69.85000000000721
    vertex 3044.591269968173 65.69824588414231 69.85000000000704
  endloop
endfacet
facet normal -0.9238795325112777 0.382683432365112 3.2578501823993447e-13
  outer loop
    vertex 3044.1154942059943 64.54962158644305 69.85000000000721
    vertex 3044.5912699681703 65.69824588414231 64.85000000000706
    vertex 3044.1154942059916 64.54962158644305 64.85000000000723
  endloop
endfacet
endsolid box draft 1
