solid box draft 1
facet normal -8.105984057204353e-28 1.0 2.0132044179869503e-14
  outer loop
    vertex 2854.921890961735 729.618095630262 35.050000000002036
    vertex 2859.684390961735 729.6180956302621 28.700000000002227
    vertex 2854.921890961735 729.6180956302621 28.700000000002035
  endloop
endfacet
facet normal -8.105984057204353e-28 1.0 2.0132044179869503e-14
  outer loop
    vertex 2859.684390961735 729.6180956302621 28.700000000002227
    vertex 2854.921890961735 729.618095630262 35.050000000002036
    vertex 2859.684390961735 729.618095630262 35.05000000000223
  endloop
endfacet
facet normal -1.0 0.0 -0.0
  outer loop
    vertex 2859.684390961735 755.018095630262 35.05000000000469
    vertex 2859.684390961735 751.8430956302622 28.700000000004685
    vertex 2859.684390961735 751.843095630262 35.05000000000469
  endloop
endfacet
facet normal -1.0 0.0 -0.0
  outer loop
    vertex 2859.684390961735 751.8430956302622 28.700000000004685
    vertex 2859.684390961735 755.018095630262 35.05000000000469
    vertex 2859.684390961735 755.0180956302621 28.700000000004685
  endloop
endfacet
facet normal -0.0 -1.0 -1.8947806286936004e-14
  outer loop
    vertex 2859.684390961735 755.018095630262 35.05000000000469
    vertex 2854.921890961735 755.0180956302621 28.700000000004685
    vertex 2859.684390961735 755.0180956302621 28.700000000004685
  endloop
endfacet
facet normal -0.0 -1.0 -1.8947806286936004e-14
  outer loop
    vertex 2854.921890961735 755.0180956302621 28.700000000004685
    vertex 2859.684390961735 755.018095630262 35.05000000000469
    vertex 2854.921890961735 755.018095630262 35.05000000000469
  endloop
endfacet
facet normal -0.0 -1.0 -1.8947806286936004e-14
  outer loop
    vertex 2854.921890961735 755.018095630262 35.05000000000469
    vertex 2850.159390961735 755.0180956302621 28.700000000004685
    vertex 2854.921890961735 755.0180956302621 28.700000000004685
  endloop
endfacet
facet normal -0.0 -1.0 -1.8947806286936004e-14
  outer loop
    vertex 2850.159390961735 755.0180956302621 28.700000000004685
    vertex 2854.921890961735 755.018095630262 35.05000000000469
    vertex 2850.159390961735 755.018095630262 35.05000000000469
  endloop
endfacet
facet normal -4.0061512210742153e-26 -1.0 -1.1368683772161603e-13
  outer loop
    vertex 2880.3218909617394 681.9930956302609 60.449999999987874
    vertex 2829.521890961733 681.9930956302635 28.70000000000578
    vertex 2880.321890961734 681.9930956302635 28.699999999987877
  endloop
endfacet
facet normal -4.0061512210742153e-26 -1.0 -1.1368683772161603e-13
  outer loop
    vertex 2829.521890961733 681.9930956302635 28.70000000000578
    vertex 2880.3218909617394 681.9930956302609 60.449999999987874
    vertex 2829.5218909617383 681.9930956302609 60.45000000000578
  endloop
endfacet
facet normal -1.0 0.0 2.2737367544323206e-13
  outer loop
    vertex 2829.5218909617383 764.5430956302602 60.45000000000578
    vertex 2829.521890961733 681.9930956302635 28.70000000000578
    vertex 2829.5218909617383 681.9930956302609 60.45000000000578
  endloop
endfacet
facet normal -1.0 0.0 2.2737367544323206e-13
  outer loop
    vertex 2829.521890961733 681.9930956302635 28.70000000000578
    vertex 2829.5218909617383 764.5430956302602 60.45000000000578
    vertex 2829.521890961733 764.5430956302628 28.70000000000578
  endloop
endfacet
facet normal -0.0 1.0 1.1368683772161603e-13
  outer loop
    vertex 2829.5218909617383 764.5430956302602 60.45000000000578
    vertex 2880.321890961734 764.5430956302628 28.70000000000578
    vertex 2829.521890961733 764.5430956302628 28.70000000000578
  endloop
endfacet
facet normal -0.0 1.0 1.1368683772161603e-13
  outer loop
    vertex 2880.321890961734 764.5430956302628 28.70000000000578
    vertex 2829.5218909617383 764.5430956302602 60.45000000000578
    vertex 2880.3218909617394 764.5430956302602 60.45000000000578
  endloop
endfacet
facet normal 8.105984057204353e-28 1.0 2.0132044179869503e-14
  outer loop
    vertex 2850.159390961735 729.6180956302621 28.700000000002227
    vertex 2854.921890961735 729.618095630262 35.050000000002036
    vertex 2854.921890961735 729.6180956302621 28.700000000002035
  endloop
endfacet
facet normal 8.105984057204353e-28 1.0 2.0132044179869503e-14
  outer loop
    vertex 2854.921890961735 729.618095630262 35.050000000002036
    vertex 2850.159390961735 729.6180956302621 28.700000000002227
    vertex 2850.159390961735 729.618095630262 35.05000000000223
  endloop
endfacet
facet normal -6.310887241768094e-28 -1.0 -1.7763568394002505e-14
  outer loop
    vertex 2859.684390961735 694.6930956302627 35.04999999999786
    vertex 2854.921890961735 694.6930956302625 28.70000000000584
    vertex 2859.684390961735 694.6930956302625 28.700000000005673
  endloop
endfacet
facet normal -6.310887241768094e-28 -1.0 -1.7763568394002505e-14
  outer loop
    vertex 2854.921890961735 694.6930956302625 28.70000000000584
    vertex 2859.684390961735 694.6930956302627 35.04999999999786
    vertex 2854.921890961735 694.6930956302627 35.04999999999803
  endloop
endfacet
facet normal -1.0 0.0 -0.0
  outer loop
    vertex 2859.684390961735 716.9180956302624 35.05000000000014
    vertex 2859.684390961735 713.7430956302625 28.7000000000061
    vertex 2859.684390961735 713.7430956302624 35.05000000000014
  endloop
endfacet
facet normal -1.0 0.0 -0.0
  outer loop
    vertex 2859.684390961735 713.7430956302625 28.7000000000061
    vertex 2859.684390961735 716.9180956302624 35.05000000000014
    vertex 2859.684390961735 716.9180956302625 28.7000000000061
  endloop
endfacet
facet normal -0.0 1.0 1.8947806286936004e-14
  outer loop
    vertex 2854.921890961735 713.7430956302624 35.05000000000014
    vertex 2859.684390961735 713.7430956302625 28.7000000000061
    vertex 2854.921890961735 713.7430956302625 28.7000000000061
  endloop
endfacet
facet normal -0.0 1.0 1.8947806286936004e-14
  outer loop
    vertex 2859.684390961735 713.7430956302625 28.7000000000061
    vertex 2854.921890961735 713.7430956302624 35.05000000000014
    vertex 2859.684390961735 713.7430956302624 35.05000000000014
  endloop
endfacet
facet normal -7.1803872617450315e-28 -1.0 -1.8947806286936004e-14
  outer loop
    vertex 2859.684390961735 716.9180956302624 35.05000000000014
    vertex 2854.921890961735 716.9180956302625 28.70000000000628
    vertex 2859.684390961735 716.9180956302625 28.7000000000061
  endloop
endfacet
facet normal -7.1803872617450315e-28 -1.0 -1.8947806286936004e-14
  outer loop
    vertex 2854.921890961735 716.9180956302625 28.70000000000628
    vertex 2859.684390961735 716.9180956302624 35.05000000000014
    vertex 2854.921890961735 716.9180956302624 35.05000000000032
  endloop
endfacet
facet normal -0.0 1.0 1.7763568394002505e-14
  outer loop
    vertex 2850.159390961735 691.5180956302628 35.04999999999786
    vertex 2854.921890961735 691.5180956302625 28.700000000005673
    vertex 2850.159390961735 691.5180956302625 28.700000000005673
  endloop
endfacet
facet normal -0.0 1.0 1.7763568394002505e-14
  outer loop
    vertex 2854.921890961735 691.5180956302625 28.700000000005673
    vertex 2850.159390961735 691.5180956302628 35.04999999999786
    vertex 2854.921890961735 691.5180956302628 35.04999999999786
  endloop
endfacet
facet normal 7.1803872617450315e-28 1.0 1.8947806286936004e-14
  outer loop
    vertex 2850.159390961735 751.8430956302622 28.700000000004685
    vertex 2854.921890961735 751.843095630262 35.0500000000045
    vertex 2854.921890961735 751.8430956302622 28.700000000004504
  endloop
endfacet
facet normal 7.1803872617450315e-28 1.0 1.8947806286936004e-14
  outer loop
    vertex 2854.921890961735 751.843095630262 35.0500000000045
    vertex 2850.159390961735 751.8430956302622 28.700000000004685
    vertex 2850.159390961735 751.843095630262 35.05000000000469
  endloop
endfacet
facet normal -7.1803872617450315e-28 1.0 1.8947806286936004e-14
  outer loop
    vertex 2854.921890961735 751.843095630262 35.0500000000045
    vertex 2859.684390961735 751.8430956302622 28.700000000004685
    vertex 2854.921890961735 751.8430956302622 28.700000000004504
  endloop
endfacet
facet normal -7.1803872617450315e-28 1.0 1.8947806286936004e-14
  outer loop
    vertex 2859.684390961735 751.8430956302622 28.700000000004685
    vertex 2854.921890961735 751.843095630262 35.0500000000045
    vertex 2859.684390961735 751.843095630262 35.05000000000469
  endloop
endfacet
facet normal -1.0 0.0 -0.0
  outer loop
    vertex 2859.684390961735 691.5180956302628 35.04999999999786
    vertex 2859.684390961735 694.6930956302625 28.700000000005673
    vertex 2859.684390961735 691.5180956302625 28.700000000005673
  endloop
endfacet
facet normal -1.0 0.0 -0.0
  outer loop
    vertex 2859.684390961735 694.6930956302625 28.700000000005673
    vertex 2859.684390961735 691.5180956302628 35.04999999999786
    vertex 2859.684390961735 694.6930956302627 35.04999999999786
  endloop
endfacet
facet normal -1.7619239400800858e-13 1.0842608862031624e-13 -1.0
  outer loop
    vertex 2829.521890961733 764.5430956302628 28.70000000000578
    vertex 2850.159390961735 755.0180956302621 28.700000000004685
    vertex 2829.521890961733 681.9930956302635 28.70000000000578
  endloop
endfacet
facet normal -1.7619239400800858e-13 1.0842608862031624e-13 -1.0
  outer loop
    vertex 2850.159390961735 755.0180956302621 28.700000000004685
    vertex 2829.521890961733 764.5430956302628 28.70000000000578
    vertex 2880.321890961734 764.5430956302628 28.70000000000578
  endloop
endfacet
facet normal -1.7619239400800858e-13 1.0842608862031624e-13 -1.0
  outer loop
    vertex 2850.159390961735 755.0180956302621 28.700000000004685
    vertex 2880.321890961734 764.5430956302628 28.70000000000578
    vertex 2854.921890961735 755.0180956302621 28.700000000004685
  endloop
endfacet
facet normal -1.7619239400800858e-13 1.0842608862031624e-13 -1.0
  outer loop
    vertex 2854.921890961735 755.0180956302621 28.700000000004685
    vertex 2880.321890961734 764.5430956302628 28.70000000000578
    vertex 2859.684390961735 755.0180956302621 28.700000000004685
  endloop
endfacet
facet normal -1.7619239400800858e-13 1.0842608862031624e-13 -1.0
  outer loop
    vertex 2859.684390961735 755.0180956302621 28.700000000004685
    vertex 2880.321890961734 764.5430956302628 28.70000000000578
    vertex 2859.684390961735 751.8430956302622 28.700000000004685
  endloop
endfacet
facet normal -1.7619239400800858e-13 1.0842608862031624e-13 -1.0
  outer loop
    vertex 2859.684390961735 751.8430956302622 28.700000000004685
    vertex 2880.321890961734 764.5430956302628 28.70000000000578
    vertex 2859.684390961735 732.7930956302621 28.700000000002227
  endloop
endfacet
facet normal -1.7619239400800858e-13 1.0842608862031624e-13 -1.0
  outer loop
    vertex 2859.684390961735 732.7930956302621 28.700000000002227
    vertex 2880.321890961734 764.5430956302628 28.70000000000578
    vertex 2859.684390961735 729.6180956302621 28.700000000002227
  endloop
endfacet
facet normal -1.7619239400800858e-13 1.0842608862031624e-13 -1.0
  outer loop
    vertex 2859.684390961735 729.6180956302621 28.700000000002227
    vertex 2880.321890961734 764.5430956302628 28.70000000000578
    vertex 2859.684390961735 716.9180956302625 28.7000000000061
  endloop
endfacet
facet normal -1.7619239400800858e-13 1.0842608862031624e-13 -1.0
  outer loop
    vertex 2859.684390961735 716.9180956302625 28.7000000000061
    vertex 2880.321890961734 764.5430956302628 28.70000000000578
    vertex 2859.684390961735 713.7430956302625 28.7000000000061
  endloop
endfacet
facet normal -1.7619239400800858e-13 1.0842608862031624e-13 -1.0
  outer loop
    vertex 2859.684390961735 713.7430956302625 28.7000000000061
    vertex 2880.321890961734 764.5430956302628 28.70000000000578
    vertex 2859.684390961735 694.6930956302625 28.700000000005673
  endloop
endfacet
facet normal -1.7619239400800858e-13 1.0842608862031624e-13 -1.0
  outer loop
    vertex 2859.684390961735 694.6930956302625 28.700000000005673
    vertex 2880.321890961734 764.5430956302628 28.70000000000578
    vertex 2859.684390961735 691.5180956302625 28.700000000005673
  endloop
endfacet
facet normal -1.7619239400800858e-13 1.0842608862031624e-13 -1.0
  outer loop
    vertex 2829.521890961733 681.9930956302635 28.70000000000578
    vertex 2850.159390961735 691.5180956302625 28.700000000005673
    vertex 2880.321890961734 681.9930956302635 28.699999999987877
  endloop
endfacet
facet normal -1.7619239400800858e-13 1.0842608862031624e-13 -1.0
  outer loop
    vertex 2850.159390961735 691.5180956302625 28.700000000005673
    vertex 2829.521890961733 681.9930956302635 28.70000000000578
    vertex 2850.159390961735 755.0180956302621 28.700000000004685
  endloop
endfacet
facet normal -1.7619239400800858e-13 1.0842608862031624e-13 -1.0
  outer loop
    vertex 2850.159390961735 691.5180956302625 28.700000000005673
    vertex 2850.159390961735 755.0180956302621 28.700000000004685
    vertex 2850.159390961735 751.8430956302622 28.700000000004685
  endloop
endfacet
facet normal -1.7619239400800858e-13 1.0842608862031624e-13 -1.0
  outer loop
    vertex 2850.159390961735 691.5180956302625 28.700000000005673
    vertex 2850.159390961735 751.8430956302622 28.700000000004685
    vertex 2850.159390961735 732.7930956302621 28.700000000002227
  endloop
endfacet
facet normal -1.7619239400800858e-13 1.0842608862031624e-13 -1.0
  outer loop
    vertex 2850.159390961735 691.5180956302625 28.700000000005673
    vertex 2850.159390961735 732.7930956302621 28.700000000002227
    vertex 2850.159390961735 729.6180956302621 28.700000000002227
  endloop
endfacet
facet normal -1.7619239400800858e-13 1.0842608862031624e-13 -1.0
  outer loop
    vertex 2850.159390961735 691.5180956302625 28.700000000005673
    vertex 2850.159390961735 729.6180956302621 28.700000000002227
    vertex 2850.159390961735 716.9180956302625 28.7000000000061
  endloop
endfacet
facet normal -1.7619239400800858e-13 1.0842608862031624e-13 -1.0
  outer loop
    vertex 2850.159390961735 691.5180956302625 28.700000000005673
    vertex 2850.159390961735 716.9180956302625 28.7000000000061
    vertex 2850.159390961735 713.7430956302625 28.7000000000061
  endloop
endfacet
facet normal -1.7619239400800858e-13 1.0842608862031624e-13 -1.0
  outer loop
    vertex 2850.159390961735 691.5180956302625 28.700000000005673
    vertex 2850.159390961735 713.7430956302625 28.7000000000061
    vertex 2850.159390961735 694.6930956302625 28.700000000005673
  endloop
endfacet
facet normal -1.7619239400800858e-13 1.0842608862031624e-13 -1.0
  outer loop
    vertex 2880.321890961734 681.9930956302635 28.699999999987877
    vertex 2850.159390961735 691.5180956302625 28.700000000005673
    vertex 2854.921890961735 691.5180956302625 28.700000000005673
  endloop
endfacet
facet normal -1.7619239400800858e-13 1.0842608862031624e-13 -1.0
  outer loop
    vertex 2880.321890961734 681.9930956302635 28.699999999987877
    vertex 2854.921890961735 691.5180956302625 28.700000000005673
    vertex 2859.684390961735 691.5180956302625 28.700000000005673
  endloop
endfacet
facet normal -1.7619239400800858e-13 1.0842608862031624e-13 -1.0
  outer loop
    vertex 2880.321890961734 681.9930956302635 28.699999999987877
    vertex 2859.684390961735 691.5180956302625 28.700000000005673
    vertex 2880.321890961734 764.5430956302628 28.70000000000578
  endloop
endfacet
facet normal -1.7619239400800858e-13 1.0842608862031624e-13 -1.0
  outer loop
    vertex 2854.921890961735 713.7430956302625 28.7000000000061
    vertex 2850.159390961735 694.6930956302625 28.700000000005673
    vertex 2850.159390961735 713.7430956302625 28.7000000000061
  endloop
endfacet
facet normal -1.7619239400800858e-13 1.0842608862031624e-13 -1.0
  outer loop
    vertex 2850.159390961735 694.6930956302625 28.700000000005673
    vertex 2854.921890961735 713.7430956302625 28.7000000000061
    vertex 2854.921890961735 694.6930956302625 28.70000000000584
  endloop
endfacet
facet normal -1.7619239400800858e-13 1.0842608862031624e-13 -1.0
  outer loop
    vertex 2854.921890961735 694.6930956302625 28.70000000000584
    vertex 2854.921890961735 713.7430956302625 28.7000000000061
    vertex 2859.684390961735 713.7430956302625 28.7000000000061
  endloop
endfacet
facet normal -1.7619239400800858e-13 1.0842608862031624e-13 -1.0
  outer loop
    vertex 2854.921890961735 694.6930956302625 28.70000000000584
    vertex 2859.684390961735 713.7430956302625 28.7000000000061
    vertex 2859.684390961735 694.6930956302625 28.700000000005673
  endloop
endfacet
facet normal -1.7619239400800858e-13 1.0842608862031624e-13 -1.0
  outer loop
    vertex 2854.921890961735 729.6180956302621 28.700000000002035
    vertex 2850.159390961735 716.9180956302625 28.7000000000061
    vertex 2850.159390961735 729.6180956302621 28.700000000002227
  endloop
endfacet
facet normal -1.7619239400800858e-13 1.0842608862031624e-13 -1.0
  outer loop
    vertex 2850.159390961735 716.9180956302625 28.7000000000061
    vertex 2854.921890961735 729.6180956302621 28.700000000002035
    vertex 2854.921890961735 716.9180956302625 28.70000000000628
  endloop
endfacet
facet normal -1.7619239400800858e-13 1.0842608862031624e-13 -1.0
  outer loop
    vertex 2854.921890961735 716.9180956302625 28.70000000000628
    vertex 2854.921890961735 729.6180956302621 28.700000000002035
    vertex 2859.684390961735 729.6180956302621 28.700000000002227
  endloop
endfacet
facet normal -1.7619239400800858e-13 1.0842608862031624e-13 -1.0
  outer loop
    vertex 2854.921890961735 716.9180956302625 28.70000000000628
    vertex 2859.684390961735 729.6180956302621 28.700000000002227
    vertex 2859.684390961735 716.9180956302625 28.7000000000061
  endloop
endfacet
facet normal -1.7619239400800858e-13 1.0842608862031624e-13 -1.0
  outer loop
    vertex 2854.921890961735 751.8430956302622 28.700000000004504
    vertex 2850.159390961735 732.7930956302621 28.700000000002227
    vertex 2850.159390961735 751.8430956302622 28.700000000004685
  endloop
endfacet
facet normal -1.7619239400800858e-13 1.0842608862031624e-13 -1.0
  outer loop
    vertex 2850.159390961735 732.7930956302621 28.700000000002227
    vertex 2854.921890961735 751.8430956302622 28.700000000004504
    vertex 2854.921890961735 732.7930956302621 28.700000000002227
  endloop
endfacet
facet normal -1.7619239400800858e-13 1.0842608862031624e-13 -1.0
  outer loop
    vertex 2854.921890961735 732.7930956302621 28.700000000002227
    vertex 2854.921890961735 751.8430956302622 28.700000000004504
    vertex 2859.684390961735 751.8430956302622 28.700000000004685
  endloop
endfacet
facet normal -1.7619239400800858e-13 1.0842608862031624e-13 -1.0
  outer loop
    vertex 2854.921890961735 732.7930956302621 28.700000000002227
    vertex 2859.684390961735 751.8430956302622 28.700000000004685
    vertex 2859.684390961735 732.7930956302621 28.700000000002227
  endloop
endfacet
facet normal 0.0 -1.0 -7.51343913512955e-14
  outer loop
    vertex 2873.971890961739 758.1930956302601 60.44999999999885
    vertex 2835.871890961734 758.1930956302621 35.04999999999885
    vertex 2873.9718909617354 758.1930956302621 35.04999999999885
  endloop
endfacet
facet normal 0.0 -1.0 -7.51343913512955e-14
  outer loop
    vertex 2835.871890961734 758.1930956302621 35.04999999999885
    vertex 2873.971890961739 758.1930956302601 60.44999999999885
    vertex 2835.8718909617382 758.1930956302601 60.44999999999885
  endloop
endfacet
facet normal -1.0 -1.359126844669155e-26 1.621642453352914e-13
  outer loop
    vertex 2873.971890961739 758.1930956302601 60.44999999999885
    vertex 2873.9718909617354 688.3430956302627 35.049999999993
    vertex 2873.971890961739 688.3430956302609 60.449999999993
  endloop
endfacet
facet normal -1.0 -1.359126844669155e-26 1.621642453352914e-13
  outer loop
    vertex 2873.9718909617354 688.3430956302627 35.049999999993
    vertex 2873.971890961739 758.1930956302601 60.44999999999885
    vertex 2873.9718909617354 758.1930956302621 35.04999999999885
  endloop
endfacet
facet normal 1.6749918988856148e-26 1.0 7.51343913512955e-14
  outer loop
    vertex 2835.871890961734 688.3430956302627 35.05000000000149
    vertex 2873.971890961739 688.3430956302609 60.449999999993
    vertex 2873.9718909617354 688.3430956302627 35.049999999993
  endloop
endfacet
facet normal 1.6749918988856148e-26 1.0 7.51343913512955e-14
  outer loop
    vertex 2873.971890961739 688.3430956302609 60.449999999993
    vertex 2835.871890961734 688.3430956302627 35.05000000000149
    vertex 2835.8718909617382 688.3430956302609 60.45000000000149
  endloop
endfacet
facet normal 1.0 -6.127855137814688e-27 -1.621642453352914e-13
  outer loop
    vertex 2835.871890961734 688.3430956302627 35.05000000000149
    vertex 2835.8718909617382 758.1930956302601 60.44999999999885
    vertex 2835.8718909617382 688.3430956302609 60.45000000000149
  endloop
endfacet
facet normal 1.0 -6.127855137814688e-27 -1.621642453352914e-13
  outer loop
    vertex 2835.8718909617382 758.1930956302601 60.44999999999885
    vertex 2835.871890961734 688.3430956302627 35.05000000000149
    vertex 2835.871890961734 758.1930956302621 35.04999999999885
  endloop
endfacet
facet normal 1.621642453352914e-13 -7.51343913512955e-14 1.0
  outer loop
    vertex 2829.5218909617383 681.9930956302609 60.45000000000578
    vertex 2835.8718909617382 688.3430956302609 60.45000000000149
    vertex 2829.5218909617383 764.5430956302602 60.45000000000578
  endloop
endfacet
facet normal 1.621642453352914e-13 -7.51343913512955e-14 1.0
  outer loop
    vertex 2835.8718909617382 688.3430956302609 60.45000000000149
    vertex 2829.5218909617383 681.9930956302609 60.45000000000578
    vertex 2880.3218909617394 681.9930956302609 60.449999999987874
  endloop
endfacet
facet normal 1.621642453352914e-13 -7.51343913512955e-14 1.0
  outer loop
    vertex 2835.8718909617382 688.3430956302609 60.45000000000149
    vertex 2880.3218909617394 681.9930956302609 60.449999999987874
    vertex 2873.971890961739 688.3430956302609 60.449999999993
  endloop
endfacet
facet normal 1.621642453352914e-13 -7.51343913512955e-14 1.0
  outer loop
    vertex 2873.971890961739 688.3430956302609 60.449999999993
    vertex 2880.3218909617394 681.9930956302609 60.449999999987874
    vertex 2873.971890961739 758.1930956302601 60.44999999999885
  endloop
endfacet
facet normal 1.621642453352914e-13 -7.51343913512955e-14 1.0
  outer loop
    vertex 2829.5218909617383 764.5430956302602 60.45000000000578
    vertex 2835.8718909617382 758.1930956302601 60.44999999999885
    vertex 2880.3218909617394 764.5430956302602 60.45000000000578
  endloop
endfacet
facet normal 1.621642453352914e-13 -7.51343913512955e-14 1.0
  outer loop
    vertex 2835.8718909617382 758.1930956302601 60.44999999999885
    vertex 2829.5218909617383 764.5430956302602 60.45000000000578
    vertex 2835.8718909617382 688.3430956302609 60.45000000000149
  endloop
endfacet
facet normal 1.621642453352914e-13 -7.51343913512955e-14 1.0
  outer loop
    vertex 2880.3218909617394 764.5430956302602 60.45000000000578
    vertex 2835.8718909617382 758.1930956302601 60.44999999999885
    vertex 2873.971890961739 758.1930956302601 60.44999999999885
  endloop
endfacet
facet normal 1.621642453352914e-13 -7.51343913512955e-14 1.0
  outer loop
    vertex 2880.3218909617394 764.5430956302602 60.45000000000578
    vertex 2873.971890961739 758.1930956302601 60.44999999999885
    vertex 2880.3218909617394 681.9930956302609 60.449999999987874
  endloop
endfacet
facet normal -0.0 1.0 1.7763568394002505e-14
  outer loop
    vertex 2854.921890961735 691.5180956302628 35.04999999999786
    vertex 2859.684390961735 691.5180956302625 28.700000000005673
    vertex 2854.921890961735 691.5180956302625 28.700000000005673
  endloop
endfacet
facet normal -0.0 1.0 1.7763568394002505e-14
  outer loop
    vertex 2859.684390961735 691.5180956302625 28.700000000005673
    vertex 2854.921890961735 691.5180956302628 35.04999999999786
    vertex 2859.684390961735 691.5180956302628 35.04999999999786
  endloop
endfacet
facet normal 7.1803872617450315e-28 -1.0 -1.8947806286936004e-14
  outer loop
    vertex 2854.921890961735 716.9180956302625 28.70000000000628
    vertex 2850.159390961735 716.9180956302624 35.05000000000014
    vertex 2850.159390961735 716.9180956302625 28.7000000000061
  endloop
endfacet
facet normal 7.1803872617450315e-28 -1.0 -1.8947806286936004e-14
  outer loop
    vertex 2850.159390961735 716.9180956302624 35.05000000000014
    vertex 2854.921890961735 716.9180956302625 28.70000000000628
    vertex 2854.921890961735 716.9180956302624 35.05000000000032
  endloop
endfacet
facet normal 1.0 0.0 0.0
  outer loop
    vertex 2850.159390961735 713.7430956302625 28.7000000000061
    vertex 2850.159390961735 716.9180956302624 35.05000000000014
    vertex 2850.159390961735 713.7430956302624 35.05000000000014
  endloop
endfacet
facet normal 1.0 0.0 0.0
  outer loop
    vertex 2850.159390961735 716.9180956302624 35.05000000000014
    vertex 2850.159390961735 713.7430956302625 28.7000000000061
    vertex 2850.159390961735 716.9180956302625 28.7000000000061
  endloop
endfacet
facet normal 6.310887241768094e-28 -1.0 -1.7763568394002505e-14
  outer loop
    vertex 2854.921890961735 694.6930956302625 28.70000000000584
    vertex 2850.159390961735 694.6930956302627 35.04999999999786
    vertex 2850.159390961735 694.6930956302625 28.700000000005673
  endloop
endfacet
facet normal 6.310887241768094e-28 -1.0 -1.7763568394002505e-14
  outer loop
    vertex 2850.159390961735 694.6930956302627 35.04999999999786
    vertex 2854.921890961735 694.6930956302625 28.70000000000584
    vertex 2854.921890961735 694.6930956302627 35.04999999999803
  endloop
endfacet
facet normal 1.0 0.0 0.0
  outer loop
    vertex 2850.159390961735 694.6930956302625 28.700000000005673
    vertex 2850.159390961735 691.5180956302628 35.04999999999786
    vertex 2850.159390961735 691.5180956302625 28.700000000005673
  endloop
endfacet
facet normal 1.0 0.0 0.0
  outer loop
    vertex 2850.159390961735 691.5180956302628 35.04999999999786
    vertex 2850.159390961735 694.6930956302625 28.700000000005673
    vertex 2850.159390961735 694.6930956302627 35.04999999999786
  endloop
endfacet
facet normal -0.0 1.0 1.8947806286936004e-14
  outer loop
    vertex 2850.159390961735 713.7430956302624 35.05000000000014
    vertex 2854.921890961735 713.7430956302625 28.7000000000061
    vertex 2850.159390961735 713.7430956302625 28.7000000000061
  endloop
endfacet
facet normal -0.0 1.0 1.8947806286936004e-14
  outer loop
    vertex 2854.921890961735 713.7430956302625 28.7000000000061
    vertex 2850.159390961735 713.7430956302624 35.05000000000014
    vertex 2854.921890961735 713.7430956302624 35.05000000000014
  endloop
endfacet
facet normal -0.0 -1.0 -2.0132044179869503e-14
  outer loop
    vertex 2859.684390961735 732.7930956302621 35.05000000000223
    vertex 2854.921890961735 732.7930956302621 28.700000000002227
    vertex 2859.684390961735 732.7930956302621 28.700000000002227
  endloop
endfacet
facet normal -0.0 -1.0 -2.0132044179869503e-14
  outer loop
    vertex 2854.921890961735 732.7930956302621 28.700000000002227
    vertex 2859.684390961735 732.7930956302621 35.05000000000223
    vertex 2854.921890961735 732.7930956302621 35.05000000000223
  endloop
endfacet
facet normal -0.0 -1.0 -2.0132044179869503e-14
  outer loop
    vertex 2854.921890961735 732.7930956302621 35.05000000000223
    vertex 2850.159390961735 732.7930956302621 28.700000000002227
    vertex 2854.921890961735 732.7930956302621 28.700000000002227
  endloop
endfacet
facet normal -0.0 -1.0 -2.0132044179869503e-14
  outer loop
    vertex 2850.159390961735 732.7930956302621 28.700000000002227
    vertex 2854.921890961735 732.7930956302621 35.05000000000223
    vertex 2850.159390961735 732.7930956302621 35.05000000000223
  endloop
endfacet
facet normal 1.0 0.0 0.0
  outer loop
    vertex 2850.159390961735 751.8430956302622 28.700000000004685
    vertex 2850.159390961735 755.018095630262 35.05000000000469
    vertex 2850.159390961735 751.843095630262 35.05000000000469
  endloop
endfacet
facet normal 1.0 0.0 0.0
  outer loop
    vertex 2850.159390961735 755.018095630262 35.05000000000469
    vertex 2850.159390961735 751.8430956302622 28.700000000004685
    vertex 2850.159390961735 755.0180956302621 28.700000000004685
  endloop
endfacet
facet normal -1.0 0.0 -0.0
  outer loop
    vertex 2859.684390961735 732.7930956302621 35.05000000000223
    vertex 2859.684390961735 729.6180956302621 28.700000000002227
    vertex 2859.684390961735 729.618095630262 35.05000000000223
  endloop
endfacet
facet normal -1.0 0.0 -0.0
  outer loop
    vertex 2859.684390961735 729.6180956302621 28.700000000002227
    vertex 2859.684390961735 732.7930956302621 35.05000000000223
    vertex 2859.684390961735 732.7930956302621 28.700000000002227
  endloop
endfacet
facet normal 1.0 0.0 0.0
  outer loop
    vertex 2850.159390961735 729.6180956302621 28.700000000002227
    vertex 2850.159390961735 732.7930956302621 35.05000000000223
    vertex 2850.159390961735 729.618095630262 35.05000000000223
  endloop
endfacet
facet normal 1.0 0.0 0.0
  outer loop
    vertex 2850.159390961735 732.7930956302621 35.05000000000223
    vertex 2850.159390961735 729.6180956302621 28.700000000002227
    vertex 2850.159390961735 732.7930956302621 28.700000000002227
  endloop
endfacet
facet normal 8.917311333788992e-14 -8.535619659634281e-14 1.0
  outer loop
    vertex 2854.921890961735 716.9180956302624 35.05000000000032
    vertex 2850.159390961735 729.618095630262 35.05000000000223
    vertex 2850.159390961735 716.9180956302624 35.05000000000014
  endloop
endfacet
facet normal 8.917311333788992e-14 -8.535619659634281e-14 1.0
  outer loop
    vertex 2850.159390961735 729.618095630262 35.05000000000223
    vertex 2854.921890961735 716.9180956302624 35.05000000000032
    vertex 2854.921890961735 729.618095630262 35.050000000002036
  endloop
endfacet
facet normal 8.917311333788992e-14 -8.535619659634281e-14 1.0
  outer loop
    vertex 2854.921890961735 732.7930956302621 35.05000000000223
    vertex 2850.159390961735 751.843095630262 35.05000000000469
    vertex 2850.159390961735 732.7930956302621 35.05000000000223
  endloop
endfacet
facet normal 8.917311333788992e-14 -8.535619659634281e-14 1.0
  outer loop
    vertex 2850.159390961735 751.843095630262 35.05000000000469
    vertex 2854.921890961735 732.7930956302621 35.05000000000223
    vertex 2854.921890961735 751.843095630262 35.0500000000045
  endloop
endfacet
facet normal 8.917311333788992e-14 -8.535619659634281e-14 1.0
  outer loop
    vertex 2835.871890961734 688.3430956302627 35.05000000000149
    vertex 2850.159390961735 691.5180956302628 35.04999999999786
    vertex 2835.871890961734 758.1930956302621 35.04999999999885
  endloop
endfacet
facet normal 8.917311333788992e-14 -8.535619659634281e-14 1.0
  outer loop
    vertex 2850.159390961735 691.5180956302628 35.04999999999786
    vertex 2835.871890961734 688.3430956302627 35.05000000000149
    vertex 2873.9718909617354 688.3430956302627 35.049999999993
  endloop
endfacet
facet normal 8.917311333788992e-14 -8.535619659634281e-14 1.0
  outer loop
    vertex 2850.159390961735 691.5180956302628 35.04999999999786
    vertex 2873.9718909617354 688.3430956302627 35.049999999993
    vertex 2854.921890961735 691.5180956302628 35.04999999999786
  endloop
endfacet
facet normal 8.917311333788992e-14 -8.535619659634281e-14 1.0
  outer loop
    vertex 2854.921890961735 691.5180956302628 35.04999999999786
    vertex 2873.9718909617354 688.3430956302627 35.049999999993
    vertex 2859.684390961735 691.5180956302628 35.04999999999786
  endloop
endfacet
facet normal 8.917311333788992e-14 -8.535619659634281e-14 1.0
  outer loop
    vertex 2859.684390961735 691.5180956302628 35.04999999999786
    vertex 2873.9718909617354 688.3430956302627 35.049999999993
    vertex 2859.684390961735 694.6930956302627 35.04999999999786
  endloop
endfacet
facet normal 8.917311333788992e-14 -8.535619659634281e-14 1.0
  outer loop
    vertex 2859.684390961735 694.6930956302627 35.04999999999786
    vertex 2873.9718909617354 688.3430956302627 35.049999999993
    vertex 2859.684390961735 713.7430956302624 35.05000000000014
  endloop
endfacet
facet normal 8.917311333788992e-14 -8.535619659634281e-14 1.0
  outer loop
    vertex 2859.684390961735 713.7430956302624 35.05000000000014
    vertex 2873.9718909617354 688.3430956302627 35.049999999993
    vertex 2859.684390961735 716.9180956302624 35.05000000000014
  endloop
endfacet
facet normal 8.917311333788992e-14 -8.535619659634281e-14 1.0
  outer loop
    vertex 2859.684390961735 716.9180956302624 35.05000000000014
    vertex 2873.9718909617354 688.3430956302627 35.049999999993
    vertex 2859.684390961735 729.618095630262 35.05000000000223
  endloop
endfacet
facet normal 8.917311333788992e-14 -8.535619659634281e-14 1.0
  outer loop
    vertex 2859.684390961735 729.618095630262 35.05000000000223
    vertex 2873.9718909617354 688.3430956302627 35.049999999993
    vertex 2859.684390961735 732.7930956302621 35.05000000000223
  endloop
endfacet
facet normal 8.917311333788992e-14 -8.535619659634281e-14 1.0
  outer loop
    vertex 2859.684390961735 732.7930956302621 35.05000000000223
    vertex 2873.9718909617354 688.3430956302627 35.049999999993
    vertex 2859.684390961735 751.843095630262 35.05000000000469
  endloop
endfacet
facet normal 8.917311333788992e-14 -8.535619659634281e-14 1.0
  outer loop
    vertex 2859.684390961735 751.843095630262 35.05000000000469
    vertex 2873.9718909617354 688.3430956302627 35.049999999993
    vertex 2859.684390961735 755.018095630262 35.05000000000469
  endloop
endfacet
facet normal 8.917311333788992e-14 -8.535619659634281e-14 1.0
  outer loop
    vertex 2835.871890961734 758.1930956302621 35.04999999999885
    vertex 2850.159390961735 755.018095630262 35.05000000000469
    vertex 2873.9718909617354 758.1930956302621 35.04999999999885
  endloop
endfacet
facet normal 8.917311333788992e-14 -8.535619659634281e-14 1.0
  outer loop
    vertex 2850.159390961735 755.018095630262 35.05000000000469
    vertex 2835.871890961734 758.1930956302621 35.04999999999885
    vertex 2850.159390961735 691.5180956302628 35.04999999999786
  endloop
endfacet
facet normal 8.917311333788992e-14 -8.535619659634281e-14 1.0
  outer loop
    vertex 2850.159390961735 755.018095630262 35.05000000000469
    vertex 2850.159390961735 691.5180956302628 35.04999999999786
    vertex 2850.159390961735 694.6930956302627 35.04999999999786
  endloop
endfacet
facet normal 8.917311333788992e-14 -8.535619659634281e-14 1.0
  outer loop
    vertex 2850.159390961735 755.018095630262 35.05000000000469
    vertex 2850.159390961735 694.6930956302627 35.04999999999786
    vertex 2850.159390961735 713.7430956302624 35.05000000000014
  endloop
endfacet
facet normal 8.917311333788992e-14 -8.535619659634281e-14 1.0
  outer loop
    vertex 2850.159390961735 755.018095630262 35.05000000000469
    vertex 2850.159390961735 713.7430956302624 35.05000000000014
    vertex 2850.159390961735 716.9180956302624 35.05000000000014
  endloop
endfacet
facet normal 8.917311333788992e-14 -8.535619659634281e-14 1.0
  outer loop
    vertex 2850.159390961735 755.018095630262 35.05000000000469
    vertex 2850.159390961735 716.9180956302624 35.05000000000014
    vertex 2850.159390961735 729.618095630262 35.05000000000223
  endloop
endfacet
facet normal 8.917311333788992e-14 -8.535619659634281e-14 1.0
  outer loop
    vertex 2850.159390961735 755.018095630262 35.05000000000469
    vertex 2850.159390961735 729.618095630262 35.05000000000223
    vertex 2850.159390961735 732.7930956302621 35.05000000000223
  endloop
endfacet
facet normal 8.917311333788992e-14 -8.535619659634281e-14 1.0
  outer loop
    vertex 2850.159390961735 755.018095630262 35.05000000000469
    vertex 2850.159390961735 732.7930956302621 35.05000000000223
    vertex 2850.159390961735 751.843095630262 35.05000000000469
  endloop
endfacet
facet normal 8.917311333788992e-14 -8.535619659634281e-14 1.0
  outer loop
    vertex 2873.9718909617354 758.1930956302621 35.04999999999885
    vertex 2850.159390961735 755.018095630262 35.05000000000469
    vertex 2854.921890961735 755.018095630262 35.05000000000469
  endloop
endfacet
facet normal 8.917311333788992e-14 -8.535619659634281e-14 1.0
  outer loop
    vertex 2873.9718909617354 758.1930956302621 35.04999999999885
    vertex 2854.921890961735 755.018095630262 35.05000000000469
    vertex 2859.684390961735 755.018095630262 35.05000000000469
  endloop
endfacet
facet normal 8.917311333788992e-14 -8.535619659634281e-14 1.0
  outer loop
    vertex 2873.9718909617354 758.1930956302621 35.04999999999885
    vertex 2859.684390961735 755.018095630262 35.05000000000469
    vertex 2873.9718909617354 688.3430956302627 35.049999999993
  endloop
endfacet
facet normal 8.917311333788992e-14 -8.535619659634281e-14 1.0
  outer loop
    vertex 2859.684390961735 732.7930956302621 35.05000000000223
    vertex 2854.921890961735 751.843095630262 35.0500000000045
    vertex 2854.921890961735 732.7930956302621 35.05000000000223
  endloop
endfacet
facet normal 8.917311333788992e-14 -8.535619659634281e-14 1.0
  outer loop
    vertex 2854.921890961735 751.843095630262 35.0500000000045
    vertex 2859.684390961735 732.7930956302621 35.05000000000223
    vertex 2859.684390961735 751.843095630262 35.05000000000469
  endloop
endfacet
facet normal 8.917311333788992e-14 -8.535619659634281e-14 1.0
  outer loop
    vertex 2859.684390961735 716.9180956302624 35.05000000000014
    vertex 2854.921890961735 729.618095630262 35.050000000002036
    vertex 2854.921890961735 716.9180956302624 35.05000000000032
  endloop
endfacet
facet normal 8.917311333788992e-14 -8.535619659634281e-14 1.0
  outer loop
    vertex 2854.921890961735 729.618095630262 35.050000000002036
    vertex 2859.684390961735 716.9180956302624 35.05000000000014
    vertex 2859.684390961735 729.618095630262 35.05000000000223
  endloop
endfacet
facet normal 8.917311333788992e-14 -8.535619659634281e-14 1.0
  outer loop
    vertex 2859.684390961735 694.6930956302627 35.04999999999786
    vertex 2854.921890961735 704.2180956302624 35.04999999999909
    vertex 2854.921890961735 694.6930956302627 35.04999999999803
  endloop
endfacet
facet normal 8.917311333788992e-14 -8.535619659634281e-14 1.0
  outer loop
    vertex 2854.921890961735 704.2180956302624 35.04999999999909
    vertex 2859.684390961735 694.6930956302627 35.04999999999786
    vertex 2854.921890961735 713.7430956302624 35.05000000000014
  endloop
endfacet
facet normal 8.917311333788992e-14 -8.535619659634281e-14 1.0
  outer loop
    vertex 2854.921890961735 713.7430956302624 35.05000000000014
    vertex 2859.684390961735 694.6930956302627 35.04999999999786
    vertex 2859.684390961735 713.7430956302624 35.05000000000014
  endloop
endfacet
facet normal 8.917311333788992e-14 -8.535619659634281e-14 1.0
  outer loop
    vertex 2854.921890961735 694.6930956302627 35.04999999999803
    vertex 2850.159390961735 713.7430956302624 35.05000000000014
    vertex 2850.159390961735 694.6930956302627 35.04999999999786
  endloop
endfacet
facet normal 8.917311333788992e-14 -8.535619659634281e-14 1.0
  outer loop
    vertex 2850.159390961735 713.7430956302624 35.05000000000014
    vertex 2854.921890961735 694.6930956302627 35.04999999999803
    vertex 2854.921890961735 713.7430956302624 35.05000000000014
  endloop
endfacet
facet normal 8.917311333788992e-14 -8.535619659634281e-14 1.0
  outer loop
    vertex 2854.921890961735 713.7430956302624 35.05000000000014
    vertex 2854.921890961735 694.6930956302627 35.04999999999803
    vertex 2854.921890961735 704.2180956302624 35.04999999999909
  endloop
endfacet
facet normal 1.0 4.930647656707023e-26 -2.2737367544323206e-13
  outer loop
    vertex 2880.321890961734 681.9930956302635 28.699999999987877
    vertex 2880.3218909617394 764.5430956302602 60.45000000000578
    vertex 2880.3218909617394 681.9930956302609 60.449999999987874
  endloop
endfacet
facet normal 1.0 4.930647656707023e-26 -2.2737367544323206e-13
  outer loop
    vertex 2880.3218909617394 764.5430956302602 60.45000000000578
    vertex 2880.321890961734 681.9930956302635 28.699999999987877
    vertex 2880.321890961734 764.5430956302628 28.70000000000578
  endloop
endfacet
endsolid box draft 1
