solid box draft 1
facet normal -0.0 -0.0 -1.0
  outer loop
    vertex 3286.663139339803 732.4062657216214 79.4999999999886
    vertex 3274.41665737795 730.2718026345881 79.4999999999886
    vertex 3274.41665737795 732.4062657216214 79.4999999999886
  endloop
endfacet
facet normal -0.0 -0.0 -1.0
  outer loop
    vertex 3274.41665737795 730.2718026345881 79.4999999999886
    vertex 3286.663139339803 732.4062657216214 79.4999999999886
    vertex 3284.341910732654 730.2718026345881 79.4999999999886
  endloop
endfacet
facet normal -0.0 -0.0 -1.0
  outer loop
    vertex 3284.341910732654 730.2718026345881 79.4999999999886
    vertex 3286.663139339803 732.4062657216214 79.4999999999886
    vertex 3285.2690679026273 728.9110830836242 79.4999999999886
  endloop
endfacet
facet normal -0.0 -0.0 -1.0
  outer loop
    vertex 3285.2690679026273 728.9110830836242 79.4999999999886
    vertex 3286.663139339803 732.4062657216214 79.4999999999886
    vertex 3286.663139339803 730.4585681547036 79.4999999999886
  endloop
endfacet
facet normal -0.0 -0.0 -1.0
  outer loop
    vertex 3277.1481025259955 716.1810113116752 79.4999999999886
    vertex 3279.4059648438897 713.8097560758448 79.4999999999886
    vertex 3276.8712899280376 713.8097560758448 79.4999999999886
  endloop
endfacet
facet normal -0.0 -0.0 -1.0
  outer loop
    vertex 3279.4059648438897 713.8097560758448 79.4999999999886
    vertex 3277.1481025259955 716.1810113116752 79.4999999999886
    vertex 3277.658373191381 718.4922344730238 79.4999999999886
  endloop
endfacet
facet normal -0.0 -0.0 -1.0
  outer loop
    vertex 3279.4059648438897 713.8097560758448 79.4999999999886
    vertex 3277.658373191381 718.4922344730238 79.4999999999886
    vertex 3278.375418934443 720.7267507507186 79.4999999999886
  endloop
endfacet
facet normal -0.0 -0.0 -1.0
  outer loop
    vertex 3279.4059648438897 713.8097560758448 79.4999999999886
    vertex 3278.375418934443 720.7267507507186 79.4999999999886
    vertex 3279.2725609009503 722.8678838014418 79.4999999999886
  endloop
endfacet
facet normal -0.0 -0.0 -1.0
  outer loop
    vertex 3279.4059648438897 713.8097560758448 79.4999999999886
    vertex 3279.2725609009503 722.8678838014418 79.4999999999886
    vertex 3279.6594317351573 716.0576123476217 79.4999999999886
  endloop
endfacet
facet normal -0.0 -0.0 -1.0
  outer loop
    vertex 3279.6594317351573 716.0576123476217 79.4999999999886
    vertex 3279.2725609009503 722.8678838014418 79.4999999999886
    vertex 3281.5537683252164 726.8299809067472 79.4999999999886
  endloop
endfacet
facet normal -0.0 -0.0 -1.0
  outer loop
    vertex 3279.6594317351573 716.0576123476217 79.4999999999886
    vertex 3281.5537683252164 726.8299809067472 79.4999999999886
    vertex 3280.1530269243513 718.3721709243782 79.4999999999886
  endloop
endfacet
facet normal -0.0 -0.0 -1.0
  outer loop
    vertex 3280.1530269243513 718.3721709243782 79.4999999999886
    vertex 3281.5537683252164 726.8299809067472 79.4999999999886
    vertex 3280.8567322731196 720.6867295011348 79.4999999999886
  endloop
endfacet
facet normal -0.0 -0.0 -1.0
  outer loop
    vertex 3280.8567322731196 720.6867295011348 79.4999999999886
    vertex 3281.5537683252164 726.8299809067472 79.4999999999886
    vertex 3281.7405338453327 722.9345857729116 79.4999999999886
  endloop
endfacet
facet normal -0.0 -0.0 -1.0
  outer loop
    vertex 3281.7405338453327 722.9345857729116 79.4999999999886
    vertex 3281.5537683252164 726.8299809067472 79.4999999999886
    vertex 3284.341910732654 730.2718026345881 79.4999999999886
  endloop
endfacet
facet normal -0.0 -0.0 -1.0
  outer loop
    vertex 3281.7405338453327 722.9345857729116 79.4999999999886
    vertex 3284.341910732654 730.2718026345881 79.4999999999886
    vertex 3283.9683796924237 727.0967887926263 79.4999999999886
  endloop
endfacet
facet normal -0.0 -0.0 -1.0
  outer loop
    vertex 3283.9683796924237 727.0967887926263 79.4999999999886
    vertex 3284.341910732654 730.2718026345881 79.4999999999886
    vertex 3285.2690679026273 728.9110830836242 79.4999999999886
  endloop
endfacet
facet normal 0.0 0.0 1.0
  outer loop
    vertex 3279.4059648438897 713.8097560758448 82.6749999999886
    vertex 3277.1481025259955 716.1810113116752 82.6749999999886
    vertex 3276.8712899280376 713.8097560758448 82.6749999999886
  endloop
endfacet
facet normal 0.0 0.0 1.0
  outer loop
    vertex 3277.1481025259955 716.1810113116752 82.6749999999886
    vertex 3279.4059648438897 713.8097560758448 82.6749999999886
    vertex 3277.658373191381 718.4922344730238 82.6749999999886
  endloop
endfacet
facet normal 0.0 0.0 1.0
  outer loop
    vertex 3277.658373191381 718.4922344730238 82.6749999999886
    vertex 3279.4059648438897 713.8097560758448 82.6749999999886
    vertex 3278.375418934443 720.7267507507186 82.6749999999886
  endloop
endfacet
facet normal 0.0 0.0 1.0
  outer loop
    vertex 3278.375418934443 720.7267507507186 82.6749999999886
    vertex 3279.4059648438897 713.8097560758448 82.6749999999886
    vertex 3279.2725609009503 722.8678838014418 82.6749999999886
  endloop
endfacet
facet normal 0.0 0.0 1.0
  outer loop
    vertex 3279.2725609009503 722.8678838014418 82.6749999999886
    vertex 3279.4059648438897 713.8097560758448 82.6749999999886
    vertex 3279.6594317351573 716.0576123476217 82.6749999999886
  endloop
endfacet
facet normal 0.0 0.0 1.0
  outer loop
    vertex 3279.2725609009503 722.8678838014418 82.6749999999886
    vertex 3279.6594317351573 716.0576123476217 82.6749999999886
    vertex 3281.5537683252164 726.8299809067472 82.6749999999886
  endloop
endfacet
facet normal 0.0 0.0 1.0
  outer loop
    vertex 3281.5537683252164 726.8299809067472 82.6749999999886
    vertex 3279.6594317351573 716.0576123476217 82.6749999999886
    vertex 3280.1530269243513 718.3721709243782 82.6749999999886
  endloop
endfacet
facet normal 0.0 0.0 1.0
  outer loop
    vertex 3281.5537683252164 726.8299809067472 82.6749999999886
    vertex 3280.1530269243513 718.3721709243782 82.6749999999886
    vertex 3280.8567322731196 720.6867295011348 82.6749999999886
  endloop
endfacet
facet normal 0.0 0.0 1.0
  outer loop
    vertex 3281.5537683252164 726.8299809067472 82.6749999999886
    vertex 3280.8567322731196 720.6867295011348 82.6749999999886
    vertex 3281.7405338453327 722.9345857729116 82.6749999999886
  endloop
endfacet
facet normal 0.0 0.0 1.0
  outer loop
    vertex 3281.5537683252164 726.8299809067472 82.6749999999886
    vertex 3281.7405338453327 722.9345857729116 82.6749999999886
    vertex 3284.341910732654 730.2718026345881 82.6749999999886
  endloop
endfacet
facet normal 0.0 0.0 1.0
  outer loop
    vertex 3284.341910732654 730.2718026345881 82.6749999999886
    vertex 3281.7405338453327 722.9345857729116 82.6749999999886
    vertex 3283.9683796924237 727.0967887926263 82.6749999999886
  endloop
endfacet
facet normal 0.0 0.0 1.0
  outer loop
    vertex 3284.341910732654 730.2718026345881 82.6749999999886
    vertex 3283.9683796924237 727.0967887926263 82.6749999999886
    vertex 3285.2690679026273 728.9110830836242 82.6749999999886
  endloop
endfacet
facet normal 0.0 0.0 1.0
  outer loop
    vertex 3284.341910732654 730.2718026345881 82.6749999999886
    vertex 3274.41665737795 732.4062657216214 82.6749999999886
    vertex 3274.41665737795 730.2718026345881 82.6749999999886
  endloop
endfacet
facet normal 0.0 0.0 1.0
  outer loop
    vertex 3274.41665737795 732.4062657216214 82.6749999999886
    vertex 3284.341910732654 730.2718026345881 82.6749999999886
    vertex 3286.663139339803 732.4062657216214 82.6749999999886
  endloop
endfacet
facet normal 0.0 0.0 1.0
  outer loop
    vertex 3286.663139339803 732.4062657216214 82.6749999999886
    vertex 3284.341910732654 730.2718026345881 82.6749999999886
    vertex 3285.2690679026273 728.9110830836242 82.6749999999886
  endloop
endfacet
facet normal 0.0 0.0 1.0
  outer loop
    vertex 3286.663139339803 732.4062657216214 82.6749999999886
    vertex 3285.2690679026273 728.9110830836242 82.6749999999886
    vertex 3286.663139339803 730.4585681547036 82.6749999999886
  endloop
endfacet
facet normal 1.0 0.0 0.0
  outer loop
    vertex 3286.663139339803 732.4062657216214 79.4999999999886
    vertex 3286.663139339803 730.4585681547036 82.6749999999886
    vertex 3286.663139339803 730.4585681547036 79.4999999999886
  endloop
endfacet
facet normal 1.0 0.0 0.0
  outer loop
    vertex 3286.663139339803 730.4585681547036 82.6749999999886
    vertex 3286.663139339803 732.4062657216214 79.4999999999886
    vertex 3286.663139339803 732.4062657216214 82.6749999999886
  endloop
endfacet
facet normal 0.742975384037356 -0.6693187422406035 0.0
  outer loop
    vertex 3286.663139339803 730.4585681547036 79.4999999999886
    vertex 3285.2690679026273 728.9110830836242 82.6749999999886
    vertex 3285.2690679026273 728.9110830836242 79.4999999999886
  endloop
endfacet
facet normal 0.742975384037356 -0.6693187422406035 0.0
  outer loop
    vertex 3285.2690679026273 728.9110830836242 82.6749999999886
    vertex 3286.663139339803 730.4585681547036 79.4999999999886
    vertex 3286.663139339803 730.4585681547036 82.6749999999886
  endloop
endfacet
facet normal 0.8127229519189783 -0.5826503268892093 0.0
  outer loop
    vertex 3285.2690679026273 728.9110830836242 79.4999999999886
    vertex 3283.9683796924237 727.0967887926263 82.6749999999886
    vertex 3283.9683796924237 727.0967887926263 79.4999999999886
  endloop
endfacet
facet normal 0.8127229519189783 -0.5826503268892093 0.0
  outer loop
    vertex 3283.9683796924237 727.0967887926263 82.6749999999886
    vertex 3285.2690679026273 728.9110830836242 79.4999999999886
    vertex 3285.2690679026273 728.9110830836242 82.6749999999886
  endloop
endfacet
facet normal 0.8816479495856246 -0.471907716605126 0.0
  outer loop
    vertex 3283.9683796924237 727.0967887926263 79.4999999999886
    vertex 3281.7405338453327 722.9345857729116 82.6749999999886
    vertex 3281.7405338453327 722.9345857729116 79.4999999999886
  endloop
endfacet
facet normal 0.8816479495856246 -0.471907716605126 0.0
  outer loop
    vertex 3281.7405338453327 722.9345857729116 82.6749999999886
    vertex 3283.9683796924237 727.0967887926263 79.4999999999886
    vertex 3283.9683796924237 727.0967887926263 82.6749999999886
  endloop
endfacet
facet normal 0.9306506871110425 -0.3659088664951213 0.0
  outer loop
    vertex 3281.7405338453327 722.9345857729116 79.4999999999886
    vertex 3280.8567322731196 720.6867295011348 82.6749999999886
    vertex 3280.8567322731196 720.6867295011348 79.4999999999886
  endloop
endfacet
facet normal 0.9306506871110425 -0.3659088664951213 0.0
  outer loop
    vertex 3280.8567322731196 720.6867295011348 82.6749999999886
    vertex 3281.7405338453327 722.9345857729116 79.4999999999886
    vertex 3281.7405338453327 722.9345857729116 82.6749999999886
  endloop
endfacet
facet normal 0.9567573787537923 -0.2908871227816257 0.0
  outer loop
    vertex 3280.8567322731196 720.6867295011348 79.4999999999886
    vertex 3280.1530269243513 718.3721709243782 82.6749999999886
    vertex 3280.1530269243513 718.3721709243782 79.4999999999886
  endloop
endfacet
facet normal 0.9567573787537923 -0.2908871227816257 0.0
  outer loop
    vertex 3280.1530269243513 718.3721709243782 82.6749999999886
    vertex 3280.8567322731196 720.6867295011348 79.4999999999886
    vertex 3280.8567322731196 720.6867295011348 82.6749999999886
  endloop
endfacet
facet normal 0.9780081210950334 -0.20856681201035482 0.0
  outer loop
    vertex 3280.1530269243513 718.3721709243782 79.4999999999886
    vertex 3279.6594317351573 716.0576123476217 82.6749999999886
    vertex 3279.6594317351573 716.0576123476217 79.4999999999886
  endloop
endfacet
facet normal 0.9780081210950334 -0.20856681201035482 0.0
  outer loop
    vertex 3279.6594317351573 716.0576123476217 82.6749999999886
    vertex 3280.1530269243513 718.3721709243782 79.4999999999886
    vertex 3280.1530269243513 718.3721709243782 82.6749999999886
  endloop
endfacet
facet normal 0.9937026488938951 -0.11204929978030286 0.0
  outer loop
    vertex 3279.6594317351573 716.0576123476217 79.4999999999886
    vertex 3279.4059648438897 713.8097560758448 82.6749999999886
    vertex 3279.4059648438897 713.8097560758448 79.4999999999886
  endloop
endfacet
facet normal 0.9937026488938951 -0.11204929978030286 0.0
  outer loop
    vertex 3279.4059648438897 713.8097560758448 82.6749999999886
    vertex 3279.6594317351573 716.0576123476217 79.4999999999886
    vertex 3279.6594317351573 716.0576123476217 82.6749999999886
  endloop
endfacet
facet normal 0.0 -1.0 0.0
  outer loop
    vertex 3279.4059648438897 713.8097560758448 82.6749999999886
    vertex 3276.8712899280376 713.8097560758448 79.4999999999886
    vertex 3279.4059648438897 713.8097560758448 79.4999999999886
  endloop
endfacet
facet normal 0.0 -1.0 0.0
  outer loop
    vertex 3276.8712899280376 713.8097560758448 79.4999999999886
    vertex 3279.4059648438897 713.8097560758448 82.6749999999886
    vertex 3276.8712899280376 713.8097560758448 82.6749999999886
  endloop
endfacet
facet normal -0.9932551260565745 0.11594936206093838 0.0
  outer loop
    vertex 3277.1481025259955 716.1810113116752 82.6749999999886
    vertex 3276.8712899280376 713.8097560758448 79.4999999999886
    vertex 3276.8712899280376 713.8097560758448 82.6749999999886
  endloop
endfacet
facet normal -0.9932551260565745 0.11594936206093838 0.0
  outer loop
    vertex 3276.8712899280376 713.8097560758448 79.4999999999886
    vertex 3277.1481025259955 716.1810113116752 82.6749999999886
    vertex 3277.1481025259955 716.1810113116752 79.4999999999886
  endloop
endfacet
facet normal -0.9764844728268102 0.21558774159990343 0.0
  outer loop
    vertex 3277.658373191381 718.4922344730238 82.6749999999886
    vertex 3277.1481025259955 716.1810113116752 79.4999999999886
    vertex 3277.1481025259955 716.1810113116752 82.6749999999886
  endloop
endfacet
facet normal -0.9764844728268102 0.21558774159990343 0.0
  outer loop
    vertex 3277.1481025259955 716.1810113116752 79.4999999999886
    vertex 3277.658373191381 718.4922344730238 82.6749999999886
    vertex 3277.658373191381 718.4922344730238 79.4999999999886
  endloop
endfacet
facet normal -0.9521763814672695 0.30554891355705593 0.0
  outer loop
    vertex 3278.375418934443 720.7267507507186 82.6749999999886
    vertex 3277.658373191381 718.4922344730238 79.4999999999886
    vertex 3277.658373191381 718.4922344730238 82.6749999999886
  endloop
endfacet
facet normal -0.9521763814672695 0.30554891355705593 0.0
  outer loop
    vertex 3277.658373191381 718.4922344730238 79.4999999999886
    vertex 3278.375418934443 720.7267507507186 82.6749999999886
    vertex 3278.375418934443 720.7267507507186 79.4999999999886
  endloop
endfacet
facet normal -0.9223099488231425 0.386450977876693 0.0
  outer loop
    vertex 3279.2725609009503 722.8678838014418 82.6749999999886
    vertex 3278.375418934443 720.7267507507186 79.4999999999886
    vertex 3278.375418934443 720.7267507507186 82.6749999999886
  endloop
endfacet
facet normal -0.9223099488231425 0.386450977876693 0.0
  outer loop
    vertex 3278.375418934443 720.7267507507186 79.4999999999886
    vertex 3279.2725609009503 722.8678838014418 82.6749999999886
    vertex 3279.2725609009503 722.8678838014418 79.4999999999886
  endloop
endfacet
facet normal -0.8666224568741691 0.4989644448669455 0.0
  outer loop
    vertex 3281.5537683252164 726.8299809067472 82.6749999999886
    vertex 3279.2725609009503 722.8678838014418 79.4999999999886
    vertex 3279.2725609009503 722.8678838014418 82.6749999999886
  endloop
endfacet
facet normal -0.8666224568741691 0.4989644448669455 0.0
  outer loop
    vertex 3279.2725609009503 722.8678838014418 79.4999999999886
    vertex 3281.5537683252164 726.8299809067472 82.6749999999886
    vertex 3281.5537683252164 726.8299809067472 79.4999999999886
  endloop
endfacet
facet normal -0.7770344165263309 0.6294581126124156 0.0
  outer loop
    vertex 3284.341910732654 730.2718026345881 82.6749999999886
    vertex 3281.5537683252164 726.8299809067472 79.4999999999886
    vertex 3281.5537683252164 726.8299809067472 82.6749999999886
  endloop
endfacet
facet normal -0.7770344165263309 0.6294581126124156 0.0
  outer loop
    vertex 3281.5537683252164 726.8299809067472 79.4999999999886
    vertex 3284.341910732654 730.2718026345881 82.6749999999886
    vertex 3284.341910732654 730.2718026345881 79.4999999999886
  endloop
endfacet
facet normal 0.0 -1.0 0.0
  outer loop
    vertex 3284.341910732654 730.2718026345881 82.6749999999886
    vertex 3274.41665737795 730.2718026345881 79.4999999999886
    vertex 3284.341910732654 730.2718026345881 79.4999999999886
  endloop
endfacet
facet normal 0.0 -1.0 0.0
  outer loop
    vertex 3274.41665737795 730.2718026345881 79.4999999999886
    vertex 3284.341910732654 730.2718026345881 82.6749999999886
    vertex 3274.41665737795 730.2718026345881 82.6749999999886
  endloop
endfacet
facet normal -1.0 0.0 0.0
  outer loop
    vertex 3274.41665737795 732.4062657216214 82.6749999999886
    vertex 3274.41665737795 730.2718026345881 79.4999999999886
    vertex 3274.41665737795 730.2718026345881 82.6749999999886
  endloop
endfacet
facet normal -1.0 0.0 0.0
  outer loop
    vertex 3274.41665737795 730.2718026345881 79.4999999999886
    vertex 3274.41665737795 732.4062657216214 82.6749999999886
    vertex 3274.41665737795 732.4062657216214 79.4999999999886
  endloop
endfacet
facet normal 0.0 1.0 0.0
  outer loop
    vertex 3274.41665737795 732.4062657216214 82.6749999999886
    vertex 3286.663139339803 732.4062657216214 79.4999999999886
    vertex 3274.41665737795 732.4062657216214 79.4999999999886
  endloop
endfacet
facet normal 0.0 1.0 0.0
  outer loop
    vertex 3286.663139339803 732.4062657216214 79.4999999999886
    vertex 3274.41665737795 732.4062657216214 82.6749999999886
    vertex 3286.663139339803 732.4062657216214 82.6749999999886
  endloop
endfacet
facet normal -0.0 -0.0 -1.0
  outer loop
    vertex 3281.1535564963983 704.6869690379157 79.4999999999886
    vertex 3279.779495884121 703.686439465869 79.4999999999886
    vertex 3279.779495884121 704.6869690379157 79.4999999999886
  endloop
endfacet
facet normal -0.0 -0.0 -1.0
  outer loop
    vertex 3279.779495884121 703.686439465869 79.4999999999886
    vertex 3281.1535564963983 704.6869690379157 79.4999999999886
    vertex 3281.1535564963983 703.686439465869 79.4999999999886
  endloop
endfacet
facet normal -0.0 -0.0 -1.0
  outer loop
    vertex 3279.779495884121 706.754730153479 79.4999999999886
    vertex 3278.6455623691345 704.6869690379157 79.4999999999886
    vertex 3278.6455623691345 706.754730153479 79.4999999999886
  endloop
endfacet
facet normal -0.0 -0.0 -1.0
  outer loop
    vertex 3278.6455623691345 704.6869690379157 79.4999999999886
    vertex 3279.779495884121 706.754730153479 79.4999999999886
    vertex 3278.6455623691345 703.686439465869 79.4999999999886
  endloop
endfacet
facet normal -0.0 -0.0 -1.0
  outer loop
    vertex 3278.6455623691345 703.686439465869 79.4999999999886
    vertex 3279.779495884121 706.754730153479 79.4999999999886
    vertex 3278.6455623691345 699.2974497431569 79.4999999999886
  endloop
endfacet
facet normal -0.0 -0.0 -1.0
  outer loop
    vertex 3278.6455623691345 699.2974497431569 79.4999999999886
    vertex 3279.779495884121 706.754730153479 79.4999999999886
    vertex 3278.7389451291924 698.5237068741073 79.4999999999886
  endloop
endfacet
facet normal -0.0 -0.0 -1.0
  outer loop
    vertex 3278.7389451291924 698.5237068741073 79.4999999999886
    vertex 3279.779495884121 706.754730153479 79.4999999999886
    vertex 3279.025763606512 698.0701334681129 79.4999999999886
  endloop
endfacet
facet normal -0.0 -0.0 -1.0
  outer loop
    vertex 3279.025763606512 698.0701334681129 79.4999999999886
    vertex 3279.779495884121 706.754730153479 79.4999999999886
    vertex 3279.5326985896827 697.8500169622625 79.4999999999886
  endloop
endfacet
facet normal -0.0 -0.0 -1.0
  outer loop
    vertex 3279.5326985896827 697.8500169622625 79.4999999999886
    vertex 3279.779495884121 706.754730153479 79.4999999999886
    vertex 3279.779495884121 699.4041728975085 79.4999999999886
  endloop
endfacet
facet normal -0.0 -0.0 -1.0
  outer loop
    vertex 3279.5326985896827 697.8500169622625 79.4999999999886
    vertex 3279.779495884121 699.4041728975085 79.4999999999886
    vertex 3279.812846869856 699.0840034344536 79.4999999999886
  endloop
endfacet
facet normal -0.0 -0.0 -1.0
  outer loop
    vertex 3279.5326985896827 697.8500169622625 79.4999999999886
    vertex 3279.812846869856 699.0840034344536 79.4999999999886
    vertex 3280.286430867291 697.7899851879397 79.4999999999886
  endloop
endfacet
facet normal -0.0 -0.0 -1.0
  outer loop
    vertex 3279.779495884121 699.4041728975085 79.4999999999886
    vertex 3279.779495884121 706.754730153479 79.4999999999886
    vertex 3279.779495884121 704.6869690379157 79.4999999999886
  endloop
endfacet
facet normal -0.0 -0.0 -1.0
  outer loop
    vertex 3279.779495884121 699.4041728975085 79.4999999999886
    vertex 3279.779495884121 704.6869690379157 79.4999999999886
    vertex 3279.779495884121 703.686439465869 79.4999999999886
  endloop
endfacet
facet normal -0.0 -0.0 -1.0
  outer loop
    vertex 3280.286430867291 697.7899851879397 79.4999999999886
    vertex 3279.812846869856 699.0840034344536 79.4999999999886
    vertex 3279.939580615648 698.8972379143381 79.4999999999886
  endloop
endfacet
facet normal -0.0 -0.0 -1.0
  outer loop
    vertex 3280.286430867291 697.7899851879397 79.4999999999886
    vertex 3279.939580615648 698.8972379143381 79.4999999999886
    vertex 3280.1997183043804 698.8105253514275 79.4999999999886
  endloop
endfacet
facet normal -0.0 -0.0 -1.0
  outer loop
    vertex 3280.286430867291 697.7899851879397 79.4999999999886
    vertex 3280.1997183043804 698.8105253514275 79.4999999999886
    vertex 3280.633281118934 698.7905147599865 79.4999999999886
  endloop
endfacet
facet normal -0.0 -0.0 -1.0
  outer loop
    vertex 3280.286430867291 697.7899851879397 79.4999999999886
    vertex 3280.633281118934 698.7905147599865 79.4999999999886
    vertex 3281.1535564963983 697.7899851879397 79.4999999999886
  endloop
endfacet
facet normal -0.0 -0.0 -1.0
  outer loop
    vertex 3281.1535564963983 697.7899851879397 79.4999999999886
    vertex 3280.633281118934 698.7905147599865 79.4999999999886
    vertex 3281.1535564963983 698.7905147599865 79.4999999999886
  endloop
endfacet
facet normal -0.0 -0.0 -1.0
  outer loop
    vertex 3278.6455623691345 704.6869690379157 79.4999999999886
    vertex 3277.471607671266 703.686439465869 79.4999999999886
    vertex 3277.471607671266 704.6869690379157 79.4999999999886
  endloop
endfacet
facet normal -0.0 -0.0 -1.0
  outer loop
    vertex 3277.471607671266 703.686439465869 79.4999999999886
    vertex 3278.6455623691345 704.6869690379157 79.4999999999886
    vertex 3278.6455623691345 703.686439465869 79.4999999999886
  endloop
endfacet
facet normal -0.0 -0.0 -1.0
  outer loop
    vertex 3283.6081890464866 707.3150267138253 79.4999999999886
    vertex 3282.4742555315 705.9276257072537 79.4999999999886
    vertex 3282.4742555315 707.3150267138253 79.4999999999886
  endloop
endfacet
facet normal -0.0 -0.0 -1.0
  outer loop
    vertex 3282.4742555315 705.9276257072537 79.4999999999886
    vertex 3283.6081890464866 707.3150267138253 79.4999999999886
    vertex 3283.6081890464866 705.9276257072537 79.4999999999886
  endloop
endfacet
facet normal -0.0 -0.0 -1.0
  outer loop
    vertex 3283.6081890464866 704.6869690379157 79.4999999999886
    vertex 3282.4742555315 697.7899851879397 79.4999999999886
    vertex 3282.4742555315 704.6869690379157 79.4999999999886
  endloop
endfacet
facet normal -0.0 -0.0 -1.0
  outer loop
    vertex 3282.4742555315 697.7899851879397 79.4999999999886
    vertex 3283.6081890464866 704.6869690379157 79.4999999999886
    vertex 3283.6081890464866 697.7899851879397 79.4999999999886
  endloop
endfacet
facet normal 0.0 0.0 1.0
  outer loop
    vertex 3279.5326985896827 697.8500169622625 81.0874999999886
    vertex 3279.812846869856 699.0840034344536 81.0874999999886
    vertex 3279.779495884121 699.4041728975085 81.0874999999886
  endloop
endfacet
facet normal 0.0 0.0 1.0
  outer loop
    vertex 3279.812846869856 699.0840034344536 81.0874999999886
    vertex 3279.5326985896827 697.8500169622625 81.0874999999886
    vertex 3280.286430867291 697.7899851879397 81.0874999999886
  endloop
endfacet
facet normal 0.0 0.0 1.0
  outer loop
    vertex 3279.812846869856 699.0840034344536 81.0874999999886
    vertex 3280.286430867291 697.7899851879397 81.0874999999886
    vertex 3279.939580615648 698.8972379143381 81.0874999999886
  endloop
endfacet
facet normal 0.0 0.0 1.0
  outer loop
    vertex 3279.939580615648 698.8972379143381 81.0874999999886
    vertex 3280.286430867291 697.7899851879397 81.0874999999886
    vertex 3280.1997183043804 698.8105253514275 81.0874999999886
  endloop
endfacet
facet normal 0.0 0.0 1.0
  outer loop
    vertex 3280.1997183043804 698.8105253514275 81.0874999999886
    vertex 3280.286430867291 697.7899851879397 81.0874999999886
    vertex 3280.633281118934 698.7905147599865 81.0874999999886
  endloop
endfacet
facet normal 0.0 0.0 1.0
  outer loop
    vertex 3280.633281118934 698.7905147599865 81.0874999999886
    vertex 3280.286430867291 697.7899851879397 81.0874999999886
    vertex 3281.1535564963983 697.7899851879397 81.0874999999886
  endloop
endfacet
facet normal 0.0 0.0 1.0
  outer loop
    vertex 3280.633281118934 698.7905147599865 81.0874999999886
    vertex 3281.1535564963983 697.7899851879397 81.0874999999886
    vertex 3281.1535564963983 698.7905147599865 81.0874999999886
  endloop
endfacet
facet normal 0.0 0.0 1.0
  outer loop
    vertex 3281.1535564963983 703.686439465869 81.0874999999886
    vertex 3279.779495884121 704.6869690379157 81.0874999999886
    vertex 3279.779495884121 703.686439465869 81.0874999999886
  endloop
endfacet
facet normal 0.0 0.0 1.0
  outer loop
    vertex 3279.779495884121 704.6869690379157 81.0874999999886
    vertex 3281.1535564963983 703.686439465869 81.0874999999886
    vertex 3281.1535564963983 704.6869690379157 81.0874999999886
  endloop
endfacet
facet normal 0.0 0.0 1.0
  outer loop
    vertex 3278.7389451291924 698.5237068741073 81.0874999999886
    vertex 3278.6455623691345 703.686439465869 81.0874999999886
    vertex 3278.6455623691345 699.2974497431569 81.0874999999886
  endloop
endfacet
facet normal 0.0 0.0 1.0
  outer loop
    vertex 3278.6455623691345 703.686439465869 81.0874999999886
    vertex 3278.7389451291924 698.5237068741073 81.0874999999886
    vertex 3278.6455623691345 704.6869690379157 81.0874999999886
  endloop
endfacet
facet normal 0.0 0.0 1.0
  outer loop
    vertex 3278.6455623691345 704.6869690379157 81.0874999999886
    vertex 3278.7389451291924 698.5237068741073 81.0874999999886
    vertex 3278.6455623691345 706.754730153479 81.0874999999886
  endloop
endfacet
facet normal 0.0 0.0 1.0
  outer loop
    vertex 3278.6455623691345 706.754730153479 81.0874999999886
    vertex 3278.7389451291924 698.5237068741073 81.0874999999886
    vertex 3279.779495884121 706.754730153479 81.0874999999886
  endloop
endfacet
facet normal 0.0 0.0 1.0
  outer loop
    vertex 3279.779495884121 706.754730153479 81.0874999999886
    vertex 3278.7389451291924 698.5237068741073 81.0874999999886
    vertex 3279.025763606512 698.0701334681129 81.0874999999886
  endloop
endfacet
facet normal 0.0 0.0 1.0
  outer loop
    vertex 3279.779495884121 706.754730153479 81.0874999999886
    vertex 3279.025763606512 698.0701334681129 81.0874999999886
    vertex 3279.5326985896827 697.8500169622625 81.0874999999886
  endloop
endfacet
facet normal 0.0 0.0 1.0
  outer loop
    vertex 3279.779495884121 706.754730153479 81.0874999999886
    vertex 3279.5326985896827 697.8500169622625 81.0874999999886
    vertex 3279.779495884121 699.4041728975085 81.0874999999886
  endloop
endfacet
facet normal 0.0 0.0 1.0
  outer loop
    vertex 3279.779495884121 706.754730153479 81.0874999999886
    vertex 3279.779495884121 699.4041728975085 81.0874999999886
    vertex 3279.779495884121 703.686439465869 81.0874999999886
  endloop
endfacet
facet normal 0.0 0.0 1.0
  outer loop
    vertex 3279.779495884121 706.754730153479 81.0874999999886
    vertex 3279.779495884121 703.686439465869 81.0874999999886
    vertex 3279.779495884121 704.6869690379157 81.0874999999886
  endloop
endfacet
facet normal 0.0 0.0 1.0
  outer loop
    vertex 3278.6455623691345 703.686439465869 81.0874999999886
    vertex 3277.471607671266 704.6869690379157 81.0874999999886
    vertex 3277.471607671266 703.686439465869 81.0874999999886
  endloop
endfacet
facet normal 0.0 0.0 1.0
  outer loop
    vertex 3277.471607671266 704.6869690379157 81.0874999999886
    vertex 3278.6455623691345 703.686439465869 81.0874999999886
    vertex 3278.6455623691345 704.6869690379157 81.0874999999886
  endloop
endfacet
facet normal 1.0 0.0 0.0
  outer loop
    vertex 3279.779495884121 706.754730153479 79.4999999999886
    vertex 3279.779495884121 704.6869690379157 81.0874999999886
    vertex 3279.779495884121 704.6869690379157 79.4999999999886
  endloop
endfacet
facet normal 1.0 0.0 0.0
  outer loop
    vertex 3279.779495884121 704.6869690379157 81.0874999999886
    vertex 3279.779495884121 706.754730153479 79.4999999999886
    vertex 3279.779495884121 706.754730153479 81.0874999999886
  endloop
endfacet
facet normal 0.0 1.0 0.0
  outer loop
    vertex 3279.779495884121 704.6869690379157 81.0874999999886
    vertex 3281.1535564963983 704.6869690379157 79.4999999999886
    vertex 3279.779495884121 704.6869690379157 79.4999999999886
  endloop
endfacet
facet normal 0.0 1.0 0.0
  outer loop
    vertex 3281.1535564963983 704.6869690379157 79.4999999999886
    vertex 3279.779495884121 704.6869690379157 81.0874999999886
    vertex 3281.1535564963983 704.6869690379157 81.0874999999886
  endloop
endfacet
facet normal 1.0 0.0 0.0
  outer loop
    vertex 3281.1535564963983 704.6869690379157 79.4999999999886
    vertex 3281.1535564963983 703.686439465869 81.0874999999886
    vertex 3281.1535564963983 703.686439465869 79.4999999999886
  endloop
endfacet
facet normal 1.0 0.0 0.0
  outer loop
    vertex 3281.1535564963983 703.686439465869 81.0874999999886
    vertex 3281.1535564963983 704.6869690379157 79.4999999999886
    vertex 3281.1535564963983 704.6869690379157 81.0874999999886
  endloop
endfacet
facet normal 0.0 -1.0 0.0
  outer loop
    vertex 3281.1535564963983 703.686439465869 81.0874999999886
    vertex 3279.779495884121 703.686439465869 79.4999999999886
    vertex 3281.1535564963983 703.686439465869 79.4999999999886
  endloop
endfacet
facet normal 0.0 -1.0 0.0
  outer loop
    vertex 3279.779495884121 703.686439465869 79.4999999999886
    vertex 3281.1535564963983 703.686439465869 81.0874999999886
    vertex 3279.779495884121 703.686439465869 81.0874999999886
  endloop
endfacet
facet normal 1.0 0.0 0.0
  outer loop
    vertex 3279.779495884121 703.686439465869 79.4999999999886
    vertex 3279.779495884121 699.4041728975085 81.0874999999886
    vertex 3279.779495884121 699.4041728975085 79.4999999999886
  endloop
endfacet
facet normal 1.0 0.0 0.0
  outer loop
    vertex 3279.779495884121 699.4041728975085 81.0874999999886
    vertex 3279.779495884121 703.686439465869 79.4999999999886
    vertex 3279.779495884121 703.686439465869 81.0874999999886
  endloop
endfacet
facet normal 0.9946184088907779 0.10360608425945629 0.0
  outer loop
    vertex 3279.779495884121 699.4041728975085 79.4999999999886
    vertex 3279.812846869856 699.0840034344536 81.0874999999886
    vertex 3279.812846869856 699.0840034344536 79.4999999999886
  endloop
endfacet
facet normal 0.9946184088907779 0.10360608425945629 0.0
  outer loop
    vertex 3279.812846869856 699.0840034344536 81.0874999999886
    vertex 3279.779495884121 699.4041728975085 79.4999999999886
    vertex 3279.779495884121 699.4041728975085 81.0874999999886
  endloop
endfacet
facet normal 0.8274757743917581 0.5615014183372653 0.0
  outer loop
    vertex 3279.812846869856 699.0840034344536 79.4999999999886
    vertex 3279.939580615648 698.8972379143381 81.0874999999886
    vertex 3279.939580615648 698.8972379143381 79.4999999999886
  endloop
endfacet
facet normal 0.8274757743917581 0.5615014183372653 0.0
  outer loop
    vertex 3279.939580615648 698.8972379143381 81.0874999999886
    vertex 3279.812846869856 699.0840034344536 79.4999999999886
    vertex 3279.812846869856 699.0840034344536 81.0874999999886
  endloop
endfacet
facet normal 0.3162277660168387 0.9486832980505137 0.0
  outer loop
    vertex 3279.939580615648 698.8972379143381 81.0874999999886
    vertex 3280.1997183043804 698.8105253514275 79.4999999999886
    vertex 3279.939580615648 698.8972379143381 79.4999999999886
  endloop
endfacet
facet normal 0.3162277660168387 0.9486832980505137 0.0
  outer loop
    vertex 3280.1997183043804 698.8105253514275 79.4999999999886
    vertex 3279.939580615648 698.8972379143381 81.0874999999886
    vertex 3280.1997183043804 698.8105253514275 81.0874999999886
  endloop
endfacet
facet normal 0.04610476660840082 0.9989366098486856 0.0
  outer loop
    vertex 3280.1997183043804 698.8105253514275 81.0874999999886
    vertex 3280.633281118934 698.7905147599865 79.4999999999886
    vertex 3280.1997183043804 698.8105253514275 79.4999999999886
  endloop
endfacet
facet normal 0.04610476660840082 0.9989366098486856 0.0
  outer loop
    vertex 3280.633281118934 698.7905147599865 79.4999999999886
    vertex 3280.1997183043804 698.8105253514275 81.0874999999886
    vertex 3280.633281118934 698.7905147599865 81.0874999999886
  endloop
endfacet
facet normal 0.0 1.0 0.0
  outer loop
    vertex 3280.633281118934 698.7905147599865 81.0874999999886
    vertex 3281.1535564963983 698.7905147599865 79.4999999999886
    vertex 3280.633281118934 698.7905147599865 79.4999999999886
  endloop
endfacet
facet normal 0.0 1.0 0.0
  outer loop
    vertex 3281.1535564963983 698.7905147599865 79.4999999999886
    vertex 3280.633281118934 698.7905147599865 81.0874999999886
    vertex 3281.1535564963983 698.7905147599865 81.0874999999886
  endloop
endfacet
facet normal 1.0 0.0 0.0
  outer loop
    vertex 3281.1535564963983 698.7905147599865 79.4999999999886
    vertex 3281.1535564963983 697.7899851879397 81.0874999999886
    vertex 3281.1535564963983 697.7899851879397 79.4999999999886
  endloop
endfacet
facet normal 1.0 0.0 0.0
  outer loop
    vertex 3281.1535564963983 697.7899851879397 81.0874999999886
    vertex 3281.1535564963983 698.7905147599865 79.4999999999886
    vertex 3281.1535564963983 698.7905147599865 81.0874999999886
  endloop
endfacet
facet normal 0.0 -1.0 0.0
  outer loop
    vertex 3281.1535564963983 697.7899851879397 81.0874999999886
    vertex 3280.286430867291 697.7899851879397 79.4999999999886
    vertex 3281.1535564963983 697.7899851879397 79.4999999999886
  endloop
endfacet
facet normal 0.0 -1.0 0.0
  outer loop
    vertex 3280.286430867291 697.7899851879397 79.4999999999886
    vertex 3281.1535564963983 697.7899851879397 81.0874999999886
    vertex 3280.286430867291 697.7899851879397 81.0874999999886
  endloop
endfacet
facet normal -0.07939459645042159 -0.996843266544182 0.0
  outer loop
    vertex 3280.286430867291 697.7899851879397 81.0874999999886
    vertex 3279.5326985896827 697.8500169622625 79.4999999999886
    vertex 3280.286430867291 697.7899851879397 79.4999999999886
  endloop
endfacet
facet normal -0.07939459645042159 -0.996843266544182 0.0
  outer loop
    vertex 3279.5326985896827 697.8500169622625 79.4999999999886
    vertex 3280.286430867291 697.7899851879397 81.0874999999886
    vertex 3279.5326985896827 697.8500169622625 81.0874999999886
  endloop
endfacet
facet normal -0.3982847418812835 -0.9172618297871986 0.0
  outer loop
    vertex 3279.5326985896827 697.8500169622625 81.0874999999886
    vertex 3279.025763606512 698.0701334681129 79.4999999999886
    vertex 3279.5326985896827 697.8500169622625 79.4999999999886
  endloop
endfacet
facet normal -0.3982847418812835 -0.9172618297871986 0.0
  outer loop
    vertex 3279.025763606512 698.0701334681129 79.4999999999886
    vertex 3279.5326985896827 697.8500169622625 81.0874999999886
    vertex 3279.025763606512 698.0701334681129 81.0874999999886
  endloop
endfacet
facet normal -0.8451934236457448 -0.5344605473053973 0.0
  outer loop
    vertex 3278.7389451291924 698.5237068741073 81.0874999999886
    vertex 3279.025763606512 698.0701334681129 79.4999999999886
    vertex 3279.025763606512 698.0701334681129 81.0874999999886
  endloop
endfacet
facet normal -0.8451934236457448 -0.5344605473053973 0.0
  outer loop
    vertex 3279.025763606512 698.0701334681129 79.4999999999886
    vertex 3278.7389451291924 698.5237068741073 81.0874999999886
    vertex 3278.7389451291924 698.5237068741073 79.4999999999886
  endloop
endfacet
facet normal -0.9927956130099675 -0.11982016019085817 0.0
  outer loop
    vertex 3278.6455623691345 699.2974497431569 81.0874999999886
    vertex 3278.7389451291924 698.5237068741073 79.4999999999886
    vertex 3278.7389451291924 698.5237068741073 81.0874999999886
  endloop
endfacet
facet normal -0.9927956130099675 -0.11982016019085817 0.0
  outer loop
    vertex 3278.7389451291924 698.5237068741073 79.4999999999886
    vertex 3278.6455623691345 699.2974497431569 81.0874999999886
    vertex 3278.6455623691345 699.2974497431569 79.4999999999886
  endloop
endfacet
facet normal -1.0 0.0 0.0
  outer loop
    vertex 3278.6455623691345 703.686439465869 81.0874999999886
    vertex 3278.6455623691345 699.2974497431569 79.4999999999886
    vertex 3278.6455623691345 699.2974497431569 81.0874999999886
  endloop
endfacet
facet normal -1.0 0.0 0.0
  outer loop
    vertex 3278.6455623691345 699.2974497431569 79.4999999999886
    vertex 3278.6455623691345 703.686439465869 81.0874999999886
    vertex 3278.6455623691345 703.686439465869 79.4999999999886
  endloop
endfacet
facet normal 0.0 -1.0 0.0
  outer loop
    vertex 3278.6455623691345 703.686439465869 81.0874999999886
    vertex 3277.471607671266 703.686439465869 79.4999999999886
    vertex 3278.6455623691345 703.686439465869 79.4999999999886
  endloop
endfacet
facet normal 0.0 -1.0 0.0
  outer loop
    vertex 3277.471607671266 703.686439465869 79.4999999999886
    vertex 3278.6455623691345 703.686439465869 81.0874999999886
    vertex 3277.471607671266 703.686439465869 81.0874999999886
  endloop
endfacet
facet normal -1.0 0.0 0.0
  outer loop
    vertex 3277.471607671266 704.6869690379157 81.0874999999886
    vertex 3277.471607671266 703.686439465869 79.4999999999886
    vertex 3277.471607671266 703.686439465869 81.0874999999886
  endloop
endfacet
facet normal -1.0 0.0 0.0
  outer loop
    vertex 3277.471607671266 703.686439465869 79.4999999999886
    vertex 3277.471607671266 704.6869690379157 81.0874999999886
    vertex 3277.471607671266 704.6869690379157 79.4999999999886
  endloop
endfacet
facet normal 0.0 1.0 0.0
  outer loop
    vertex 3277.471607671266 704.6869690379157 81.0874999999886
    vertex 3278.6455623691345 704.6869690379157 79.4999999999886
    vertex 3277.471607671266 704.6869690379157 79.4999999999886
  endloop
endfacet
facet normal 0.0 1.0 0.0
  outer loop
    vertex 3278.6455623691345 704.6869690379157 79.4999999999886
    vertex 3277.471607671266 704.6869690379157 81.0874999999886
    vertex 3278.6455623691345 704.6869690379157 81.0874999999886
  endloop
endfacet
facet normal -1.0 0.0 0.0
  outer loop
    vertex 3278.6455623691345 706.754730153479 81.0874999999886
    vertex 3278.6455623691345 704.6869690379157 79.4999999999886
    vertex 3278.6455623691345 704.6869690379157 81.0874999999886
  endloop
endfacet
facet normal -1.0 0.0 0.0
  outer loop
    vertex 3278.6455623691345 704.6869690379157 79.4999999999886
    vertex 3278.6455623691345 706.754730153479 81.0874999999886
    vertex 3278.6455623691345 706.754730153479 79.4999999999886
  endloop
endfacet
facet normal 0.0 1.0 0.0
  outer loop
    vertex 3278.6455623691345 706.754730153479 81.0874999999886
    vertex 3279.779495884121 706.754730153479 79.4999999999886
    vertex 3278.6455623691345 706.754730153479 79.4999999999886
  endloop
endfacet
facet normal 0.0 1.0 0.0
  outer loop
    vertex 3279.779495884121 706.754730153479 79.4999999999886
    vertex 3278.6455623691345 706.754730153479 81.0874999999886
    vertex 3279.779495884121 706.754730153479 81.0874999999886
  endloop
endfacet
facet normal 0.0 0.0 1.0
  outer loop
    vertex 3283.6081890464866 705.9276257072537 81.0874999999886
    vertex 3282.4742555315 707.3150267138253 81.0874999999886
    vertex 3282.4742555315 705.9276257072537 81.0874999999886
  endloop
endfacet
facet normal 0.0 0.0 1.0
  outer loop
    vertex 3282.4742555315 707.3150267138253 81.0874999999886
    vertex 3283.6081890464866 705.9276257072537 81.0874999999886
    vertex 3283.6081890464866 707.3150267138253 81.0874999999886
  endloop
endfacet
facet normal 1.0 0.0 0.0
  outer loop
    vertex 3283.6081890464866 707.3150267138253 79.4999999999886
    vertex 3283.6081890464866 705.9276257072537 81.0874999999886
    vertex 3283.6081890464866 705.9276257072537 79.4999999999886
  endloop
endfacet
facet normal 1.0 0.0 0.0
  outer loop
    vertex 3283.6081890464866 705.9276257072537 81.0874999999886
    vertex 3283.6081890464866 707.3150267138253 79.4999999999886
    vertex 3283.6081890464866 707.3150267138253 81.0874999999886
  endloop
endfacet
facet normal 0.0 -1.0 0.0
  outer loop
    vertex 3283.6081890464866 705.9276257072537 81.0874999999886
    vertex 3282.4742555315 705.9276257072537 79.4999999999886
    vertex 3283.6081890464866 705.9276257072537 79.4999999999886
  endloop
endfacet
facet normal 0.0 -1.0 0.0
  outer loop
    vertex 3282.4742555315 705.9276257072537 79.4999999999886
    vertex 3283.6081890464866 705.9276257072537 81.0874999999886
    vertex 3282.4742555315 705.9276257072537 81.0874999999886
  endloop
endfacet
facet normal -1.0 0.0 0.0
  outer loop
    vertex 3282.4742555315 707.3150267138253 81.0874999999886
    vertex 3282.4742555315 705.9276257072537 79.4999999999886
    vertex 3282.4742555315 705.9276257072537 81.0874999999886
  endloop
endfacet
facet normal -1.0 0.0 0.0
  outer loop
    vertex 3282.4742555315 705.9276257072537 79.4999999999886
    vertex 3282.4742555315 707.3150267138253 81.0874999999886
    vertex 3282.4742555315 707.3150267138253 79.4999999999886
  endloop
endfacet
facet normal 0.0 1.0 0.0
  outer loop
    vertex 3282.4742555315 707.3150267138253 81.0874999999886
    vertex 3283.6081890464866 707.3150267138253 79.4999999999886
    vertex 3282.4742555315 707.3150267138253 79.4999999999886
  endloop
endfacet
facet normal 0.0 1.0 0.0
  outer loop
    vertex 3283.6081890464866 707.3150267138253 79.4999999999886
    vertex 3282.4742555315 707.3150267138253 81.0874999999886
    vertex 3283.6081890464866 707.3150267138253 81.0874999999886
  endloop
endfacet
facet normal 0.0 0.0 1.0
  outer loop
    vertex 3283.6081890464866 697.7899851879397 81.0874999999886
    vertex 3282.4742555315 704.6869690379157 81.0874999999886
    vertex 3282.4742555315 697.7899851879397 81.0874999999886
  endloop
endfacet
facet normal 0.0 0.0 1.0
  outer loop
    vertex 3282.4742555315 704.6869690379157 81.0874999999886
    vertex 3283.6081890464866 697.7899851879397 81.0874999999886
    vertex 3283.6081890464866 704.6869690379157 81.0874999999886
  endloop
endfacet
facet normal -1.0 0.0 0.0
  outer loop
    vertex 3282.4742555315 704.6869690379157 81.0874999999886
    vertex 3282.4742555315 697.7899851879397 79.4999999999886
    vertex 3282.4742555315 697.7899851879397 81.0874999999886
  endloop
endfacet
facet normal -1.0 0.0 0.0
  outer loop
    vertex 3282.4742555315 697.7899851879397 79.4999999999886
    vertex 3282.4742555315 704.6869690379157 81.0874999999886
    vertex 3282.4742555315 704.6869690379157 79.4999999999886
  endloop
endfacet
facet normal 0.0 1.0 0.0
  outer loop
    vertex 3282.4742555315 704.6869690379157 81.0874999999886
    vertex 3283.6081890464866 704.6869690379157 79.4999999999886
    vertex 3282.4742555315 704.6869690379157 79.4999999999886
  endloop
endfacet
facet normal 0.0 1.0 0.0
  outer loop
    vertex 3283.6081890464866 704.6869690379157 79.4999999999886
    vertex 3282.4742555315 704.6869690379157 81.0874999999886
    vertex 3283.6081890464866 704.6869690379157 81.0874999999886
  endloop
endfacet
facet normal 1.0 0.0 0.0
  outer loop
    vertex 3283.6081890464866 704.6869690379157 79.4999999999886
    vertex 3283.6081890464866 697.7899851879397 81.0874999999886
    vertex 3283.6081890464866 697.7899851879397 79.4999999999886
  endloop
endfacet
facet normal 1.0 0.0 0.0
  outer loop
    vertex 3283.6081890464866 697.7899851879397 81.0874999999886
    vertex 3283.6081890464866 704.6869690379157 79.4999999999886
    vertex 3283.6081890464866 704.6869690379157 81.0874999999886
  endloop
endfacet
facet normal 0.0 -1.0 0.0
  outer loop
    vertex 3283.6081890464866 697.7899851879397 81.0874999999886
    vertex 3282.4742555315 697.7899851879397 79.4999999999886
    vertex 3283.6081890464866 697.7899851879397 79.4999999999886
  endloop
endfacet
facet normal 0.0 -1.0 0.0
  outer loop
    vertex 3282.4742555315 697.7899851879397 79.4999999999886
    vertex 3283.6081890464866 697.7899851879397 81.0874999999886
    vertex 3282.4742555315 697.7899851879397 81.0874999999886
  endloop
endfacet
facet normal 0.0 0.0 -1.0
  outer loop
    vertex 3304.3523983588775 761.3680956302619 73.1499999999886
    vertex 3256.7273983588743 685.1680956302615 73.1499999999886
    vertex 3256.7273983588743 761.3680956302619 73.1499999999886
  endloop
endfacet
facet normal 0.0 0.0 -1.0
  outer loop
    vertex 3256.7273983588743 685.1680956302615 73.1499999999886
    vertex 3304.3523983588775 761.3680956302619 73.1499999999886
    vertex 3304.3523983588775 685.1680956302615 73.1499999999886
  endloop
endfacet
facet normal 0.0 1.0 0.0
  outer loop
    vertex 3256.7273983588743 761.3680956302619 79.4999999999886
    vertex 3304.3523983588775 761.3680956302619 73.1499999999886
    vertex 3256.7273983588743 761.3680956302619 73.1499999999886
  endloop
endfacet
facet normal 0.0 1.0 0.0
  outer loop
    vertex 3304.3523983588775 761.3680956302619 73.1499999999886
    vertex 3256.7273983588743 761.3680956302619 79.4999999999886
    vertex 3304.3523983588775 761.3680956302619 79.4999999999886
  endloop
endfacet
facet normal 1.0 0.0 0.0
  outer loop
    vertex 3304.3523983588775 761.3680956302619 73.1499999999886
    vertex 3304.3523983588775 685.1680956302615 79.4999999999886
    vertex 3304.3523983588775 685.1680956302615 73.1499999999886
  endloop
endfacet
facet normal 1.0 0.0 0.0
  outer loop
    vertex 3304.3523983588775 685.1680956302615 79.4999999999886
    vertex 3304.3523983588775 761.3680956302619 73.1499999999886
    vertex 3304.3523983588775 761.3680956302619 79.4999999999886
  endloop
endfacet
facet normal 0.0 0.0 1.0
  outer loop
    vertex 3304.3523983588775 685.1680956302615 79.4999999999886
    vertex 3256.7273983588743 761.3680956302619 79.4999999999886
    vertex 3256.7273983588743 685.1680956302615 79.4999999999886
  endloop
endfacet
facet normal 0.0 0.0 1.0
  outer loop
    vertex 3256.7273983588743 761.3680956302619 79.4999999999886
    vertex 3304.3523983588775 685.1680956302615 79.4999999999886
    vertex 3304.3523983588775 761.3680956302619 79.4999999999886
  endloop
endfacet
facet normal -1.0 0.0 0.0
  outer loop
    vertex 3256.7273983588743 761.3680956302619 79.4999999999886
    vertex 3256.7273983588743 685.1680956302615 73.1499999999886
    vertex 3256.7273983588743 685.1680956302615 79.4999999999886
  endloop
endfacet
facet normal -1.0 0.0 0.0
  outer loop
    vertex 3256.7273983588743 685.1680956302615 73.1499999999886
    vertex 3256.7273983588743 761.3680956302619 79.4999999999886
    vertex 3256.7273983588743 761.3680956302619 73.1499999999886
  endloop
endfacet
facet normal 0.0 -1.0 0.0
  outer loop
    vertex 3304.3523983588775 685.1680956302615 79.4999999999886
    vertex 3256.7273983588743 685.1680956302615 73.1499999999886
    vertex 3304.3523983588775 685.1680956302615 73.1499999999886
  endloop
endfacet
facet normal 0.0 -1.0 0.0
  outer loop
    vertex 3256.7273983588743 685.1680956302615 73.1499999999886
    vertex 3304.3523983588775 685.1680956302615 79.4999999999886
    vertex 3256.7273983588743 685.1680956302615 79.4999999999886
  endloop
endfacet
endsolid box draft 1
