solid box draft 1
facet normal -1.0 -0.0 -0.0
  outer loop
    vertex 2819.1493078871995 1051.0900522037973 6.35
    vertex 2819.1493078871995 974.890052203797 0.0
    vertex 2819.1493078871995 974.890052203797 6.35
  endloop
endfacet
facet normal -1.0 -0.0 -0.0
  outer loop
    vertex 2819.1493078871995 974.890052203797 0.0
    vertex 2819.1493078871995 1051.0900522037973 6.35
    vertex 2819.1493078871995 1051.0900522037973 0.0
  endloop
endfacet
facet normal 0.0 -1.0 0.0
  outer loop
    vertex 2866.774307887202 974.890052203797 6.35
    vertex 2819.1493078871995 974.890052203797 0.0
    vertex 2866.774307887202 974.890052203797 0.0
  endloop
endfacet
facet normal 0.0 -1.0 0.0
  outer loop
    vertex 2819.1493078871995 974.890052203797 0.0
    vertex 2866.774307887202 974.890052203797 6.35
    vertex 2819.1493078871995 974.890052203797 6.35
  endloop
endfacet
facet normal 0.0 1.0 0.0
  outer loop
    vertex 2819.1493078871995 1051.0900522037973 6.35
    vertex 2866.774307887202 1051.0900522037973 0.0
    vertex 2819.1493078871995 1051.0900522037973 0.0
  endloop
endfacet
facet normal 0.0 1.0 0.0
  outer loop
    vertex 2866.774307887202 1051.0900522037973 0.0
    vertex 2819.1493078871995 1051.0900522037973 6.35
    vertex 2866.774307887202 1051.0900522037973 6.35
  endloop
endfacet
facet normal 0.0 0.0 1.0
  outer loop
    vertex 2866.774307887202 974.890052203797 6.35
    vertex 2819.1493078871995 1051.0900522037973 6.35
    vertex 2819.1493078871995 974.890052203797 6.35
  endloop
endfacet
facet normal 0.0 0.0 1.0
  outer loop
    vertex 2819.1493078871995 1051.0900522037973 6.35
    vertex 2866.774307887202 974.890052203797 6.35
    vertex 2866.774307887202 1051.0900522037973 6.35
  endloop
endfacet
facet normal -0.0 -0.0 -1.0
  outer loop
    vertex 2841.3209393890434 1019.0465912132534 6.350000000000011
    vertex 2839.4532841878895 1017.0855532520414 6.350000000000011
    vertex 2839.4532841878895 1018.8998468760196 6.350000000000011
  endloop
endfacet
facet normal -0.0 -0.0 -1.0
  outer loop
    vertex 2839.4532841878895 1017.0855532520414 6.350000000000011
    vertex 2841.3209393890434 1019.0465912132534 6.350000000000011
    vertex 2844.362549288066 1017.0855532520414 6.350000000000011
  endloop
endfacet
facet normal -0.0 -0.0 -1.0
  outer loop
    vertex 2844.362549288066 1017.0855532520414 6.350000000000011
    vertex 2841.3209393890434 1019.0465912132534 6.350000000000011
    vertex 2842.9618078872004 1019.5935473793056 6.350000000000011
  endloop
endfacet
facet normal -0.0 -0.0 -1.0
  outer loop
    vertex 2844.362549288066 1017.0855532520414 6.350000000000011
    vertex 2842.9618078872004 1019.5935473793056 6.350000000000011
    vertex 2844.2024645565384 1020.68745971141 6.350000000000011
  endloop
endfacet
facet normal -0.0 -0.0 -1.0
  outer loop
    vertex 2844.362549288066 1017.0855532520414 6.350000000000011
    vertex 2844.2024645565384 1020.68745971141 6.350000000000011
    vertex 2844.629357574157 1021.4745425078398 6.350000000000011
  endloop
endfacet
facet normal -0.0 -0.0 -1.0
  outer loop
    vertex 2844.362549288066 1017.0855532520414 6.350000000000011
    vertex 2844.629357574157 1021.4745425078398 6.350000000000011
    vertex 2844.362549288066 1003.5317126493809 6.350000000000011
  endloop
endfacet
facet normal -0.0 -0.0 -1.0
  outer loop
    vertex 2844.362549288066 1003.5317126493809 6.350000000000011
    vertex 2844.629357574157 1021.4745425078398 6.350000000000011
    vertex 2846.630416318039 1003.5317126493809 6.350000000000011
  endloop
endfacet
facet normal -0.0 -0.0 -1.0
  outer loop
    vertex 2846.630416318039 1003.5317126493809 6.350000000000011
    vertex 2844.629357574157 1021.4745425078398 6.350000000000011
    vertex 2844.896165059824 1022.4483917582126 6.350000000000011
  endloop
endfacet
facet normal -0.0 -0.0 -1.0
  outer loop
    vertex 2846.630416318039 1003.5317126493809 6.350000000000011
    vertex 2844.896165059824 1022.4483917582126 6.350000000000011
    vertex 2846.630416318039 1022.4483917582126 6.350000000000011
  endloop
endfacet
facet normal 0.0 0.0 1.0
  outer loop
    vertex 2846.630416318039 1003.5317126493809 9.525000000000011
    vertex 2844.362549288066 1017.0855532520414 9.525000000000011
    vertex 2844.362549288066 1003.5317126493809 9.525000000000011
  endloop
endfacet
facet normal 0.0 0.0 1.0
  outer loop
    vertex 2844.362549288066 1017.0855532520414 9.525000000000011
    vertex 2846.630416318039 1003.5317126493809 9.525000000000011
    vertex 2844.629357574157 1021.4745425078398 9.525000000000011
  endloop
endfacet
facet normal 0.0 0.0 1.0
  outer loop
    vertex 2844.629357574157 1021.4745425078398 9.525000000000011
    vertex 2846.630416318039 1003.5317126493809 9.525000000000011
    vertex 2844.896165059824 1022.4483917582126 9.525000000000011
  endloop
endfacet
facet normal 0.0 0.0 1.0
  outer loop
    vertex 2844.896165059824 1022.4483917582126 9.525000000000011
    vertex 2846.630416318039 1003.5317126493809 9.525000000000011
    vertex 2846.630416318039 1022.4483917582126 9.525000000000011
  endloop
endfacet
facet normal 0.0 0.0 1.0
  outer loop
    vertex 2844.362549288066 1017.0855532520414 9.525000000000011
    vertex 2839.4532841878895 1018.8998468760196 9.525000000000011
    vertex 2839.4532841878895 1017.0855532520414 9.525000000000011
  endloop
endfacet
facet normal 0.0 0.0 1.0
  outer loop
    vertex 2839.4532841878895 1018.8998468760196 9.525000000000011
    vertex 2844.362549288066 1017.0855532520414 9.525000000000011
    vertex 2841.3209393890434 1019.0465912132534 9.525000000000011
  endloop
endfacet
facet normal 0.0 0.0 1.0
  outer loop
    vertex 2841.3209393890434 1019.0465912132534 9.525000000000011
    vertex 2844.362549288066 1017.0855532520414 9.525000000000011
    vertex 2842.9618078872004 1019.5935473793056 9.525000000000011
  endloop
endfacet
facet normal 0.0 0.0 1.0
  outer loop
    vertex 2842.9618078872004 1019.5935473793056 9.525000000000011
    vertex 2844.362549288066 1017.0855532520414 9.525000000000011
    vertex 2844.2024645565384 1020.68745971141 9.525000000000011
  endloop
endfacet
facet normal 0.0 0.0 1.0
  outer loop
    vertex 2844.2024645565384 1020.68745971141 9.525000000000011
    vertex 2844.362549288066 1017.0855532520414 9.525000000000011
    vertex 2844.629357574157 1021.4745425078398 9.525000000000011
  endloop
endfacet
facet normal 1.0 0.0 0.0
  outer loop
    vertex 2846.630416318039 1022.4483917582126 6.350000000000011
    vertex 2846.630416318039 1003.5317126493809 9.525000000000011
    vertex 2846.630416318039 1003.5317126493809 6.350000000000011
  endloop
endfacet
facet normal 1.0 0.0 0.0
  outer loop
    vertex 2846.630416318039 1003.5317126493809 9.525000000000011
    vertex 2846.630416318039 1022.4483917582126 6.350000000000011
    vertex 2846.630416318039 1022.4483917582126 9.525000000000011
  endloop
endfacet
facet normal 0.0 -1.0 0.0
  outer loop
    vertex 2846.630416318039 1003.5317126493809 9.525000000000011
    vertex 2844.362549288066 1003.5317126493809 6.350000000000011
    vertex 2846.630416318039 1003.5317126493809 6.350000000000011
  endloop
endfacet
facet normal 0.0 -1.0 0.0
  outer loop
    vertex 2844.362549288066 1003.5317126493809 6.350000000000011
    vertex 2846.630416318039 1003.5317126493809 9.525000000000011
    vertex 2844.362549288066 1003.5317126493809 9.525000000000011
  endloop
endfacet
facet normal -1.0 0.0 0.0
  outer loop
    vertex 2844.362549288066 1017.0855532520414 9.525000000000011
    vertex 2844.362549288066 1003.5317126493809 6.350000000000011
    vertex 2844.362549288066 1003.5317126493809 9.525000000000011
  endloop
endfacet
facet normal -1.0 0.0 0.0
  outer loop
    vertex 2844.362549288066 1003.5317126493809 6.350000000000011
    vertex 2844.362549288066 1017.0855532520414 9.525000000000011
    vertex 2844.362549288066 1017.0855532520414 6.350000000000011
  endloop
endfacet
facet normal 0.0 -1.0 0.0
  outer loop
    vertex 2844.362549288066 1017.0855532520414 9.525000000000011
    vertex 2839.4532841878895 1017.0855532520414 6.350000000000011
    vertex 2844.362549288066 1017.0855532520414 6.350000000000011
  endloop
endfacet
facet normal 0.0 -1.0 0.0
  outer loop
    vertex 2839.4532841878895 1017.0855532520414 6.350000000000011
    vertex 2844.362549288066 1017.0855532520414 9.525000000000011
    vertex 2839.4532841878895 1017.0855532520414 9.525000000000011
  endloop
endfacet
facet normal -1.0 0.0 0.0
  outer loop
    vertex 2839.4532841878895 1018.8998468760196 9.525000000000011
    vertex 2839.4532841878895 1017.0855532520414 6.350000000000011
    vertex 2839.4532841878895 1017.0855532520414 9.525000000000011
  endloop
endfacet
facet normal -1.0 0.0 0.0
  outer loop
    vertex 2839.4532841878895 1017.0855532520414 6.350000000000011
    vertex 2839.4532841878895 1018.8998468760196 9.525000000000011
    vertex 2839.4532841878895 1018.8998468760196 6.350000000000011
  endloop
endfacet
facet normal -0.07833001660567326 0.9969274840722142 0.0
  outer loop
    vertex 2839.4532841878895 1018.8998468760196 9.525000000000011
    vertex 2841.3209393890434 1019.0465912132534 6.350000000000011
    vertex 2839.4532841878895 1018.8998468760196 6.350000000000011
  endloop
endfacet
facet normal -0.07833001660567326 0.9969274840722142 0.0
  outer loop
    vertex 2841.3209393890434 1019.0465912132534 6.350000000000011
    vertex 2839.4532841878895 1018.8998468760196 9.525000000000011
    vertex 2841.3209393890434 1019.0465912132534 9.525000000000011
  endloop
endfacet
facet normal -0.31622776601683766 0.9486832980505139 0.0
  outer loop
    vertex 2841.3209393890434 1019.0465912132534 9.525000000000011
    vertex 2842.9618078872004 1019.5935473793056 6.350000000000011
    vertex 2841.3209393890434 1019.0465912132534 6.350000000000011
  endloop
endfacet
facet normal -0.31622776601683766 0.9486832980505139 0.0
  outer loop
    vertex 2842.9618078872004 1019.5935473793056 6.350000000000011
    vertex 2841.3209393890434 1019.0465912132534 9.525000000000011
    vertex 2842.9618078872004 1019.5935473793056 9.525000000000011
  endloop
endfacet
facet normal -0.661354843955472 0.7500731766812047 0.0
  outer loop
    vertex 2842.9618078872004 1019.5935473793056 9.525000000000011
    vertex 2844.2024645565384 1020.68745971141 6.350000000000011
    vertex 2842.9618078872004 1019.5935473793056 6.350000000000011
  endloop
endfacet
facet normal -0.661354843955472 0.7500731766812047 0.0
  outer loop
    vertex 2844.2024645565384 1020.68745971141 6.350000000000011
    vertex 2842.9618078872004 1019.5935473793056 9.525000000000011
    vertex 2844.2024645565384 1020.68745971141 9.525000000000011
  endloop
endfacet
facet normal -0.8790315498484833 0.47676360428515674 0.0
  outer loop
    vertex 2844.629357574157 1021.4745425078398 9.525000000000011
    vertex 2844.2024645565384 1020.68745971141 6.350000000000011
    vertex 2844.2024645565384 1020.68745971141 9.525000000000011
  endloop
endfacet
facet normal -0.8790315498484833 0.47676360428515674 0.0
  outer loop
    vertex 2844.2024645565384 1020.68745971141 6.350000000000011
    vertex 2844.629357574157 1021.4745425078398 9.525000000000011
    vertex 2844.629357574157 1021.4745425078398 6.350000000000011
  endloop
endfacet
facet normal -0.9644584201304174 0.26423466055674727 0.0
  outer loop
    vertex 2844.896165059824 1022.4483917582126 9.525000000000011
    vertex 2844.629357574157 1021.4745425078398 6.350000000000011
    vertex 2844.629357574157 1021.4745425078398 9.525000000000011
  endloop
endfacet
facet normal -0.9644584201304174 0.26423466055674727 0.0
  outer loop
    vertex 2844.629357574157 1021.4745425078398 6.350000000000011
    vertex 2844.896165059824 1022.4483917582126 9.525000000000011
    vertex 2844.896165059824 1022.4483917582126 6.350000000000011
  endloop
endfacet
facet normal 0.0 1.0 0.0
  outer loop
    vertex 2844.896165059824 1022.4483917582126 9.525000000000011
    vertex 2846.630416318039 1022.4483917582126 6.350000000000011
    vertex 2844.896165059824 1022.4483917582126 6.350000000000011
  endloop
endfacet
facet normal 0.0 1.0 0.0
  outer loop
    vertex 2846.630416318039 1022.4483917582126 6.350000000000011
    vertex 2844.896165059824 1022.4483917582126 9.525000000000011
    vertex 2846.630416318039 1022.4483917582126 9.525000000000011
  endloop
endfacet
facet normal 0.0 0.0 -1.0
  outer loop
    vertex 2866.774307887202 1051.0900522037973 0.0
    vertex 2819.1493078871995 974.890052203797 0.0
    vertex 2819.1493078871995 1051.0900522037973 0.0
  endloop
endfacet
facet normal 0.0 0.0 -1.0
  outer loop
    vertex 2819.1493078871995 974.890052203797 0.0
    vertex 2866.774307887202 1051.0900522037973 0.0
    vertex 2866.774307887202 974.890052203797 0.0
  endloop
endfacet
facet normal 1.0 0.0 0.0
  outer loop
    vertex 2866.774307887202 1051.0900522037973 0.0
    vertex 2866.774307887202 974.890052203797 6.35
    vertex 2866.774307887202 974.890052203797 0.0
  endloop
endfacet
facet normal 1.0 0.0 0.0
  outer loop
    vertex 2866.774307887202 974.890052203797 6.35
    vertex 2866.774307887202 1051.0900522037973 0.0
    vertex 2866.774307887202 1051.0900522037973 6.35
  endloop
endfacet
endsolid box draft 1
