solid box draft 1
facet normal -1.0 -0.0 -0.0
  outer loop
    vertex 2878.5106293937756 1051.113983060999 6.35
    vertex 2878.5106293937756 974.9139830609986 0.0
    vertex 2878.5106293937756 974.9139830609986 6.35
  endloop
endfacet
facet normal -1.0 -0.0 -0.0
  outer loop
    vertex 2878.5106293937756 974.9139830609986 0.0
    vertex 2878.5106293937756 1051.113983060999 6.35
    vertex 2878.5106293937756 1051.113983060999 0.0
  endloop
endfacet
facet normal 0.0 -1.0 0.0
  outer loop
    vertex 2926.135629393778 974.9139830609986 6.35
    vertex 2878.5106293937756 974.9139830609986 0.0
    vertex 2926.135629393778 974.9139830609986 0.0
  endloop
endfacet
facet normal 0.0 -1.0 0.0
  outer loop
    vertex 2878.5106293937756 974.9139830609986 0.0
    vertex 2926.135629393778 974.9139830609986 6.35
    vertex 2878.5106293937756 974.9139830609986 6.35
  endloop
endfacet
facet normal 0.0 1.0 0.0
  outer loop
    vertex 2878.5106293937756 1051.113983060999 6.35
    vertex 2926.135629393778 1051.113983060999 0.0
    vertex 2878.5106293937756 1051.113983060999 0.0
  endloop
endfacet
facet normal 0.0 1.0 0.0
  outer loop
    vertex 2926.135629393778 1051.113983060999 0.0
    vertex 2878.5106293937756 1051.113983060999 6.35
    vertex 2926.135629393778 1051.113983060999 6.35
  endloop
endfacet
facet normal 0.0 0.0 1.0
  outer loop
    vertex 2926.135629393778 974.9139830609986 6.35
    vertex 2878.5106293937756 1051.113983060999 6.35
    vertex 2878.5106293937756 974.9139830609986 6.35
  endloop
endfacet
facet normal 0.0 0.0 1.0
  outer loop
    vertex 2878.5106293937756 1051.113983060999 6.35
    vertex 2926.135629393778 974.9139830609986 6.35
    vertex 2926.135629393778 1051.113983060999 6.35
  endloop
endfacet
facet normal 0.0 0.0 -1.0
  outer loop
    vertex 2926.135629393778 1051.113983060999 0.0
    vertex 2878.5106293937756 974.9139830609986 0.0
    vertex 2878.5106293937756 1051.113983060999 0.0
  endloop
endfacet
facet normal 0.0 0.0 -1.0
  outer loop
    vertex 2878.5106293937756 974.9139830609986 0.0
    vertex 2926.135629393778 1051.113983060999 0.0
    vertex 2926.135629393778 974.9139830609986 0.0
  endloop
endfacet
facet normal 1.0 0.0 0.0
  outer loop
    vertex 2926.135629393778 1051.113983060999 0.0
    vertex 2926.135629393778 974.9139830609986 6.35
    vertex 2926.135629393778 974.9139830609986 0.0
  endloop
endfacet
facet normal 1.0 0.0 0.0
  outer loop
    vertex 2926.135629393778 974.9139830609986 6.35
    vertex 2926.135629393778 1051.113983060999 0.0
    vertex 2926.135629393778 1051.113983060999 6.35
  endloop
endfacet
facet normal -0.0 -0.0 -1.0
  outer loop
    vertex 2896.620110266143 1017.1628459532262 6.35
    vertex 2898.854626877348 1015.7754446798468 6.35
    vertex 2896.586759847375 1015.7754446798468 6.35
  endloop
endfacet
facet normal -0.0 -0.0 -1.0
  outer loop
    vertex 2898.854626877348 1015.7754446798468 6.35
    vertex 2896.620110266143 1017.1628459532262 6.35
    vertex 2896.880248521842 1018.4435235386384 6.35
  endloop
endfacet
facet normal -0.0 -0.0 -1.0
  outer loop
    vertex 2898.854626877348 1015.7754446798468 6.35
    vertex 2896.880248521842 1018.4435235386384 6.35
    vertex 2897.357167100911 1019.5874627662324 6.35
  endloop
endfacet
facet normal -0.0 -0.0 -1.0
  outer loop
    vertex 2898.854626877348 1015.7754446798468 6.35
    vertex 2897.357167100911 1019.5874627662324 6.35
    vertex 2898.0408628254163 1020.5646462313777 6.35
  endloop
endfacet
facet normal -0.0 -0.0 -1.0
  outer loop
    vertex 2898.854626877348 1015.7754446798468 6.35
    vertex 2898.0408628254163 1020.5646462313777 6.35
    vertex 2898.9246634638016 1021.3617352740308 6.35
  endloop
endfacet
facet normal -0.0 -0.0 -1.0
  outer loop
    vertex 2898.854626877348 1015.7754446798468 6.35
    vertex 2898.9246634638016 1021.3617352740308 6.35
    vertex 2899.0280520031693 1017.4696747551793 6.35
  endloop
endfacet
facet normal -0.0 -0.0 -1.0
  outer loop
    vertex 2899.0280520031693 1017.4696747551793 6.35
    vertex 2898.9246634638016 1021.3617352740308 6.35
    vertex 2900.001900786628 1021.965387632243 6.35
  endloop
endfacet
facet normal -0.0 -0.0 -1.0
  outer loop
    vertex 2899.0280520031693 1017.4696747551793 6.35
    vertex 2900.001900786628 1021.965387632243 6.35
    vertex 2899.681731323573 1018.9771393103966 6.35
  endloop
endfacet
facet normal -0.0 -0.0 -1.0
  outer loop
    vertex 2899.681731323573 1018.9771393103966 6.35
    vertex 2900.001900786628 1021.965387632243 6.35
    vertex 2900.8423456271476 1020.0577112482073 6.35
  endloop
endfacet
facet normal -0.0 -0.0 -1.0
  outer loop
    vertex 2900.8423456271476 1020.0577112482073 6.35
    vertex 2900.001900786628 1021.965387632243 6.35
    vertex 2901.2558974500485 1022.3455895032896 6.35
  endloop
endfacet
facet normal -0.0 -0.0 -1.0
  outer loop
    vertex 2900.8423456271476 1020.0577112482073 6.35
    vertex 2901.2558974500485 1022.3455895032896 6.35
    vertex 2901.619423244585 1020.3678759324819 6.35
  endloop
endfacet
facet normal -0.0 -0.0 -1.0
  outer loop
    vertex 2901.619423244585 1020.3678759324819 6.35
    vertex 2901.2558974500485 1022.3455895032896 6.35
    vertex 2902.6699796454195 1022.4723226154134 6.35
  endloop
endfacet
facet normal -0.0 -0.0 -1.0
  outer loop
    vertex 2901.619423244585 1020.3678759324819 6.35
    vertex 2902.6699796454195 1022.4723226154134 6.35
    vertex 2902.5365757024797 1020.4712634713198 6.35
  endloop
endfacet
facet normal -0.0 -0.0 -1.0
  outer loop
    vertex 2902.5365757024797 1020.4712634713198 6.35
    vertex 2902.6699796454195 1022.4723226154134 6.35
    vertex 2903.9506574976394 1020.2311363740287 6.35
  endloop
endfacet
facet normal -0.0 -0.0 -1.0
  outer loop
    vertex 2903.9506574976394 1020.2311363740287 6.35
    vertex 2902.6699796454195 1022.4723226154134 6.35
    vertex 2904.977867858274 1022.1121319694765 6.35
  endloop
endfacet
facet normal -0.0 -0.0 -1.0
  outer loop
    vertex 2903.9506574976394 1020.2311363740287 6.35
    vertex 2904.977867858274 1022.1121319694765 6.35
    vertex 2905.1112718012137 1019.5374358707429 6.35
  endloop
endfacet
facet normal -0.0 -0.0 -1.0
  outer loop
    vertex 2905.1112718012137 1019.5374358707429 6.35
    vertex 2904.977867858274 1022.1121319694765 6.35
    vertex 2905.9884030762264 1021.6718993579877 6.35
  endloop
endfacet
facet normal -0.0 -0.0 -1.0
  outer loop
    vertex 2905.1112718012137 1019.5374358707429 6.35
    vertex 2905.9884030762264 1021.6718993579877 6.35
    vertex 2905.898355064557 1018.4568639329322 6.35
  endloop
endfacet
facet normal -0.0 -0.0 -1.0
  outer loop
    vertex 2905.898355064557 1018.4568639329322 6.35
    vertex 2905.9884030762264 1021.6718993579877 6.35
    vertex 2906.191843739024 1017.0561225320668 6.35
  endloop
endfacet
facet normal -0.0 -0.0 -1.0
  outer loop
    vertex 2906.191843739024 1017.0561225320668 6.35
    vertex 2905.9884030762264 1021.6718993579877 6.35
    vertex 2906.8588634537223 1021.071581214548 6.35
  endloop
endfacet
facet normal -0.0 -0.0 -1.0
  outer loop
    vertex 2899.4682850148697 1010.0390751334452 6.35
    vertex 2898.6945421458204 1005.5567026506754 6.35
    vertex 2897.840756911007 1008.4915893953462 6.35
  endloop
endfacet
facet normal -0.0 -0.0 -1.0
  outer loop
    vertex 2898.6945421458204 1005.5567026506754 6.35
    vertex 2899.4682850148697 1010.0390751334452 6.35
    vertex 2898.9446740885937 1006.3871424456067 6.35
  endloop
endfacet
facet normal -0.0 -0.0 -1.0
  outer loop
    vertex 2898.9446740885937 1006.3871424456067 6.35
    vertex 2899.4682850148697 1010.0390751334452 6.35
    vertex 2899.3749022548122 1007.1175287830685 6.35
  endloop
endfacet
facet normal -0.0 -0.0 -1.0
  outer loop
    vertex 2899.3749022548122 1007.1175287830685 6.35
    vertex 2899.4682850148697 1010.0390751334452 6.35
    vertex 2900.628899318444 1008.3848662409946 6.35
  endloop
endfacet
facet normal -0.0 -0.0 -1.0
  outer loop
    vertex 2900.628899318444 1008.3848662409946 6.35
    vertex 2899.4682850148697 1010.0390751334452 6.35
    vertex 2901.3626210046114 1011.2930721970772 6.35
  endloop
endfacet
facet normal -0.0 -0.0 -1.0
  outer loop
    vertex 2900.628899318444 1008.3848662409946 6.35
    vertex 2901.3626210046114 1011.2930721970772 6.35
    vertex 2902.2430870280127 1009.4921189673929 6.35
  endloop
endfacet
facet normal -0.0 -0.0 -1.0
  outer loop
    vertex 2902.2430870280127 1009.4921189673929 6.35
    vertex 2901.3626210046114 1011.2930721970772 6.35
    vertex 2903.4704033030566 1012.6671328093547 6.35
  endloop
endfacet
facet normal -0.0 -0.0 -1.0
  outer loop
    vertex 2902.2430870280127 1009.4921189673929 6.35
    vertex 2903.4704033030566 1012.6671328093547 6.35
    vertex 2904.004019074815 1010.5460101166155 6.35
  endloop
endfacet
facet normal -0.0 -0.0 -1.0
  outer loop
    vertex 2904.004019074815 1010.5460101166155 6.35
    vertex 2903.4704033030566 1012.6671328093547 6.35
    vertex 2904.977867858274 1013.9344702672806 6.35
  endloop
endfacet
facet normal -0.0 -0.0 -1.0
  outer loop
    vertex 2904.004019074815 1010.5460101166155 6.35
    vertex 2904.977867858274 1013.9344702672806 6.35
    vertex 2905.7115895444417 1011.7199648144838 6.35
  endloop
endfacet
facet normal -0.0 -0.0 -1.0
  outer loop
    vertex 2905.7115895444417 1011.7199648144838 6.35
    vertex 2904.977867858274 1013.9344702672806 6.35
    vertex 2905.8850146702634 1015.3218712738523 6.35
  endloop
endfacet
facet normal -0.0 -0.0 -1.0
  outer loop
    vertex 2905.7115895444417 1011.7199648144838 6.35
    vertex 2905.8850146702634 1015.3218712738523 6.35
    vertex 2907.179032916777 1013.0940254267614 6.35
  endloop
endfacet
facet normal -0.0 -0.0 -1.0
  outer loop
    vertex 2907.179032916777 1013.0940254267614 6.35
    vertex 2905.8850146702634 1015.3218712738523 6.35
    vertex 2906.191843739024 1017.0561225320668 6.35
  endloop
endfacet
facet normal -0.0 -0.0 -1.0
  outer loop
    vertex 2907.179032916777 1013.0940254267614 6.35
    vertex 2906.191843739024 1017.0561225320668 6.35
    vertex 2906.8588634537223 1021.071581214548 6.35
  endloop
endfacet
facet normal -0.0 -0.0 -1.0
  outer loop
    vertex 2907.179032916777 1013.0940254267614 6.35
    vertex 2906.8588634537223 1021.071581214548 6.35
    vertex 2907.5759100639098 1020.3078440581061 6.35
  endloop
endfacet
facet normal -0.0 -0.0 -1.0
  outer loop
    vertex 2907.179032916777 1013.0940254267614 6.35
    vertex 2907.5759100639098 1020.3078440581061 6.35
    vertex 2908.206243277412 1014.8149362906819 6.35
  endloop
endfacet
facet normal -0.0 -0.0 -1.0
  outer loop
    vertex 2908.206243277412 1014.8149362906819 6.35
    vertex 2907.5759100639098 1020.3078440581061 6.35
    vertex 2908.126200911648 1019.3773511392153 6.35
  endloop
endfacet
facet normal -0.0 -0.0 -1.0
  outer loop
    vertex 2908.206243277412 1014.8149362906819 6.35
    vertex 2908.126200911648 1019.3773511392153 6.35
    vertex 2908.4763868455066 1018.2834392073227 6.35
  endloop
endfacet
facet normal -0.0 -0.0 -1.0
  outer loop
    vertex 2908.206243277412 1014.8149362906819 6.35
    vertex 2908.4763868455066 1018.2834392073227 6.35
    vertex 2908.4963973368945 1015.8488164816027 6.35
  endloop
endfacet
facet normal -0.0 -0.0 -1.0
  outer loop
    vertex 2908.4963973368945 1015.8488164816027 6.35
    vertex 2908.4763868455066 1018.2834392073227 6.35
    vertex 2908.5931147119363 1017.029441743479 6.35
  endloop
endfacet
facet normal -0.0 -0.0 -1.0
  outer loop
    vertex 2896.269925066006 1005.1131351573946 6.35
    vertex 2908.4063491918214 1003.5556435065819 6.35
    vertex 2896.0531440756167 1003.5556435065819 6.35
  endloop
endfacet
facet normal -0.0 -0.0 -1.0
  outer loop
    vertex 2908.4063491918214 1003.5556435065819 6.35
    vertex 2896.269925066006 1005.1131351573946 6.35
    vertex 2898.6945421458204 1005.5567026506754 6.35
  endloop
endfacet
facet normal -0.0 -0.0 -1.0
  outer loop
    vertex 2898.6945421458204 1005.5567026506754 6.35
    vertex 2896.269925066006 1005.1131351573946 6.35
    vertex 2896.653461818845 1006.4238282797827 6.35
  endloop
endfacet
facet normal -0.0 -0.0 -1.0
  outer loop
    vertex 2898.6945421458204 1005.5567026506754 6.35
    vertex 2896.653461818845 1006.4238282797827 6.35
    vertex 2897.840756911007 1008.4915893953462 6.35
  endloop
endfacet
facet normal -0.0 -0.0 -1.0
  outer loop
    vertex 2908.4063491918214 1003.5556435065819 6.35
    vertex 2898.6945421458204 1005.5567026506754 6.35
    vertex 2908.4063491918214 1005.5567026506754 6.35
  endloop
endfacet
facet normal 0.0 0.0 1.0
  outer loop
    vertex 2908.4063491918214 1003.5556435065819 9.524999999999999
    vertex 2896.269925066006 1005.1131351573946 9.524999999999999
    vertex 2896.0531440756167 1003.5556435065819 9.524999999999999
  endloop
endfacet
facet normal 0.0 0.0 1.0
  outer loop
    vertex 2896.269925066006 1005.1131351573946 9.524999999999999
    vertex 2908.4063491918214 1003.5556435065819 9.524999999999999
    vertex 2898.6945421458204 1005.5567026506754 9.524999999999999
  endloop
endfacet
facet normal 0.0 0.0 1.0
  outer loop
    vertex 2896.269925066006 1005.1131351573946 9.524999999999999
    vertex 2898.6945421458204 1005.5567026506754 9.524999999999999
    vertex 2896.653461818845 1006.4238282797827 9.524999999999999
  endloop
endfacet
facet normal 0.0 0.0 1.0
  outer loop
    vertex 2896.653461818845 1006.4238282797827 9.524999999999999
    vertex 2898.6945421458204 1005.5567026506754 9.524999999999999
    vertex 2897.840756911007 1008.4915893953462 9.524999999999999
  endloop
endfacet
facet normal 0.0 0.0 1.0
  outer loop
    vertex 2898.6945421458204 1005.5567026506754 9.524999999999999
    vertex 2908.4063491918214 1003.5556435065819 9.524999999999999
    vertex 2908.4063491918214 1005.5567026506754 9.524999999999999
  endloop
endfacet
facet normal 0.0 0.0 1.0
  outer loop
    vertex 2898.6945421458204 1005.5567026506754 9.524999999999999
    vertex 2899.4682850148697 1010.0390751334452 9.524999999999999
    vertex 2897.840756911007 1008.4915893953462 9.524999999999999
  endloop
endfacet
facet normal 0.0 0.0 1.0
  outer loop
    vertex 2899.4682850148697 1010.0390751334452 9.524999999999999
    vertex 2898.6945421458204 1005.5567026506754 9.524999999999999
    vertex 2898.9446740885937 1006.3871424456067 9.524999999999999
  endloop
endfacet
facet normal 0.0 0.0 1.0
  outer loop
    vertex 2899.4682850148697 1010.0390751334452 9.524999999999999
    vertex 2898.9446740885937 1006.3871424456067 9.524999999999999
    vertex 2899.3749022548122 1007.1175287830685 9.524999999999999
  endloop
endfacet
facet normal 0.0 0.0 1.0
  outer loop
    vertex 2899.4682850148697 1010.0390751334452 9.524999999999999
    vertex 2899.3749022548122 1007.1175287830685 9.524999999999999
    vertex 2900.628899318444 1008.3848662409946 9.524999999999999
  endloop
endfacet
facet normal 0.0 0.0 1.0
  outer loop
    vertex 2899.4682850148697 1010.0390751334452 9.524999999999999
    vertex 2900.628899318444 1008.3848662409946 9.524999999999999
    vertex 2901.3626210046114 1011.2930721970772 9.524999999999999
  endloop
endfacet
facet normal 0.0 0.0 1.0
  outer loop
    vertex 2901.3626210046114 1011.2930721970772 9.524999999999999
    vertex 2900.628899318444 1008.3848662409946 9.524999999999999
    vertex 2902.2430870280127 1009.4921189673929 9.524999999999999
  endloop
endfacet
facet normal 0.0 0.0 1.0
  outer loop
    vertex 2901.3626210046114 1011.2930721970772 9.524999999999999
    vertex 2902.2430870280127 1009.4921189673929 9.524999999999999
    vertex 2903.4704033030566 1012.6671328093547 9.524999999999999
  endloop
endfacet
facet normal 0.0 0.0 1.0
  outer loop
    vertex 2903.4704033030566 1012.6671328093547 9.524999999999999
    vertex 2902.2430870280127 1009.4921189673929 9.524999999999999
    vertex 2904.004019074815 1010.5460101166155 9.524999999999999
  endloop
endfacet
facet normal 0.0 0.0 1.0
  outer loop
    vertex 2903.4704033030566 1012.6671328093547 9.524999999999999
    vertex 2904.004019074815 1010.5460101166155 9.524999999999999
    vertex 2904.977867858274 1013.9344702672806 9.524999999999999
  endloop
endfacet
facet normal 0.0 0.0 1.0
  outer loop
    vertex 2904.977867858274 1013.9344702672806 9.524999999999999
    vertex 2904.004019074815 1010.5460101166155 9.524999999999999
    vertex 2905.7115895444417 1011.7199648144838 9.524999999999999
  endloop
endfacet
facet normal 0.0 0.0 1.0
  outer loop
    vertex 2904.977867858274 1013.9344702672806 9.524999999999999
    vertex 2905.7115895444417 1011.7199648144838 9.524999999999999
    vertex 2905.8850146702634 1015.3218712738523 9.524999999999999
  endloop
endfacet
facet normal 0.0 0.0 1.0
  outer loop
    vertex 2905.8850146702634 1015.3218712738523 9.524999999999999
    vertex 2905.7115895444417 1011.7199648144838 9.524999999999999
    vertex 2907.179032916777 1013.0940254267614 9.524999999999999
  endloop
endfacet
facet normal 0.0 0.0 1.0
  outer loop
    vertex 2905.8850146702634 1015.3218712738523 9.524999999999999
    vertex 2907.179032916777 1013.0940254267614 9.524999999999999
    vertex 2906.191843739024 1017.0561225320668 9.524999999999999
  endloop
endfacet
facet normal 0.0 0.0 1.0
  outer loop
    vertex 2906.191843739024 1017.0561225320668 9.524999999999999
    vertex 2907.179032916777 1013.0940254267614 9.524999999999999
    vertex 2906.8588634537223 1021.071581214548 9.524999999999999
  endloop
endfacet
facet normal 0.0 0.0 1.0
  outer loop
    vertex 2906.8588634537223 1021.071581214548 9.524999999999999
    vertex 2907.179032916777 1013.0940254267614 9.524999999999999
    vertex 2907.5759100639098 1020.3078440581061 9.524999999999999
  endloop
endfacet
facet normal 0.0 0.0 1.0
  outer loop
    vertex 2907.5759100639098 1020.3078440581061 9.524999999999999
    vertex 2907.179032916777 1013.0940254267614 9.524999999999999
    vertex 2908.206243277412 1014.8149362906819 9.524999999999999
  endloop
endfacet
facet normal 0.0 0.0 1.0
  outer loop
    vertex 2907.5759100639098 1020.3078440581061 9.524999999999999
    vertex 2908.206243277412 1014.8149362906819 9.524999999999999
    vertex 2908.126200911648 1019.3773511392153 9.524999999999999
  endloop
endfacet
facet normal 0.0 0.0 1.0
  outer loop
    vertex 2908.126200911648 1019.3773511392153 9.524999999999999
    vertex 2908.206243277412 1014.8149362906819 9.524999999999999
    vertex 2908.4763868455066 1018.2834392073227 9.524999999999999
  endloop
endfacet
facet normal 0.0 0.0 1.0
  outer loop
    vertex 2908.4763868455066 1018.2834392073227 9.524999999999999
    vertex 2908.206243277412 1014.8149362906819 9.524999999999999
    vertex 2908.4963973368945 1015.8488164816027 9.524999999999999
  endloop
endfacet
facet normal 0.0 0.0 1.0
  outer loop
    vertex 2908.4763868455066 1018.2834392073227 9.524999999999999
    vertex 2908.4963973368945 1015.8488164816027 9.524999999999999
    vertex 2908.5931147119363 1017.029441743479 9.524999999999999
  endloop
endfacet
facet normal 0.0 0.0 1.0
  outer loop
    vertex 2898.854626877348 1015.7754446798468 9.524999999999999
    vertex 2896.620110266143 1017.1628459532262 9.524999999999999
    vertex 2896.586759847375 1015.7754446798468 9.524999999999999
  endloop
endfacet
facet normal 0.0 0.0 1.0
  outer loop
    vertex 2896.620110266143 1017.1628459532262 9.524999999999999
    vertex 2898.854626877348 1015.7754446798468 9.524999999999999
    vertex 2896.880248521842 1018.4435235386384 9.524999999999999
  endloop
endfacet
facet normal 0.0 0.0 1.0
  outer loop
    vertex 2896.880248521842 1018.4435235386384 9.524999999999999
    vertex 2898.854626877348 1015.7754446798468 9.524999999999999
    vertex 2897.357167100911 1019.5874627662324 9.524999999999999
  endloop
endfacet
facet normal 0.0 0.0 1.0
  outer loop
    vertex 2897.357167100911 1019.5874627662324 9.524999999999999
    vertex 2898.854626877348 1015.7754446798468 9.524999999999999
    vertex 2898.0408628254163 1020.5646462313777 9.524999999999999
  endloop
endfacet
facet normal 0.0 0.0 1.0
  outer loop
    vertex 2898.0408628254163 1020.5646462313777 9.524999999999999
    vertex 2898.854626877348 1015.7754446798468 9.524999999999999
    vertex 2898.9246634638016 1021.3617352740308 9.524999999999999
  endloop
endfacet
facet normal 0.0 0.0 1.0
  outer loop
    vertex 2898.9246634638016 1021.3617352740308 9.524999999999999
    vertex 2898.854626877348 1015.7754446798468 9.524999999999999
    vertex 2899.0280520031693 1017.4696747551793 9.524999999999999
  endloop
endfacet
facet normal 0.0 0.0 1.0
  outer loop
    vertex 2898.9246634638016 1021.3617352740308 9.524999999999999
    vertex 2899.0280520031693 1017.4696747551793 9.524999999999999
    vertex 2900.001900786628 1021.965387632243 9.524999999999999
  endloop
endfacet
facet normal 0.0 0.0 1.0
  outer loop
    vertex 2900.001900786628 1021.965387632243 9.524999999999999
    vertex 2899.0280520031693 1017.4696747551793 9.524999999999999
    vertex 2899.681731323573 1018.9771393103966 9.524999999999999
  endloop
endfacet
facet normal 0.0 0.0 1.0
  outer loop
    vertex 2900.001900786628 1021.965387632243 9.524999999999999
    vertex 2899.681731323573 1018.9771393103966 9.524999999999999
    vertex 2900.8423456271476 1020.0577112482073 9.524999999999999
  endloop
endfacet
facet normal 0.0 0.0 1.0
  outer loop
    vertex 2900.001900786628 1021.965387632243 9.524999999999999
    vertex 2900.8423456271476 1020.0577112482073 9.524999999999999
    vertex 2901.2558974500485 1022.3455895032896 9.524999999999999
  endloop
endfacet
facet normal 0.0 0.0 1.0
  outer loop
    vertex 2901.2558974500485 1022.3455895032896 9.524999999999999
    vertex 2900.8423456271476 1020.0577112482073 9.524999999999999
    vertex 2901.619423244585 1020.3678759324819 9.524999999999999
  endloop
endfacet
facet normal 0.0 0.0 1.0
  outer loop
    vertex 2901.2558974500485 1022.3455895032896 9.524999999999999
    vertex 2901.619423244585 1020.3678759324819 9.524999999999999
    vertex 2902.6699796454195 1022.4723226154134 9.524999999999999
  endloop
endfacet
facet normal 0.0 0.0 1.0
  outer loop
    vertex 2902.6699796454195 1022.4723226154134 9.524999999999999
    vertex 2901.619423244585 1020.3678759324819 9.524999999999999
    vertex 2902.5365757024797 1020.4712634713198 9.524999999999999
  endloop
endfacet
facet normal 0.0 0.0 1.0
  outer loop
    vertex 2902.6699796454195 1022.4723226154134 9.524999999999999
    vertex 2902.5365757024797 1020.4712634713198 9.524999999999999
    vertex 2903.9506574976394 1020.2311363740287 9.524999999999999
  endloop
endfacet
facet normal 0.0 0.0 1.0
  outer loop
    vertex 2902.6699796454195 1022.4723226154134 9.524999999999999
    vertex 2903.9506574976394 1020.2311363740287 9.524999999999999
    vertex 2904.977867858274 1022.1121319694765 9.524999999999999
  endloop
endfacet
facet normal 0.0 0.0 1.0
  outer loop
    vertex 2904.977867858274 1022.1121319694765 9.524999999999999
    vertex 2903.9506574976394 1020.2311363740287 9.524999999999999
    vertex 2905.1112718012137 1019.5374358707429 9.524999999999999
  endloop
endfacet
facet normal 0.0 0.0 1.0
  outer loop
    vertex 2904.977867858274 1022.1121319694765 9.524999999999999
    vertex 2905.1112718012137 1019.5374358707429 9.524999999999999
    vertex 2905.9884030762264 1021.6718993579877 9.524999999999999
  endloop
endfacet
facet normal 0.0 0.0 1.0
  outer loop
    vertex 2905.9884030762264 1021.6718993579877 9.524999999999999
    vertex 2905.1112718012137 1019.5374358707429 9.524999999999999
    vertex 2905.898355064557 1018.4568639329322 9.524999999999999
  endloop
endfacet
facet normal 0.0 0.0 1.0
  outer loop
    vertex 2905.9884030762264 1021.6718993579877 9.524999999999999
    vertex 2905.898355064557 1018.4568639329322 9.524999999999999
    vertex 2906.191843739024 1017.0561225320668 9.524999999999999
  endloop
endfacet
facet normal 0.0 0.0 1.0
  outer loop
    vertex 2905.9884030762264 1021.6718993579877 9.524999999999999
    vertex 2906.191843739024 1017.0561225320668 9.524999999999999
    vertex 2906.8588634537223 1021.071581214548 9.524999999999999
  endloop
endfacet
facet normal 0.0 -1.0 0.0
  outer loop
    vertex 2898.854626877348 1015.7754446798468 9.524999999999999
    vertex 2896.586759847375 1015.7754446798468 6.35
    vertex 2898.854626877348 1015.7754446798468 6.35
  endloop
endfacet
facet normal 0.0 -1.0 0.0
  outer loop
    vertex 2896.586759847375 1015.7754446798468 6.35
    vertex 2898.854626877348 1015.7754446798468 9.524999999999999
    vertex 2896.586759847375 1015.7754446798468 9.524999999999999
  endloop
endfacet
facet normal -0.9997112112644665 0.0240311063443515 0.0
  outer loop
    vertex 2896.620110266143 1017.1628459532262 9.524999999999999
    vertex 2896.586759847375 1015.7754446798468 6.35
    vertex 2896.586759847375 1015.7754446798468 9.524999999999999
  endloop
endfacet
facet normal -0.9997112112644665 0.0240311063443515 0.0
  outer loop
    vertex 2896.586759847375 1015.7754446798468 6.35
    vertex 2896.620110266143 1017.1628459532262 9.524999999999999
    vertex 2896.620110266143 1017.1628459532262 6.35
  endloop
endfacet
facet normal -0.9799872268584393 0.1990603807750453 0.0
  outer loop
    vertex 2896.880248521842 1018.4435235386384 9.524999999999999
    vertex 2896.620110266143 1017.1628459532262 6.35
    vertex 2896.620110266143 1017.1628459532262 9.524999999999999
  endloop
endfacet
facet normal -0.9799872268584393 0.1990603807750453 0.0
  outer loop
    vertex 2896.620110266143 1017.1628459532262 6.35
    vertex 2896.880248521842 1018.4435235386384 9.524999999999999
    vertex 2896.880248521842 1018.4435235386384 6.35
  endloop
endfacet
facet normal -0.9229974872226058 0.38480597524045285 0.0
  outer loop
    vertex 2897.357167100911 1019.5874627662324 9.524999999999999
    vertex 2896.880248521842 1018.4435235386384 6.35
    vertex 2896.880248521842 1018.4435235386384 9.524999999999999
  endloop
endfacet
facet normal -0.9229974872226058 0.38480597524045285 0.0
  outer loop
    vertex 2896.880248521842 1018.4435235386384 6.35
    vertex 2897.357167100911 1019.5874627662324 9.524999999999999
    vertex 2897.357167100911 1019.5874627662324 6.35
  endloop
endfacet
facet normal -0.8193629579344907 0.5732751025160977 0.0
  outer loop
    vertex 2898.0408628254163 1020.5646462313777 9.524999999999999
    vertex 2897.357167100911 1019.5874627662324 6.35
    vertex 2897.357167100911 1019.5874627662324 9.524999999999999
  endloop
endfacet
facet normal -0.8193629579344907 0.5732751025160977 0.0
  outer loop
    vertex 2897.357167100911 1019.5874627662324 6.35
    vertex 2898.0408628254163 1020.5646462313777 9.524999999999999
    vertex 2898.0408628254163 1020.5646462313777 6.35
  endloop
endfacet
facet normal -0.669738898035428 0.7425966660700078 0.0
  outer loop
    vertex 2898.0408628254163 1020.5646462313777 9.524999999999999
    vertex 2898.9246634638016 1021.3617352740308 6.35
    vertex 2898.0408628254163 1020.5646462313777 6.35
  endloop
endfacet
facet normal -0.669738898035428 0.7425966660700078 0.0
  outer loop
    vertex 2898.9246634638016 1021.3617352740308 6.35
    vertex 2898.0408628254163 1020.5646462313777 9.524999999999999
    vertex 2898.9246634638016 1021.3617352740308 9.524999999999999
  endloop
endfacet
facet normal -0.48884961052484455 0.8723680750060195 0.0
  outer loop
    vertex 2898.9246634638016 1021.3617352740308 9.524999999999999
    vertex 2900.001900786628 1021.965387632243 6.35
    vertex 2898.9246634638016 1021.3617352740308 6.35
  endloop
endfacet
facet normal -0.48884961052484455 0.8723680750060195 0.0
  outer loop
    vertex 2900.001900786628 1021.965387632243 6.35
    vertex 2898.9246634638016 1021.3617352740308 9.524999999999999
    vertex 2900.001900786628 1021.965387632243 9.524999999999999
  endloop
endfacet
facet normal -0.29014919886420804 0.9569814221804195 0.0
  outer loop
    vertex 2900.001900786628 1021.965387632243 9.524999999999999
    vertex 2901.2558974500485 1022.3455895032896 6.35
    vertex 2900.001900786628 1021.965387632243 6.35
  endloop
endfacet
facet normal -0.29014919886420804 0.9569814221804195 0.0
  outer loop
    vertex 2901.2558974500485 1022.3455895032896 6.35
    vertex 2900.001900786628 1021.965387632243 9.524999999999999
    vertex 2901.2558974500485 1022.3455895032896 9.524999999999999
  endloop
endfacet
facet normal -0.0892643932785989 0.9960079658780866 0.0
  outer loop
    vertex 2901.2558974500485 1022.3455895032896 9.524999999999999
    vertex 2902.6699796454195 1022.4723226154134 6.35
    vertex 2901.2558974500485 1022.3455895032896 6.35
  endloop
endfacet
facet normal -0.0892643932785989 0.9960079658780866 0.0
  outer loop
    vertex 2902.6699796454195 1022.4723226154134 6.35
    vertex 2901.2558974500485 1022.3455895032896 9.524999999999999
    vertex 2902.6699796454195 1022.4723226154134 9.524999999999999
  endloop
endfacet
facet normal 0.1542026560398819 0.9880392405518347 0.0
  outer loop
    vertex 2902.6699796454195 1022.4723226154134 9.524999999999999
    vertex 2904.977867858274 1022.1121319694765 6.35
    vertex 2902.6699796454195 1022.4723226154134 6.35
  endloop
endfacet
facet normal 0.1542026560398819 0.9880392405518347 0.0
  outer loop
    vertex 2904.977867858274 1022.1121319694765 6.35
    vertex 2902.6699796454195 1022.4723226154134 9.524999999999999
    vertex 2904.977867858274 1022.1121319694765 9.524999999999999
  endloop
endfacet
facet normal 0.3993894072644797 0.9167813814453954 0.0
  outer loop
    vertex 2904.977867858274 1022.1121319694765 9.524999999999999
    vertex 2905.9884030762264 1021.6718993579877 6.35
    vertex 2904.977867858274 1022.1121319694765 6.35
  endloop
endfacet
facet normal 0.3993894072644797 0.9167813814453954 0.0
  outer loop
    vertex 2905.9884030762264 1021.6718993579877 6.35
    vertex 2904.977867858274 1022.1121319694765 9.524999999999999
    vertex 2905.9884030762264 1021.6718993579877 9.524999999999999
  endloop
endfacet
facet normal 0.5677333670783352 0.8232125022774475 0.0
  outer loop
    vertex 2905.9884030762264 1021.6718993579877 9.524999999999999
    vertex 2906.8588634537223 1021.071581214548 6.35
    vertex 2905.9884030762264 1021.6718993579877 6.35
  endloop
endfacet
facet normal 0.5677333670783352 0.8232125022774475 0.0
  outer loop
    vertex 2906.8588634537223 1021.071581214548 6.35
    vertex 2905.9884030762264 1021.6718993579877 9.524999999999999
    vertex 2906.8588634537223 1021.071581214548 9.524999999999999
  endloop
endfacet
facet normal 0.7290402262240807 0.6844708529566043 0.0
  outer loop
    vertex 2906.8588634537223 1021.071581214548 6.35
    vertex 2907.5759100639098 1020.3078440581061 9.524999999999999
    vertex 2907.5759100639098 1020.3078440581061 6.35
  endloop
endfacet
facet normal 0.7290402262240807 0.6844708529566043 0.0
  outer loop
    vertex 2907.5759100639098 1020.3078440581061 9.524999999999999
    vertex 2906.8588634537223 1021.071581214548 6.35
    vertex 2906.8588634537223 1021.071581214548 9.524999999999999
  endloop
endfacet
facet normal 0.8607424851983798 0.5090406409850957 0.0
  outer loop
    vertex 2907.5759100639098 1020.3078440581061 6.35
    vertex 2908.126200911648 1019.3773511392153 9.524999999999999
    vertex 2908.126200911648 1019.3773511392153 6.35
  endloop
endfacet
facet normal 0.8607424851983798 0.5090406409850957 0.0
  outer loop
    vertex 2908.126200911648 1019.3773511392153 9.524999999999999
    vertex 2907.5759100639098 1020.3078440581061 6.35
    vertex 2907.5759100639098 1020.3078440581061 9.524999999999999
  endloop
endfacet
facet normal 0.9523902473099586 0.304881643968403 0.0
  outer loop
    vertex 2908.126200911648 1019.3773511392153 6.35
    vertex 2908.4763868455066 1018.2834392073227 9.524999999999999
    vertex 2908.4763868455066 1018.2834392073227 6.35
  endloop
endfacet
facet normal 0.9523902473099586 0.304881643968403 0.0
  outer loop
    vertex 2908.4763868455066 1018.2834392073227 9.524999999999999
    vertex 2908.126200911648 1019.3773511392153 6.35
    vertex 2908.126200911648 1019.3773511392153 9.524999999999999
  endloop
endfacet
facet normal 0.9956955799892353 0.09268393598623569 0.0
  outer loop
    vertex 2908.4763868455066 1018.2834392073227 6.35
    vertex 2908.5931147119363 1017.029441743479 9.524999999999999
    vertex 2908.5931147119363 1017.029441743479 6.35
  endloop
endfacet
facet normal 0.9956955799892353 0.09268393598623569 0.0
  outer loop
    vertex 2908.5931147119363 1017.029441743479 9.524999999999999
    vertex 2908.4763868455066 1018.2834392073227 6.35
    vertex 2908.4763868455066 1018.2834392073227 9.524999999999999
  endloop
endfacet
facet normal 0.9966613133740228 -0.08164696212087778 0.0
  outer loop
    vertex 2908.5931147119363 1017.029441743479 6.35
    vertex 2908.4963973368945 1015.8488164816027 9.524999999999999
    vertex 2908.4963973368945 1015.8488164816027 6.35
  endloop
endfacet
facet normal 0.9966613133740228 -0.08164696212087778 0.0
  outer loop
    vertex 2908.4963973368945 1015.8488164816027 9.524999999999999
    vertex 2908.5931147119363 1017.029441743479 6.35
    vertex 2908.5931147119363 1017.029441743479 9.524999999999999
  endloop
endfacet
facet normal 0.9628024241605232 -0.2702063878419976 0.0
  outer loop
    vertex 2908.4963973368945 1015.8488164816027 6.35
    vertex 2908.206243277412 1014.8149362906819 9.524999999999999
    vertex 2908.206243277412 1014.8149362906819 6.35
  endloop
endfacet
facet normal 0.9628024241605232 -0.2702063878419976 0.0
  outer loop
    vertex 2908.206243277412 1014.8149362906819 9.524999999999999
    vertex 2908.4963973368945 1015.8488164816027 6.35
    vertex 2908.4963973368945 1015.8488164816027 9.524999999999999
  endloop
endfacet
facet normal 0.8586653356329427 -0.5125366732072606 0.0
  outer loop
    vertex 2908.206243277412 1014.8149362906819 6.35
    vertex 2907.179032916777 1013.0940254267614 9.524999999999999
    vertex 2907.179032916777 1013.0940254267614 6.35
  endloop
endfacet
facet normal 0.8586653356329427 -0.5125366732072606 0.0
  outer loop
    vertex 2907.179032916777 1013.0940254267614 9.524999999999999
    vertex 2908.206243277412 1014.8149362906819 6.35
    vertex 2908.206243277412 1014.8149362906819 9.524999999999999
  endloop
endfacet
facet normal 0.6834995288741617 -0.7299509531665803 0.0
  outer loop
    vertex 2907.179032916777 1013.0940254267614 9.524999999999999
    vertex 2905.7115895444417 1011.7199648144838 6.35
    vertex 2907.179032916777 1013.0940254267614 6.35
  endloop
endfacet
facet normal 0.6834995288741617 -0.7299509531665803 0.0
  outer loop
    vertex 2905.7115895444417 1011.7199648144838 6.35
    vertex 2907.179032916777 1013.0940254267614 9.524999999999999
    vertex 2905.7115895444417 1011.7199648144838 9.524999999999999
  endloop
endfacet
facet normal 0.5665288228870653 -0.8240419241993676 0.0
  outer loop
    vertex 2905.7115895444417 1011.7199648144838 9.524999999999999
    vertex 2904.004019074815 1010.5460101166155 6.35
    vertex 2905.7115895444417 1011.7199648144838 6.35
  endloop
endfacet
facet normal 0.5665288228870653 -0.8240419241993676 0.0
  outer loop
    vertex 2904.004019074815 1010.5460101166155 6.35
    vertex 2905.7115895444417 1011.7199648144838 9.524999999999999
    vertex 2904.004019074815 1010.5460101166155 9.524999999999999
  endloop
endfacet
facet normal 0.51353947986508 -0.8580659663568432 0.0
  outer loop
    vertex 2904.004019074815 1010.5460101166155 9.524999999999999
    vertex 2902.2430870280127 1009.4921189673929 6.35
    vertex 2904.004019074815 1010.5460101166155 6.35
  endloop
endfacet
facet normal 0.51353947986508 -0.8580659663568432 0.0
  outer loop
    vertex 2902.2430870280127 1009.4921189673929 6.35
    vertex 2904.004019074815 1010.5460101166155 9.524999999999999
    vertex 2902.2430870280127 1009.4921189673929 9.524999999999999
  endloop
endfacet
facet normal 0.5656607922677375 -0.824638022462605 0.0
  outer loop
    vertex 2902.2430870280127 1009.4921189673929 9.524999999999999
    vertex 2900.628899318444 1008.3848662409946 6.35
    vertex 2902.2430870280127 1009.4921189673929 6.35
  endloop
endfacet
facet normal 0.5656607922677375 -0.824638022462605 0.0
  outer loop
    vertex 2900.628899318444 1008.3848662409946 6.35
    vertex 2902.2430870280127 1009.4921189673929 9.524999999999999
    vertex 2900.628899318444 1008.3848662409946 9.524999999999999
  endloop
endfacet
facet normal 0.7108381371134009 -0.7033556304069442 0.0
  outer loop
    vertex 2900.628899318444 1008.3848662409946 6.35
    vertex 2899.3749022548122 1007.1175287830685 9.524999999999999
    vertex 2899.3749022548122 1007.1175287830685 6.35
  endloop
endfacet
facet normal 0.7108381371134009 -0.7033556304069442 0.0
  outer loop
    vertex 2899.3749022548122 1007.1175287830685 9.524999999999999
    vertex 2900.628899318444 1008.3848662409946 6.35
    vertex 2900.628899318444 1008.3848662409946 9.524999999999999
  endloop
endfacet
facet normal 0.861630329408652 -0.5075363784431001 0.0
  outer loop
    vertex 2899.3749022548122 1007.1175287830685 6.35
    vertex 2898.9446740885937 1006.3871424456067 9.524999999999999
    vertex 2898.9446740885937 1006.3871424456067 6.35
  endloop
endfacet
facet normal 0.861630329408652 -0.5075363784431001 0.0
  outer loop
    vertex 2898.9446740885937 1006.3871424456067 9.524999999999999
    vertex 2899.3749022548122 1007.1175287830685 6.35
    vertex 2899.3749022548122 1007.1175287830685 9.524999999999999
  endloop
endfacet
facet normal 0.9575083565515787 -0.288405525491269 0.0
  outer loop
    vertex 2898.9446740885937 1006.3871424456067 6.35
    vertex 2898.6945421458204 1005.5567026506754 9.524999999999999
    vertex 2898.6945421458204 1005.5567026506754 6.35
  endloop
endfacet
facet normal 0.9575083565515787 -0.288405525491269 0.0
  outer loop
    vertex 2898.6945421458204 1005.5567026506754 9.524999999999999
    vertex 2898.9446740885937 1006.3871424456067 6.35
    vertex 2898.9446740885937 1006.3871424456067 9.524999999999999
  endloop
endfacet
facet normal 0.0 1.0 0.0
  outer loop
    vertex 2898.6945421458204 1005.5567026506754 9.524999999999999
    vertex 2908.4063491918214 1005.5567026506754 6.35
    vertex 2898.6945421458204 1005.5567026506754 6.35
  endloop
endfacet
facet normal 0.0 1.0 0.0
  outer loop
    vertex 2908.4063491918214 1005.5567026506754 6.35
    vertex 2898.6945421458204 1005.5567026506754 9.524999999999999
    vertex 2908.4063491918214 1005.5567026506754 9.524999999999999
  endloop
endfacet
facet normal 1.0 0.0 0.0
  outer loop
    vertex 2908.4063491918214 1005.5567026506754 6.35
    vertex 2908.4063491918214 1003.5556435065819 9.524999999999999
    vertex 2908.4063491918214 1003.5556435065819 6.35
  endloop
endfacet
facet normal 1.0 0.0 0.0
  outer loop
    vertex 2908.4063491918214 1003.5556435065819 9.524999999999999
    vertex 2908.4063491918214 1005.5567026506754 6.35
    vertex 2908.4063491918214 1005.5567026506754 9.524999999999999
  endloop
endfacet
facet normal 0.0 -1.0 0.0
  outer loop
    vertex 2908.4063491918214 1003.5556435065819 9.524999999999999
    vertex 2896.0531440756167 1003.5556435065819 6.35
    vertex 2908.4063491918214 1003.5556435065819 6.35
  endloop
endfacet
facet normal 0.0 -1.0 0.0
  outer loop
    vertex 2896.0531440756167 1003.5556435065819 6.35
    vertex 2908.4063491918214 1003.5556435065819 9.524999999999999
    vertex 2896.0531440756167 1003.5556435065819 9.524999999999999
  endloop
endfacet
facet normal -0.9904521368534172 0.13785704408008964 0.0
  outer loop
    vertex 2896.269925066006 1005.1131351573946 9.524999999999999
    vertex 2896.0531440756167 1003.5556435065819 6.35
    vertex 2896.0531440756167 1003.5556435065819 9.524999999999999
  endloop
endfacet
facet normal -0.9904521368534172 0.13785704408008964 0.0
  outer loop
    vertex 2896.0531440756167 1003.5556435065819 6.35
    vertex 2896.269925066006 1005.1131351573946 9.524999999999999
    vertex 2896.269925066006 1005.1131351573946 6.35
  endloop
endfacet
facet normal -0.9597533453046126 0.28084429169311087 0.0
  outer loop
    vertex 2896.653461818845 1006.4238282797827 9.524999999999999
    vertex 2896.269925066006 1005.1131351573946 6.35
    vertex 2896.269925066006 1005.1131351573946 9.524999999999999
  endloop
endfacet
facet normal -0.9597533453046126 0.28084429169311087 0.0
  outer loop
    vertex 2896.269925066006 1005.1131351573946 6.35
    vertex 2896.653461818845 1006.4238282797827 9.524999999999999
    vertex 2896.653461818845 1006.4238282797827 6.35
  endloop
endfacet
facet normal -0.8672083572822691 0.49794544385885126 0.0
  outer loop
    vertex 2897.840756911007 1008.4915893953462 9.524999999999999
    vertex 2896.653461818845 1006.4238282797827 6.35
    vertex 2896.653461818845 1006.4238282797827 9.524999999999999
  endloop
endfacet
facet normal -0.8672083572822691 0.49794544385885126 0.0
  outer loop
    vertex 2896.653461818845 1006.4238282797827 6.35
    vertex 2897.840756911007 1008.4915893953462 9.524999999999999
    vertex 2897.840756911007 1008.4915893953462 6.35
  endloop
endfacet
facet normal -0.6890616286058432 0.7247027473268354 0.0
  outer loop
    vertex 2897.840756911007 1008.4915893953462 9.524999999999999
    vertex 2899.4682850148697 1010.0390751334452 6.35
    vertex 2897.840756911007 1008.4915893953462 6.35
  endloop
endfacet
facet normal -0.6890616286058432 0.7247027473268354 0.0
  outer loop
    vertex 2899.4682850148697 1010.0390751334452 6.35
    vertex 2897.840756911007 1008.4915893953462 9.524999999999999
    vertex 2899.4682850148697 1010.0390751334452 9.524999999999999
  endloop
endfacet
facet normal -0.5519870063438214 0.8338527117108789 0.0
  outer loop
    vertex 2899.4682850148697 1010.0390751334452 9.524999999999999
    vertex 2901.3626210046114 1011.2930721970772 6.35
    vertex 2899.4682850148697 1010.0390751334452 6.35
  endloop
endfacet
facet normal -0.5519870063438214 0.8338527117108789 0.0
  outer loop
    vertex 2901.3626210046114 1011.2930721970772 6.35
    vertex 2899.4682850148697 1010.0390751334452 9.524999999999999
    vertex 2901.3626210046114 1011.2930721970772 9.524999999999999
  endloop
endfacet
facet normal -0.5461060382569142 0.8377160586853626 0.0
  outer loop
    vertex 2901.3626210046114 1011.2930721970772 9.524999999999999
    vertex 2903.4704033030566 1012.6671328093547 6.35
    vertex 2901.3626210046114 1011.2930721970772 6.35
  endloop
endfacet
facet normal -0.5461060382569142 0.8377160586853626 0.0
  outer loop
    vertex 2903.4704033030566 1012.6671328093547 6.35
    vertex 2901.3626210046114 1011.2930721970772 9.524999999999999
    vertex 2903.4704033030566 1012.6671328093547 9.524999999999999
  endloop
endfacet
facet normal -0.6435097508865715 0.7654379142124481 0.0
  outer loop
    vertex 2903.4704033030566 1012.6671328093547 9.524999999999999
    vertex 2904.977867858274 1013.9344702672806 6.35
    vertex 2903.4704033030566 1012.6671328093547 6.35
  endloop
endfacet
facet normal -0.6435097508865715 0.7654379142124481 0.0
  outer loop
    vertex 2904.977867858274 1013.9344702672806 6.35
    vertex 2903.4704033030566 1012.6671328093547 9.524999999999999
    vertex 2904.977867858274 1013.9344702672806 9.524999999999999
  endloop
endfacet
facet normal -0.8369696139735451 0.5472493629827035 0.0
  outer loop
    vertex 2905.8850146702634 1015.3218712738523 9.524999999999999
    vertex 2904.977867858274 1013.9344702672806 6.35
    vertex 2904.977867858274 1013.9344702672806 9.524999999999999
  endloop
endfacet
facet normal -0.8369696139735451 0.5472493629827035 0.0
  outer loop
    vertex 2904.977867858274 1013.9344702672806 6.35
    vertex 2905.8850146702634 1015.3218712738523 9.524999999999999
    vertex 2905.8850146702634 1015.3218712738523 6.35
  endloop
endfacet
facet normal -0.9847072089393866 0.17421742927389142 0.0
  outer loop
    vertex 2906.191843739024 1017.0561225320668 9.524999999999999
    vertex 2905.8850146702634 1015.3218712738523 6.35
    vertex 2905.8850146702634 1015.3218712738523 9.524999999999999
  endloop
endfacet
facet normal -0.9847072089393866 0.17421742927389142 0.0
  outer loop
    vertex 2905.8850146702634 1015.3218712738523 6.35
    vertex 2906.191843739024 1017.0561225320668 9.524999999999999
    vertex 2906.191843739024 1017.0561225320668 6.35
  endloop
endfacet
facet normal -0.9787471355458978 -0.20507082840009289 0.0
  outer loop
    vertex 2905.898355064557 1018.4568639329322 9.524999999999999
    vertex 2906.191843739024 1017.0561225320668 6.35
    vertex 2906.191843739024 1017.0561225320668 9.524999999999999
  endloop
endfacet
facet normal -0.9787471355458978 -0.20507082840009289 0.0
  outer loop
    vertex 2906.191843739024 1017.0561225320668 6.35
    vertex 2905.898355064557 1018.4568639329322 9.524999999999999
    vertex 2905.898355064557 1018.4568639329322 6.35
  endloop
endfacet
facet normal -0.8083043394651341 -0.5887648892400374 0.0
  outer loop
    vertex 2905.1112718012137 1019.5374358707429 9.524999999999999
    vertex 2905.898355064557 1018.4568639329322 6.35
    vertex 2905.898355064557 1018.4568639329322 9.524999999999999
  endloop
endfacet
facet normal -0.8083043394651341 -0.5887648892400374 0.0
  outer loop
    vertex 2905.898355064557 1018.4568639329322 6.35
    vertex 2905.1112718012137 1019.5374358707429 9.524999999999999
    vertex 2905.1112718012137 1019.5374358707429 6.35
  endloop
endfacet
facet normal -0.5130441023431521 -0.8583622481510411 0.0
  outer loop
    vertex 2905.1112718012137 1019.5374358707429 9.524999999999999
    vertex 2903.9506574976394 1020.2311363740287 6.35
    vertex 2905.1112718012137 1019.5374358707429 6.35
  endloop
endfacet
facet normal -0.5130441023431521 -0.8583622481510411 0.0
  outer loop
    vertex 2903.9506574976394 1020.2311363740287 6.35
    vertex 2905.1112718012137 1019.5374358707429 9.524999999999999
    vertex 2903.9506574976394 1020.2311363740287 9.524999999999999
  endloop
endfacet
facet normal -0.16741469965597378 -0.98588656464073 0.0
  outer loop
    vertex 2903.9506574976394 1020.2311363740287 9.524999999999999
    vertex 2902.5365757024797 1020.4712634713198 6.35
    vertex 2903.9506574976394 1020.2311363740287 6.35
  endloop
endfacet
facet normal -0.16741469965597378 -0.98588656464073 0.0
  outer loop
    vertex 2902.5365757024797 1020.4712634713198 6.35
    vertex 2903.9506574976394 1020.2311363740287 9.524999999999999
    vertex 2902.5365757024797 1020.4712634713198 9.524999999999999
  endloop
endfacet
facet normal 0.11201719468303098 -0.993706268519699 0.0
  outer loop
    vertex 2902.5365757024797 1020.4712634713198 9.524999999999999
    vertex 2901.619423244585 1020.3678759324819 6.35
    vertex 2902.5365757024797 1020.4712634713198 6.35
  endloop
endfacet
facet normal 0.11201719468303098 -0.993706268519699 0.0
  outer loop
    vertex 2901.619423244585 1020.3678759324819 6.35
    vertex 2902.5365757024797 1020.4712634713198 9.524999999999999
    vertex 2901.619423244585 1020.3678759324819 9.524999999999999
  endloop
endfacet
facet normal 0.37070400039926193 -0.9287510668031473 0.0
  outer loop
    vertex 2901.619423244585 1020.3678759324819 9.524999999999999
    vertex 2900.8423456271476 1020.0577112482073 6.35
    vertex 2901.619423244585 1020.3678759324819 6.35
  endloop
endfacet
facet normal 0.37070400039926193 -0.9287510668031473 0.0
  outer loop
    vertex 2900.8423456271476 1020.0577112482073 6.35
    vertex 2901.619423244585 1020.3678759324819 9.524999999999999
    vertex 2900.8423456271476 1020.0577112482073 9.524999999999999
  endloop
endfacet
facet normal 0.6814185279188439 -0.7318939744313488 0.0
  outer loop
    vertex 2900.8423456271476 1020.0577112482073 9.524999999999999
    vertex 2899.681731323573 1018.9771393103966 6.35
    vertex 2900.8423456271476 1020.0577112482073 6.35
  endloop
endfacet
facet normal 0.6814185279188439 -0.7318939744313488 0.0
  outer loop
    vertex 2899.681731323573 1018.9771393103966 6.35
    vertex 2900.8423456271476 1020.0577112482073 9.524999999999999
    vertex 2899.681731323573 1018.9771393103966 9.524999999999999
  endloop
endfacet
facet normal 0.9174568616270768 -0.39783527628076804 0.0
  outer loop
    vertex 2899.681731323573 1018.9771393103966 6.35
    vertex 2899.0280520031693 1017.4696747551793 9.524999999999999
    vertex 2899.0280520031693 1017.4696747551793 6.35
  endloop
endfacet
facet normal 0.9174568616270768 -0.39783527628076804 0.0
  outer loop
    vertex 2899.0280520031693 1017.4696747551793 9.524999999999999
    vertex 2899.681731323573 1018.9771393103966 6.35
    vertex 2899.681731323573 1018.9771393103966 9.524999999999999
  endloop
endfacet
facet normal 0.9948018041424609 -0.10183010593584266 0.0
  outer loop
    vertex 2899.0280520031693 1017.4696747551793 6.35
    vertex 2898.854626877348 1015.7754446798468 9.524999999999999
    vertex 2898.854626877348 1015.7754446798468 6.35
  endloop
endfacet
facet normal 0.9948018041424609 -0.10183010593584266 0.0
  outer loop
    vertex 2898.854626877348 1015.7754446798468 9.524999999999999
    vertex 2899.0280520031693 1017.4696747551793 6.35
    vertex 2899.0280520031693 1017.4696747551793 9.524999999999999
  endloop
endfacet
endsolid box draft 1
