solid box draft 1
facet normal -1.0 -0.0 -0.0
  outer loop
    vertex 2938.10802533541 1052.3694960457478 6.35
    vertex 2938.10802533541 976.1694960457476 0.0
    vertex 2938.10802533541 976.1694960457476 6.35
  endloop
endfacet
facet normal -1.0 -0.0 -0.0
  outer loop
    vertex 2938.10802533541 976.1694960457476 0.0
    vertex 2938.10802533541 1052.3694960457478 6.35
    vertex 2938.10802533541 1052.3694960457478 0.0
  endloop
endfacet
facet normal 0.0 -1.0 0.0
  outer loop
    vertex 2985.733025335412 976.1694960457476 6.35
    vertex 2938.10802533541 976.1694960457476 0.0
    vertex 2985.733025335412 976.1694960457476 0.0
  endloop
endfacet
facet normal 0.0 -1.0 0.0
  outer loop
    vertex 2938.10802533541 976.1694960457476 0.0
    vertex 2985.733025335412 976.1694960457476 6.35
    vertex 2938.10802533541 976.1694960457476 6.35
  endloop
endfacet
facet normal 0.0 1.0 0.0
  outer loop
    vertex 2938.10802533541 1052.3694960457478 6.35
    vertex 2985.733025335412 1052.3694960457478 0.0
    vertex 2938.10802533541 1052.3694960457478 0.0
  endloop
endfacet
facet normal 0.0 1.0 0.0
  outer loop
    vertex 2985.733025335412 1052.3694960457478 0.0
    vertex 2938.10802533541 1052.3694960457478 6.35
    vertex 2985.733025335412 1052.3694960457478 6.35
  endloop
endfacet
facet normal 0.0 0.0 1.0
  outer loop
    vertex 2985.733025335412 976.1694960457476 6.35
    vertex 2938.10802533541 1052.3694960457478 6.35
    vertex 2938.10802533541 976.1694960457476 6.35
  endloop
endfacet
facet normal 0.0 0.0 1.0
  outer loop
    vertex 2938.10802533541 1052.3694960457478 6.35
    vertex 2985.733025335412 976.1694960457476 6.35
    vertex 2985.733025335412 1052.3694960457478 6.35
  endloop
endfacet
facet normal 0.0 0.0 -1.0
  outer loop
    vertex 2985.733025335412 1052.3694960457478 0.0
    vertex 2938.10802533541 976.1694960457476 0.0
    vertex 2938.10802533541 1052.3694960457478 0.0
  endloop
endfacet
facet normal 0.0 0.0 -1.0
  outer loop
    vertex 2938.10802533541 976.1694960457476 0.0
    vertex 2985.733025335412 1052.3694960457478 0.0
    vertex 2985.733025335412 976.1694960457476 0.0
  endloop
endfacet
facet normal 1.0 0.0 0.0
  outer loop
    vertex 2985.733025335412 1052.3694960457478 0.0
    vertex 2985.733025335412 976.1694960457476 6.35
    vertex 2985.733025335412 976.1694960457476 0.0
  endloop
endfacet
facet normal 1.0 0.0 0.0
  outer loop
    vertex 2985.733025335412 976.1694960457476 6.35
    vertex 2985.733025335412 1052.3694960457478 0.0
    vertex 2985.733025335412 1052.3694960457478 6.35
  endloop
endfacet
facet normal -0.0 -0.0 -1.0
  outer loop
    vertex 2956.3575809148306 1020.3927370266731 6.35
    vertex 2958.185214933103 1017.911423687997 6.35
    vertex 2955.91734790313 1017.911423687997 6.35
  endloop
endfacet
facet normal -0.0 -0.0 -1.0
  outer loop
    vertex 2958.185214933103 1017.911423687997 6.35
    vertex 2956.3575809148306 1020.3927370266731 6.35
    vertex 2956.8278293968056 1021.4332881818135 6.35
  endloop
endfacet
facet normal -0.0 -0.0 -1.0
  outer loop
    vertex 2958.185214933103 1017.911423687997 6.35
    vertex 2956.8278293968056 1021.4332881818135 6.35
    vertex 2957.4648336412292 1022.3137538050029 6.35
  endloop
endfacet
facet normal -0.0 -0.0 -1.0
  outer loop
    vertex 2958.185214933103 1017.911423687997 6.35
    vertex 2957.4648336412292 1022.3137538050029 6.35
    vertex 2958.2752621443487 1023.0274653332924 6.35
  endloop
endfacet
facet normal -0.0 -0.0 -1.0
  outer loop
    vertex 2958.185214933103 1017.911423687997 6.35
    vertex 2958.2752621443487 1023.0274653332924 6.35
    vertex 2958.398661241806 1019.485590214684 6.35
  endloop
endfacet
facet normal -0.0 -0.0 -1.0
  outer loop
    vertex 2958.398661241806 1019.485590214684 6.35
    vertex 2958.2752621443487 1023.0274653332924 6.35
    vertex 2959.265786870914 1023.5677508686349 6.35
  endloop
endfacet
facet normal -0.0 -0.0 -1.0
  outer loop
    vertex 2958.398661241806 1019.485590214684 6.35
    vertex 2959.265786870914 1023.5677508686349 6.35
    vertex 2959.0523405622102 1020.7929488554918 6.35
  endloop
endfacet
facet normal -0.0 -0.0 -1.0
  outer loop
    vertex 2959.0523405622102 1020.7929488554918 6.35
    vertex 2959.265786870914 1023.5677508686349 6.35
    vertex 2960.1729336829026 1021.6867552731868 6.35
  endloop
endfacet
facet normal -0.0 -0.0 -1.0
  outer loop
    vertex 2960.1729336829026 1021.6867552731868 6.35
    vertex 2959.265786870914 1023.5677508686349 6.35
    vertex 2960.429735856174 1023.9079314900974 6.35
  endloop
endfacet
facet normal -0.0 -0.0 -1.0
  outer loop
    vertex 2960.1729336829026 1021.6867552731868 6.35
    vertex 2960.429735856174 1023.9079314900974 6.35
    vertex 2961.7604406038836 1022.0202651305358 6.35
  endloop
endfacet
facet normal -0.0 -0.0 -1.0
  outer loop
    vertex 2961.7604406038836 1022.0202651305358 6.35
    vertex 2960.429735856174 1023.9079314900974 6.35
    vertex 2961.7604406038836 1024.0213242746295 6.35
  endloop
endfacet
facet normal -0.0 -0.0 -1.0
  outer loop
    vertex 2961.7604406038836 1022.0202651305358 6.35
    vertex 2961.7604406038836 1024.0213242746295 6.35
    vertex 2964.04164802815 1023.7144952058685 6.35
  endloop
endfacet
facet normal -0.0 -0.0 -1.0
  outer loop
    vertex 2961.7604406038836 1022.0202651305358 6.35
    vertex 2964.04164802815 1023.7144952058685 6.35
    vertex 2963.081140239303 1021.83016546235 6.35
  endloop
endfacet
facet normal -0.0 -0.0 -1.0
  outer loop
    vertex 2963.081140239303 1021.83016546235 6.35
    vertex 2964.04164802815 1023.7144952058685 6.35
    vertex 2964.161711576796 1021.2598626557802 6.35
  endloop
endfacet
facet normal -0.0 -0.0 -1.0
  outer loop
    vertex 2964.161711576796 1021.2598626557802 6.35
    vertex 2964.04164802815 1023.7144952058685 6.35
    vertex 2965.025502457515 1023.3309592534536 6.35
  endloop
endfacet
facet normal -0.0 -0.0 -1.0
  outer loop
    vertex 2964.161711576796 1021.2598626557802 6.35
    vertex 2965.025502457515 1023.3309592534536 6.35
    vertex 2964.882094069305 1020.309360512839 6.35
  endloop
endfacet
facet normal -0.0 -0.0 -1.0
  outer loop
    vertex 2964.882094069305 1020.309360512839 6.35
    vertex 2965.025502457515 1023.3309592534536 6.35
    vertex 2965.122219965961 1018.9786552315136 6.35
  endloop
endfacet
facet normal -0.0 -0.0 -1.0
  outer loop
    vertex 2965.122219965961 1018.9786552315136 6.35
    vertex 2965.025502457515 1023.3309592534536 6.35
    vertex 2965.8692820464225 1022.7940079995853 6.35
  endloop
endfacet
facet normal -0.0 -0.0 -1.0
  outer loop
    vertex 2965.122219965961 1018.9786552315136 6.35
    vertex 2964.908773657258 1015.1899832520296 6.35
    vertex 2964.828731291494 1017.6446158021178 6.35
  endloop
endfacet
facet normal -0.0 -0.0 -1.0
  outer loop
    vertex 2964.908773657258 1015.1899832520296 6.35
    vertex 2965.122219965961 1018.9786552315136 6.35
    vertex 2965.935984484806 1015.8169811835279 6.35
  endloop
endfacet
facet normal -0.0 -0.0 -1.0
  outer loop
    vertex 2965.935984484806 1015.8169811835279 6.35
    vertex 2965.122219965961 1018.9786552315136 6.35
    vertex 2965.8692820464225 1022.7940079995853 6.35
  endloop
endfacet
facet normal -0.0 -0.0 -1.0
  outer loop
    vertex 2965.935984484806 1015.8169811835279 6.35
    vertex 2965.8692820464225 1022.7940079995853 6.35
    vertex 2966.5596478680222 1022.0936377327154 6.35
  endloop
endfacet
facet normal -0.0 -0.0 -1.0
  outer loop
    vertex 2965.935984484806 1015.8169811835279 6.35
    vertex 2966.5596478680222 1022.0936377327154 6.35
    vertex 2966.7764288584117 1016.6841074129528 6.35
  endloop
endfacet
facet normal -0.0 -0.0 -1.0
  outer loop
    vertex 2966.7764288584117 1016.6841074129528 6.35
    vertex 2966.5596478680222 1022.0936377327154 6.35
    vertex 2967.0832579271723 1021.2198414728983 6.35
  endloop
endfacet
facet normal -0.0 -0.0 -1.0
  outer loop
    vertex 2966.7764288584117 1016.6841074129528 6.35
    vertex 2967.0832579271723 1021.2198414728983 6.35
    vertex 2967.336726352585 1017.7446683924616 6.35
  endloop
endfacet
facet normal -0.0 -0.0 -1.0
  outer loop
    vertex 2967.336726352585 1017.7446683924616 6.35
    vertex 2967.0832579271723 1021.2198414728983 6.35
    vertex 2967.4134332362396 1020.1726209543855 6.35
  endloop
endfacet
facet normal -0.0 -0.0 -1.0
  outer loop
    vertex 2967.336726352585 1017.7446683924616 6.35
    vertex 2967.4134332362396 1020.1726209543855 6.35
    vertex 2967.5234909388732 1018.9519744429256 6.35
  endloop
endfacet
facet normal -0.0 -0.0 -1.0
  outer loop
    vertex 2960.7732514261306 1015.8836837553154 6.35
    vertex 2960.5331243288397 1013.9893477655735 6.35
    vertex 2960.5331243288397 1015.9103645439034 6.35
  endloop
endfacet
facet normal -0.0 -0.0 -1.0
  outer loop
    vertex 2960.5331243288397 1013.9893477655735 6.35
    vertex 2960.7732514261306 1015.8836837553154 6.35
    vertex 2961.893844546823 1014.0693901313372 6.35
  endloop
endfacet
facet normal -0.0 -0.0 -1.0
  outer loop
    vertex 2961.893844546823 1014.0693901313372 6.35
    vertex 2960.7732514261306 1015.8836837553154 6.35
    vertex 2961.04005931201 1015.8836837553154 6.35
  endloop
endfacet
facet normal -0.0 -0.0 -1.0
  outer loop
    vertex 2961.893844546823 1014.0693901313372 6.35
    vertex 2961.04005931201 1015.8836837553154 6.35
    vertex 2961.520313506592 1015.8836837553154 6.35
  endloop
endfacet
facet normal -0.0 -0.0 -1.0
  outer loop
    vertex 2961.893844546823 1014.0693901313372 6.35
    vertex 2961.520313506592 1015.8836837553154 6.35
    vertex 2962.89437411887 1016.0837896697249 6.35
  endloop
endfacet
facet normal -0.0 -0.0 -1.0
  outer loop
    vertex 2961.893844546823 1014.0693901313372 6.35
    vertex 2962.89437411887 1016.0837896697249 6.35
    vertex 2963.481351467804 1013.8426034283399 6.35
  endloop
endfacet
facet normal -0.0 -0.0 -1.0
  outer loop
    vertex 2963.481351467804 1013.8426034283399 6.35
    vertex 2962.89437411887 1016.0837896697249 6.35
    vertex 2964.04164802815 1016.6707670186589 6.35
  endloop
endfacet
facet normal -0.0 -0.0 -1.0
  outer loop
    vertex 2963.481351467804 1013.8426034283399 6.35
    vertex 2964.04164802815 1016.6707670186589 6.35
    vertex 2964.74868892573 1013.1489029250541 6.35
  endloop
endfacet
facet normal -0.0 -0.0 -1.0
  outer loop
    vertex 2964.74868892573 1013.1489029250541 6.35
    vertex 2964.04164802815 1016.6707670186589 6.35
    vertex 2964.828731291494 1017.6446158021178 6.35
  endloop
endfacet
facet normal -0.0 -0.0 -1.0
  outer loop
    vertex 2964.74868892573 1013.1489029250541 6.35
    vertex 2964.828731291494 1017.6446158021178 6.35
    vertex 2964.908773657258 1015.1366216748538 6.35
  endloop
endfacet
facet normal -0.0 -0.0 -1.0
  outer loop
    vertex 2964.74868892573 1013.1489029250541 6.35
    vertex 2964.908773657258 1015.1366216748538 6.35
    vertex 2965.6024741605434 1012.0016290157739 6.35
  endloop
endfacet
facet normal -0.0 -0.0 -1.0
  outer loop
    vertex 2964.908773657258 1015.1366216748538 6.35
    vertex 2964.828731291494 1017.6446158021178 6.35
    vertex 2964.908773657258 1015.1899832520296 6.35
  endloop
endfacet
facet normal -0.0 -0.0 -1.0
  outer loop
    vertex 2965.6024741605434 1012.0016290157739 6.35
    vertex 2964.908773657258 1015.1366216748538 6.35
    vertex 2966.419574428306 1014.5429752293553 6.35
  endloop
endfacet
facet normal -0.0 -0.0 -1.0
  outer loop
    vertex 2965.6024741605434 1012.0016290157739 6.35
    vertex 2966.419574428306 1014.5429752293553 6.35
    vertex 2965.9226436235986 1010.4408028833809 6.35
  endloop
endfacet
facet normal -0.0 -0.0 -1.0
  outer loop
    vertex 2965.9226436235986 1010.4408028833809 6.35
    vertex 2966.419574428306 1014.5429752293553 6.35
    vertex 2966.4028978181805 1006.2519190750783 6.35
  endloop
endfacet
facet normal -0.0 -0.0 -1.0
  outer loop
    vertex 2966.4028978181805 1006.2519190750783 6.35
    vertex 2966.419574428306 1014.5429752293553 6.35
    vertex 2967.193316630336 1007.0623475781978 6.35
  endloop
endfacet
facet normal -0.0 -0.0 -1.0
  outer loop
    vertex 2967.193316630336 1007.0623475781978 6.35
    vertex 2966.419574428306 1014.5429752293553 6.35
    vertex 2967.4834697559913 1013.5090935709911 6.35
  endloop
endfacet
facet normal -0.0 -0.0 -1.0
  outer loop
    vertex 2967.193316630336 1007.0623475781978 6.35
    vertex 2967.4834697559913 1013.5090935709911 6.35
    vertex 2967.8036392190465 1008.0528723047624 6.35
  endloop
endfacet
facet normal -0.0 -0.0 -1.0
  outer loop
    vertex 2967.8036392190465 1008.0528723047624 6.35
    vertex 2967.4834697559913 1013.5090935709911 6.35
    vertex 2968.113804436937 1012.1417037228272 6.35
  endloop
endfacet
facet normal -0.0 -0.0 -1.0
  outer loop
    vertex 2967.8036392190465 1008.0528723047624 6.35
    vertex 2968.113804436937 1012.1417037228272 6.35
    vertex 2968.193846402489 1009.2168212900231 6.35
  endloop
endfacet
facet normal -0.0 -0.0 -1.0
  outer loop
    vertex 2968.193846402489 1009.2168212900231 6.35
    vertex 2968.113804436937 1012.1417037228272 6.35
    vertex 2968.323914596511 1010.5475260377325 6.35
  endloop
endfacet
facet normal -0.0 -0.0 -1.0
  outer loop
    vertex 2957.785003104284 1010.9477378665513 6.35
    vertex 2955.6071831521535 1009.5603364597679 6.35
    vertex 2955.5171360743116 1010.9477378665513 6.35
  endloop
endfacet
facet normal -0.0 -0.0 -1.0
  outer loop
    vertex 2955.6071831521535 1009.5603364597679 6.35
    vertex 2957.785003104284 1010.9477378665513 6.35
    vertex 2955.9306882974242 1008.3330205849355 6.35
  endloop
endfacet
facet normal -0.0 -0.0 -1.0
  outer loop
    vertex 2955.9306882974242 1008.3330205849355 6.35
    vertex 2957.785003104284 1010.9477378665513 6.35
    vertex 2956.4676386841666 1007.2757938869012 6.35
  endloop
endfacet
facet normal -0.0 -0.0 -1.0
  outer loop
    vertex 2956.4676386841666 1007.2757938869012 6.35
    vertex 2957.785003104284 1010.9477378665513 6.35
    vertex 2957.19802575535 1006.3986634123119 6.35
  endloop
endfacet
facet normal -0.0 -0.0 -1.0
  outer loop
    vertex 2957.19802575535 1006.3986634123119 6.35
    vertex 2957.785003104284 1010.9477378665513 6.35
    vertex 2958.1118423309235 1005.70829752401 6.35
  endloop
endfacet
facet normal -0.0 -0.0 -1.0
  outer loop
    vertex 2958.1118423309235 1005.70829752401 6.35
    vertex 2957.785003104284 1010.9477378665513 6.35
    vertex 2958.0784905781156 1009.276852630783 6.35
  endloop
endfacet
facet normal -0.0 -0.0 -1.0
  outer loop
    vertex 2958.1118423309235 1005.70829752401 6.35
    vertex 2958.0784905781156 1009.276852630783 6.35
    vertex 2958.8522346478007 1007.9461491504107 6.35
  endloop
endfacet
facet normal -0.0 -0.0 -1.0
  outer loop
    vertex 2958.1118423309235 1005.70829752401 6.35
    vertex 2958.8522346478007 1007.9461491504107 6.35
    vertex 2959.1990848994437 1005.2113683201495 6.35
  endloop
endfacet
facet normal -0.0 -0.0 -1.0
  outer loop
    vertex 2959.1990848994437 1005.2113683201495 6.35
    vertex 2958.8522346478007 1007.9461491504107 6.35
    vertex 2960.0995603470014 1007.0756869719622 6.35
  endloop
endfacet
facet normal -0.0 -0.0 -1.0
  outer loop
    vertex 2959.1990848994437 1005.2113683201495 6.35
    vertex 2960.0995603470014 1007.0756869719622 6.35
    vertex 2960.439741235272 1004.9112089482708 6.35
  endloop
endfacet
facet normal -0.0 -0.0 -1.0
  outer loop
    vertex 2960.439741235272 1004.9112089482708 6.35
    vertex 2960.0995603470014 1007.0756869719622 6.35
    vertex 2961.813802181059 1006.7855348468365 6.35
  endloop
endfacet
facet normal -0.0 -0.0 -1.0
  outer loop
    vertex 2960.439741235272 1004.9112089482708 6.35
    vertex 2961.813802181059 1006.7855348468365 6.35
    vertex 2961.813802181059 1004.8111564913308 6.35
  endloop
endfacet
facet normal -0.0 -0.0 -1.0
  outer loop
    vertex 2961.813802181059 1004.8111564913308 6.35
    vertex 2961.813802181059 1006.7855348468365 6.35
    vertex 2963.3879687077465 1007.0390023384217 6.35
  endloop
endfacet
facet normal -0.0 -0.0 -1.0
  outer loop
    vertex 2961.813802181059 1004.8111564913308 6.35
    vertex 2963.3879687077465 1007.0390023384217 6.35
    vertex 2964.335136702617 1005.1713471372676 6.35
  endloop
endfacet
facet normal -0.0 -0.0 -1.0
  outer loop
    vertex 2964.335136702617 1005.1713471372676 6.35
    vertex 2963.3879687077465 1007.0390023384217 6.35
    vertex 2964.695327348554 1007.7593836302954 6.35
  endloop
endfacet
facet normal -0.0 -0.0 -1.0
  outer loop
    vertex 2964.335136702617 1005.1713471372676 6.35
    vertex 2964.695327348554 1007.7593836302954 6.35
    vertex 2965.4457249111256 1005.6215849944505 6.35
  endloop
endfacet
facet normal -0.0 -0.0 -1.0
  outer loop
    vertex 2965.4457249111256 1005.6215849944505 6.35
    vertex 2964.695327348554 1007.7593836302954 6.35
    vertex 2965.5891337662492 1008.9066575395758 6.35
  endloop
endfacet
facet normal -0.0 -0.0 -1.0
  outer loop
    vertex 2965.4457249111256 1005.6215849944505 6.35
    vertex 2965.5891337662492 1008.9066575395758 6.35
    vertex 2966.4028978181805 1006.2519190750783 6.35
  endloop
endfacet
facet normal -0.0 -0.0 -1.0
  outer loop
    vertex 2966.4028978181805 1006.2519190750783 6.35
    vertex 2965.5891337662492 1008.9066575395758 6.35
    vertex 2965.9226436235986 1010.4408028833809 6.35
  endloop
endfacet
facet normal 0.0 0.0 1.0
  outer loop
    vertex 2955.6071831521535 1009.5603364597679 9.524999999999999
    vertex 2957.785003104284 1010.9477378665513 9.524999999999999
    vertex 2955.5171360743116 1010.9477378665513 9.524999999999999
  endloop
endfacet
facet normal 0.0 0.0 1.0
  outer loop
    vertex 2957.785003104284 1010.9477378665513 9.524999999999999
    vertex 2955.6071831521535 1009.5603364597679 9.524999999999999
    vertex 2955.9306882974242 1008.3330205849355 9.524999999999999
  endloop
endfacet
facet normal 0.0 0.0 1.0
  outer loop
    vertex 2957.785003104284 1010.9477378665513 9.524999999999999
    vertex 2955.9306882974242 1008.3330205849355 9.524999999999999
    vertex 2956.4676386841666 1007.2757938869012 9.524999999999999
  endloop
endfacet
facet normal 0.0 0.0 1.0
  outer loop
    vertex 2957.785003104284 1010.9477378665513 9.524999999999999
    vertex 2956.4676386841666 1007.2757938869012 9.524999999999999
    vertex 2957.19802575535 1006.3986634123119 9.524999999999999
  endloop
endfacet
facet normal 0.0 0.0 1.0
  outer loop
    vertex 2957.785003104284 1010.9477378665513 9.524999999999999
    vertex 2957.19802575535 1006.3986634123119 9.524999999999999
    vertex 2958.1118423309235 1005.70829752401 9.524999999999999
  endloop
endfacet
facet normal 0.0 0.0 1.0
  outer loop
    vertex 2957.785003104284 1010.9477378665513 9.524999999999999
    vertex 2958.1118423309235 1005.70829752401 9.524999999999999
    vertex 2958.0784905781156 1009.276852630783 9.524999999999999
  endloop
endfacet
facet normal 0.0 0.0 1.0
  outer loop
    vertex 2958.0784905781156 1009.276852630783 9.524999999999999
    vertex 2958.1118423309235 1005.70829752401 9.524999999999999
    vertex 2958.8522346478007 1007.9461491504107 9.524999999999999
  endloop
endfacet
facet normal 0.0 0.0 1.0
  outer loop
    vertex 2958.8522346478007 1007.9461491504107 9.524999999999999
    vertex 2958.1118423309235 1005.70829752401 9.524999999999999
    vertex 2959.1990848994437 1005.2113683201495 9.524999999999999
  endloop
endfacet
facet normal 0.0 0.0 1.0
  outer loop
    vertex 2958.8522346478007 1007.9461491504107 9.524999999999999
    vertex 2959.1990848994437 1005.2113683201495 9.524999999999999
    vertex 2960.0995603470014 1007.0756869719622 9.524999999999999
  endloop
endfacet
facet normal 0.0 0.0 1.0
  outer loop
    vertex 2960.0995603470014 1007.0756869719622 9.524999999999999
    vertex 2959.1990848994437 1005.2113683201495 9.524999999999999
    vertex 2960.439741235272 1004.9112089482708 9.524999999999999
  endloop
endfacet
facet normal 0.0 0.0 1.0
  outer loop
    vertex 2960.0995603470014 1007.0756869719622 9.524999999999999
    vertex 2960.439741235272 1004.9112089482708 9.524999999999999
    vertex 2961.813802181059 1006.7855348468365 9.524999999999999
  endloop
endfacet
facet normal 0.0 0.0 1.0
  outer loop
    vertex 2961.813802181059 1006.7855348468365 9.524999999999999
    vertex 2960.439741235272 1004.9112089482708 9.524999999999999
    vertex 2961.813802181059 1004.8111564913308 9.524999999999999
  endloop
endfacet
facet normal 0.0 0.0 1.0
  outer loop
    vertex 2961.813802181059 1006.7855348468365 9.524999999999999
    vertex 2961.813802181059 1004.8111564913308 9.524999999999999
    vertex 2964.335136702617 1005.1713471372676 9.524999999999999
  endloop
endfacet
facet normal 0.0 0.0 1.0
  outer loop
    vertex 2961.813802181059 1006.7855348468365 9.524999999999999
    vertex 2964.335136702617 1005.1713471372676 9.524999999999999
    vertex 2963.3879687077465 1007.0390023384217 9.524999999999999
  endloop
endfacet
facet normal 0.0 0.0 1.0
  outer loop
    vertex 2963.3879687077465 1007.0390023384217 9.524999999999999
    vertex 2964.335136702617 1005.1713471372676 9.524999999999999
    vertex 2964.695327348554 1007.7593836302954 9.524999999999999
  endloop
endfacet
facet normal 0.0 0.0 1.0
  outer loop
    vertex 2964.695327348554 1007.7593836302954 9.524999999999999
    vertex 2964.335136702617 1005.1713471372676 9.524999999999999
    vertex 2965.4457249111256 1005.6215849944505 9.524999999999999
  endloop
endfacet
facet normal 0.0 0.0 1.0
  outer loop
    vertex 2964.695327348554 1007.7593836302954 9.524999999999999
    vertex 2965.4457249111256 1005.6215849944505 9.524999999999999
    vertex 2965.5891337662492 1008.9066575395758 9.524999999999999
  endloop
endfacet
facet normal 0.0 0.0 1.0
  outer loop
    vertex 2965.5891337662492 1008.9066575395758 9.524999999999999
    vertex 2965.4457249111256 1005.6215849944505 9.524999999999999
    vertex 2966.4028978181805 1006.2519190750783 9.524999999999999
  endloop
endfacet
facet normal 0.0 0.0 1.0
  outer loop
    vertex 2965.5891337662492 1008.9066575395758 9.524999999999999
    vertex 2966.4028978181805 1006.2519190750783 9.524999999999999
    vertex 2965.9226436235986 1010.4408028833809 9.524999999999999
  endloop
endfacet
facet normal 0.0 0.0 1.0
  outer loop
    vertex 2961.893844546823 1014.0693901313372 9.524999999999999
    vertex 2960.5331243288397 1015.9103645439034 9.524999999999999
    vertex 2960.5331243288397 1013.9893477655735 9.524999999999999
  endloop
endfacet
facet normal 0.0 0.0 1.0
  outer loop
    vertex 2960.5331243288397 1015.9103645439034 9.524999999999999
    vertex 2961.893844546823 1014.0693901313372 9.524999999999999
    vertex 2960.7732514261306 1015.8836837553154 9.524999999999999
  endloop
endfacet
facet normal 0.0 0.0 1.0
  outer loop
    vertex 2960.7732514261306 1015.8836837553154 9.524999999999999
    vertex 2961.893844546823 1014.0693901313372 9.524999999999999
    vertex 2961.04005931201 1015.8836837553154 9.524999999999999
  endloop
endfacet
facet normal 0.0 0.0 1.0
  outer loop
    vertex 2961.04005931201 1015.8836837553154 9.524999999999999
    vertex 2961.893844546823 1014.0693901313372 9.524999999999999
    vertex 2961.520313506592 1015.8836837553154 9.524999999999999
  endloop
endfacet
facet normal 0.0 0.0 1.0
  outer loop
    vertex 2961.520313506592 1015.8836837553154 9.524999999999999
    vertex 2961.893844546823 1014.0693901313372 9.524999999999999
    vertex 2962.89437411887 1016.0837896697249 9.524999999999999
  endloop
endfacet
facet normal 0.0 0.0 1.0
  outer loop
    vertex 2962.89437411887 1016.0837896697249 9.524999999999999
    vertex 2961.893844546823 1014.0693901313372 9.524999999999999
    vertex 2963.481351467804 1013.8426034283399 9.524999999999999
  endloop
endfacet
facet normal 0.0 0.0 1.0
  outer loop
    vertex 2962.89437411887 1016.0837896697249 9.524999999999999
    vertex 2963.481351467804 1013.8426034283399 9.524999999999999
    vertex 2964.04164802815 1016.6707670186589 9.524999999999999
  endloop
endfacet
facet normal 0.0 0.0 1.0
  outer loop
    vertex 2964.04164802815 1016.6707670186589 9.524999999999999
    vertex 2963.481351467804 1013.8426034283399 9.524999999999999
    vertex 2964.74868892573 1013.1489029250541 9.524999999999999
  endloop
endfacet
facet normal 0.0 0.0 1.0
  outer loop
    vertex 2964.04164802815 1016.6707670186589 9.524999999999999
    vertex 2964.74868892573 1013.1489029250541 9.524999999999999
    vertex 2964.828731291494 1017.6446158021178 9.524999999999999
  endloop
endfacet
facet normal 0.0 0.0 1.0
  outer loop
    vertex 2964.828731291494 1017.6446158021178 9.524999999999999
    vertex 2964.74868892573 1013.1489029250541 9.524999999999999
    vertex 2964.908773657258 1015.1366216748538 9.524999999999999
  endloop
endfacet
facet normal 0.0 0.0 1.0
  outer loop
    vertex 2964.908773657258 1015.1366216748538 9.524999999999999
    vertex 2964.74868892573 1013.1489029250541 9.524999999999999
    vertex 2965.6024741605434 1012.0016290157739 9.524999999999999
  endloop
endfacet
facet normal 0.0 0.0 1.0
  outer loop
    vertex 2964.908773657258 1015.1366216748538 9.524999999999999
    vertex 2965.6024741605434 1012.0016290157739 9.524999999999999
    vertex 2966.419574428306 1014.5429752293553 9.524999999999999
  endloop
endfacet
facet normal 0.0 0.0 1.0
  outer loop
    vertex 2966.419574428306 1014.5429752293553 9.524999999999999
    vertex 2965.6024741605434 1012.0016290157739 9.524999999999999
    vertex 2965.9226436235986 1010.4408028833809 9.524999999999999
  endloop
endfacet
facet normal 0.0 0.0 1.0
  outer loop
    vertex 2966.419574428306 1014.5429752293553 9.524999999999999
    vertex 2965.9226436235986 1010.4408028833809 9.524999999999999
    vertex 2966.4028978181805 1006.2519190750783 9.524999999999999
  endloop
endfacet
facet normal 0.0 0.0 1.0
  outer loop
    vertex 2966.419574428306 1014.5429752293553 9.524999999999999
    vertex 2966.4028978181805 1006.2519190750783 9.524999999999999
    vertex 2967.193316630336 1007.0623475781978 9.524999999999999
  endloop
endfacet
facet normal 0.0 0.0 1.0
  outer loop
    vertex 2966.419574428306 1014.5429752293553 9.524999999999999
    vertex 2967.193316630336 1007.0623475781978 9.524999999999999
    vertex 2967.4834697559913 1013.5090935709911 9.524999999999999
  endloop
endfacet
facet normal 0.0 0.0 1.0
  outer loop
    vertex 2967.4834697559913 1013.5090935709911 9.524999999999999
    vertex 2967.193316630336 1007.0623475781978 9.524999999999999
    vertex 2967.8036392190465 1008.0528723047624 9.524999999999999
  endloop
endfacet
facet normal 0.0 0.0 1.0
  outer loop
    vertex 2967.4834697559913 1013.5090935709911 9.524999999999999
    vertex 2967.8036392190465 1008.0528723047624 9.524999999999999
    vertex 2968.113804436937 1012.1417037228272 9.524999999999999
  endloop
endfacet
facet normal 0.0 0.0 1.0
  outer loop
    vertex 2968.113804436937 1012.1417037228272 9.524999999999999
    vertex 2967.8036392190465 1008.0528723047624 9.524999999999999
    vertex 2968.193846402489 1009.2168212900231 9.524999999999999
  endloop
endfacet
facet normal 0.0 0.0 1.0
  outer loop
    vertex 2968.113804436937 1012.1417037228272 9.524999999999999
    vertex 2968.193846402489 1009.2168212900231 9.524999999999999
    vertex 2968.323914596511 1010.5475260377325 9.524999999999999
  endloop
endfacet
facet normal 0.0 0.0 1.0
  outer loop
    vertex 2964.828731291494 1017.6446158021178 9.524999999999999
    vertex 2964.908773657258 1015.1899832520296 9.524999999999999
    vertex 2965.122219965961 1018.9786552315136 9.524999999999999
  endloop
endfacet
facet normal 0.0 0.0 1.0
  outer loop
    vertex 2964.908773657258 1015.1899832520296 9.524999999999999
    vertex 2964.828731291494 1017.6446158021178 9.524999999999999
    vertex 2964.908773657258 1015.1366216748538 9.524999999999999
  endloop
endfacet
facet normal 0.0 0.0 1.0
  outer loop
    vertex 2965.122219965961 1018.9786552315136 9.524999999999999
    vertex 2964.908773657258 1015.1899832520296 9.524999999999999
    vertex 2965.935984484806 1015.8169811835279 9.524999999999999
  endloop
endfacet
facet normal 0.0 0.0 1.0
  outer loop
    vertex 2965.122219965961 1018.9786552315136 9.524999999999999
    vertex 2965.935984484806 1015.8169811835279 9.524999999999999
    vertex 2965.8692820464225 1022.7940079995853 9.524999999999999
  endloop
endfacet
facet normal 0.0 0.0 1.0
  outer loop
    vertex 2965.8692820464225 1022.7940079995853 9.524999999999999
    vertex 2965.935984484806 1015.8169811835279 9.524999999999999
    vertex 2966.5596478680222 1022.0936377327154 9.524999999999999
  endloop
endfacet
facet normal 0.0 0.0 1.0
  outer loop
    vertex 2966.5596478680222 1022.0936377327154 9.524999999999999
    vertex 2965.935984484806 1015.8169811835279 9.524999999999999
    vertex 2966.7764288584117 1016.6841074129528 9.524999999999999
  endloop
endfacet
facet normal 0.0 0.0 1.0
  outer loop
    vertex 2966.5596478680222 1022.0936377327154 9.524999999999999
    vertex 2966.7764288584117 1016.6841074129528 9.524999999999999
    vertex 2967.0832579271723 1021.2198414728983 9.524999999999999
  endloop
endfacet
facet normal 0.0 0.0 1.0
  outer loop
    vertex 2967.0832579271723 1021.2198414728983 9.524999999999999
    vertex 2966.7764288584117 1016.6841074129528 9.524999999999999
    vertex 2967.336726352585 1017.7446683924616 9.524999999999999
  endloop
endfacet
facet normal 0.0 0.0 1.0
  outer loop
    vertex 2967.0832579271723 1021.2198414728983 9.524999999999999
    vertex 2967.336726352585 1017.7446683924616 9.524999999999999
    vertex 2967.4134332362396 1020.1726209543855 9.524999999999999
  endloop
endfacet
facet normal 0.0 0.0 1.0
  outer loop
    vertex 2967.4134332362396 1020.1726209543855 9.524999999999999
    vertex 2967.336726352585 1017.7446683924616 9.524999999999999
    vertex 2967.5234909388732 1018.9519744429256 9.524999999999999
  endloop
endfacet
facet normal 0.0 0.0 1.0
  outer loop
    vertex 2958.185214933103 1017.911423687997 9.524999999999999
    vertex 2956.3575809148306 1020.3927370266731 9.524999999999999
    vertex 2955.91734790313 1017.911423687997 9.524999999999999
  endloop
endfacet
facet normal 0.0 0.0 1.0
  outer loop
    vertex 2956.3575809148306 1020.3927370266731 9.524999999999999
    vertex 2958.185214933103 1017.911423687997 9.524999999999999
    vertex 2956.8278293968056 1021.4332881818135 9.524999999999999
  endloop
endfacet
facet normal 0.0 0.0 1.0
  outer loop
    vertex 2956.8278293968056 1021.4332881818135 9.524999999999999
    vertex 2958.185214933103 1017.911423687997 9.524999999999999
    vertex 2957.4648336412292 1022.3137538050029 9.524999999999999
  endloop
endfacet
facet normal 0.0 0.0 1.0
  outer loop
    vertex 2957.4648336412292 1022.3137538050029 9.524999999999999
    vertex 2958.185214933103 1017.911423687997 9.524999999999999
    vertex 2958.2752621443487 1023.0274653332924 9.524999999999999
  endloop
endfacet
facet normal 0.0 0.0 1.0
  outer loop
    vertex 2958.2752621443487 1023.0274653332924 9.524999999999999
    vertex 2958.185214933103 1017.911423687997 9.524999999999999
    vertex 2958.398661241806 1019.485590214684 9.524999999999999
  endloop
endfacet
facet normal 0.0 0.0 1.0
  outer loop
    vertex 2958.2752621443487 1023.0274653332924 9.524999999999999
    vertex 2958.398661241806 1019.485590214684 9.524999999999999
    vertex 2959.265786870914 1023.5677508686349 9.524999999999999
  endloop
endfacet
facet normal 0.0 0.0 1.0
  outer loop
    vertex 2959.265786870914 1023.5677508686349 9.524999999999999
    vertex 2958.398661241806 1019.485590214684 9.524999999999999
    vertex 2959.0523405622102 1020.7929488554918 9.524999999999999
  endloop
endfacet
facet normal 0.0 0.0 1.0
  outer loop
    vertex 2959.265786870914 1023.5677508686349 9.524999999999999
    vertex 2959.0523405622102 1020.7929488554918 9.524999999999999
    vertex 2960.1729336829026 1021.6867552731868 9.524999999999999
  endloop
endfacet
facet normal 0.0 0.0 1.0
  outer loop
    vertex 2959.265786870914 1023.5677508686349 9.524999999999999
    vertex 2960.1729336829026 1021.6867552731868 9.524999999999999
    vertex 2960.429735856174 1023.9079314900974 9.524999999999999
  endloop
endfacet
facet normal 0.0 0.0 1.0
  outer loop
    vertex 2960.429735856174 1023.9079314900974 9.524999999999999
    vertex 2960.1729336829026 1021.6867552731868 9.524999999999999
    vertex 2961.7604406038836 1022.0202651305358 9.524999999999999
  endloop
endfacet
facet normal 0.0 0.0 1.0
  outer loop
    vertex 2960.429735856174 1023.9079314900974 9.524999999999999
    vertex 2961.7604406038836 1022.0202651305358 9.524999999999999
    vertex 2961.7604406038836 1024.0213242746295 9.524999999999999
  endloop
endfacet
facet normal 0.0 0.0 1.0
  outer loop
    vertex 2961.7604406038836 1024.0213242746295 9.524999999999999
    vertex 2961.7604406038836 1022.0202651305358 9.524999999999999
    vertex 2963.081140239303 1021.83016546235 9.524999999999999
  endloop
endfacet
facet normal 0.0 0.0 1.0
  outer loop
    vertex 2961.7604406038836 1024.0213242746295 9.524999999999999
    vertex 2963.081140239303 1021.83016546235 9.524999999999999
    vertex 2964.04164802815 1023.7144952058685 9.524999999999999
  endloop
endfacet
facet normal 0.0 0.0 1.0
  outer loop
    vertex 2964.04164802815 1023.7144952058685 9.524999999999999
    vertex 2963.081140239303 1021.83016546235 9.524999999999999
    vertex 2964.161711576796 1021.2598626557802 9.524999999999999
  endloop
endfacet
facet normal 0.0 0.0 1.0
  outer loop
    vertex 2964.04164802815 1023.7144952058685 9.524999999999999
    vertex 2964.161711576796 1021.2598626557802 9.524999999999999
    vertex 2965.025502457515 1023.3309592534536 9.524999999999999
  endloop
endfacet
facet normal 0.0 0.0 1.0
  outer loop
    vertex 2965.025502457515 1023.3309592534536 9.524999999999999
    vertex 2964.161711576796 1021.2598626557802 9.524999999999999
    vertex 2964.882094069305 1020.309360512839 9.524999999999999
  endloop
endfacet
facet normal 0.0 0.0 1.0
  outer loop
    vertex 2965.025502457515 1023.3309592534536 9.524999999999999
    vertex 2964.882094069305 1020.309360512839 9.524999999999999
    vertex 2965.122219965961 1018.9786552315136 9.524999999999999
  endloop
endfacet
facet normal 0.0 0.0 1.0
  outer loop
    vertex 2965.025502457515 1023.3309592534536 9.524999999999999
    vertex 2965.122219965961 1018.9786552315136 9.524999999999999
    vertex 2965.8692820464225 1022.7940079995853 9.524999999999999
  endloop
endfacet
facet normal -1.0 0.0 0.0
  outer loop
    vertex 2960.5331243288397 1015.9103645439034 9.524999999999999
    vertex 2960.5331243288397 1013.9893477655735 6.35
    vertex 2960.5331243288397 1013.9893477655735 9.524999999999999
  endloop
endfacet
facet normal -1.0 0.0 0.0
  outer loop
    vertex 2960.5331243288397 1013.9893477655735 6.35
    vertex 2960.5331243288397 1015.9103645439034 9.524999999999999
    vertex 2960.5331243288397 1015.9103645439034 6.35
  endloop
endfacet
facet normal 0.11043152607485009 0.9938837346736187 0.0
  outer loop
    vertex 2960.5331243288397 1015.9103645439034 9.524999999999999
    vertex 2960.7732514261306 1015.8836837553154 6.35
    vertex 2960.5331243288397 1015.9103645439034 6.35
  endloop
endfacet
facet normal 0.11043152607485009 0.9938837346736187 0.0
  outer loop
    vertex 2960.7732514261306 1015.8836837553154 6.35
    vertex 2960.5331243288397 1015.9103645439034 9.524999999999999
    vertex 2960.7732514261306 1015.8836837553154 9.524999999999999
  endloop
endfacet
facet normal 0.0 1.0 0.0
  outer loop
    vertex 2960.7732514261306 1015.8836837553154 9.524999999999999
    vertex 2961.04005931201 1015.8836837553154 6.35
    vertex 2960.7732514261306 1015.8836837553154 6.35
  endloop
endfacet
facet normal 0.0 1.0 0.0
  outer loop
    vertex 2961.04005931201 1015.8836837553154 6.35
    vertex 2960.7732514261306 1015.8836837553154 9.524999999999999
    vertex 2961.04005931201 1015.8836837553154 9.524999999999999
  endloop
endfacet
facet normal 0.0 1.0 0.0
  outer loop
    vertex 2961.04005931201 1015.8836837553154 9.524999999999999
    vertex 2961.520313506592 1015.8836837553154 6.35
    vertex 2961.04005931201 1015.8836837553154 6.35
  endloop
endfacet
facet normal 0.0 1.0 0.0
  outer loop
    vertex 2961.520313506592 1015.8836837553154 6.35
    vertex 2961.04005931201 1015.8836837553154 9.524999999999999
    vertex 2961.520313506592 1015.8836837553154 9.524999999999999
  endloop
endfacet
facet normal -0.14411090431112378 0.9895615429363805 0.0
  outer loop
    vertex 2961.520313506592 1015.8836837553154 9.524999999999999
    vertex 2962.89437411887 1016.0837896697249 6.35
    vertex 2961.520313506592 1015.8836837553154 6.35
  endloop
endfacet
facet normal -0.14411090431112378 0.9895615429363805 0.0
  outer loop
    vertex 2962.89437411887 1016.0837896697249 6.35
    vertex 2961.520313506592 1015.8836837553154 9.524999999999999
    vertex 2962.89437411887 1016.0837896697249 9.524999999999999
  endloop
endfacet
facet normal -0.45547580431398627 0.8902481629773393 0.0
  outer loop
    vertex 2962.89437411887 1016.0837896697249 9.524999999999999
    vertex 2964.04164802815 1016.6707670186589 6.35
    vertex 2962.89437411887 1016.0837896697249 6.35
  endloop
endfacet
facet normal -0.45547580431398627 0.8902481629773393 0.0
  outer loop
    vertex 2964.04164802815 1016.6707670186589 6.35
    vertex 2962.89437411887 1016.0837896697249 9.524999999999999
    vertex 2964.04164802815 1016.6707670186589 9.524999999999999
  endloop
endfacet
facet normal -0.7777408419603039 0.6285850640501073 0.0
  outer loop
    vertex 2964.828731291494 1017.6446158021178 9.524999999999999
    vertex 2964.04164802815 1016.6707670186589 6.35
    vertex 2964.04164802815 1016.6707670186589 9.524999999999999
  endloop
endfacet
facet normal -0.7777408419603039 0.6285850640501073 0.0
  outer loop
    vertex 2964.04164802815 1016.6707670186589 6.35
    vertex 2964.828731291494 1017.6446158021178 9.524999999999999
    vertex 2964.828731291494 1017.6446158021178 6.35
  endloop
endfacet
facet normal -0.97664446670509 0.21486178267511985 0.0
  outer loop
    vertex 2965.122219965961 1018.9786552315136 9.524999999999999
    vertex 2964.828731291494 1017.6446158021178 6.35
    vertex 2964.828731291494 1017.6446158021178 9.524999999999999
  endloop
endfacet
facet normal -0.97664446670509 0.21486178267511985 0.0
  outer loop
    vertex 2964.828731291494 1017.6446158021178 6.35
    vertex 2965.122219965961 1018.9786552315136 9.524999999999999
    vertex 2965.122219965961 1018.9786552315136 6.35
  endloop
endfacet
facet normal -0.9841060029178786 -0.17758202336102674 0.0
  outer loop
    vertex 2964.882094069305 1020.309360512839 9.524999999999999
    vertex 2965.122219965961 1018.9786552315136 6.35
    vertex 2965.122219965961 1018.9786552315136 9.524999999999999
  endloop
endfacet
facet normal -0.9841060029178786 -0.17758202336102674 0.0
  outer loop
    vertex 2965.122219965961 1018.9786552315136 6.35
    vertex 2964.882094069305 1020.309360512839 9.524999999999999
    vertex 2964.882094069305 1020.309360512839 6.35
  endloop
endfacet
facet normal -0.7969689941690097 -0.6040202168249312 0.0
  outer loop
    vertex 2964.161711576796 1021.2598626557802 9.524999999999999
    vertex 2964.882094069305 1020.309360512839 6.35
    vertex 2964.882094069305 1020.309360512839 9.524999999999999
  endloop
endfacet
facet normal -0.7969689941690097 -0.6040202168249312 0.0
  outer loop
    vertex 2964.882094069305 1020.309360512839 6.35
    vertex 2964.161711576796 1021.2598626557802 9.524999999999999
    vertex 2964.161711576796 1021.2598626557802 6.35
  endloop
endfacet
facet normal -0.4667594308222105 -0.8843843246793366 0.0
  outer loop
    vertex 2964.161711576796 1021.2598626557802 9.524999999999999
    vertex 2963.081140239303 1021.83016546235 6.35
    vertex 2964.161711576796 1021.2598626557802 6.35
  endloop
endfacet
facet normal -0.4667594308222105 -0.8843843246793366 0.0
  outer loop
    vertex 2963.081140239303 1021.83016546235 6.35
    vertex 2964.161711576796 1021.2598626557802 9.524999999999999
    vertex 2963.081140239303 1021.83016546235 9.524999999999999
  endloop
endfacet
facet normal -0.1424703021629998 -0.9897990770866497 0.0
  outer loop
    vertex 2963.081140239303 1021.83016546235 9.524999999999999
    vertex 2961.7604406038836 1022.0202651305358 6.35
    vertex 2963.081140239303 1021.83016546235 6.35
  endloop
endfacet
facet normal -0.1424703021629998 -0.9897990770866497 0.0
  outer loop
    vertex 2961.7604406038836 1022.0202651305358 6.35
    vertex 2963.081140239303 1021.83016546235 9.524999999999999
    vertex 2961.7604406038836 1022.0202651305358 9.524999999999999
  endloop
endfacet
facet normal 0.20559599848948076 -0.9786369528099342 0.0
  outer loop
    vertex 2961.7604406038836 1022.0202651305358 9.524999999999999
    vertex 2960.1729336829026 1021.6867552731868 6.35
    vertex 2961.7604406038836 1022.0202651305358 6.35
  endloop
endfacet
facet normal 0.20559599848948076 -0.9786369528099342 0.0
  outer loop
    vertex 2960.1729336829026 1021.6867552731868 6.35
    vertex 2961.7604406038836 1022.0202651305358 9.524999999999999
    vertex 2960.1729336829026 1021.6867552731868 9.524999999999999
  endloop
endfacet
facet normal 0.6235594051454494 -0.781775970630112 0.0
  outer loop
    vertex 2960.1729336829026 1021.6867552731868 9.524999999999999
    vertex 2959.0523405622102 1020.7929488554918 6.35
    vertex 2960.1729336829026 1021.6867552731868 6.35
  endloop
endfacet
facet normal 0.6235594051454494 -0.781775970630112 0.0
  outer loop
    vertex 2959.0523405622102 1020.7929488554918 6.35
    vertex 2960.1729336829026 1021.6867552731868 9.524999999999999
    vertex 2959.0523405622102 1020.7929488554918 9.524999999999999
  endloop
endfacet
facet normal 0.8944271909999157 -0.4472135954999586 0.0
  outer loop
    vertex 2959.0523405622102 1020.7929488554918 6.35
    vertex 2958.398661241806 1019.485590214684 9.524999999999999
    vertex 2958.398661241806 1019.485590214684 6.35
  endloop
endfacet
facet normal 0.8944271909999157 -0.4472135954999586 0.0
  outer loop
    vertex 2958.398661241806 1019.485590214684 9.524999999999999
    vertex 2959.0523405622102 1020.7929488554918 6.35
    vertex 2959.0523405622102 1020.7929488554918 9.524999999999999
  endloop
endfacet
facet normal 0.9909320881801383 -0.1343636729735781 0.0
  outer loop
    vertex 2958.398661241806 1019.485590214684 6.35
    vertex 2958.185214933103 1017.911423687997 9.524999999999999
    vertex 2958.185214933103 1017.911423687997 6.35
  endloop
endfacet
facet normal 0.9909320881801383 -0.1343636729735781 0.0
  outer loop
    vertex 2958.185214933103 1017.911423687997 9.524999999999999
    vertex 2958.398661241806 1019.485590214684 6.35
    vertex 2958.398661241806 1019.485590214684 9.524999999999999
  endloop
endfacet
facet normal 0.0 -1.0 0.0
  outer loop
    vertex 2958.185214933103 1017.911423687997 9.524999999999999
    vertex 2955.91734790313 1017.911423687997 6.35
    vertex 2958.185214933103 1017.911423687997 6.35
  endloop
endfacet
facet normal 0.0 -1.0 0.0
  outer loop
    vertex 2955.91734790313 1017.911423687997 6.35
    vertex 2958.185214933103 1017.911423687997 9.524999999999999
    vertex 2955.91734790313 1017.911423687997 9.524999999999999
  endloop
endfacet
facet normal -0.9846232660466404 0.17469122462117784 0.0
  outer loop
    vertex 2956.3575809148306 1020.3927370266731 9.524999999999999
    vertex 2955.91734790313 1017.911423687997 6.35
    vertex 2955.91734790313 1017.911423687997 9.524999999999999
  endloop
endfacet
facet normal -0.9846232660466404 0.17469122462117784 0.0
  outer loop
    vertex 2955.91734790313 1017.911423687997 6.35
    vertex 2956.3575809148306 1020.3927370266731 9.524999999999999
    vertex 2956.3575809148306 1020.3927370266731 6.35
  endloop
endfacet
facet normal -0.9112647414753309 0.4118210423762956 0.0
  outer loop
    vertex 2956.8278293968056 1021.4332881818135 9.524999999999999
    vertex 2956.3575809148306 1020.3927370266731 6.35
    vertex 2956.3575809148306 1020.3927370266731 9.524999999999999
  endloop
endfacet
facet normal -0.9112647414753309 0.4118210423762956 0.0
  outer loop
    vertex 2956.3575809148306 1020.3927370266731 6.35
    vertex 2956.8278293968056 1021.4332881818135 9.524999999999999
    vertex 2956.8278293968056 1021.4332881818135 6.35
  endloop
endfacet
facet normal -0.8101930925951873 0.5861630768916158 0.0
  outer loop
    vertex 2957.4648336412292 1022.3137538050029 9.524999999999999
    vertex 2956.8278293968056 1021.4332881818135 6.35
    vertex 2956.8278293968056 1021.4332881818135 9.524999999999999
  endloop
endfacet
facet normal -0.8101930925951873 0.5861630768916158 0.0
  outer loop
    vertex 2956.8278293968056 1021.4332881818135 6.35
    vertex 2957.4648336412292 1022.3137538050029 9.524999999999999
    vertex 2957.4648336412292 1022.3137538050029 6.35
  endloop
endfacet
facet normal -0.6609067627201687 0.7504680212978743 0.0
  outer loop
    vertex 2957.4648336412292 1022.3137538050029 9.524999999999999
    vertex 2958.2752621443487 1023.0274653332924 6.35
    vertex 2957.4648336412292 1022.3137538050029 6.35
  endloop
endfacet
facet normal -0.6609067627201687 0.7504680212978743 0.0
  outer loop
    vertex 2958.2752621443487 1023.0274653332924 6.35
    vertex 2957.4648336412292 1022.3137538050029 9.524999999999999
    vertex 2958.2752621443487 1023.0274653332924 9.524999999999999
  endloop
endfacet
facet normal -0.4788516667772856 0.8778958259523824 0.0
  outer loop
    vertex 2958.2752621443487 1023.0274653332924 9.524999999999999
    vertex 2959.265786870914 1023.5677508686349 6.35
    vertex 2958.2752621443487 1023.0274653332924 6.35
  endloop
endfacet
facet normal -0.4788516667772856 0.8778958259523824 0.0
  outer loop
    vertex 2959.265786870914 1023.5677508686349 6.35
    vertex 2958.2752621443487 1023.0274653332924 9.524999999999999
    vertex 2959.265786870914 1023.5677508686349 9.524999999999999
  endloop
endfacet
facet normal -0.2805285336882637 0.9598456864448123 0.0
  outer loop
    vertex 2959.265786870914 1023.5677508686349 9.524999999999999
    vertex 2960.429735856174 1023.9079314900974 6.35
    vertex 2959.265786870914 1023.5677508686349 6.35
  endloop
endfacet
facet normal -0.2805285336882637 0.9598456864448123 0.0
  outer loop
    vertex 2960.429735856174 1023.9079314900974 6.35
    vertex 2959.265786870914 1023.5677508686349 9.524999999999999
    vertex 2960.429735856174 1023.9079314900974 9.524999999999999
  endloop
endfacet
facet normal -0.08490488239563014 0.996389061032579 0.0
  outer loop
    vertex 2960.429735856174 1023.9079314900974 9.524999999999999
    vertex 2961.7604406038836 1024.0213242746295 6.35
    vertex 2960.429735856174 1023.9079314900974 6.35
  endloop
endfacet
facet normal -0.08490488239563014 0.996389061032579 0.0
  outer loop
    vertex 2961.7604406038836 1024.0213242746295 6.35
    vertex 2960.429735856174 1023.9079314900974 9.524999999999999
    vertex 2961.7604406038836 1024.0213242746295 9.524999999999999
  endloop
endfacet
facet normal 0.1333025381523677 0.991075392350217 0.0
  outer loop
    vertex 2961.7604406038836 1024.0213242746295 9.524999999999999
    vertex 2964.04164802815 1023.7144952058685 6.35
    vertex 2961.7604406038836 1024.0213242746295 6.35
  endloop
endfacet
facet normal 0.1333025381523677 0.991075392350217 0.0
  outer loop
    vertex 2964.04164802815 1023.7144952058685 6.35
    vertex 2961.7604406038836 1024.0213242746295 9.524999999999999
    vertex 2964.04164802815 1023.7144952058685 9.524999999999999
  endloop
endfacet
facet normal 0.3632077765496977 0.9317081683949244 0.0
  outer loop
    vertex 2964.04164802815 1023.7144952058685 9.524999999999999
    vertex 2965.025502457515 1023.3309592534536 6.35
    vertex 2964.04164802815 1023.7144952058685 6.35
  endloop
endfacet
facet normal 0.3632077765496977 0.9317081683949244 0.0
  outer loop
    vertex 2965.025502457515 1023.3309592534536 6.35
    vertex 2964.04164802815 1023.7144952058685 9.524999999999999
    vertex 2965.025502457515 1023.3309592534536 9.524999999999999
  endloop
endfacet
facet normal 0.5368759237335305 0.8436612131153527 0.0
  outer loop
    vertex 2965.025502457515 1023.3309592534536 9.524999999999999
    vertex 2965.8692820464225 1022.7940079995853 6.35
    vertex 2965.025502457515 1023.3309592534536 6.35
  endloop
endfacet
facet normal 0.5368759237335305 0.8436612131153527 0.0
  outer loop
    vertex 2965.8692820464225 1022.7940079995853 6.35
    vertex 2965.025502457515 1023.3309592534536 9.524999999999999
    vertex 2965.8692820464225 1022.7940079995853 9.524999999999999
  endloop
endfacet
facet normal 0.7121750212836268 0.702001950894487 0.0
  outer loop
    vertex 2965.8692820464225 1022.7940079995853 6.35
    vertex 2966.5596478680222 1022.0936377327154 9.524999999999999
    vertex 2966.5596478680222 1022.0936377327154 6.35
  endloop
endfacet
facet normal 0.7121750212836268 0.702001950894487 0.0
  outer loop
    vertex 2966.5596478680222 1022.0936377327154 9.524999999999999
    vertex 2965.8692820464225 1022.7940079995853 6.35
    vertex 2965.8692820464225 1022.7940079995853 9.524999999999999
  endloop
endfacet
facet normal 0.8577819636605448 0.514013718512123 0.0
  outer loop
    vertex 2966.5596478680222 1022.0936377327154 6.35
    vertex 2967.0832579271723 1021.2198414728983 9.524999999999999
    vertex 2967.0832579271723 1021.2198414728983 6.35
  endloop
endfacet
facet normal 0.8577819636605448 0.514013718512123 0.0
  outer loop
    vertex 2967.0832579271723 1021.2198414728983 9.524999999999999
    vertex 2966.5596478680222 1022.0936377327154 6.35
    vertex 2966.5596478680222 1022.0936377327154 9.524999999999999
  endloop
endfacet
facet normal 0.9537200984962595 0.30069581594077 0.0
  outer loop
    vertex 2967.0832579271723 1021.2198414728983 6.35
    vertex 2967.4134332362396 1020.1726209543855 9.524999999999999
    vertex 2967.4134332362396 1020.1726209543855 6.35
  endloop
endfacet
facet normal 0.9537200984962595 0.30069581594077 0.0
  outer loop
    vertex 2967.4134332362396 1020.1726209543855 9.524999999999999
    vertex 2967.0832579271723 1021.2198414728983 6.35
    vertex 2967.0832579271723 1021.2198414728983 9.524999999999999
  endloop
endfacet
facet normal 0.9959598922636376 0.08979918152301686 0.0
  outer loop
    vertex 2967.4134332362396 1020.1726209543855 6.35
    vertex 2967.5234909388732 1018.9519744429256 9.524999999999999
    vertex 2967.5234909388732 1018.9519744429256 6.35
  endloop
endfacet
facet normal 0.9959598922636376 0.08979918152301686 0.0
  outer loop
    vertex 2967.5234909388732 1018.9519744429256 9.524999999999999
    vertex 2967.4134332362396 1020.1726209543855 6.35
    vertex 2967.4134332362396 1020.1726209543855 9.524999999999999
  endloop
endfacet
facet normal 0.9882452386547318 -0.15287690563408374 0.0
  outer loop
    vertex 2967.5234909388732 1018.9519744429256 6.35
    vertex 2967.336726352585 1017.7446683924616 9.524999999999999
    vertex 2967.336726352585 1017.7446683924616 6.35
  endloop
endfacet
facet normal 0.9882452386547318 -0.15287690563408374 0.0
  outer loop
    vertex 2967.336726352585 1017.7446683924616 9.524999999999999
    vertex 2967.5234909388732 1018.9519744429256 6.35
    vertex 2967.5234909388732 1018.9519744429256 9.524999999999999
  endloop
endfacet
facet normal 0.8841929957809928 -0.46712176807748257 0.0
  outer loop
    vertex 2967.336726352585 1017.7446683924616 6.35
    vertex 2966.7764288584117 1016.6841074129528 9.524999999999999
    vertex 2966.7764288584117 1016.6841074129528 6.35
  endloop
endfacet
facet normal 0.8841929957809928 -0.46712176807748257 0.0
  outer loop
    vertex 2966.7764288584117 1016.6841074129528 9.524999999999999
    vertex 2967.336726352585 1017.7446683924616 6.35
    vertex 2967.336726352585 1017.7446683924616 9.524999999999999
  endloop
endfacet
facet normal 0.7180681092740266 -0.6959728374323417 0.0
  outer loop
    vertex 2966.7764288584117 1016.6841074129528 6.35
    vertex 2965.935984484806 1015.8169811835279 9.524999999999999
    vertex 2965.935984484806 1015.8169811835279 6.35
  endloop
endfacet
facet normal 0.7180681092740266 -0.6959728374323417 0.0
  outer loop
    vertex 2965.935984484806 1015.8169811835279 9.524999999999999
    vertex 2966.7764288584117 1016.6841074129528 6.35
    vertex 2966.7764288584117 1016.6841074129528 9.524999999999999
  endloop
endfacet
facet normal 0.5210010138357085 -0.8535560576682494 0.0
  outer loop
    vertex 2965.935984484806 1015.8169811835279 9.524999999999999
    vertex 2964.908773657258 1015.1899832520296 6.35
    vertex 2965.935984484806 1015.8169811835279 6.35
  endloop
endfacet
facet normal 0.5210010138357085 -0.8535560576682494 0.0
  outer loop
    vertex 2964.908773657258 1015.1899832520296 6.35
    vertex 2965.935984484806 1015.8169811835279 9.524999999999999
    vertex 2964.908773657258 1015.1899832520296 9.524999999999999
  endloop
endfacet
facet normal 1.0 0.0 0.0
  outer loop
    vertex 2964.908773657258 1015.1899832520296 6.35
    vertex 2964.908773657258 1015.1366216748538 9.524999999999999
    vertex 2964.908773657258 1015.1366216748538 6.35
  endloop
endfacet
facet normal 1.0 0.0 0.0
  outer loop
    vertex 2964.908773657258 1015.1366216748538 9.524999999999999
    vertex 2964.908773657258 1015.1899832520296 6.35
    vertex 2964.908773657258 1015.1899832520296 9.524999999999999
  endloop
endfacet
facet normal 0.3657151171984197 0.9307268412657638 0.0
  outer loop
    vertex 2964.908773657258 1015.1366216748538 9.524999999999999
    vertex 2966.419574428306 1014.5429752293553 6.35
    vertex 2964.908773657258 1015.1366216748538 6.35
  endloop
endfacet
facet normal 0.3657151171984197 0.9307268412657638 0.0
  outer loop
    vertex 2966.419574428306 1014.5429752293553 6.35
    vertex 2964.908773657258 1015.1366216748538 9.524999999999999
    vertex 2966.419574428306 1014.5429752293553 9.524999999999999
  endloop
endfacet
facet normal 0.6969186173273119 0.7171502219358145 0.0
  outer loop
    vertex 2966.419574428306 1014.5429752293553 9.524999999999999
    vertex 2967.4834697559913 1013.5090935709911 6.35
    vertex 2966.419574428306 1014.5429752293553 6.35
  endloop
endfacet
facet normal 0.6969186173273119 0.7171502219358145 0.0
  outer loop
    vertex 2967.4834697559913 1013.5090935709911 6.35
    vertex 2966.419574428306 1014.5429752293553 9.524999999999999
    vertex 2967.4834697559913 1013.5090935709911 9.524999999999999
  endloop
endfacet
facet normal 0.9081534440677155 0.418637458940247 0.0
  outer loop
    vertex 2967.4834697559913 1013.5090935709911 6.35
    vertex 2968.113804436937 1012.1417037228272 9.524999999999999
    vertex 2968.113804436937 1012.1417037228272 6.35
  endloop
endfacet
facet normal 0.9081534440677155 0.418637458940247 0.0
  outer loop
    vertex 2968.113804436937 1012.1417037228272 9.524999999999999
    vertex 2967.4834697559913 1013.5090935709911 6.35
    vertex 2967.4834697559913 1013.5090935709911 9.524999999999999
  endloop
endfacet
facet normal 0.9914261245402775 0.1306684337514098 0.0
  outer loop
    vertex 2968.113804436937 1012.1417037228272 6.35
    vertex 2968.323914596511 1010.5475260377325 9.524999999999999
    vertex 2968.323914596511 1010.5475260377325 6.35
  endloop
endfacet
facet normal 0.9914261245402775 0.1306684337514098 0.0
  outer loop
    vertex 2968.323914596511 1010.5475260377325 9.524999999999999
    vertex 2968.113804436937 1012.1417037228272 6.35
    vertex 2968.113804436937 1012.1417037228272 9.524999999999999
  endloop
endfacet
facet normal 0.9952570290448625 -0.09728024535738967 0.0
  outer loop
    vertex 2968.323914596511 1010.5475260377325 6.35
    vertex 2968.193846402489 1009.2168212900231 9.524999999999999
    vertex 2968.193846402489 1009.2168212900231 6.35
  endloop
endfacet
facet normal 0.9952570290448625 -0.09728024535738967 0.0
  outer loop
    vertex 2968.193846402489 1009.2168212900231 9.524999999999999
    vertex 2968.323914596511 1010.5475260377325 6.35
    vertex 2968.323914596511 1010.5475260377325 9.524999999999999
  endloop
endfacet
facet normal 0.9481383578344824 -0.3178579154322437 0.0
  outer loop
    vertex 2968.193846402489 1009.2168212900231 6.35
    vertex 2967.8036392190465 1008.0528723047624 9.524999999999999
    vertex 2967.8036392190465 1008.0528723047624 6.35
  endloop
endfacet
facet normal 0.9481383578344824 -0.3178579154322437 0.0
  outer loop
    vertex 2967.8036392190465 1008.0528723047624 9.524999999999999
    vertex 2968.193846402489 1009.2168212900231 6.35
    vertex 2968.193846402489 1009.2168212900231 9.524999999999999
  endloop
endfacet
facet normal 0.8513631947582251 -0.5245766965955202 0.0
  outer loop
    vertex 2967.8036392190465 1008.0528723047624 6.35
    vertex 2967.193316630336 1007.0623475781978 9.524999999999999
    vertex 2967.193316630336 1007.0623475781978 6.35
  endloop
endfacet
facet normal 0.8513631947582251 -0.5245766965955202 0.0
  outer loop
    vertex 2967.193316630336 1007.0623475781978 9.524999999999999
    vertex 2967.8036392190465 1008.0528723047624 6.35
    vertex 2967.8036392190465 1008.0528723047624 9.524999999999999
  endloop
endfacet
facet normal 0.7158892965701604 -0.6982138032553359 0.0
  outer loop
    vertex 2967.193316630336 1007.0623475781978 6.35
    vertex 2966.4028978181805 1006.2519190750783 9.524999999999999
    vertex 2966.4028978181805 1006.2519190750783 6.35
  endloop
endfacet
facet normal 0.7158892965701604 -0.6982138032553359 0.0
  outer loop
    vertex 2966.4028978181805 1006.2519190750783 9.524999999999999
    vertex 2967.193316630336 1007.0623475781978 6.35
    vertex 2967.193316630336 1007.0623475781978 9.524999999999999
  endloop
endfacet
facet normal 0.5499909972497034 -0.8351705831411191 0.0
  outer loop
    vertex 2966.4028978181805 1006.2519190750783 9.524999999999999
    vertex 2965.4457249111256 1005.6215849944505 6.35
    vertex 2966.4028978181805 1006.2519190750783 6.35
  endloop
endfacet
facet normal 0.5499909972497034 -0.8351705831411191 0.0
  outer loop
    vertex 2965.4457249111256 1005.6215849944505 6.35
    vertex 2966.4028978181805 1006.2519190750783 9.524999999999999
    vertex 2965.4457249111256 1005.6215849944505 9.524999999999999
  endloop
endfacet
facet normal 0.375704674633021 -0.9267394442122855 0.0
  outer loop
    vertex 2965.4457249111256 1005.6215849944505 9.524999999999999
    vertex 2964.335136702617 1005.1713471372676 6.35
    vertex 2965.4457249111256 1005.6215849944505 6.35
  endloop
endfacet
facet normal 0.375704674633021 -0.9267394442122855 0.0
  outer loop
    vertex 2964.335136702617 1005.1713471372676 6.35
    vertex 2965.4457249111256 1005.6215849944505 9.524999999999999
    vertex 2964.335136702617 1005.1713471372676 9.524999999999999
  endloop
endfacet
facet normal 0.14142135623730953 -0.9899494936611666 0.0
  outer loop
    vertex 2964.335136702617 1005.1713471372676 9.524999999999999
    vertex 2961.813802181059 1004.8111564913308 6.35
    vertex 2964.335136702617 1005.1713471372676 6.35
  endloop
endfacet
facet normal 0.14142135623730953 -0.9899494936611666 0.0
  outer loop
    vertex 2961.813802181059 1004.8111564913308 6.35
    vertex 2964.335136702617 1005.1713471372676 9.524999999999999
    vertex 2961.813802181059 1004.8111564913308 9.524999999999999
  endloop
endfacet
facet normal -0.0726228818047828 -0.9973594723259857 0.0
  outer loop
    vertex 2961.813802181059 1004.8111564913308 9.524999999999999
    vertex 2960.439741235272 1004.9112089482708 6.35
    vertex 2961.813802181059 1004.8111564913308 6.35
  endloop
endfacet
facet normal -0.0726228818047828 -0.9973594723259857 0.0
  outer loop
    vertex 2960.439741235272 1004.9112089482708 6.35
    vertex 2961.813802181059 1004.8111564913308 9.524999999999999
    vertex 2960.439741235272 1004.9112089482708 9.524999999999999
  endloop
endfacet
facet normal -0.23515174626566895 -0.9719586700205964 0.0
  outer loop
    vertex 2960.439741235272 1004.9112089482708 9.524999999999999
    vertex 2959.1990848994437 1005.2113683201495 6.35
    vertex 2960.439741235272 1004.9112089482708 6.35
  endloop
endfacet
facet normal -0.23515174626566895 -0.9719586700205964 0.0
  outer loop
    vertex 2959.1990848994437 1005.2113683201495 6.35
    vertex 2960.439741235272 1004.9112089482708 9.524999999999999
    vertex 2959.1990848994437 1005.2113683201495 9.524999999999999
  endloop
endfacet
facet normal -0.415693354808778 -0.9095048294362289 0.0
  outer loop
    vertex 2959.1990848994437 1005.2113683201495 9.524999999999999
    vertex 2958.1118423309235 1005.70829752401 6.35
    vertex 2959.1990848994437 1005.2113683201495 6.35
  endloop
endfacet
facet normal -0.415693354808778 -0.9095048294362289 0.0
  outer loop
    vertex 2958.1118423309235 1005.70829752401 6.35
    vertex 2959.1990848994437 1005.2113683201495 9.524999999999999
    vertex 2958.1118423309235 1005.70829752401 9.524999999999999
  endloop
endfacet
facet normal -0.6027923441461256 -0.7978981074290246 0.0
  outer loop
    vertex 2958.1118423309235 1005.70829752401 9.524999999999999
    vertex 2957.19802575535 1006.3986634123119 6.35
    vertex 2958.1118423309235 1005.70829752401 6.35
  endloop
endfacet
facet normal -0.6027923441461256 -0.7978981074290246 0.0
  outer loop
    vertex 2957.19802575535 1006.3986634123119 6.35
    vertex 2958.1118423309235 1005.70829752401 9.524999999999999
    vertex 2957.19802575535 1006.3986634123119 9.524999999999999
  endloop
endfacet
facet normal -0.7684603563029484 -0.6398973986435215 0.0
  outer loop
    vertex 2956.4676386841666 1007.2757938869012 9.524999999999999
    vertex 2957.19802575535 1006.3986634123119 6.35
    vertex 2957.19802575535 1006.3986634123119 9.524999999999999
  endloop
endfacet
facet normal -0.7684603563029484 -0.6398973986435215 0.0
  outer loop
    vertex 2957.19802575535 1006.3986634123119 6.35
    vertex 2956.4676386841666 1007.2757938869012 9.524999999999999
    vertex 2956.4676386841666 1007.2757938869012 6.35
  endloop
endfacet
facet normal -0.8915971358339125 -0.45282949039651127 0.0
  outer loop
    vertex 2955.9306882974242 1008.3330205849355 9.524999999999999
    vertex 2956.4676386841666 1007.2757938869012 6.35
    vertex 2956.4676386841666 1007.2757938869012 9.524999999999999
  endloop
endfacet
facet normal -0.8915971358339125 -0.45282949039651127 0.0
  outer loop
    vertex 2956.4676386841666 1007.2757938869012 6.35
    vertex 2955.9306882974242 1008.3330205849355 9.524999999999999
    vertex 2955.9306882974242 1008.3330205849355 6.35
  endloop
endfacet
facet normal -0.9669722151522103 -0.2548818061840184 0.0
  outer loop
    vertex 2955.6071831521535 1009.5603364597679 9.524999999999999
    vertex 2955.9306882974242 1008.3330205849355 6.35
    vertex 2955.9306882974242 1008.3330205849355 9.524999999999999
  endloop
endfacet
facet normal -0.9669722151522103 -0.2548818061840184 0.0
  outer loop
    vertex 2955.9306882974242 1008.3330205849355 6.35
    vertex 2955.6071831521535 1009.5603364597679 9.524999999999999
    vertex 2955.6071831521535 1009.5603364597679 6.35
  endloop
endfacet
facet normal -0.9979004049049005 -0.06476713588414704 0.0
  outer loop
    vertex 2955.5171360743116 1010.9477378665513 9.524999999999999
    vertex 2955.6071831521535 1009.5603364597679 6.35
    vertex 2955.6071831521535 1009.5603364597679 9.524999999999999
  endloop
endfacet
facet normal -0.9979004049049005 -0.06476713588414704 0.0
  outer loop
    vertex 2955.6071831521535 1009.5603364597679 6.35
    vertex 2955.5171360743116 1010.9477378665513 9.524999999999999
    vertex 2955.5171360743116 1010.9477378665513 6.35
  endloop
endfacet
facet normal 0.0 1.0 0.0
  outer loop
    vertex 2955.5171360743116 1010.9477378665513 9.524999999999999
    vertex 2957.785003104284 1010.9477378665513 6.35
    vertex 2955.5171360743116 1010.9477378665513 6.35
  endloop
endfacet
facet normal 0.0 1.0 0.0
  outer loop
    vertex 2957.785003104284 1010.9477378665513 6.35
    vertex 2955.5171360743116 1010.9477378665513 9.524999999999999
    vertex 2957.785003104284 1010.9477378665513 9.524999999999999
  endloop
endfacet
facet normal 0.9849219189075153 0.1729994614313529 0.0
  outer loop
    vertex 2957.785003104284 1010.9477378665513 6.35
    vertex 2958.0784905781156 1009.276852630783 9.524999999999999
    vertex 2958.0784905781156 1009.276852630783 6.35
  endloop
endfacet
facet normal 0.9849219189075153 0.1729994614313529 0.0
  outer loop
    vertex 2958.0784905781156 1009.276852630783 9.524999999999999
    vertex 2957.785003104284 1010.9477378665513 6.35
    vertex 2957.785003104284 1010.9477378665513 9.524999999999999
  endloop
endfacet
facet normal 0.8644848133369886 0.50265893756076 0.0
  outer loop
    vertex 2958.0784905781156 1009.276852630783 6.35
    vertex 2958.8522346478007 1007.9461491504107 9.524999999999999
    vertex 2958.8522346478007 1007.9461491504107 6.35
  endloop
endfacet
facet normal 0.8644848133369886 0.50265893756076 0.0
  outer loop
    vertex 2958.8522346478007 1007.9461491504107 9.524999999999999
    vertex 2958.0784905781156 1009.276852630783 6.35
    vertex 2958.0784905781156 1009.276852630783 9.524999999999999
  endloop
endfacet
facet normal 0.5722854862496105 0.8200544629645321 0.0
  outer loop
    vertex 2958.8522346478007 1007.9461491504107 9.524999999999999
    vertex 2960.0995603470014 1007.0756869719622 6.35
    vertex 2958.8522346478007 1007.9461491504107 6.35
  endloop
endfacet
facet normal 0.5722854862496105 0.8200544629645321 0.0
  outer loop
    vertex 2960.0995603470014 1007.0756869719622 6.35
    vertex 2958.8522346478007 1007.9461491504107 9.524999999999999
    vertex 2960.0995603470014 1007.0756869719622 9.524999999999999
  endloop
endfacet
facet normal 0.16688607171095313 0.9859761858528262 0.0
  outer loop
    vertex 2960.0995603470014 1007.0756869719622 9.524999999999999
    vertex 2961.813802181059 1006.7855348468365 6.35
    vertex 2960.0995603470014 1007.0756869719622 6.35
  endloop
endfacet
facet normal 0.16688607171095313 0.9859761858528262 0.0
  outer loop
    vertex 2961.813802181059 1006.7855348468365 6.35
    vertex 2960.0995603470014 1007.0756869719622 9.524999999999999
    vertex 2961.813802181059 1006.7855348468365 9.524999999999999
  endloop
endfacet
facet normal -0.15896937932563648 0.9872835137065856 0.0
  outer loop
    vertex 2961.813802181059 1006.7855348468365 9.524999999999999
    vertex 2963.3879687077465 1007.0390023384217 6.35
    vertex 2961.813802181059 1006.7855348468365 6.35
  endloop
endfacet
facet normal -0.15896937932563648 0.9872835137065856 0.0
  outer loop
    vertex 2963.3879687077465 1007.0390023384217 6.35
    vertex 2961.813802181059 1006.7855348468365 9.524999999999999
    vertex 2963.3879687077465 1007.0390023384217 9.524999999999999
  endloop
endfacet
facet normal -0.48260475364713534 0.8758382566188736 0.0
  outer loop
    vertex 2963.3879687077465 1007.0390023384217 9.524999999999999
    vertex 2964.695327348554 1007.7593836302954 6.35
    vertex 2963.3879687077465 1007.0390023384217 6.35
  endloop
endfacet
facet normal -0.48260475364713534 0.8758382566188736 0.0
  outer loop
    vertex 2964.695327348554 1007.7593836302954 6.35
    vertex 2963.3879687077465 1007.0390023384217 9.524999999999999
    vertex 2964.695327348554 1007.7593836302954 9.524999999999999
  endloop
endfacet
facet normal -0.7888580436565559 0.6145754526161549 0.0
  outer loop
    vertex 2965.5891337662492 1008.9066575395758 9.524999999999999
    vertex 2964.695327348554 1007.7593836302954 6.35
    vertex 2964.695327348554 1007.7593836302954 9.524999999999999
  endloop
endfacet
facet normal -0.7888580436565559 0.6145754526161549 0.0
  outer loop
    vertex 2964.695327348554 1007.7593836302954 6.35
    vertex 2965.5891337662492 1008.9066575395758 9.524999999999999
    vertex 2965.5891337662492 1008.9066575395758 6.35
  endloop
endfacet
facet normal -0.9771763639228012 0.21242964433104333 0.0
  outer loop
    vertex 2965.9226436235986 1010.4408028833809 9.524999999999999
    vertex 2965.5891337662492 1008.9066575395758 6.35
    vertex 2965.5891337662492 1008.9066575395758 9.524999999999999
  endloop
endfacet
facet normal -0.9771763639228012 0.21242964433104333 0.0
  outer loop
    vertex 2965.5891337662492 1008.9066575395758 6.35
    vertex 2965.9226436235986 1010.4408028833809 9.524999999999999
    vertex 2965.9226436235986 1010.4408028833809 6.35
  endloop
endfacet
facet normal -0.9796027006414902 -0.20094414372133115 0.0
  outer loop
    vertex 2965.6024741605434 1012.0016290157739 9.524999999999999
    vertex 2965.9226436235986 1010.4408028833809 6.35
    vertex 2965.9226436235986 1010.4408028833809 9.524999999999999
  endloop
endfacet
facet normal -0.9796027006414902 -0.20094414372133115 0.0
  outer loop
    vertex 2965.9226436235986 1010.4408028833809 6.35
    vertex 2965.6024741605434 1012.0016290157739 9.524999999999999
    vertex 2965.6024741605434 1012.0016290157739 6.35
  endloop
endfacet
facet normal -0.8022332212740242 -0.5970107693202048 0.0
  outer loop
    vertex 2964.74868892573 1013.1489029250541 9.524999999999999
    vertex 2965.6024741605434 1012.0016290157739 6.35
    vertex 2965.6024741605434 1012.0016290157739 9.524999999999999
  endloop
endfacet
facet normal -0.8022332212740242 -0.5970107693202048 0.0
  outer loop
    vertex 2965.6024741605434 1012.0016290157739 6.35
    vertex 2964.74868892573 1013.1489029250541 9.524999999999999
    vertex 2964.74868892573 1013.1489029250541 6.35
  endloop
endfacet
facet normal -0.4801454862361383 -0.8771888690852514 0.0
  outer loop
    vertex 2964.74868892573 1013.1489029250541 9.524999999999999
    vertex 2963.481351467804 1013.8426034283399 6.35
    vertex 2964.74868892573 1013.1489029250541 6.35
  endloop
endfacet
facet normal -0.4801454862361383 -0.8771888690852514 0.0
  outer loop
    vertex 2963.481351467804 1013.8426034283399 6.35
    vertex 2964.74868892573 1013.1489029250541 9.524999999999999
    vertex 2963.481351467804 1013.8426034283399 9.524999999999999
  endloop
endfacet
facet normal -0.1414213562373095 -0.9899494936611666 0.0
  outer loop
    vertex 2963.481351467804 1013.8426034283399 9.524999999999999
    vertex 2961.893844546823 1014.0693901313372 6.35
    vertex 2963.481351467804 1013.8426034283399 6.35
  endloop
endfacet
facet normal -0.1414213562373095 -0.9899494936611666 0.0
  outer loop
    vertex 2961.893844546823 1014.0693901313372 6.35
    vertex 2963.481351467804 1013.8426034283399 9.524999999999999
    vertex 2961.893844546823 1014.0693901313372 9.524999999999999
  endloop
endfacet
facet normal 0.0587220219514703 -0.998274373174996 0.0
  outer loop
    vertex 2961.893844546823 1014.0693901313372 9.524999999999999
    vertex 2960.5331243288397 1013.9893477655735 6.35
    vertex 2961.893844546823 1014.0693901313372 6.35
  endloop
endfacet
facet normal 0.0587220219514703 -0.998274373174996 0.0
  outer loop
    vertex 2960.5331243288397 1013.9893477655735 6.35
    vertex 2961.893844546823 1014.0693901313372 9.524999999999999
    vertex 2960.5331243288397 1013.9893477655735 9.524999999999999
  endloop
endfacet
endsolid box draft 1
