solid box draft 1
facet normal -1.0 0.0 0.0
  outer loop
    vertex 3008.3265218026854 1054.2347757395178 6.35
    vertex 3008.3265218026854 978.0347757395175 0.0
    vertex 3008.3265218026854 978.0347757395175 6.35
  endloop
endfacet
facet normal -1.0 0.0 0.0
  outer loop
    vertex 3008.3265218026854 978.0347757395175 0.0
    vertex 3008.3265218026854 1054.2347757395178 6.35
    vertex 3008.3265218026854 1054.2347757395178 0.0
  endloop
endfacet
facet normal -0.0 -0.0 -1.0
  outer loop
    vertex 3038.635793823844 1013.1065062347881 6.35
    vertex 3036.074438119404 1011.1054470906947 6.35
    vertex 3036.074438119404 1013.1065062347881 6.35
  endloop
endfacet
facet normal -0.0 -0.0 -1.0
  outer loop
    vertex 3036.074438119404 1011.1054470906947 6.35
    vertex 3038.635793823844 1013.1065062347881 6.35
    vertex 3038.635793823844 1011.1054470906947 6.35
  endloop
endfacet
facet normal -0.0 -0.0 -1.0
  outer loop
    vertex 3034.2601444954257 1025.5931152939322 6.35
    vertex 3025.6422497815292 1011.1054470906947 6.35
    vertex 3025.6422497815292 1013.2932717549037 6.35
  endloop
endfacet
facet normal -0.0 -0.0 -1.0
  outer loop
    vertex 3025.6422497815292 1011.1054470906947 6.35
    vertex 3034.2601444954257 1025.5931152939322 6.35
    vertex 3027.589947348447 1013.1065062347881 6.35
  endloop
endfacet
facet normal -0.0 -0.0 -1.0
  outer loop
    vertex 3027.589947348447 1013.1065062347881 6.35
    vertex 3034.2601444954257 1025.5931152939322 6.35
    vertex 3033.886613455195 1022.3647398747947 6.35
  endloop
endfacet
facet normal -0.0 -0.0 -1.0
  outer loop
    vertex 3033.886613455195 1022.3647398747947 6.35
    vertex 3034.2601444954257 1025.5931152939322 6.35
    vertex 3033.9399750323705 1022.3647398747947 6.35
  endloop
endfacet
facet normal -0.0 -0.0 -1.0
  outer loop
    vertex 3033.9399750323705 1022.3647398747947 6.35
    vertex 3034.2601444954257 1025.5931152939322 6.35
    vertex 3033.9399750323705 1013.1065062347881 6.35
  endloop
endfacet
facet normal -0.0 -0.0 -1.0
  outer loop
    vertex 3033.9399750323705 1013.1065062347881 6.35
    vertex 3034.2601444954257 1025.5931152939322 6.35
    vertex 3033.9399750323705 1011.1054470906947 6.35
  endloop
endfacet
facet normal -0.0 -0.0 -1.0
  outer loop
    vertex 3033.9399750323705 1011.1054470906947 6.35
    vertex 3034.2601444954257 1025.5931152939322 6.35
    vertex 3033.9399750323705 1006.6764361851008 6.35
  endloop
endfacet
facet normal -0.0 -0.0 -1.0
  outer loop
    vertex 3033.9399750323705 1006.6764361851008 6.35
    vertex 3034.2601444954257 1025.5931152939322 6.35
    vertex 3036.074438119404 1006.6764361851008 6.35
  endloop
endfacet
facet normal -0.0 -0.0 -1.0
  outer loop
    vertex 3036.074438119404 1006.6764361851008 6.35
    vertex 3034.2601444954257 1025.5931152939322 6.35
    vertex 3036.074438119404 1025.5931152939322 6.35
  endloop
endfacet
facet normal -0.0 -0.0 -1.0
  outer loop
    vertex 3036.074438119404 1006.6764361851008 6.35
    vertex 3036.074438119404 1025.5931152939322 6.35
    vertex 3036.074438119404 1013.1065062347881 6.35
  endloop
endfacet
facet normal -0.0 -0.0 -1.0
  outer loop
    vertex 3036.074438119404 1006.6764361851008 6.35
    vertex 3036.074438119404 1013.1065062347881 6.35
    vertex 3036.074438119404 1011.1054470906947 6.35
  endloop
endfacet
facet normal -0.0 -0.0 -1.0
  outer loop
    vertex 3027.589947348447 1013.1065062347881 6.35
    vertex 3033.9399750323705 1011.1054470906947 6.35
    vertex 3025.6422497815292 1011.1054470906947 6.35
  endloop
endfacet
facet normal -0.0 -0.0 -1.0
  outer loop
    vertex 3033.9399750323705 1011.1054470906947 6.35
    vertex 3027.589947348447 1013.1065062347881 6.35
    vertex 3033.9399750323705 1013.1065062347881 6.35
  endloop
endfacet
facet normal 0.0 0.0 1.0
  outer loop
    vertex 3038.635793823844 1011.1054470906947 9.524999999999999
    vertex 3036.074438119404 1013.1065062347881 9.524999999999999
    vertex 3036.074438119404 1011.1054470906947 9.524999999999999
  endloop
endfacet
facet normal 0.0 0.0 1.0
  outer loop
    vertex 3036.074438119404 1013.1065062347881 9.524999999999999
    vertex 3038.635793823844 1011.1054470906947 9.524999999999999
    vertex 3038.635793823844 1013.1065062347881 9.524999999999999
  endloop
endfacet
facet normal 0.0 0.0 1.0
  outer loop
    vertex 3036.074438119404 1006.6764361851008 9.524999999999999
    vertex 3033.9399750323705 1011.1054470906947 9.524999999999999
    vertex 3033.9399750323705 1006.6764361851008 9.524999999999999
  endloop
endfacet
facet normal 0.0 0.0 1.0
  outer loop
    vertex 3033.9399750323705 1011.1054470906947 9.524999999999999
    vertex 3036.074438119404 1006.6764361851008 9.524999999999999
    vertex 3033.9399750323705 1013.1065062347881 9.524999999999999
  endloop
endfacet
facet normal 0.0 0.0 1.0
  outer loop
    vertex 3033.9399750323705 1013.1065062347881 9.524999999999999
    vertex 3036.074438119404 1006.6764361851008 9.524999999999999
    vertex 3033.9399750323705 1022.3647398747947 9.524999999999999
  endloop
endfacet
facet normal 0.0 0.0 1.0
  outer loop
    vertex 3033.9399750323705 1022.3647398747947 9.524999999999999
    vertex 3036.074438119404 1006.6764361851008 9.524999999999999
    vertex 3034.2601444954257 1025.5931152939322 9.524999999999999
  endloop
endfacet
facet normal 0.0 0.0 1.0
  outer loop
    vertex 3034.2601444954257 1025.5931152939322 9.524999999999999
    vertex 3036.074438119404 1006.6764361851008 9.524999999999999
    vertex 3036.074438119404 1025.5931152939322 9.524999999999999
  endloop
endfacet
facet normal 0.0 0.0 1.0
  outer loop
    vertex 3036.074438119404 1025.5931152939322 9.524999999999999
    vertex 3036.074438119404 1006.6764361851008 9.524999999999999
    vertex 3036.074438119404 1011.1054470906947 9.524999999999999
  endloop
endfacet
facet normal 0.0 0.0 1.0
  outer loop
    vertex 3036.074438119404 1025.5931152939322 9.524999999999999
    vertex 3036.074438119404 1011.1054470906947 9.524999999999999
    vertex 3036.074438119404 1013.1065062347881 9.524999999999999
  endloop
endfacet
facet normal 0.0 0.0 1.0
  outer loop
    vertex 3027.589947348447 1013.1065062347881 9.524999999999999
    vertex 3034.2601444954257 1025.5931152939322 9.524999999999999
    vertex 3025.6422497815292 1013.2932717549037 9.524999999999999
  endloop
endfacet
facet normal 0.0 0.0 1.0
  outer loop
    vertex 3034.2601444954257 1025.5931152939322 9.524999999999999
    vertex 3027.589947348447 1013.1065062347881 9.524999999999999
    vertex 3033.886613455195 1022.3647398747947 9.524999999999999
  endloop
endfacet
facet normal 0.0 0.0 1.0
  outer loop
    vertex 3034.2601444954257 1025.5931152939322 9.524999999999999
    vertex 3033.886613455195 1022.3647398747947 9.524999999999999
    vertex 3033.9399750323705 1022.3647398747947 9.524999999999999
  endloop
endfacet
facet normal 0.0 0.0 1.0
  outer loop
    vertex 3033.9399750323705 1011.1054470906947 9.524999999999999
    vertex 3025.6422497815292 1013.2932717549037 9.524999999999999
    vertex 3025.6422497815292 1011.1054470906947 9.524999999999999
  endloop
endfacet
facet normal 0.0 0.0 1.0
  outer loop
    vertex 3025.6422497815292 1013.2932717549037 9.524999999999999
    vertex 3033.9399750323705 1011.1054470906947 9.524999999999999
    vertex 3027.589947348447 1013.1065062347881 9.524999999999999
  endloop
endfacet
facet normal 0.0 0.0 1.0
  outer loop
    vertex 3027.589947348447 1013.1065062347881 9.524999999999999
    vertex 3033.9399750323705 1011.1054470906947 9.524999999999999
    vertex 3033.9399750323705 1013.1065062347881 9.524999999999999
  endloop
endfacet
facet normal 1.0 0.0 0.0
  outer loop
    vertex 3036.074438119404 1025.5931152939322 6.35
    vertex 3036.074438119404 1013.1065062347881 9.524999999999999
    vertex 3036.074438119404 1013.1065062347881 6.35
  endloop
endfacet
facet normal 1.0 0.0 0.0
  outer loop
    vertex 3036.074438119404 1013.1065062347881 9.524999999999999
    vertex 3036.074438119404 1025.5931152939322 6.35
    vertex 3036.074438119404 1025.5931152939322 9.524999999999999
  endloop
endfacet
facet normal 0.0 1.0 0.0
  outer loop
    vertex 3036.074438119404 1013.1065062347881 9.524999999999999
    vertex 3038.635793823844 1013.1065062347881 6.35
    vertex 3036.074438119404 1013.1065062347881 6.35
  endloop
endfacet
facet normal 0.0 1.0 0.0
  outer loop
    vertex 3038.635793823844 1013.1065062347881 6.35
    vertex 3036.074438119404 1013.1065062347881 9.524999999999999
    vertex 3038.635793823844 1013.1065062347881 9.524999999999999
  endloop
endfacet
facet normal 1.0 0.0 0.0
  outer loop
    vertex 3038.635793823844 1013.1065062347881 6.35
    vertex 3038.635793823844 1011.1054470906947 9.524999999999999
    vertex 3038.635793823844 1011.1054470906947 6.35
  endloop
endfacet
facet normal 1.0 0.0 0.0
  outer loop
    vertex 3038.635793823844 1011.1054470906947 9.524999999999999
    vertex 3038.635793823844 1013.1065062347881 6.35
    vertex 3038.635793823844 1013.1065062347881 9.524999999999999
  endloop
endfacet
facet normal 0.0 -1.0 0.0
  outer loop
    vertex 3038.635793823844 1011.1054470906947 9.524999999999999
    vertex 3036.074438119404 1011.1054470906947 6.35
    vertex 3038.635793823844 1011.1054470906947 6.35
  endloop
endfacet
facet normal 0.0 -1.0 0.0
  outer loop
    vertex 3036.074438119404 1011.1054470906947 6.35
    vertex 3038.635793823844 1011.1054470906947 9.524999999999999
    vertex 3036.074438119404 1011.1054470906947 9.524999999999999
  endloop
endfacet
facet normal 1.0 0.0 0.0
  outer loop
    vertex 3036.074438119404 1011.1054470906947 6.35
    vertex 3036.074438119404 1006.6764361851008 9.524999999999999
    vertex 3036.074438119404 1006.6764361851008 6.35
  endloop
endfacet
facet normal 1.0 0.0 0.0
  outer loop
    vertex 3036.074438119404 1006.6764361851008 9.524999999999999
    vertex 3036.074438119404 1011.1054470906947 6.35
    vertex 3036.074438119404 1011.1054470906947 9.524999999999999
  endloop
endfacet
facet normal 0.0 -1.0 0.0
  outer loop
    vertex 3036.074438119404 1006.6764361851008 9.524999999999999
    vertex 3033.9399750323705 1006.6764361851008 6.35
    vertex 3036.074438119404 1006.6764361851008 6.35
  endloop
endfacet
facet normal 0.0 -1.0 0.0
  outer loop
    vertex 3033.9399750323705 1006.6764361851008 6.35
    vertex 3036.074438119404 1006.6764361851008 9.524999999999999
    vertex 3033.9399750323705 1006.6764361851008 9.524999999999999
  endloop
endfacet
facet normal -1.0 0.0 0.0
  outer loop
    vertex 3033.9399750323705 1011.1054470906947 9.524999999999999
    vertex 3033.9399750323705 1006.6764361851008 6.35
    vertex 3033.9399750323705 1006.6764361851008 9.524999999999999
  endloop
endfacet
facet normal -1.0 0.0 0.0
  outer loop
    vertex 3033.9399750323705 1006.6764361851008 6.35
    vertex 3033.9399750323705 1011.1054470906947 9.524999999999999
    vertex 3033.9399750323705 1011.1054470906947 6.35
  endloop
endfacet
facet normal 0.0 -1.0 0.0
  outer loop
    vertex 3033.9399750323705 1011.1054470906947 9.524999999999999
    vertex 3025.6422497815292 1011.1054470906947 6.35
    vertex 3033.9399750323705 1011.1054470906947 6.35
  endloop
endfacet
facet normal 0.0 -1.0 0.0
  outer loop
    vertex 3025.6422497815292 1011.1054470906947 6.35
    vertex 3033.9399750323705 1011.1054470906947 9.524999999999999
    vertex 3025.6422497815292 1011.1054470906947 9.524999999999999
  endloop
endfacet
facet normal -1.0 0.0 0.0
  outer loop
    vertex 3025.6422497815292 1013.2932717549037 9.524999999999999
    vertex 3025.6422497815292 1011.1054470906947 6.35
    vertex 3025.6422497815292 1011.1054470906947 9.524999999999999
  endloop
endfacet
facet normal -1.0 0.0 0.0
  outer loop
    vertex 3025.6422497815292 1011.1054470906947 6.35
    vertex 3025.6422497815292 1013.2932717549037 9.524999999999999
    vertex 3025.6422497815292 1013.2932717549037 6.35
  endloop
endfacet
facet normal -0.8189814586640373 0.5738199807993146 0.0
  outer loop
    vertex 3034.2601444954257 1025.5931152939322 9.524999999999999
    vertex 3025.6422497815292 1013.2932717549037 6.35
    vertex 3025.6422497815292 1013.2932717549037 9.524999999999999
  endloop
endfacet
facet normal -0.8189814586640373 0.5738199807993146 0.0
  outer loop
    vertex 3025.6422497815292 1013.2932717549037 6.35
    vertex 3034.2601444954257 1025.5931152939322 9.524999999999999
    vertex 3034.2601444954257 1025.5931152939322 6.35
  endloop
endfacet
facet normal 0.0 1.0 0.0
  outer loop
    vertex 3034.2601444954257 1025.5931152939322 9.524999999999999
    vertex 3036.074438119404 1025.5931152939322 6.35
    vertex 3034.2601444954257 1025.5931152939322 6.35
  endloop
endfacet
facet normal 0.0 1.0 0.0
  outer loop
    vertex 3036.074438119404 1025.5931152939322 6.35
    vertex 3034.2601444954257 1025.5931152939322 9.524999999999999
    vertex 3036.074438119404 1025.5931152939322 9.524999999999999
  endloop
endfacet
facet normal 0.0 1.0 0.0
  outer loop
    vertex 3027.589947348447 1013.1065062347881 9.524999999999999
    vertex 3033.9399750323705 1013.1065062347881 6.35
    vertex 3027.589947348447 1013.1065062347881 6.35
  endloop
endfacet
facet normal 0.0 1.0 0.0
  outer loop
    vertex 3033.9399750323705 1013.1065062347881 6.35
    vertex 3027.589947348447 1013.1065062347881 9.524999999999999
    vertex 3033.9399750323705 1013.1065062347881 9.524999999999999
  endloop
endfacet
facet normal -1.0 0.0 0.0
  outer loop
    vertex 3033.9399750323705 1022.3647398747947 9.524999999999999
    vertex 3033.9399750323705 1013.1065062347881 6.35
    vertex 3033.9399750323705 1013.1065062347881 9.524999999999999
  endloop
endfacet
facet normal -1.0 0.0 0.0
  outer loop
    vertex 3033.9399750323705 1013.1065062347881 6.35
    vertex 3033.9399750323705 1022.3647398747947 9.524999999999999
    vertex 3033.9399750323705 1022.3647398747947 6.35
  endloop
endfacet
facet normal 0.0 -1.0 0.0
  outer loop
    vertex 3033.9399750323705 1022.3647398747947 9.524999999999999
    vertex 3033.886613455195 1022.3647398747947 6.35
    vertex 3033.9399750323705 1022.3647398747947 6.35
  endloop
endfacet
facet normal 0.0 -1.0 0.0
  outer loop
    vertex 3033.886613455195 1022.3647398747947 6.35
    vertex 3033.9399750323705 1022.3647398747947 9.524999999999999
    vertex 3033.886613455195 1022.3647398747947 9.524999999999999
  endloop
endfacet
facet normal 0.8268821777525752 -0.5623751987020398 0.0
  outer loop
    vertex 3033.886613455195 1022.3647398747947 6.35
    vertex 3027.589947348447 1013.1065062347881 9.524999999999999
    vertex 3027.589947348447 1013.1065062347881 6.35
  endloop
endfacet
facet normal 0.8268821777525752 -0.5623751987020398 0.0
  outer loop
    vertex 3027.589947348447 1013.1065062347881 9.524999999999999
    vertex 3033.886613455195 1022.3647398747947 6.35
    vertex 3033.886613455195 1022.3647398747947 9.524999999999999
  endloop
endfacet
facet normal 0.0 -1.0 0.0
  outer loop
    vertex 3055.9515218026877 978.0347757395175 6.35
    vertex 3008.3265218026854 978.0347757395175 0.0
    vertex 3055.9515218026877 978.0347757395175 0.0
  endloop
endfacet
facet normal 0.0 -1.0 0.0
  outer loop
    vertex 3008.3265218026854 978.0347757395175 0.0
    vertex 3055.9515218026877 978.0347757395175 6.35
    vertex 3008.3265218026854 978.0347757395175 6.35
  endloop
endfacet
facet normal 0.0 0.0 1.0
  outer loop
    vertex 3055.9515218026877 978.0347757395175 6.35
    vertex 3008.3265218026854 1054.2347757395178 6.35
    vertex 3008.3265218026854 978.0347757395175 6.35
  endloop
endfacet
facet normal 0.0 0.0 1.0
  outer loop
    vertex 3008.3265218026854 1054.2347757395178 6.35
    vertex 3055.9515218026877 978.0347757395175 6.35
    vertex 3055.9515218026877 1054.2347757395178 6.35
  endloop
endfacet
facet normal 0.0 0.0 -1.0
  outer loop
    vertex 3055.9515218026877 1054.2347757395178 0.0
    vertex 3008.3265218026854 978.0347757395175 0.0
    vertex 3008.3265218026854 1054.2347757395178 0.0
  endloop
endfacet
facet normal 0.0 0.0 -1.0
  outer loop
    vertex 3008.3265218026854 978.0347757395175 0.0
    vertex 3055.9515218026877 1054.2347757395178 0.0
    vertex 3055.9515218026877 978.0347757395175 0.0
  endloop
endfacet
facet normal 1.0 0.0 0.0
  outer loop
    vertex 3055.9515218026877 1054.2347757395178 0.0
    vertex 3055.9515218026877 978.0347757395175 6.35
    vertex 3055.9515218026877 978.0347757395175 0.0
  endloop
endfacet
facet normal 1.0 0.0 0.0
  outer loop
    vertex 3055.9515218026877 978.0347757395175 6.35
    vertex 3055.9515218026877 1054.2347757395178 0.0
    vertex 3055.9515218026877 1054.2347757395178 6.35
  endloop
endfacet
facet normal 0.0 1.0 0.0
  outer loop
    vertex 3008.3265218026854 1054.2347757395178 6.35
    vertex 3055.9515218026877 1054.2347757395178 0.0
    vertex 3008.3265218026854 1054.2347757395178 0.0
  endloop
endfacet
facet normal 0.0 1.0 0.0
  outer loop
    vertex 3055.9515218026877 1054.2347757395178 0.0
    vertex 3008.3265218026854 1054.2347757395178 6.35
    vertex 3055.9515218026877 1054.2347757395178 6.35
  endloop
endfacet
endsolid box draft 1
