solid box draft 1
facet normal -1.0 -0.0 -0.0
  outer loop
    vertex 3074.993098335081 1053.861083663363 6.35
    vertex 3074.993098335081 977.6610836633625 0.0
    vertex 3074.993098335081 977.6610836633625 6.35
  endloop
endfacet
facet normal -1.0 -0.0 -0.0
  outer loop
    vertex 3074.993098335081 977.6610836633625 0.0
    vertex 3074.993098335081 1053.861083663363 6.35
    vertex 3074.993098335081 1053.861083663363 0.0
  endloop
endfacet
facet normal 0.0 -1.0 0.0
  outer loop
    vertex 3122.6180983350837 977.6610836633625 6.35
    vertex 3074.993098335081 977.6610836633625 0.0
    vertex 3122.6180983350837 977.6610836633625 0.0
  endloop
endfacet
facet normal 0.0 -1.0 0.0
  outer loop
    vertex 3074.993098335081 977.6610836633625 0.0
    vertex 3122.6180983350837 977.6610836633625 6.35
    vertex 3074.993098335081 977.6610836633625 6.35
  endloop
endfacet
facet normal 0.0 1.0 0.0
  outer loop
    vertex 3074.993098335081 1053.861083663363 6.35
    vertex 3122.6180983350837 1053.861083663363 0.0
    vertex 3074.993098335081 1053.861083663363 0.0
  endloop
endfacet
facet normal 0.0 1.0 0.0
  outer loop
    vertex 3122.6180983350837 1053.861083663363 0.0
    vertex 3074.993098335081 1053.861083663363 6.35
    vertex 3122.6180983350837 1053.861083663363 6.35
  endloop
endfacet
facet normal 0.0 0.0 1.0
  outer loop
    vertex 3122.6180983350837 977.6610836633625 6.35
    vertex 3074.993098335081 1053.861083663363 6.35
    vertex 3074.993098335081 977.6610836633625 6.35
  endloop
endfacet
facet normal 0.0 0.0 1.0
  outer loop
    vertex 3074.993098335081 1053.861083663363 6.35
    vertex 3122.6180983350837 977.6610836633625 6.35
    vertex 3122.6180983350837 1053.861083663363 6.35
  endloop
endfacet
facet normal 0.0 0.0 -1.0
  outer loop
    vertex 3122.6180983350837 1053.861083663363 0.0
    vertex 3074.993098335081 977.6610836633625 0.0
    vertex 3074.993098335081 1053.861083663363 0.0
  endloop
endfacet
facet normal 0.0 0.0 -1.0
  outer loop
    vertex 3074.993098335081 977.6610836633625 0.0
    vertex 3122.6180983350837 1053.861083663363 0.0
    vertex 3122.6180983350837 977.6610836633625 0.0
  endloop
endfacet
facet normal 1.0 0.0 0.0
  outer loop
    vertex 3122.6180983350837 1053.861083663363 0.0
    vertex 3122.6180983350837 977.6610836633625 6.35
    vertex 3122.6180983350837 977.6610836633625 0.0
  endloop
endfacet
facet normal 1.0 0.0 0.0
  outer loop
    vertex 3122.6180983350837 977.6610836633625 6.35
    vertex 3122.6180983350837 1053.861083663363 0.0
    vertex 3122.6180983350837 1053.861083663363 6.35
  endloop
endfacet
facet normal -0.0 -0.0 -1.0
  outer loop
    vertex 3095.043607144187 1025.5796138637154 6.35
    vertex 3095.230372664302 1015.6543605090111 6.35
    vertex 3093.2826750973845 1015.7610836633627 6.35
  endloop
endfacet
facet normal -0.0 -0.0 -1.0
  outer loop
    vertex 3095.230372664302 1015.6543605090111 6.35
    vertex 3095.043607144187 1025.5796138637154 6.35
    vertex 3096.751177613813 1023.5785547196218 6.35
  endloop
endfacet
facet normal -0.0 -0.0 -1.0
  outer loop
    vertex 3096.751177613813 1023.5785547196218 6.35
    vertex 3095.043607144187 1025.5796138637154 6.35
    vertex 3104.381883149957 1025.5796138637154 6.35
  endloop
endfacet
facet normal -0.0 -0.0 -1.0
  outer loop
    vertex 3095.230372664302 1015.6543605090111 6.35
    vertex 3096.751177613813 1023.5785547196218 6.35
    vertex 3095.7373076474723 1018.1356738476871 6.35
  endloop
endfacet
facet normal -0.0 -0.0 -1.0
  outer loop
    vertex 3096.751177613813 1023.5785547196218 6.35
    vertex 3104.381883149957 1025.5796138637154 6.35
    vertex 3104.381883149957 1023.5785547196218 6.35
  endloop
endfacet
facet normal -0.0 -0.0 -1.0
  outer loop
    vertex 3095.7373076474723 1018.1356738476871 6.35
    vertex 3096.764518008107 1016.948378755525 6.35
    vertex 3095.230372664302 1015.6543605090111 6.35
  endloop
endfacet
facet normal -0.0 -0.0 -1.0
  outer loop
    vertex 3096.764518008107 1016.948378755525 6.35
    vertex 3095.7373076474723 1018.1356738476871 6.35
    vertex 3095.7906692246484 1018.0823122705114 6.35
  endloop
endfacet
facet normal -0.0 -0.0 -1.0
  outer loop
    vertex 3096.764518008107 1016.948378755525 6.35
    vertex 3095.7906692246484 1018.0823122705114 6.35
    vertex 3096.4943745734163 1018.6859655625512 6.35
  endloop
endfacet
facet normal -0.0 -0.0 -1.0
  outer loop
    vertex 3096.764518008107 1016.948378755525 6.35
    vertex 3096.4943745734163 1018.6859655625512 6.35
    vertex 3097.378176145629 1019.109522631146 6.35
  endloop
endfacet
facet normal -0.0 -0.0 -1.0
  outer loop
    vertex 3096.764518008107 1016.948378755525 6.35
    vertex 3097.378176145629 1019.109522631146 6.35
    vertex 3097.695010193276 1017.3185753141754 6.35
  endloop
endfacet
facet normal -0.0 -0.0 -1.0
  outer loop
    vertex 3097.695010193276 1017.3185753141754 6.35
    vertex 3097.378176145629 1019.109522631146 6.35
    vertex 3099.312533318253 1019.443032488495 6.35
  endloop
endfacet
facet normal -0.0 -0.0 -1.0
  outer loop
    vertex 3097.695010193276 1017.3185753141754 6.35
    vertex 3099.312533318253 1019.443032488495 6.35
    vertex 3098.7522367579068 1017.4419733444013 6.35
  endloop
endfacet
facet normal -0.0 -0.0 -1.0
  outer loop
    vertex 3098.7522367579068 1017.4419733444013 6.35
    vertex 3099.312533318253 1019.443032488495 6.35
    vertex 3100.4998284104154 1017.1218038813464 6.35
  endloop
endfacet
facet normal -0.0 -0.0 -1.0
  outer loop
    vertex 3100.4998284104154 1017.1218038813464 6.35
    vertex 3099.312533318253 1019.443032488495 6.35
    vertex 3100.5331795629054 1019.3429800315552 6.35
  endloop
endfacet
facet normal -0.0 -0.0 -1.0
  outer loop
    vertex 3100.4998284104154 1017.1218038813464 6.35
    vertex 3100.5331795629054 1019.3429800315552 6.35
    vertex 3101.847208234105 1016.2279974636514 6.35
  endloop
endfacet
facet normal -0.0 -0.0 -1.0
  outer loop
    vertex 3101.847208234105 1016.2279974636514 6.35
    vertex 3100.5331795629054 1019.3429800315552 6.35
    vertex 3101.6871235025774 1019.0428206596762 6.35
  endloop
endfacet
facet normal -0.0 -0.0 -1.0
  outer loop
    vertex 3101.847208234105 1016.2279974636514 6.35
    vertex 3101.6871235025774 1019.0428206596762 6.35
    vertex 3102.734344821514 1018.5392212920195 6.35
  endloop
endfacet
facet normal -0.0 -0.0 -1.0
  outer loop
    vertex 3101.847208234105 1016.2279974636514 6.35
    vertex 3102.734344821514 1018.5392212920195 6.35
    vertex 3102.7143338632122 1014.8672772456677 6.35
  endloop
endfacet
facet normal -0.0 -0.0 -1.0
  outer loop
    vertex 3102.7143338632122 1014.8672772456677 6.35
    vertex 3102.734344821514 1018.5392212920195 6.35
    vertex 3103.0211629319733 1013.146366381747 6.35
  endloop
endfacet
facet normal -0.0 -0.0 -1.0
  outer loop
    vertex 3103.0211629319733 1013.146366381747 6.35
    vertex 3102.734344821514 1018.5392212920195 6.35
    vertex 3103.634821069495 1017.8288447789262 6.35
  endloop
endfacet
facet normal -0.0 -0.0 -1.0
  outer loop
    vertex 3095.043607144187 1012.0791348382305 6.35
    vertex 3092.915813687334 1010.8651586239706 6.35
    vertex 3092.775740114214 1012.0791348382305 6.35
  endloop
endfacet
facet normal -0.0 -0.0 -1.0
  outer loop
    vertex 3092.915813687334 1010.8651586239706 6.35
    vertex 3095.043607144187 1012.0791348382305 6.35
    vertex 3093.2826750973845 1009.7845870196699 6.35
  endloop
endfacet
facet normal -0.0 -0.0 -1.0
  outer loop
    vertex 3093.2826750973845 1009.7845870196699 6.35
    vertex 3095.043607144187 1012.0791348382305 6.35
    vertex 3093.849641421315 1008.854094100779 6.35
  endloop
endfacet
facet normal -0.0 -0.0 -1.0
  outer loop
    vertex 3093.849641421315 1008.854094100779 6.35
    vertex 3095.043607144187 1012.0791348382305 6.35
    vertex 3094.5900337381922 1008.0903569443374 6.35
  endloop
endfacet
facet normal -0.0 -0.0 -1.0
  outer loop
    vertex 3094.5900337381922 1008.0903569443374 6.35
    vertex 3095.043607144187 1012.0791348382305 6.35
    vertex 3095.4805047404793 1007.4900388008973 6.35
  endloop
endfacet
facet normal -0.0 -0.0 -1.0
  outer loop
    vertex 3095.4805047404793 1007.4900388008973 6.35
    vertex 3095.043607144187 1012.0791348382305 6.35
    vertex 3095.4037977901235 1010.7317550145408 6.35
  endloop
endfacet
facet normal -0.0 -0.0 -1.0
  outer loop
    vertex 3095.4805047404793 1007.4900388008973 6.35
    vertex 3095.4037977901235 1010.7317550145408 6.35
    vertex 3096.230902236349 1009.6378426824363 6.35
  endloop
endfacet
facet normal -0.0 -0.0 -1.0
  outer loop
    vertex 3095.4805047404793 1007.4900388008973 6.35
    vertex 3096.230902236349 1009.6378426824363 6.35
    vertex 3096.497710122228 1007.0498061894085 6.35
  endloop
endfacet
facet normal -0.0 -0.0 -1.0
  outer loop
    vertex 3096.497710122228 1007.0498061894085 6.35
    vertex 3096.230902236349 1009.6378426824363 6.35
    vertex 3097.4582185113927 1008.9174613905626 6.35
  endloop
endfacet
facet normal -0.0 -0.0 -1.0
  outer loop
    vertex 3096.497710122228 1007.0498061894085 6.35
    vertex 3097.4582185113927 1008.9174613905626 6.35
    vertex 3098.805598335083 1006.6896155434717 6.35
  endloop
endfacet
facet normal -0.0 -0.0 -1.0
  outer loop
    vertex 3098.805598335083 1006.6896155434717 6.35
    vertex 3097.4582185113927 1008.9174613905626 6.35
    vertex 3099.019044643786 1008.6639938989774 6.35
  endloop
endfacet
facet normal -0.0 -0.0 -1.0
  outer loop
    vertex 3098.805598335083 1006.6896155434717 6.35
    vertex 3099.019044643786 1008.6639938989774 6.35
    vertex 3100.3564196886955 1006.8196837374937 6.35
  endloop
endfacet
facet normal -0.0 -0.0 -1.0
  outer loop
    vertex 3100.3564196886955 1006.8196837374937 6.35
    vertex 3099.019044643786 1008.6639938989774 6.35
    vertex 3100.553189987591 1008.9441421791505 6.35
  endloop
endfacet
facet normal -0.0 -0.0 -1.0
  outer loop
    vertex 3100.3564196886955 1006.8196837374937 6.35
    vertex 3100.553189987591 1008.9441421791505 6.35
    vertex 3101.7004638968715 1007.2098909209361 6.35
  endloop
endfacet
facet normal -0.0 -0.0 -1.0
  outer loop
    vertex 3101.7004638968715 1007.2098909209361 6.35
    vertex 3100.553189987591 1008.9441421791505 6.35
    vertex 3101.833867839811 1009.7845870196699 6.35
  endloop
endfacet
facet normal -0.0 -0.0 -1.0
  outer loop
    vertex 3101.7004638968715 1007.2098909209361 6.35
    vertex 3101.833867839811 1009.7845870196699 6.35
    vertex 3102.8377330273715 1007.8202135096462 6.35
  endloop
endfacet
facet normal -0.0 -0.0 -1.0
  outer loop
    vertex 3102.8377330273715 1007.8202135096462 6.35
    vertex 3101.833867839811 1009.7845870196699 6.35
    vertex 3102.700993468918 1011.1853284205354 6.35
  endloop
endfacet
facet normal -0.0 -0.0 -1.0
  outer loop
    vertex 3102.8377330273715 1007.8202135096462 6.35
    vertex 3102.700993468918 1011.1853284205354 6.35
    vertex 3103.0211629319733 1013.146366381747 6.35
  endloop
endfacet
facet normal -0.0 -0.0 -1.0
  outer loop
    vertex 3102.8377330273715 1007.8202135096462 6.35
    vertex 3103.0211629319733 1013.146366381747 6.35
    vertex 3103.768225012435 1008.6106323218015 6.35
  endloop
endfacet
facet normal -0.0 -0.0 -1.0
  outer loop
    vertex 3103.768225012435 1008.6106323218015 6.35
    vertex 3103.0211629319733 1013.146366381747 6.35
    vertex 3103.634821069495 1017.8288447789262 6.35
  endloop
endfacet
facet normal -0.0 -0.0 -1.0
  outer loop
    vertex 3103.768225012435 1008.6106323218015 6.35
    vertex 3103.634821069495 1017.8288447789262 6.35
    vertex 3104.3752133863727 1016.9150282700548 6.35
  endloop
endfacet
facet normal -0.0 -0.0 -1.0
  outer loop
    vertex 3103.768225012435 1008.6106323218015 6.35
    vertex 3104.3752133863727 1016.9150282700548 6.35
    vertex 3104.4919419198222 1009.5544649012646 6.35
  endloop
endfacet
facet normal -0.0 -0.0 -1.0
  outer loop
    vertex 3104.4919419198222 1009.5544649012646 6.35
    vertex 3104.3752133863727 1016.9150282700548 6.35
    vertex 3104.942179710303 1015.8011048462446 6.35
  endloop
endfacet
facet normal -0.0 -0.0 -1.0
  outer loop
    vertex 3104.4919419198222 1009.5544649012646 6.35
    vertex 3104.942179710303 1015.8011048462446 6.35
    vertex 3105.008881681773 1010.6250318601891 6.35
  endloop
endfacet
facet normal -0.0 -0.0 -1.0
  outer loop
    vertex 3105.008881681773 1010.6250318601891 6.35
    vertex 3104.942179710303 1015.8011048462446 6.35
    vertex 3105.3023709565578 1014.4837414266567 6.35
  endloop
endfacet
facet normal -0.0 -0.0 -1.0
  outer loop
    vertex 3105.008881681773 1010.6250318601891 6.35
    vertex 3105.3023709565578 1014.4837414266567 6.35
    vertex 3105.3190463660476 1011.7756407846656 6.35
  endloop
endfacet
facet normal -0.0 -0.0 -1.0
  outer loop
    vertex 3105.3190463660476 1011.7756407846656 6.35
    vertex 3105.3023709565578 1014.4837414266567 6.35
    vertex 3105.4224339048856 1012.9596008616317 6.35
  endloop
endfacet
facet normal 0.0 0.0 1.0
  outer loop
    vertex 3092.915813687334 1010.8651586239706 9.524999999999999
    vertex 3095.043607144187 1012.0791348382305 9.524999999999999
    vertex 3092.775740114214 1012.0791348382305 9.524999999999999
  endloop
endfacet
facet normal 0.0 0.0 1.0
  outer loop
    vertex 3095.043607144187 1012.0791348382305 9.524999999999999
    vertex 3092.915813687334 1010.8651586239706 9.524999999999999
    vertex 3093.2826750973845 1009.7845870196699 9.524999999999999
  endloop
endfacet
facet normal 0.0 0.0 1.0
  outer loop
    vertex 3095.043607144187 1012.0791348382305 9.524999999999999
    vertex 3093.2826750973845 1009.7845870196699 9.524999999999999
    vertex 3093.849641421315 1008.854094100779 9.524999999999999
  endloop
endfacet
facet normal 0.0 0.0 1.0
  outer loop
    vertex 3095.043607144187 1012.0791348382305 9.524999999999999
    vertex 3093.849641421315 1008.854094100779 9.524999999999999
    vertex 3094.5900337381922 1008.0903569443374 9.524999999999999
  endloop
endfacet
facet normal 0.0 0.0 1.0
  outer loop
    vertex 3095.043607144187 1012.0791348382305 9.524999999999999
    vertex 3094.5900337381922 1008.0903569443374 9.524999999999999
    vertex 3095.4805047404793 1007.4900388008973 9.524999999999999
  endloop
endfacet
facet normal 0.0 0.0 1.0
  outer loop
    vertex 3095.043607144187 1012.0791348382305 9.524999999999999
    vertex 3095.4805047404793 1007.4900388008973 9.524999999999999
    vertex 3095.4037977901235 1010.7317550145408 9.524999999999999
  endloop
endfacet
facet normal 0.0 0.0 1.0
  outer loop
    vertex 3095.4037977901235 1010.7317550145408 9.524999999999999
    vertex 3095.4805047404793 1007.4900388008973 9.524999999999999
    vertex 3096.230902236349 1009.6378426824363 9.524999999999999
  endloop
endfacet
facet normal 0.0 0.0 1.0
  outer loop
    vertex 3096.230902236349 1009.6378426824363 9.524999999999999
    vertex 3095.4805047404793 1007.4900388008973 9.524999999999999
    vertex 3096.497710122228 1007.0498061894085 9.524999999999999
  endloop
endfacet
facet normal 0.0 0.0 1.0
  outer loop
    vertex 3096.230902236349 1009.6378426824363 9.524999999999999
    vertex 3096.497710122228 1007.0498061894085 9.524999999999999
    vertex 3097.4582185113927 1008.9174613905626 9.524999999999999
  endloop
endfacet
facet normal 0.0 0.0 1.0
  outer loop
    vertex 3097.4582185113927 1008.9174613905626 9.524999999999999
    vertex 3096.497710122228 1007.0498061894085 9.524999999999999
    vertex 3098.805598335083 1006.6896155434717 9.524999999999999
  endloop
endfacet
facet normal 0.0 0.0 1.0
  outer loop
    vertex 3097.4582185113927 1008.9174613905626 9.524999999999999
    vertex 3098.805598335083 1006.6896155434717 9.524999999999999
    vertex 3099.019044643786 1008.6639938989774 9.524999999999999
  endloop
endfacet
facet normal 0.0 0.0 1.0
  outer loop
    vertex 3099.019044643786 1008.6639938989774 9.524999999999999
    vertex 3098.805598335083 1006.6896155434717 9.524999999999999
    vertex 3100.3564196886955 1006.8196837374937 9.524999999999999
  endloop
endfacet
facet normal 0.0 0.0 1.0
  outer loop
    vertex 3099.019044643786 1008.6639938989774 9.524999999999999
    vertex 3100.3564196886955 1006.8196837374937 9.524999999999999
    vertex 3100.553189987591 1008.9441421791505 9.524999999999999
  endloop
endfacet
facet normal 0.0 0.0 1.0
  outer loop
    vertex 3100.553189987591 1008.9441421791505 9.524999999999999
    vertex 3100.3564196886955 1006.8196837374937 9.524999999999999
    vertex 3101.7004638968715 1007.2098909209361 9.524999999999999
  endloop
endfacet
facet normal 0.0 0.0 1.0
  outer loop
    vertex 3100.553189987591 1008.9441421791505 9.524999999999999
    vertex 3101.7004638968715 1007.2098909209361 9.524999999999999
    vertex 3101.833867839811 1009.7845870196699 9.524999999999999
  endloop
endfacet
facet normal 0.0 0.0 1.0
  outer loop
    vertex 3101.833867839811 1009.7845870196699 9.524999999999999
    vertex 3101.7004638968715 1007.2098909209361 9.524999999999999
    vertex 3102.8377330273715 1007.8202135096462 9.524999999999999
  endloop
endfacet
facet normal 0.0 0.0 1.0
  outer loop
    vertex 3101.833867839811 1009.7845870196699 9.524999999999999
    vertex 3102.8377330273715 1007.8202135096462 9.524999999999999
    vertex 3102.700993468918 1011.1853284205354 9.524999999999999
  endloop
endfacet
facet normal 0.0 0.0 1.0
  outer loop
    vertex 3102.700993468918 1011.1853284205354 9.524999999999999
    vertex 3102.8377330273715 1007.8202135096462 9.524999999999999
    vertex 3103.0211629319733 1013.146366381747 9.524999999999999
  endloop
endfacet
facet normal 0.0 0.0 1.0
  outer loop
    vertex 3103.0211629319733 1013.146366381747 9.524999999999999
    vertex 3102.8377330273715 1007.8202135096462 9.524999999999999
    vertex 3103.768225012435 1008.6106323218015 9.524999999999999
  endloop
endfacet
facet normal 0.0 0.0 1.0
  outer loop
    vertex 3103.0211629319733 1013.146366381747 9.524999999999999
    vertex 3103.768225012435 1008.6106323218015 9.524999999999999
    vertex 3103.634821069495 1017.8288447789262 9.524999999999999
  endloop
endfacet
facet normal 0.0 0.0 1.0
  outer loop
    vertex 3103.634821069495 1017.8288447789262 9.524999999999999
    vertex 3103.768225012435 1008.6106323218015 9.524999999999999
    vertex 3104.3752133863727 1016.9150282700548 9.524999999999999
  endloop
endfacet
facet normal 0.0 0.0 1.0
  outer loop
    vertex 3104.3752133863727 1016.9150282700548 9.524999999999999
    vertex 3103.768225012435 1008.6106323218015 9.524999999999999
    vertex 3104.4919419198222 1009.5544649012646 9.524999999999999
  endloop
endfacet
facet normal 0.0 0.0 1.0
  outer loop
    vertex 3104.3752133863727 1016.9150282700548 9.524999999999999
    vertex 3104.4919419198222 1009.5544649012646 9.524999999999999
    vertex 3104.942179710303 1015.8011048462446 9.524999999999999
  endloop
endfacet
facet normal 0.0 0.0 1.0
  outer loop
    vertex 3104.942179710303 1015.8011048462446 9.524999999999999
    vertex 3104.4919419198222 1009.5544649012646 9.524999999999999
    vertex 3105.008881681773 1010.6250318601891 9.524999999999999
  endloop
endfacet
facet normal 0.0 0.0 1.0
  outer loop
    vertex 3104.942179710303 1015.8011048462446 9.524999999999999
    vertex 3105.008881681773 1010.6250318601891 9.524999999999999
    vertex 3105.3023709565578 1014.4837414266567 9.524999999999999
  endloop
endfacet
facet normal 0.0 0.0 1.0
  outer loop
    vertex 3105.3023709565578 1014.4837414266567 9.524999999999999
    vertex 3105.008881681773 1010.6250318601891 9.524999999999999
    vertex 3105.3190463660476 1011.7756407846656 9.524999999999999
  endloop
endfacet
facet normal 0.0 0.0 1.0
  outer loop
    vertex 3105.3023709565578 1014.4837414266567 9.524999999999999
    vertex 3105.3190463660476 1011.7756407846656 9.524999999999999
    vertex 3105.4224339048856 1012.9596008616317 9.524999999999999
  endloop
endfacet
facet normal 0.0 0.0 1.0
  outer loop
    vertex 3096.764518008107 1016.948378755525 9.524999999999999
    vertex 3095.7373076474723 1018.1356738476871 9.524999999999999
    vertex 3095.230372664302 1015.6543605090111 9.524999999999999
  endloop
endfacet
facet normal 0.0 0.0 1.0
  outer loop
    vertex 3095.7373076474723 1018.1356738476871 9.524999999999999
    vertex 3096.764518008107 1016.948378755525 9.524999999999999
    vertex 3095.7906692246484 1018.0823122705114 9.524999999999999
  endloop
endfacet
facet normal 0.0 0.0 1.0
  outer loop
    vertex 3095.7906692246484 1018.0823122705114 9.524999999999999
    vertex 3096.764518008107 1016.948378755525 9.524999999999999
    vertex 3096.4943745734163 1018.6859655625512 9.524999999999999
  endloop
endfacet
facet normal 0.0 0.0 1.0
  outer loop
    vertex 3096.4943745734163 1018.6859655625512 9.524999999999999
    vertex 3096.764518008107 1016.948378755525 9.524999999999999
    vertex 3097.378176145629 1019.109522631146 9.524999999999999
  endloop
endfacet
facet normal 0.0 0.0 1.0
  outer loop
    vertex 3097.378176145629 1019.109522631146 9.524999999999999
    vertex 3096.764518008107 1016.948378755525 9.524999999999999
    vertex 3097.695010193276 1017.3185753141754 9.524999999999999
  endloop
endfacet
facet normal 0.0 0.0 1.0
  outer loop
    vertex 3097.378176145629 1019.109522631146 9.524999999999999
    vertex 3097.695010193276 1017.3185753141754 9.524999999999999
    vertex 3099.312533318253 1019.443032488495 9.524999999999999
  endloop
endfacet
facet normal 0.0 0.0 1.0
  outer loop
    vertex 3099.312533318253 1019.443032488495 9.524999999999999
    vertex 3097.695010193276 1017.3185753141754 9.524999999999999
    vertex 3098.7522367579068 1017.4419733444013 9.524999999999999
  endloop
endfacet
facet normal 0.0 0.0 1.0
  outer loop
    vertex 3099.312533318253 1019.443032488495 9.524999999999999
    vertex 3098.7522367579068 1017.4419733444013 9.524999999999999
    vertex 3100.4998284104154 1017.1218038813464 9.524999999999999
  endloop
endfacet
facet normal 0.0 0.0 1.0
  outer loop
    vertex 3099.312533318253 1019.443032488495 9.524999999999999
    vertex 3100.4998284104154 1017.1218038813464 9.524999999999999
    vertex 3100.5331795629054 1019.3429800315552 9.524999999999999
  endloop
endfacet
facet normal 0.0 0.0 1.0
  outer loop
    vertex 3100.5331795629054 1019.3429800315552 9.524999999999999
    vertex 3100.4998284104154 1017.1218038813464 9.524999999999999
    vertex 3101.847208234105 1016.2279974636514 9.524999999999999
  endloop
endfacet
facet normal 0.0 0.0 1.0
  outer loop
    vertex 3100.5331795629054 1019.3429800315552 9.524999999999999
    vertex 3101.847208234105 1016.2279974636514 9.524999999999999
    vertex 3101.6871235025774 1019.0428206596762 9.524999999999999
  endloop
endfacet
facet normal 0.0 0.0 1.0
  outer loop
    vertex 3101.6871235025774 1019.0428206596762 9.524999999999999
    vertex 3101.847208234105 1016.2279974636514 9.524999999999999
    vertex 3102.734344821514 1018.5392212920195 9.524999999999999
  endloop
endfacet
facet normal 0.0 0.0 1.0
  outer loop
    vertex 3102.734344821514 1018.5392212920195 9.524999999999999
    vertex 3101.847208234105 1016.2279974636514 9.524999999999999
    vertex 3102.7143338632122 1014.8672772456677 9.524999999999999
  endloop
endfacet
facet normal 0.0 0.0 1.0
  outer loop
    vertex 3102.734344821514 1018.5392212920195 9.524999999999999
    vertex 3102.7143338632122 1014.8672772456677 9.524999999999999
    vertex 3103.0211629319733 1013.146366381747 9.524999999999999
  endloop
endfacet
facet normal 0.0 0.0 1.0
  outer loop
    vertex 3102.734344821514 1018.5392212920195 9.524999999999999
    vertex 3103.0211629319733 1013.146366381747 9.524999999999999
    vertex 3103.634821069495 1017.8288447789262 9.524999999999999
  endloop
endfacet
facet normal 0.0 0.0 1.0
  outer loop
    vertex 3095.230372664302 1015.6543605090111 9.524999999999999
    vertex 3095.043607144187 1025.5796138637154 9.524999999999999
    vertex 3093.2826750973845 1015.7610836633627 9.524999999999999
  endloop
endfacet
facet normal 0.0 0.0 1.0
  outer loop
    vertex 3095.043607144187 1025.5796138637154 9.524999999999999
    vertex 3095.230372664302 1015.6543605090111 9.524999999999999
    vertex 3096.751177613813 1023.5785547196218 9.524999999999999
  endloop
endfacet
facet normal 0.0 0.0 1.0
  outer loop
    vertex 3095.043607144187 1025.5796138637154 9.524999999999999
    vertex 3096.751177613813 1023.5785547196218 9.524999999999999
    vertex 3104.381883149957 1025.5796138637154 9.524999999999999
  endloop
endfacet
facet normal 0.0 0.0 1.0
  outer loop
    vertex 3096.751177613813 1023.5785547196218 9.524999999999999
    vertex 3095.230372664302 1015.6543605090111 9.524999999999999
    vertex 3095.7373076474723 1018.1356738476871 9.524999999999999
  endloop
endfacet
facet normal 0.0 0.0 1.0
  outer loop
    vertex 3104.381883149957 1025.5796138637154 9.524999999999999
    vertex 3096.751177613813 1023.5785547196218 9.524999999999999
    vertex 3104.381883149957 1023.5785547196218 9.524999999999999
  endloop
endfacet
facet normal 1.0 0.0 0.0
  outer loop
    vertex 3104.381883149957 1025.5796138637154 6.35
    vertex 3104.381883149957 1023.5785547196218 9.524999999999999
    vertex 3104.381883149957 1023.5785547196218 6.35
  endloop
endfacet
facet normal 1.0 0.0 0.0
  outer loop
    vertex 3104.381883149957 1023.5785547196218 9.524999999999999
    vertex 3104.381883149957 1025.5796138637154 6.35
    vertex 3104.381883149957 1025.5796138637154 9.524999999999999
  endloop
endfacet
facet normal 0.0 -1.0 0.0
  outer loop
    vertex 3104.381883149957 1023.5785547196218 9.524999999999999
    vertex 3096.751177613813 1023.5785547196218 6.35
    vertex 3104.381883149957 1023.5785547196218 6.35
  endloop
endfacet
facet normal 0.0 -1.0 0.0
  outer loop
    vertex 3096.751177613813 1023.5785547196218 6.35
    vertex 3104.381883149957 1023.5785547196218 9.524999999999999
    vertex 3096.751177613813 1023.5785547196218 9.524999999999999
  endloop
endfacet
facet normal 0.9830897197714445 -0.18312455564370045 0.0
  outer loop
    vertex 3096.751177613813 1023.5785547196218 6.35
    vertex 3095.7373076474723 1018.1356738476871 9.524999999999999
    vertex 3095.7373076474723 1018.1356738476871 6.35
  endloop
endfacet
facet normal 0.9830897197714445 -0.18312455564370045 0.0
  outer loop
    vertex 3095.7373076474723 1018.1356738476871 9.524999999999999
    vertex 3096.751177613813 1023.5785547196218 6.35
    vertex 3096.751177613813 1023.5785547196218 9.524999999999999
  endloop
endfacet
facet normal 0.7071067811865313 0.707106781186564 0.0
  outer loop
    vertex 3095.7373076474723 1018.1356738476871 9.524999999999999
    vertex 3095.7906692246484 1018.0823122705114 6.35
    vertex 3095.7373076474723 1018.1356738476871 6.35
  endloop
endfacet
facet normal 0.7071067811865313 0.707106781186564 0.0
  outer loop
    vertex 3095.7906692246484 1018.0823122705114 6.35
    vertex 3095.7373076474723 1018.1356738476871 9.524999999999999
    vertex 3095.7906692246484 1018.0823122705114 9.524999999999999
  endloop
endfacet
facet normal -0.651088081093402 0.759002180931064 0.0
  outer loop
    vertex 3095.7906692246484 1018.0823122705114 9.524999999999999
    vertex 3096.4943745734163 1018.6859655625512 6.35
    vertex 3095.7906692246484 1018.0823122705114 6.35
  endloop
endfacet
facet normal -0.651088081093402 0.759002180931064 0.0
  outer loop
    vertex 3096.4943745734163 1018.6859655625512 6.35
    vertex 3095.7906692246484 1018.0823122705114 9.524999999999999
    vertex 3096.4943745734163 1018.6859655625512 9.524999999999999
  endloop
endfacet
facet normal -0.432177284092557 0.9017886643301642 0.0
  outer loop
    vertex 3096.4943745734163 1018.6859655625512 9.524999999999999
    vertex 3097.378176145629 1019.109522631146 6.35
    vertex 3096.4943745734163 1018.6859655625512 6.35
  endloop
endfacet
facet normal -0.432177284092557 0.9017886643301642 0.0
  outer loop
    vertex 3097.378176145629 1019.109522631146 6.35
    vertex 3096.4943745734163 1018.6859655625512 9.524999999999999
    vertex 3097.378176145629 1019.109522631146 9.524999999999999
  endloop
endfacet
facet normal -0.16990691650764658 0.985460115744348 0.0
  outer loop
    vertex 3097.378176145629 1019.109522631146 9.524999999999999
    vertex 3099.312533318253 1019.443032488495 6.35
    vertex 3097.378176145629 1019.109522631146 6.35
  endloop
endfacet
facet normal -0.16990691650764658 0.985460115744348 0.0
  outer loop
    vertex 3099.312533318253 1019.443032488495 6.35
    vertex 3097.378176145629 1019.109522631146 9.524999999999999
    vertex 3099.312533318253 1019.443032488495 9.524999999999999
  endloop
endfacet
facet normal 0.08169282261932811 0.9966575553982858 0.0
  outer loop
    vertex 3099.312533318253 1019.443032488495 9.524999999999999
    vertex 3100.5331795629054 1019.3429800315552 6.35
    vertex 3099.312533318253 1019.443032488495 6.35
  endloop
endfacet
facet normal 0.08169282261932811 0.9966575553982858 0.0
  outer loop
    vertex 3100.5331795629054 1019.3429800315552 6.35
    vertex 3099.312533318253 1019.443032488495 9.524999999999999
    vertex 3100.5331795629054 1019.3429800315552 9.524999999999999
  endloop
endfacet
facet normal 0.2517390767429171 0.9677951421869319 0.0
  outer loop
    vertex 3100.5331795629054 1019.3429800315552 9.524999999999999
    vertex 3101.6871235025774 1019.0428206596762 6.35
    vertex 3100.5331795629054 1019.3429800315552 6.35
  endloop
endfacet
facet normal 0.2517390767429171 0.9677951421869319 0.0
  outer loop
    vertex 3101.6871235025774 1019.0428206596762 6.35
    vertex 3100.5331795629054 1019.3429800315552 9.524999999999999
    vertex 3101.6871235025774 1019.0428206596762 9.524999999999999
  endloop
endfacet
facet normal 0.4333836115825136 0.9012095456727571 0.0
  outer loop
    vertex 3101.6871235025774 1019.0428206596762 9.524999999999999
    vertex 3102.734344821514 1018.5392212920195 6.35
    vertex 3101.6871235025774 1019.0428206596762 6.35
  endloop
endfacet
facet normal 0.4333836115825136 0.9012095456727571 0.0
  outer loop
    vertex 3102.734344821514 1018.5392212920195 6.35
    vertex 3101.6871235025774 1019.0428206596762 9.524999999999999
    vertex 3102.734344821514 1018.5392212920195 9.524999999999999
  endloop
endfacet
facet normal 0.6193618410764031 0.7851056679316794 0.0
  outer loop
    vertex 3102.734344821514 1018.5392212920195 9.524999999999999
    vertex 3103.634821069495 1017.8288447789262 6.35
    vertex 3102.734344821514 1018.5392212920195 6.35
  endloop
endfacet
facet normal 0.6193618410764031 0.7851056679316794 0.0
  outer loop
    vertex 3103.634821069495 1017.8288447789262 6.35
    vertex 3102.734344821514 1018.5392212920195 9.524999999999999
    vertex 3103.634821069495 1017.8288447789262 9.524999999999999
  endloop
endfacet
facet normal 0.7769803063256778 0.6295249030674289 0.0
  outer loop
    vertex 3103.634821069495 1017.8288447789262 6.35
    vertex 3104.3752133863727 1016.9150282700548 9.524999999999999
    vertex 3104.3752133863727 1016.9150282700548 6.35
  endloop
endfacet
facet normal 0.7769803063256778 0.6295249030674289 0.0
  outer loop
    vertex 3104.3752133863727 1016.9150282700548 9.524999999999999
    vertex 3103.634821069495 1017.8288447789262 6.35
    vertex 3103.634821069495 1017.8288447789262 9.524999999999999
  endloop
endfacet
facet normal 0.891202563818724 0.4536055447665223 0.0
  outer loop
    vertex 3104.3752133863727 1016.9150282700548 6.35
    vertex 3104.942179710303 1015.8011048462446 9.524999999999999
    vertex 3104.942179710303 1015.8011048462446 6.35
  endloop
endfacet
facet normal 0.891202563818724 0.4536055447665223 0.0
  outer loop
    vertex 3104.942179710303 1015.8011048462446 9.524999999999999
    vertex 3104.3752133863727 1016.9150282700548 6.35
    vertex 3104.3752133863727 1016.9150282700548 9.524999999999999
  endloop
endfacet
facet normal 0.9645944215948329 0.263737751996429 0.0
  outer loop
    vertex 3104.942179710303 1015.8011048462446 6.35
    vertex 3105.3023709565578 1014.4837414266567 9.524999999999999
    vertex 3105.3023709565578 1014.4837414266567 6.35
  endloop
endfacet
facet normal 0.9645944215948329 0.263737751996429 0.0
  outer loop
    vertex 3105.3023709565578 1014.4837414266567 9.524999999999999
    vertex 3104.942179710303 1015.8011048462446 6.35
    vertex 3104.942179710303 1015.8011048462446 9.524999999999999
  endloop
endfacet
facet normal 0.9969116787166292 0.0785309164494622 0.0
  outer loop
    vertex 3105.3023709565578 1014.4837414266567 6.35
    vertex 3105.4224339048856 1012.9596008616317 9.524999999999999
    vertex 3105.4224339048856 1012.9596008616317 6.35
  endloop
endfacet
facet normal 0.9969116787166292 0.0785309164494622 0.0
  outer loop
    vertex 3105.4224339048856 1012.9596008616317 9.524999999999999
    vertex 3105.3023709565578 1014.4837414266567 6.35
    vertex 3105.3023709565578 1014.4837414266567 9.524999999999999
  endloop
endfacet
facet normal 0.9962089704409696 -0.0869924549196286 0.0
  outer loop
    vertex 3105.4224339048856 1012.9596008616317 6.35
    vertex 3105.3190463660476 1011.7756407846656 9.524999999999999
    vertex 3105.3190463660476 1011.7756407846656 6.35
  endloop
endfacet
facet normal 0.9962089704409696 -0.0869924549196286 0.0
  outer loop
    vertex 3105.3190463660476 1011.7756407846656 9.524999999999999
    vertex 3105.4224339048856 1012.9596008616317 6.35
    vertex 3105.4224339048856 1012.9596008616317 9.524999999999999
  endloop
endfacet
facet normal 0.9655345334456518 -0.2602749790584716 0.0
  outer loop
    vertex 3105.3190463660476 1011.7756407846656 6.35
    vertex 3105.008881681773 1010.6250318601891 9.524999999999999
    vertex 3105.008881681773 1010.6250318601891 6.35
  endloop
endfacet
facet normal 0.9655345334456518 -0.2602749790584716 0.0
  outer loop
    vertex 3105.008881681773 1010.6250318601891 9.524999999999999
    vertex 3105.3190463660476 1011.7756407846656 6.35
    vertex 3105.3190463660476 1011.7756407846656 9.524999999999999
  endloop
endfacet
facet normal 0.9005139801750789 -0.43482705931121396 0.0
  outer loop
    vertex 3105.008881681773 1010.6250318601891 6.35
    vertex 3104.4919419198222 1009.5544649012646 9.524999999999999
    vertex 3104.4919419198222 1009.5544649012646 6.35
  endloop
endfacet
facet normal 0.9005139801750789 -0.43482705931121396 0.0
  outer loop
    vertex 3104.4919419198222 1009.5544649012646 9.524999999999999
    vertex 3105.008881681773 1010.6250318601891 6.35
    vertex 3105.008881681773 1010.6250318601891 9.524999999999999
  endloop
endfacet
facet normal 0.7935609180772397 -0.6084908128315569 0.0
  outer loop
    vertex 3104.4919419198222 1009.5544649012646 6.35
    vertex 3103.768225012435 1008.6106323218015 9.524999999999999
    vertex 3103.768225012435 1008.6106323218015 6.35
  endloop
endfacet
facet normal 0.7935609180772397 -0.6084908128315569 0.0
  outer loop
    vertex 3103.768225012435 1008.6106323218015 9.524999999999999
    vertex 3104.4919419198222 1009.5544649012646 6.35
    vertex 3104.4919419198222 1009.5544649012646 9.524999999999999
  endloop
endfacet
facet normal 0.6474109286489318 -0.7621411217523483 0.0
  outer loop
    vertex 3103.768225012435 1008.6106323218015 9.524999999999999
    vertex 3102.8377330273715 1007.8202135096462 6.35
    vertex 3103.768225012435 1008.6106323218015 6.35
  endloop
endfacet
facet normal 0.6474109286489318 -0.7621411217523483 0.0
  outer loop
    vertex 3102.8377330273715 1007.8202135096462 6.35
    vertex 3103.768225012435 1008.6106323218015 9.524999999999999
    vertex 3102.8377330273715 1007.8202135096462 9.524999999999999
  endloop
endfacet
facet normal 0.47286620069003893 -0.8811342441676909 0.0
  outer loop
    vertex 3102.8377330273715 1007.8202135096462 9.524999999999999
    vertex 3101.7004638968715 1007.2098909209361 6.35
    vertex 3102.8377330273715 1007.8202135096462 6.35
  endloop
endfacet
facet normal 0.47286620069003893 -0.8811342441676909 0.0
  outer loop
    vertex 3101.7004638968715 1007.2098909209361 6.35
    vertex 3102.8377330273715 1007.8202135096462 9.524999999999999
    vertex 3101.7004638968715 1007.2098909209361 9.524999999999999
  endloop
endfacet
facet normal 0.2788107223242366 -0.960346073619837 0.0
  outer loop
    vertex 3101.7004638968715 1007.2098909209361 9.524999999999999
    vertex 3100.3564196886955 1006.8196837374937 6.35
    vertex 3101.7004638968715 1007.2098909209361 6.35
  endloop
endfacet
facet normal 0.2788107223242366 -0.960346073619837 0.0
  outer loop
    vertex 3100.3564196886955 1006.8196837374937 6.35
    vertex 3101.7004638968715 1007.2098909209361 9.524999999999999
    vertex 3100.3564196886955 1006.8196837374937 9.524999999999999
  endloop
endfacet
facet normal 0.0835770839089446 -0.9965013151247103 0.0
  outer loop
    vertex 3100.3564196886955 1006.8196837374937 9.524999999999999
    vertex 3098.805598335083 1006.6896155434717 6.35
    vertex 3100.3564196886955 1006.8196837374937 6.35
  endloop
endfacet
facet normal 0.0835770839089446 -0.9965013151247103 0.0
  outer loop
    vertex 3098.805598335083 1006.6896155434717 6.35
    vertex 3100.3564196886955 1006.8196837374937 9.524999999999999
    vertex 3098.805598335083 1006.6896155434717 9.524999999999999
  endloop
endfacet
facet normal -0.15420265603988173 -0.9880392405518347 0.0
  outer loop
    vertex 3098.805598335083 1006.6896155434717 9.524999999999999
    vertex 3096.497710122228 1007.0498061894085 6.35
    vertex 3098.805598335083 1006.6896155434717 6.35
  endloop
endfacet
facet normal -0.15420265603988173 -0.9880392405518347 0.0
  outer loop
    vertex 3096.497710122228 1007.0498061894085 6.35
    vertex 3098.805598335083 1006.6896155434717 9.524999999999999
    vertex 3096.497710122228 1007.0498061894085 9.524999999999999
  endloop
endfacet
facet normal -0.3971847731985251 -0.9177386642935104 0.0
  outer loop
    vertex 3096.497710122228 1007.0498061894085 9.524999999999999
    vertex 3095.4805047404793 1007.4900388008973 6.35
    vertex 3096.497710122228 1007.0498061894085 6.35
  endloop
endfacet
facet normal -0.3971847731985251 -0.9177386642935104 0.0
  outer loop
    vertex 3095.4805047404793 1007.4900388008973 6.35
    vertex 3096.497710122228 1007.0498061894085 9.524999999999999
    vertex 3095.4805047404793 1007.4900388008973 9.524999999999999
  endloop
endfacet
facet normal -0.5589931260231499 -0.8291722891286628 0.0
  outer loop
    vertex 3095.4805047404793 1007.4900388008973 9.524999999999999
    vertex 3094.5900337381922 1008.0903569443374 6.35
    vertex 3095.4805047404793 1007.4900388008973 6.35
  endloop
endfacet
facet normal -0.5589931260231499 -0.8291722891286628 0.0
  outer loop
    vertex 3094.5900337381922 1008.0903569443374 6.35
    vertex 3095.4805047404793 1007.4900388008973 9.524999999999999
    vertex 3094.5900337381922 1008.0903569443374 9.524999999999999
  endloop
endfacet
facet normal -0.7179949588615933 -0.6960483022386731 0.0
  outer loop
    vertex 3093.849641421315 1008.854094100779 9.524999999999999
    vertex 3094.5900337381922 1008.0903569443374 6.35
    vertex 3094.5900337381922 1008.0903569443374 9.524999999999999
  endloop
endfacet
facet normal -0.7179949588615933 -0.6960483022386731 0.0
  outer loop
    vertex 3094.5900337381922 1008.0903569443374 6.35
    vertex 3093.849641421315 1008.854094100779 9.524999999999999
    vertex 3093.849641421315 1008.854094100779 6.35
  endloop
endfacet
facet normal -0.8539623276112099 -0.5203348374084177 0.0
  outer loop
    vertex 3093.2826750973845 1009.7845870196699 9.524999999999999
    vertex 3093.849641421315 1008.854094100779 6.35
    vertex 3093.849641421315 1008.854094100779 9.524999999999999
  endloop
endfacet
facet normal -0.8539623276112099 -0.5203348374084177 0.0
  outer loop
    vertex 3093.849641421315 1008.854094100779 6.35
    vertex 3093.2826750973845 1009.7845870196699 9.524999999999999
    vertex 3093.2826750973845 1009.7845870196699 6.35
  endloop
endfacet
facet normal -0.9469149842302366 -0.32148407836197873 0.0
  outer loop
    vertex 3092.915813687334 1010.8651586239706 9.524999999999999
    vertex 3093.2826750973845 1009.7845870196699 6.35
    vertex 3093.2826750973845 1009.7845870196699 9.524999999999999
  endloop
endfacet
facet normal -0.9469149842302366 -0.32148407836197873 0.0
  outer loop
    vertex 3093.2826750973845 1009.7845870196699 6.35
    vertex 3092.915813687334 1010.8651586239706 9.524999999999999
    vertex 3092.915813687334 1010.8651586239706 6.35
  endloop
endfacet
facet normal -0.993408992286618 -0.11462361904985544 0.0
  outer loop
    vertex 3092.775740114214 1012.0791348382305 9.524999999999999
    vertex 3092.915813687334 1010.8651586239706 6.35
    vertex 3092.915813687334 1010.8651586239706 9.524999999999999
  endloop
endfacet
facet normal -0.993408992286618 -0.11462361904985544 0.0
  outer loop
    vertex 3092.915813687334 1010.8651586239706 6.35
    vertex 3092.775740114214 1012.0791348382305 9.524999999999999
    vertex 3092.775740114214 1012.0791348382305 6.35
  endloop
endfacet
facet normal 0.0 1.0 0.0
  outer loop
    vertex 3092.775740114214 1012.0791348382305 9.524999999999999
    vertex 3095.043607144187 1012.0791348382305 6.35
    vertex 3092.775740114214 1012.0791348382305 6.35
  endloop
endfacet
facet normal 0.0 1.0 0.0
  outer loop
    vertex 3095.043607144187 1012.0791348382305 6.35
    vertex 3092.775740114214 1012.0791348382305 9.524999999999999
    vertex 3095.043607144187 1012.0791348382305 9.524999999999999
  endloop
endfacet
facet normal 0.9660759992001446 0.258257940380237 0.0
  outer loop
    vertex 3095.043607144187 1012.0791348382305 6.35
    vertex 3095.4037977901235 1010.7317550145408 9.524999999999999
    vertex 3095.4037977901235 1010.7317550145408 6.35
  endloop
endfacet
facet normal 0.9660759992001446 0.258257940380237 0.0
  outer loop
    vertex 3095.4037977901235 1010.7317550145408 9.524999999999999
    vertex 3095.043607144187 1012.0791348382305 6.35
    vertex 3095.043607144187 1012.0791348382305 9.524999999999999
  endloop
endfacet
facet normal 0.7976593312819871 0.6031082748717459 0.0
  outer loop
    vertex 3095.4037977901235 1010.7317550145408 6.35
    vertex 3096.230902236349 1009.6378426824363 9.524999999999999
    vertex 3096.230902236349 1009.6378426824363 6.35
  endloop
endfacet
facet normal 0.7976593312819871 0.6031082748717459 0.0
  outer loop
    vertex 3096.230902236349 1009.6378426824363 9.524999999999999
    vertex 3095.4037977901235 1010.7317550145408 6.35
    vertex 3095.4037977901235 1010.7317550145408 9.524999999999999
  endloop
endfacet
facet normal 0.5062005687642234 0.8624157838205286 0.0
  outer loop
    vertex 3096.230902236349 1009.6378426824363 9.524999999999999
    vertex 3097.4582185113927 1008.9174613905626 6.35
    vertex 3096.230902236349 1009.6378426824363 6.35
  endloop
endfacet
facet normal 0.5062005687642234 0.8624157838205286 0.0
  outer loop
    vertex 3097.4582185113927 1008.9174613905626 6.35
    vertex 3096.230902236349 1009.6378426824363 9.524999999999999
    vertex 3097.4582185113927 1008.9174613905626 9.524999999999999
  endloop
endfacet
facet normal 0.16029332543164704 0.987069425026459 0.0
  outer loop
    vertex 3097.4582185113927 1008.9174613905626 9.524999999999999
    vertex 3099.019044643786 1008.6639938989774 6.35
    vertex 3097.4582185113927 1008.9174613905626 6.35
  endloop
endfacet
facet normal 0.16029332543164704 0.987069425026459 0.0
  outer loop
    vertex 3099.019044643786 1008.6639938989774 6.35
    vertex 3097.4582185113927 1008.9174613905626 9.524999999999999
    vertex 3099.019044643786 1008.6639938989774 9.524999999999999
  endloop
endfacet
facet normal -0.17963815525319723 0.9837327549579856 0.0
  outer loop
    vertex 3099.019044643786 1008.6639938989774 9.524999999999999
    vertex 3100.553189987591 1008.9441421791505 6.35
    vertex 3099.019044643786 1008.6639938989774 6.35
  endloop
endfacet
facet normal -0.17963815525319723 0.9837327549579856 0.0
  outer loop
    vertex 3100.553189987591 1008.9441421791505 6.35
    vertex 3099.019044643786 1008.6639938989774 9.524999999999999
    vertex 3100.553189987591 1008.9441421791505 9.524999999999999
  endloop
endfacet
facet normal -0.5486564414868225 0.8360479108370626 0.0
  outer loop
    vertex 3100.553189987591 1008.9441421791505 9.524999999999999
    vertex 3101.833867839811 1009.7845870196699 6.35
    vertex 3100.553189987591 1008.9441421791505 6.35
  endloop
endfacet
facet normal -0.5486564414868225 0.8360479108370626 0.0
  outer loop
    vertex 3101.833867839811 1009.7845870196699 6.35
    vertex 3100.553189987591 1008.9441421791505 9.524999999999999
    vertex 3101.833867839811 1009.7845870196699 9.524999999999999
  endloop
endfacet
facet normal -0.8502651466878618 0.5263546146162956 0.0
  outer loop
    vertex 3102.700993468918 1011.1853284205354 9.524999999999999
    vertex 3101.833867839811 1009.7845870196699 6.35
    vertex 3101.833867839811 1009.7845870196699 9.524999999999999
  endloop
endfacet
facet normal -0.8502651466878618 0.5263546146162956 0.0
  outer loop
    vertex 3101.833867839811 1009.7845870196699 6.35
    vertex 3102.700993468918 1011.1853284205354 9.524999999999999
    vertex 3102.700993468918 1011.1853284205354 6.35
  endloop
endfacet
facet normal -0.9869328807756821 0.16113189890215193 0.0
  outer loop
    vertex 3103.0211629319733 1013.146366381747 9.524999999999999
    vertex 3102.700993468918 1011.1853284205354 6.35
    vertex 3102.700993468918 1011.1853284205354 9.524999999999999
  endloop
endfacet
facet normal -0.9869328807756821 0.16113189890215193 0.0
  outer loop
    vertex 3102.700993468918 1011.1853284205354 6.35
    vertex 3103.0211629319733 1013.146366381747 9.524999999999999
    vertex 3103.0211629319733 1013.146366381747 6.35
  endloop
endfacet
facet normal -0.9844747068648391 -0.17552649812318755 0.0
  outer loop
    vertex 3102.7143338632122 1014.8672772456677 9.524999999999999
    vertex 3103.0211629319733 1013.146366381747 6.35
    vertex 3103.0211629319733 1013.146366381747 9.524999999999999
  endloop
endfacet
facet normal -0.9844747068648391 -0.17552649812318755 0.0
  outer loop
    vertex 3103.0211629319733 1013.146366381747 6.35
    vertex 3102.7143338632122 1014.8672772456677 9.524999999999999
    vertex 3102.7143338632122 1014.8672772456677 6.35
  endloop
endfacet
facet normal -0.8433208771591537 -0.5374103628955399 0.0
  outer loop
    vertex 3101.847208234105 1016.2279974636514 9.524999999999999
    vertex 3102.7143338632122 1014.8672772456677 6.35
    vertex 3102.7143338632122 1014.8672772456677 9.524999999999999
  endloop
endfacet
facet normal -0.8433208771591537 -0.5374103628955399 0.0
  outer loop
    vertex 3102.7143338632122 1014.8672772456677 6.35
    vertex 3101.847208234105 1016.2279974636514 9.524999999999999
    vertex 3101.847208234105 1016.2279974636514 6.35
  endloop
endfacet
facet normal -0.5527947436353551 -0.8333174493607596 0.0
  outer loop
    vertex 3101.847208234105 1016.2279974636514 9.524999999999999
    vertex 3100.4998284104154 1017.1218038813464 6.35
    vertex 3101.847208234105 1016.2279974636514 6.35
  endloop
endfacet
facet normal -0.5527947436353551 -0.8333174493607596 0.0
  outer loop
    vertex 3100.4998284104154 1017.1218038813464 6.35
    vertex 3101.847208234105 1016.2279974636514 9.524999999999999
    vertex 3100.4998284104154 1017.1218038813464 9.524999999999999
  endloop
endfacet
facet normal -0.18020679331720713 -0.9836287468564192 0.0
  outer loop
    vertex 3100.4998284104154 1017.1218038813464 9.524999999999999
    vertex 3098.7522367579068 1017.4419733444013 6.35
    vertex 3100.4998284104154 1017.1218038813464 6.35
  endloop
endfacet
facet normal -0.18020679331720713 -0.9836287468564192 0.0
  outer loop
    vertex 3098.7522367579068 1017.4419733444013 6.35
    vertex 3100.4998284104154 1017.1218038813464 9.524999999999999
    vertex 3098.7522367579068 1017.4419733444013 9.524999999999999
  endloop
endfacet
facet normal 0.11593161372780328 -0.9932571977783334 0.0
  outer loop
    vertex 3098.7522367579068 1017.4419733444013 9.524999999999999
    vertex 3097.695010193276 1017.3185753141754 6.35
    vertex 3098.7522367579068 1017.4419733444013 6.35
  endloop
endfacet
facet normal 0.11593161372780328 -0.9932571977783334 0.0
  outer loop
    vertex 3097.695010193276 1017.3185753141754 6.35
    vertex 3098.7522367579068 1017.4419733444013 9.524999999999999
    vertex 3097.695010193276 1017.3185753141754 9.524999999999999
  endloop
endfacet
facet normal 0.3696680894663197 -0.9291638733992629 0.0
  outer loop
    vertex 3097.695010193276 1017.3185753141754 9.524999999999999
    vertex 3096.764518008107 1016.948378755525 6.35
    vertex 3097.695010193276 1017.3185753141754 6.35
  endloop
endfacet
facet normal 0.3696680894663197 -0.9291638733992629 0.0
  outer loop
    vertex 3096.764518008107 1016.948378755525 6.35
    vertex 3097.695010193276 1017.3185753141754 9.524999999999999
    vertex 3096.764518008107 1016.948378755525 9.524999999999999
  endloop
endfacet
facet normal 0.6447495957168103 -0.7643938505920947 0.0
  outer loop
    vertex 3096.764518008107 1016.948378755525 9.524999999999999
    vertex 3095.230372664302 1015.6543605090111 6.35
    vertex 3096.764518008107 1016.948378755525 6.35
  endloop
endfacet
facet normal 0.6447495957168103 -0.7643938505920947 0.0
  outer loop
    vertex 3095.230372664302 1015.6543605090111 6.35
    vertex 3096.764518008107 1016.948378755525 9.524999999999999
    vertex 3095.230372664302 1015.6543605090111 9.524999999999999
  endloop
endfacet
facet normal -0.05471244670214148 -0.9985021523140876 0.0
  outer loop
    vertex 3095.230372664302 1015.6543605090111 9.524999999999999
    vertex 3093.2826750973845 1015.7610836633627 6.35
    vertex 3095.230372664302 1015.6543605090111 6.35
  endloop
endfacet
facet normal -0.05471244670214148 -0.9985021523140876 0.0
  outer loop
    vertex 3093.2826750973845 1015.7610836633627 6.35
    vertex 3095.230372664302 1015.6543605090111 9.524999999999999
    vertex 3093.2826750973845 1015.7610836633627 9.524999999999999
  endloop
endfacet
facet normal -0.984295048983789 0.17653117726339684 0.0
  outer loop
    vertex 3095.043607144187 1025.5796138637154 9.524999999999999
    vertex 3093.2826750973845 1015.7610836633627 6.35
    vertex 3093.2826750973845 1015.7610836633627 9.524999999999999
  endloop
endfacet
facet normal -0.984295048983789 0.17653117726339684 0.0
  outer loop
    vertex 3093.2826750973845 1015.7610836633627 6.35
    vertex 3095.043607144187 1025.5796138637154 9.524999999999999
    vertex 3095.043607144187 1025.5796138637154 6.35
  endloop
endfacet
facet normal 0.0 1.0 0.0
  outer loop
    vertex 3095.043607144187 1025.5796138637154 9.524999999999999
    vertex 3104.381883149957 1025.5796138637154 6.35
    vertex 3095.043607144187 1025.5796138637154 6.35
  endloop
endfacet
facet normal 0.0 1.0 0.0
  outer loop
    vertex 3104.381883149957 1025.5796138637154 6.35
    vertex 3095.043607144187 1025.5796138637154 9.524999999999999
    vertex 3104.381883149957 1025.5796138637154 9.524999999999999
  endloop
endfacet
endsolid box draft 1
