solid box draft 1
facet normal -0.0 -0.0 -1.0
  outer loop
    vertex 3157.8962077220317 1019.8381510039561 6.35
    vertex 3157.7894845676797 1012.9678479425679 6.35
    vertex 3157.562697864683 1016.062819418766 6.35
  endloop
endfacet
facet normal -0.0 -0.0 -1.0
  outer loop
    vertex 3157.7894845676797 1012.9678479425679 6.35
    vertex 3157.8962077220317 1019.8381510039561 6.35
    vertex 3158.1329991371067 1011.4337022652531 6.35
  endloop
endfacet
facet normal -0.0 -0.0 -1.0
  outer loop
    vertex 3158.1329991371067 1011.4337022652531 6.35
    vertex 3157.8962077220317 1019.8381510039561 6.35
    vertex 3158.3464454458103 1021.5623974833902 6.35
  endloop
endfacet
facet normal -0.0 -0.0 -1.0
  outer loop
    vertex 3158.1329991371067 1011.4337022652531 6.35
    vertex 3158.3464454458103 1021.5623974833902 6.35
    vertex 3158.709971773963 1010.0329611978974 6.35
  endloop
endfacet
facet normal -0.0 -0.0 -1.0
  outer loop
    vertex 3158.709971773963 1010.0329611978974 6.35
    vertex 3158.3464454458103 1021.5623974833902 6.35
    vertex 3159.030141237018 1023.0798668173877 6.35
  endloop
endfacet
facet normal -0.0 -0.0 -1.0
  outer loop
    vertex 3158.709971773963 1010.0329611978974 6.35
    vertex 3159.030141237018 1023.0798668173877 6.35
    vertex 3159.5504158807607 1008.8189847168295 6.35
  endloop
endfacet
facet normal -0.0 -0.0 -1.0
  outer loop
    vertex 3159.5504158807607 1008.8189847168295 6.35
    vertex 3159.030141237018 1023.0798668173877 6.35
    vertex 3159.9639681705753 1024.3538751728313 6.35
  endloop
endfacet
facet normal -0.0 -0.0 -1.0
  outer loop
    vertex 3159.5504158807607 1008.8189847168295 6.35
    vertex 3159.9639681705753 1024.3538751728313 6.35
    vertex 3159.8305648946553 1017.0233278079311 6.35
  endloop
endfacet
facet normal -0.0 -0.0 -1.0
  outer loop
    vertex 3159.8305648946553 1017.0233278079311 6.35
    vertex 3159.9639681705753 1024.3538751728313 6.35
    vertex 3160.044011203359 1019.3712372036676 6.35
  endloop
endfacet
facet normal -0.0 -0.0 -1.0
  outer loop
    vertex 3160.044011203359 1019.3712372036676 6.35
    vertex 3159.9639681705753 1024.3538751728313 6.35
    vertex 3161.164604324051 1025.3477338473606 6.35
  endloop
endfacet
facet normal -0.0 -0.0 -1.0
  outer loop
    vertex 3160.044011203359 1019.3712372036676 6.35
    vertex 3161.164604324051 1025.3477338473606 6.35
    vertex 3160.7243713123503 1021.70580620511 6.35
  endloop
endfacet
facet normal -0.0 -0.0 -1.0
  outer loop
    vertex 3160.7243713123503 1021.70580620511 6.35
    vertex 3161.164604324051 1025.3477338473606 6.35
    vertex 3161.314683276269 1022.6929958497767 6.35
  endloop
endfacet
facet normal -0.0 -0.0 -1.0
  outer loop
    vertex 3161.314683276269 1022.6929958497767 6.35
    vertex 3161.164604324051 1025.3477338473606 6.35
    vertex 3162.672068012143 1025.9880738407019 6.35
  endloop
endfacet
facet normal -0.0 -0.0 -1.0
  outer loop
    vertex 3161.314683276269 1022.6929958497767 6.35
    vertex 3162.672068012143 1025.9880738407019 6.35
    vertex 3162.098431924628 1023.4934190405004 6.35
  endloop
endfacet
facet normal -0.0 -0.0 -1.0
  outer loop
    vertex 3162.098431924628 1023.4934190405004 6.35
    vertex 3162.672068012143 1025.9880738407019 6.35
    vertex 3163.118971387745 1024.0237005974861 6.35
  endloop
endfacet
facet normal -0.0 -0.0 -1.0
  outer loop
    vertex 3163.118971387745 1024.0237005974861 6.35
    vertex 3162.672068012143 1025.9880738407019 6.35
    vertex 3164.5263836861286 1026.2015190821737 6.35
  endloop
endfacet
facet normal -0.0 -0.0 -1.0
  outer loop
    vertex 3163.118971387745 1024.0237005974861 6.35
    vertex 3164.5263836861286 1026.2015190821737 6.35
    vertex 3164.4196605317766 1024.20045993808 6.35
  endloop
endfacet
facet normal -0.0 -0.0 -1.0
  outer loop
    vertex 3164.4196605317766 1024.20045993808 6.35
    vertex 3164.5263836861286 1026.2015190821737 6.35
    vertex 3165.6469774738407 1024.0070251879963 6.35
  endloop
endfacet
facet normal -0.0 -0.0 -1.0
  outer loop
    vertex 3165.6469774738407 1024.0070251879963 6.35
    vertex 3164.5263836861286 1026.2015190821737 6.35
    vertex 3166.634167185209 1025.89135646566 6.35
  endloop
endfacet
facet normal -0.0 -0.0 -1.0
  outer loop
    vertex 3165.6469774738407 1024.0070251879963 6.35
    vertex 3166.634167185209 1025.89135646566 6.35
    vertex 3166.6074851959856 1023.4267170690305 6.35
  endloop
endfacet
facet normal -0.0 -0.0 -1.0
  outer loop
    vertex 3166.6074851959856 1023.4267170690305 6.35
    vertex 3166.634167185209 1025.89135646566 6.35
    vertex 3167.2678355473113 1022.5262410878573 6.35
  endloop
endfacet
facet normal -0.0 -0.0 -1.0
  outer loop
    vertex 3167.2678355473113 1022.5262410878573 6.35
    vertex 3166.634167185209 1025.89135646566 6.35
    vertex 3167.5079609603777 1025.5036514503447 6.35
  endloop
endfacet
facet normal -0.0 -0.0 -1.0
  outer loop
    vertex 3167.2678355473113 1022.5262410878573 6.35
    vertex 3167.5079609603777 1025.5036514503447 6.35
    vertex 3167.5946743737386 1021.372296347761 6.35
  endloop
endfacet
facet normal -0.0 -0.0 -1.0
  outer loop
    vertex 3167.5946743737386 1021.372296347761 6.35
    vertex 3167.5079609603777 1025.5036514503447 6.35
    vertex 3168.2616940884363 1024.9608624128357 6.35
  endloop
endfacet
facet normal -0.0 -0.0 -1.0
  outer loop
    vertex 3167.5946743737386 1021.372296347761 6.35
    vertex 3168.2616940884363 1024.9608624128357 6.35
    vertex 3169.862541403711 1021.372296347761 6.35
  endloop
endfacet
facet normal -0.0 -0.0 -1.0
  outer loop
    vertex 3169.862541403711 1021.372296347761 6.35
    vertex 3168.2616940884363 1024.9608624128357 6.35
    vertex 3168.882024274085 1024.2713301386757 6.35
  endloop
endfacet
facet normal -0.0 -0.0 -1.0
  outer loop
    vertex 3169.862541403711 1021.372296347761 6.35
    vertex 3168.882024274085 1024.2713301386757 6.35
    vertex 3169.355607887984 1023.443393945964 6.35
  endloop
endfacet
facet normal -0.0 -0.0 -1.0
  outer loop
    vertex 3160.7810675045107 1018.0972304490712 6.35
    vertex 3160.257457512062 1013.1812942512714 6.35
    vertex 3159.8839264718313 1016.9699662307553 6.35
  endloop
endfacet
facet normal -0.0 -0.0 -1.0
  outer loop
    vertex 3160.257457512062 1013.1812942512714 6.35
    vertex 3160.7810675045107 1018.0972304490712 6.35
    vertex 3160.510925003647 1014.8488435380159 6.35
  endloop
endfacet
facet normal -0.0 -0.0 -1.0
  outer loop
    vertex 3160.510925003647 1014.8488435380159 6.35
    vertex 3160.7810675045107 1018.0972304490712 6.35
    vertex 3161.271327478403 1016.2095637559997 6.35
  endloop
endfacet
facet normal -0.0 -0.0 -1.0
  outer loop
    vertex 3161.271327478403 1016.2095637559997 6.35
    vertex 3160.7810675045107 1018.0972304490712 6.35
    vertex 3161.871645221631 1018.8643022204973 6.35
  endloop
endfacet
facet normal -0.0 -0.0 -1.0
  outer loop
    vertex 3161.271327478403 1016.2095637559997 6.35
    vertex 3161.871645221631 1018.8643022204973 6.35
    vertex 3162.4986437534467 1017.1167105679887 6.35
  endloop
endfacet
facet normal -0.0 -0.0 -1.0
  outer loop
    vertex 3162.4986437534467 1017.1167105679887 6.35
    vertex 3161.871645221631 1018.8643022204973 6.35
    vertex 3163.148987525039 1019.3045359659195 6.35
  endloop
endfacet
facet normal -0.0 -0.0 -1.0
  outer loop
    vertex 3162.4986437534467 1017.1167105679887 6.35
    vertex 3163.148987525039 1019.3045359659195 6.35
    vertex 3164.179533434485 1017.4502204253376 6.35
  endloop
endfacet
facet normal -0.0 -0.0 -1.0
  outer loop
    vertex 3164.179533434485 1017.4502204253376 6.35
    vertex 3163.148987525039 1019.3045359659195 6.35
    vertex 3164.606426051892 1019.4512795694313 6.35
  endloop
endfacet
facet normal -0.0 -0.0 -1.0
  outer loop
    vertex 3164.179533434485 1017.4502204253376 6.35
    vertex 3164.606426051892 1019.4512795694313 6.35
    vertex 3165.080010349486 1017.3635082959897 6.35
  endloop
endfacet
facet normal -0.0 -0.0 -1.0
  outer loop
    vertex 3165.080010349486 1017.3635082959897 6.35
    vertex 3164.606426051892 1019.4512795694313 6.35
    vertex 3165.897109550018 1019.3345517030014 6.35
  endloop
endfacet
facet normal -0.0 -0.0 -1.0
  outer loop
    vertex 3165.080010349486 1017.3635082959897 6.35
    vertex 3165.897109550018 1019.3345517030014 6.35
    vertex 3165.860423115524 1017.1033701736948 6.35
  endloop
endfacet
facet normal -0.0 -0.0 -1.0
  outer loop
    vertex 3165.860423115524 1017.1033701736948 6.35
    vertex 3165.897109550018 1019.3345517030014 6.35
    vertex 3167.06105860198 1016.1828829674117 6.35
  endloop
endfacet
facet normal -0.0 -0.0 -1.0
  outer loop
    vertex 3167.06105860198 1016.1828829674117 6.35
    vertex 3165.897109550018 1019.3345517030014 6.35
    vertex 3167.047718207686 1018.9843657691428 6.35
  endloop
endfacet
facet normal -0.0 -0.0 -1.0
  outer loop
    vertex 3167.06105860198 1016.1828829674117 6.35
    vertex 3167.047718207686 1018.9843657691428 6.35
    vertex 3168.041578016149 1018.4274047576083 6.35
  endloop
endfacet
facet normal -0.0 -0.0 -1.0
  outer loop
    vertex 3167.06105860198 1016.1828829674117 6.35
    vertex 3168.041578016149 1018.4274047576083 6.35
    vertex 3167.7680994995603 1014.8221627494282 6.35
  endloop
endfacet
facet normal -0.0 -0.0 -1.0
  outer loop
    vertex 3167.7680994995603 1014.8221627494282 6.35
    vertex 3168.041578016149 1018.4274047576083 6.35
    vertex 3167.994886202557 1013.1546134626834 6.35
  endloop
endfacet
facet normal -0.0 -0.0 -1.0
  outer loop
    vertex 3159.8305648946553 1017.0233278079311 6.35
    vertex 3160.6843501294684 1007.8451365336884 6.35
    vertex 3159.5504158807607 1008.8189847168295 6.35
  endloop
endfacet
facet normal -0.0 -0.0 -1.0
  outer loop
    vertex 3160.6843501294684 1007.8451365336884 6.35
    vertex 3159.8305648946553 1017.0233278079311 6.35
    vertex 3159.8839264718313 1016.9699662307553 6.35
  endloop
endfacet
facet normal -0.0 -0.0 -1.0
  outer loop
    vertex 3160.6843501294684 1007.8451365336884 6.35
    vertex 3159.8839264718313 1016.9699662307553 6.35
    vertex 3160.257457512062 1013.1812942512714 6.35
  endloop
endfacet
facet normal -0.0 -0.0 -1.0
  outer loop
    vertex 3160.6843501294684 1007.8451365336884 6.35
    vertex 3160.257457512062 1013.1812942512714 6.35
    vertex 3160.5242653979412 1011.5270853588205 6.35
  endloop
endfacet
facet normal -0.0 -0.0 -1.0
  outer loop
    vertex 3160.6843501294684 1007.8451365336884 6.35
    vertex 3160.5242653979412 1011.5270853588205 6.35
    vertex 3161.2846678726964 1010.193045929425 6.35
  endloop
endfacet
facet normal -0.0 -0.0 -1.0
  outer loop
    vertex 3160.6843501294684 1007.8451365336884 6.35
    vertex 3161.2846678726964 1010.193045929425 6.35
    vertex 3162.1718030593647 1007.2047965403469 6.35
  endloop
endfacet
facet normal -0.0 -0.0 -1.0
  outer loop
    vertex 3162.1718030593647 1007.2047965403469 6.35
    vertex 3161.2846678726964 1010.193045929425 6.35
    vertex 3162.511984147741 1009.2992395117298 6.35
  endloop
endfacet
facet normal -0.0 -0.0 -1.0
  outer loop
    vertex 3162.1718030593647 1007.2047965403469 6.35
    vertex 3162.511984147741 1009.2992395117298 6.35
    vertex 3164.072810280134 1006.9913512988751 6.35
  endloop
endfacet
facet normal -0.0 -0.0 -1.0
  outer loop
    vertex 3164.072810280134 1006.9913512988751 6.35
    vertex 3162.511984147741 1009.2992395117298 6.35
    vertex 3164.179533434485 1008.9657296543808 6.35
  endloop
endfacet
facet normal -0.0 -0.0 -1.0
  outer loop
    vertex 3164.072810280134 1006.9913512988751 6.35
    vertex 3164.179533434485 1008.9657296543808 6.35
    vertex 3165.7170145939103 1007.1414299842851 6.35
  endloop
endfacet
facet normal -0.0 -0.0 -1.0
  outer loop
    vertex 3165.7170145939103 1007.1414299842851 6.35
    vertex 3164.179533434485 1008.9657296543808 6.35
    vertex 3165.820401932642 1009.2992395117298 6.35
  endloop
endfacet
facet normal -0.0 -0.0 -1.0
  outer loop
    vertex 3165.7170145939103 1007.1414299842851 6.35
    vertex 3165.820401932642 1009.2992395117298 6.35
    vertex 3167.0743989962743 1007.5916690421033 6.35
  endloop
endfacet
facet normal -0.0 -0.0 -1.0
  outer loop
    vertex 3167.0743989962743 1007.5916690421033 6.35
    vertex 3165.820401932642 1009.2992395117298 6.35
    vertex 3167.0076970248047 1010.2197267180127 6.35
  endloop
endfacet
facet normal -0.0 -0.0 -1.0
  outer loop
    vertex 3167.0743989962743 1007.5916690421033 6.35
    vertex 3167.0076970248047 1010.2197267180127 6.35
    vertex 3167.741418710972 1011.5671065417024 6.35
  endloop
endfacet
facet normal -0.0 -0.0 -1.0
  outer loop
    vertex 3167.0743989962743 1007.5916690421033 6.35
    vertex 3167.741418710972 1011.5671065417024 6.35
    vertex 3168.1683119286963 1008.2720287508832 6.35
  endloop
endfacet
facet normal -0.0 -0.0 -1.0
  outer loop
    vertex 3168.1683119286963 1008.2720287508832 6.35
    vertex 3167.741418710972 1011.5671065417024 6.35
    vertex 3167.994886202557 1013.1546134626834 6.35
  endloop
endfacet
facet normal -0.0 -0.0 -1.0
  outer loop
    vertex 3168.1683119286963 1008.2720287508832 6.35
    vertex 3167.994886202557 1013.1546134626834 6.35
    vertex 3168.041578016149 1018.4274047576083 6.35
  endloop
endfacet
facet normal -0.0 -0.0 -1.0
  outer loop
    vertex 3168.1683119286963 1008.2720287508832 6.35
    vertex 3168.041578016149 1018.4274047576083 6.35
    vertex 3168.862011831665 1017.6903475226289 6.35
  endloop
endfacet
facet normal -0.0 -0.0 -1.0
  outer loop
    vertex 3168.1683119286963 1008.2720287508832 6.35
    vertex 3168.862011831665 1017.6903475226289 6.35
    vertex 3169.022096563192 1009.1124739916144 6.35
  endloop
endfacet
facet normal -0.0 -0.0 -1.0
  outer loop
    vertex 3169.022096563192 1009.1124739916144 6.35
    vertex 3168.862011831665 1017.6903475226289 6.35
    vertex 3169.512356470382 1016.7898712746478 6.35
  endloop
endfacet
facet normal -0.0 -0.0 -1.0
  outer loop
    vertex 3169.022096563192 1009.1124739916144 6.35
    vertex 3169.512356470382 1016.7898712746478 6.35
    vertex 3169.652430710522 1010.0829874263673 6.35
  endloop
endfacet
facet normal -0.0 -0.0 -1.0
  outer loop
    vertex 3169.652430710522 1010.0829874263673 6.35
    vertex 3169.512356470382 1016.7898712746478 6.35
    vertex 3169.995945346651 1015.7426499557112 6.35
  endloop
endfacet
facet normal -0.0 -0.0 -1.0
  outer loop
    vertex 3169.652430710522 1010.0829874263673 6.35
    vertex 3169.995945346651 1015.7426499557112 6.35
    vertex 3170.0759877124146 1011.1535543185898 6.35
  endloop
endfacet
facet normal -0.0 -0.0 -1.0
  outer loop
    vertex 3170.0759877124146 1011.1535543185898 6.35
    vertex 3169.995945346651 1015.7426499557112 6.35
    vertex 3170.2961047185295 1014.5753656884468 6.35
  endloop
endfacet
facet normal -0.0 -0.0 -1.0
  outer loop
    vertex 3170.0759877124146 1011.1535543185898 6.35
    vertex 3170.2961047185295 1014.5753656884468 6.35
    vertex 3170.3961571754694 1013.3146981942109 6.35
  endloop
endfacet
facet normal 0.0 0.0 1.0
  outer loop
    vertex 3160.6843501294684 1007.8451365336884 9.524999999999999
    vertex 3159.8305648946553 1017.0233278079311 9.524999999999999
    vertex 3159.5504158807607 1008.8189847168295 9.524999999999999
  endloop
endfacet
facet normal 0.0 0.0 1.0
  outer loop
    vertex 3159.8305648946553 1017.0233278079311 9.524999999999999
    vertex 3160.6843501294684 1007.8451365336884 9.524999999999999
    vertex 3159.8839264718313 1016.9699662307553 9.524999999999999
  endloop
endfacet
facet normal 0.0 0.0 1.0
  outer loop
    vertex 3159.8839264718313 1016.9699662307553 9.524999999999999
    vertex 3160.6843501294684 1007.8451365336884 9.524999999999999
    vertex 3160.257457512062 1013.1812942512714 9.524999999999999
  endloop
endfacet
facet normal 0.0 0.0 1.0
  outer loop
    vertex 3160.257457512062 1013.1812942512714 9.524999999999999
    vertex 3160.6843501294684 1007.8451365336884 9.524999999999999
    vertex 3160.5242653979412 1011.5270853588205 9.524999999999999
  endloop
endfacet
facet normal 0.0 0.0 1.0
  outer loop
    vertex 3160.5242653979412 1011.5270853588205 9.524999999999999
    vertex 3160.6843501294684 1007.8451365336884 9.524999999999999
    vertex 3161.2846678726964 1010.193045929425 9.524999999999999
  endloop
endfacet
facet normal 0.0 0.0 1.0
  outer loop
    vertex 3161.2846678726964 1010.193045929425 9.524999999999999
    vertex 3160.6843501294684 1007.8451365336884 9.524999999999999
    vertex 3162.1718030593647 1007.2047965403469 9.524999999999999
  endloop
endfacet
facet normal 0.0 0.0 1.0
  outer loop
    vertex 3161.2846678726964 1010.193045929425 9.524999999999999
    vertex 3162.1718030593647 1007.2047965403469 9.524999999999999
    vertex 3162.511984147741 1009.2992395117298 9.524999999999999
  endloop
endfacet
facet normal 0.0 0.0 1.0
  outer loop
    vertex 3162.511984147741 1009.2992395117298 9.524999999999999
    vertex 3162.1718030593647 1007.2047965403469 9.524999999999999
    vertex 3164.072810280134 1006.9913512988751 9.524999999999999
  endloop
endfacet
facet normal 0.0 0.0 1.0
  outer loop
    vertex 3162.511984147741 1009.2992395117298 9.524999999999999
    vertex 3164.072810280134 1006.9913512988751 9.524999999999999
    vertex 3164.179533434485 1008.9657296543808 9.524999999999999
  endloop
endfacet
facet normal 0.0 0.0 1.0
  outer loop
    vertex 3164.179533434485 1008.9657296543808 9.524999999999999
    vertex 3164.072810280134 1006.9913512988751 9.524999999999999
    vertex 3165.7170145939103 1007.1414299842851 9.524999999999999
  endloop
endfacet
facet normal 0.0 0.0 1.0
  outer loop
    vertex 3164.179533434485 1008.9657296543808 9.524999999999999
    vertex 3165.7170145939103 1007.1414299842851 9.524999999999999
    vertex 3165.820401932642 1009.2992395117298 9.524999999999999
  endloop
endfacet
facet normal 0.0 0.0 1.0
  outer loop
    vertex 3165.820401932642 1009.2992395117298 9.524999999999999
    vertex 3165.7170145939103 1007.1414299842851 9.524999999999999
    vertex 3167.0743989962743 1007.5916690421033 9.524999999999999
  endloop
endfacet
facet normal 0.0 0.0 1.0
  outer loop
    vertex 3165.820401932642 1009.2992395117298 9.524999999999999
    vertex 3167.0743989962743 1007.5916690421033 9.524999999999999
    vertex 3167.0076970248047 1010.2197267180127 9.524999999999999
  endloop
endfacet
facet normal 0.0 0.0 1.0
  outer loop
    vertex 3167.0076970248047 1010.2197267180127 9.524999999999999
    vertex 3167.0743989962743 1007.5916690421033 9.524999999999999
    vertex 3167.741418710972 1011.5671065417024 9.524999999999999
  endloop
endfacet
facet normal 0.0 0.0 1.0
  outer loop
    vertex 3167.741418710972 1011.5671065417024 9.524999999999999
    vertex 3167.0743989962743 1007.5916690421033 9.524999999999999
    vertex 3168.1683119286963 1008.2720287508832 9.524999999999999
  endloop
endfacet
facet normal 0.0 0.0 1.0
  outer loop
    vertex 3167.741418710972 1011.5671065417024 9.524999999999999
    vertex 3168.1683119286963 1008.2720287508832 9.524999999999999
    vertex 3167.994886202557 1013.1546134626834 9.524999999999999
  endloop
endfacet
facet normal 0.0 0.0 1.0
  outer loop
    vertex 3167.994886202557 1013.1546134626834 9.524999999999999
    vertex 3168.1683119286963 1008.2720287508832 9.524999999999999
    vertex 3168.041578016149 1018.4274047576083 9.524999999999999
  endloop
endfacet
facet normal 0.0 0.0 1.0
  outer loop
    vertex 3168.041578016149 1018.4274047576083 9.524999999999999
    vertex 3168.1683119286963 1008.2720287508832 9.524999999999999
    vertex 3168.862011831665 1017.6903475226289 9.524999999999999
  endloop
endfacet
facet normal 0.0 0.0 1.0
  outer loop
    vertex 3168.862011831665 1017.6903475226289 9.524999999999999
    vertex 3168.1683119286963 1008.2720287508832 9.524999999999999
    vertex 3169.022096563192 1009.1124739916144 9.524999999999999
  endloop
endfacet
facet normal 0.0 0.0 1.0
  outer loop
    vertex 3168.862011831665 1017.6903475226289 9.524999999999999
    vertex 3169.022096563192 1009.1124739916144 9.524999999999999
    vertex 3169.512356470382 1016.7898712746478 9.524999999999999
  endloop
endfacet
facet normal 0.0 0.0 1.0
  outer loop
    vertex 3169.512356470382 1016.7898712746478 9.524999999999999
    vertex 3169.022096563192 1009.1124739916144 9.524999999999999
    vertex 3169.652430710522 1010.0829874263673 9.524999999999999
  endloop
endfacet
facet normal 0.0 0.0 1.0
  outer loop
    vertex 3169.512356470382 1016.7898712746478 9.524999999999999
    vertex 3169.652430710522 1010.0829874263673 9.524999999999999
    vertex 3169.995945346651 1015.7426499557112 9.524999999999999
  endloop
endfacet
facet normal 0.0 0.0 1.0
  outer loop
    vertex 3169.995945346651 1015.7426499557112 9.524999999999999
    vertex 3169.652430710522 1010.0829874263673 9.524999999999999
    vertex 3170.0759877124146 1011.1535543185898 9.524999999999999
  endloop
endfacet
facet normal 0.0 0.0 1.0
  outer loop
    vertex 3169.995945346651 1015.7426499557112 9.524999999999999
    vertex 3170.0759877124146 1011.1535543185898 9.524999999999999
    vertex 3170.2961047185295 1014.5753656884468 9.524999999999999
  endloop
endfacet
facet normal 0.0 0.0 1.0
  outer loop
    vertex 3170.2961047185295 1014.5753656884468 9.524999999999999
    vertex 3170.0759877124146 1011.1535543185898 9.524999999999999
    vertex 3170.3961571754694 1013.3146981942109 9.524999999999999
  endloop
endfacet
facet normal 0.0 0.0 1.0
  outer loop
    vertex 3160.257457512062 1013.1812942512714 9.524999999999999
    vertex 3160.7810675045107 1018.0972304490712 9.524999999999999
    vertex 3159.8839264718313 1016.9699662307553 9.524999999999999
  endloop
endfacet
facet normal 0.0 0.0 1.0
  outer loop
    vertex 3160.7810675045107 1018.0972304490712 9.524999999999999
    vertex 3160.257457512062 1013.1812942512714 9.524999999999999
    vertex 3160.510925003647 1014.8488435380159 9.524999999999999
  endloop
endfacet
facet normal 0.0 0.0 1.0
  outer loop
    vertex 3160.7810675045107 1018.0972304490712 9.524999999999999
    vertex 3160.510925003647 1014.8488435380159 9.524999999999999
    vertex 3161.271327478403 1016.2095637559997 9.524999999999999
  endloop
endfacet
facet normal 0.0 0.0 1.0
  outer loop
    vertex 3160.7810675045107 1018.0972304490712 9.524999999999999
    vertex 3161.271327478403 1016.2095637559997 9.524999999999999
    vertex 3161.871645221631 1018.8643022204973 9.524999999999999
  endloop
endfacet
facet normal 0.0 0.0 1.0
  outer loop
    vertex 3161.871645221631 1018.8643022204973 9.524999999999999
    vertex 3161.271327478403 1016.2095637559997 9.524999999999999
    vertex 3162.4986437534467 1017.1167105679887 9.524999999999999
  endloop
endfacet
facet normal 0.0 0.0 1.0
  outer loop
    vertex 3161.871645221631 1018.8643022204973 9.524999999999999
    vertex 3162.4986437534467 1017.1167105679887 9.524999999999999
    vertex 3163.148987525039 1019.3045359659195 9.524999999999999
  endloop
endfacet
facet normal 0.0 0.0 1.0
  outer loop
    vertex 3163.148987525039 1019.3045359659195 9.524999999999999
    vertex 3162.4986437534467 1017.1167105679887 9.524999999999999
    vertex 3164.179533434485 1017.4502204253376 9.524999999999999
  endloop
endfacet
facet normal 0.0 0.0 1.0
  outer loop
    vertex 3163.148987525039 1019.3045359659195 9.524999999999999
    vertex 3164.179533434485 1017.4502204253376 9.524999999999999
    vertex 3164.606426051892 1019.4512795694313 9.524999999999999
  endloop
endfacet
facet normal 0.0 0.0 1.0
  outer loop
    vertex 3164.606426051892 1019.4512795694313 9.524999999999999
    vertex 3164.179533434485 1017.4502204253376 9.524999999999999
    vertex 3165.080010349486 1017.3635082959897 9.524999999999999
  endloop
endfacet
facet normal 0.0 0.0 1.0
  outer loop
    vertex 3164.606426051892 1019.4512795694313 9.524999999999999
    vertex 3165.080010349486 1017.3635082959897 9.524999999999999
    vertex 3165.897109550018 1019.3345517030014 9.524999999999999
  endloop
endfacet
facet normal 0.0 0.0 1.0
  outer loop
    vertex 3165.897109550018 1019.3345517030014 9.524999999999999
    vertex 3165.080010349486 1017.3635082959897 9.524999999999999
    vertex 3165.860423115524 1017.1033701736948 9.524999999999999
  endloop
endfacet
facet normal 0.0 0.0 1.0
  outer loop
    vertex 3165.897109550018 1019.3345517030014 9.524999999999999
    vertex 3165.860423115524 1017.1033701736948 9.524999999999999
    vertex 3167.06105860198 1016.1828829674117 9.524999999999999
  endloop
endfacet
facet normal 0.0 0.0 1.0
  outer loop
    vertex 3165.897109550018 1019.3345517030014 9.524999999999999
    vertex 3167.06105860198 1016.1828829674117 9.524999999999999
    vertex 3167.047718207686 1018.9843657691428 9.524999999999999
  endloop
endfacet
facet normal 0.0 0.0 1.0
  outer loop
    vertex 3167.047718207686 1018.9843657691428 9.524999999999999
    vertex 3167.06105860198 1016.1828829674117 9.524999999999999
    vertex 3168.041578016149 1018.4274047576083 9.524999999999999
  endloop
endfacet
facet normal 0.0 0.0 1.0
  outer loop
    vertex 3168.041578016149 1018.4274047576083 9.524999999999999
    vertex 3167.06105860198 1016.1828829674117 9.524999999999999
    vertex 3167.7680994995603 1014.8221627494282 9.524999999999999
  endloop
endfacet
facet normal 0.0 0.0 1.0
  outer loop
    vertex 3168.041578016149 1018.4274047576083 9.524999999999999
    vertex 3167.7680994995603 1014.8221627494282 9.524999999999999
    vertex 3167.994886202557 1013.1546134626834 9.524999999999999
  endloop
endfacet
facet normal 0.0 0.0 1.0
  outer loop
    vertex 3157.7894845676797 1012.9678479425679 9.524999999999999
    vertex 3157.8962077220317 1019.8381510039561 9.524999999999999
    vertex 3157.562697864683 1016.062819418766 9.524999999999999
  endloop
endfacet
facet normal 0.0 0.0 1.0
  outer loop
    vertex 3157.8962077220317 1019.8381510039561 9.524999999999999
    vertex 3157.7894845676797 1012.9678479425679 9.524999999999999
    vertex 3158.1329991371067 1011.4337022652531 9.524999999999999
  endloop
endfacet
facet normal 0.0 0.0 1.0
  outer loop
    vertex 3157.8962077220317 1019.8381510039561 9.524999999999999
    vertex 3158.1329991371067 1011.4337022652531 9.524999999999999
    vertex 3158.3464454458103 1021.5623974833902 9.524999999999999
  endloop
endfacet
facet normal 0.0 0.0 1.0
  outer loop
    vertex 3158.3464454458103 1021.5623974833902 9.524999999999999
    vertex 3158.1329991371067 1011.4337022652531 9.524999999999999
    vertex 3158.709971773963 1010.0329611978974 9.524999999999999
  endloop
endfacet
facet normal 0.0 0.0 1.0
  outer loop
    vertex 3158.3464454458103 1021.5623974833902 9.524999999999999
    vertex 3158.709971773963 1010.0329611978974 9.524999999999999
    vertex 3159.030141237018 1023.0798668173877 9.524999999999999
  endloop
endfacet
facet normal 0.0 0.0 1.0
  outer loop
    vertex 3159.030141237018 1023.0798668173877 9.524999999999999
    vertex 3158.709971773963 1010.0329611978974 9.524999999999999
    vertex 3159.5504158807607 1008.8189847168295 9.524999999999999
  endloop
endfacet
facet normal 0.0 0.0 1.0
  outer loop
    vertex 3159.030141237018 1023.0798668173877 9.524999999999999
    vertex 3159.5504158807607 1008.8189847168295 9.524999999999999
    vertex 3159.9639681705753 1024.3538751728313 9.524999999999999
  endloop
endfacet
facet normal 0.0 0.0 1.0
  outer loop
    vertex 3159.9639681705753 1024.3538751728313 9.524999999999999
    vertex 3159.5504158807607 1008.8189847168295 9.524999999999999
    vertex 3159.8305648946553 1017.0233278079311 9.524999999999999
  endloop
endfacet
facet normal 0.0 0.0 1.0
  outer loop
    vertex 3159.9639681705753 1024.3538751728313 9.524999999999999
    vertex 3159.8305648946553 1017.0233278079311 9.524999999999999
    vertex 3160.044011203359 1019.3712372036676 9.524999999999999
  endloop
endfacet
facet normal 0.0 0.0 1.0
  outer loop
    vertex 3159.9639681705753 1024.3538751728313 9.524999999999999
    vertex 3160.044011203359 1019.3712372036676 9.524999999999999
    vertex 3161.164604324051 1025.3477338473606 9.524999999999999
  endloop
endfacet
facet normal 0.0 0.0 1.0
  outer loop
    vertex 3161.164604324051 1025.3477338473606 9.524999999999999
    vertex 3160.044011203359 1019.3712372036676 9.524999999999999
    vertex 3160.7243713123503 1021.70580620511 9.524999999999999
  endloop
endfacet
facet normal 0.0 0.0 1.0
  outer loop
    vertex 3161.164604324051 1025.3477338473606 9.524999999999999
    vertex 3160.7243713123503 1021.70580620511 9.524999999999999
    vertex 3161.314683276269 1022.6929958497767 9.524999999999999
  endloop
endfacet
facet normal 0.0 0.0 1.0
  outer loop
    vertex 3161.164604324051 1025.3477338473606 9.524999999999999
    vertex 3161.314683276269 1022.6929958497767 9.524999999999999
    vertex 3162.672068012143 1025.9880738407019 9.524999999999999
  endloop
endfacet
facet normal 0.0 0.0 1.0
  outer loop
    vertex 3162.672068012143 1025.9880738407019 9.524999999999999
    vertex 3161.314683276269 1022.6929958497767 9.524999999999999
    vertex 3162.098431924628 1023.4934190405004 9.524999999999999
  endloop
endfacet
facet normal 0.0 0.0 1.0
  outer loop
    vertex 3162.672068012143 1025.9880738407019 9.524999999999999
    vertex 3162.098431924628 1023.4934190405004 9.524999999999999
    vertex 3163.118971387745 1024.0237005974861 9.524999999999999
  endloop
endfacet
facet normal 0.0 0.0 1.0
  outer loop
    vertex 3162.672068012143 1025.9880738407019 9.524999999999999
    vertex 3163.118971387745 1024.0237005974861 9.524999999999999
    vertex 3164.5263836861286 1026.2015190821737 9.524999999999999
  endloop
endfacet
facet normal 0.0 0.0 1.0
  outer loop
    vertex 3164.5263836861286 1026.2015190821737 9.524999999999999
    vertex 3163.118971387745 1024.0237005974861 9.524999999999999
    vertex 3164.4196605317766 1024.20045993808 9.524999999999999
  endloop
endfacet
facet normal 0.0 0.0 1.0
  outer loop
    vertex 3164.5263836861286 1026.2015190821737 9.524999999999999
    vertex 3164.4196605317766 1024.20045993808 9.524999999999999
    vertex 3165.6469774738407 1024.0070251879963 9.524999999999999
  endloop
endfacet
facet normal 0.0 0.0 1.0
  outer loop
    vertex 3164.5263836861286 1026.2015190821737 9.524999999999999
    vertex 3165.6469774738407 1024.0070251879963 9.524999999999999
    vertex 3166.634167185209 1025.89135646566 9.524999999999999
  endloop
endfacet
facet normal 0.0 0.0 1.0
  outer loop
    vertex 3166.634167185209 1025.89135646566 9.524999999999999
    vertex 3165.6469774738407 1024.0070251879963 9.524999999999999
    vertex 3166.6074851959856 1023.4267170690305 9.524999999999999
  endloop
endfacet
facet normal 0.0 0.0 1.0
  outer loop
    vertex 3166.634167185209 1025.89135646566 9.524999999999999
    vertex 3166.6074851959856 1023.4267170690305 9.524999999999999
    vertex 3167.2678355473113 1022.5262410878573 9.524999999999999
  endloop
endfacet
facet normal 0.0 0.0 1.0
  outer loop
    vertex 3166.634167185209 1025.89135646566 9.524999999999999
    vertex 3167.2678355473113 1022.5262410878573 9.524999999999999
    vertex 3167.5079609603777 1025.5036514503447 9.524999999999999
  endloop
endfacet
facet normal 0.0 0.0 1.0
  outer loop
    vertex 3167.5079609603777 1025.5036514503447 9.524999999999999
    vertex 3167.2678355473113 1022.5262410878573 9.524999999999999
    vertex 3167.5946743737386 1021.372296347761 9.524999999999999
  endloop
endfacet
facet normal 0.0 0.0 1.0
  outer loop
    vertex 3167.5079609603777 1025.5036514503447 9.524999999999999
    vertex 3167.5946743737386 1021.372296347761 9.524999999999999
    vertex 3168.2616940884363 1024.9608624128357 9.524999999999999
  endloop
endfacet
facet normal 0.0 0.0 1.0
  outer loop
    vertex 3168.2616940884363 1024.9608624128357 9.524999999999999
    vertex 3167.5946743737386 1021.372296347761 9.524999999999999
    vertex 3169.862541403711 1021.372296347761 9.524999999999999
  endloop
endfacet
facet normal 0.0 0.0 1.0
  outer loop
    vertex 3168.2616940884363 1024.9608624128357 9.524999999999999
    vertex 3169.862541403711 1021.372296347761 9.524999999999999
    vertex 3168.882024274085 1024.2713301386757 9.524999999999999
  endloop
endfacet
facet normal 0.0 0.0 1.0
  outer loop
    vertex 3168.882024274085 1024.2713301386757 9.524999999999999
    vertex 3169.862541403711 1021.372296347761 9.524999999999999
    vertex 3169.355607887984 1023.443393945964 9.524999999999999
  endloop
endfacet
facet normal 0.0 -1.0 0.0
  outer loop
    vertex 3169.862541403711 1021.372296347761 9.524999999999999
    vertex 3167.5946743737386 1021.372296347761 6.35
    vertex 3169.862541403711 1021.372296347761 6.35
  endloop
endfacet
facet normal 0.0 -1.0 0.0
  outer loop
    vertex 3167.5946743737386 1021.372296347761 6.35
    vertex 3169.862541403711 1021.372296347761 9.524999999999999
    vertex 3167.5946743737386 1021.372296347761 9.524999999999999
  endloop
endfacet
facet normal -0.9621512553056767 -0.2725159846939452 0.0
  outer loop
    vertex 3167.2678355473113 1022.5262410878573 9.524999999999999
    vertex 3167.5946743737386 1021.372296347761 6.35
    vertex 3167.5946743737386 1021.372296347761 9.524999999999999
  endloop
endfacet
facet normal -0.9621512553056767 -0.2725159846939452 0.0
  outer loop
    vertex 3167.5946743737386 1021.372296347761 6.35
    vertex 3167.2678355473113 1022.5262410878573 9.524999999999999
    vertex 3167.2678355473113 1022.5262410878573 6.35
  endloop
endfacet
facet normal -0.8064044413332155 -0.5913644197938058 0.0
  outer loop
    vertex 3166.6074851959856 1023.4267170690305 9.524999999999999
    vertex 3167.2678355473113 1022.5262410878573 6.35
    vertex 3167.2678355473113 1022.5262410878573 9.524999999999999
  endloop
endfacet
facet normal -0.8064044413332155 -0.5913644197938058 0.0
  outer loop
    vertex 3167.2678355473113 1022.5262410878573 6.35
    vertex 3166.6074851959856 1023.4267170690305 9.524999999999999
    vertex 3166.6074851959856 1023.4267170690305 6.35
  endloop
endfacet
facet normal -0.5171165343956522 -0.8559150015361515 0.0
  outer loop
    vertex 3166.6074851959856 1023.4267170690305 9.524999999999999
    vertex 3165.6469774738407 1024.0070251879963 6.35
    vertex 3166.6074851959856 1023.4267170690305 6.35
  endloop
endfacet
facet normal -0.5171165343956522 -0.8559150015361515 0.0
  outer loop
    vertex 3165.6469774738407 1024.0070251879963 6.35
    vertex 3166.6074851959856 1023.4267170690305 9.524999999999999
    vertex 3165.6469774738407 1024.0070251879963 9.524999999999999
  endloop
endfacet
facet normal -0.15568604485602316 -0.9878065880713128 0.0
  outer loop
    vertex 3165.6469774738407 1024.0070251879963 9.524999999999999
    vertex 3164.4196605317766 1024.20045993808 6.35
    vertex 3165.6469774738407 1024.0070251879963 6.35
  endloop
endfacet
facet normal -0.15568604485602316 -0.9878065880713128 0.0
  outer loop
    vertex 3164.4196605317766 1024.20045993808 6.35
    vertex 3165.6469774738407 1024.0070251879963 9.524999999999999
    vertex 3164.4196605317766 1024.20045993808 9.524999999999999
  endloop
endfacet
facet normal 0.13465893726934466 -0.9908920075434511 0.0
  outer loop
    vertex 3164.4196605317766 1024.20045993808 9.524999999999999
    vertex 3163.118971387745 1024.0237005974861 6.35
    vertex 3164.4196605317766 1024.20045993808 6.35
  endloop
endfacet
facet normal 0.13465893726934466 -0.9908920075434511 0.0
  outer loop
    vertex 3163.118971387745 1024.0237005974861 6.35
    vertex 3164.4196605317766 1024.20045993808 9.524999999999999
    vertex 3163.118971387745 1024.0237005974861 9.524999999999999
  endloop
endfacet
facet normal 0.46107965202919077 -0.8873587518499159 0.0
  outer loop
    vertex 3163.118971387745 1024.0237005974861 9.524999999999999
    vertex 3162.098431924628 1023.4934190405004 6.35
    vertex 3163.118971387745 1024.0237005974861 6.35
  endloop
endfacet
facet normal 0.46107965202919077 -0.8873587518499159 0.0
  outer loop
    vertex 3162.098431924628 1023.4934190405004 6.35
    vertex 3163.118971387745 1024.0237005974861 9.524999999999999
    vertex 3162.098431924628 1023.4934190405004 9.524999999999999
  endloop
endfacet
facet normal 0.7145100066874872 -0.6996252213460055 0.0
  outer loop
    vertex 3162.098431924628 1023.4934190405004 6.35
    vertex 3161.314683276269 1022.6929958497767 9.524999999999999
    vertex 3161.314683276269 1022.6929958497767 6.35
  endloop
endfacet
facet normal 0.7145100066874872 -0.6996252213460055 0.0
  outer loop
    vertex 3161.314683276269 1022.6929958497767 9.524999999999999
    vertex 3162.098431924628 1023.4934190405004 6.35
    vertex 3162.098431924628 1023.4934190405004 9.524999999999999
  endloop
endfacet
facet normal 0.858259785073112 -0.513215492094944 0.0
  outer loop
    vertex 3161.314683276269 1022.6929958497767 6.35
    vertex 3160.7243713123503 1021.70580620511 9.524999999999999
    vertex 3160.7243713123503 1021.70580620511 6.35
  endloop
endfacet
facet normal 0.858259785073112 -0.513215492094944 0.0
  outer loop
    vertex 3160.7243713123503 1021.70580620511 9.524999999999999
    vertex 3161.314683276269 1022.6929958497767 6.35
    vertex 3161.314683276269 1022.6929958497767 9.524999999999999
  endloop
endfacet
facet normal 0.9600614208165036 -0.2797893283522382 0.0
  outer loop
    vertex 3160.7243713123503 1021.70580620511 6.35
    vertex 3160.044011203359 1019.3712372036676 9.524999999999999
    vertex 3160.044011203359 1019.3712372036676 6.35
  endloop
endfacet
facet normal 0.9600614208165036 -0.2797893283522382 0.0
  outer loop
    vertex 3160.044011203359 1019.3712372036676 9.524999999999999
    vertex 3160.7243713123503 1021.70580620511 6.35
    vertex 3160.7243713123503 1021.70580620511 9.524999999999999
  endloop
endfacet
facet normal 0.995893206467704 -0.09053574604251859 0.0
  outer loop
    vertex 3160.044011203359 1019.3712372036676 6.35
    vertex 3159.8305648946553 1017.0233278079311 9.524999999999999
    vertex 3159.8305648946553 1017.0233278079311 6.35
  endloop
endfacet
facet normal 0.995893206467704 -0.09053574604251859 0.0
  outer loop
    vertex 3159.8305648946553 1017.0233278079311 9.524999999999999
    vertex 3160.044011203359 1019.3712372036676 6.35
    vertex 3160.044011203359 1019.3712372036676 9.524999999999999
  endloop
endfacet
facet normal 0.7071067811865499 0.7071067811865452 0.0
  outer loop
    vertex 3159.8305648946553 1017.0233278079311 6.35
    vertex 3159.8839264718313 1016.9699662307553 9.524999999999999
    vertex 3159.8839264718313 1016.9699662307553 6.35
  endloop
endfacet
facet normal 0.7071067811865499 0.7071067811865452 0.0
  outer loop
    vertex 3159.8839264718313 1016.9699662307553 9.524999999999999
    vertex 3159.8305648946553 1017.0233278079311 6.35
    vertex 3159.8305648946553 1017.0233278079311 9.524999999999999
  endloop
endfacet
facet normal -0.782447644423603 0.622716375034377 0.0
  outer loop
    vertex 3160.7810675045107 1018.0972304490712 9.524999999999999
    vertex 3159.8839264718313 1016.9699662307553 6.35
    vertex 3159.8839264718313 1016.9699662307553 9.524999999999999
  endloop
endfacet
facet normal -0.782447644423603 0.622716375034377 0.0
  outer loop
    vertex 3159.8839264718313 1016.9699662307553 6.35
    vertex 3160.7810675045107 1018.0972304490712 9.524999999999999
    vertex 3160.7810675045107 1018.0972304490712 6.35
  endloop
endfacet
facet normal -0.5753068896348809 0.8179376398837743 0.0
  outer loop
    vertex 3160.7810675045107 1018.0972304490712 9.524999999999999
    vertex 3161.871645221631 1018.8643022204973 6.35
    vertex 3160.7810675045107 1018.0972304490712 6.35
  endloop
endfacet
facet normal -0.5753068896348809 0.8179376398837743 0.0
  outer loop
    vertex 3161.871645221631 1018.8643022204973 6.35
    vertex 3160.7810675045107 1018.0972304490712 9.524999999999999
    vertex 3161.871645221631 1018.8643022204973 9.524999999999999
  endloop
endfacet
facet normal -0.32583911894136025 0.9454252316114258 0.0
  outer loop
    vertex 3161.871645221631 1018.8643022204973 9.524999999999999
    vertex 3163.148987525039 1019.3045359659195 6.35
    vertex 3161.871645221631 1018.8643022204973 6.35
  endloop
endfacet
facet normal -0.32583911894136025 0.9454252316114258 0.0
  outer loop
    vertex 3163.148987525039 1019.3045359659195 6.35
    vertex 3161.871645221631 1018.8643022204973 9.524999999999999
    vertex 3163.148987525039 1019.3045359659195 9.524999999999999
  endloop
endfacet
facet normal -0.1001794520121351 0.9949693851544118 0.0
  outer loop
    vertex 3163.148987525039 1019.3045359659195 9.524999999999999
    vertex 3164.606426051892 1019.4512795694313 6.35
    vertex 3163.148987525039 1019.3045359659195 6.35
  endloop
endfacet
facet normal -0.1001794520121351 0.9949693851544118 0.0
  outer loop
    vertex 3164.606426051892 1019.4512795694313 6.35
    vertex 3163.148987525039 1019.3045359659195 9.524999999999999
    vertex 3164.606426051892 1019.4512795694313 9.524999999999999
  endloop
endfacet
facet normal 0.09007119579140209 0.9959353290694667 0.0
  outer loop
    vertex 3164.606426051892 1019.4512795694313 9.524999999999999
    vertex 3165.897109550018 1019.3345517030014 6.35
    vertex 3164.606426051892 1019.4512795694313 6.35
  endloop
endfacet
facet normal 0.09007119579140209 0.9959353290694667 0.0
  outer loop
    vertex 3165.897109550018 1019.3345517030014 6.35
    vertex 3164.606426051892 1019.4512795694313 9.524999999999999
    vertex 3165.897109550018 1019.3345517030014 9.524999999999999
  endloop
endfacet
facet normal 0.291162141015445 0.9566737205752556 0.0
  outer loop
    vertex 3165.897109550018 1019.3345517030014 9.524999999999999
    vertex 3167.047718207686 1018.9843657691428 6.35
    vertex 3165.897109550018 1019.3345517030014 6.35
  endloop
endfacet
facet normal 0.291162141015445 0.9566737205752556 0.0
  outer loop
    vertex 3167.047718207686 1018.9843657691428 6.35
    vertex 3165.897109550018 1019.3345517030014 9.524999999999999
    vertex 3167.047718207686 1018.9843657691428 9.524999999999999
  endloop
endfacet
facet normal 0.4888703040603024 0.8723564786301455 0.0
  outer loop
    vertex 3167.047718207686 1018.9843657691428 9.524999999999999
    vertex 3168.041578016149 1018.4274047576083 6.35
    vertex 3167.047718207686 1018.9843657691428 6.35
  endloop
endfacet
facet normal 0.4888703040603024 0.8723564786301455 0.0
  outer loop
    vertex 3168.041578016149 1018.4274047576083 6.35
    vertex 3167.047718207686 1018.9843657691428 9.524999999999999
    vertex 3168.041578016149 1018.4274047576083 9.524999999999999
  endloop
endfacet
facet normal 0.668296603115193 0.7438949188324211 0.0
  outer loop
    vertex 3168.041578016149 1018.4274047576083 9.524999999999999
    vertex 3168.862011831665 1017.6903475226289 6.35
    vertex 3168.041578016149 1018.4274047576083 6.35
  endloop
endfacet
facet normal 0.668296603115193 0.7438949188324211 0.0
  outer loop
    vertex 3168.862011831665 1017.6903475226289 6.35
    vertex 3168.041578016149 1018.4274047576083 9.524999999999999
    vertex 3168.862011831665 1017.6903475226289 9.524999999999999
  endloop
endfacet
facet normal 0.8106789370400336 0.5854909572654744 0.0
  outer loop
    vertex 3168.862011831665 1017.6903475226289 6.35
    vertex 3169.512356470382 1016.7898712746478 9.524999999999999
    vertex 3169.512356470382 1016.7898712746478 6.35
  endloop
endfacet
facet normal 0.8106789370400336 0.5854909572654744 0.0
  outer loop
    vertex 3169.512356470382 1016.7898712746478 9.524999999999999
    vertex 3168.862011831665 1017.6903475226289 6.35
    vertex 3168.862011831665 1017.6903475226289 9.524999999999999
  endloop
endfacet
facet normal 0.9078749354250983 0.41924110202468645 0.0
  outer loop
    vertex 3169.512356470382 1016.7898712746478 6.35
    vertex 3169.995945346651 1015.7426499557112 9.524999999999999
    vertex 3169.995945346651 1015.7426499557112 6.35
  endloop
endfacet
facet normal 0.9078749354250983 0.41924110202468645 0.0
  outer loop
    vertex 3169.995945346651 1015.7426499557112 9.524999999999999
    vertex 3169.512356470382 1016.7898712746478 6.35
    vertex 3169.512356470382 1016.7898712746478 9.524999999999999
  endloop
endfacet
facet normal 0.9684928204710674 0.24904147585492012 0.0
  outer loop
    vertex 3169.995945346651 1015.7426499557112 6.35
    vertex 3170.2961047185295 1014.5753656884468 9.524999999999999
    vertex 3170.2961047185295 1014.5753656884468 6.35
  endloop
endfacet
facet normal 0.9684928204710674 0.24904147585492012 0.0
  outer loop
    vertex 3170.2961047185295 1014.5753656884468 9.524999999999999
    vertex 3169.995945346651 1015.7426499557112 6.35
    vertex 3169.995945346651 1015.7426499557112 9.524999999999999
  endloop
endfacet
facet normal 0.9968654249306033 0.07911589333331254 0.0
  outer loop
    vertex 3170.2961047185295 1014.5753656884468 6.35
    vertex 3170.3961571754694 1013.3146981942109 9.524999999999999
    vertex 3170.3961571754694 1013.3146981942109 6.35
  endloop
endfacet
facet normal 0.9968654249306033 0.07911589333331254 0.0
  outer loop
    vertex 3170.3961571754694 1013.3146981942109 9.524999999999999
    vertex 3170.2961047185295 1014.5753656884468 6.35
    vertex 3170.2961047185295 1014.5753656884468 9.524999999999999
  endloop
endfacet
facet normal 0.9892034623538709 -0.14654866108946216 0.0
  outer loop
    vertex 3170.3961571754694 1013.3146981942109 6.35
    vertex 3170.0759877124146 1011.1535543185898 9.524999999999999
    vertex 3170.0759877124146 1011.1535543185898 6.35
  endloop
endfacet
facet normal 0.9892034623538709 -0.14654866108946216 0.0
  outer loop
    vertex 3170.0759877124146 1011.1535543185898 9.524999999999999
    vertex 3170.3961571754694 1013.3146981942109 6.35
    vertex 3170.3961571754694 1013.3146981942109 9.524999999999999
  endloop
endfacet
facet normal 0.9298687404417878 -0.36789145892396474 0.0
  outer loop
    vertex 3170.0759877124146 1011.1535543185898 6.35
    vertex 3169.652430710522 1010.0829874263673 9.524999999999999
    vertex 3169.652430710522 1010.0829874263673 6.35
  endloop
endfacet
facet normal 0.9298687404417878 -0.36789145892396474 0.0
  outer loop
    vertex 3169.652430710522 1010.0829874263673 9.524999999999999
    vertex 3170.0759877124146 1011.1535543185898 6.35
    vertex 3170.0759877124146 1011.1535543185898 9.524999999999999
  endloop
endfacet
facet normal 0.8386408241552105 -0.5446848336976801 0.0
  outer loop
    vertex 3169.652430710522 1010.0829874263673 6.35
    vertex 3169.022096563192 1009.1124739916144 9.524999999999999
    vertex 3169.022096563192 1009.1124739916144 6.35
  endloop
endfacet
facet normal 0.8386408241552105 -0.5446848336976801 0.0
  outer loop
    vertex 3169.022096563192 1009.1124739916144 9.524999999999999
    vertex 3169.652430710522 1010.0829874263673 6.35
    vertex 3169.652430710522 1010.0829874263673 9.524999999999999
  endloop
endfacet
facet normal 0.7015176846831833 -0.712652045585183 0.0
  outer loop
    vertex 3169.022096563192 1009.1124739916144 9.524999999999999
    vertex 3168.1683119286963 1008.2720287508832 6.35
    vertex 3169.022096563192 1009.1124739916144 6.35
  endloop
endfacet
facet normal 0.7015176846831833 -0.712652045585183 0.0
  outer loop
    vertex 3168.1683119286963 1008.2720287508832 6.35
    vertex 3169.022096563192 1009.1124739916144 9.524999999999999
    vertex 3168.1683119286963 1008.2720287508832 9.524999999999999
  endloop
endfacet
facet normal 0.5281355475368927 -0.849160081155436 0.0
  outer loop
    vertex 3168.1683119286963 1008.2720287508832 9.524999999999999
    vertex 3167.0743989962743 1007.5916690421033 6.35
    vertex 3168.1683119286963 1008.2720287508832 6.35
  endloop
endfacet
facet normal 0.5281355475368927 -0.849160081155436 0.0
  outer loop
    vertex 3167.0743989962743 1007.5916690421033 6.35
    vertex 3168.1683119286963 1008.2720287508832 9.524999999999999
    vertex 3167.0743989962743 1007.5916690421033 9.524999999999999
  endloop
endfacet
facet normal 0.3148288082059856 -0.9491484718017508 0.0
  outer loop
    vertex 3167.0743989962743 1007.5916690421033 9.524999999999999
    vertex 3165.7170145939103 1007.1414299842851 6.35
    vertex 3167.0743989962743 1007.5916690421033 6.35
  endloop
endfacet
facet normal 0.3148288082059856 -0.9491484718017508 0.0
  outer loop
    vertex 3165.7170145939103 1007.1414299842851 6.35
    vertex 3167.0743989962743 1007.5916690421033 9.524999999999999
    vertex 3165.7170145939103 1007.1414299842851 9.524999999999999
  endloop
endfacet
facet normal 0.09089951223186217 -0.9958600698270864 0.0
  outer loop
    vertex 3165.7170145939103 1007.1414299842851 9.524999999999999
    vertex 3164.072810280134 1006.9913512988751 6.35
    vertex 3165.7170145939103 1007.1414299842851 6.35
  endloop
endfacet
facet normal 0.09089951223186217 -0.9958600698270864 0.0
  outer loop
    vertex 3164.072810280134 1006.9913512988751 6.35
    vertex 3165.7170145939103 1007.1414299842851 9.524999999999999
    vertex 3164.072810280134 1006.9913512988751 9.524999999999999
  endloop
endfacet
facet normal -0.11157895441815446 -0.9937555720251089 0.0
  outer loop
    vertex 3164.072810280134 1006.9913512988751 9.524999999999999
    vertex 3162.1718030593647 1007.2047965403469 6.35
    vertex 3164.072810280134 1006.9913512988751 6.35
  endloop
endfacet
facet normal -0.11157895441815446 -0.9937555720251089 0.0
  outer loop
    vertex 3162.1718030593647 1007.2047965403469 6.35
    vertex 3164.072810280134 1006.9913512988751 9.524999999999999
    vertex 3162.1718030593647 1007.2047965403469 9.524999999999999
  endloop
endfacet
facet normal -0.3954108775354139 -0.9185043483439118 0.0
  outer loop
    vertex 3162.1718030593647 1007.2047965403469 9.524999999999999
    vertex 3160.6843501294684 1007.8451365336884 6.35
    vertex 3162.1718030593647 1007.2047965403469 6.35
  endloop
endfacet
facet normal -0.3954108775354139 -0.9185043483439118 0.0
  outer loop
    vertex 3160.6843501294684 1007.8451365336884 6.35
    vertex 3162.1718030593647 1007.2047965403469 9.524999999999999
    vertex 3160.6843501294684 1007.8451365336884 9.524999999999999
  endloop
endfacet
facet normal -0.6515255959614474 -0.7586266524497283 0.0
  outer loop
    vertex 3160.6843501294684 1007.8451365336884 9.524999999999999
    vertex 3159.5504158807607 1008.8189847168295 6.35
    vertex 3160.6843501294684 1007.8451365336884 6.35
  endloop
endfacet
facet normal -0.6515255959614474 -0.7586266524497283 0.0
  outer loop
    vertex 3159.5504158807607 1008.8189847168295 6.35
    vertex 3160.6843501294684 1007.8451365336884 9.524999999999999
    vertex 3159.5504158807607 1008.8189847168295 9.524999999999999
  endloop
endfacet
facet normal -0.8221925559379779 -0.569209452627216 0.0
  outer loop
    vertex 3158.709971773963 1010.0329611978974 9.524999999999999
    vertex 3159.5504158807607 1008.8189847168295 6.35
    vertex 3159.5504158807607 1008.8189847168295 9.524999999999999
  endloop
endfacet
facet normal -0.8221925559379779 -0.569209452627216 0.0
  outer loop
    vertex 3159.5504158807607 1008.8189847168295 6.35
    vertex 3158.709971773963 1010.0329611978974 9.524999999999999
    vertex 3158.709971773963 1010.0329611978974 6.35
  endloop
endfacet
facet normal -0.9246323309198418 -0.3808609360616291 0.0
  outer loop
    vertex 3158.1329991371067 1011.4337022652531 9.524999999999999
    vertex 3158.709971773963 1010.0329611978974 6.35
    vertex 3158.709971773963 1010.0329611978974 9.524999999999999
  endloop
endfacet
facet normal -0.9246323309198418 -0.3808609360616291 0.0
  outer loop
    vertex 3158.709971773963 1010.0329611978974 6.35
    vertex 3158.1329991371067 1011.4337022652531 9.524999999999999
    vertex 3158.1329991371067 1011.4337022652531 6.35
  endloop
endfacet
facet normal -0.9758364788872169 -0.21850209718215183 0.0
  outer loop
    vertex 3157.7894845676797 1012.9678479425679 9.524999999999999
    vertex 3158.1329991371067 1011.4337022652531 6.35
    vertex 3158.1329991371067 1011.4337022652531 9.524999999999999
  endloop
endfacet
facet normal -0.9758364788872169 -0.21850209718215183 0.0
  outer loop
    vertex 3158.1329991371067 1011.4337022652531 6.35
    vertex 3157.7894845676797 1012.9678479425679 9.524999999999999
    vertex 3157.7894845676797 1012.9678479425679 6.35
  endloop
endfacet
facet normal -0.9973260870984828 -0.07307992879600951 0.0
  outer loop
    vertex 3157.562697864683 1016.062819418766 9.524999999999999
    vertex 3157.7894845676797 1012.9678479425679 6.35
    vertex 3157.7894845676797 1012.9678479425679 9.524999999999999
  endloop
endfacet
facet normal -0.9973260870984828 -0.07307992879600951 0.0
  outer loop
    vertex 3157.7894845676797 1012.9678479425679 6.35
    vertex 3157.562697864683 1016.062819418766 9.524999999999999
    vertex 3157.562697864683 1016.062819418766 6.35
  endloop
endfacet
facet normal -0.9961207807077969 0.08799653539821528 0.0
  outer loop
    vertex 3157.8962077220317 1019.8381510039561 9.524999999999999
    vertex 3157.562697864683 1016.062819418766 6.35
    vertex 3157.562697864683 1016.062819418766 9.524999999999999
  endloop
endfacet
facet normal -0.9961207807077969 0.08799653539821528 0.0
  outer loop
    vertex 3157.562697864683 1016.062819418766 6.35
    vertex 3157.8962077220317 1019.8381510039561 9.524999999999999
    vertex 3157.8962077220317 1019.8381510039561 6.35
  endloop
endfacet
facet normal -0.9675577214584892 0.2526500655967788 0.0
  outer loop
    vertex 3158.3464454458103 1021.5623974833902 9.524999999999999
    vertex 3157.8962077220317 1019.8381510039561 6.35
    vertex 3157.8962077220317 1019.8381510039561 9.524999999999999
  endloop
endfacet
facet normal -0.9675577214584892 0.2526500655967788 0.0
  outer loop
    vertex 3157.8962077220317 1019.8381510039561 6.35
    vertex 3158.3464454458103 1021.5623974833902 9.524999999999999
    vertex 3158.3464454458103 1021.5623974833902 6.35
  endloop
endfacet
facet normal -0.9117337595638345 0.4107816350223024 0.0
  outer loop
    vertex 3159.030141237018 1023.0798668173877 9.524999999999999
    vertex 3158.3464454458103 1021.5623974833902 6.35
    vertex 3158.3464454458103 1021.5623974833902 9.524999999999999
  endloop
endfacet
facet normal -0.9117337595638345 0.4107816350223024 0.0
  outer loop
    vertex 3158.3464454458103 1021.5623974833902 6.35
    vertex 3159.030141237018 1023.0798668173877 9.524999999999999
    vertex 3159.030141237018 1023.0798668173877 6.35
  endloop
endfacet
facet normal -0.8065395796548613 0.5911800964597504 0.0
  outer loop
    vertex 3159.9639681705753 1024.3538751728313 9.524999999999999
    vertex 3159.030141237018 1023.0798668173877 6.35
    vertex 3159.030141237018 1023.0798668173877 9.524999999999999
  endloop
endfacet
facet normal -0.8065395796548613 0.5911800964597504 0.0
  outer loop
    vertex 3159.030141237018 1023.0798668173877 6.35
    vertex 3159.9639681705753 1024.3538751728313 9.524999999999999
    vertex 3159.9639681705753 1024.3538751728313 6.35
  endloop
endfacet
facet normal -0.6376548176765341 0.7703222270543063 0.0
  outer loop
    vertex 3159.9639681705753 1024.3538751728313 9.524999999999999
    vertex 3161.164604324051 1025.3477338473606 6.35
    vertex 3159.9639681705753 1024.3538751728313 6.35
  endloop
endfacet
facet normal -0.6376548176765341 0.7703222270543063 0.0
  outer loop
    vertex 3161.164604324051 1025.3477338473606 6.35
    vertex 3159.9639681705753 1024.3538751728313 9.524999999999999
    vertex 3161.164604324051 1025.3477338473606 9.524999999999999
  endloop
endfacet
facet normal -0.3909689001973457 0.9204038891043855 0.0
  outer loop
    vertex 3161.164604324051 1025.3477338473606 9.524999999999999
    vertex 3162.672068012143 1025.9880738407019 6.35
    vertex 3161.164604324051 1025.3477338473606 6.35
  endloop
endfacet
facet normal -0.3909689001973457 0.9204038891043855 0.0
  outer loop
    vertex 3162.672068012143 1025.9880738407019 6.35
    vertex 3161.164604324051 1025.3477338473606 9.524999999999999
    vertex 3162.672068012143 1025.9880738407019 9.524999999999999
  endloop
endfacet
facet normal -0.11435221169036748 0.9934402708172854 0.0
  outer loop
    vertex 3162.672068012143 1025.9880738407019 9.524999999999999
    vertex 3164.5263836861286 1026.2015190821737 6.35
    vertex 3162.672068012143 1025.9880738407019 6.35
  endloop
endfacet
facet normal -0.11435221169036748 0.9934402708172854 0.0
  outer loop
    vertex 3164.5263836861286 1026.2015190821737 6.35
    vertex 3162.672068012143 1025.9880738407019 9.524999999999999
    vertex 3164.5263836861286 1026.2015190821737 9.524999999999999
  endloop
endfacet
facet normal 0.145583330527624 0.9893459930037038 0.0
  outer loop
    vertex 3164.5263836861286 1026.2015190821737 9.524999999999999
    vertex 3166.634167185209 1025.89135646566 6.35
    vertex 3164.5263836861286 1026.2015190821737 6.35
  endloop
endfacet
facet normal 0.145583330527624 0.9893459930037038 0.0
  outer loop
    vertex 3166.634167185209 1025.89135646566 6.35
    vertex 3164.5263836861286 1026.2015190821737 9.524999999999999
    vertex 3166.634167185209 1025.89135646566 9.524999999999999
  endloop
endfacet
facet normal 0.4055725351149105 0.9140628636808656 0.0
  outer loop
    vertex 3166.634167185209 1025.89135646566 9.524999999999999
    vertex 3167.5079609603777 1025.5036514503447 6.35
    vertex 3166.634167185209 1025.89135646566 6.35
  endloop
endfacet
facet normal 0.4055725351149105 0.9140628636808656 0.0
  outer loop
    vertex 3167.5079609603777 1025.5036514503447 6.35
    vertex 3166.634167185209 1025.89135646566 9.524999999999999
    vertex 3167.5079609603777 1025.5036514503447 9.524999999999999
  endloop
endfacet
facet normal 0.5843764687712673 0.8114826817292062 0.0
  outer loop
    vertex 3167.5079609603777 1025.5036514503447 9.524999999999999
    vertex 3168.2616940884363 1024.9608624128357 6.35
    vertex 3167.5079609603777 1025.5036514503447 6.35
  endloop
endfacet
facet normal 0.5843764687712673 0.8114826817292062 0.0
  outer loop
    vertex 3168.2616940884363 1024.9608624128357 6.35
    vertex 3167.5079609603777 1025.5036514503447 9.524999999999999
    vertex 3168.2616940884363 1024.9608624128357 9.524999999999999
  endloop
endfacet
facet normal 0.7434275465673053 0.6688164793162003 0.0
  outer loop
    vertex 3168.2616940884363 1024.9608624128357 6.35
    vertex 3168.882024274085 1024.2713301386757 9.524999999999999
    vertex 3168.882024274085 1024.2713301386757 6.35
  endloop
endfacet
facet normal 0.7434275465673053 0.6688164793162003 0.0
  outer loop
    vertex 3168.882024274085 1024.2713301386757 9.524999999999999
    vertex 3168.2616940884363 1024.9608624128357 6.35
    vertex 3168.2616940884363 1024.9608624128357 9.524999999999999
  endloop
endfacet
facet normal 0.8680275349397685 0.4965160607537174 0.0
  outer loop
    vertex 3168.882024274085 1024.2713301386757 6.35
    vertex 3169.355607887984 1023.443393945964 9.524999999999999
    vertex 3169.355607887984 1023.443393945964 6.35
  endloop
endfacet
facet normal 0.8680275349397685 0.4965160607537174 0.0
  outer loop
    vertex 3169.355607887984 1023.443393945964 9.524999999999999
    vertex 3168.882024274085 1024.2713301386757 6.35
    vertex 3168.882024274085 1024.2713301386757 9.524999999999999
  endloop
endfacet
facet normal 0.9713270001376038 0.23774746855368115 0.0
  outer loop
    vertex 3169.355607887984 1023.443393945964 6.35
    vertex 3169.862541403711 1021.372296347761 9.524999999999999
    vertex 3169.862541403711 1021.372296347761 6.35
  endloop
endfacet
facet normal 0.9713270001376038 0.23774746855368115 0.0
  outer loop
    vertex 3169.862541403711 1021.372296347761 9.524999999999999
    vertex 3169.355607887984 1023.443393945964 6.35
    vertex 3169.355607887984 1023.443393945964 9.524999999999999
  endloop
endfacet
facet normal -0.0958523944468988 -0.9953955588000161 0.0
  outer loop
    vertex 3165.080010349486 1017.3635082959897 9.524999999999999
    vertex 3164.179533434485 1017.4502204253376 6.35
    vertex 3165.080010349486 1017.3635082959897 6.35
  endloop
endfacet
facet normal -0.0958523944468988 -0.9953955588000161 0.0
  outer loop
    vertex 3164.179533434485 1017.4502204253376 6.35
    vertex 3165.080010349486 1017.3635082959897 9.524999999999999
    vertex 3164.179533434485 1017.4502204253376 9.524999999999999
  endloop
endfacet
facet normal 0.19461883858917176 -0.9808789464894239 0.0
  outer loop
    vertex 3164.179533434485 1017.4502204253376 9.524999999999999
    vertex 3162.4986437534467 1017.1167105679887 6.35
    vertex 3164.179533434485 1017.4502204253376 6.35
  endloop
endfacet
facet normal 0.19461883858917176 -0.9808789464894239 0.0
  outer loop
    vertex 3162.4986437534467 1017.1167105679887 6.35
    vertex 3164.179533434485 1017.4502204253376 9.524999999999999
    vertex 3162.4986437534467 1017.1167105679887 9.524999999999999
  endloop
endfacet
facet normal 0.5943910610838055 -0.8041761414663258 0.0
  outer loop
    vertex 3162.4986437534467 1017.1167105679887 9.524999999999999
    vertex 3161.271327478403 1016.2095637559997 6.35
    vertex 3162.4986437534467 1017.1167105679887 6.35
  endloop
endfacet
facet normal 0.5943910610838055 -0.8041761414663258 0.0
  outer loop
    vertex 3161.271327478403 1016.2095637559997 6.35
    vertex 3162.4986437534467 1017.1167105679887 9.524999999999999
    vertex 3161.271327478403 1016.2095637559997 9.524999999999999
  endloop
endfacet
facet normal 0.8729434821372647 -0.48782135766494195 0.0
  outer loop
    vertex 3161.271327478403 1016.2095637559997 6.35
    vertex 3160.510925003647 1014.8488435380159 9.524999999999999
    vertex 3160.510925003647 1014.8488435380159 6.35
  endloop
endfacet
facet normal 0.8729434821372647 -0.48782135766494195 0.0
  outer loop
    vertex 3160.510925003647 1014.8488435380159 9.524999999999999
    vertex 3161.271327478403 1016.2095637559997 6.35
    vertex 3161.271327478403 1016.2095637559997 9.524999999999999
  endloop
endfacet
facet normal 0.9886443953833743 -0.15027394809827255 0.0
  outer loop
    vertex 3160.510925003647 1014.8488435380159 6.35
    vertex 3160.257457512062 1013.1812942512714 9.524999999999999
    vertex 3160.257457512062 1013.1812942512714 6.35
  endloop
endfacet
facet normal 0.9886443953833743 -0.15027394809827255 0.0
  outer loop
    vertex 3160.257457512062 1013.1812942512714 9.524999999999999
    vertex 3160.510925003647 1014.8488435380159 6.35
    vertex 3160.510925003647 1014.8488435380159 9.524999999999999
  endloop
endfacet
facet normal 0.9872411207126471 0.15923243882462026 0.0
  outer loop
    vertex 3160.257457512062 1013.1812942512714 6.35
    vertex 3160.5242653979412 1011.5270853588205 9.524999999999999
    vertex 3160.5242653979412 1011.5270853588205 6.35
  endloop
endfacet
facet normal 0.9872411207126471 0.15923243882462026 0.0
  outer loop
    vertex 3160.5242653979412 1011.5270853588205 9.524999999999999
    vertex 3160.257457512062 1013.1812942512714 6.35
    vertex 3160.257457512062 1013.1812942512714 9.524999999999999
  endloop
endfacet
facet normal 0.8687772701926608 0.4952030440098168 0.0
  outer loop
    vertex 3160.5242653979412 1011.5270853588205 6.35
    vertex 3161.2846678726964 1010.193045929425 9.524999999999999
    vertex 3161.2846678726964 1010.193045929425 6.35
  endloop
endfacet
facet normal 0.8687772701926608 0.4952030440098168 0.0
  outer loop
    vertex 3161.2846678726964 1010.193045929425 9.524999999999999
    vertex 3160.5242653979412 1011.5270853588205 6.35
    vertex 3160.5242653979412 1011.5270853588205 9.524999999999999
  endloop
endfacet
facet normal 0.588694014172254 0.8083559597589159 0.0
  outer loop
    vertex 3161.2846678726964 1010.193045929425 9.524999999999999
    vertex 3162.511984147741 1009.2992395117298 6.35
    vertex 3161.2846678726964 1010.193045929425 6.35
  endloop
endfacet
facet normal 0.588694014172254 0.8083559597589159 0.0
  outer loop
    vertex 3162.511984147741 1009.2992395117298 6.35
    vertex 3161.2846678726964 1010.193045929425 9.524999999999999
    vertex 3162.511984147741 1009.2992395117298 9.524999999999999
  endloop
endfacet
facet normal 0.1961161351381838 0.9805806756909203 0.0
  outer loop
    vertex 3162.511984147741 1009.2992395117298 9.524999999999999
    vertex 3164.179533434485 1008.9657296543808 6.35
    vertex 3162.511984147741 1009.2992395117298 6.35
  endloop
endfacet
facet normal 0.1961161351381838 0.9805806756909203 0.0
  outer loop
    vertex 3164.179533434485 1008.9657296543808 6.35
    vertex 3162.511984147741 1009.2992395117298 9.524999999999999
    vertex 3164.179533434485 1008.9657296543808 9.524999999999999
  endloop
endfacet
facet normal -0.19917947719605159 0.9799630278045738 0.0
  outer loop
    vertex 3164.179533434485 1008.9657296543808 9.524999999999999
    vertex 3165.820401932642 1009.2992395117298 6.35
    vertex 3164.179533434485 1008.9657296543808 6.35
  endloop
endfacet
facet normal -0.19917947719605159 0.9799630278045738 0.0
  outer loop
    vertex 3165.820401932642 1009.2992395117298 6.35
    vertex 3164.179533434485 1008.9657296543808 9.524999999999999
    vertex 3165.820401932642 1009.2992395117298 9.524999999999999
  endloop
endfacet
facet normal -0.6127103496429069 0.7903075524379524 0.0
  outer loop
    vertex 3165.820401932642 1009.2992395117298 9.524999999999999
    vertex 3167.0076970248047 1010.2197267180127 6.35
    vertex 3165.820401932642 1009.2992395117298 6.35
  endloop
endfacet
facet normal -0.6127103496429069 0.7903075524379524 0.0
  outer loop
    vertex 3167.0076970248047 1010.2197267180127 6.35
    vertex 3165.820401932642 1009.2992395117298 9.524999999999999
    vertex 3167.0076970248047 1010.2197267180127 9.524999999999999
  endloop
endfacet
facet normal -0.878227666878418 0.4782427888941874 0.0
  outer loop
    vertex 3167.741418710972 1011.5671065417024 9.524999999999999
    vertex 3167.0076970248047 1010.2197267180127 6.35
    vertex 3167.0076970248047 1010.2197267180127 9.524999999999999
  endloop
endfacet
facet normal -0.878227666878418 0.4782427888941874 0.0
  outer loop
    vertex 3167.0076970248047 1010.2197267180127 6.35
    vertex 3167.741418710972 1011.5671065417024 9.524999999999999
    vertex 3167.741418710972 1011.5671065417024 6.35
  endloop
endfacet
facet normal -0.9874923620609782 0.15766684772402223 0.0
  outer loop
    vertex 3167.994886202557 1013.1546134626834 9.524999999999999
    vertex 3167.741418710972 1011.5671065417024 6.35
    vertex 3167.741418710972 1011.5671065417024 9.524999999999999
  endloop
endfacet
facet normal -0.9874923620609782 0.15766684772402223 0.0
  outer loop
    vertex 3167.741418710972 1011.5671065417024 6.35
    vertex 3167.994886202557 1013.1546134626834 9.524999999999999
    vertex 3167.994886202557 1013.1546134626834 6.35
  endloop
endfacet
facet normal -0.9908783423839451 -0.1347594545642173 0.0
  outer loop
    vertex 3167.7680994995603 1014.8221627494282 9.524999999999999
    vertex 3167.994886202557 1013.1546134626834 6.35
    vertex 3167.994886202557 1013.1546134626834 9.524999999999999
  endloop
endfacet
facet normal -0.9908783423839451 -0.1347594545642173 0.0
  outer loop
    vertex 3167.994886202557 1013.1546134626834 6.35
    vertex 3167.7680994995603 1014.8221627494282 9.524999999999999
    vertex 3167.7680994995603 1014.8221627494282 6.35
  endloop
endfacet
facet normal -0.8873591957255554 -0.46107879777896477 0.0
  outer loop
    vertex 3167.06105860198 1016.1828829674117 9.524999999999999
    vertex 3167.7680994995603 1014.8221627494282 6.35
    vertex 3167.7680994995603 1014.8221627494282 9.524999999999999
  endloop
endfacet
facet normal -0.8873591957255554 -0.46107879777896477 0.0
  outer loop
    vertex 3167.7680994995603 1014.8221627494282 6.35
    vertex 3167.06105860198 1016.1828829674117 9.524999999999999
    vertex 3167.06105860198 1016.1828829674117 6.35
  endloop
endfacet
facet normal -0.6084315436571364 -0.7936063612919155 0.0
  outer loop
    vertex 3167.06105860198 1016.1828829674117 9.524999999999999
    vertex 3165.860423115524 1017.1033701736948 6.35
    vertex 3167.06105860198 1016.1828829674117 6.35
  endloop
endfacet
facet normal -0.6084315436571364 -0.7936063612919155 0.0
  outer loop
    vertex 3165.860423115524 1017.1033701736948 6.35
    vertex 3167.06105860198 1016.1828829674117 9.524999999999999
    vertex 3165.860423115524 1017.1033701736948 9.524999999999999
  endloop
endfacet
facet normal -0.3162283498219881 -0.9486831034485976 0.0
  outer loop
    vertex 3165.860423115524 1017.1033701736948 9.524999999999999
    vertex 3165.080010349486 1017.3635082959897 6.35
    vertex 3165.860423115524 1017.1033701736948 6.35
  endloop
endfacet
facet normal -0.3162283498219881 -0.9486831034485976 0.0
  outer loop
    vertex 3165.080010349486 1017.3635082959897 6.35
    vertex 3165.860423115524 1017.1033701736948 9.524999999999999
    vertex 3165.080010349486 1017.3635082959897 9.524999999999999
  endloop
endfacet
facet normal -1.0 0.0 0.0
  outer loop
    vertex 3140.166927520075 1054.8431795277593 6.35
    vertex 3140.166927520075 978.6431795277589 0.0
    vertex 3140.166927520075 978.6431795277589 6.35
  endloop
endfacet
facet normal -1.0 0.0 0.0
  outer loop
    vertex 3140.166927520075 978.6431795277589 0.0
    vertex 3140.166927520075 1054.8431795277593 6.35
    vertex 3140.166927520075 1054.8431795277593 0.0
  endloop
endfacet
facet normal 0.0 -1.0 0.0
  outer loop
    vertex 3187.791927520078 978.6431795277589 6.35
    vertex 3140.166927520075 978.6431795277589 0.0
    vertex 3187.791927520078 978.6431795277589 0.0
  endloop
endfacet
facet normal 0.0 -1.0 0.0
  outer loop
    vertex 3140.166927520075 978.6431795277589 0.0
    vertex 3187.791927520078 978.6431795277589 6.35
    vertex 3140.166927520075 978.6431795277589 6.35
  endloop
endfacet
facet normal 0.0 1.0 0.0
  outer loop
    vertex 3140.166927520075 1054.8431795277593 6.35
    vertex 3187.791927520078 1054.8431795277593 0.0
    vertex 3140.166927520075 1054.8431795277593 0.0
  endloop
endfacet
facet normal 0.0 1.0 0.0
  outer loop
    vertex 3187.791927520078 1054.8431795277593 0.0
    vertex 3140.166927520075 1054.8431795277593 6.35
    vertex 3187.791927520078 1054.8431795277593 6.35
  endloop
endfacet
facet normal 0.0 0.0 1.0
  outer loop
    vertex 3187.791927520078 978.6431795277589 6.35
    vertex 3140.166927520075 1054.8431795277593 6.35
    vertex 3140.166927520075 978.6431795277589 6.35
  endloop
endfacet
facet normal 0.0 0.0 1.0
  outer loop
    vertex 3140.166927520075 1054.8431795277593 6.35
    vertex 3187.791927520078 978.6431795277589 6.35
    vertex 3187.791927520078 1054.8431795277593 6.35
  endloop
endfacet
facet normal 0.0 0.0 -1.0
  outer loop
    vertex 3187.791927520078 1054.8431795277593 0.0
    vertex 3140.166927520075 978.6431795277589 0.0
    vertex 3140.166927520075 1054.8431795277593 0.0
  endloop
endfacet
facet normal 0.0 0.0 -1.0
  outer loop
    vertex 3140.166927520075 978.6431795277589 0.0
    vertex 3187.791927520078 1054.8431795277593 0.0
    vertex 3187.791927520078 978.6431795277589 0.0
  endloop
endfacet
facet normal 1.0 0.0 0.0
  outer loop
    vertex 3187.791927520078 1054.8431795277593 0.0
    vertex 3187.791927520078 978.6431795277589 6.35
    vertex 3187.791927520078 978.6431795277589 0.0
  endloop
endfacet
facet normal 1.0 0.0 0.0
  outer loop
    vertex 3187.791927520078 978.6431795277589 6.35
    vertex 3187.791927520078 1054.8431795277593 0.0
    vertex 3187.791927520078 1054.8431795277593 6.35
  endloop
endfacet
endsolid box draft 1
