solid box draft 1
facet normal -0.0 -0.0 -1.0
  outer loop
    vertex 3232.947763376952 1028.28852499174 6.35
    vertex 3220.7012814150985 1026.1540619047066 6.35
    vertex 3220.7012814150985 1028.28852499174 6.35
  endloop
endfacet
facet normal -0.0 -0.0 -1.0
  outer loop
    vertex 3220.7012814150985 1026.1540619047066 6.35
    vertex 3232.947763376952 1028.28852499174 6.35
    vertex 3230.626534769803 1026.1540619047066 6.35
  endloop
endfacet
facet normal -0.0 -0.0 -1.0
  outer loop
    vertex 3230.626534769803 1026.1540619047066 6.35
    vertex 3232.947763376952 1028.28852499174 6.35
    vertex 3231.5536919397764 1024.793342353743 6.35
  endloop
endfacet
facet normal -0.0 -0.0 -1.0
  outer loop
    vertex 3231.5536919397764 1024.793342353743 6.35
    vertex 3232.947763376952 1028.28852499174 6.35
    vertex 3232.947763376952 1026.3408274248222 6.35
  endloop
endfacet
facet normal -0.0 -0.0 -1.0
  outer loop
    vertex 3223.432726563144 1012.0632705817939 6.35
    vertex 3225.6905888810384 1009.6920153459633 6.35
    vertex 3223.1559139651868 1009.6920153459633 6.35
  endloop
endfacet
facet normal -0.0 -0.0 -1.0
  outer loop
    vertex 3225.6905888810384 1009.6920153459633 6.35
    vertex 3223.432726563144 1012.0632705817939 6.35
    vertex 3223.94299722853 1014.3744937431422 6.35
  endloop
endfacet
facet normal -0.0 -0.0 -1.0
  outer loop
    vertex 3225.6905888810384 1009.6920153459633 6.35
    vertex 3223.94299722853 1014.3744937431422 6.35
    vertex 3224.6600429715922 1016.609010020837 6.35
  endloop
endfacet
facet normal -0.0 -0.0 -1.0
  outer loop
    vertex 3225.6905888810384 1009.6920153459633 6.35
    vertex 3224.6600429715922 1016.609010020837 6.35
    vertex 3225.5571849380995 1018.7501430715603 6.35
  endloop
endfacet
facet normal -0.0 -0.0 -1.0
  outer loop
    vertex 3225.6905888810384 1009.6920153459633 6.35
    vertex 3225.5571849380995 1018.7501430715603 6.35
    vertex 3225.9440557723065 1011.9398716177401 6.35
  endloop
endfacet
facet normal -0.0 -0.0 -1.0
  outer loop
    vertex 3225.9440557723065 1011.9398716177401 6.35
    vertex 3225.5571849380995 1018.7501430715603 6.35
    vertex 3227.8383923623655 1022.7122401768657 6.35
  endloop
endfacet
facet normal -0.0 -0.0 -1.0
  outer loop
    vertex 3225.9440557723065 1011.9398716177401 6.35
    vertex 3227.8383923623655 1022.7122401768657 6.35
    vertex 3226.4376509615004 1014.2544301944968 6.35
  endloop
endfacet
facet normal -0.0 -0.0 -1.0
  outer loop
    vertex 3226.4376509615004 1014.2544301944968 6.35
    vertex 3227.8383923623655 1022.7122401768657 6.35
    vertex 3227.1413563102687 1016.5689887712534 6.35
  endloop
endfacet
facet normal -0.0 -0.0 -1.0
  outer loop
    vertex 3227.1413563102687 1016.5689887712534 6.35
    vertex 3227.8383923623655 1022.7122401768657 6.35
    vertex 3228.0251578824814 1018.8168450430302 6.35
  endloop
endfacet
facet normal -0.0 -0.0 -1.0
  outer loop
    vertex 3228.0251578824814 1018.8168450430302 6.35
    vertex 3227.8383923623655 1022.7122401768657 6.35
    vertex 3230.626534769803 1026.1540619047066 6.35
  endloop
endfacet
facet normal -0.0 -0.0 -1.0
  outer loop
    vertex 3228.0251578824814 1018.8168450430302 6.35
    vertex 3230.626534769803 1026.1540619047066 6.35
    vertex 3230.2530037295724 1022.9790480627449 6.35
  endloop
endfacet
facet normal -0.0 -0.0 -1.0
  outer loop
    vertex 3230.2530037295724 1022.9790480627449 6.35
    vertex 3230.626534769803 1026.1540619047066 6.35
    vertex 3231.5536919397764 1024.793342353743 6.35
  endloop
endfacet
facet normal 0.0 0.0 1.0
  outer loop
    vertex 3225.6905888810384 1009.6920153459633 9.524999999999999
    vertex 3223.432726563144 1012.0632705817939 9.524999999999999
    vertex 3223.1559139651868 1009.6920153459633 9.524999999999999
  endloop
endfacet
facet normal 0.0 0.0 1.0
  outer loop
    vertex 3223.432726563144 1012.0632705817939 9.524999999999999
    vertex 3225.6905888810384 1009.6920153459633 9.524999999999999
    vertex 3223.94299722853 1014.3744937431422 9.524999999999999
  endloop
endfacet
facet normal 0.0 0.0 1.0
  outer loop
    vertex 3223.94299722853 1014.3744937431422 9.524999999999999
    vertex 3225.6905888810384 1009.6920153459633 9.524999999999999
    vertex 3224.6600429715922 1016.609010020837 9.524999999999999
  endloop
endfacet
facet normal 0.0 0.0 1.0
  outer loop
    vertex 3224.6600429715922 1016.609010020837 9.524999999999999
    vertex 3225.6905888810384 1009.6920153459633 9.524999999999999
    vertex 3225.5571849380995 1018.7501430715603 9.524999999999999
  endloop
endfacet
facet normal 0.0 0.0 1.0
  outer loop
    vertex 3225.5571849380995 1018.7501430715603 9.524999999999999
    vertex 3225.6905888810384 1009.6920153459633 9.524999999999999
    vertex 3225.9440557723065 1011.9398716177401 9.524999999999999
  endloop
endfacet
facet normal 0.0 0.0 1.0
  outer loop
    vertex 3225.5571849380995 1018.7501430715603 9.524999999999999
    vertex 3225.9440557723065 1011.9398716177401 9.524999999999999
    vertex 3227.8383923623655 1022.7122401768657 9.524999999999999
  endloop
endfacet
facet normal 0.0 0.0 1.0
  outer loop
    vertex 3227.8383923623655 1022.7122401768657 9.524999999999999
    vertex 3225.9440557723065 1011.9398716177401 9.524999999999999
    vertex 3226.4376509615004 1014.2544301944968 9.524999999999999
  endloop
endfacet
facet normal 0.0 0.0 1.0
  outer loop
    vertex 3227.8383923623655 1022.7122401768657 9.524999999999999
    vertex 3226.4376509615004 1014.2544301944968 9.524999999999999
    vertex 3227.1413563102687 1016.5689887712534 9.524999999999999
  endloop
endfacet
facet normal 0.0 0.0 1.0
  outer loop
    vertex 3227.8383923623655 1022.7122401768657 9.524999999999999
    vertex 3227.1413563102687 1016.5689887712534 9.524999999999999
    vertex 3228.0251578824814 1018.8168450430302 9.524999999999999
  endloop
endfacet
facet normal 0.0 0.0 1.0
  outer loop
    vertex 3227.8383923623655 1022.7122401768657 9.524999999999999
    vertex 3228.0251578824814 1018.8168450430302 9.524999999999999
    vertex 3230.626534769803 1026.1540619047066 9.524999999999999
  endloop
endfacet
facet normal 0.0 0.0 1.0
  outer loop
    vertex 3230.626534769803 1026.1540619047066 9.524999999999999
    vertex 3228.0251578824814 1018.8168450430302 9.524999999999999
    vertex 3230.2530037295724 1022.9790480627449 9.524999999999999
  endloop
endfacet
facet normal 0.0 0.0 1.0
  outer loop
    vertex 3230.626534769803 1026.1540619047066 9.524999999999999
    vertex 3230.2530037295724 1022.9790480627449 9.524999999999999
    vertex 3231.5536919397764 1024.793342353743 9.524999999999999
  endloop
endfacet
facet normal 0.0 0.0 1.0
  outer loop
    vertex 3230.626534769803 1026.1540619047066 9.524999999999999
    vertex 3220.7012814150985 1028.28852499174 9.524999999999999
    vertex 3220.7012814150985 1026.1540619047066 9.524999999999999
  endloop
endfacet
facet normal 0.0 0.0 1.0
  outer loop
    vertex 3220.7012814150985 1028.28852499174 9.524999999999999
    vertex 3230.626534769803 1026.1540619047066 9.524999999999999
    vertex 3232.947763376952 1028.28852499174 9.524999999999999
  endloop
endfacet
facet normal 0.0 0.0 1.0
  outer loop
    vertex 3232.947763376952 1028.28852499174 9.524999999999999
    vertex 3230.626534769803 1026.1540619047066 9.524999999999999
    vertex 3231.5536919397764 1024.793342353743 9.524999999999999
  endloop
endfacet
facet normal 0.0 0.0 1.0
  outer loop
    vertex 3232.947763376952 1028.28852499174 9.524999999999999
    vertex 3231.5536919397764 1024.793342353743 9.524999999999999
    vertex 3232.947763376952 1026.3408274248222 9.524999999999999
  endloop
endfacet
facet normal 1.0 0.0 0.0
  outer loop
    vertex 3232.947763376952 1028.28852499174 6.35
    vertex 3232.947763376952 1026.3408274248222 9.524999999999999
    vertex 3232.947763376952 1026.3408274248222 6.35
  endloop
endfacet
facet normal 1.0 0.0 0.0
  outer loop
    vertex 3232.947763376952 1026.3408274248222 9.524999999999999
    vertex 3232.947763376952 1028.28852499174 6.35
    vertex 3232.947763376952 1028.28852499174 9.524999999999999
  endloop
endfacet
facet normal 0.742975384037356 -0.6693187422406035 0.0
  outer loop
    vertex 3232.947763376952 1026.3408274248222 6.35
    vertex 3231.5536919397764 1024.793342353743 9.524999999999999
    vertex 3231.5536919397764 1024.793342353743 6.35
  endloop
endfacet
facet normal 0.742975384037356 -0.6693187422406035 0.0
  outer loop
    vertex 3231.5536919397764 1024.793342353743 9.524999999999999
    vertex 3232.947763376952 1026.3408274248222 6.35
    vertex 3232.947763376952 1026.3408274248222 9.524999999999999
  endloop
endfacet
facet normal 0.8127229519189783 -0.5826503268892093 0.0
  outer loop
    vertex 3231.5536919397764 1024.793342353743 6.35
    vertex 3230.2530037295724 1022.9790480627449 9.524999999999999
    vertex 3230.2530037295724 1022.9790480627449 6.35
  endloop
endfacet
facet normal 0.8127229519189783 -0.5826503268892093 0.0
  outer loop
    vertex 3230.2530037295724 1022.9790480627449 9.524999999999999
    vertex 3231.5536919397764 1024.793342353743 6.35
    vertex 3231.5536919397764 1024.793342353743 9.524999999999999
  endloop
endfacet
facet normal 0.8816479495856246 -0.471907716605126 0.0
  outer loop
    vertex 3230.2530037295724 1022.9790480627449 6.35
    vertex 3228.0251578824814 1018.8168450430302 9.524999999999999
    vertex 3228.0251578824814 1018.8168450430302 6.35
  endloop
endfacet
facet normal 0.8816479495856246 -0.471907716605126 0.0
  outer loop
    vertex 3228.0251578824814 1018.8168450430302 9.524999999999999
    vertex 3230.2530037295724 1022.9790480627449 6.35
    vertex 3230.2530037295724 1022.9790480627449 9.524999999999999
  endloop
endfacet
facet normal 0.9306506871110425 -0.3659088664951213 0.0
  outer loop
    vertex 3228.0251578824814 1018.8168450430302 6.35
    vertex 3227.1413563102687 1016.5689887712534 9.524999999999999
    vertex 3227.1413563102687 1016.5689887712534 6.35
  endloop
endfacet
facet normal 0.9306506871110425 -0.3659088664951213 0.0
  outer loop
    vertex 3227.1413563102687 1016.5689887712534 9.524999999999999
    vertex 3228.0251578824814 1018.8168450430302 6.35
    vertex 3228.0251578824814 1018.8168450430302 9.524999999999999
  endloop
endfacet
facet normal 0.9567573787537923 -0.2908871227816257 0.0
  outer loop
    vertex 3227.1413563102687 1016.5689887712534 6.35
    vertex 3226.4376509615004 1014.2544301944968 9.524999999999999
    vertex 3226.4376509615004 1014.2544301944968 6.35
  endloop
endfacet
facet normal 0.9567573787537923 -0.2908871227816257 0.0
  outer loop
    vertex 3226.4376509615004 1014.2544301944968 9.524999999999999
    vertex 3227.1413563102687 1016.5689887712534 6.35
    vertex 3227.1413563102687 1016.5689887712534 9.524999999999999
  endloop
endfacet
facet normal 0.9780081210950334 -0.20856681201035482 0.0
  outer loop
    vertex 3226.4376509615004 1014.2544301944968 6.35
    vertex 3225.9440557723065 1011.9398716177401 9.524999999999999
    vertex 3225.9440557723065 1011.9398716177401 6.35
  endloop
endfacet
facet normal 0.9780081210950334 -0.20856681201035482 0.0
  outer loop
    vertex 3225.9440557723065 1011.9398716177401 9.524999999999999
    vertex 3226.4376509615004 1014.2544301944968 6.35
    vertex 3226.4376509615004 1014.2544301944968 9.524999999999999
  endloop
endfacet
facet normal 0.9937026488938951 -0.11204929978030286 0.0
  outer loop
    vertex 3225.9440557723065 1011.9398716177401 6.35
    vertex 3225.6905888810384 1009.6920153459633 9.524999999999999
    vertex 3225.6905888810384 1009.6920153459633 6.35
  endloop
endfacet
facet normal 0.9937026488938951 -0.11204929978030286 0.0
  outer loop
    vertex 3225.6905888810384 1009.6920153459633 9.524999999999999
    vertex 3225.9440557723065 1011.9398716177401 6.35
    vertex 3225.9440557723065 1011.9398716177401 9.524999999999999
  endloop
endfacet
facet normal 0.0 -1.0 0.0
  outer loop
    vertex 3225.6905888810384 1009.6920153459633 9.524999999999999
    vertex 3223.1559139651868 1009.6920153459633 6.35
    vertex 3225.6905888810384 1009.6920153459633 6.35
  endloop
endfacet
facet normal 0.0 -1.0 0.0
  outer loop
    vertex 3223.1559139651868 1009.6920153459633 6.35
    vertex 3225.6905888810384 1009.6920153459633 9.524999999999999
    vertex 3223.1559139651868 1009.6920153459633 9.524999999999999
  endloop
endfacet
facet normal -0.9932551260565745 0.11594936206093838 0.0
  outer loop
    vertex 3223.432726563144 1012.0632705817939 9.524999999999999
    vertex 3223.1559139651868 1009.6920153459633 6.35
    vertex 3223.1559139651868 1009.6920153459633 9.524999999999999
  endloop
endfacet
facet normal -0.9932551260565745 0.11594936206093838 0.0
  outer loop
    vertex 3223.1559139651868 1009.6920153459633 6.35
    vertex 3223.432726563144 1012.0632705817939 9.524999999999999
    vertex 3223.432726563144 1012.0632705817939 6.35
  endloop
endfacet
facet normal -0.9764844728268102 0.21558774159990343 0.0
  outer loop
    vertex 3223.94299722853 1014.3744937431422 9.524999999999999
    vertex 3223.432726563144 1012.0632705817939 6.35
    vertex 3223.432726563144 1012.0632705817939 9.524999999999999
  endloop
endfacet
facet normal -0.9764844728268102 0.21558774159990343 0.0
  outer loop
    vertex 3223.432726563144 1012.0632705817939 6.35
    vertex 3223.94299722853 1014.3744937431422 9.524999999999999
    vertex 3223.94299722853 1014.3744937431422 6.35
  endloop
endfacet
facet normal -0.9521763814672695 0.30554891355705593 0.0
  outer loop
    vertex 3224.6600429715922 1016.609010020837 9.524999999999999
    vertex 3223.94299722853 1014.3744937431422 6.35
    vertex 3223.94299722853 1014.3744937431422 9.524999999999999
  endloop
endfacet
facet normal -0.9521763814672695 0.30554891355705593 0.0
  outer loop
    vertex 3223.94299722853 1014.3744937431422 6.35
    vertex 3224.6600429715922 1016.609010020837 9.524999999999999
    vertex 3224.6600429715922 1016.609010020837 6.35
  endloop
endfacet
facet normal -0.9223099488231425 0.386450977876693 0.0
  outer loop
    vertex 3225.5571849380995 1018.7501430715603 9.524999999999999
    vertex 3224.6600429715922 1016.609010020837 6.35
    vertex 3224.6600429715922 1016.609010020837 9.524999999999999
  endloop
endfacet
facet normal -0.9223099488231425 0.386450977876693 0.0
  outer loop
    vertex 3224.6600429715922 1016.609010020837 6.35
    vertex 3225.5571849380995 1018.7501430715603 9.524999999999999
    vertex 3225.5571849380995 1018.7501430715603 6.35
  endloop
endfacet
facet normal -0.8666224568741691 0.4989644448669455 0.0
  outer loop
    vertex 3227.8383923623655 1022.7122401768657 9.524999999999999
    vertex 3225.5571849380995 1018.7501430715603 6.35
    vertex 3225.5571849380995 1018.7501430715603 9.524999999999999
  endloop
endfacet
facet normal -0.8666224568741691 0.4989644448669455 0.0
  outer loop
    vertex 3225.5571849380995 1018.7501430715603 6.35
    vertex 3227.8383923623655 1022.7122401768657 9.524999999999999
    vertex 3227.8383923623655 1022.7122401768657 6.35
  endloop
endfacet
facet normal -0.7770344165263309 0.6294581126124156 0.0
  outer loop
    vertex 3230.626534769803 1026.1540619047066 9.524999999999999
    vertex 3227.8383923623655 1022.7122401768657 6.35
    vertex 3227.8383923623655 1022.7122401768657 9.524999999999999
  endloop
endfacet
facet normal -0.7770344165263309 0.6294581126124156 0.0
  outer loop
    vertex 3227.8383923623655 1022.7122401768657 6.35
    vertex 3230.626534769803 1026.1540619047066 9.524999999999999
    vertex 3230.626534769803 1026.1540619047066 6.35
  endloop
endfacet
facet normal 0.0 -1.0 0.0
  outer loop
    vertex 3230.626534769803 1026.1540619047066 9.524999999999999
    vertex 3220.7012814150985 1026.1540619047066 6.35
    vertex 3230.626534769803 1026.1540619047066 6.35
  endloop
endfacet
facet normal 0.0 -1.0 0.0
  outer loop
    vertex 3220.7012814150985 1026.1540619047066 6.35
    vertex 3230.626534769803 1026.1540619047066 9.524999999999999
    vertex 3220.7012814150985 1026.1540619047066 9.524999999999999
  endloop
endfacet
facet normal -1.0 0.0 0.0
  outer loop
    vertex 3220.7012814150985 1028.28852499174 9.524999999999999
    vertex 3220.7012814150985 1026.1540619047066 6.35
    vertex 3220.7012814150985 1026.1540619047066 9.524999999999999
  endloop
endfacet
facet normal -1.0 0.0 0.0
  outer loop
    vertex 3220.7012814150985 1026.1540619047066 6.35
    vertex 3220.7012814150985 1028.28852499174 9.524999999999999
    vertex 3220.7012814150985 1028.28852499174 6.35
  endloop
endfacet
facet normal 0.0 1.0 0.0
  outer loop
    vertex 3220.7012814150985 1028.28852499174 9.524999999999999
    vertex 3232.947763376952 1028.28852499174 6.35
    vertex 3220.7012814150985 1028.28852499174 6.35
  endloop
endfacet
facet normal 0.0 1.0 0.0
  outer loop
    vertex 3232.947763376952 1028.28852499174 6.35
    vertex 3220.7012814150985 1028.28852499174 9.524999999999999
    vertex 3232.947763376952 1028.28852499174 9.524999999999999
  endloop
endfacet
facet normal 0.0 0.0 -1.0
  outer loop
    vertex 3250.637022396026 1057.2503549003807 0.0
    vertex 3203.0120223960234 981.0503549003801 0.0
    vertex 3203.0120223960234 1057.2503549003807 0.0
  endloop
endfacet
facet normal 0.0 0.0 -1.0
  outer loop
    vertex 3203.0120223960234 981.0503549003801 0.0
    vertex 3250.637022396026 1057.2503549003807 0.0
    vertex 3250.637022396026 981.0503549003801 0.0
  endloop
endfacet
facet normal 0.0 1.0 0.0
  outer loop
    vertex 3203.0120223960234 1057.2503549003807 6.35
    vertex 3250.637022396026 1057.2503549003807 0.0
    vertex 3203.0120223960234 1057.2503549003807 0.0
  endloop
endfacet
facet normal 0.0 1.0 0.0
  outer loop
    vertex 3250.637022396026 1057.2503549003807 0.0
    vertex 3203.0120223960234 1057.2503549003807 6.35
    vertex 3250.637022396026 1057.2503549003807 6.35
  endloop
endfacet
facet normal 1.0 0.0 0.0
  outer loop
    vertex 3250.637022396026 1057.2503549003807 0.0
    vertex 3250.637022396026 981.0503549003801 6.35
    vertex 3250.637022396026 981.0503549003801 0.0
  endloop
endfacet
facet normal 1.0 0.0 0.0
  outer loop
    vertex 3250.637022396026 981.0503549003801 6.35
    vertex 3250.637022396026 1057.2503549003807 0.0
    vertex 3250.637022396026 1057.2503549003807 6.35
  endloop
endfacet
facet normal 0.0 0.0 1.0
  outer loop
    vertex 3250.637022396026 981.0503549003801 6.35
    vertex 3203.0120223960234 1057.2503549003807 6.35
    vertex 3203.0120223960234 981.0503549003801 6.35
  endloop
endfacet
facet normal 0.0 0.0 1.0
  outer loop
    vertex 3203.0120223960234 1057.2503549003807 6.35
    vertex 3250.637022396026 981.0503549003801 6.35
    vertex 3250.637022396026 1057.2503549003807 6.35
  endloop
endfacet
facet normal -1.0 0.0 0.0
  outer loop
    vertex 3203.0120223960234 1057.2503549003807 6.35
    vertex 3203.0120223960234 981.0503549003801 0.0
    vertex 3203.0120223960234 981.0503549003801 6.35
  endloop
endfacet
facet normal -1.0 0.0 0.0
  outer loop
    vertex 3203.0120223960234 981.0503549003801 0.0
    vertex 3203.0120223960234 1057.2503549003807 6.35
    vertex 3203.0120223960234 1057.2503549003807 0.0
  endloop
endfacet
facet normal 0.0 -1.0 0.0
  outer loop
    vertex 3250.637022396026 981.0503549003801 6.35
    vertex 3203.0120223960234 981.0503549003801 0.0
    vertex 3250.637022396026 981.0503549003801 0.0
  endloop
endfacet
facet normal 0.0 -1.0 0.0
  outer loop
    vertex 3203.0120223960234 981.0503549003801 0.0
    vertex 3250.637022396026 981.0503549003801 6.35
    vertex 3203.0120223960234 981.0503549003801 6.35
  endloop
endfacet
endsolid box draft 1
